<?xml version="1.0" encoding="utf-8"?>
<!-- Generator: Adobe Illustrator 22.1.0, SVG Export Plug-In . SVG Version: 6.00 Build 0)  -->
<svg version="1.1" id="Capa_1" xmlns="http://www.w3.org/2000/svg" xmlns:xlink="http://www.w3.org/1999/xlink" x="0px" y="0px"
	 viewBox="0 0 440.9 446.6" style="enable-background:new 0 0 440.9 446.6;" xml:space="preserve">
<style type="text/css">
	.st0{fill:#2770B5;}
	.st1{fill:#B5C2DC;}
</style>
<path class="st0" d="M9.8,45.8v354.8c0,12.9,9,25.1,20.4,30.8c7.5,3.7,11.2,3.7,21.9,3.7h128.8c17.5,0,33.6,0.6,50.7,0.6
	c54.6,0,109.3,0,163.9,0c10.7,0,19.2-4.9,24.7-10.4c3.6-3.6,4.9-5.1,7.3-10c1.8-3.7,3.7-8.9,3.7-14.1V45.8
	c0-17.5-17.1-34.5-34.6-34.5H44.3c-4.9,0-10.3,1.8-13.8,3.5C19,20.6,9.8,32.8,9.8,45.8L9.8,45.8z M214.4,305.8
	c2.5-5.9,9.6-12.4,16.1-15.1c25.8-10.6,52.6,10.9,52.1,34.7c-0.4,16.9-14,30.2-27,34.4c-14.3,4.6-30.2-0.2-38.6-11.9
	c-1.3-1.7-1.6-3-3.4-4.4v73.1c-5.8,1.4-38.1,0.3-46.6,0.3H49.9c-15.4,0-23.6-7-23.6-23c0-17.1-0.6-157.3,0.2-162.5H69
	c-0.4,4.3-2.2,8.4-2.5,13.8c-2,27.8,21,58.6,51.5,59.1c27.7,0.4,46.8-22.9,51.4-43.9c2.9-13.3,0.6-17.4-1.2-27.9
	c1.1-1-1.8-0.9,5-0.8h40.1c0,10.1-0.7,70.6,0.3,75.2C215,306.1,213.7,306.8,214.4,305.8L214.4,305.8z M227.2,102V29.7
	c7.9-0.6,17.9-0.1,26.1-0.1h130.4c9,0,16-1.1,22.6,3.8c4.7,3.4,8.3,8.5,8.3,17.5c0,18.4,0.5,158.3-0.2,164.2h-44.6
	c0.3-3.8,2.1-8.5,2.6-13.3c2.8-29.9-18.4-59.5-49.9-59.6c-32.1-0.1-53.2,29.9-50.2,60.2c0.5,4.7,2.1,8.8,2.6,12.7h-47.6
	c-1.5-14.8,1.4-65.7-0.5-73.6c-4.8,6.7-9,10.4-17.7,13.6c-26.4,9.5-56.4-9.5-54-36.1c2.2-25.4,32.1-44,56.2-32.1
	C219.2,90.6,222.2,95.2,227.2,102L227.2,102z M28,215.4V51.9c0-8.4,0.7-12.7,5.3-17.7c3.7-4,9.3-6.5,17.2-6.4h163v44.9
	c-19.1-4.2-32.7-5-50.7,6.8c-37.9,24.9-24.9,82.6,22.8,90.2c11.6,1.8,17.5,0,27.9-2.2v47.9h-73.6c1.5,1.3,2.8,2,4.6,3.3
	c29.5,21.7,9.5,68.7-24.3,68.7c-26,0-47.1-30.4-35.2-55.7c5.1-10.8,12-12.9,15.5-16.4L28,215.4z"/>
<path class="st1" d="M168.1,232.5c1.1-1-1.8-0.9,5-0.8h40.1c0,10.1-0.7,70.6,0.3,75.2c1.5-0.7,0.2-0.1,0.9-1
	c-1.2-0.9-0.6-15.4-0.6-17.7c0-13.3,0.8-47.7-0.1-56.6c-4.3-0.9-40.2-0.7-46-0.2L168.1,232.5z"/>
</svg>
