<?xml version="1.0" encoding="utf-8"?>
<!-- Generator: Adobe Illustrator 22.1.0, SVG Export Plug-In . SVG Version: 6.00 Build 0)  -->
<svg version="1.1" id="Capa_1" xmlns="http://www.w3.org/2000/svg" xmlns:xlink="http://www.w3.org/1999/xlink" x="0px" y="0px"
	 viewBox="0 0 440.9 446.6" style="enable-background:new 0 0 440.9 446.6;" xml:space="preserve">
<style type="text/css">
	.st0{fill:#2770B5;}
	.st1{fill:#FFFFFF;}
</style>
<g>
	<path class="st0" d="M187.4,35.2H74.9c-13.2,0-25.1,12.3-25.1,25.6v354.5c0,13.6,12.4,25.6,24.1,25.6h293.3
		c11.6,0,24.1-12,24.1-25.6V60.8c0-13.3-11.9-25.6-25.1-25.6H253.6c-0.2-7.2-5.6-15.3-10.2-20c-5.9-6-13.7-8.9-21.6-9.2h-2.1
		c-11.7,0.4-23.1,6.6-28.6,17.4C189.7,26.4,187.4,31.3,187.4,35.2z"/>
	<path class="st1" d="M291,54c-1,4.7-0.3,20.1-0.2,25.9c0.1,11.8-6.7,9.2-17.5,9.2c-35.2,0-70.3,0-105.5,0
		c-10.2,0-17.6,2.5-17.5-8.7c0-5.9,0.8-21.6-0.2-26.4H75.6c-6.2,0.6-6.9,5.6-6.9,11.8v338.5c0,6.5-1.2,12.9,2.9,16.4
		c3.6,3,29.3,1.6,35.9,1.6H333c40.2,0,39.4,3.8,39.4-16.9V66.9c0-15.5-3.7-12.8-24.8-12.8L291,54z"/>
	<path class="st1" d="M199.4,53.4c-7.1,0.4-30.5-1-34.6,0.8c-0.9,3.5-1,14.4,0.5,17c4.1,0.9,72.4,0.3,82.8,0.3
		c31.6,0,28.5,2.3,28.5-8.8c0-2.8,0.2-6.1-0.4-8.5c-4.1-1.9-27.5-0.5-34.6-0.8c1-7.7,0-13.6-4.6-18.2c-9.5-9.8-23.4-9.9-32.9-0.2
		C199.3,39.9,198.3,45,199.4,53.4z"/>
	<path class="st0" d="M283.2,208.2c-6.5-1.7-14-18.5-22.6-20.3c-3.5-0.7-5.6,0.8-7.4,3c-6.8,8.6,6.3,19.3,12.6,26.5
		c1.8,2.1,3.3,3.8,5.4,5.7c14.8,13.2,10.9,18.3,33.5-10.7c3-3.8,25-34.3,26.3-38.5c3.1-10.2-7.5-21.1-20.3-3.2L292.9,196
		C290.7,199.3,285.6,206.5,283.2,208.2z"/>
	<path class="st0" d="M282.8,325.4c-7.4-3.2-13.8-19.1-22.8-20.4c-5.9-0.8-10,5.7-8.2,11.7c1.8,5.9,14.5,18.4,19.6,23.6
		c14.5,14.9,13.7,12.6,23.7,0.9c3.5-4.1,6.5-7.7,9.9-12.1c3-3.8,25.2-34.5,26.1-38.7c2.3-9.7-7.4-20.5-20.6-2.5l-17.8,25.4
		C290.5,316.6,285.8,323.8,282.8,325.4z"/>
	<path class="st0" d="M117.8,188.3c-10.7,2.4-10.2,15.9-1.2,18.6c3.3,1,57.6,0.4,65.8,0.4c6.9,0,27.6,0.9,32.8-0.2
		c9.5-2,10.2-15.6,0.7-18.6c-3.2-1-57.6-0.5-65.7-0.5C143.6,188,122.7,187.2,117.8,188.3z"/>
	<path class="st0" d="M117.9,303.1c-10.3,1.8-10.8,15.4-1.7,18.6c3.4,1.2,70.5,0.6,82.1,0.6c4.1,0,12.7,0.5,16.3-0.2
		c9.8-1.7,10.5-15.4,1.6-18.6c-3.4-1.2-70.5-0.6-82.2-0.6C130.1,302.9,121.4,302.5,117.9,303.1z"/>
</g>
</svg>
