<?xml version="1.0" encoding="utf-8"?>
<!-- Generator: Adobe Illustrator 22.1.0, SVG Export Plug-In . SVG Version: 6.00 Build 0)  -->
<svg version="1.1" id="Capa_1" xmlns="http://www.w3.org/2000/svg" xmlns:xlink="http://www.w3.org/1999/xlink" x="0px" y="0px"
	 viewBox="0 0 440.9 446.6" style="enable-background:new 0 0 440.9 446.6;" xml:space="preserve">
<style type="text/css">
	.st0{fill:#2770B5;}
	.st1{fill:#CAD3E7;}
</style>
<g>
	<path class="st0" d="M440.9,0H334.7v35.4l33.7,0.6c3.8,0,6.4,0.6,10.8,0.6c-1.9,2.8-5,5.5-7.6,7.8c-0.4,0.4-0.9,0.7-1.2,1.1l-12,12
		c-0.1,0.1-0.2,0.2-0.3,0.3l-10.8,10.9c-0.1,0.1-0.5,0.4-0.6,0.5l-0.6,0.6c-0.1,0.1-0.2,0.2-0.3,0.3l-3.7,3.7
		c-0.1,0.1-0.2,0.2-0.3,0.3l-4,4c-0.1,0.1-0.2,0.2-0.3,0.3c-0.1,0.1-0.2,0.2-0.3,0.3c-0.1,0.1-0.2,0.2-0.3,0.3l-1.7,1.7
		c-0.1,0.1-0.5,0.4-0.6,0.5l-9.4,9.4c-0.1,0.1-0.2,0.2-0.3,0.3l-3.7,3.7c-0.1,0.1-0.2,0.2-0.3,0.3l-17,17.1
		c-0.1,0.1-0.2,0.2-0.3,0.3c-0.1,0.1-0.2,0.2-0.3,0.3l-7,6.8l-12.7-13c-5.3-5.5-15.6-18.3-21-21.9c-1.3,0.9-2.1,1.8-3.4,2.9
		l-3.6,3.2c-2.4,2.4-4.4,4.4-6.8,6.9l-61.7,60c-2.5,2.5-4.7,4.1-7.1,6.6c-5.1,5.1-9.7,10.4-15.2,15.1c-0.1,0.1-0.2,0.2-0.3,0.3
		s-0.2,0.2-0.3,0.3l-0.6,0.5c-3.9,3.2-7,7.9-11.1,10.6c-3.4-2.3-6-5.7-8.7-9l-26.7-27c-2.3,3.5-34.2,34.8-40.1,41
		c-1.5,1.6-1.9,2.5-3.4,4l-22,22c-1.3,1.3-2.5,2.4-3.7,3.7c-8,9.1-17,17.7-25.7,26.3l-7.1,7.7c-3.6,3.6-11.5,12.4-15,14.7
		c2.4,3.6,13.5,15.5,17,19l5.8,6.7l95.2-95l36.6,36.3l93.1-94.5c3.3-3.3,11.1-10.4,13.3-13.6c3.6,2.4,33.1,32.5,36.5,34.8
		c6.8-4.6,38.9-40.5,50.3-49.6c1.4-1.1,2.2-2.1,3.5-3.4l54.1-53.3v44h34.8c0-18.2,0.6-34.6,0.6-52.5v-0.8v-0.8v-0.8V50v-1v-0.8v-0.8
		v-0.8v-0.8V45v-1v-0.8v-0.8v-0.8v-0.8V40v-1v-0.8v-0.8v-0.8v-0.8V35v-1v-0.8v-0.8v-0.8v-0.8V30v-1v-0.8v-0.8v-0.8v-0.8V25v-0.8
		v-0.8v-0.8v-0.8V21v-0.8v-0.8v-0.8v-0.8V17v-0.8v-0.8v-0.8v-0.8V13v-0.8v-0.8V10V9.1V8.3V7.5V6.6V5.8V5V4.1V3.3V2.5V1.7V0.8
		L440.9,0L440.9,0z"/>
	<rect x="387.2" y="137.6" class="st0" width="34.8" height="309"/>
	<rect x="324.9" y="178.2" class="st0" width="34.8" height="268.4"/>
	<path class="st0" d="M297,446.6V181.1c-0.7-0.4,0-0.2-1.3-0.5l-33-0.1v266.2H297V446.6z"/>
	<rect x="199.9" y="213" class="st0" width="34.8" height="233.6"/>
	<rect x="137.6" y="267.3" class="st0" width="34.8" height="179.3"/>
	<rect x="75.4" y="278.2" class="st0" width="34.3" height="168.5"/>
	<rect x="12.6" y="338.1" class="st0" width="34.8" height="108.5"/>
	<path class="st1" d="M297,446.6l0.6-3.4c0-1.3,0-2.7,0-4L297,181.1V446.6z"/>
</g>
</svg>
