<?xml version="1.0" encoding="utf-8"?>
<!-- Generator: Adobe Illustrator 22.1.0, SVG Export Plug-In . SVG Version: 6.00 Build 0)  -->
<svg version="1.1" id="Capa_1" xmlns="http://www.w3.org/2000/svg" xmlns:xlink="http://www.w3.org/1999/xlink" x="0px" y="0px"
	 viewBox="0 0 440.9 446.6" style="enable-background:new 0 0 440.9 446.6;" xml:space="preserve">
<style type="text/css">
	.st0{fill:#2770B5;}
</style>
<path class="st0" d="M133.8,101.9L133.8,101.9c4.9-3.7-28.2-56.2-28.2-56.2c-3.7-4.9-10.7-5.9-15.6-2.2l0,0c-5,3.7-6,10.7-2.3,15.7
	C87.7,59.2,128.9,105.7,133.8,101.9z"/>
<path class="st0" d="M165.4,78.9L165.4,78.9c6.1-0.7,3.6-62.8,3.6-62.8c-0.7-6.1-6.3-10.5-12.4-9.8l0,0c-6.1,0.8-10.5,6.3-9.7,12.5
	C146.8,18.8,159.3,79.6,165.4,78.9z"/>
<path class="st0" d="M203.1,92.1L203.1,92.1c5.7,2.4,34.5-52.6,34.5-52.6c2.4-5.7-0.2-12.3-5.9-14.7l0,0c-5.7-2.4-12.2,0.2-14.7,5.9
	C217.1,30.7,197.4,89.6,203.1,92.1z"/>
<path class="st0" d="M211.7,440.8c-12.3-10-25.5-19.6-39.8-28.6c-21.9-13.8-44.3-25.1-66-33.6c-21-38.6-11.1-84.7,10.2-119.3
	c-4.9-35.1-9.3-61.3-49.4-77.5c-14.9-6-18.3-19.2-10.8-32.1c7.2-12.2,31.4-14.7,46.5-8.2c18.5,7.9,32.2,17.7,43.2,29.1l0,0
	c0,0,0,0,0.1,0.1c0.7,0.8,1.5,1.6,2.2,2.4c3.9,3.8,12.3,10.6,22.9,11c9.2,0.3,17.3-6.5,20.2-9.3c43.1-50.1,93.1-97,132.3-124
	c13-8.9,31.4-6.8,41.2,4.8c9.8,11.6,7.2,28.2-5.8,37.1c-30.3,20.8-64.2,57.1-95.3,97.1c2.8-2,5.5-3.9,8.2-5.7
	c13.8-9.2,32.2-11.4,44.5-0.5s12.3,28.9,0,40.1c-3.2,2.9-6.5,6.1-9.9,9.4c7.1-4.2,18-4.9,25.7-4.4c7.4,0.5,14.5,3.3,20,8.4
	c12,11.2,11.6,29.1-1,40.1c-2.5,2.2-5.1,4.5-7.9,6.8c6.4-2.1,13.7-2.4,19.8-1.5c7.2,1.1,14.1,4.4,19,10c10.9,12.1,6.3,27.3-4.9,39.9
	c-8.4,9.5-16.3,18.1-23.9,25.9l0.2,0.2C306.5,405.3,263.7,442.5,211.7,440.8z"/>
</svg>
