<?xml version="1.0" encoding="utf-8"?>
<!-- Generator: Adobe Illustrator 22.1.0, SVG Export Plug-In . SVG Version: 6.00 Build 0)  -->
<svg version="1.1" id="Capa_1" xmlns="http://www.w3.org/2000/svg" xmlns:xlink="http://www.w3.org/1999/xlink" x="0px" y="0px"
	 viewBox="0 0 250 250" style="enable-background:new 0 0 250 250;" xml:space="preserve">
<style type="text/css">
	.st0{fill-rule:evenodd;clip-rule:evenodd;fill:#091B26;}
</style>
<path class="st0" d="M247.1,104.2l-1.9-4.4l-3.5-2.6c-4.6-3.4-27.4,0.1-33.6-5.3c-4.6-4.1-5.3-11.3-6.3-21
	c-2.5-18.8-4.1-20-7.1-26.3c-10.9-22.8-40.2-40-60.2-42.4H79.9C37.2,2,2,37.1,2,79.6v38.1v52.5c0,42.7,35.2,77.4,77.9,77.4h89.5
	c43,0,77.7-34.7,78-77.4l0.4-51.7v-11L247.1,104.2z M81,65.5h43.1c8.2,0,14.9,6.6,14.9,14.9c0,8.1-6.6,14.9-14.9,14.9H81
	c-8.4,0-15-6.8-15-14.9C66,72.1,72.7,65.5,81,65.5L81,65.5z M168.8,184H81c-8.4,0-15-6.6-15-14.9c0-8.1,6.6-14.7,15-14.7h87.7
	c8.1,0,14.7,6.6,14.7,14.7C183.5,177.4,176.9,184,168.8,184L168.8,184z"/>
</svg>
