<?xml version="1.0" encoding="utf-8"?>
<!-- Generator: Adobe Illustrator 22.1.0, SVG Export Plug-In . SVG Version: 6.00 Build 0)  -->
<svg version="1.1" id="Capa_1" xmlns="http://www.w3.org/2000/svg" xmlns:xlink="http://www.w3.org/1999/xlink" x="0px" y="0px"
	 viewBox="0 0 250 250" style="enable-background:new 0 0 250 250;" xml:space="preserve">
<style type="text/css">
	.st0{fill:#B0B0B0;}
</style>
<g>
	<path class="st0" d="M201.4,172.5c-1,0-1.9-0.3-2.7-1.1L153,128.6c-1.6-1.5-1.7-4-0.2-5.6c1.5-1.6,4-1.7,5.6-0.1l45.7,42.8
		c1.6,1.5,1.7,4,0.2,5.6C203.5,172.1,202.5,172.5,201.4,172.5L201.4,172.5z M201.4,172.5"/>
	<path class="st0" d="M48.9,172.5c-1.1,0-2.1-0.4-2.9-1.2c-1.5-1.6-1.4-4.1,0.1-5.6l45.7-42.8c1.6-1.5,4.1-1.4,5.6,0.1
		c1.5,1.6,1.4,4.1-0.1,5.6l-45.7,42.8C50.8,172.1,49.8,172.5,48.9,172.5L48.9,172.5z M48.9,172.5"/>
	<path class="st0" d="M228.4,212.4H21.9c-10.9,0-19.9-8.9-19.9-19.9V57.1c0-10.9,8.9-19.9,19.9-19.9h206.6
		c10.9,0,19.9,8.9,19.9,19.9v135.4C248.3,203.5,239.4,212.4,228.4,212.4L228.4,212.4z M21.9,45.2c-6.6,0-11.9,5.4-11.9,11.9v135.4
		c0,6.6,5.4,11.9,11.9,11.9h206.6c6.6,0,11.9-5.3,11.9-11.9V57.1c0-6.6-5.3-11.9-11.9-11.9H21.9z M21.9,45.2"/>
	<path class="st0" d="M125.2,144.8c-5.3,0-10.6-1.7-14.6-5.2l-102-89c-1.7-1.4-1.8-4-0.4-5.6c1.4-1.7,4-1.8,5.6-0.4l102,89
		c5.1,4.4,13.6,4.4,18.7,0l101.8-88.8c1.7-1.4,4.1-1.3,5.6,0.4c1.4,1.7,1.3,4.1-0.4,5.6l-101.8,88.8
		C135.7,143,130.4,144.8,125.2,144.8L125.2,144.8z M125.2,144.8"/>
</g>
</svg>
