<?xml version="1.0" encoding="utf-8"?>
<!-- Generator: Adobe Illustrator 22.1.0, SVG Export Plug-In . SVG Version: 6.00 Build 0)  -->
<svg version="1.1"
	 id="Capa_1" xmlns:cc="http://creativecommons.org/ns#" xmlns:dc="http://purl.org/dc/elements/1.1/" xmlns:inkscape="http://www.inkscape.org/namespaces/inkscape" xmlns:rdf="http://www.w3.org/1999/02/22-rdf-syntax-ns#" xmlns:sodipodi="http://sodipodi.sourceforge.net/DTD/sodipodi-0.dtd" xmlns:svg="http://www.w3.org/2000/svg"
	 xmlns="http://www.w3.org/2000/svg" xmlns:xlink="http://www.w3.org/1999/xlink" x="0px" y="0px" viewBox="0 0 451 451"
	 style="enable-background:new 0 0 451 451;" xml:space="preserve">
<style type="text/css">
	.st0{fill:#D93025;}
</style>
<g transform="translate(0,-1020.3622)">
	<path class="st0" d="M42.6,1081.2c-20.1,0-36.6,16.5-36.6,36.6v256.1c0,20.1,16.5,36.6,36.6,36.6h26c0.9,0.1,1.9,0.1,2.8,0h308.2
		c0.9,0.1,1.9,0.1,2.8,0h26c20.1,0,36.6-16.5,36.6-36.6v-256.1c0-20.1-16.5-36.6-36.6-36.6h-27H70H42.6z M42.6,1099.5h24.2
		l152.9,125.9c3.4,2.8,8.3,2.8,11.6,0l152.9-125.9h24.2c10.3,0,18.3,8,18.3,18.3v256.1c0,10.3-8,18.3-18.3,18.3h-18.3v-237.8
		c0-5.1-4.1-9.2-9.1-9.2c-2.1,0-4.2,0.7-5.8,2.1l-149.7,123.3L75.8,1147.3c-1.7-1.4-3.8-2.1-5.9-2.1c-5,0.1-9,4.1-9,9.1v237.8H42.6
		c-10.3,0-18.3-8-18.3-18.3v-256.1C24.3,1107.5,32.3,1099.5,42.6,1099.5z M95.5,1099.5h259.9l-130,107L95.5,1099.5z M79.2,1173.7
		l140.5,115.7c3.4,2.8,8.3,2.8,11.6,0l140.5-115.7v218.4H79.2V1173.7z"/>
</g>
</svg>
