<?xml version="1.0" encoding="utf-8"?>
<!-- Generator: Adobe Illustrator 22.1.0, SVG Export Plug-In . SVG Version: 6.00 Build 0)  -->
<svg version="1.1" id="Capa_1" xmlns="http://www.w3.org/2000/svg" xmlns:xlink="http://www.w3.org/1999/xlink" x="0px" y="0px"
	 viewBox="0 0 229.4 229.4" style="enable-background:new 0 0 229.4 229.4;" xml:space="preserve">
<style type="text/css">
	.st0{fill:none;stroke:#01A15B;stroke-width:5;stroke-miterlimit:10;}
	.st1{fill:#01A15B;}
	.st2{fill:#091B26;}
</style>
<g>
	<path class="st0" d="M114.2,4.2c-50.7,0-91.7,41-91.7,91.7c0,50.7,41,91.7,91.7,91.7h5.4v37.7c52.9-24.8,86.4-80.9,86.4-129.5
		C206,45.2,164.9,4.2,114.2,4.2L114.2,4.2z"/>
	<polygon class="st1" points="108.8,101.3 98.1,122.9 81.8,122.9 92.6,101.3 76.5,101.3 76.5,68.9 108.8,68.9 	"/>
	<polygon class="st1" points="152,101.3 141.2,122.9 125,122.9 135.8,101.3 119.6,101.3 119.6,68.9 152,68.9 	"/>
	<path class="st2" d="M152,101.3"/>
</g>
</svg>
