<?xml version="1.0" encoding="utf-8"?>
<!-- Generator: Adobe Illustrator 22.1.0, SVG Export Plug-In . SVG Version: 6.00 Build 0)  -->
<svg version="1.1" id="Capa_1" xmlns="http://www.w3.org/2000/svg" xmlns:xlink="http://www.w3.org/1999/xlink" x="0px" y="0px"
	 viewBox="0 0 451 451" style="enable-background:new 0 0 451 451;" xml:space="preserve">
<style type="text/css">
	.st0{fill:#FFFFFF;}
</style>
<g>
	<g>
		<path class="st0" d="M410.7,378.5H40.5c-6.8,0-12.4-5.5-12.4-12.4V98.5c-0.1-1-0.1-1.9,0-2.9V84.9c0-6.8,5.5-12.4,12.4-12.4h370.2
			c6.8,0,12.4,5.5,12.4,12.4v281.3C423,373,417.4,378.5,410.7,378.5z M52.8,353.8h345.5v-239L234.3,254.2c-4.6,5.3-25.9,4.9-29.6,0
			L52.8,127.1V353.8z M219.3,234.4L381.2,97.1H57.6L219.3,234.4z"/>
	</g>
</g>
</svg>
