<?xml version="1.0" encoding="utf-8"?>
<!-- Generator: Adobe Illustrator 22.1.0, SVG Export Plug-In . SVG Version: 6.00 Build 0)  -->
<svg version="1.1" id="Capa_1" xmlns="http://www.w3.org/2000/svg" xmlns:xlink="http://www.w3.org/1999/xlink" x="0px" y="0px"
	 viewBox="0 0 121 30.9" style="enable-background:new 0 0 121 30.9;" xml:space="preserve">
<style type="text/css">
	.st0{fill:#FFB600;}
	.st1{fill:#FF5050;}
	.st2{fill:#FFFFFF;}
	.st3{fill:#DCE5E5;}
</style>
<g>
	<path class="st0" d="M87.2,15.4c0,8.5-6.8,15.4-15.4,15.4c-8.5,0-15.4-6.9-15.4-15.4c0-8.5,6.8-15.4,15.3-15.4
		C80.4,0.1,87.2,7,87.2,15.4L87.2,15.4z M87.2,15.4"/>
	<path class="st1" d="M51.2,0.1C42.8,0.2,36,7,36,15.4c0,8.5,6.8,15.4,15.4,15.4c4,0,7.6-1.5,10.3-4c0.6-0.5,1.1-1.1,1.5-1.6h-3.2
		c-0.4-0.5-0.8-1.1-1.1-1.5h5.4c0.3-0.5,0.7-1.1,0.9-1.6H58c-0.2-0.5-0.5-1.1-0.7-1.6h8.5c0.5-1.5,0.8-3.2,0.8-4.9
		c0-1.1-0.2-2.2-0.3-3.3h-9.4c0.1-0.6,0.2-1.1,0.4-1.6h8.5c-0.2-0.6-0.4-1.1-0.6-1.6h-7.2c0.2-0.6,0.6-1.1,0.9-1.6h5.4
		c-0.3-0.6-0.7-1.1-1.2-1.6h-3c0.5-0.6,1-1.1,1.5-1.5c-2.7-2.5-6.3-4-10.3-4C51.3,0.1,51.3,0.1,51.2,0.1L51.2,0.1z M51.2,0.1"/>
	<path class="st2" d="M56.8,19.3L57,18C57,18,56.8,18,56.6,18c-0.6,0-0.6-0.3-0.6-0.5l0.5-2.8h0.9l0.2-1.5h-0.8l0.2-1h-1.6
		c0,0-1,5.4-1,6c0,1,0.6,1.4,1.3,1.4C56.2,19.6,56.6,19.4,56.8,19.3L56.8,19.3z M56.8,19.3"/>
	<path class="st2" d="M57.4,16.7c0,2.3,1.5,2.8,2.8,2.8c1.2,0,1.7-0.2,1.7-0.2l0.3-1.5c0,0-0.9,0.4-1.7,0.4c-1.8,0-1.5-1.3-1.5-1.3
		h3.3c0,0,0.2-1.1,0.2-1.5c0-1.1-0.6-2.4-2.4-2.4C58.6,12.9,57.4,14.7,57.4,16.7L57.4,16.7z M60.2,14.4c0.9,0,0.7,1.1,0.7,1.1h-1.8
		C59.2,15.4,59.3,14.4,60.2,14.4L60.2,14.4z M60.2,14.4"/>
	<path class="st2" d="M70.5,19.3l0.3-1.8c0,0-0.8,0.4-1.4,0.4c-1.1,0-1.6-0.9-1.6-1.9c0-2,1-3,2.1-3c0.8,0,1.5,0.5,1.5,0.5l0.2-1.7
		c0,0-1-0.4-1.9-0.4c-1.9,0-3.7,1.6-3.7,4.7c0,2,1,3.4,2.9,3.4C69.6,19.6,70.5,19.3,70.5,19.3L70.5,19.3z M70.5,19.3"/>
	<path class="st2" d="M47.9,12.9c-1.1,0-2,0.3-2,0.3l-0.2,1.4c0,0,0.7-0.3,1.8-0.3c0.6,0,1.1,0.1,1.1,0.6c0,0.3-0.1,0.4-0.1,0.4
		h-0.7c-1.4,0-2.9,0.6-2.9,2.4c0,1.5,1,1.8,1.5,1.8c1.1,0,1.6-0.7,1.7-0.7l-0.1,0.7h1.5l0.6-4.5C50.1,13,48.4,12.9,47.9,12.9
		L47.9,12.9z M48.2,16.6c0,0.2-0.2,1.5-1.1,1.5c-0.5,0-0.6-0.4-0.6-0.6c0-0.4,0.2-1,1.5-1C48.1,16.6,48.2,16.6,48.2,16.6L48.2,16.6z
		 M48.2,16.6"/>
	<path class="st2" d="M51.6,19.5c0.4,0,2.4,0.1,2.4-2.1c0-2-2-1.6-2-2.4c0-0.4,0.3-0.6,0.9-0.6c0.2,0,1.1,0.1,1.1,0.1l0.2-1.5
		c0,0-0.6-0.2-1.5-0.2c-1.2,0-2.4,0.5-2.4,2.1c0,1.9,2,1.7,2,2.4c0,0.5-0.6,0.6-1,0.6c-0.7,0-1.5-0.2-1.5-0.2l-0.2,1.5
		C49.8,19.3,50.2,19.5,51.6,19.5L51.6,19.5z M51.6,19.5"/>
	<path class="st2" d="M84,11.6l-0.3,2.2c0,0-0.7-0.8-1.5-0.8c-1.5,0-2.8,1.8-2.8,3.9c0,1.3,0.6,2.7,2,2.7c1,0,1.5-0.7,1.5-0.7
		l-0.1,0.6h1.6l1.2-7.8L84,11.6z M83.3,15.9c0,0.9-0.4,2-1.3,2c-0.6,0-0.9-0.5-0.9-1.3c0-1.3,0.6-2.1,1.3-2.1
		C83,14.5,83.3,14.9,83.3,15.9L83.3,15.9z M83.3,15.9"/>
	<path class="st2" d="M39,19.4l1-5.9l0.2,5.9h1.1l2.1-5.9l-0.9,5.9h1.7l1.3-7.8h-2.7l-1.6,4.8l-0.1-4.8h-2.4l-1.3,7.8H39z M39,19.4"
		/>
	<path class="st2" d="M64.2,19.4c0.5-2.7,0.6-4.9,1.7-4.5c0.2-1.1,0.4-1.5,0.6-1.9h-0.3c-0.7,0-1.3,1-1.3,1l0.2-0.9h-1.5l-1.1,6.3
		L64.2,19.4L64.2,19.4z M64.2,19.4"/>
	<path class="st2" d="M74.3,12.9c-1.1,0-2,0.3-2,0.3l-0.2,1.4c0,0,0.7-0.3,1.8-0.3c0.6,0,1.1,0.1,1.1,0.6c0,0.3-0.1,0.4-0.1,0.4
		h-0.7c-1.4,0-2.9,0.6-2.9,2.4c0,1.5,1,1.8,1.5,1.8c1.1,0,1.6-0.7,1.7-0.7l-0.1,0.7h1.5l0.6-4.5C76.6,13,74.8,12.9,74.3,12.9
		L74.3,12.9z M74.7,16.6c0,0.2-0.2,1.5-1.1,1.5c-0.5,0-0.7-0.4-0.7-0.6c0-0.4,0.2-1,1.5-1C74.6,16.6,74.6,16.6,74.7,16.6L74.7,16.6z
		 M74.7,16.6"/>
	<path class="st2" d="M77.9,19.4c0.5-2.7,0.6-4.9,1.7-4.5c0.2-1.1,0.4-1.5,0.6-1.9h-0.3c-0.7,0-1.3,1-1.3,1l0.2-0.9h-1.5l-1.1,6.3
		L77.9,19.4L77.9,19.4z M77.9,19.4"/>
	<path class="st3" d="M54.3,18.2c0,1,0.6,1.4,1.3,1.4c0.6,0,1.1-0.2,1.2-0.2L57,18C57,18,56.8,18,56.6,18c-0.6,0-0.6-0.3-0.6-0.5
		l0.5-2.8h0.9l0.2-1.5h-0.8l0.2-1"/>
	<path class="st3" d="M58.2,16.7c0,2.3,0.7,2.8,2,2.8c1.2,0,1.7-0.2,1.7-0.2l0.3-1.5c0,0-0.9,0.4-1.7,0.4c-1.8,0-1.5-1.3-1.5-1.3
		h3.3c0,0,0.2-1.1,0.2-1.5c0-1.1-0.6-2.4-2.4-2.4C58.6,12.9,58.2,14.7,58.2,16.7L58.2,16.7z M60.2,14.4c0.9,0,1.1,1.1,1.1,1.1h-2.1
		C59.2,15.4,59.3,14.4,60.2,14.4L60.2,14.4z M60.2,14.4"/>
	<path class="st3" d="M70.5,19.3l0.3-1.8c0,0-0.8,0.4-1.4,0.4c-1.1,0-1.6-0.9-1.6-1.9c0-2,1-3,2.1-3c0.8,0,1.5,0.5,1.5,0.5l0.2-1.7
		c0,0-1-0.4-1.9-0.4c-1.9,0-2.9,1.6-2.9,4.7c0,2,0.2,3.4,2.1,3.4C69.6,19.6,70.5,19.3,70.5,19.3L70.5,19.3z M70.5,19.3"/>
	<path class="st3" d="M45.7,14.7c0,0,0.7-0.3,1.8-0.3c0.6,0,1.1,0.1,1.1,0.6c0,0.3-0.1,0.4-0.1,0.4h-0.7c-1.4,0-2.9,0.6-2.9,2.4
		c0,1.5,1,1.8,1.5,1.8c1.1,0,1.6-0.7,1.7-0.7l-0.1,0.7h1.5l0.6-4.5c0-1.9-1.6-2-2.3-2 M49,16.6c0,0.2-1,1.5-2,1.5
		c-0.5,0-0.6-0.4-0.6-0.6c0-0.4,0.2-1,1.5-1C48.1,16.6,49,16.6,49,16.6L49,16.6z M49,16.6"/>
	<path class="st3" d="M49.8,19.3c0,0,0.5,0.2,1.9,0.2c0.4,0,2.4,0.1,2.4-2.1c0-2-2-1.6-2-2.4c0-0.4,0.3-0.6,0.9-0.6
		c0.2,0,1.1,0.1,1.1,0.1l0.2-1.5c0,0-0.6-0.2-1.5-0.2c-1.2,0-1.6,0.5-1.6,2.1c0,1.9,1.2,1.7,1.2,2.4c0,0.5-0.6,0.6-1,0.6"/>
	<path class="st3" d="M83.7,13.8c0,0-0.7-0.8-1.5-0.8c-1.5,0-2,1.8-2,3.9c0,1.3-0.2,2.7,1.2,2.7c1,0,1.5-0.7,1.5-0.7l-0.1,0.6h1.6
		l1.2-7.8 M83.6,15.9c0,0.9-0.7,2-1.6,2c-0.6,0-0.9-0.5-0.9-1.3c0-1.3,0.6-2.1,1.3-2.1C83,14.5,83.6,14.9,83.6,15.9L83.6,15.9z
		 M83.6,15.9"/>
	<path class="st3" d="M39,19.4l1-5.9l0.2,5.9h1.1l2.1-5.9l-0.9,5.9h1.7l1.3-7.8h-2l-2.3,4.8l-0.1-4.8h-0.9l-2.8,7.8H39z M39,19.4"/>
	<path class="st3" d="M62.5,19.4h1.7c0.5-2.7,0.6-4.9,1.7-4.5c0.2-1.1,0.4-1.5,0.6-1.9h-0.3c-0.7,0-1.3,1-1.3,1l0.2-0.9"/>
	<path class="st3" d="M72.1,14.7c0,0,0.7-0.3,1.8-0.3c0.6,0,1.1,0.1,1.1,0.6c0,0.3-0.1,0.4-0.1,0.4h-0.7c-1.4,0-2.9,0.6-2.9,2.4
		c0,1.5,1,1.8,1.5,1.8c1.1,0,1.6-0.7,1.7-0.7l-0.1,0.7h1.5l0.6-4.5c0-1.9-1.6-2-2.3-2 M75.4,16.6c0,0.2-1,1.5-2,1.5
		c-0.5,0-0.6-0.4-0.6-0.6c0-0.4,0.2-1,1.5-1C74.6,16.6,75.4,16.6,75.4,16.6L75.4,16.6z M75.4,16.6"/>
	<path class="st3" d="M76.1,19.4h1.7c0.5-2.7,0.6-4.9,1.7-4.5c0.2-1.1,0.4-1.5,0.6-1.9h-0.3c-0.7,0-1.3,1-1.3,1l0.2-0.9"/>
</g>
</svg>
