<?xml version="1.0" encoding="utf-8"?>
<!-- Generator: Adobe Illustrator 22.1.0, SVG Export Plug-In . SVG Version: 6.00 Build 0)  -->
<svg version="1.1" id="Capa_1" xmlns="http://www.w3.org/2000/svg" xmlns:xlink="http://www.w3.org/1999/xlink" x="0px" y="0px"
	 viewBox="0 0 121 30.9" style="enable-background:new 0 0 121 30.9;" xml:space="preserve">
<style type="text/css">
	.st0{fill:#3C58BF;}
	.st1{fill:#FFBC00;}
</style>
<g>
	<path class="st0" d="M47.3,29.7l5-28.3h7.9l-4.9,28.3H47.3z M47.3,29.7"/>
	<path class="st0" d="M83.8,1.7c-1.6-0.6-4.1-1.3-7.2-1.3C68.7,0.5,63,4.4,63,10c0,4.2,3.9,6.4,7.1,7.9c3.1,1.4,4.1,2.4,4.1,3.6
		c0,1.9-2.5,2.8-4.7,2.8c-3.1,0-4.9-0.5-7.5-1.6l-1.1-0.5l-1.1,6.4c1.9,0.8,5.3,1.6,9,1.6c8.3,0,13.8-3.9,13.8-9.9
		c0-3.3-2-5.8-6.8-7.9c-2.8-1.4-4.6-2.2-4.6-3.6c0-1.3,1.4-2.5,4.6-2.5c2.7,0,4.6,0.5,6,1.1l0.8,0.3L83.8,1.7z M83.8,1.7"/>
	<path class="st0" d="M97.3,1.4c-1.9,0-3.3,0.2-4.1,2L81.4,29.7h8.5l1.6-4.7h10.1l0.9,4.7h7.5l-6.6-28.3H97.3z M93.7,20.3
		c0.5-1.4,3.1-8.3,3.1-8.3s0.6-1.7,1.1-2.8l0.5,2.7c0,0,1.6,7.1,1.9,8.6h-6.6V20.3z M93.7,20.3"/>
	<path class="st0" d="M32.8,21.2l-0.8-4.1c-1.4-4.7-6-9.9-11-12.4l7.1,25.1h8.5L49.3,1.6h-8.5L32.8,21.2z M32.8,21.2"/>
	<path class="st1" d="M11,1.4l1.4,0.3c10.1,2.4,17,8.3,19.6,15.4L29.2,3.8c-0.5-1.9-1.9-2.4-3.6-2.4H11z M11,1.4"/>
</g>
</svg>
