<?xml version="1.0" encoding="utf-8"?>
<!-- Generator: Adobe Illustrator 22.1.0, SVG Export Plug-In . SVG Version: 6.00 Build 0)  -->
<svg version="1.1" id="Capa_1" xmlns="http://www.w3.org/2000/svg" xmlns:xlink="http://www.w3.org/1999/xlink" x="0px" y="0px"
	 viewBox="0 0 121 30.9" style="enable-background:new 0 0 121 30.9;" xml:space="preserve">
<style type="text/css">
	.st0{fill:#139AD6;}
	.st1{fill:#263B80;}
	.st2{fill:#232C65;}
</style>
<g>
	<path class="st0" d="M93.5,8.1H87c-0.4,0-0.8,0.4-1,0.8l-2.7,16.9c0,0.4,0.2,0.6,0.6,0.6h3.5c0.4,0,0.6-0.2,0.6-0.6l0.8-4.8
		c0-0.4,0.4-0.8,1-0.8h2.1c4.4,0,6.9-2.1,7.5-6.3c0.4-1.7,0-3.3-0.8-4.2C97.4,8.6,95.6,8.1,93.5,8.1 M94.3,14.4
		c-0.4,2.3-2.1,2.3-3.8,2.3h-1.2l0.8-4.4c0-0.2,0.2-0.4,0.6-0.4H91c1.2,0,2.3,0,2.9,0.8C94.3,12.9,94.3,13.4,94.3,14.4"/>
	<path class="st1" d="M46.5,8.1h-6.5c-0.4,0-0.8,0.4-1,0.8l-2.7,16.9c0,0.4,0.2,0.6,0.6,0.6h3.1c0.4,0,0.8-0.4,1-0.8l0.8-4.6
		c0-0.4,0.4-0.8,1-0.8h2.1c4.4,0,6.9-2.1,7.5-6.3c0.4-1.7,0-3.3-0.8-4.2C50.3,8.6,48.8,8.1,46.5,8.1 M47.2,14.4
		c-0.4,2.3-2.1,2.3-3.8,2.3h-1l0.8-4.4c0-0.2,0.2-0.4,0.6-0.4h0.4c1.2,0,2.3,0,2.9,0.8C47.2,12.9,47.4,13.4,47.2,14.4"/>
	<path class="st1" d="M66.3,14.2h-3.1c-0.2,0-0.6,0.2-0.6,0.4l-0.2,1l-0.2-0.4c-0.8-1-2.1-1.3-3.6-1.3c-3.5,0-6.5,2.7-7.1,6.3
		c-0.4,1.9,0.2,3.6,1.2,4.8c1,1.2,2.3,1.5,4,1.5c2.9,0,4.4-1.7,4.4-1.7l-0.2,1c0,0.4,0.2,0.6,0.6,0.6h2.9c0.4,0,0.8-0.4,1-0.8
		L67,14.8C66.8,14.6,66.5,14.2,66.3,14.2 M61.8,20.4c-0.4,1.7-1.7,3.1-3.6,3.1c-1,0-1.7-0.4-2.1-0.8c-0.4-0.6-0.6-1.3-0.6-2.3
		c0.2-1.7,1.7-3.1,3.5-3.1c1,0,1.5,0.4,2.1,0.8C61.7,18.6,61.8,19.6,61.8,20.4"/>
	<path class="st0" d="M113.1,14.2h-3.1c-0.2,0-0.6,0.2-0.6,0.4l-0.2,1l-0.2-0.4c-0.8-1-2.1-1.3-3.6-1.3c-3.5,0-6.5,2.7-7.1,6.3
		c-0.4,1.9,0.2,3.6,1.2,4.8c1,1.2,2.3,1.5,4,1.5c2.9,0,4.4-1.7,4.4-1.7l-0.2,1c0,0.4,0.2,0.6,0.6,0.6h2.9c0.4,0,0.8-0.4,1-0.8
		l1.7-10.8C113.7,14.6,113.5,14.2,113.1,14.2 M108.7,20.4c-0.4,1.7-1.7,3.1-3.6,3.1c-1,0-1.7-0.4-2.1-0.8c-0.4-0.6-0.6-1.3-0.6-2.3
		c0.2-1.7,1.7-3.1,3.5-3.1c1,0,1.5,0.4,2.1,0.8C108.7,18.6,108.9,19.6,108.7,20.4"/>
	<path class="st1" d="M83,14.2h-3.3c-0.4,0-0.6,0.2-0.8,0.4l-4.2,6.5L72.8,15c-0.2-0.4-0.4-0.6-1-0.6h-3.1c-0.4,0-0.6,0.4-0.6,0.8
		l3.5,10.2L68.4,30c-0.2,0.4,0,1,0.4,1h3.1c0.4,0,0.6-0.2,0.8-0.4l10.6-15.2C83.7,14.8,83.4,14.2,83,14.2"/>
	<path class="st0" d="M116.8,8.6l-2.7,17.3c0,0.4,0.2,0.6,0.6,0.6h2.7c0.4,0,0.8-0.4,1-0.8L121,8.8c0-0.4-0.2-0.6-0.6-0.6h-3.1
		C117.2,8.1,117,8.3,116.8,8.6"/>
	<path class="st1" d="M22.1,2.3C20.7,0.8,18.2,0,14.8,0H5.2C4.6,0,4,0.6,3.8,1.2L0,26.3c0,0.6,0.4,1,0.8,1h6l1.5-9.4v0.4
		c0.2-0.6,0.8-1.2,1.3-1.2h2.9c5.6,0,9.8-2.3,11.1-8.6V7.9c-0.2,0-0.2,0,0,0C23.8,5.4,23.4,3.8,22.1,2.3"/>
	<path class="st0" d="M23.4,7.9v0.6c-1.3,6.5-5.6,8.6-11.1,8.6H9.4c-0.6,0-1.2,0.6-1.3,1.2L6.1,30c0,0.4,0.2,0.8,0.8,0.8h5
		c0.6,0,1.2-0.4,1.2-1v-0.2l1-6v-0.4c0-0.6,0.6-1,1.2-1h0.8c4.8,0,8.6-1.9,9.6-7.7c0.4-2.3,0.2-4.4-1-5.8C24.4,8.5,24,8.1,23.4,7.9"
		/>
	<path class="st2" d="M22.1,7.3c-0.2,0-0.4-0.2-0.6-0.2c-0.2,0-0.4,0-0.6-0.2c-0.8-0.2-1.5-0.2-2.5-0.2h-7.5c-0.2,0-0.4,0-0.6,0.2
		c-0.4,0.2-0.6,0.6-0.6,1l-1.5,10v0.4c0.2-0.6,0.8-1.2,1.3-1.2h2.9c5.6,0,9.8-2.3,11.1-8.6c0-0.2,0-0.4,0.2-0.6
		c-0.4-0.2-0.6-0.4-1-0.4C22.3,7.3,22.3,7.3,22.1,7.3"/>
</g>
</svg>
