<?xml version="1.0" encoding="utf-8"?>
<!-- Generator: Adobe Illustrator 22.1.0, SVG Export Plug-In . SVG Version: 6.00 Build 0)  -->
<svg version="1.1"
	 id="Capa_1" xmlns:cc="http://creativecommons.org/ns#" xmlns:dc="http://purl.org/dc/elements/1.1/" xmlns:inkscape="http://www.inkscape.org/namespaces/inkscape" xmlns:rdf="http://www.w3.org/1999/02/22-rdf-syntax-ns#" xmlns:sodipodi="http://sodipodi.sourceforge.net/DTD/sodipodi-0.dtd" xmlns:svg="http://www.w3.org/2000/svg"
	 xmlns="http://www.w3.org/2000/svg" xmlns:xlink="http://www.w3.org/1999/xlink" x="0px" y="0px" viewBox="0 0 451 451"
	 style="enable-background:new 0 0 451 451;" xml:space="preserve">
<style type="text/css">
	.st0{fill:#FFFFFF;}
</style>
<g transform="translate(0,-1020.3622)">
	<path class="st0" d="M54.5,1029.4c-0.3,0-0.6,0-0.9,0c-4.8,0.3-8.5,4.2-8.5,9v414.9c0,5,4,9,9,9.1c1.7,0,3.3-0.4,4.7-1.3l35-21.2
		c0.7-0.3,1.4-0.7,2-1.2l305.8-185.1c4.3-2.6,5.7-8.1,3.1-12.4c-0.8-1.3-1.8-2.3-3.1-3.1l-305.7-185c-0.1,0-0.1-0.1-0.2-0.1
		c-0.6-0.5-1.4-1-2.1-1.3l-34.8-21.1C57.5,1029.9,56,1029.4,54.5,1029.4z M66,1060.9l20.4,12.4l142.1,172.7L86.6,1418.4L66,1430.8
		V1060.9z M137.1,1101.1l137.2,83l-34.4,41.9L137.1,1101.1z M297.1,1197.7l79.5,48.1l-79.5,48.2l-39.6-48.1L297.1,1197.7z
		 M238.9,1267.6l33.4,40.6l-133.1,80.6L238.9,1267.6z"/>
</g>
</svg>
