<?xml version="1.0" encoding="utf-8"?>
<!-- Generator: Adobe Illustrator 22.1.0, SVG Export Plug-In . SVG Version: 6.00 Build 0)  -->
<svg version="1.1" id="Capa_1" xmlns="http://www.w3.org/2000/svg" xmlns:xlink="http://www.w3.org/1999/xlink" x="0px" y="0px"
	 viewBox="0 0 17.4 20.5" style="enable-background:new 0 0 17.4 20.5;" xml:space="preserve">
<style type="text/css">
	.st0{fill:#091B26;}
</style>
<g>
	<path class="st0" d="M15.5,16.2l-3.6-1.8c-0.3-0.2-0.6-0.5-0.6-0.9v-1.3c0.1-0.1,0.2-0.2,0.3-0.4c0.5-0.7,0.8-1.4,1.1-2.2
		c0.5-0.2,0.9-0.8,0.9-1.4V6.8c0-0.4-0.1-0.7-0.4-1v-2c0-0.2,0.1-1.4-0.8-2.5C11.7,0.4,10.4,0,8.7,0C7,0,5.7,0.4,5,1.3
		c-0.9,1-0.8,2.3-0.8,2.5v2c-0.2,0.3-0.4,0.6-0.4,1v1.5c0,0.5,0.2,0.9,0.6,1.2c0.3,1.4,1.1,2.4,1.3,2.7v1.3c0,0.4-0.2,0.7-0.5,0.9
		l-3.4,1.8C0.7,16.8,0,18,0,19.2c0,0.4,0,0.8,0,1.2c2.8,0.1,14.6,0.1,17.4,0c0-0.4,0-0.8,0-1.2C17.4,18,16.7,16.8,15.5,16.2z
		 M15.5,16.2"/>
</g>
</svg>
