<?xml version="1.0" encoding="utf-8"?>
<!-- Generator: Adobe Illustrator 22.1.0, SVG Export Plug-In . SVG Version: 6.00 Build 0)  -->
<svg version="1.1" id="Capa_1" xmlns="http://www.w3.org/2000/svg" xmlns:xlink="http://www.w3.org/1999/xlink" x="0px" y="0px"
	 viewBox="0 0 31 17.2" style="enable-background:new 0 0 31 17.2;" xml:space="preserve">
<style type="text/css">
	.st0{fill:#091B26;}
</style>
<g>
	<path class="st0" d="M25.8,0H0v17.2h25.8L31,8.6L25.8,0z M7.5,11.1c-0.4,0.3-0.9,0.4-1.6,0.4c-0.6,0-1.2-0.2-1.7-0.5
		c-0.5-0.3-0.7-0.8-0.7-1.4l0,0h1.3c0,0.3,0.1,0.6,0.3,0.7c0.2,0.1,0.4,0.2,0.8,0.2c0.3,0,0.5-0.1,0.6-0.2c0.1-0.1,0.2-0.3,0.2-0.4
		c0-0.2-0.1-0.4-0.2-0.5C6.4,9.4,6.2,9.3,5.8,9.1C5.1,8.9,4.6,8.7,4.2,8.4C3.9,8.1,3.7,7.8,3.7,7.3c0-0.5,0.2-0.9,0.6-1.2
		c0.4-0.3,0.9-0.4,1.6-0.4c0.6,0,1.2,0.2,1.6,0.5C7.8,6.5,8,6.9,8,7.4l0,0H6.7c0-0.2-0.1-0.4-0.2-0.6C6.3,6.8,6.1,6.7,5.9,6.7
		c-0.3,0-0.5,0.1-0.6,0.2C5.1,7,5,7.1,5,7.3c0,0.2,0.1,0.3,0.2,0.4c0.2,0.1,0.4,0.2,0.9,0.4c0.6,0.2,1.1,0.4,1.5,0.7
		C7.9,9.1,8,9.5,8,9.9C8,10.5,7.9,10.8,7.5,11.1L7.5,11.1z M12.1,11.5l-0.3-1.1H10l-0.3,1.1H8.3l1.8-5.8h1.4l1.8,5.8H12.1z
		 M17.6,11.5h-3.8V5.7h1.3v4.8h2.5V11.5z M22.3,6.7h-2.6V8h2.2v1h-2.2v1.5h2.6v1h-3.9V5.7h3.9V6.7z M26.6,9.5
		c-0.5,0-0.9-0.4-0.9-0.9c0-0.5,0.4-0.9,0.9-0.9c0.5,0,0.9,0.4,0.9,0.9C27.5,9.1,27.1,9.5,26.6,9.5L26.6,9.5z M26.6,9.5"/>
	<path class="st0" d="M10.9,7.3l-0.6,2.1h1.2L10.9,7.3L10.9,7.3z M10.9,7.3"/>
</g>
</svg>
