<?xml version="1.0" encoding="utf-8"?>
<!-- Generator: Adobe Illustrator 22.1.0, SVG Export Plug-In . SVG Version: 6.00 Build 0)  -->
<svg version="1.1" id="Capa_1" xmlns="http://www.w3.org/2000/svg" xmlns:xlink="http://www.w3.org/1999/xlink" x="0px" y="0px"
	 viewBox="0 0 250 250" style="enable-background:new 0 0 250 250;" xml:space="preserve">
<style type="text/css">
	.st0{fill:#0073FF;}
	.st1{fill:#0073FF;stroke:#FFFFFF;stroke-miterlimit:10;}
	.st2{fill:#0073FF;stroke:#FFFFFF;stroke-width:0.5;stroke-miterlimit:10;}
</style>
<g>
	<circle class="st0" cx="7.8" cy="241.5" r="4.8"/>
	<circle class="st0" cx="130.7" cy="119.5" r="4.8"/>
	<path class="st1" d="M179.1,52.6c-5.5,0-10.6,2.1-14.4,6c-8,8-8,20.9,0,28.9c4,4,9.2,6,14.4,6c5.2,0,10.5-2,14.4-6l0,0
		c8-8,8-20.9,0-28.9C189.7,54.7,184.6,52.6,179.1,52.6z M186.8,80.7c-4.2,4.2-11.1,4.2-15.3,0c-4.2-4.2-4.2-11.1,0-15.3
		c2-2,4.8-3.2,7.7-3.2s5.6,1.1,7.7,3.2C191,69.6,191,76.5,186.8,80.7z"/>
	<path class="st1" d="M63,198.9c-2.4-1.2-5.3-0.2-6.4,2.2l-5.7,11.5c-2.5,5-7.5,8.3-13.1,8.7l-6.7,0.5c-1.1,0.1-1.9-0.5-2.2-0.8
		s-0.9-1.1-0.8-2.2l0.5-6.7c0.4-5.6,3.7-10.6,8.7-13.1l11.5-5.7c2.4-1.2,3.3-4.1,2.2-6.4c-1.2-2.4-4.1-3.3-6.4-2.2L33,190.4
		c-8,4-13.4,12-14,21l-0.5,6.7c-0.2,3.6,1.1,7.1,3.6,9.7c2.3,2.3,5.5,3.6,8.8,3.6c0.3,0,0.6,0,0.9,0l6.7-0.5c8.9-0.6,17-6,21-14
		l5.7-11.5C66.3,203,65.3,200.1,63,198.9z"/>
	<path class="st2" d="M244.5,6.1c-2.3-2.2-5.4-3.4-8.5-3.2l-4.5,0.3c-40.1,2.6-77.6,21.9-102.9,53.1l-10.5,13l-27.5-0.8
		c0,0-0.1,0-0.1,0c-21.8,0-42.4,8.5-57.8,23.9L4.4,120.6c-1.3,1.3-1.8,3.3-1.1,5.1c0.7,1.8,2.3,3,4.2,3.1l59.7,3.1l-2.4,3
		c-1.2,1.5-1.4,3.6-0.5,5.3c0.9,1.7,1.9,3.4,2.9,5.1L53.1,162c-1.2,1.4-1.5,3.4-0.7,5.1c3.1,6.5,7.2,12.4,12.2,17.5
		c5.1,5.2,11.1,9.4,17.8,12.6c0.7,0.3,1.4,0.5,2.1,0.5c1.1,0,2.2-0.4,3-1.1c3.1-2.5,6.6-5.4,10-8.2c2.4-2,4.9-4.1,7.2-6
		c1.4,0.8,2.8,1.6,4.2,2.4c0.7,0.4,1.5,0.6,2.3,0.6c1,0,2.1-0.3,2.9-1l3.3-2.5l3.1,60c0.1,1.9,1.3,3.6,3.1,4.2
		c0.6,0.2,1.1,0.3,1.7,0.3c1.3,0,2.5-0.5,3.4-1.4l28.2-28.2c15.4-15.4,23.9-36,23.9-57.8v-26.3l11.1-8.6
		c33.3-25.9,53.7-64.9,55.7-107l0.1-2.3C248,11.4,246.8,8.3,244.5,6.1z M18.8,119.7l20.6-20.6C53,85.5,71.1,78,90.4,78l20.1,0.6
		l-35.7,44L18.8,119.7z M91.4,180.9c-2.5,2.1-5.1,4.2-7.5,6.2c-4.6-2.5-8.8-5.6-12.4-9.3c-3.5-3.6-6.5-7.6-9-12.1l10.4-12.3
		c3.1,4.2,6.6,8.2,10.3,11.9c0,0,0,0,0,0c0,0,0,0,0,0c0,0,0,0,0,0c4.1,4.1,8.5,7.9,13.2,11.4C94.7,178.1,93,179.5,91.4,180.9z
		 M171.3,158.8c0,19.3-7.5,37.4-21.1,51l-20.6,20.6l-2.9-55.8l44.6-34.6V158.8z M238.1,16.4c-1.9,39.4-20.9,75.8-52,99.9l-75.3,58.4
		c-6.2-3.6-12.1-8-17.4-12.8l25.4-25.4c1.9-1.9,1.9-4.9,0-6.8c-1.9-1.9-4.9-1.9-6.8,0l-25.4,25.4c-4.7-5.2-8.8-10.8-12.3-16.8
		l61.7-76c23.6-29.1,58.7-47.2,96.1-49.6l4.5-0.3c0.6,0,1,0.3,1.2,0.4c0.2,0.2,0.5,0.6,0.4,1.2L238.1,16.4z"/>
</g>
</svg>
