<?xml version="1.0" encoding="utf-8"?>
<!-- Generator: Adobe Illustrator 22.1.0, SVG Export Plug-In . SVG Version: 6.00 Build 0)  -->
<svg version="1.1" id="Capa_1" xmlns="http://www.w3.org/2000/svg" xmlns:xlink="http://www.w3.org/1999/xlink" x="0px" y="0px"
	 viewBox="0 0 250 250" style="enable-background:new 0 0 250 250;" xml:space="preserve">
<style type="text/css">
	.st0{fill:#0073FF;stroke:#FFFFFF;stroke-width:2;stroke-miterlimit:10;}
	.st1{fill:#FFFFFF;stroke:#091B26;stroke-miterlimit:10;}
	.st2{fill:none;stroke:#0073FF;stroke-miterlimit:10;}
</style>
<g>
	<path class="st0" d="M126.4,248.8c-2.3,0-4.1-1.9-4.1-4.1c0-11.5-4.7-17-10.2-23.3c-5.7-6.6-12.2-14.2-12.2-28.7
		s6.5-22.1,12.2-28.7c5.5-6.4,10.2-11.8,10.2-23.3c0-2.3,1.9-4.1,4.1-4.1c2.3,0,4.1,1.9,4.1,4.1c0,14.6-6.5,22.1-12.2,28.7
		c-5.5,6.4-10.2,11.8-10.2,23.3s4.7,17,10.2,23.3c5.7,6.6,12.2,14.2,12.2,28.7C130.5,247,128.7,248.8,126.4,248.8z"/>
	<path class="st1" d="M133.5,137.2l-3.6-7.2h-4.7h-4.7l-3.6,7.2c-0.8,1.6,0.4,3.5,2.2,3.5h12.1C133.1,140.7,134.3,138.8,133.5,137.2
		z"/>
	<ellipse class="st2" cx="125.2" cy="66" rx="55" ry="64"/>
</g>
</svg>
