<?xml version="1.0" encoding="utf-8"?>
<!-- Generator: Adobe Illustrator 22.1.0, SVG Export Plug-In . SVG Version: 6.00 Build 0)  -->
<svg version="1.1" id="Capa_1" xmlns="http://www.w3.org/2000/svg" xmlns:xlink="http://www.w3.org/1999/xlink" x="0px" y="0px"
	 viewBox="0 0 250 250" style="enable-background:new 0 0 250 250;" xml:space="preserve">
<style type="text/css">
	.st0{fill:none;stroke:#0073FF;stroke-miterlimit:10;}
</style>
<g>
	<path class="st0" d="M244,24.5h-20.6v-7c0-5.3-4.1-9.5-9.5-9.5h-5.8c-5.3,0-9.5,4.1-9.5,9.5v7h-20.6c-2.5,0-4.1,1.6-4.1,4.1
		s1.6,4.1,4.1,4.1h20.6v7c0,4.9,3.7,8.6,8.2,9.5v13.2c-4.9,1.6-8.2,6.2-8.2,11.5v14.4l-24.7,18.5V103c0-4.9-3.7-8.6-8.6-8.6h-28.4
		V73.8c0-2.5-1.6-4.1-4.1-4.1c-2.5,0-4.1,1.6-4.1,4.1v20.6h-8.2V82c0-2.5-1.6-4.1-4.1-4.1s-4.1,1.6-4.1,4.1v12.3H84
		c-4.9,0-8.6,3.7-8.6,8.6v3.7L50.7,88.2V73.8c0-5.3-3.3-9.9-8.2-11.5V49.1c4.5-0.4,8.2-4.5,8.2-9.5v-7h20.6c2.5,0,4.1-1.6,4.1-4.1
		s-1.6-4.1-4.1-4.1H50.7v-7c0-5.3-4.1-9.5-9.5-9.5h-5.8c-5.3,0-9.5,4.1-9.5,9.5v7H5.4c-2.5,0-4.1,1.6-4.1,4.1s1.6,4.1,4.1,4.1H26v7
		c0,4.9,3.7,8.6,8.2,9.5v13.2c-4.9,1.6-8.2,6.2-8.2,11.5v65.8c0,7,5.3,12.3,12.3,12.3s12.3-5.3,12.3-12.3V124l21,18.1
		c-15.2,9.9-31.7,43.6-33.3,71.6H63c2.1-30.4,26.7-53.5,37-53.5h8.2v8.2h-9c-4.1,0-7.4,3.3-7.4,7.4v51.4c0,4.1,3.3,7.4,7.4,7.4h51.4
		c4.1,0,7.4-3.3,7.4-7.4v-51.4c0-4.1-3.3-7.4-7.4-7.4h-9.5v-8.2h8.2c10.3,0,34.5,23,37,53.5h24.7c-1.6-28-17.7-61.7-32.9-71.6
		l21-18.1v15.6c0,7,5.3,12.3,12.3,12.3s12.3-5.3,12.3-12.3V73.8c0-5.3-3.3-9.9-8.2-11.5V49.1c4.5-0.4,8.2-4.5,8.2-9.5v-7h20.6
		c2.5,0,4.1-1.6,4.1-4.1C248.1,26.1,246.5,24.5,244,24.5z"/>
	<path class="st0" d="M186.4,233c0,5.3,4.1,9.5,9.5,9.5h5.8c5.3,0,9.5-4.1,9.5-9.5v-11.1h-24.7V233z"/>
	<path class="st0" d="M38.4,233c0,5.3,4.1,9.5,9.5,9.5h5.8c5.3,0,9.5-4.1,9.5-9.5v-11.1H38.4V233z"/>
</g>
</svg>
