<?xml version="1.0" encoding="utf-8"?>
<!-- Generator: Adobe Illustrator 22.1.0, SVG Export Plug-In . SVG Version: 6.00 Build 0)  -->
<svg version="1.1" id="Capa_1" xmlns="http://www.w3.org/2000/svg" xmlns:xlink="http://www.w3.org/1999/xlink" x="0px" y="0px"
	 viewBox="0 0 229.4 229.4" style="enable-background:new 0 0 229.4 229.4;" xml:space="preserve">
<style type="text/css">
	.st0{fill:#E82042;}
</style>
<g>
	<g>
		<path class="st0" d="M210.8,148.3c4.4-11.6,6.6-23.8,6.6-36.3c0-27.4-10.7-53.2-30.1-72.6C168,20,142.2,9.3,114.7,9.3
			c-12.4,0-24.5,2.2-36,6.5C70.3,6.6,58.6,1.3,46,1.3c-24.5,0-44.5,20-44.5,44.5c0,13.1,5.9,25.6,15.8,34C13.8,90.2,12,101,12,111.9
			c0,27.4,10.7,53.2,30.1,72.6s45.2,30.1,72.6,30.1c11,0,22-1.8,32.6-5.4c8.3,11.6,21.8,18.6,36.1,18.6c24.5,0,44.5-20,44.5-44.5
			C228,169.5,221.6,156.7,210.8,148.3L210.8,148.3z M183.5,218.2c-12.3,0-23.8-6.6-30-17.2c-0.9-1.5-2.5-2.4-4.2-2.4
			c-0.6,0-1.1,0.1-1.7,0.3c-10.7,4-21.8,6.1-32.9,6.1c-24.9,0-48.2-9.7-65.8-27.2c-17.6-17.6-27.2-40.9-27.2-65.8
			c0-10.9,2-21.7,5.8-32.1c0.8-2,0.1-4.3-1.7-5.6c-9.2-6.5-14.7-17.2-14.7-28.4C11.1,26.6,26.8,11,46,11c10.8,0,20.8,4.9,27.5,13.5
			c1.3,1.7,3.7,2.3,5.7,1.5c11.3-4.7,23.2-7.1,35.6-7.1c24.9,0,48.2,9.7,65.8,27.2c17.6,17.6,27.2,40.9,27.2,65.8
			c0,12.5-2.5,24.7-7.3,36.2c-0.9,2.2-0.1,4.6,1.8,5.9c10,6.5,16,17.5,16,29.3C218.3,202.6,202.7,218.2,183.5,218.2L183.5,218.2z"/>
		<path class="st0" d="M121.9,96.8C88.6,90.3,86.4,80.1,94.4,73c8-7.1,31.9-10.3,38.6,2.2c6.5,12,11.1,17,20.1,14.8
			c8.5-2.1,9.8-13.9,6.2-21c-2.9-5.7-16.1-20.4-42-20.4s-53.1,9.6-53.1,33.3s24.7,34.3,48.5,37.7c23.8,3.4,29.3,13.6,26.2,21
			c-3.1,7.4-13.3,14.5-28.7,13s-22.6-14.5-24.7-21c-2.1-6.3-9.3-7.1-12.7-6.8c-3.4,0.3-14.2,4.6-9.3,19.8
			c4.9,15.1,21,27.2,53.1,27.2s50.9-19.8,50.9-38.6C167.6,115.3,155.2,103.3,121.9,96.8L121.9,96.8z"/>
	</g>
</g>
</svg>
