<?xml version="1.0" encoding="utf-8"?>
<!-- Generator: Adobe Illustrator 22.1.0, SVG Export Plug-In . SVG Version: 6.00 Build 0)  -->
<svg version="1.1" id="Capa_1" xmlns="http://www.w3.org/2000/svg" xmlns:xlink="http://www.w3.org/1999/xlink" x="0px" y="0px"
	 viewBox="0 0 250 250" style="enable-background:new 0 0 250 250;" xml:space="preserve">
<style type="text/css">
	.st0{fill:#B0B0B0;}
</style>
<g>
	<path class="st0" d="M230.2,161.4c4.8-12.7,7.2-26.1,7.2-39.8c0-30-11.7-58.3-32.9-79.5C183.3,21,155,9.3,125,9.3
		c-13.6,0-26.9,2.4-39.4,7.1C76.4,6.3,63.5,0.6,49.7,0.6C22.8,0.6,1,22.5,1,49.3c0,14.4,6.4,28,17.3,37.2
		c-3.8,11.4-5.8,23.3-5.8,35.2c0,30,11.7,58.3,32.9,79.5c21.2,21.2,49.5,32.9,79.5,32.9c12.1,0,24.1-2,35.7-5.9
		c9.1,12.7,23.9,20.4,39.6,20.4c26.9,0,48.7-21.9,48.7-48.7C249,184.8,242,170.7,230.2,161.4L230.2,161.4z M200.3,238
		c-13.5,0-26-7.2-32.9-18.9c-1-1.7-2.7-2.6-4.6-2.6c-0.6,0-1.2,0.1-1.9,0.3c-11.7,4.4-23.8,6.7-36,6.7c-27.2,0-52.8-10.6-72-29.8
		c-19.2-19.2-29.8-44.8-29.8-72c0-11.9,2.1-23.8,6.4-35.2c0.8-2.2,0.1-4.8-1.9-6.1c-10.1-7.2-16.1-18.8-16.1-31.1
		c0-21,17.1-38.2,38.2-38.2c11.9,0,22.8,5.4,30.1,14.8c1.5,1.9,4,2.6,6.2,1.6c12.3-5.1,25.4-7.8,39-7.8c27.2,0,52.8,10.6,72,29.8
		c19.2,19.2,29.8,44.8,29.8,72c0,13.7-2.7,27-8,39.6c-1,2.4-0.2,5.1,2,6.5c11,7.1,17.6,19.1,17.6,32.1
		C238.4,220.9,221.3,238,200.3,238L200.3,238z M200.3,238"/>
	<path class="st0" d="M132.8,105.1c-36.5-7.1-38.9-18.2-30.1-26c8.8-7.8,34.9-11.3,42.3,2.4c7.1,13.2,12.2,18.6,22,16.2
		c9.4-2.3,10.7-15.2,6.8-23c-3.2-6.3-17.6-22.3-46-22.3c-28.4,0-58.1,10.5-58.1,36.5s27,37.5,53.1,41.2c26,3.7,32.1,14.9,28.7,23
		c-3.4,8.1-14.5,15.9-31.4,14.2c-16.9-1.7-24.7-15.8-27-23c-2.2-6.9-10.1-7.8-13.9-7.4c-3.7,0.3-15.6,5.1-10.1,21.6
		c5.4,16.6,23,29.7,58.1,29.7s55.8-21.6,55.8-42.3C182.8,125.4,169.3,112.2,132.8,105.1L132.8,105.1z M132.8,105.1"/>
</g>
</svg>
