<?xml version="1.0" encoding="utf-8"?>
<!-- Generator: Adobe Illustrator 22.1.0, SVG Export Plug-In . SVG Version: 6.00 Build 0)  -->
<svg version="1.1" id="Capa_1" xmlns="http://www.w3.org/2000/svg" xmlns:xlink="http://www.w3.org/1999/xlink" x="0px" y="0px"
	 viewBox="0 0 250 250" style="enable-background:new 0 0 250 250;" xml:space="preserve">
<style type="text/css">
	.st0{fill:#FFFFFF;}
</style>
<path class="st0" d="M2,202c22.3,14.3,48.7,22.6,77.2,22.6c93.5,0,146.3-78.9,143.1-149.7c9.8-7.1,18.4-16,25.1-26.1
	c-9,4-18.7,6.7-28.9,7.9c10.4-6.2,18.4-16.1,22.1-27.8c-9.7,5.8-20.5,10-32,12.2c-9.2-9.8-22.3-15.9-36.7-15.9
	c-32.5,0-56.4,30.3-49,61.8C81,84.9,43.9,64.9,19.1,34.4C5.9,57,12.2,86.6,34.7,101.6c-8.3-0.3-16-2.5-22.8-6.3
	c-0.5,23.3,16.2,45.1,40.4,50c-7.1,1.9-14.8,2.4-22.7,0.9c6.4,20,25,34.5,47,35C55.4,197.7,28.7,205.1,2,202z"/>
</svg>
