<?xml version="1.0" encoding="utf-8"?>
<!-- Generator: Adobe Illustrator 22.1.0, SVG Export Plug-In . SVG Version: 6.00 Build 0)  -->
<svg version="1.1" id="Capa_1" xmlns="http://www.w3.org/2000/svg" xmlns:xlink="http://www.w3.org/1999/xlink" x="0px" y="0px"
	 viewBox="0 0 250 250" style="enable-background:new 0 0 250 250;" xml:space="preserve">
<style type="text/css">
	.st0{fill-rule:evenodd;clip-rule:evenodd;fill:#FFFFFF;}
</style>
<g>
	<path class="st0" d="M248.4,121.5c0,66.3-54.2,120-121,120c-21.2,0-41.2-5.4-58.5-14.9L2,247.9l21.8-64.4
		c-11-18.1-17.4-39.3-17.4-62c0-66.3,54.2-120.1,121-120.1C194.3,1.5,248.4,55.2,248.4,121.5L248.4,121.5z M127.5,20.6
		c-56.1,0-101.7,45.3-101.7,100.9c0,22.1,7.2,42.5,19.4,59.2l-12.7,37.5l39.1-12.4c16.1,10.5,35.3,16.7,56,16.7
		c56.1,0,101.7-45.3,101.7-100.9C229.2,65.9,183.5,20.6,127.5,20.6L127.5,20.6z M188.6,149.2c-0.7-1.2-2.7-2-5.7-3.4
		c-3-1.5-17.6-8.6-20.3-9.6c-2.7-1-4.7-1.5-6.7,1.5c-2,2.9-7.7,9.6-9.4,11.5c-1.7,2-3.5,2.2-6.4,0.7c-3-1.5-12.5-4.6-23.9-14.6
		c-8.8-7.8-14.8-17.4-16.5-20.4c-1.7-2.9-0.2-4.5,1.3-6c1.3-1.3,3-3.4,4.5-5.1c1.5-1.7,2-3,3-4.9c1-2,0.5-3.7-0.3-5.1
		c-0.7-1.5-6.7-16-9.1-21.8C96.6,66,94.1,67,92.4,67c-1.7,0-3.7-0.2-5.7-0.2c-2,0-5.2,0.7-7.9,3.7c-2.7,2.9-10.4,10.1-10.4,24.5
		c0,14.5,10.6,28.5,12.1,30.4c1.5,2,20.5,32.7,50.7,44.4c30.2,11.8,30.2,7.8,35.6,7.4c5.4-0.5,17.5-7.1,20-14
		C189.3,156.3,189.3,150.4,188.6,149.2L188.6,149.2z M188.6,149.2"/>
</g>
</svg>
