<?xml version="1.0" encoding="utf-8"?>
<!-- Generator: Adobe Illustrator 22.1.0, SVG Export Plug-In . SVG Version: 6.00 Build 0)  -->
<svg version="1.1" id="Capa_1" xmlns="http://www.w3.org/2000/svg" xmlns:xlink="http://www.w3.org/1999/xlink" x="0px" y="0px"
	 viewBox="0 0 229.4 229.4" style="enable-background:new 0 0 229.4 229.4;" xml:space="preserve">
<style type="text/css">
	.st0{fill:#E82042;}
</style>
<g>
	<g>
		<path class="st0" d="M229.4,111.7c0,61.7-50.4,111.7-112.6,111.7c-19.7,0-38.3-5-54.4-13.9L0,229.4l20.3-59.9
			C10,152.7,4.1,132.9,4.1,111.8C4.2,50,54.6,0,116.8,0S229.4,50,229.4,111.7L229.4,111.7z M116.8,17.8c-52.2,0-94.7,42.1-94.7,93.9
			c0,20.5,6.7,39.6,18,55.1l-11.8,34.9l36.4-11.6c14.9,9.8,32.9,15.5,52.1,15.5c52.2,0,94.7-42.1,94.7-93.9
			C211.4,59.9,169,17.8,116.8,17.8L116.8,17.8z M173.6,137.5c-0.7-1.1-2.5-1.8-5.3-3.2s-16.3-8-18.9-8.9c-2.5-0.9-4.4-1.4-6.2,1.4
			c-1.8,2.7-7.1,8.9-8.7,10.7c-1.6,1.8-3.2,2.1-6,0.7c-2.8-1.4-11.7-4.3-22.2-13.6c-8.2-7.3-13.7-16.2-15.4-19
			c-1.6-2.7-0.2-4.2,1.2-5.6c1.2-1.2,2.8-3.2,4.1-4.8c1.4-1.6,1.8-2.8,2.8-4.6c0.9-1.8,0.5-3.4-0.2-4.8S92.6,71,90.3,65.5
			C88.1,60,85.8,61,84.1,61c-1.6,0-3.4-0.2-5.3-0.2c-1.8,0-4.8,0.7-7.4,3.4c-2.5,2.7-9.7,9.4-9.7,22.8c0,13.5,9.9,26.5,11.3,28.3
			s19.1,30.4,47.2,41.4c28.1,11,28.1,7.3,33.1,6.8c5.1-0.4,16.3-6.6,18.6-13C174.3,144.1,174.3,138.6,173.6,137.5L173.6,137.5z"/>
	</g>
</g>
</svg>
