<?xml version="1.0" encoding="utf-8"?>
<!-- Generator: Adobe Illustrator 22.1.0, SVG Export Plug-In . SVG Version: 6.00 Build 0)  -->
<svg version="1.1" id="Capa_1" xmlns="http://www.w3.org/2000/svg" xmlns:xlink="http://www.w3.org/1999/xlink" x="0px" y="0px"
	 viewBox="0 0 250 250" style="enable-background:new 0 0 250 250;" xml:space="preserve">
<style type="text/css">
	.st0{fill:#FFFFFF;}
</style>
<g>
	<g>
		<path class="st0" d="M155.7,97.7c3.9,0,9.4-2,15-8.7v7.7h13V26.9h-13v53c-1.6,2-5.1,5.2-7.6,5.2c-2.8,0-3.5-1.9-3.5-4.7V26.8h-13
			v58.4C146.6,92.1,148.7,97.7,155.7,97.7z"/>
		<path class="st0" d="M97.8,79.3c0,12.3,6.4,18.7,19,18.7c10.4,0,18.7-7,18.7-18.7V45.1c0-10.9-8.1-18.8-18.7-18.8
			c-11.4,0-19,7.6-19,18.8V79.3z M111.2,46.2c0-3.8,1.8-6.7,5.4-6.7c4,0,5.7,2.8,5.7,6.7v32.5c0,3.8-1.9,6.6-5.4,6.6
			c-3.6,0-5.7-2.9-5.7-6.6V46.2z"/>
		<polygon class="st0" points="66.9,96.7 81.5,96.7 81.5,58.3 98.5,2 83.7,2 74.3,39.9 64.2,2 49.5,2 66.9,58.3 		"/>
	</g>
	<g>
		<path class="st0" d="M201.2,112.6H48c-16.5,0-29.8,13.3-29.8,29.8v75.3c0,16.5,13.3,29.8,29.8,29.8h153.1
			c16.5,0,29.8-13.3,29.8-29.8v-75.3C230.9,126,217.6,112.6,201.2,112.6z M68.4,225.1H54.5V148H40.1v-13.1h42.8V148H68.4V225.1z
			 M118,225.1h-12.4v-7.3c-2.3,2.7-4.7,4.8-7.1,6.2c-6.7,3.8-15.8,3.7-15.8-9.8v-55.6h12.4v51c0,2.7,0.7,4.5,3.3,4.5
			c2.4,0,5.8-3.1,7.3-5v-50.5H118V225.1z M165.6,211.4c0,8.2-3.1,14.6-11.3,14.6c-4.5,0-8.3-1.7-11.8-6v5.1h-12.5v-90.2h12.5v29
			c2.8-3.4,6.6-6.2,11-6.2c9.1,0,12.1,7.7,12.1,16.7V211.4z M211.4,193.4h-23.7V206c0,5,0.4,9.3,5.4,9.3c5.2,0,5.5-3.5,5.5-9.3v-4.6
			h12.7v5c0,12.8-5.5,20.6-18.5,20.6c-11.8,0-17.9-8.6-17.9-20.6v-29.9c0-11.6,7.6-19.6,18.8-19.6c11.9,0,17.6,7.5,17.6,19.6V193.4z
			"/>
		<path class="st0" d="M193.2,168.6c-4.6,0-5.5,3.2-5.5,7.8v6.7h10.9v-6.7C198.6,171.9,197.7,168.6,193.2,168.6z"/>
		<path class="st0" d="M145.1,169c-0.9,0.4-1.7,1.1-2.6,2v41.5c1,1.1,2,1.9,2.9,2.3c2,1,5,1.1,6.3-0.7c0.7-0.9,1.1-2.5,1.1-4.6
			v-34.4c0-2.2-0.5-4-1.3-5.1C150.1,168.1,147.3,167.9,145.1,169z"/>
	</g>
</g>
</svg>
