<?xml version="1.0" encoding="utf-8"?>
<!-- Generator: Adobe Illustrator 22.1.0, SVG Export Plug-In . SVG Version: 6.00 Build 0)  -->
<svg version="1.1" id="Capa_1" xmlns="http://www.w3.org/2000/svg" xmlns:xlink="http://www.w3.org/1999/xlink" x="0px" y="0px"
	 viewBox="0 0 359.7 217.4" style="enable-background:new 0 0 359.7 217.4;" xml:space="preserve">
<style type="text/css">
	.st0{fill:#FFFFFF;}
	.st1{fill:#605D75;}
	.st2{fill:#42464D;}
	.st3{fill:#D36230;}
	.st4{fill:#E5B77C;}
	.st5{fill:#B1BB51;}
	.st6{fill:#646478;}
	.st7{fill:#5C9ACF;}
	.st8{fill:#DCE7F0;}
	.st9{fill:#9EC1D2;}
</style>
<g>
	<g>
		<path class="st0" d="M10.9,193.1c-5.3,0-9.7-4.3-9.7-9.7V10.9c0-5.3,4.3-9.7,9.7-9.7h208.2c5.3,0,9.7,4.3,9.7,9.7v172.5
			c0,5.3-4.3,9.7-9.7,9.7H10.9z"/>
		<path class="st1" d="M219.1,2.4c4.7,0,8.5,3.8,8.5,8.5v172.5c0,4.7-3.8,8.5-8.5,8.5H10.9c-4.7,0-8.5-3.8-8.5-8.5V10.9
			c0-4.7,3.8-8.5,8.5-8.5H219.1 M219.1,0H10.9C4.9,0,0,4.9,0,10.9v172.5c0,6,4.9,10.9,10.9,10.9h208.2c6,0,10.9-4.9,10.9-10.9V10.9
			C230,4.9,225.1,0,219.1,0L219.1,0z"/>
	</g>
	<path class="st2" d="M219.1,0H10.9C4.9,0,0,4.9,0,10.9v20.6h230V10.9C230,4.9,225.1,0,219.1,0z"/>
	<g>
		<path class="st3" d="M22.3,16.1c0,3.4-2.7,6.1-6.1,6.1c-3.4,0-6.1-2.7-6.1-6.1c0-3.3,2.7-6.1,6.1-6.1C19.5,10,22.3,12.7,22.3,16.1
			z"/>
		<path class="st4" d="M39.3,16.1c0,3.4-2.7,6.1-6.1,6.1c-3.4,0-6.1-2.7-6.1-6.1c0-3.3,2.7-6.1,6.1-6.1C36.5,10,39.3,12.7,39.3,16.1
			z"/>
		<path class="st5" d="M56.3,16.1c0,3.4-2.7,6.1-6.1,6.1c-3.4,0-6.1-2.7-6.1-6.1c0-3.3,2.7-6.1,6.1-6.1C53.6,10,56.3,12.7,56.3,16.1
			z"/>
	</g>
	<rect x="73.3" y="10.6" class="st0" width="140.9" height="10.9"/>
	<rect x="14.6" y="48.3" class="st2" width="50" height="4.5"/>
	<g>
		<rect x="14.6" y="146.4" class="st2" width="53.6" height="4.5"/>
		<rect x="14.6" y="159.6" class="st6" width="45.8" height="4.5"/>
		<rect x="14.6" y="172.7" class="st6" width="45.8" height="4.5"/>
	</g>
	<g>
		<rect x="85.6" y="146.4" class="st2" width="53.6" height="4.5"/>
		<rect x="85.6" y="159.6" class="st6" width="45.8" height="4.5"/>
		<rect x="85.6" y="172.7" class="st6" width="45.8" height="4.5"/>
	</g>
	<g>
		<rect x="157.8" y="146.4" class="st2" width="53.6" height="4.5"/>
		<rect x="157.8" y="159.6" class="st6" width="45.8" height="4.5"/>
		<rect x="157.8" y="172.7" class="st6" width="45.8" height="4.5"/>
	</g>
	<rect x="183.6" y="48.3" class="st7" width="31.8" height="4.5"/>
	<rect x="143.6" y="48.3" class="st7" width="31.8" height="4.5"/>
	<rect x="103.5" y="48.3" class="st7" width="31.8" height="4.5"/>
	<g>
		<rect x="14.6" y="69.9" class="st8" width="55.4" height="60.1"/>
		<path class="st9" d="M71.2,131.2H13.5V68.8h57.7V131.2L71.2,131.2z M15.8,128.9h53.1V71.1H15.8V128.9L15.8,128.9z"/>
	</g>
	<g>
		<rect x="86.8" y="69.9" class="st8" width="55.4" height="60.1"/>
		<path class="st9" d="M143.4,131.2H85.6V68.8h57.7V131.2L143.4,131.2z M88,128.9h53.1V71.1H88V128.9L88,128.9z"/>
	</g>
	<g>
		<rect x="159" y="69.9" class="st8" width="55.4" height="60.1"/>
		<path class="st9" d="M215.5,131.2h-57.7V68.8h57.7V131.2L215.5,131.2z M160.1,128.9h53.1V71.1h-53.1V128.9L160.1,128.9z"/>
	</g>
	<g>
		<g>
			<path class="st0" d="M211.1,216.2c-5.3,0-9.7-4.3-9.7-9.7V50c0-5.3,4.3-9.7,9.7-9.7h137.7c5.3,0,9.7,4.3,9.7,9.7v156.5
				c0,5.3-4.3,9.7-9.7,9.7H211.1z"/>
			<path class="st1" d="M348.8,41.6c4.7,0,8.5,3.8,8.5,8.5v156.5c0,4.7-3.8,8.5-8.5,8.5H211.1c-4.7,0-8.5-3.8-8.5-8.5V50
				c0-4.7,3.8-8.5,8.5-8.5H348.8 M348.8,39.1H211.1c-6,0-10.9,4.9-10.9,10.9v156.5c0,6,4.9,10.9,10.9,10.9h137.7
				c6,0,10.9-4.9,10.9-10.9V50C359.7,44,354.9,39.1,348.8,39.1L348.8,39.1z"/>
		</g>
		<path class="st2" d="M348.8,39.1H211.1c-6,0-10.9,4.9-10.9,10.9v20.6h159.5V50C359.7,44,354.9,39.1,348.8,39.1z"/>
		<g>
			<path class="st3" d="M222.5,55.2c0,3.4-2.7,6.1-6.1,6.1c-3.4,0-6.1-2.7-6.1-6.1c0-3.3,2.7-6.1,6.1-6.1
				C219.8,49.2,222.5,51.9,222.5,55.2z"/>
			<path class="st4" d="M239.5,55.2c0,3.4-2.7,6.1-6.1,6.1c-3.4,0-6.1-2.7-6.1-6.1c0-3.3,2.7-6.1,6.1-6.1
				C236.8,49.2,239.5,51.9,239.5,55.2z"/>
			<path class="st5" d="M256.5,55.2c0,3.4-2.7,6.1-6.1,6.1c-3.4,0-6.1-2.7-6.1-6.1c0-3.3,2.7-6.1,6.1-6.1
				C253.8,49.2,256.5,51.9,256.5,55.2z"/>
		</g>
		<rect x="273.5" y="49.8" class="st0" width="70.4" height="10.9"/>
		<rect x="214.9" y="87.5" class="st2" width="50" height="4.5"/>
		<g>
			<rect x="214.9" y="182" class="st2" width="53.6" height="4.5"/>
			<rect x="214.9" y="195.2" class="st6" width="45.8" height="4.5"/>
		</g>
		<g>
			<rect x="288.8" y="182" class="st2" width="53.6" height="4.5"/>
			<rect x="288.8" y="195.2" class="st6" width="45.8" height="4.5"/>
		</g>
		<rect x="313.5" y="87.5" class="st7" width="31.8" height="4.5"/>
		<g>
			<rect x="216.2" y="108.7" class="st8" width="55.4" height="60.1"/>
			<path class="st9" d="M272.8,169.9h-57.7v-62.4h57.7V169.9L272.8,169.9z M217.4,167.6h53.1v-57.8h-53.1V167.6L217.4,167.6z"/>
		</g>
		<g>
			<rect x="288.4" y="108.7" class="st8" width="55.4" height="60.1"/>
			<path class="st9" d="M344.9,169.9h-57.7v-62.4h57.7V169.9L344.9,169.9z M289.5,167.6h53.1v-57.8h-53.1V167.6L289.5,167.6z"/>
		</g>
	</g>
</g>
</svg>
