<?xml version="1.0" encoding="utf-8"?>
<!-- Generator: Adobe Illustrator 22.1.0, SVG Export Plug-In . SVG Version: 6.00 Build 0)  -->
<svg version="1.1" id="Capa_1" xmlns="http://www.w3.org/2000/svg" xmlns:xlink="http://www.w3.org/1999/xlink" x="0px" y="0px"
	 viewBox="0 0 500 500" style="enable-background:new 0 0 500 500;" xml:space="preserve">
<style type="text/css">
	.st0{fill-rule:evenodd;clip-rule:evenodd;fill:none;stroke:#476FB0;stroke-width:15;stroke-miterlimit:22.9256;}
</style>
<g>
	<polygon class="st0" points="253.7,29.1 366.9,81 491.8,146.5 490.9,167.5 490.6,189.7 353.9,125.1 254.9,76.6 151.6,124.8 
		14.3,190.3 14.4,165.9 14.9,146.5 171.4,71.1 	"/>
	<path class="st0" d="M48.1,186.6l-1.2,265.3c0,8.8,7.1,16,15.9,16.1l374,1.8c8.8,0,16-7.1,16.1-15.9l1.2-265.3
		c0-8.8-7.1-16-15.9-16.1l-374-1.8C55.4,170.6,48.2,177.8,48.1,186.6z"/>
	<path class="st0" d="M8,470.3c483.1,0,483.1,0,483.1,0"/>
	<path class="st0" d="M116.7,240.7h274.4c8.8,0,16,7.2,16,16v196.9c0,8.8-7.2,16-16,16H116.7c-8.8,0-16-7.2-16-16V256.7
		C100.7,247.9,107.9,240.7,116.7,240.7z"/>
	<path class="st0" d="M82.6,188.9c0,28.4,0,27.8,0,27.8"/>
	<path class="st0" d="M124.8,188.9c0,28.4,0,27.8,0,27.8"/>
	<path class="st0" d="M167.1,188.9c0,28.4,0,27.8,0,27.8"/>
	<path class="st0" d="M210.7,188.9c0,28.4,0,27.8,0,27.8"/>
	<path class="st0" d="M253,188.9c0,28.4,0,27.8,0,27.8"/>
	<path class="st0" d="M294.6,188.9c0,28.4,0,27.8,0,27.8"/>
	<path class="st0" d="M337.6,188.9c0,28.4,0,27.8,0,27.8"/>
	<path class="st0" d="M380.9,188.9c0,28.4,0,27.8,0,27.8"/>
	<path class="st0" d="M422.3,188.9c0,28.4,0,27.8,0,27.8"/>
	<path class="st0" d="M229.8,280c46.4,0,45.4,0,45.4,0"/>
	<path class="st0" d="M333,365.2c46.4,0,45.4,0,45.4,0"/>
	<path class="st0" d="M107.5,313.2c306.3,0,299.7,0,299.7,0"/>
	<path class="st0" d="M108.7,415.8c298.1,0,291.6,0,291.6,0"/>
	<path class="st0" d="M107.5,365.2c203.4,0,198.9,0,198.9,0"/>
</g>
</svg>
