<?xml version="1.0" encoding="utf-8"?>
<!-- Generator: Adobe Illustrator 22.1.0, SVG Export Plug-In . SVG Version: 6.00 Build 0)  -->
<svg version="1.1" id="Capa_1" xmlns="http://www.w3.org/2000/svg" xmlns:xlink="http://www.w3.org/1999/xlink" x="0px" y="0px"
	 viewBox="0 0 500 500" style="enable-background:new 0 0 500 500;" xml:space="preserve">
<style type="text/css">
	.st0{fill-rule:evenodd;clip-rule:evenodd;fill:none;stroke:#E5A65A;stroke-width:15;stroke-miterlimit:22.9256;}
	.st1{fill-rule:evenodd;clip-rule:evenodd;fill:#E5A65A;}
	.st2{fill-rule:evenodd;clip-rule:evenodd;fill:#E5A65A;stroke:#E5A65A;stroke-width:15;stroke-miterlimit:22.9256;}
</style>
<path class="st0" d="M134.2,24.9h224.5c15.5,0,28.2,12.7,28.2,28.2v401.3c0,15.5-12.7,28.2-28.2,28.2H134.2
	c-15.5,0-28.2-12.7-28.2-28.2V53.1C106,37.6,118.7,24.9,134.2,24.9z"/>
<path class="st0" d="M386.9,84.8c-280.9,0-280.9,0-280.9,0"/>
<path class="st0" d="M212.5,57c66.8,0,66.8,0,66.8,0"/>
<path class="st0" d="M106,409.4c280.9,0,280.9,0,280.9,0"/>
<g>
	<path class="st1" d="M208.1,289.3c-9.4-6.3-26.4-30.6-37.7-30.6c-13.2,0-16.5,11.1-16.5,21.2c0,6.8,39.5,43,46.5,50
		c25.8,25.8,30.6,30,75.9,30c66.1,0,56.5-48.1,56.5-103.6c0-15-6.9-23.2-17.3-19.8c-4.1,1.3-4.7,2.5-6.4,5.5
		c-2.7,4.8-2.2,13.3-2.2,21.4h-7.1c0-21.8,4.3-33.4-14.1-37.7c-13.6,7.2-11.8,8.2-11.8,28.2H267c0-20.2,1.9-23.1-9.4-33
		c-15.9,3.7-16.5,4.2-16.5,33H234c0-15.7,0-31.4,0-47.1c0-26.3,4.4-40-14.1-40c-17.3,0-11.8,36.7-11.8,54.1
		C208.1,243.8,208.1,266.5,208.1,289.3z"/>
	<path class="st1" d="M187,173.9c0,14-0.2,23.4,14.1,33c0-27.1-4.7-14.5-4.7-28.2c0-31.3,49.4-37.8,49.4,2.4
		c0,10.4-4.7,8.4-4.7,25.9c29-19.4,19.2-63.6-23.5-63.6C203.1,143.3,187,159.5,187,173.9z"/>
</g>
<circle class="st2" cx="246.5" cy="445.4" r="15.5"/>
<path class="st2" d="M186,64.8c4.4,0,8.1-3.6,8.1-8.1s-3.6-8.1-8.1-8.1c-4.4,0-8.1,3.6-8.1,8.1S181.6,64.8,186,64.8z"/>
<path class="st2" d="M137.6,126c3,0,5.5-2.5,5.5-5.5s-2.5-5.5-5.5-5.5c-3,0-5.5,2.5-5.5,5.5S134.5,126,137.6,126z"/>
<path class="st2" d="M137.6,159.2c3,0,5.5-2.5,5.5-5.5s-2.5-5.5-5.5-5.5c-3,0-5.5,2.5-5.5,5.5S134.5,159.2,137.6,159.2z"/>
<path class="st2" d="M137.6,258.3c3,0,5.5-2.5,5.5-5.5s-2.5-5.5-5.5-5.5c-3,0-5.5,2.5-5.5,5.5S134.5,258.3,137.6,258.3z"/>
<path class="st2" d="M137.6,289c3,0,5.5-2.5,5.5-5.5c0-3-2.5-5.5-5.5-5.5c-3,0-5.5,2.5-5.5,5.5C132,286.5,134.5,289,137.6,289z"/>
<path class="st2" d="M137.6,195.1c3,0,5.5-2.5,5.5-5.5c0-3-2.5-5.5-5.5-5.5c-3,0-5.5,2.5-5.5,5.5C132,192.6,134.5,195.1,137.6,195.1
	z"/>
<path class="st2" d="M137.6,227.4c3,0,5.5-2.5,5.5-5.5c0-3-2.5-5.5-5.5-5.5c-3,0-5.5,2.5-5.5,5.5C132,224.9,134.5,227.4,137.6,227.4
	z"/>
<path class="st2" d="M137.6,349.1c3,0,5.5-2.5,5.5-5.5s-2.5-5.5-5.5-5.5c-3,0-5.5,2.5-5.5,5.5S134.5,349.1,137.6,349.1z"/>
<path class="st2" d="M137.6,380.6c3,0,5.5-2.5,5.5-5.5s-2.5-5.5-5.5-5.5c-3,0-5.5,2.5-5.5,5.5S134.5,380.6,137.6,380.6z"/>
<path class="st2" d="M137.6,319.9c3,0,5.5-2.5,5.5-5.5s-2.5-5.5-5.5-5.5c-3,0-5.5,2.5-5.5,5.5S134.5,319.9,137.6,319.9z"/>
</svg>
