<?xml version="1.0" encoding="utf-8"?>
<!-- Generator: Adobe Illustrator 22.1.0, SVG Export Plug-In . SVG Version: 6.00 Build 0)  -->
<svg version="1.1" id="Capa_1" xmlns="http://www.w3.org/2000/svg" xmlns:xlink="http://www.w3.org/1999/xlink" x="0px" y="0px"
	 viewBox="0 0 500 500" style="enable-background:new 0 0 500 500;" xml:space="preserve">
<style type="text/css">
	.st0{fill-rule:evenodd;clip-rule:evenodd;fill:none;stroke:#6DB54D;stroke-width:15;stroke-miterlimit:22.9256;}
</style>
<g>
	<rect x="15" y="45.2" class="st0" width="470.8" height="272.2"/>
	
		<ellipse transform="matrix(0.9905 -0.1379 0.1379 0.9905 -22.8318 36.5552)" class="st0" cx="252.5" cy="183.1" rx="67.9" ry="67.9"/>
	
		<ellipse transform="matrix(0.9729 -0.2312 0.2312 0.9729 -31.8053 95.1281)" class="st0" cx="389.9" cy="183.3" rx="22.8" ry="22.8"/>
	
		<ellipse transform="matrix(0.9729 -0.2312 0.2312 0.9729 -39.4517 29.8862)" class="st0" cx="107.8" cy="183.3" rx="22.8" ry="22.8"/>
	<path class="st0" d="M96.2,77.1h318.2c0,24.9,20.3,45.2,45.2,45.2v118.9c-24.9,0-45.2,20.3-45.2,45.2H96.2
		c0-24.9-20.3-45.2-45.2-45.2V122.3C75.9,122.3,96.2,102,96.2,77.1z"/>
	<path class="st0" d="M20,322.8v53.7c0,0,209.7-8.4,409.8,79"/>
	<line class="st0" x1="424.3" y1="399.1" x2="424.3" y2="448.5"/>
	<path class="st0" d="M20,349.6c0,0,254.2-13.8,444.3,62.9"/>
	<line class="st0" x1="458.7" y1="318.7" x2="458.7" y2="404.7"/>
</g>
</svg>
