<?xml version="1.0" encoding="utf-8"?>
<!-- Generator: Adobe Illustrator 22.1.0, SVG Export Plug-In . SVG Version: 6.00 Build 0)  -->
<svg version="1.1" id="Capa_1" xmlns="http://www.w3.org/2000/svg" xmlns:xlink="http://www.w3.org/1999/xlink" x="0px" y="0px"
	 viewBox="0 0 500 500" style="enable-background:new 0 0 500 500;" xml:space="preserve">
<style type="text/css">
	.st0{fill-rule:evenodd;clip-rule:evenodd;fill:#85B355;}
	.st1{fill-rule:evenodd;clip-rule:evenodd;fill:#85B355;stroke:#85B355;stroke-width:0.5669;stroke-miterlimit:22.9256;}
</style>
<g>
	<path class="st0" d="M167.1,27.1h164.5c20.2,0,36.7,16.7,36.7,37v198.5c0,20.4-16.5,37-36.7,37H167.1c-20.2,0-36.7-16.7-36.7-37
		V64.1C130.4,43.8,146.9,27.1,167.1,27.1L167.1,27.1z M185.6,46.6v236.6h31.4V46.6H185.6z"/>
	<path class="st1" d="M41.2,109.4h417.7c13.6,0,24.8,11.1,24.8,24.8v241.1c0,13.6-11.1,24.8-24.8,24.8H41.2
		c-13.6,0-24.8-11.1-24.8-24.8V134.2C16.4,120.6,27.5,109.4,41.2,109.4L41.2,109.4z M40.6,130.2c-2.7,0-4.9,2.2-4.9,4.9v215.6
		c0,2.7,2.2,4.9,4.9,4.9h414.5c2.7,0,4.9-2.2,4.9-4.9V135.1c0-2.7-2.2-4.9-4.9-4.9H40.6z"/>
	<path class="st1" d="M125.5,265h247.3c9.5,0,17.4,7.8,17.4,17.4l0,0c0,9.5-7.8,17.4-17.4,17.4H125.5c-9.5,0-17.4-7.8-17.4-17.4l0,0
		C108.1,272.8,115.9,265,125.5,265z"/>
	<g>
		<path class="st1" d="M158.7,457.5h182.6c4.2,0,7.7,3.5,7.7,7.7v0c0,4.2-3.5,7.7-7.7,7.7H158.7c-4.2,0-7.7-3.5-7.7-7.7v0
			C151,460.9,154.5,457.5,158.7,457.5z"/>
		<polygon class="st1" points="186.1,422.3 313.9,422.3 323.1,467.5 179.5,467.1 		"/>
	</g>
</g>
</svg>
