<?xml version="1.0" encoding="utf-8"?>
<!-- Generator: Adobe Illustrator 22.1.0, SVG Export Plug-In . SVG Version: 6.00 Build 0)  -->
<svg version="1.1" id="Capa_1" xmlns="http://www.w3.org/2000/svg" xmlns:xlink="http://www.w3.org/1999/xlink" x="0px" y="0px"
	 viewBox="0 0 500 500" style="enable-background:new 0 0 500 500;" xml:space="preserve">
<style type="text/css">
	.st0{fill-rule:evenodd;clip-rule:evenodd;fill:none;stroke:#556EAB;stroke-width:14.1732;stroke-miterlimit:22.9256;}
	.st1{fill-rule:evenodd;clip-rule:evenodd;fill:none;stroke:#556EAB;stroke-width:11.3386;stroke-miterlimit:22.9256;}
	.st2{fill-rule:evenodd;clip-rule:evenodd;fill:#556EAB;}
	.st3{fill-rule:evenodd;clip-rule:evenodd;stroke:#FFFFFF;stroke-width:0.216;stroke-miterlimit:22.9256;}
</style>
<g>
	<path class="st0" d="M14,80.7c463.3,0,464.6,0,464.6,0v404.7H12.7L14,80.7z"/>
	<path class="st0" d="M14,80.7c64.8-64.8,66-66,66-66h166.3h167.5l65.4,65.4"/>
	<line class="st1" x1="246.2" y1="80.7" x2="246.2" y2="14.7"/>
	<g>
		<path class="st2" d="M317.1,362.5l2.6,0v0v0v0v0.1v0.1v0.1v0.2v0.3v0.3v0.4v0.5v0.5v0.6v0.7v0.8v0.9v1.1v1.2v1.3v1.5v1.6v1.8v1.9
			v2.1v2.3v2.4v2.6v2.8v3v3.2v3.4h-5.2v-3.4v-3.2v-3v-2.8v-2.6v-2.4v-2.3v-2.1v-1.9v-1.8v-1.6v-1.5v-1.3v-1.2v-1.1v-0.9v-0.8v-0.7
			V365v-0.5V364v-0.4v-0.3v-0.3v-0.2v-0.1v-0.1v-0.1v0v0v0L317.1,362.5L317.1,362.5z M317.1,332.3l15.9,31.8h-31.8L317.1,332.3z"/>
	</g>
	<g>
		<path class="st2" d="M401.5,362.5l2.6,0v0v0v0v0.1v0.1v0.1v0.2v0.3v0.3v0.4v0.5v0.5v0.6v0.7v0.8v0.9v1.1v1.2v1.3v1.5v1.6v1.8v1.9
			v2.1v2.3v2.4v2.6v2.8v3v3.2v3.4h-5.2v-3.4v-3.2v-3v-2.8v-2.6v-2.4v-2.3v-2.1v-1.9v-1.8v-1.6v-1.5v-1.3v-1.2v-1.1v-0.9v-0.8v-0.7
			V365v-0.5V364v-0.4v-0.3v-0.3v-0.2v-0.1v-0.1v-0.1v0v0v0L401.5,362.5L401.5,362.5z M401.5,332.3l15.9,31.8h-31.8L401.5,332.3z"/>
	</g>
	<path class="st0" d="M204.6,144.9h83.2c8.7,0,15.8,7.1,15.8,15.8v9.9c0,8.7-7.1,15.8-15.8,15.8h-83.2c-8.7,0-15.8-7.1-15.8-15.8
		v-9.9C188.8,152,195.9,144.9,204.6,144.9z"/>
	<path class="st1" d="M290.2,426c136.9,0,136.9,0,136.9,0"/>
	<g>
		<path class="st3" d="M482.6,72.4c4.4,2,5.6,4,3.3,8.7c-1.9-3.5-1.1-4-4.3-4.4c-1.2-0.3-1.9-1.5-1.6-2.6
			C480.2,72.9,481.4,72.2,482.6,72.4z"/>
	</g>
	<g>
		<path class="st3" d="M487.1,78.5c0.5,1.9,0,2.7-1.9,3.2c-0.2-0.2-1.4-1.2-1.8-1.2c-0.2,0.2-0.1,0.1-0.1,0.4c-0.6-1-0.3-2.4,0.7-3
			C485.1,77.2,486.4,77.5,487.1,78.5z"/>
	</g>
	<g>
		<path class="st3" d="M485.9,76.7c0.5,1.9,0,2.7-1.9,3.2c-0.2-0.2-1.4-1.2-1.8-1.2c-0.2,0.2-0.1,0.1-0.1,0.4c-0.6-1-0.3-2.4,0.7-3
			C483.9,75.3,485.3,75.6,485.9,76.7z"/>
	</g>
</g>
</svg>
