<?xml version="1.0" encoding="utf-8"?>
<!-- Generator: Adobe Illustrator 22.1.0, SVG Export Plug-In . SVG Version: 6.00 Build 0)  -->
<svg version="1.1" id="Capa_1" xmlns="http://www.w3.org/2000/svg" xmlns:xlink="http://www.w3.org/1999/xlink" x="0px" y="0px"
	 viewBox="0 0 500 500" style="enable-background:new 0 0 500 500;" xml:space="preserve">
<style type="text/css">
	.st0{fill-rule:evenodd;clip-rule:evenodd;fill:none;stroke:#556EAB;stroke-width:15;stroke-miterlimit:22.9256;}
	.st1{fill-rule:evenodd;clip-rule:evenodd;fill:#556EAB;stroke:#556EAB;stroke-width:7;stroke-miterlimit:22.9256;}
</style>
<g>
	<path class="st0" d="M59.3,82.5h381.5c25.1,0,45.7,20.6,45.7,45.7v243.5c0,25.1-20.6,45.7-45.7,45.7H59.3
		c-25.1,0-45.7-20.6-45.7-45.7V128.2C13.5,103.1,34.1,82.5,59.3,82.5z"/>
	<path class="st1" d="M190.5,159.8c12.7,0,23.6,4.5,32.7,13.5c9,9,13.6,19.8,13.6,32.5c0,12.8-4.5,23.7-13.5,32.7
		c-9,9-19.9,13.5-32.7,13.5c-12.8,0-23.6-4.5-32.7-13.6c-9-9-13.5-19.9-13.5-32.6c0-12.6,4.5-23.5,13.6-32.5
		C167,164.3,177.9,159.8,190.5,159.8L190.5,159.8z M190.6,185.7c-5.6,0-10.4,2-14.4,5.9c-4,4-5.9,8.7-5.9,14.3s2,10.3,5.9,14.3
		c4,3.9,8.8,5.9,14.4,5.9c5.6,0,10.4-2,14.4-5.9c4-4,5.9-8.7,5.9-14.3s-2-10.3-5.9-14.3C201,187.7,196.2,185.7,190.6,185.7
		L190.6,185.7z M292.5,162.2h-15.3l-71.5,176.1h15.8L292.5,162.2L292.5,162.2z M309.6,247.8c12.6,0,23.5,4.5,32.5,13.6
		c9,9,13.5,19.9,13.5,32.7c0,12.7-4.5,23.6-13.5,32.7c-9,9-19.8,13.6-32.5,13.6c-12.7,0-23.6-4.5-32.6-13.6
		c-9-9-13.6-19.9-13.6-32.7c0-12.7,4.5-23.6,13.6-32.7C286,252.3,296.9,247.8,309.6,247.8L309.6,247.8z M309.5,273.6
		c5.6,0,10.3,2,14.3,5.9c3.9,4,5.9,8.7,5.9,14.3c0,5.7-2,10.5-5.9,14.5c-4,4-8.7,5.9-14.3,5.9c-5.6,0-10.3-2-14.3-5.9
		c-3.9-4-5.9-8.8-5.9-14.5c0-5.6,2-10.3,5.9-14.3C299.2,275.6,304,273.6,309.5,273.6z"/>
</g>
</svg>
