<?xml version="1.0" encoding="utf-8"?>
<!-- Generator: Adobe Illustrator 22.1.0, SVG Export Plug-In . SVG Version: 6.00 Build 0)  -->
<svg version="1.1" id="Capa_1" xmlns="http://www.w3.org/2000/svg" xmlns:xlink="http://www.w3.org/1999/xlink" x="0px" y="0px"
	 viewBox="0 0 500 500" style="enable-background:new 0 0 500 500;" xml:space="preserve">
<style type="text/css">
	.st0{fill-rule:evenodd;clip-rule:evenodd;fill:none;stroke:#6DB54D;stroke-width:15;stroke-miterlimit:22.9256;}
</style>
<path class="st0" d="M23.8,47h453.1c6.2,0,11.3,5.1,11.3,11.3v383.1c0,6.2-5.1,11.3-11.3,11.3H23.8c-6.2,0-11.3-5.1-11.3-11.3V58.3
	C12.5,52.1,17.6,47,23.8,47z"/>
<path class="st0" d="M93.8,155c192.4,0,192.4,0,192.4,0"/>
<path class="st0" d="M94.7,255.5c192.4,0,192.4,0,192.4,0"/>
<path class="st0" d="M95.6,356.7c192.4,0,192.4,0,192.4,0"/>
<g>
	<path class="st0" d="M350.5,157.8c26.6,20.5,25,19.3,25,19.3"/>
	<path class="st0" d="M410.8,130.4c-40.6,49.6-40.2,49.1-40.2,49.1"/>
</g>
<g>
	<path class="st0" d="M350.5,258.3c26.6,20.5,25,19.3,25,19.3"/>
	<path class="st0" d="M410.8,231c-40.6,49.6-40.2,49.1-40.2,49.1"/>
</g>
<g>
	<path class="st0" d="M350.5,359.5c26.6,20.5,25,19.3,25,19.3"/>
	<path class="st0" d="M410.8,332.1c-40.6,49.6-40.2,49.1-40.2,49.1"/>
</g>
</svg>
