<?xml version="1.0" encoding="utf-8"?>
<!-- Generator: Adobe Illustrator 22.1.0, SVG Export Plug-In . SVG Version: 6.00 Build 0)  -->
<svg version="1.1" id="Capa_1" xmlns="http://www.w3.org/2000/svg" xmlns:xlink="http://www.w3.org/1999/xlink" x="0px" y="0px"
	 viewBox="0 0 500 500" style="enable-background:new 0 0 500 500;" xml:space="preserve">
<style type="text/css">
	.st0{fill-rule:evenodd;clip-rule:evenodd;fill:none;stroke:#E5A65A;stroke-width:15;stroke-miterlimit:22.9256;}
</style>
<g>
	<path class="st0" d="M247.3,380.9h22.9c13,0,23.7,10.6,23.7,23.7l0,0c0,13-10.6,23.7-23.7,23.7h-22.9c-13,0-23.7-10.6-23.7-23.7
		l0,0C223.6,391.5,234.3,380.9,247.3,380.9z"/>
	<path class="st0" d="M287.9,34.9c11.1,24.7,11.9,26.5,11.9,26.5c3.8,6.9,6.5-7.3,69.4,19.3c62.7,26.5,124.3,210.8,96.9,245.3
		c-13.1,16.5-37.6,7.5-51.1,12l0.7-102l18.5,0.4c23.2,1.2,17.3-0.8,22.8,1.6"/>
	<path class="st0" d="M468.1,330.1c10.6,39.8,11.5,76.7,12.6,117.3c0,0-22-1.1-43.6-1.8c-40.5-1.4-81.5-3-122.1-2.7
		c-62.3,35.6-103.1,42.9-149.4-25.5c-12.6-18.6-41.1-64.5-46.6-87.8c-3-12.6-18.5-0.4-27.4-15.5c-8.9-15.2-7.4-37.3-7.4-37.3
		s6.3-19.2,16.6-14.1c10.4,5.2,12.8,5.4,12.8,5.4c45.8-9.2,84.3-23.4,119.6-56.4c34-31.8,62.8-68.8,64.3-76.9
		c1-5.6,68.1,120.8,86.9,125c10,2.2,31.2,4.8,31.2,4.8"/>
	<path class="st0" d="M360.9,380.7c21.1-52.7,21.3-53.6,21.3-53.6c14.7-13.7,20.8-11.6,33.1-16.3"/>
	<path class="st0" d="M285.3,31C117.7,48.8,80.4,124.5,33.7,268.3c-15.2,60.7-13.5,116.8-15,178.6l165.7-6.7"/>
	<path class="st0" d="M433.8,340.8c-3,27.4-3,27.4-3,27.4c-7,16.3-28.7,33.9-49.2,33.6c-9.1-0.1-87.9,2.2-87.9,2.2"/>
	<g>
		<path class="st0" d="M436.5,363.7c-3.7,14.5-10.6,23-20.6,33.5c-4.6,4.8-20.2,6-22.7,4.1c0.7-0.1,0.4-0.1,0.9-0.1
			c5.7-1.2,15.7-1.7,19.4-6.2c10.5-12.8,14.3-17.5,18.5-34.1c0.8-1.3,2.4-1.7,3.7-0.9C436.9,360.8,437.3,362.4,436.5,363.7z"/>
	</g>
	<g>
		<path class="st0" d="M440.1,360.1c-0.8,19.9-6.6,16.8-18.4,27.9c-0.9,0.8-4.8,4.1-6.4,3.4c1.3-1.5,3.2-3,4.9-4.9
			c11.4-13.5,15.2-6.8,14.7-26.3c0-1.5,1.2-2.7,2.7-2.7C438.9,357.4,440.1,358.6,440.1,360.1z"/>
	</g>
	<g>
		<path class="st0" d="M405.7,394.9c9.8,7-4,8.6-1.9,4.9c-0.1,0-0.3,0-0.4-0.1c-1.3-0.6-1.9-2.2-1.2-3.6
			C402.8,394.8,404.4,394.2,405.7,394.9L405.7,394.9z M406.8,399.6c-0.1,0.4-0.2,0.7-0.2,0.8C407,400.3,407,399.9,406.8,399.6z"/>
	</g>
	<g>
		<path class="st0" d="M410.1,399.2c-2.5,11.6-13-5.5-4.5-4.2c1.7,0.3,2.6,0.9,3,1.7C409.5,397.1,410.1,398.1,410.1,399.2
			L410.1,399.2z M405.3,398.7L405.3,398.7L405.3,398.7L405.3,398.7L405.3,398.7z M405.2,398.5c-0.1-0.1-0.2-0.2-0.3-0.3l0,0
			C404.9,398.4,405.1,398.5,405.2,398.5z"/>
	</g>
</g>
</svg>
