<?xml version="1.0" encoding="utf-8"?>
<!-- Generator: Adobe Illustrator 22.1.0, SVG Export Plug-In . SVG Version: 6.00 Build 0)  -->
<svg version="1.1" id="Capa_1" xmlns="http://www.w3.org/2000/svg" xmlns:xlink="http://www.w3.org/1999/xlink" x="0px" y="0px"
	 viewBox="0 0 500 500" style="enable-background:new 0 0 500 500;" xml:space="preserve">
<style type="text/css">
	.st0{fill-rule:evenodd;clip-rule:evenodd;fill:none;stroke:#556EAB;stroke-width:14.1732;stroke-miterlimit:22.9256;}
	.st1{fill-rule:evenodd;clip-rule:evenodd;fill:none;stroke:#556EAB;stroke-width:11.3386;stroke-miterlimit:22.9256;}
	.st2{fill-rule:evenodd;clip-rule:evenodd;stroke:#FFFFFF;stroke-width:0.216;stroke-miterlimit:22.9256;}
</style>
<g>
	<path class="st0" d="M14,80.7c463.3,0,464.6,0,464.6,0v404.7H12.7L14,80.7z"/>
	<path class="st0" d="M14,80.7c64.8-64.8,66-66,66-66h166.3h167.5l65.4,65.4"/>
	<path class="st0" d="M91.6,124.1h83.2c8.7,0,15.8,7.1,15.8,15.8v9.9c0,8.7-7.1,15.8-15.8,15.8H91.6c-8.7,0-15.8-7.1-15.8-15.8v-9.9
		C75.8,131.2,82.9,124.1,91.6,124.1z"/>
	<path class="st1" d="M294.7,342.4c0,136.9,0,136.9,0,136.9"/>
	<g>
		<path class="st2" d="M482.6,72.4c4.4,2,5.6,4,3.3,8.7c-1.9-3.5-1.1-4-4.3-4.4c-1.2-0.3-1.9-1.5-1.6-2.6
			C480.2,72.9,481.4,72.2,482.6,72.4z"/>
	</g>
	<g>
		<path class="st2" d="M487.1,78.5c0.5,1.9,0,2.7-1.9,3.2c-0.2-0.2-1.4-1.2-1.8-1.2c-0.2,0.2-0.1,0.1-0.1,0.4c-0.6-1-0.3-2.4,0.7-3
			C485.1,77.2,486.4,77.5,487.1,78.5z"/>
	</g>
	<g>
		<path class="st2" d="M485.9,76.7c0.5,1.9,0,2.7-1.9,3.2c-0.2-0.2-1.4-1.2-1.8-1.2c-0.2,0.2-0.1,0.1-0.1,0.4c-0.6-1-0.3-2.4,0.7-3
			C483.9,75.3,485.3,75.6,485.9,76.7z"/>
	</g>
	<path class="st1" d="M157.8,348.4c136.9,0,136.9,0,136.9,0"/>
	<path class="st1" d="M163.7,348.4c0,136.9,0,136.9,0,136.9"/>
	<path class="st0" d="M320.6,124.1h83.2c8.7,0,15.8,7.1,15.8,15.8v9.9c0,8.7-7.1,15.8-15.8,15.8h-83.2c-8.7,0-15.8-7.1-15.8-15.8
		v-9.9C304.8,131.2,311.9,124.1,320.6,124.1z"/>
</g>
</svg>
