<?xml version="1.0" encoding="utf-8"?>
<!-- Generator: Adobe Illustrator 22.1.0, SVG Export Plug-In . SVG Version: 6.00 Build 0)  -->
<svg version="1.1" id="Capa_1" xmlns="http://www.w3.org/2000/svg" xmlns:xlink="http://www.w3.org/1999/xlink" x="0px" y="0px"
	 viewBox="0 0 500 500" style="enable-background:new 0 0 500 500;" xml:space="preserve">
<style type="text/css">
	.st0{fill-rule:evenodd;clip-rule:evenodd;fill:none;stroke:#476FB0;stroke-width:15;stroke-miterlimit:22.9256;}
	.st1{fill-rule:evenodd;clip-rule:evenodd;fill:none;stroke:#476FB0;stroke-width:8.5039;stroke-miterlimit:22.9256;}
	.st2{fill-rule:evenodd;clip-rule:evenodd;fill:#476FB0;stroke:#476FB0;stroke-width:0.216;stroke-miterlimit:22.9256;}
	.st3{fill-rule:evenodd;clip-rule:evenodd;fill:#FFFFFF;}
	.st4{fill-rule:evenodd;clip-rule:evenodd;fill:#476FB0;stroke:#476FB0;stroke-width:3;stroke-miterlimit:22.9256;}
	.st5{fill-rule:evenodd;clip-rule:evenodd;fill:#476FB0;stroke:#476FB0;stroke-width:4;stroke-miterlimit:22.9256;}
</style>
<g>
	<path class="st0" d="M147.2,89.6c14.9-106.3,146.1-70.9,147.1-66.1c2.8,13.1,62.2,1.7,60.4,78.4c-0.4,17.7-2.3,46.8-6.5,76.1
		c-0.5,3.8,9.8,16.2,3.8,33.2c-9.9,28.1-19.4,28.5-19.4,28.5s-9.5,30.6-24,59.4c-8.5,16.9,3.8,50.4,3.8,50.4s0.8,9.1,17.8,20.2
		c17,11.1,26.8,0,88,39.1s53.6,77.4,53.6,77.4H27.3c0,0,0.9-27.2,11.1-42.5c10.2-15.3,37.6-33.3,38.7-34
		c1.1-0.7,19.7-11.3,37.8-17.4c21.7-7.4,48.9-21.2,48.1-20.3c-0.9,0.9,24.2-14.1,28.5-24.3c7.7-18.6,5.2-27.2,2.6-46.8
		c-5.1-38-11.3-1.9-30.6-60.4c-0.5-1.6-14.2-13.3-18.7-28.5c-4.2-14.3,0.4-32.1,10.9-32.1C167.3,179.8,144.8,145.3,147.2,89.6z"/>
	<path class="st0" d="M196.4,327.7c41.5,29.2,42.6,40.9,53.9,41.5c12.3,0.7,26.4-19.5,56.4-42.2"/>
	<polyline class="st0" points="158.2,368 204.8,414.7 250.1,373.3 297.9,416.9 340,374.1 	"/>
	<path class="st1" d="M229.4,390.2c19.3,21.2,18.7,20.5,18.7,20.5L218.6,486h62.9l-24.2-75.2l16.4-18"/>
	<g>
		<path class="st2" d="M247.3,406.1c7.4,4.1,4,1.5,9.9,8.1c-9.3,3-4.7,2.3-13.6,2.5c-3-0.7-4.6-3.7-3.6-6.6
			C241.1,407.2,244.3,405.4,247.3,406.1z"/>
	</g>
	<g>
		<path class="st2" d="M159.7,367.4c1.6,3.4,1.2,1.6,1.2,5.5c-3.8,0-2.1,0.4-5-0.7c-1.3-1.1-1.5-3-0.5-4.3
			C156.4,366.5,158.3,366.3,159.7,367.4z"/>
	</g>
	<g>
		<path class="st3" d="M253.6,423.5c1,3.7,1.9,7.3,2.6,10.7c2.4,1.4,4.4,5.5,5.8,13.5l0.5,2.6c0.7,2.2,1.2,4.6,1.4,6.8
			c0.5,2.1,0.9,4.1,1.1,6.1c0.7,3.7,1.3,6.7,1.4,7.3c0.1,1.4-0.7,2.4-2.2,3.1c-0.1,0.1-0.1,0.3-0.2,0.4c-0.4,0.9-1.2,1.6-2.2,2.2
			c-0.6,1.2-1.4,1.6-2.4,0.9c-3.4,0.8-8.1,0.8-12.5,0.6c-2.4,4.4-5,5.7-7.2-0.4c-1-0.1-1.8-0.1-2.6-0.2c-1.9,0.4-3.7,0.8-5.4,1.4
			c-6,2.2,1.7-11.8,8.6-22.9c2.2-8.4,6-16.5,9.9-20c-0.8-3.9-1.4-7.1-1.9-8.8c-0.9-1.4-0.5-3.3,0.9-4.2
			C250.8,421.6,252.7,422,253.6,423.5L253.6,423.5z M254.2,456.2c-1.2,4.9-2.8,10.5-4.5,15.2c2.7-0.2,5.2-0.4,7.3-0.6
			C256.3,467.4,255.3,462,254.2,456.2L254.2,456.2z M248,475.7l-0.2,0.4c3.9-0.3,7.8-0.6,10.4-0.8c0-0.1-0.1-0.2-0.1-0.2
			c0,0,0-0.1-0.1-0.1C255,475.3,251.5,475.5,248,475.7L248,475.7z M239.7,476.7L239.7,476.7c-0.4,0-0.8,0-1.1,0.1L239.7,476.7
			L239.7,476.7z M238.8,472.9c-0.3-2.4-0.3-5-0.1-7.8c-1.8,3.2-3.3,6.2-4.5,8.9C235.7,473.5,237.2,473.2,238.8,472.9L238.8,472.9z
			 M255.8,434L255.8,434L255.8,434L255.8,434L255.8,434z M251.6,442.1c-1.6,2.9-3.3,5.9-5,8.9c-2.2,7.3-3.5,16-3.1,21l0.7-0.1
			c7.5-22.4-1.9,7,6.6-26.1c0.3-1.2,0.6-2.2,1-3L251.6,442.1L251.6,442.1z M230.8,475.1c-0.1,0-0.3,0.1-0.4,0.2
			C230.5,475.2,230.6,475.1,230.8,475.1L230.8,475.1z M245,476.2C245,476.2,245,476.3,245,476.2C245,476.3,245,476.2,245,476.2z"/>
	</g>
	<g>
		<path class="st4" d="M252.1,440.7c-0.2,0.8-0.4,1.7-0.7,2.5c-0.1,2.7,0.1,5.7,0.4,8.8c0.3,0.3,0.6,0.6,0.9,1v0l0,0.1
			c1.4,2,2.1,5.3,2.4,8.6l0,0c0.2-0.6,0.5-0.7,1.1-0.5c0,0,0.1,0.3,0.3,0.7l0.1,0l0,0.1c0.4,1.2,1.4,3.8,2.6,6.5
			c0.2-1.1,0.3-2.2,0.4-3.1C256.7,457.2,253.9,447.3,252.1,440.7L252.1,440.7z M241.7,463.6c-0.2,0-0.3,0-0.5-0.1
			c-0.3,0.5-0.5,0.9-0.8,1.4c1.1,0.5,1.9,1.7,2.3,3.7c0.1-0.3,0.2-0.6,0.3-0.9C242.3,466.5,241.8,465,241.7,463.6L241.7,463.6z
			 M238.5,451.1c0.9-11.4,4.9-27.2,9.7-26.7c-2-17.5,12.2-9.5,9.3,6c-0.3,1.6-0.6,3-0.9,4.2c1.8,7,4.2,15.2,6.3,22.4
			c0.6-0.3,1.5-0.1,2.7,0.7c0.4,0.3,3.4,6.4,5.3,12.4c2.4,3,2.9,5.1,1.5,6.6c0.3,3-0.2,5.2-2.4,5.3c-4.9,0.3-10.9-0.9-13.9-2.5
			c-5,2.3-12.2,1.8-20.4,1.3c-6.9-0.4-8.1-2.8-6.4-7c0.3-1.6,1.3-3.3,2.5-4.9c1.3-2.2,2.8-4.7,4.5-7.4
			C235.8,459.5,236.1,455.8,238.5,451.1L238.5,451.1z M262.2,474.9c0.4,0,0.7-0.1,1.1-0.1c-0.3-0.6-0.6-1.3-0.9-1.9
			c-0.2,0.5-0.4,0.9-0.6,1.3C262,474.4,262.1,474.6,262.2,474.9L262.2,474.9z M255.1,465.8c0.4-0.7,0.7-1.4,0.9-2.1
			c0.6,1.4,1.5,3.7,2.7,6.1c-1,2.9-3.1,5.5-8.7,5.6c-1.8,0-5.5,0.4-9.1,0.6c0.2-0.2,0.4-0.5,0.6-0.7c0.5-0.4,0.8-0.9,1.1-1.5
			c0.4-0.5,0.7-1.1,1-1.7c0.6,2.7,2.7,1.5,3.3-0.3c0.1-0.3,0.2-0.5,0.2-0.8c0.9,0.2,1.9,0.2,2.9-0.2c1.1,2,2,2.6,2.8,2.3
			c1,1.9,1.9,2,2.5-0.8c0.1-0.7,0-2.4-0.3-4.6C255,467.2,255.1,466.5,255.1,465.8L255.1,465.8z M249.1,469.2
			c-0.3-0.6-0.6-1.4-0.8-2.2c-0.2,0.8-0.5,1.6-0.7,2.5C248.1,469.5,248.6,469.4,249.1,469.2L249.1,469.2z M235.1,475.8
			c-0.4-0.2-0.7-0.3-1-0.5l-0.4,0.5c0.2,0.1,0.5,0.1,0.8,0.1C234.7,475.9,234.9,475.9,235.1,475.8L235.1,475.8z M236.6,471.2
			c0.7-1.2,1.4-2.3,2.1-3.5c1.3,0.4,2.4,1.2,2.8,2.3c-0.8,0.4-1.8,0.6-3.1,0.8C237.7,471,237.2,471.1,236.6,471.2L236.6,471.2z
			 M241.1,471.7c-1.5,0.6-3.3,1.1-5.3,1.6c0.7,0.5,1.7,1,2.5,1.1C239.4,473.7,240.3,472.8,241.1,471.7z"/>
	</g>
	<g>
		<path class="st5" d="M259.7,432c0.9,3.1,2.6,11.3,4.2,17.8c3,0,6.6,3.8,3.2,11c-0.7,1.6-1.5,2.4-2.3,2.5c-1.2,1.6-2.8,2.8-4.2,3.8
			c0.2,2.6-0.6,4.7-1.8,5.6c0,0.4,0,0.6,0,0.6c-1.5,2.6-2.6,2.3-3.4,0.8c-0.5,0.3-1,0.4-1.4,0.3c-0.5,0.4-1,0.7-1.5,0.9
			c-2.4,1.6-5.4,0.5-5.3-2.8l0,0c-1-3.6,2.9-5.2,4.6-3.6c0.4-0.6,0-0.4,0.8-0.8c0-0.1,0.1-0.2,0.1-0.3c-0.1-1.6-0.5-2.7,0.4-4.4
			c-0.6-3.2-1.2-6.9-1.8-10.3c-3.5,4.3-8.3,9.7-12.6,13.7c0.2,0.3,0.3,1,0.4,1.8l0,0l0.9,0c0,0.2,0,0.4,0,0.7c1.2,1.5,0.1,3.6-1,4.2
			c-0.1,0.4-0.2,0.7-0.3,0.9c0,0.1,0,0.1,0,0.2l-1.3,0.6c-0.2-0.2-0.4-0.5-0.5-0.9c-2,0.7-4.2,0.4-2.8-1c0.6-0.6,1.1-1,1.5-1.4
			c-0.1-0.6-0.2-1.3-0.3-2c-3.1,2.5-5.5,3.7-6.1,2.2c-0.8-2,4.4-9.3,6-12.5l0.3,0c0.3-1,0.7-1.7,1.3-1.7c1.2-0.1,1.6,0.6,1.6,1.6
			l0.1,0c0,0.8,0,1.6,0,2.4c4.3-4.3,9.2-9.1,12-13.8c-0.4-2.3-0.8-4-0.9-4.4c0.7,0.8,1.2,1.1,2.3,0.8c-5.9,0-0.6-8.5,2.7-8.3
			c-0.5-2.5-0.8-4-0.8-4c0-1.7,1.3-3.1,3-3.1C258.3,428.9,259.7,430.3,259.7,432L259.7,432z M256.3,444.5c-0.1,0.4-0.1,0.9-0.2,1.4
			c-0.1,0.4-0.4,1-0.9,1.9c1.1,4.3,2,9.7,2.6,14.5c1.6-1.4,2.5-2.5,3-3.4C259.1,455,257.5,449.5,256.3,444.5z"/>
	</g>
</g>
</svg>
