<?xml version="1.0" encoding="utf-8"?>
<!-- Generator: Adobe Illustrator 22.1.0, SVG Export Plug-In . SVG Version: 6.00 Build 0)  -->
<svg version="1.1" id="Capa_1" xmlns="http://www.w3.org/2000/svg" xmlns:xlink="http://www.w3.org/1999/xlink" x="0px" y="0px"
	 viewBox="0 0 500 500" style="enable-background:new 0 0 500 500;" xml:space="preserve">
<style type="text/css">
	.st0{fill-rule:evenodd;clip-rule:evenodd;fill:none;stroke:#6DB54D;stroke-width:15;stroke-miterlimit:22.9256;}
	.st1{fill-rule:evenodd;clip-rule:evenodd;fill:#6DB54D;}
</style>
<g>
	<path class="st0" d="M113,135.9h347c7.2,0,13.1,5.9,13.1,13.1l0,0c0,7.2-5.9,13.1-13.1,13.1H113c-7.2,0-13.1-5.9-13.1-13.1l0,0
		C99.9,141.8,105.8,135.9,113,135.9z"/>
	<path class="st0" d="M99.8,156.2c16.8,209.6-1.5,210,44.2,210.7c45.7,0.7,263.3,8.4,267.2-9.4l43.2-195.4"/>
	<g>
		<path class="st1" d="M297.4,279.4l0,6.2l-0.1,0l-0.1,0l-0.3,0l-0.5,0l-0.7,0l-0.9,0l-1.3,0l-1.6,0l-2,0l-2.5,0l-2.9,0l-3.5,0l-4,0
			l-4.7,0l-5.3,0l-6,0l-6.8,0l-7.6,0.1l-8.4,0.1l-9.3,0.1l-10.3,0.1l-11.2,0.1l-12.3,0.1l-13.3,0.1l-14.4,0.1l-15.6,0.1l-16.8,0.1
			l-18,0.1L97.6,287L77,287.1l-22,0.1l-0.1-12.4l22-0.1l20.7-0.1l19.3-0.1l18-0.1l16.8-0.1l15.6-0.1l14.4-0.1l13.3-0.1l12.3-0.1
			l11.2-0.1l10.3-0.1l9.3-0.1l8.4-0.1l7.6-0.1l6.8,0l6,0l5.3,0l4.7,0l4,0l3.5,0l2.9,0l2.4,0l2,0l1.6,0l1.2,0l0.9,0l0.7,0l0.4,0
			l0.3,0l0.1,0l0,0L297.4,279.4L297.4,279.4z M310.5,284.6l-6.8-10.4l0.1,10.4l-49.2-31.4l6.7-10.5l49.2,31.4L310.5,284.6z
			 M310.5,284.6l-0.1-10.4l8.1,5.2L310.5,284.6L310.5,284.6z M258.3,311.5l-3.4-5.2l48.8-32.1l6.8,10.4l-48.8,32.1L258.3,311.5z"/>
	</g>
	<path class="st0" d="M110.4,333.5c-4.2,77.9,62.3,82.5,62.3,82.5"/>
	
		<ellipse transform="matrix(0.9981 -6.232355e-02 6.232355e-02 0.9981 -25.8648 13.5427)" class="st0" cx="204.2" cy="421.4" rx="35" ry="35"/>
	<circle class="st0" cx="347.8" cy="421.2" r="35"/>
	<path class="st0" d="M239.2,421.4c73.6,0,73.6,0,73.6,0"/>
	<path class="st0" d="M99.8,156.2c2-96.5-37-97.8-37-97.8"/>
	
		<ellipse transform="matrix(0.9735 -0.2285 0.2285 0.9735 -12.7673 11.8776)" class="st0" cx="44.9" cy="61.1" rx="18.1" ry="18.1"/>
	<path class="st0" d="M130.9,188.4c0,21.9,0,21.9,0,21.9V188.4"/>
	<path class="st0" d="M167,188.4c0,21.9,0,21.9,0,21.9V188.4"/>
	<path class="st0" d="M203.7,188.4c0,21.9,0,21.9,0,21.9V188.4"/>
	<path class="st0" d="M239.8,188.4c0,21.9,0,21.9,0,21.9V188.4"/>
	<path class="st0" d="M274.8,188.4c0,21.9,0,21.9,0,21.9V188.4"/>
	<path class="st0" d="M311,188.4c0,21.9,0,21.9,0,21.9V188.4"/>
	<path class="st0" d="M346,188.4c0,21.9,0,21.9,0,21.9V188.4"/>
	<path class="st0" d="M382.1,188.4c0,21.9,0,21.9,0,21.9V188.4"/>
	<path class="st0" d="M418.8,188.4c0,21.9,0,21.9,0,21.9V188.4"/>
</g>
</svg>
