<?xml version="1.0" encoding="utf-8"?>
<!-- Generator: Adobe Illustrator 22.1.0, SVG Export Plug-In . SVG Version: 6.00 Build 0)  -->
<svg version="1.1" id="Capa_1" xmlns="http://www.w3.org/2000/svg" xmlns:xlink="http://www.w3.org/1999/xlink" x="0px" y="0px"
	 viewBox="0 0 500 500" style="enable-background:new 0 0 500 500;" xml:space="preserve">
<style type="text/css">
	.st0{fill-rule:evenodd;clip-rule:evenodd;fill:none;stroke:#FFFFFF;stroke-width:11.3386;stroke-miterlimit:22.9256;}
	.st1{fill-rule:evenodd;clip-rule:evenodd;fill:none;stroke:#FFFFFF;stroke-width:7.0866;stroke-miterlimit:22.9256;}
	.st2{fill-rule:evenodd;clip-rule:evenodd;fill:#FFFFFF;}
	.st3{fill-rule:evenodd;clip-rule:evenodd;fill:#FFFFFF;stroke:#FFFFFF;stroke-width:0.216;stroke-miterlimit:22.9256;}
</style>
<path class="st0" d="M130.9,6H370c16.5,0,30,13.5,30,30v427.4c0,16.5-13.5,30-30,30H130.9c-16.5,0-30-13.5-30-30V36
	C100.9,19.5,114.4,6,130.9,6z"/>
<path class="st0" d="M400,69.8c-299.2,0-299.2,0-299.2,0"/>
<path class="st1" d="M214.3,40.2c71.1,0,71.1,0,71.1,0"/>
<path class="st0" d="M100.9,415.5c299.2,0,299.2,0,299.2,0"/>
<g>
	<path class="st2" d="M209.6,287.6c-10-6.7-28.1-32.6-40.1-32.6c-14,0-17.5,11.9-17.5,22.6c0,7.3,42.1,45.8,49.5,53.3
		c27.5,27.5,32.6,32,80.8,32c70.4,0,60.2-51.2,60.2-110.3c0-16-7.3-24.7-18.4-21.1c-4.4,1.4-5,2.7-6.8,5.8
		c-2.9,5.1-2.4,14.2-2.4,22.8h-7.5c0-23.3,4.6-35.5-15-40.1c-14.5,7.7-12.5,8.8-12.5,30.1h-7.5c0-21.5,2-24.6-10-35.1
		c-17,4-17.5,4.4-17.5,35.1h-7.5c0-16.7,0-33.4,0-50.1c0-28,4.7-42.6-15-42.6c-18.4,0-12.5,39.1-12.5,57.7
		C209.6,239.1,209.6,263.3,209.6,287.6z"/>
	<path class="st2" d="M187.1,164.7c0,14.9-0.2,24.9,15,35.1c0-28.8-5-15.5-5-30.1c0-33.3,52.6-40.2,52.6,2.5c0,11.1-5,9-5,27.6
		c30.9-20.7,20.5-67.7-25.1-67.7C204.3,132.1,187.1,149.4,187.1,164.7z"/>
</g>
<circle class="st3" cx="250.5" cy="453.9" r="16.6"/>
<path class="st3" d="M186.1,48.5c4.7,0,8.6-3.9,8.6-8.6s-3.9-8.6-8.6-8.6c-4.7,0-8.6,3.9-8.6,8.6S181.3,48.5,186.1,48.5z"/>
<path class="st3" d="M134.5,113.7c3.2,0,5.9-2.6,5.9-5.9c0-3.2-2.6-5.9-5.9-5.9c-3.2,0-5.9,2.6-5.9,5.9
	C128.6,111,131.2,113.7,134.5,113.7z"/>
<path class="st3" d="M134.5,149c3.2,0,5.9-2.6,5.9-5.9c0-3.2-2.6-5.9-5.9-5.9c-3.2,0-5.9,2.6-5.9,5.9
	C128.6,146.4,131.2,149,134.5,149z"/>
<path class="st3" d="M134.5,254.6c3.2,0,5.9-2.6,5.9-5.9s-2.6-5.9-5.9-5.9c-3.2,0-5.9,2.6-5.9,5.9S131.2,254.6,134.5,254.6z"/>
<path class="st3" d="M134.5,287.3c3.2,0,5.9-2.6,5.9-5.9c0-3.2-2.6-5.9-5.9-5.9c-3.2,0-5.9,2.6-5.9,5.9
	C128.6,284.6,131.2,287.3,134.5,287.3z"/>
<path class="st3" d="M134.5,187.2c3.2,0,5.9-2.6,5.9-5.9c0-3.2-2.6-5.9-5.9-5.9c-3.2,0-5.9,2.6-5.9,5.9
	C128.6,184.6,131.2,187.2,134.5,187.2z"/>
<path class="st3" d="M134.5,221.7c3.2,0,5.9-2.6,5.9-5.9c0-3.2-2.6-5.9-5.9-5.9c-3.2,0-5.9,2.6-5.9,5.9
	C128.6,219,131.2,221.7,134.5,221.7z"/>
<path class="st3" d="M134.5,351.3c3.2,0,5.9-2.6,5.9-5.9s-2.6-5.9-5.9-5.9c-3.2,0-5.9,2.6-5.9,5.9S131.2,351.3,134.5,351.3z"/>
<path class="st3" d="M134.5,384.9c3.2,0,5.9-2.6,5.9-5.9c0-3.2-2.6-5.9-5.9-5.9c-3.2,0-5.9,2.6-5.9,5.9
	C128.6,382.2,131.2,384.9,134.5,384.9z"/>
<path class="st3" d="M134.5,320.2c3.2,0,5.9-2.6,5.9-5.9c0-3.2-2.6-5.9-5.9-5.9c-3.2,0-5.9,2.6-5.9,5.9
	C128.6,317.5,131.2,320.2,134.5,320.2z"/>
</svg>
