<?xml version="1.0" encoding="utf-8"?>
<!-- Generator: Adobe Illustrator 22.1.0, SVG Export Plug-In . SVG Version: 6.00 Build 0)  -->
<svg version="1.1" id="Capa_1" xmlns="http://www.w3.org/2000/svg" xmlns:xlink="http://www.w3.org/1999/xlink" x="0px" y="0px"
	 viewBox="0 0 500 500" style="enable-background:new 0 0 500 500;" xml:space="preserve">
<style type="text/css">
	.st0{fill-rule:evenodd;clip-rule:evenodd;fill:#FFFFFF;}
	.st1{fill-rule:evenodd;clip-rule:evenodd;fill:#FFFFFF;stroke:#FFFFFF;stroke-width:0.5669;stroke-miterlimit:22.9256;}
</style>
<g>
	<path class="st0" d="M164.4,18.9h170.8c21,0,38.1,17.3,38.1,38.4v206.1c0,21.1-17.1,38.4-38.1,38.4H164.4
		c-21,0-38.1-17.3-38.1-38.4V57.3C126.3,36.2,143.5,18.9,164.4,18.9L164.4,18.9z M183.7,39.1v245.6h32.6V39.1H183.7z"/>
	<path class="st1" d="M33.7,104.3h433.6c14.1,0,25.7,11.6,25.7,25.7v250.3c0,14.1-11.6,25.7-25.7,25.7H33.7
		C19.6,406,8,394.4,8,380.3V130C8,115.9,19.6,104.3,33.7,104.3L33.7,104.3z M33.1,125.9c-2.8,0-5.1,2.3-5.1,5.1v223.8
		c0,2.8,2.3,5.1,5.1,5.1h430.2c2.8,0,5.1-2.3,5.1-5.1V131c0-2.8-2.3-5.1-5.1-5.1H33.1z"/>
	<path class="st1" d="M121.2,265.8H378c9.9,0,18,8.1,18,18l0,0c0,9.9-8.1,18-18,18H121.2c-9.9,0-18-8.1-18-18l0,0
		C103.2,273.9,111.3,265.8,121.2,265.8z"/>
	<g>
		<path class="st1" d="M155.7,465.6h189.5c4.4,0,8,3.6,8,8v0c0,4.4-3.6,8-8,8H155.7c-4.4,0-8-3.6-8-8v0
			C147.7,469.2,151.3,465.6,155.7,465.6z"/>
		<polygon class="st1" points="184.2,429.2 316.8,429.2 326.4,476.1 177.3,475.7 		"/>
	</g>
</g>
</svg>
