<?xml version="1.0" encoding="utf-8"?>
<!-- Generator: Adobe Illustrator 22.1.0, SVG Export Plug-In . SVG Version: 6.00 Build 0)  -->
<svg version="1.1" id="Capa_1" xmlns="http://www.w3.org/2000/svg" xmlns:xlink="http://www.w3.org/1999/xlink" x="0px" y="0px"
	 viewBox="0 0 500 500" style="enable-background:new 0 0 500 500;" xml:space="preserve">
<style type="text/css">
	.st0{fill:none;stroke:#FFFFFF;stroke-width:14.1732;stroke-miterlimit:22.9256;}
	.st1{fill-rule:evenodd;clip-rule:evenodd;fill:#FFFFFF;stroke:#FFFFFF;stroke-width:0.216;stroke-miterlimit:22.9256;}
	.st2{fill-rule:evenodd;clip-rule:evenodd;fill:none;stroke:#FFFFFF;stroke-width:14.1732;stroke-miterlimit:22.9256;}
</style>
<g>
	<path class="st0" d="M98.9,9c-2,488.1-2,482.2-2,482.2"/>
	<path class="st0" d="M401.2,479.3l1-461.4c0-9.2-2.4-6.6-240.1-4.9"/>
	<path class="st0" d="M166.1,80.1c169.9,0,169.9,0,169.9,0"/>
	<path class="st0" d="M166.1,128.6c169.9,0,169.9,0,169.9,0"/>
	<path class="st1" d="M257.2,371.5v11.6h-35.4V371c-17.5-4.4-26.3-14.5-26.3-30.1v-40.3h35.4v40.6c0,4,2.4,6.1,7.1,6.1
		c4.5,0,6.8-2,6.8-6.1v-21c0-4.5-1.6-8.9-5-13.4c-3.3-4.5-13.8-15.5-31.6-33c-8.5-9.6-12.7-18.5-12.7-26.6v-19.9
		c0-18.1,8.8-29,26.3-32.7v-12.1h35.4v12.1c15.3,3.8,23,13.7,23,29.5v30.6h-35.4v-32.6c0-3.5-1.9-5.3-5.6-5.3
		c-4.3,0-6.5,3.5-6.5,10.3l0.7,11.5c0,6.5,4.3,14.2,13,23.2c17.5,17.4,28.1,29,31.8,34.5c3.7,5.6,5.5,11.9,5.5,18.8v22.5
		C283.7,356.6,274.9,367.9,257.2,371.5z"/>
	<path class="st2" d="M285.1,442.7c41.5,41.5,41.5,41.5,41.5,41.5"/>
	<path class="st2" d="M209.1,448.7c41.5,41.5,41.5,41.5,41.5,41.5"/>
	<path class="st2" d="M135,447.7c41.5,41.5,41.5,41.5,41.5,41.5"/>
</g>
</svg>
