<?xml version="1.0" encoding="utf-8"?>
<!-- Generator: Adobe Illustrator 22.1.0, SVG Export Plug-In . SVG Version: 6.00 Build 0)  -->
<svg version="1.1" id="Capa_1" xmlns="http://www.w3.org/2000/svg" xmlns:xlink="http://www.w3.org/1999/xlink" x="0px" y="0px"
	 viewBox="0 0 500 500" style="enable-background:new 0 0 500 500;" xml:space="preserve">
<style type="text/css">
	.st0{fill-rule:evenodd;clip-rule:evenodd;fill:#FFFFFF;}
</style>
<path class="st0" d="M63,9.3h244.7l129.1,129.1v351.7H63V9.3L63,9.3z M150.9,320.8l39.6-41.3c2.8,1.1,5.9,1.8,9.1,1.8
	c0.3,0,0.7,0,1,0l59.3,61.7c-0.8,2.4-1.3,5-1.3,7.7c0,13.2,10.7,23.9,23.9,23.9c13.2,0,23.9-10.7,23.9-23.9c0-3.6-0.8-7.1-2.3-10.2
	l56.4-58.7c2.6,1,5.4,1.5,8.4,1.5c13.2,0,23.9-10.7,23.9-23.9c0-13.2-10.7-23.9-23.9-23.9c-13.2,0-23.9,10.7-23.9,23.9
	c0,3.3,0.7,6.4,1.9,9.3l-56.9,59.3c-2.3-0.8-4.8-1.2-7.4-1.2c-3.5,0-6.9,0.8-9.9,2.1l-54.3-56.6c3.3-4.1,5.2-9.3,5.2-14.9
	c0-13.2-10.7-23.9-23.9-23.9c-13.2,0-23.9,10.7-23.9,23.9c0,3,0.6,5.9,1.6,8.5l-39.9,41.5c-2.7-1-5.6-1.6-8.7-1.6
	c-13.2,0-23.9,10.7-23.9,23.9c0,13.2,10.7,23.9,23.9,23.9s23.9-10.7,23.9-23.9C152.7,326.6,152.1,323.6,150.9,320.8L150.9,320.8z
	 M306,38.6l-1.5,106.7h108.1C412.6,145.2,412.6,145.2,306,38.6z"/>
</svg>
