<?xml version="1.0" encoding="utf-8"?>
<!-- Generator: Adobe Illustrator 22.1.0, SVG Export Plug-In . SVG Version: 6.00 Build 0)  -->
<svg version="1.1" id="Capa_1" xmlns="http://www.w3.org/2000/svg" xmlns:xlink="http://www.w3.org/1999/xlink" x="0px" y="0px"
	 viewBox="0 0 451 451" style="enable-background:new 0 0 451 451;" xml:space="preserve">
<style type="text/css">
	.st0{fill:#C10000;}
</style>
<g>
	<path class="st0" d="M225.5,167.4l138-134.6c5-5,10.1-6.7,16.8-6.7h47.1c10.1,0,18.5,5,21.9,15.1c3.4,8.4,1.7,16.8-5,23.6
		L282.7,226.3l161.6,159.9c6.7,6.7,8.4,16.8,5,25.2c-3.4,8.4-11.8,13.5-21.9,13.5h-48.8c-6.7,0-11.8-1.7-16.8-6.7L225.5,283.6
		l-138,136.3c-5,3.4-10.1,5-16.8,5H23.6c-10.1,0-18.5-5-21.9-13.5c-3.4-8.4-1.7-18.5,5-25.2l161.6-159.9L6.7,64.8
		c-6.7-6.7-8.4-15.1-5-23.6C5,31.1,13.5,26.1,23.6,26.1h48.8c6.7,0,11.8,1.7,16.8,6.7L225.5,167.4z"/>
</g>
</svg>
