<?xml version="1.0" encoding="utf-8"?>
<!-- Generator: Adobe Illustrator 22.1.0, SVG Export Plug-In . SVG Version: 6.00 Build 0)  -->
<svg version="1.1" id="Capa_1" xmlns="http://www.w3.org/2000/svg" xmlns:xlink="http://www.w3.org/1999/xlink" x="0px" y="0px"
	 viewBox="0 0 77.9 77.9" style="enable-background:new 0 0 77.9 77.9;" xml:space="preserve">
<style type="text/css">
	.st0{fill:none;stroke:#091B26;stroke-miterlimit:10;}
</style>
<g>
	<path class="st0" d="M53.8,24.1c0,8.2-6.6,14.8-14.8,14.8s-14.8-6.6-14.8-14.8S39,0.7,39,0.7S53.8,15.9,53.8,24.1z"/>
	<path class="st0" d="M59.9,38.9c-5.8,5.8-15.2,5.8-21,0s-5.8-15.2,0-21s27-6.1,27-6.1S65.7,33.2,59.9,38.9z"/>
	<path class="st0" d="M53.8,53.8C45.6,53.8,39,47.2,39,39s6.6-14.8,14.8-14.8S77.2,39,77.2,39S62,53.8,53.8,53.8z"/>
	<path class="st0" d="M38.9,59.9c-5.8-5.8-5.8-15.2,0-21s15.2-5.8,21,0s6.1,27,6.1,27S44.7,65.7,38.9,59.9z"/>
	<path class="st0" d="M24.1,53.8c0-8.2,6.6-14.8,14.8-14.8s14.8,6.6,14.8,14.8S38.9,77.2,38.9,77.2S24.1,62,24.1,53.8z"/>
	<path class="st0" d="M18,38.9c5.8-5.8,15.2-5.8,21,0s5.8,15.2,0,21S12,66,12,66S12.2,44.7,18,38.9z"/>
	<path class="st0" d="M24.1,24.1c8.2,0,14.8,6.6,14.8,14.8s-6.6,14.8-14.8,14.8S0.7,38.9,0.7,38.9S15.9,24.1,24.1,24.1z"/>
	<path class="st0" d="M38.9,18c5.8,5.8,5.8,15.2,0,21s-15.2,5.8-21,0s-6.1-27-6.1-27S33.2,12.2,38.9,18z"/>
</g>
</svg>
