<?xml version="1.0" encoding="utf-8"?>
<!-- Generator: Adobe Illustrator 22.1.0, SVG Export Plug-In . SVG Version: 6.00 Build 0)  -->
<svg version="1.1" id="Capa_1" xmlns="http://www.w3.org/2000/svg" xmlns:xlink="http://www.w3.org/1999/xlink" x="0px" y="0px"
	 viewBox="0 0 77.9 77.9" style="enable-background:new 0 0 77.9 77.9;" xml:space="preserve">
<style type="text/css">
	.st0{fill:none;stroke:#091b26;stroke-miterlimit:10;}
</style>
<g>
	<path class="st0" d="M57.1,45.4c0,10-8.1,18.1-18.1,18.1c-10,0-18.1-8.1-18.1-18.1c0-10,18.1-28.5,18.1-28.5S57.1,35.4,57.1,45.4z"
		/>
	<path class="st0" d="M57.1,45.4c0,10-8.1,18.1-18.1,18.1c-10,0-18.1-8.1-18.1-18.1c0-10,18.1-28.5,18.1-28.5S57.1,35.4,57.1,45.4z"
		/>
	<path class="st0" d="M57.1,45.4c0,10-8.1,18.1-18.1,18.1c-10,0-18.1-8.1-18.1-18.1c0-10,18.1-28.5,18.1-28.5S57.1,35.4,57.1,45.4z"
		/>
	<path class="st0" d="M57.1,45.4c0,10-8.1,18.1-18.1,18.1c-10,0-18.1-8.1-18.1-18.1c0-10,18.1-28.5,18.1-28.5S57.1,35.4,57.1,45.4z"
		/>
	<path class="st0" d="M64.6,63.4c-7,7-18.5,7-25.5,0c-7-7-7-18.5,0-25.5c7-7,32.9-7.4,32.9-7.4S71.7,56.4,64.6,63.4z"/>
	<path class="st0" d="M39.1,37.9c7,7,7,18.5,0,25.5c-7,7-18.5,7-25.5,0c-7-7-7.4-32.9-7.4-32.9S32.1,30.9,39.1,37.9z"/>
	<path class="st0" d="M44.4,18.5c0.1,2.9-2.2,5.3-5.1,5.4c-2.9,0.1-5.3-2.2-5.4-5.1C33.8,15.8,39,9.9,39,9.9S44.3,15.6,44.4,18.5z"
		/>
	<path class="st0" d="M74.6,35.4c-2,2.1-5.3,2.2-7.4,0.1c-2.1-2-2.2-5.3-0.1-7.4c2-2.1,9.8-2.6,9.8-2.6S76.6,33.3,74.6,35.4z"/>
	<path class="st0" d="M11.1,27.9c2.1,2,2.2,5.3,0.1,7.4c-2,2.1-5.3,2.2-7.4,0.1c-2.1-2-2.6-9.8-2.6-9.8S9,25.9,11.1,27.9z"/>
	<path class="st0" d="M17.4,31.3c0,0-11.2,11.1-8.9,20.4"/>
	<path class="st0" d="M60.8,31.3c0,0,11.2,11.1,8.9,20.4"/>
</g>
</svg>
