<?xml version="1.0" encoding="utf-8"?>
<!-- Generator: Adobe Illustrator 22.1.0, SVG Export Plug-In . SVG Version: 6.00 Build 0)  -->
<svg version="1.1" id="Capa_1" xmlns="http://www.w3.org/2000/svg" xmlns:xlink="http://www.w3.org/1999/xlink" x="0px" y="0px"
	 viewBox="0 0 77.9 77.9" style="enable-background:new 0 0 77.9 77.9;" xml:space="preserve">
<style type="text/css">
	.st0{fill:none;stroke:#091b26;stroke-miterlimit:10;}
	.st1{fill:#E3F1FF;}
</style>
<g>
	<g>
		<path class="st0" d="M58,20.1c0,10.6-19.2,19.1-19.2,19.1s-19.1-8.6-19.1-19.1c0-10.6,8.6-19.1,19.1-19.1C49.5,0.9,58,9.5,58,20.1
			z"/>
		<path class="st0" d="M66,39.2c-7.5,7.5-27.1,0-27.1,0s-7.5-19.6,0-27.1c7.5-7.5,19.6-7.5,27.1,0C73.5,19.6,73.5,31.8,66,39.2z"/>
		<path class="st0" d="M58,58.4c-10.6,0-19.2-19.2-19.2-19.2S47.5,20.1,58,20.1c10.6,0,19.2,8.6,19.2,19.1
			C77.2,49.8,68.6,58.4,58,58.4z"/>
		<path class="st0" d="M38.9,66.3c-7.5-7.5,0-27.1,0-27.1s19.6-7.5,27.1,0c7.5,7.5,7.5,19.6,0,27.1C58.5,73.8,46.4,73.8,38.9,66.3z"
			/>
		<path class="st0" d="M19.7,58.4c0-10.6,19.1-19.1,19.1-19.1S58,47.8,58,58.4c0,10.6-8.6,19.2-19.2,19.2
			C28.3,77.5,19.7,69,19.7,58.4z"/>
		<path class="st0" d="M11.8,39.2c7.5-7.5,27.1,0,27.1,0s7.5,19.6,0,27.1c-7.5,7.5-19.6,7.5-27.1,0C4.3,58.9,4.3,46.7,11.8,39.2z"/>
		<path class="st0" d="M19.7,20.1c10.6,0,19.1,19.1,19.1,19.1s-8.6,19.2-19.1,19.2c-10.6,0-19.2-8.6-19.2-19.2
			C0.6,28.7,9.2,20.1,19.7,20.1z"/>
		<path class="st0" d="M38.9,12.2c7.5,7.5,0,27.1,0,27.1s-19.6,7.5-27.1,0c-7.5-7.5-7.5-19.6,0-27.1C19.3,4.7,31.4,4.7,38.9,12.2z"
			/>
	</g>
	<path class="st1" d="M47.2,39.2c0,4.6-3.7,8.3-8.3,8.3c-4.6,0-8.3-3.7-8.3-8.3c0-4.6,3.7-8.3,8.3-8.3
		C43.5,30.9,47.2,34.7,47.2,39.2z"/>
	<path class="st0" d="M45,39.2c0,3.3-2.7,6.1-6.1,6.1c-3.3,0-6.1-2.7-6.1-6.1c0-3.3,2.7-6.1,6.1-6.1C42.2,33.2,45,35.9,45,39.2z"/>
</g>
</svg>
