<?xml version="1.0" encoding="utf-8"?>
<!-- Generator: Adobe Illustrator 22.1.0, SVG Export Plug-In . SVG Version: 6.00 Build 0)  -->
<svg version="1.1" id="Capa_1" xmlns="http://www.w3.org/2000/svg" xmlns:xlink="http://www.w3.org/1999/xlink" x="0px" y="0px"
	 viewBox="0 0 77.9 77.9" style="enable-background:new 0 0 77.9 77.9;" xml:space="preserve">
<style type="text/css">
	.st0{fill:none;stroke:#091b26;stroke-miterlimit:10;}
</style>
<g>
	<path class="st0" d="M25.8,8.1c0,0,2,12.4,13.2,12.4c11.2,0,13.2-12.4,13.2-12.4"/>
	<path class="st0" d="M31.9,2.6c0,0,1.1,6.7,7.1,6.7c6,0,7.1-6.7,7.1-6.7"/>
	<path class="st0" d="M70.1,26.1c0,0-12.4,2-12.4,13.2c0,11.2,12.4,13.2,12.4,13.2"/>
	<path class="st0" d="M75.6,32.1c0,0-6.7,1.1-6.7,7.1c0,6,6.7,7.1,6.7,7.1"/>
	<path class="st0" d="M52.2,70.4c0,0-2-12.4-13.2-12.4c-11.2,0-13.2,12.4-13.2,12.4"/>
	<path class="st0" d="M46.1,75.9c0,0-1.1-6.7-7.1-6.7c-6,0-7.1,6.7-7.1,6.7"/>
	<path class="st0" d="M7.9,52.4c0,0,12.4-2,12.4-13.2c0-11.2-12.4-13.2-12.4-13.2"/>
	<path class="st0" d="M2.4,46.4c0,0,6.7-1.1,6.7-7.1c0-6-6.7-7.1-6.7-7.1"/>
	<g>
		<path class="st0" d="M56,20.2c0,10.5-17,19-17,19s-17-8.5-17-19c0-10.5,7.6-19,17-19C48.4,1.2,56,9.7,56,20.2z"/>
		<path class="st0" d="M58,56.3c-10.5,0-19-17-19-17s8.5-17,19-17s19,7.6,19,17C77.1,48.7,68.5,56.3,58,56.3z"/>
		<path class="st0" d="M22,58.3c0-10.5,17-19,17-19s17,8.5,17,19c0,10.5-7.6,19-17,19C29.6,77.3,22,68.8,22,58.3z"/>
		<path class="st0" d="M20,22.2c10.5,0,19,17,19,17s-8.5,17-19,17c-10.5,0-19-7.6-19-17C0.9,29.8,9.5,22.2,20,22.2z"/>
	</g>
	
		<rect x="30.3" y="30.5" transform="matrix(0.7071 -0.7071 0.7071 0.7071 -16.3318 39.0735)" class="st0" width="17.5" height="17.5"/>
</g>
</svg>
