<?xml version="1.0" encoding="utf-8"?>
<!-- Generator: Adobe Illustrator 22.1.0, SVG Export Plug-In . SVG Version: 6.00 Build 0)  -->
<svg version="1.1" id="Capa_1" xmlns="http://www.w3.org/2000/svg" xmlns:xlink="http://www.w3.org/1999/xlink" x="0px" y="0px"
	 viewBox="0 0 77.9 77.9" style="enable-background:new 0 0 77.9 77.9;" xml:space="preserve">
<style type="text/css">
	.st0{fill:none;stroke:#091b26;stroke-miterlimit:10;}
</style>
<g>
	<g>
		<path class="st0" d="M49.1,34.9c-1.6,1.6-4.1,1.6-5.7,0c-1.6-1.6-1.6-4.1,0-5.7c1.6-1.6,7.3-1.6,7.3-1.6S50.7,33.3,49.1,34.9z"/>
		<path class="st0" d="M43,49.1c-1.6-1.6-1.6-4.1,0-5.7c1.6-1.6,4.1-1.6,5.7,0c1.6,1.6,1.6,7.3,1.6,7.3S44.6,50.7,43,49.1z"/>
		<path class="st0" d="M28.8,43c1.6-1.6,4.1-1.6,5.7,0c1.6,1.6,1.6,4.1,0,5.7c-1.6,1.6-7.3,1.6-7.3,1.6S27.2,44.6,28.8,43z"/>
		<path class="st0" d="M34.9,28.8c1.6,1.6,1.6,4.1,0,5.7c-1.6,1.6-4.1,1.6-5.7,0c-1.6-1.6-1.6-7.3-1.6-7.3S33.3,27.2,34.9,28.8z"/>
	</g>
	<g>
		<path class="st0" d="M54.7,32.7c-2.4,2.4-6.3,2.4-8.8,0c-2.4-2.4-2.4-6.3,0-8.8c2.4-2.4,11.3-2.5,11.3-2.5S57.1,30.2,54.7,32.7z"
			/>
		<path class="st0" d="M45.2,54.7c-2.4-2.4-2.4-6.3,0-8.8c2.4-2.4,6.3-2.4,8.8,0c2.4,2.4,2.5,11.3,2.5,11.3S47.7,57.1,45.2,54.7z"/>
		<path class="st0" d="M23.2,45.2c2.4-2.4,6.3-2.4,8.8,0c2.4,2.4,2.4,6.3,0,8.8c-2.4,2.4-11.3,2.5-11.3,2.5S20.8,47.7,23.2,45.2z"/>
		<path class="st0" d="M32.7,23.2c2.4,2.4,2.4,6.3,0,8.8c-2.4,2.4-6.3,2.4-8.8,0c-2.4-2.4-2.5-11.3-2.5-11.3S30.2,20.8,32.7,23.2z"
			/>
	</g>
	<line class="st0" x1="38.4" y1="17.9" x2="38.4" y2="59.9"/>
	<line class="st0" x1="58.9" y1="39.4" x2="17.9" y2="39.4"/>
	<g>
		<path class="st0" d="M43.9,6.3c-2-3-4.7-5.8-4.7-5.8s-2.7,2.8-4.7,5.8C30.9,5.6,27,5.5,27,5.5s0.1,9.6,2.7,12.2
			c2.6,2.6,6.8,2.6,9.4,0c2.6,2.6,6.8,2.6,9.4,0c2.6-2.6,2.7-12.2,2.7-12.2S47.4,5.6,43.9,6.3z"/>
		<path class="st0" d="M34.5,6.3c0,0,4.7,1.8,4.7,11.4"/>
		<path class="st0" d="M43.9,6.3c0,0-4.7,1.8-4.7,11.4"/>
	</g>
	<g>
		<path class="st0" d="M71.6,43.9c3-2,5.8-4.7,5.8-4.7s-2.8-2.8-5.8-4.7c0.7-3.5,0.8-7.4,0.8-7.4s-9.6,0.1-12.2,2.7
			c-2.6,2.6-2.6,6.8,0,9.4c-2.6,2.6-2.6,6.8,0,9.4c2.6,2.6,12.2,2.7,12.2,2.7S72.3,47.4,71.6,43.9z"/>
		<path class="st0" d="M71.6,34.5c0,0-1.8,4.7-11.4,4.7"/>
		<path class="st0" d="M71.6,43.9c0,0-1.8-4.7-11.4-4.7"/>
	</g>
	<g>
		<path class="st0" d="M34,71.6c2,3,4.7,5.8,4.7,5.8s2.7-2.8,4.7-5.8c3.5,0.7,7.4,0.8,7.4,0.8s-0.1-9.6-2.7-12.2
			c-2.6-2.6-6.8-2.6-9.4,0c-2.6-2.6-6.8-2.6-9.4,0c-2.6,2.6-2.7,12.2-2.7,12.2S30.5,72.3,34,71.6z"/>
		<path class="st0" d="M43.4,71.6c0,0-4.7-1.8-4.7-11.4"/>
		<path class="st0" d="M34,71.6c0,0,4.7-1.8,4.7-11.4"/>
	</g>
	<g>
		<path class="st0" d="M6.3,34.1c-3,2-5.8,4.7-5.8,4.7s2.8,2.7,5.8,4.7C5.6,47.1,5.6,51,5.6,51s9.6-0.2,12.2-2.8
			c2.6-2.6,2.6-6.8,0-9.4c2.6-2.6,2.6-6.8,0-9.4C15,26.8,5.5,26.7,5.5,26.7S5.5,30.6,6.3,34.1z"/>
		<path class="st0" d="M6.3,43.6c0,0,1.8-4.7,11.4-4.8"/>
		<path class="st0" d="M6.3,34.1c0,0,1.8,4.7,11.4,4.7"/>
	</g>
</g>
</svg>
