<?xml version="1.0" encoding="utf-8"?>
<!-- Generator: Adobe Illustrator 22.1.0, SVG Export Plug-In . SVG Version: 6.00 Build 0)  -->
<svg version="1.1" id="Capa_1" xmlns="http://www.w3.org/2000/svg" xmlns:xlink="http://www.w3.org/1999/xlink" x="0px" y="0px"
	 viewBox="0 0 77.9 77.9" style="enable-background:new 0 0 77.9 77.9;" xml:space="preserve">
<style type="text/css">
	.st0{fill:none;stroke:#091b26;stroke-miterlimit:10;}
	.st1{fill:none;stroke:#091b26;stroke-linecap:square;stroke-linejoin:bevel;stroke-miterlimit:10;}
</style>
<g>
	<g>
		<path class="st0" d="M22.4,20.6c0,1.3-1.1,2.4-2.4,2.4c-1.3,0-2.4-1.1-2.4-2.4c0-1.3,1.1-2.4,2.4-2.4
			C21.3,18.2,22.4,19.2,22.4,20.6z"/>
		<path class="st0" d="M60.4,20.6c0,1.3-1.1,2.4-2.4,2.4c-1.3,0-2.4-1.1-2.4-2.4c0-1.3,1.1-2.4,2.4-2.4
			C59.3,18.2,60.4,19.2,60.4,20.6z"/>
	</g>
	<g>
		<path class="st0" d="M22.4,57.7c0,1.3-1.1,2.4-2.4,2.4c-1.3,0-2.4-1.1-2.4-2.4c0-1.3,1.1-2.4,2.4-2.4
			C21.3,55.3,22.4,56.4,22.4,57.7z"/>
		<path class="st0" d="M60.4,57.7c0,1.3-1.1,2.4-2.4,2.4c-1.3,0-2.4-1.1-2.4-2.4c0-1.3,1.1-2.4,2.4-2.4
			C59.3,55.3,60.4,56.4,60.4,57.7z"/>
	</g>
	<g>
		<line class="st1" x1="33.1" y1="7.7" x2="38.8" y2="13.1"/>
		<line class="st1" x1="30.1" y1="11.5" x2="38.8" y2="19.8"/>
		<line class="st1" x1="27.6" y1="15.1" x2="38.8" y2="25.7"/>
		<line class="st1" x1="44.4" y1="7.7" x2="38.8" y2="13.1"/>
		<line class="st1" x1="47.4" y1="11.5" x2="38.8" y2="19.8"/>
		<line class="st1" x1="49.9" y1="15.1" x2="38.8" y2="25.7"/>
	</g>
	<g>
		<line class="st1" x1="70.3" y1="33.1" x2="64.9" y2="38.8"/>
		<line class="st1" x1="66.5" y1="30.1" x2="58.1" y2="38.8"/>
		<line class="st1" x1="62.9" y1="27.6" x2="52.2" y2="38.8"/>
		<line class="st1" x1="70.3" y1="44.4" x2="64.9" y2="38.8"/>
		<line class="st1" x1="66.5" y1="47.4" x2="58.1" y2="38.8"/>
		<line class="st1" x1="62.9" y1="49.9" x2="52.2" y2="38.8"/>
	</g>
	<g>
		<line class="st1" x1="44.9" y1="70.3" x2="39.2" y2="64.8"/>
		<line class="st1" x1="47.9" y1="66.5" x2="39.2" y2="58"/>
		<line class="st1" x1="50.4" y1="62.8" x2="39.2" y2="52.1"/>
		<line class="st1" x1="33.6" y1="70.3" x2="39.2" y2="64.8"/>
		<line class="st1" x1="30.6" y1="66.5" x2="39.2" y2="58"/>
		<line class="st1" x1="28.1" y1="62.8" x2="39.2" y2="52.1"/>
	</g>
	<g>
		<line class="st1" x1="7.7" y1="44.9" x2="13.1" y2="39.2"/>
		<line class="st1" x1="11.5" y1="47.9" x2="19.8" y2="39.2"/>
		<line class="st1" x1="15.1" y1="50.4" x2="25.7" y2="39.2"/>
		<line class="st1" x1="7.7" y1="33.6" x2="13.1" y2="39.2"/>
		<line class="st1" x1="11.5" y1="30.6" x2="19.8" y2="39.2"/>
		<line class="st1" x1="15.1" y1="28.1" x2="25.7" y2="39.2"/>
	</g>
	<path class="st1" d="M53.8,24.2C53.8,32.4,47.2,39,39,39c-8.2,0-14.8-6.6-14.8-14.8C24.2,16.1,39,0.9,39,0.9S53.8,16.1,53.8,24.2z"
		/>
	<path class="st1" d="M53.8,53.8C45.6,53.8,39,47.2,39,39s6.6-14.8,14.8-14.8c8.2,0,23.3,14.8,23.3,14.8S61.9,53.8,53.8,53.8z"/>
	<path class="st1" d="M24.2,53.8C24.2,45.6,30.8,39,39,39c8.2,0,14.8,6.6,14.8,14.8c0,8.2-14.8,23.3-14.8,23.3S24.2,61.9,24.2,53.8z
		"/>
	<path class="st1" d="M24.2,24.2C32.4,24.2,39,30.8,39,39s-6.6,14.8-14.8,14.8C16.1,53.8,0.9,39,0.9,39S16.1,24.2,24.2,24.2z"/>
	<path class="st0" d="M51.8,39c0,7.1-5.7,12.8-12.8,12.8c-7.1,0-12.8-5.7-12.8-12.8S31.9,26.2,39,26.2C46.1,26.2,51.8,31.9,51.8,39z
		"/>
</g>
</svg>
