<?xml version="1.0" encoding="utf-8"?>
<!-- Generator: Adobe Illustrator 22.1.0, SVG Export Plug-In . SVG Version: 6.00 Build 0)  -->
<svg version="1.1" id="Capa_1" xmlns="http://www.w3.org/2000/svg" xmlns:xlink="http://www.w3.org/1999/xlink" x="0px" y="0px"
	 viewBox="0 0 77.9 77.9" style="enable-background:new 0 0 77.9 77.9;" xml:space="preserve">
<style type="text/css">
	.st0{fill:none;stroke:#091b26;stroke-miterlimit:10;}
</style>
<g>
	<path class="st0" d="M53.8,24.2C53.8,32.4,47.2,39,39,39c-8.2,0-14.8-6.6-14.8-14.8C24.2,16,39,0.8,39,0.8S53.8,16,53.8,24.2z"/>
	<path class="st0" d="M60,39c-5.8,5.8-15.2,5.8-21,0c-5.8-5.8-5.8-15.2,0-21c5.8-5.8,27-6.1,27-6.1S65.8,33.2,60,39z"/>
	<path class="st0" d="M53.8,53.8C45.6,53.8,39,47.2,39,39c0-8.2,6.6-14.8,14.8-14.8S77.2,39,77.2,39S62,53.8,53.8,53.8z"/>
	<path class="st0" d="M39,60c-5.8-5.8-5.8-15.2,0-21c5.8-5.8,15.2-5.8,21,0c5.8,5.8,6.1,27,6.1,27S44.8,65.8,39,60z"/>
	<path class="st0" d="M24.2,53.8C24.2,45.6,30.8,39,39,39c8.2,0,14.8,6.6,14.8,14.8C53.8,62,39,77.2,39,77.2S24.2,62,24.2,53.8z"/>
	<path class="st0" d="M18,39c5.8-5.8,15.2-5.8,21,0c5.8,5.8,5.8,15.2,0,21C33.2,65.8,12,66,12,66S12.2,44.8,18,39z"/>
	<path class="st0" d="M24.2,24.2C32.4,24.2,39,30.8,39,39c0,8.2-6.6,14.8-14.8,14.8C16,53.8,0.8,39,0.8,39S16,24.2,24.2,24.2z"/>
	<path class="st0" d="M39,18c5.8,5.8,5.8,15.2,0,21c-5.8,5.8-15.2,5.8-21,0C12.2,33.2,12,12,12,12S33.2,12.2,39,18z"/>
</g>
</svg>
