<?xml version="1.0" encoding="utf-8"?>
<!-- Generator: Adobe Illustrator 22.1.0, SVG Export Plug-In . SVG Version: 6.00 Build 0)  -->
<svg version="1.1" id="Capa_1" xmlns="http://www.w3.org/2000/svg" xmlns:xlink="http://www.w3.org/1999/xlink" x="0px" y="0px"
	 viewBox="0 0 77.9 77.9" style="enable-background:new 0 0 77.9 77.9;" xml:space="preserve">
<style type="text/css">
	.st0{fill:none;stroke:#091b26;stroke-miterlimit:10;}
</style>
<g>
	<path class="st0" d="M50.2,18.7c0,6.2-11.2,15.1-11.2,15.1s-11.2-8.9-11.2-15.1C27.8,12.5,39,1.1,39,1.1S50.2,12.5,50.2,18.7z"/>
	<path class="st0" d="M43,7.2c0,2.2-4,5.4-4,5.4s-4-3.2-4-5.4c0-2.2,4-6.3,4-6.3S43,5,43,7.2z"/>
	<path class="st0" d="M54,27.2c-0.9,0.9-3.9,0.6-3.9,0.6s-0.3-3,0.6-3.9c0.9-0.9,4.3-1,4.3-1S54.9,26.3,54,27.2z"/>
	<path class="st0" d="M70.7,42.8c-2.2,0-5.4-4-5.4-4s3.2-4,5.4-4c2.2,0,6.3,4,6.3,4S72.9,42.8,70.7,42.8z"/>
	<path class="st0" d="M50.7,53.8c-0.9-0.9-0.6-3.9-0.6-3.9s3-0.3,3.9,0.6c0.9,0.9,1,4.3,1,4.3S51.6,54.7,50.7,53.8z"/>
	<path class="st0" d="M35.1,70.5c0-2.2,4-5.4,4-5.4s4,3.2,4,5.4c0,2.2-4,6.3-4,6.3S35.1,72.7,35.1,70.5z"/>
	<path class="st0" d="M24.1,50.5c0.9-0.9,3.9-0.6,3.9-0.6s0.3,3-0.6,3.9c-0.9,0.9-4.3,1-4.3,1S23.2,51.4,24.1,50.5z"/>
	<path class="st0" d="M7.4,34.9c2.2,0,5.4,4,5.4,4s-3.2,4-5.4,4c-2.2,0-6.3-4-6.3-4S5.2,34.9,7.4,34.9z"/>
	<path class="st0" d="M27.4,23.9c0.9,0.9,0.6,3.9,0.6,3.9s-3,0.3-3.9-0.6c-0.9-0.9-1-4.3-1-4.3S26.5,23,27.4,23.9z"/>
	<path class="st0" d="M59.4,50.2c-6.2,0-15.1-11.2-15.1-11.2s8.9-11.2,15.1-11.2c6.2,0,17.6,11.2,17.6,11.2S65.5,50.2,59.4,50.2z"/>
	<path class="st0" d="M27.8,59.4c0-6.2,11.2-15.1,11.2-15.1s11.2,8.9,11.2,15.1c0,6.2-11.2,17.6-11.2,17.6S27.8,65.6,27.8,59.4z"/>
	<path class="st0" d="M18.6,27.9c6.2,0,15.1,11.2,15.1,11.2s-8.9,11.2-15.1,11.2C12.5,50.2,1,39.1,1,39.1S12.5,27.9,18.6,27.9z"/>
	<path class="st0" d="M58.5,33.4c-3.8,3.8-16.2,2.4-16.2,2.4s-1.4-12.4,2.4-16.2c3.8-3.8,17.8-4,17.8-4S62.3,29.6,58.5,33.4z"/>
	<path class="st0" d="M44.7,58.5c-3.8-3.8-2.4-16.2-2.4-16.2s12.4-1.4,16.2,2.4c3.8,3.8,4,17.8,4,17.8S48.5,62.3,44.7,58.5z"/>
	<path class="st0" d="M19.5,44.7c3.8-3.8,16.2-2.4,16.2-2.4s1.4,12.4-2.4,16.2c-3.8,3.8-17.8,4-17.8,4S15.7,48.5,19.5,44.7z"/>
	<path class="st0" d="M33.3,19.6c3.8,3.8,2.4,16.2,2.4,16.2s-12.4,1.4-16.2-2.4c-3.8-3.8-4-17.8-4-17.8S29.5,15.8,33.3,19.6z"/>
</g>
</svg>
