<?xml version="1.0" encoding="utf-8"?>
<!-- Generator: Adobe Illustrator 22.1.0, SVG Export Plug-In . SVG Version: 6.00 Build 0)  -->
<svg version="1.1" id="Capa_1" xmlns="http://www.w3.org/2000/svg" xmlns:xlink="http://www.w3.org/1999/xlink" x="0px" y="0px"
	 viewBox="0 0 77.9 77.9" style="enable-background:new 0 0 77.9 77.9;" xml:space="preserve">
<style type="text/css">
	.st0{fill:none;stroke:#091b26;stroke-miterlimit:10;}
</style>
<g>
	<path class="st0" d="M39,39.3c0-8.2,6.7-14.9,14.9-14.9v0C53.9,16.2,39,0.9,39,0.9S24.1,16.2,24.1,24.4v0
		C32.3,24.4,39,31.1,39,39.3z"/>
	<path class="st0" d="M53.9,24.4L53.9,24.4c0,8.2-6.7,14.9-14.9,14.9c8.2,0,14.9,6.7,14.9,14.9c8.2,0,23.5-14.9,23.5-14.9
		S62.1,24.4,53.9,24.4z"/>
	<path class="st0" d="M39,39.3c4.4,0,8-3.6,8-8C42.6,31.3,39,34.9,39,39.3z"/>
	<path class="st0" d="M39,39.3c0,8.2-6.7,14.9-14.9,14.9c0,8.2,14.9,23.5,14.9,23.5s14.9-15.3,14.9-23.5C45.7,54.2,39,47.6,39,39.3z
		"/>
	<path class="st0" d="M39,39.3c0,4.4,3.6,8,8,8C47,42.9,43.4,39.3,39,39.3z"/>
	<path class="st0" d="M39,39.3c-8.2,0-14.9-6.7-14.9-14.9l0,0c-8.2,0-23.5,14.9-23.5,14.9s15.3,14.9,23.5,14.9
		C24.1,46,30.8,39.3,39,39.3z"/>
	<path class="st0" d="M39,39.3c0-4.4-3.6-8-8-8C31,35.8,34.6,39.3,39,39.3z"/>
	<path class="st0" d="M39,39.3c-4.4,0-8,3.6-8,8C35.4,47.3,39,43.7,39,39.3z"/>
	<path class="st0" d="M43.3,22.1c0,3.8-1.9,6.9-4.3,6.9c-2.4,0-4.3-3.1-4.3-6.9s4.3-6.9,4.3-6.9S43.3,18.3,43.3,22.1z"/>
	<path class="st0" d="M56.3,43.7c-3.8,0-6.9-1.9-6.9-4.3c0-2.4,3.1-4.3,6.9-4.3c3.8,0,6.9,4.3,6.9,4.3S60.1,43.7,56.3,43.7z"/>
	<path class="st0" d="M34.7,56.6c0-3.8,1.9-6.9,4.3-6.9c2.4,0,4.3,3.1,4.3,6.9c0,3.8-4.3,6.9-4.3,6.9S34.7,60.4,34.7,56.6z"/>
	<path class="st0" d="M21.7,35c3.8,0,6.9,1.9,6.9,4.3s-3.1,4.3-6.9,4.3s-6.9-4.3-6.9-4.3S17.9,35,21.7,35z"/>
	<path class="st0" d="M45.8,12.4c0,5.9-3,10.8-6.7,10.8c-3.7,0-6.7-4.8-6.7-10.8C32.3,6.4,39,1.6,39,1.6S45.8,6.4,45.8,12.4z"/>
	<path class="st0" d="M66,46.1c-5.9,0-10.8-3-10.8-6.7c0-3.7,4.8-6.7,10.8-6.7c5.9,0,10.8,6.7,10.8,6.7S71.9,46.1,66,46.1z"/>
	<path class="st0" d="M32.2,66.3c0-5.9,3-10.8,6.7-10.8c3.7,0,6.7,4.8,6.7,10.8C45.7,72.2,39,77,39,77S32.2,72.2,32.2,66.3z"/>
	<path class="st0" d="M12,32.6c5.9,0,10.8,3,10.8,6.7C22.8,43,18,46,12,46c-5.9,0-10.8-6.7-10.8-6.7S6.1,32.6,12,32.6z"/>
</g>
</svg>
