<?xml version="1.0" encoding="utf-8"?>
<!-- Generator: Adobe Illustrator 22.1.0, SVG Export Plug-In . SVG Version: 6.00 Build 0)  -->
<svg version="1.1" id="Capa_1" xmlns="http://www.w3.org/2000/svg" xmlns:xlink="http://www.w3.org/1999/xlink" x="0px" y="0px"
	 viewBox="0 0 77.9 77.9" style="enable-background:new 0 0 77.9 77.9;" xml:space="preserve">
<style type="text/css">
	.st0{fill:none;stroke:#091b26;stroke-miterlimit:10;}
</style>
<g>
	<path class="st0" d="M25.7,8c0,0,2,12.5,13.3,12.5C50.3,20.5,52.3,8,52.3,8"/>
	<path class="st0" d="M31.8,2.4c0,0,1.1,6.8,7.2,6.8c6.1,0,7.2-6.8,7.2-6.8"/>
	<path class="st0" d="M70.4,26.1c0,0-12.5,2-12.5,13.3c0,11.3,12.5,13.3,12.5,13.3"/>
	<path class="st0" d="M75.9,32.2c0,0-6.8,1.1-6.8,7.2c0,6.1,6.8,7.2,6.8,7.2"/>
	<path class="st0" d="M52.3,70.7c0,0-2-12.5-13.3-12.5c-11.3,0-13.3,12.5-13.3,12.5"/>
	<path class="st0" d="M46.2,76.3c0,0-1.1-6.8-7.2-6.8c-6.1,0-7.2,6.8-7.2,6.8"/>
	<path class="st0" d="M7.6,52.6c0,0,12.5-2,12.5-13.3c0-11.3-12.5-13.3-12.5-13.3"/>
	<path class="st0" d="M2.1,46.5c0,0,6.8-1.1,6.8-7.2c0-6.1-6.8-7.2-6.8-7.2"/>
	<g>
		<path class="st0" d="M56.2,20.1C56.2,30.7,39,39.3,39,39.3s-17.2-8.6-17.2-19.2C21.8,9.5,29.5,0.9,39,0.9
			C48.5,0.9,56.2,9.5,56.2,20.1z"/>
		<path class="st0" d="M58.2,56.5C47.6,56.5,39,39.3,39,39.3s8.6-17.2,19.2-17.2s19.2,7.7,19.2,17.2C77.4,48.8,68.8,56.5,58.2,56.5z
			"/>
		<path class="st0" d="M21.8,58.5C21.8,47.9,39,39.3,39,39.3s17.2,8.6,17.2,19.2c0,10.6-7.7,19.2-17.2,19.2
			C29.5,77.7,21.8,69.1,21.8,58.5z"/>
		<path class="st0" d="M19.8,22.1C30.4,22.1,39,39.3,39,39.3s-8.6,17.2-19.2,17.2c-10.6,0-19.2-7.7-19.2-17.2
			C0.6,29.8,9.2,22.1,19.8,22.1z"/>
	</g>
	
		<rect x="30.2" y="30.5" transform="matrix(0.7071 -0.7071 0.7071 0.7071 -16.3908 39.0979)" class="st0" width="17.6" height="17.6"/>
</g>
</svg>
