<?xml version="1.0" encoding="utf-8"?>
<!-- Generator: Adobe Illustrator 22.1.0, SVG Export Plug-In . SVG Version: 6.00 Build 0)  -->
<svg version="1.1" id="Capa_1" xmlns="http://www.w3.org/2000/svg" xmlns:xlink="http://www.w3.org/1999/xlink" x="0px" y="0px"
	 viewBox="0 0 229.4 229.4" style="enable-background:new 0 0 229.4 229.4;" xml:space="preserve">
<style type="text/css">
	.st0{fill:#FFFFFF;}
</style>
<path class="st0" d="M113.4,8.5c-49.9,0-90.2,40.3-90.2,90.2S63.5,189,113.4,189c2.1,0,5.3,0,5.3,0v31.8c0,0,84.9-42.5,84.9-122.1
	C203.6,48.9,163.3,8.5,113.4,8.5z M108.1,104.1c0,9.6-10.6,21.2-10.6,21.2h-9.6c0,0,10.6-8.5,10.6-21.2H76.2V72.2h31.8
	C108.1,72.2,108.1,92.4,108.1,104.1z M150.5,104.1c0,9.6-10.6,21.2-10.6,21.2h-9.6c0,0,10.6-8.5,10.6-21.2h-22.3V72.2h31.8
	C150.5,72.2,150.5,92.4,150.5,104.1z"/>
</svg>
