<?xml version="1.0" encoding="utf-8"?>
<!-- Generator: Adobe Illustrator 22.1.0, SVG Export Plug-In . SVG Version: 6.00 Build 0)  -->
<svg version="1.1" id="Capa_1" xmlns="http://www.w3.org/2000/svg" xmlns:xlink="http://www.w3.org/1999/xlink" x="0px" y="0px"
	 viewBox="0 0 229.4 229.4" style="enable-background:new 0 0 229.4 229.4;" xml:space="preserve">
<style type="text/css">
	.st0{fill:#FFFFFF;}
</style>
<g>
	<path class="st0" d="M60,171c25.9,25.9,57,44.7,87.4,52.4c6.5,1.9,16.2,2.6,23.9,3.2c7.8,0.6,14.9-3.2,18.8-9.7l17.5-27.2
		c4.5-7.1,1.9-16.2-5.2-20.1l-42.1-22c-5.8-3.2-12.9-1.3-17.5,3.9l-15.5,20.1c-14.9-8.4-26.5-15.5-39.5-29.1
		c-14.2-14.2-21.4-25.9-29.1-40.1l19.4-15.5c5.2-3.9,7.1-11.6,3.9-17.5L60.7,27.3c-3.9-7.1-12.9-9.7-20.1-5.2L14.1,40.3
		C7.6,44.2,4.3,51.3,5,59C5.6,66.8,6.3,76.5,8.2,83C15.4,114.1,34.1,145.1,60,171z"/>
	<path class="st0" d="M117.6,90.8c5.2,1.3,10.4,4.5,14.2,8.4c3.9,3.9,7.1,9.1,8.4,14.2c1.3,4.5,5.2,7.1,9.7,7.1h0.6
		c6.5,0,10.4-6.5,9.1-12.3c-2.6-8.4-7.1-16.8-13.6-23.3s-14.9-11-23.3-13.6c-5.8-1.9-11.6,2.6-12.3,9.1V81
		C110.5,85.6,113.1,90.1,117.6,90.8z"/>
	<path class="st0" d="M120.2,57.1c12.9,2.6,25.2,8.4,35.6,18.8s16.2,22.7,18.8,35.6c0.6,4.5,5.2,8.4,10.4,7.8h0.6
		c5.8,0,10.4-5.8,9.1-11.6c-3.2-16.8-11-33-23.9-46.6c-12.9-13.6-29.1-21.4-46.6-23.9c-5.8-1.3-11,3.2-11.6,9.1v0.6
		C111.8,51.9,115.7,56.5,120.2,57.1z"/>
	<path class="st0" d="M194,37C174.6,17.6,150.6,6,125.4,2.7c-5.8-0.6-11,3.2-11,9.1v0.6c0,5.2,3.2,9.1,8.4,10.4
		c20.7,3.2,41.4,12.3,57,28.5s25.2,36.2,28.5,57c0.6,5.2,5.2,9.1,10.4,8.4h0.6c5.8,0,9.7-5.2,9.1-11C225,81,213.4,56.5,194,37z"/>
</g>
</svg>
