<?xml version="1.0" encoding="utf-8"?>
<!-- Generator: Adobe Illustrator 22.1.0, SVG Export Plug-In . SVG Version: 6.00 Build 0)  -->
<svg version="1.1" id="Capa_1" xmlns="http://www.w3.org/2000/svg" xmlns:xlink="http://www.w3.org/1999/xlink" x="0px" y="0px"
	 viewBox="0 0 260.2 182.5" style="enable-background:new 0 0 260.2 182.5;" xml:space="preserve">
<style type="text/css">
	.st0{fill:#FF9F36;stroke:#640917;stroke-width:2.1876;stroke-linecap:round;stroke-miterlimit:10;}
	.st1{fill:#EF8720;stroke:#640917;stroke-width:2.1876;stroke-linecap:round;stroke-miterlimit:10;}
	.st2{fill:#640917;}
	.st3{fill:#CDE0DF;stroke:#640917;stroke-width:2.1876;stroke-miterlimit:10;}
	.st4{fill:#ABC9C7;}
	.st5{fill:none;stroke:#640917;stroke-width:2.1876;stroke-miterlimit:10;}
	.st6{fill:#9FCCC9;stroke:#640917;stroke-width:2.1876;stroke-miterlimit:10;}
	.st7{fill:#640917;stroke:#640917;stroke-width:0.75;stroke-linecap:round;stroke-miterlimit:10;}
	.st8{fill:#CE7D50;stroke:#640917;stroke-width:0.75;stroke-miterlimit:10;}
	.st9{fill:none;stroke:#640917;stroke-width:0.75;stroke-linecap:round;stroke-miterlimit:10;}
	.st10{fill:#BC693F;}
	.st11{fill:#DBAA94;}
	.st12{fill:#CE7D50;stroke:#640917;stroke-miterlimit:10;}
	.st13{fill:#FCD3B6;stroke:#640917;stroke-width:0.5;stroke-linecap:round;stroke-miterlimit:10;}
	.st14{fill:#FCD3B6;stroke:#640917;stroke-width:0.75;stroke-linecap:round;stroke-miterlimit:10;}
	.st15{fill:none;stroke:#640917;stroke-width:2.1876;stroke-linecap:round;stroke-miterlimit:10;}
	.st16{fill:#FFFFFF;}
	.st17{fill:#E25959;stroke:#640917;stroke-width:0.75;stroke-linecap:round;stroke-miterlimit:10;}
	.st18{fill:#CE7D50;}
	.st19{fill:none;stroke:#640917;stroke-miterlimit:10;}
	.st20{fill:#590717;stroke:#570E1A;stroke-width:0.75;stroke-miterlimit:10;}
	.st21{fill:#FFF3E4;stroke:#640917;stroke-width:0.75;stroke-linecap:round;stroke-miterlimit:10;}
	.st22{fill:#FFEDD9;stroke:#640917;stroke-width:0.75;stroke-linecap:round;stroke-miterlimit:10;}
	.st23{fill:#F7F0ED;stroke:#640917;stroke-width:0.75;stroke-linecap:round;stroke-miterlimit:10;}
	.st24{fill:#FCD3B6;}
	.st25{fill:#640917;stroke:#640917;stroke-width:2.1876;stroke-linecap:round;stroke-miterlimit:10;}
	.st26{fill:#FFFFFF;stroke:#640917;stroke-width:0.75;stroke-linecap:round;stroke-miterlimit:10;}
	.st27{fill:#F7F0ED;}
	.st28{fill:#E25959;}
	.st29{fill:#D34242;}
	.st30{fill:#F7F0ED;stroke:#640917;stroke-width:0.5;stroke-linecap:round;stroke-miterlimit:10;}
	.st31{fill:#B2654D;stroke:#640917;stroke-width:2.1876;stroke-linecap:round;stroke-miterlimit:10;}
	.st32{fill:#BC693F;stroke:#640917;stroke-width:0.75;stroke-miterlimit:10;}
	.st33{fill:none;stroke:#570E1A;stroke-width:0.75;stroke-linecap:round;stroke-miterlimit:10;}
	.st34{fill:#640917;stroke:#640917;stroke-width:0.5;stroke-linecap:round;stroke-miterlimit:10;}
	.st35{fill:none;stroke:#640917;stroke-width:17;stroke-linecap:round;stroke-miterlimit:10;}
	.st36{fill:none;}
	.st37{fill:#FFEDD9;stroke:#640917;stroke-width:2.1876;stroke-linecap:round;stroke-miterlimit:10;}
	.st38{fill:#FFEDD9;stroke:#640917;stroke-width:0.5;stroke-linecap:round;stroke-miterlimit:10;}
	.st39{fill:#FFFFFF;stroke:#640917;stroke-width:0.5;stroke-linecap:round;stroke-miterlimit:10;}
	.st40{fill:#F7E8EB;stroke:#640917;stroke-width:0.75;stroke-linecap:round;stroke-miterlimit:10;}
	.st41{fill:#965E4D;stroke:#640917;stroke-width:2.1876;stroke-linecap:round;stroke-miterlimit:10;}
	.st42{fill:#EFE3DF;stroke:#640917;stroke-width:2.1876;stroke-linecap:round;stroke-miterlimit:10;}
	.st43{fill:none;stroke:#640917;stroke-width:0.5;stroke-linecap:round;stroke-miterlimit:10;}
	.st44{fill:none;stroke:#2E2F73;stroke-width:2.1876;stroke-linecap:round;stroke-miterlimit:10;}
	.st45{fill:#FFF3E4;stroke:#640917;stroke-width:2.1876;stroke-linecap:round;stroke-miterlimit:10;}
	.st46{fill:#CC4040;stroke:#640917;stroke-width:0.75;stroke-linecap:round;stroke-miterlimit:10;}
	.st47{fill:#9FCCC9;}
	.st48{fill:#CDE0DF;}
	.st49{fill:none;stroke:#640917;stroke-width:0.75;stroke-miterlimit:10;}
	.st50{fill:#640917;stroke:#640917;stroke-linecap:round;stroke-miterlimit:10;}
	.st51{fill:#590B1A;stroke:#580F1C;stroke-width:0.75;stroke-miterlimit:10;}
	.st52{fill:#934F3D;stroke:#640917;stroke-width:2.1876;stroke-linecap:round;stroke-miterlimit:10;}
	.st53{fill:#FFD671;}
	.st54{fill:#EDAF5D;}
	.st55{fill:#630B18;}
	.st56{fill:#B2654D;stroke:#640917;stroke-width:2.1876;stroke-miterlimit:10;}
	.st57{fill:#9FCCC9;stroke:#640917;stroke-miterlimit:10;}
	.st58{fill:#CDE0DF;stroke:#640917;stroke-miterlimit:10;}
	.st59{fill:#FF9F36;stroke:#640917;stroke-linecap:round;stroke-miterlimit:10;}
	.st60{fill:#CDE0DF;stroke:#640917;stroke-width:0.75;stroke-miterlimit:10;}
	.st61{fill:#9FCCC9;stroke:#640917;stroke-width:0.75;stroke-miterlimit:10;}
	.st62{fill:#FF9F36;stroke:#640917;stroke-width:0.75;stroke-linecap:round;stroke-miterlimit:10;}
	.st63{fill:#F7E8EB;}
	.st64{fill:#CDE0DF;stroke:#640917;stroke-width:1.8021;stroke-miterlimit:10;}
	.st65{fill:#FFFFFF;stroke:#640917;stroke-width:2.1876;stroke-linecap:round;stroke-miterlimit:10;}
	.st66{fill:#EDDDD9;}
	.st67{fill:#FCD3B6;stroke:#640917;stroke-width:2.1876;stroke-linecap:round;stroke-miterlimit:10;}
	.st68{fill:#F7F7F7;stroke:#009EE6;stroke-width:3.2813;stroke-linecap:round;stroke-miterlimit:10;}
	.st69{fill:#C14242;stroke:#640917;stroke-width:2.1876;stroke-linecap:round;stroke-miterlimit:10;}
	.st70{fill:#2B2B2B;}
	.st71{fill:#E25959;stroke:#640917;stroke-width:2.1876;stroke-linecap:round;stroke-miterlimit:10;}
	.st72{fill:#CE4545;stroke:#630B18;stroke-width:0.75;stroke-miterlimit:10;}
	.st73{fill:#B57B64;}
	.st74{fill:#E0C7C3;}
	.st75{fill:#EDB67A;stroke:#640917;stroke-width:0.75;stroke-linecap:round;stroke-miterlimit:10;}
	.st76{fill:#E8B592;}
	.st77{fill:#E25959;stroke:#E25959;stroke-width:0.25;stroke-linecap:round;stroke-miterlimit:10;}
	.st78{fill:none;stroke:#E25959;stroke-width:0.75;stroke-linecap:round;stroke-miterlimit:10;}
	.st79{fill:#FFFFFF;stroke:#640917;stroke-width:4.3751;stroke-linecap:round;stroke-miterlimit:10;}
	.st80{fill:#EF8720;}
	.st81{fill:#9FCCC9;stroke:#630B18;stroke-width:1.8021;stroke-miterlimit:10;}
</style>
<g id="XMLID_3_">
	<g id="XMLID_3188_">
		<path id="XMLID_3204_" class="st0" d="M154.1,115.4h-42V61.9c0-7.5,6.1-13.5,13.5-13.5h15c7.5,0,13.5,6.1,13.5,13.5V115.4z"/>
		
			<rect id="XMLID_3203_" x="112.1" y="99.4" transform="matrix(-1 -1.224647e-16 1.224647e-16 -1 266.1876 204.75)" class="st1" width="42" height="6"/>
		
			<rect id="XMLID_3202_" x="111.1" y="81.4" transform="matrix(-1 -1.224647e-16 1.224647e-16 -1 265.1876 168.75)" class="st1" width="43" height="6"/>
		
			<rect id="XMLID_3201_" x="111.1" y="63.4" transform="matrix(-1 -1.224647e-16 1.224647e-16 -1 265.1876 132.75)" class="st1" width="43" height="6"/>
		<path id="XMLID_3200_" class="st2" d="M113.9,181.4h-1.6c-1.8,0-3.2-1.4-3.2-3.2v-4.8h8v4.8C117.1,179.9,115.7,181.4,113.9,181.4z
			"/>
		<path id="XMLID_3199_" class="st2" d="M133.9,181.4h-1.6c-1.8,0-3.2-1.4-3.2-3.2v-4.8h8v4.8C137.1,179.9,135.7,181.4,133.9,181.4z
			"/>
		<path id="XMLID_3198_" class="st2" d="M153.9,181.4h-1.6c-1.8,0-3.2-1.4-3.2-3.2v-4.8h8v4.8C157.1,179.9,155.7,181.4,153.9,181.4z
			"/>
		<rect id="XMLID_3197_" x="127.1" y="120.4" class="st3" width="11" height="13"/>
		<rect id="XMLID_3196_" x="130.1" y="133.4" class="st3" width="5" height="41"/>
		
			<rect id="XMLID_3195_" x="127.1" y="125.4" transform="matrix(-1 -1.224647e-16 1.224647e-16 -1 265.1876 255.7491)" class="st4" width="11" height="5"/>
		
			<rect id="XMLID_3194_" x="130.1" y="133.4" transform="matrix(-1 -1.224647e-16 1.224647e-16 -1 265.1876 268.75)" class="st4" width="5" height="2"/>
		<rect id="XMLID_3193_" x="130.1" y="132.4" class="st5" width="5" height="39"/>
		<rect id="XMLID_3192_" x="127.1" y="120.4" class="st5" width="11" height="13"/>
		<path id="XMLID_3191_" class="st6" d="M159.1,176.4h-52v-1.5c0-1.9,1.6-3.5,3.5-3.5h45.1c1.9,0,3.5,1.6,3.5,3.5V176.4z"/>
		<path id="XMLID_3190_" class="st3" d="M137.1,176.4h-8v-1.8c0-1.8,1.4-3.2,3.2-3.2h1.6c1.8,0,3.2,1.4,3.2,3.2V176.4z"/>
		<path id="XMLID_3189_" class="st0" d="M112.1,115.4h41c2.2,0,4,1.8,4,4v2c0,2.2-1.8,4-4,4h-41c-2.2,0-4-1.8-4-4v-2
			C108.1,117.2,109.9,115.4,112.1,115.4z"/>
	</g>
	<g id="XMLID_3103_">
		<path id="XMLID_3187_" class="st7" d="M146.5,28.4c1.5-1.3,2.3-3.2,1.9-5.1l-1.3,0.2l-0.1-9.3c-0.1-7.6-6.3-13.8-13.9-13.8h0
			c-7.7,0-13.9,6.2-13.9,13.9l0,9.3l-0.8-0.2c-0.4,1.9,0.4,3.9,1.8,4.9h-2.4v0c0,2.6,1.9,4.8,4.4,5.1V34l-0.9,2.3
			c1.8,0.8,3.8,0.3,5.2-0.9h5.8v-9h10.7l0.4,1h-1.2v3.2l-3.6,1.8l0.5,1.3c1,2.6,3.8,3.8,6.2,2.8l-1.1-2.8c2.5-0.2,4.4-2.4,4.4-5.1
			l0.1-0.1H146.5z"/>
		<g id="XMLID_3185_">
			<path id="XMLID_3186_" class="st8" d="M112,88.6c-1.7,0-7.8,1.7-8.8,0.1L98,80.4c-3.7-6.1-3-13.8,1.7-19.2l16-18.2
				c1.8-2.1,5-2.3,7.1-0.5c2.1,1.8,2.3,5,0.5,7.1l-16,18.2c-1.8,2.1-2.1,5-0.6,7.3l9.1,15.2c1.4,2.4,1.8-3.1-0.6-1.7
				C114.4,89.2,112.9,88.6,112,88.6z"/>
		</g>
		<g id="XMLID_3183_">
			<path id="XMLID_3184_" class="st9" d="M112,90c-1.7,0-6.3,2.5-7.2,0.9l-6.6-10.5c-3.7-6.1-3-13.8,1.7-19.2l16-18.2
				c1.8-2.1,5-2.3,7.1-0.5c2.1,1.8,2.3,5,0.5,7.1l-16,18.2c-1.8,2.1-2.1,5-0.6,7.3l9.1,15.2c1.4,2.4,1.1-0.9-1.3,0.6
				C113.9,91.4,112.9,90,112,90z"/>
		</g>
		<g id="XMLID_3181_">
			<path id="XMLID_3182_" class="st10" d="M107.3,67.8c-1.8,2.1-2.1,5-0.7,7.3l9.1,15.2c1.2,1.9,1.2,0.4-0.2,2
				c-1.8-1.1-3.2,1-3.7,0.1l-7.3-12c-4.7-7-3.8-12.7,0.9-18.1l16-17.9c0.3-0.4,0.3-2.2,0.8-2.5c0.2,0.1,0.4,0.3,0.7,0.5
				c2.1,1.8,2.3,5,0.5,7.1L107.3,67.8z"/>
		</g>
		<g id="XMLID_3177_">
			<polyline class="st11" points="116.1,100.4 116.1,95.4 150.1,95.4 150.1,100.4 			"/>
			<polyline class="st5" points="116.1,100.4 116.1,95.4 150.1,95.4 150.1,100.4 			"/>
		</g>
		<g id="XMLID_3172_">
			<path id="XMLID_582_" class="st12" d="M151,88.9c1.7,0,8.3,5.5,9.2,3.9l7.7-12.4c3.7-6.1,3-13.8-1.7-19.2l-16-18.2
				c-1.8-2.1-5-2.3-7.1-0.5c-2.1,1.8-2.3,5-0.5,7.1l16,18.2c1.8,2.1,2.1,5,0.6,7.3l-9.1,15.2c-1.4,2.4-0.7,5.5,1.7,6.9
				C152.7,97.8,150.1,88.9,151,88.9z"/>
		</g>
		<g id="XMLID_3167_">
			<path id="XMLID_580_" class="st10" d="M158.7,67.8c1.8,2.1,2.1,5,0.7,7.3l-9.1,15.2c-1.2,1.9-5.8-0.9-4.4,0.7
				c1.8-1.1,7.8,2.3,8.4,1.4l7.3-12c4.7-7,3.8-12.7-0.9-18.1l-16-17.9c-0.3-0.4-0.3-2.2-0.8-2.5c-0.2,0.1-0.4,0.3-0.7,0.5
				c-2.1,1.8-2.3,5-0.5,7.1L158.7,67.8z"/>
		</g>
		<g id="XMLID_3165_">
			<path id="XMLID_3166_" class="st9" d="M149.5,89.1c1.7,0,9.8,5.3,10.7,3.8l7.7-12.4c3.7-6.1,3-13.8-1.7-19.2l-16-18.2
				c-1.8-2.1-5-2.3-7.1-0.5c-2.1,1.8-2.3,5-0.5,7.1l16,18.2c1.8,2.1,2.1,5,0.6,7.3l-9.1,15.2c-1.4,2.4-2.4,1.6-5,0.6
				C142.7,90,148.7,89.1,149.5,89.1z"/>
		</g>
		<g id="XMLID_3163_">
			<path id="XMLID_3164_" class="st13" d="M151.1,89.4v-4c0-0.8,0.7-1.4,1.5-1.4c0.8,0,1.5,0.6,1.5,1.4v3"/>
		</g>
		<g id="XMLID_3161_">
			<path id="XMLID_3162_" class="st14" d="M115.1,89.4v-4c0-0.8-0.7-1.4-1.5-1.4c-0.8,0-1.5,0.6-1.5,1.4v3"/>
		</g>
		<path id="XMLID_3160_" class="st15" d="M118.5,97.2c0,0,0.1,3.5-1.8,5.8"/>
		<path id="XMLID_3159_" class="st15" d="M147.6,97.2c0,0-0.1,3.5,1.8,5.8"/>
		<path id="XMLID_3158_" class="st16" d="M150.1,61.4v34h-34l0.7-47c0-4.5,2.9-8,7.4-8h20.2c1.4,0,2.8,0.6,3.8,1.5"/>
		<polygon id="XMLID_3157_" class="st17" points="134.9,50.4 131.5,50.4 128.5,73.8 133.1,78.3 137.7,73.8 		"/>
		<path id="XMLID_3154_" class="st18" d="M151.1,57.4l1.7,47.6c0,0.8-0.6,1.4-1.4,1.4h-14.5c-0.5,0-0.9-0.3-1.2-0.7l-2.4-4.1
			l-2.4,4.1c-0.2,0.4-0.7,0.7-1.2,0.7h-15.2c-0.8,0-1.4-0.7-1.4-1.5l3.6-63.5c1-1.3,2.8-2.1,7.3-2h1.1l2.7,8.8l5.6,15.8l7.7-23.6
			h1.4c0,0,1.4,0,2.1,0c1.6,0,3,0.6,4.1,1.6"/>
		<path id="XMLID_3151_" class="st19" d="M116.4,42.5c1-1.2,3.2-2.3,7.6-3.1h1.1l2.7,8.8l5.6,15.8l7.7-23.6h1.4h2.1
			c1.6-0.5,3,0.1,4.1,1.1"/>
		<path id="XMLID_3148_" class="st9" d="M151.1,57.4l1.7,47.6c0,0.8-0.6,1.4-1.4,1.4h-14.7c-0.5,0-0.9-0.3-1.2-0.7l-2.4-4.1
			l-2.4,4.1c-0.2,0.4-0.7,0.7-1.2,0.7h-15c-0.8,0-1.4-0.7-1.4-1.4l2.4-48"/>
		<path id="XMLID_3147_" class="st15" d="M154.2,63.3"/>
		<circle id="XMLID_3146_" class="st20" cx="136.4" cy="72.5" r="1.3"/>
		<circle id="XMLID_3145_" class="st20" cx="136.4" cy="80.6" r="1.3"/>
		<circle id="XMLID_3144_" class="st20" cx="136.4" cy="88.7" r="1.3"/>
		<path id="XMLID_3143_" class="st14" d="M142.1,23.9c0-1.7,1.4-3,3-3s3,1.4,3,3c0,1.7-1.4,3-3,3c-0.5,0-1.1-0.1-1.5-0.4"/>
		<path id="XMLID_3142_" class="st21" d="M145.2,22.7c0.7,0,1.2,0.6,1.2,1.2"/>
		<path id="XMLID_3141_" class="st14" d="M124,23.9c0-1.7-1.4-3-3-3c-1.7,0-3,1.4-3,3c0,1.7,1.4,3,3,3c0.5,0,1.1-0.1,1.5-0.4"/>
		<path id="XMLID_3140_" class="st21" d="M121,22.7c-0.7,0-1.2,0.6-1.2,1.2"/>
		<path id="XMLID_3139_" class="st22" d="M134.2,45.9H132c-2.4,0-4.4-2-4.4-4.4v-4.6h11v4.6C138.6,43.9,136.6,45.9,134.2,45.9z"/>
		<path id="XMLID_3138_" class="st23" d="M127.1,39.4h-2v-0.7c0-0.7,0.6-1.3,1.3-1.3h0.7V39.4z"/>
		<path id="XMLID_3137_" class="st24" d="M138.1,35.4v3.9c-1.6,0.7-3.2,1.1-4.8,1.1h-2c-1.7-0.1-3.3-0.5-4.1-1.1v-3.9H138.1z"/>
		<path id="XMLID_3136_" class="st9" d="M134.2,45.9H132c-2.4,0-4.4-2-4.4-4.4v-4.6h11v4.6C138.6,43.9,136.6,45.9,134.2,45.9z"/>
		<path id="XMLID_3135_" class="st22" d="M135.8,38.4h-5.3c-5.2,0-9.3-4.2-9.3-9.3V16.7c0-3,2.4-5.4,5.4-5.4h13.8
			c2.7,0,4.9,2.2,4.9,4.9V29C145.1,34.2,140.9,38.4,135.8,38.4z"/>
		<path id="XMLID_3134_" class="st24" d="M140,21.4h-1.7c-1.2,0-2.1-1-2.1-2.1v-0.9h6v0.9C142.1,20.4,141.1,21.4,140,21.4z"/>
		<path id="XMLID_3133_" class="st9" d="M134.9,27.7c-1,0-1.8-0.8-1.8-1.8v-4.5"/>
		<path id="XMLID_3132_" class="st25" d="M141.8,19.4h-5.5c-0.1,0-0.3-0.1-0.3-0.3v-0.5c0-0.1,0.1-0.3,0.3-0.3h5.5
			c0.1,0,0.3,0.1,0.3,0.3v0.5C142.1,19.3,142,19.4,141.8,19.4z"/>
		<path id="XMLID_3131_" class="st24" d="M128,21.4h-1.7c-1.2,0-2.1-1-2.1-2.1v-0.9h6v0.9C130.1,20.4,129.1,21.4,128,21.4z"/>
		<path id="XMLID_3130_" class="st25" d="M129.8,19.4h-5.5c-0.1,0-0.3-0.1-0.3-0.3v-0.5c0-0.1,0.1-0.3,0.3-0.3h5.5
			c0.1,0,0.3,0.1,0.3,0.3v0.5C130.1,19.3,130,19.4,129.8,19.4z"/>
		<path id="XMLID_3129_" class="st26" d="M134,33.4h-1.7c-1.2,0-2.1-1-2.1-2.1v-0.9h6v0.9C136.1,32.4,135.1,33.4,134,33.4z"/>
		<polygon id="XMLID_3128_" class="st27" points="125.1,40.2 127,49.5 131.2,47.1 		"/>
		<polygon id="XMLID_3127_" class="st27" points="141.1,39.9 139,49.1 134.9,46.8 		"/>
		<path id="XMLID_3126_" class="st28" d="M134.4,50.4h-1.5c-1,0-1.7-0.8-1.7-1.7v-1.5c0-1,0.8-1.7,1.7-1.7h1.5c1,0,1.7,0.8,1.7,1.7
			v1.5C136.1,49.6,135.3,50.4,134.4,50.4z"/>
		<path id="XMLID_3125_" class="st29" d="M131.3,48.2c0.1-0.1,2.2-1.3,2.2-1.3l2.6,1.2l0.2-1.4l-2.8-1.3l-2.5,1.3v1.6L131.3,48.2z"
			/>
		<path id="XMLID_3124_" class="st9" d="M134.4,50.4h-1.5c-1,0-1.7-0.8-1.7-1.7v-1.5c0-1,0.8-1.7,1.7-1.7h1.5c1,0,1.7,0.8,1.7,1.7
			v1.5C136.1,49.6,135.3,50.4,134.4,50.4z"/>
		<polyline id="XMLID_3123_" class="st26" points="125.3,38 133.3,45.5 127.8,48.2 125.1,39.6 125.1,38.4 		"/>
		<path id="XMLID_3122_" class="st30" d="M139.1,39.4h2v-0.7c0-0.7-0.6-1.3-1.3-1.3h-0.7V39.4z"/>
		<polyline id="XMLID_3121_" class="st26" points="140.9,38 132.9,45.5 138.2,47.8 141.1,39.6 141.1,38.4 		"/>
		<path id="XMLID_3120_" class="st15" d="M113.2,63.3"/>
		<path id="XMLID_3119_" class="st31" d="M135.9,8.6"/>
		<path id="XMLID_3118_" class="st31" d="M130.2,8.6"/>
		<g id="XMLID_3116_">
			<path id="XMLID_3117_" class="st22" d="M152.1,89.4h-7.8c-0.8,0-1.4,0.7-1.4,1.5s0.6,1.5,1.4,1.5h6.8"/>
		</g>
		<path id="XMLID_3115_" class="st15" d="M111.8,63.3"/>
		<g id="XMLID_3113_">
			<path id="XMLID_3114_" class="st22" d="M114.1,89.4h7.6c0.8,0,1.4,0.7,1.4,1.5s-0.6,1.5-1.4,1.5h-6.6"/>
		</g>
		<path id="XMLID_3112_" class="st32" d="M125.1,40.1l-3.3,8.1l4.4,3.7l-0.5,2.7l7.3,8.6c0.1,0.1,0.3,0,0.2-0.1L125.1,40.1z"/>
		<path id="XMLID_3111_" class="st32" d="M141,39.9l3.3,8.1l-4.4,3.7l0.5,2.7l-7,8.3c-0.1,0.2-0.4,0-0.3-0.2L141,39.9z"/>
		<line id="XMLID_3110_" class="st33" x1="133.1" y1="63.4" x2="133.1" y2="102.4"/>
		<line id="XMLID_3109_" class="st9" x1="148.4" y1="41.3" x2="150.3" y2="42.9"/>
		<path id="XMLID_3108_" class="st7" d="M124.6,10.5l13,6.6c3.4,1.7,7.5-0.8,7.5-4.6V9.4"/>
		<path id="XMLID_3107_" class="st26" d="M129,21.7c0,0.8-0.7,1.5-1.5,1.5c-0.8,0-1.5-0.7-1.5-1.5c0-0.8,0.7-1.5,1.5-1.5
			C128.3,20.2,129,20.9,129,21.7z"/>
		<path id="XMLID_3106_" class="st26" d="M140.6,21.7c0,0.8-0.7,1.5-1.5,1.5c-0.8,0-1.5-0.7-1.5-1.5c0-0.8,0.7-1.5,1.5-1.5
			C139.9,20.2,140.6,20.9,140.6,21.7z"/>
		<path id="XMLID_3105_" class="st34" d="M127.6,22c0,0.3-0.3,0.6-0.6,0.6c-0.3,0-0.6-0.3-0.6-0.6s0.3-0.6,0.6-0.6
			C127.3,21.4,127.6,21.6,127.6,22z"/>
		<circle id="XMLID_3104_" class="st34" cx="138.5" cy="22" r="0.6"/>
	</g>
	<g id="XMLID_3098_">
		<path id="XMLID_3102_" class="st3" d="M159.1,83.4h-53V59.9c0-4.7,3.8-8.5,8.5-8.5h35.9c4.7,0,8.5,3.8,8.5,8.5V83.4z"/>
		<rect id="XMLID_3101_" x="106.1" y="76.4" class="st4" width="53" height="7"/>
		<path id="XMLID_3100_" class="st5" d="M159.1,83.4h-53V59.9c0-4.7,3.8-8.5,8.5-8.5h35.9c4.7,0,8.5,3.8,8.5,8.5V83.4z"/>
		
			<ellipse id="XMLID_3099_" transform="matrix(0.1608 -0.987 0.987 0.1608 48.8187 186.8111)" class="st16" cx="134.3" cy="64.7" rx="3.9" ry="3.9"/>
	</g>
	<path id="XMLID_3097_" class="st35" d="M208.1,105.7l-26.1,6c-3.6,0.8-5.9,4.4-5.2,8l9.1,50.7"/>
	<path id="XMLID_3096_" class="st36" d="M156.7,94.6"/>
	<rect id="XMLID_3095_" x="194.1" y="33.4" class="st22" width="13" height="11"/>
	<path id="XMLID_3094_" class="st37" d="M111.1,73.4h6.3c0.8,0,1.5,0.7,1.5,1.5l0,0c0,0.8-0.7,1.5-1.5,1.5h-6.3"/>
	<path id="XMLID_3093_" class="st38" d="M210.7,19l0.4,8.8v-0.1c0,7-5.8,12.7-13,12.7h-1.8c-6.2,0-11.2-5-11.2-11.2V18.4v-1.2
		c0-7.1,5.7-12.8,12.8-12.8h0.5c7.1,0,12.8,5.7,12.8,12.8v3.2"/>
	<path id="XMLID_3092_" class="st37" d="M109.1,76.4h6.2c0.8,0,1.5,0.7,1.5,1.5l0,0c0,0.8-0.7,1.5-1.5,1.5h-6.2"/>
	<path id="XMLID_3091_" class="st37" d="M109.1,80.4h6c0.8,0,1.5,0.7,1.5,1.5l0,0c0,0.8-0.7,1.5-1.5,1.5h-6"/>
	<rect id="XMLID_3090_" x="185.1" y="19.4" class="st24" width="5" height="4"/>
	<path id="XMLID_3089_" class="st24" d="M198.6,23.4h-1.9c-1.4,0-2.6-1.2-2.6-2.6v-1.4h7v1.5C201.1,22.3,200,23.4,198.6,23.4z"/>
	<path id="XMLID_3088_" class="st39" d="M198.3,24.4h-2.4c-0.4,0-0.8-0.4-0.8-0.8v-0.4c0-0.4,0.4-0.8,0.8-0.8h2.4
		c0.4,0,0.8,0.4,0.8,0.8v0.4C199.1,24,198.7,24.4,198.3,24.4z"/>
	<path id="XMLID_3085_" class="st24" d="M210.4,17.9l-0.3,8.8v0c0.1,7-12.2,12.6-12.2,12.6h-2c0,0-0.3,0.1-0.4,0.1
		c6.6-0.2,11.8-5.8,11.5-12.7v0l0.3-8.8l-0.3,1.1v-3.1c0.3-3.6-6-6.5-6-6.5h2.8c0,0,6.3,2.9,6.2,6.5V19L210.4,17.9z"/>
	<path id="XMLID_3084_" class="st14" d="M111.5,76.9c-0.5-2,5.2-3.2,3.1-3.2l-9.7,1.7l-18.8,0.2c-0.4,0-0.7,0-1.1-0.1
		c-2-0.4-3.8-1.7-4.6-3.7l-7.8-20l-9.5,0.8L74.3,76c1.2,3.6,4.3,7.4,8.8,7.4h19.4h12.4C114.6,82.8,112.3,80,111.5,76.9z"/>
	<g id="XMLID_3082_">
		<path id="XMLID_3083_" class="st40" d="M144.7,72.6c-1.9,0-3.7-1.2-4.3-3.1c-0.9-2.4,0.4-5,2.8-5.9l56-20c2.4-0.9,5,0.4,5.9,2.8
			c0.9,2.4-0.4,5-2.8,5.9l-56,20C145.8,72.5,145.3,72.6,144.7,72.6z"/>
	</g>
	<path id="XMLID_3081_" class="st41" d="M192.1,179.8c0,0.9-0.7,1.6-1.6,1.6h-22.2c-1.4,0-2.5-1.1-2.5-2.5l0,0
		c0-1.1,0.8-2.1,1.8-2.4l11.3-3.1h13.1V179.8z"/>
	<path id="XMLID_3080_" class="st15" d="M192.1,179.8c0,0.9-0.7,1.6-1.6,1.6h-21.9c-1.4,0-2.5-1.1-2.5-2.5l0,0
		c0-1.1,0.7-2.1,1.8-2.4l12.1-3.3l12,0.2V179.8z"/>
	<path id="XMLID_3079_" class="st42" d="M190.8,181.4h-23.3c-0.7,0-1.3-0.6-1.3-1.3v-0.7h26v0.7
		C192.1,180.8,191.5,181.4,190.8,181.4z"/>
	<path id="XMLID_3078_" class="st43" d="M210.7,18.9l0.4,8.8v0c0,7-5.8,12.7-13,12.7h-1.9c-6.1,0-11.1-5-11.1-11.1V18.4v-1.2
		c0-7.1,5.7-12.8,12.8-12.8h0.5c7.1,0,12.8,5.7,12.8,12.8v3.2"/>
	<path id="XMLID_3077_" class="st44" d="M182.5,19.5"/>
	<path id="XMLID_3076_" class="st43" d="M192,29.1c-1.1,0-1.9-0.9-1.9-1.9v-3.8"/>
	<path id="XMLID_3075_" class="st45" d="M212.1,25.5"/>
	<g id="XMLID_1388_">
		<path id="XMLID_3073_" class="st46" d="M116,68.4h-10.9c-0.6,0-1.1-0.5-1.1-1.1v-0.9c0-0.6,0.5-1.1,1.1-1.1H116
			c0.6,0,1.1,0.5,1.1,1.1v0.9C117.1,67.9,116.6,68.4,116,68.4z"/>
		<path id="XMLID_2922_" class="st26" d="M116.2,68.4l-1.1,14.2c0,0.4-0.4,0.8-0.9,0.8h-7.6c-0.4,0-0.8-0.3-0.9-0.8l-1.1-14.2H116.2
			z"/>
		<path id="XMLID_2917_" class="st17" d="M115.1,65.4h-10v-0.6c0-0.6,0.5-1.2,1.1-1.2l7.5-0.9c0.7-0.1,1.4,0.5,1.4,1.2V65.4z"/>
		<path id="XMLID_2916_" class="st27" d="M116.1,68.4L115,82.6c0,0.4-0.4,0.8-0.9,0.8h-1.4l1.1-15H116.1z"/>
		<path id="XMLID_2913_" class="st9" d="M116.2,68.4l-1.1,14.2c0,0.4-0.4,0.8-0.9,0.8h-7.6c-0.4,0-0.8-0.3-0.9-0.8l-1.1-14.2H116.2z
			"/>
		<path id="XMLID_1391_" class="st47" d="M116.4,70.8L115.7,81c0,0.2-0.2,0.4-0.4,0.4H113l0.8-11h2.2
			C116.2,70.4,116.4,70.6,116.4,70.8z"/>
		<path id="XMLID_1390_" class="st48" d="M113.9,70.4l-0.8,11h-7.5c-0.2,0-0.4-0.2-0.4-0.4l-0.8-10.1c0-0.3,0.2-0.5,0.4-0.5H113.9z"
			/>
		<path id="XMLID_1389_" class="st49" d="M104.3,70.9c0-0.3,0.2-0.5,0.4-0.5h9.1h2.2c0.3,0,0.5,0.2,0.4,0.5L115.8,81
			c0,0.2-0.2,0.4-0.4,0.4h-2.3h-7.5c-0.2,0-0.4-0.2-0.4-0.4L104.3,70.9z"/>
	</g>
	<path id="XMLID_1387_" class="st50" d="M200.4,20.4h-5.7c-0.4,0-0.7-0.3-0.7-0.7V19c0-0.4,0.3-0.7,0.7-0.7h5.7
		c0.4,0,0.7,0.3,0.7,0.7v0.7C201.1,20.1,200.8,20.4,200.4,20.4z"/>
	<path id="XMLID_1386_" class="st2" d="M182.1,3.4v3.8c0,4.5,3.7,8.2,8.2,8.2h3.4c1.8,0,3.2-1.1,3.8-2.6c0.4-0.9,1.3-1.5,2.3-1.5
		l0.1,0c2.3,0,4.2,1.9,4.2,4.2v5.2c0,2.6,2.1,4.7,4.7,4.7h5.3V14.5c0-6.1-5-11.1-11.1-11.1H182.1z"/>
	<path id="XMLID_1385_" class="st9" d="M182.1,3.4V7c0,4.6,3.8,8.4,8.4,8.4h3.3c1.8,0,3.2-1.1,3.8-2.6c0.4-0.9,1.3-1.5,2.3-1.5
		l0.1,0c2.3,0,4.2,1.9,4.2,4.2v5.2c0,2.6,2.1,4.7,4.7,4.7h5.3V14.5c0-6.1-5-11.1-11.1-11.1H182.1z"/>
	<path id="XMLID_1332_" class="st51" d="M213.1,14.5v10.9h-3.8c-0.4,0-0.8-0.1-1.2-0.2V14.6c0-6.2-4.6-11.2-10.4-11.2h4.3
		C208.1,3.4,213.1,8.3,213.1,14.5z"/>
	<path id="XMLID_1331_" class="st50" d="M189.4,20.4h-3.7c-0.4,0-0.7-0.3-0.7-0.7V19c0-0.4,0.3-0.7,0.7-0.7h3.7
		c0.4,0,0.7,0.3,0.7,0.7v0.7C190.1,20.1,189.8,20.4,189.4,20.4z"/>
	<path id="XMLID_1330_" class="st13" d="M207.7,25.5c0-1.8,1.4-3.2,3.2-3.2c1.8,0,3.2,1.4,3.2,3.2c0,1.8-1.4,3.2-3.2,3.2
		c-0.6,0-1.1-0.2-1.6-0.4"/>
	<path id="XMLID_1327_" class="st21" d="M210.9,24.2c0.7,0,1.3,0.6,1.3,1.3"/>
	<path id="XMLID_1326_" class="st43" d="M194.2,32.3c-0.5,0.7-1.4,1.1-2.3,1.1l0,0c-1,0-1.8-0.4-2.3-1.1"/>
	<circle id="XMLID_1325_" class="st2" cx="196.6" cy="23.9" r="0.8"/>
	<path id="XMLID_1086_" class="st39" d="M188.3,24.4h-2.4c-0.4,0-0.8-0.4-0.8-0.8v-0.4c0-0.4,0.4-0.8,0.8-0.8h2.4
		c0.4,0,0.8,0.4,0.8,0.8v0.4C189.1,24,188.7,24.4,188.3,24.4z"/>
	<path id="XMLID_1085_" class="st2" d="M187.3,23.9c0,0.5-0.4,0.8-0.8,0.8c-0.5,0-0.8-0.4-0.8-0.8c0-0.5,0.4-0.8,0.8-0.8
		C186.9,23.1,187.3,23.4,187.3,23.9z"/>
	<path id="XMLID_1084_" class="st52" d="M154.1,115.4h-43v-3.5c0-6.9,5.6-12.5,12.5-12.5h17.9c6.9,0,12.5,5.6,12.5,12.5V115.4z"/>
	<g id="XMLID_1081_">
		<path class="st53" d="M76.5,48.9l-5.7,2.9c-10.2,0-19.1-8.5-16.7-18.3l3.7-19.7c2-7.2,7.5-10.4,15-10.4h0
			c7.3,0,13.3,5.8,13.5,13.1c0,0.3-0.1,0.6-0.2,0.9l0,15.9C86.1,39.9,82.4,45.9,76.5,48.9z"/>
		<path class="st49" d="M76.5,48.9l-5.7,2.9c-10.2,0-19.1-8.5-16.7-18.3l3.7-19.7c2-7.2,7.5-10.4,15-10.4h0
			c7.3,0,13.3,5.8,13.5,13.1c0,0.3-0.1,0.6-0.2,0.9l0,15.9C86.1,39.9,82.4,45.9,76.5,48.9z"/>
	</g>
	<path id="XMLID_1078_" class="st54" d="M60.9,45.2c0.9-0.4,1.3-2.3,2.4-2.3l2.2-1.3c0-0.2-0.1-0.4-0.1-0.6c0-0.1,1.7-0.3,1.7-0.4
		v-4c-2.2-2.3-3.7-5.4-3.7-8.8L61.7,19l0.4,1.1v-1.4l-2.9,13.1C57.8,39,59.6,42,60.9,45.2z"/>
	<path id="XMLID_1077_" class="st55" d="M124.1,181.4h-13v-1.9c0-2.8,2.3-5.1,5.1-5.1h2.9c2.8,0,5.1,2.3,5.1,5.1V181.4z"/>
	<path id="XMLID_1075_" class="st55" d="M154.1,181.4h-13v-1.9c0-2.8,2.3-5.1,5.1-5.1h2.9c2.8,0,5.1,2.3,5.1,5.1V181.4z"/>
	<path id="XMLID_1074_" class="st26" d="M206.1,42.2c3,0.9,5.5,3.4,6.1,6.7l11.2,55.8c1.1,5.5-3.1,10.7-8.8,10.7h-12.5l-10.6-54.9
		c-1-7.7,2-16,3.9-17"/>
	<polygon id="XMLID_1065_" class="st56" points="113.1,90.5 113.1,101.4 152.1,101.4 152.1,91 150.7,89.2 	"/>
	<g id="XMLID_685_">
		<path id="XMLID_1064_" class="st2" d="M189.9,181.4h-1.6c-1.8,0-3.2-1.4-3.2-3.2v-4.8h8v4.8C193.1,179.9,191.7,181.4,189.9,181.4z
			"/>
		<path id="XMLID_1063_" class="st2" d="M208.9,181.4h-1.6c-1.8,0-3.2-1.4-3.2-3.2v-4.8h8v4.8C212.1,179.9,210.7,181.4,208.9,181.4z
			"/>
		<path id="XMLID_1060_" class="st2" d="M228.9,181.4h-1.6c-1.8,0-3.2-1.4-3.2-3.2v-4.8h8v4.8C232.1,179.9,230.7,181.4,228.9,181.4z
			"/>
		<rect id="XMLID_579_" x="203.1" y="120.4" class="st3" width="11" height="13"/>
		<rect id="XMLID_578_" x="206.1" y="133.4" class="st3" width="5" height="41"/>
		
			<rect id="XMLID_577_" x="203.1" y="125.4" transform="matrix(-1 -1.224647e-16 1.224647e-16 -1 417.1876 255.7491)" class="st4" width="11" height="5"/>
		
			<rect id="XMLID_1023_" x="206.1" y="133.4" transform="matrix(-1 -1.224647e-16 1.224647e-16 -1 417.1876 268.75)" class="st4" width="5" height="2"/>
		<rect id="XMLID_1014_" x="206.1" y="132.4" class="st19" width="5" height="39"/>
		<rect id="XMLID_951_" x="203.1" y="120.4" class="st19" width="11" height="13"/>
		<path id="XMLID_950_" class="st57" d="M234.1,176.4h-52v-1.5c0-1.9,1.6-3.5,3.5-3.5h45.1c1.9,0,3.5,1.6,3.5,3.5V176.4z"/>
		<path id="XMLID_737_" class="st58" d="M212.1,176.4h-8v-1.8c0-1.8,1.4-3.2,3.2-3.2h1.6c1.8,0,3.2,1.4,3.2,3.2V176.4z"/>
		<path id="XMLID_717_" class="st59" d="M186.1,115.4h41c2.2,0,4,1.8,4,4v2c0,2.2-1.8,4-4,4h-41c-2.2,0-4-1.8-4-4v-2
			C182.1,117.2,183.9,115.4,186.1,115.4z"/>
		<path id="XMLID_716_" class="st59" d="M224.1,125.4h6.3c2,0,3.7-1.7,3.7-3.7V52.9c0-2.8-2.2-5.1-5-5.1l0,0c-2.8,0-5,2.3-5,5.1
			v63.4"/>
	</g>
	<g id="XMLID_599_">
		<path id="XMLID_683_" class="st2" d="M82.3,181.4h1.6c1.8,0,3.2-1.4,3.2-3.2v-4.8h-8v4.8C79.1,179.9,80.5,181.4,82.3,181.4z"/>
		<path id="XMLID_682_" class="st2" d="M62.3,181.4h1.6c1.8,0,3.2-1.4,3.2-3.2v-4.8h-8v4.8C59.1,179.9,60.5,181.4,62.3,181.4z"/>
		<path id="XMLID_681_" class="st2" d="M42.3,181.4h1.6c1.8,0,3.2-1.4,3.2-3.2v-4.8h-8v4.8C39.1,179.9,40.5,181.4,42.3,181.4z"/>
		
			<rect id="XMLID_662_" x="58.1" y="120.4" transform="matrix(-1 -1.224647e-16 1.224647e-16 -1 127.1876 253.75)" class="st60" width="11" height="13"/>
		
			<rect id="XMLID_637_" x="61.1" y="133.4" transform="matrix(-1 -1.224647e-16 1.224647e-16 -1 127.1876 307.75)" class="st3" width="5" height="41"/>
		
			<rect id="XMLID_615_" x="61.1" y="132.4" transform="matrix(-1 -1.224647e-16 1.224647e-16 -1 127.1876 303.75)" class="st49" width="5" height="39"/>
		<path id="XMLID_603_" class="st61" d="M37.1,176.4h52v-1.5c0-1.9-1.6-3.5-3.5-3.5H40.6c-1.9,0-3.5,1.6-3.5,3.5V176.4z"/>
		<path id="XMLID_576_" class="st60" d="M59.1,176.4h8v-1.8c0-1.8-1.4-3.2-3.2-3.2h-1.6c-1.8,0-3.2,1.4-3.2,3.2V176.4z"/>
		<path id="XMLID_601_" class="st62" d="M87.1,115.4h-42c-2.2,0-4,1.8-4,4v2c0,2.2,1.8,4,4,4h42c2.2,0,4-1.8,4-4v-2
			C91.1,117.2,89.3,115.4,87.1,115.4z"/>
		<path id="XMLID_600_" class="st62" d="M47.1,125.4h-6c-2.2,0-4-1.8-4-4V52.9c0-2.8,2.2-5.1,5-5.1l0,0c2.8,0,5,2.3,5,5.1v63.4"/>
	</g>
	<path id="XMLID_587_" class="st35" d="M202.6,107.3l-25.9,5.2c-3.8,0.8-6.4,4.2-6.2,8.1l3.5,51.3"/>
	<polygon id="XMLID_581_" class="st63" points="195.3,79.6 196.4,85.5 206.7,53.6 	"/>
	<path id="XMLID_575_" class="st36" d="M108.5,94.6"/>
	<g id="XMLID_566_">
		<path id="XMLID_574_" class="st46" d="M151.2,68.4H162c0.6,0,1.1-0.5,1.1-1.1v-0.9c0-0.6-0.5-1.1-1.1-1.1h-10.9
			c-0.6,0-1.1,0.5-1.1,1.1v0.9C150.1,67.9,150.6,68.4,151.2,68.4z"/>
		<path id="XMLID_573_" class="st26" d="M150.9,68.4l1.1,14.2c0,0.4,0.4,0.8,0.9,0.8h7.6c0.4,0,0.8-0.3,0.9-0.8l1.1-14.2H150.9z"/>
		<path id="XMLID_572_" class="st17" d="M152.1,65.4h10v-0.6c0-0.6-0.5-1.2-1.1-1.2l-7.5-0.9c-0.7-0.1-1.4,0.5-1.4,1.2V65.4z"/>
		<path id="XMLID_571_" class="st27" d="M151,68.4l1.1,14.2c0,0.4,0.4,0.8,0.9,0.8h1.4l-1.1-15H151z"/>
		<path id="XMLID_570_" class="st9" d="M150.9,68.4l1.1,14.2c0,0.4,0.4,0.8,0.9,0.8h7.6c0.4,0,0.8-0.3,0.9-0.8l1.1-14.2H150.9z"/>
		<path id="XMLID_569_" class="st47" d="M150.7,70.8l0.7,10.1c0,0.2,0.2,0.4,0.4,0.4h2.3l-0.8-11h-2.2
			C150.9,70.4,150.7,70.6,150.7,70.8z"/>
		<path id="XMLID_568_" class="st48" d="M153.2,70.4l0.8,11h7.5c0.2,0,0.4-0.2,0.4-0.4l0.8-10.1c0-0.3-0.2-0.5-0.4-0.5H153.2z"/>
		<path id="XMLID_567_" class="st49" d="M162.8,70.9c0-0.3-0.2-0.5-0.4-0.5h-9.1h-2.2c-0.3,0-0.5,0.2-0.4,0.5l0.7,10.1
			c0,0.2,0.2,0.4,0.4,0.4h2.3h7.5c0.2,0,0.4-0.2,0.4-0.4L162.8,70.9z"/>
	</g>
	<g id="XMLID_563_">
		<rect id="XMLID_565_" x="129.1" y="93.4" class="st64" width="7" height="88"/>
		<path id="XMLID_564_" class="st6" d="M161.6,181.4h-58.1c-0.8,0-1.5-0.7-1.5-1.5v-1.1c0-0.8,0.7-1.5,1.5-1.5h58.1
			c0.8,0,1.5,0.7,1.5,1.5v1.1C163.1,180.7,162.4,181.4,161.6,181.4z"/>
	</g>
	<g id="XMLID_561_">
		<path id="XMLID_562_" class="st22" d="M168.1,73.4v10h-12.8c-3,0,2.7-3.5,3.6-6.7c0.5-2.1-5.4-3.3-3.2-3.3L168.1,73.4z"/>
	</g>
	<path id="XMLID_560_" class="st3" d="M229.8,127.4h-44.5c-2.4,0-4.3-1.9-4.3-4.3v-1.7h53v1.7C234.1,125.5,232.2,127.4,229.8,127.4z
		"/>
	<path id="XMLID_559_" class="st60" d="M86.8,127.4H41.4c-2.4,0-4.3-1.9-4.3-4.3v-1.7h54v1.7C91.1,125.5,89.2,127.4,86.8,127.4z"/>
	<path id="XMLID_558_" class="st55" d="M216.8,115.4h-17.7v-18h23.5l1.8,8.6C225.4,110.8,221.7,115.4,216.8,115.4z"/>
	<path id="XMLID_557_" class="st22" d="M161.1,73.4h-6.1c-0.8,0-1.5,0.7-1.5,1.5l0,0c0,0.8,0.7,1.5,1.5,1.5h6.1"/>
	<path id="XMLID_556_" class="st17" d="M192.8,47.6c-1.2,3-2.2,6.6-1.4,11.6c0.8,5,1.5,8.3,1.5,8.3l2.9-8.4c0,0-1.8-10.3-1.3-14.4
		C194.8,42.6,193.2,46.8,192.8,47.6z"/>
	<path id="XMLID_555_" class="st22" d="M161.1,76.4h-6.1c-0.8,0-1.5,0.7-1.5,1.5l0,0c0,0.8,0.7,1.5,1.5,1.5h6.1"/>
	<path id="XMLID_554_" class="st22" d="M161.1,80.4h-6.1c-0.8,0-1.5,0.7-1.5,1.5l0,0c0,0.8,0.7,1.5,1.5,1.5h6.1"/>
	<path id="XMLID_553_" class="st26" d="M209,51.4l-10.2,25c-1.7,4.2-5.8,7-10.3,7h-20.4v-10l17.2,0.1c0.4,0,0.8,0,1.1-0.1
		c2.1-0.4,3.9-1.8,4.8-3.8l7.9-18.9"/>
	<polygon id="XMLID_552_" class="st26" points="207.1,39.3 207.1,41.9 194.3,48 194.6,42 	"/>
	<polygon id="XMLID_551_" class="st26" points="194.4,42.4 193.4,42.4 192.8,48.9 	"/>
	<polyline id="XMLID_550_" class="st65" points="198.6,96.5 199.3,100 222,97.1 221.5,94.6 	"/>
	<path id="XMLID_549_" class="st26" d="M171.1,82.4h-1c-1.1,0-2-0.9-2-2v-6c0-1.1,0.9-2,2-2h1c1.1,0,2,0.9,2,2v6
		C173.1,81.5,172.2,82.4,171.1,82.4z"/>
	<circle id="XMLID_548_" class="st66" cx="170.6" cy="75.1" r="0.9"/>
	<g id="XMLID_389_">
		<path id="XMLID_391_" class="st67" d="M80.7,174.9c-0.8,0-1.6-0.2-2.3-0.5c-2.7-1.3-3.8-4.6-2.6-7.3l22.2-54.3
			c0-0.1,0.1-0.1,0-0.2c-0.1-0.1-0.2-0.1-0.2-0.1l-39.8,0c-2.6,0-5-1.8-5.5-4.3c-0.8-3.6,1.9-6.7,5.4-6.7l39.7,0c3,0,5.9,1,8.1,3.1
			c3.4,3.3,4.3,8.3,2.6,12.5l-22.2,54.5C84.9,173.6,82.8,174.9,80.7,174.9z"/>
	</g>
	<path id="XMLID_383_" class="st36" d="M113.7,94.6"/>
	
		<rect id="XMLID_382_" x="64.1" y="33.4" transform="matrix(-1 -1.224647e-16 1.224647e-16 -1 139.1876 77.75)" class="st22" width="11" height="11"/>
	<path id="XMLID_381_" class="st44" d="M87.1,18.9"/>
	<path id="XMLID_380_" class="st17" d="M64.3,42.2c-3,0.9-5.5,3.4-6.1,6.7l-10.9,54.4c-1.3,6.3,3.5,12.1,9.9,12.1h11l8.7-44.5
		l4.4-1.4c6.1-1.9,7.2-10,1.9-13.7c-8.5-5.8-7.2-11.9-8.2-12.4"/>
	<g id="XMLID_378_">
		<path id="XMLID_379_" class="st37" d="M91.7,176.6c-1.7,0-3.5-0.7-5.4-2.3c-0.8-0.7-1.4-2.2-1.3-3.3l7.3-57.6l-31.6,0
			c-1.1,0-2.1-0.5-2.8-1.3c-4.6-5.5-0.8-11.7,4.4-11.7l32.6,0c0.5,0,0.9,0,1.4,0.1c6.3,1.4,9.8,7.1,9.1,12.6l-7.3,57.8
			C97.7,174.2,94.9,176.6,91.7,176.6z"/>
	</g>
	<polygon id="XMLID_377_" class="st26" points="64.1,39.3 64.1,41.9 76.9,48 76.5,42 	"/>
	<polygon id="XMLID_376_" class="st26" points="76,42 77.6,42.3 78,48.5 76.3,47.3 	"/>
	<polyline id="XMLID_375_" class="st65" points="71.8,96.5 71.1,100 50.2,97.3 48.9,94.6 	"/>
	<path id="XMLID_374_" class="st68" d="M126.8,79.3"/>
	<path id="XMLID_373_" class="st68" d="M130.2,74.4"/>
	<path id="XMLID_372_" class="st68" d="M138.2,79"/>
	<path id="XMLID_371_" class="st69" d="M77.2,163.9c0,0-0.9,4.5,5.8,8.5c6.7,4.1,7.8,3.8,9.4,3c1-0.5,1.2-2.2,1.2-2.2
		s5.3,3.1,5.6,5.1c0.2,1.8-5.2,3.3-9.5,3c-4.3-0.3-11.6-7.3-11.6-7.3v7.3h-3v-14.1C75.1,167.3,75.1,164.9,77.2,163.9z"/>
	<path id="XMLID_370_" class="st68" d="M128.9,76.6"/>
	<path id="XMLID_369_" class="st68" d="M134.2,79.7"/>
	<path id="XMLID_368_" class="st70" d="M115.5,69.7c0,0.3-0.2,0.5-0.5,0.4c-0.3,0-0.5-0.2-0.4-0.5c0-0.3,0.2-0.5,0.5-0.4
		C115.4,69.3,115.6,69.5,115.5,69.7z"/>
	<path id="XMLID_332_" class="st37" d="M98.1,168.9l4,4.4v2.5c0,0-2.4,1.6-3,1.7c-0.7,0-8.7-3.3-8.7-3.6c0-0.2-3.4-0.4-1.5-2.1"/>
	<path id="XMLID_91_" class="st68" d="M132.3,76.8"/>
	<path id="XMLID_90_" class="st40" d="M148.1,67.4c-0.8-2.1-1.7-4.3-1.7-4.3c-0.3-0.6-1.1-0.9-1.9-0.6l-1.8,0.7
		c-0.8,0.3-1.2,1.1-0.9,1.7l1.4,3.4l1.7,4.3c0.3,0.6,1.1,0.9,1.9,0.6l1.8-0.7c0.8-0.3,1.2-1.1,0.9-1.7
		C149.5,70.8,148.8,69.2,148.1,67.4z"/>
	<path id="XMLID_89_" class="st14" d="M118.3,76.4h-2c-0.7,0-1.2-0.5-1.2-1.2v-0.6c0-0.7,0.5-1.2,1.2-1.2h2c0.4,0,0.8,0.4,0.8,0.8
		v1.4C119.1,76,118.7,76.4,118.3,76.4z"/>
	<path id="XMLID_88_" class="st14" d="M118.2,79.4h-1.9c-0.7,0-1.2-0.5-1.2-1.2v-0.6c0-0.7,0.5-1.2,1.2-1.2h1.9
		c0.5,0,0.9,0.4,0.9,0.9v1.1C119.1,79,118.7,79.4,118.2,79.4z"/>
	<path id="XMLID_87_" class="st14" d="M117.2,83.4h-1.9c-0.7,0-1.2-0.5-1.2-1.2v-0.6c0-0.7,0.5-1.2,1.2-1.2h1.9
		c0.5,0,0.9,0.4,0.9,0.9v1.1C118.1,83,117.7,83.4,117.2,83.4z"/>
	<path id="XMLID_86_" class="st0" d="M87.1,115.4H59.6c-6.4,0-11.4-5.5-10.8-11.8l0.8-8.2h22.7l-0.6,4h15.4V115.4z"/>
	<path id="XMLID_85_" class="st71" d="M86,164.1c0,0-0.6,4.4,6,8.4c6.7,4.1,7.8,3.8,9.4,3c1-0.5,1.2-2.2,1.2-2.2s5.3,3.1,5.6,5.1
		c0.2,1.8-5.2,3.3-9.5,3c-4.3-0.3-11.6-7.3-11.6-7.3v7.3h-3l0-14.1C84.1,167.3,83.8,165.1,86,164.1z"/>
	<path id="XMLID_84_" class="st72" d="M66,55.9l19.2,4.8c0,0-0.2,3.1-2.2,5.5"/>
	<line id="XMLID_83_" class="st26" x1="195.3" y1="79.6" x2="196" y2="83.3"/>
	<path id="XMLID_82_" class="st56" d="M124.1,174.4h-13v-69.9c0-2.8,2.3-5.1,5.1-5.1h2.9c2.8,0,5.1,2.3,5.1,5.1V174.4z"/>
	<path id="XMLID_81_" class="st56" d="M154.1,174.4h-13v-69.9c0-2.8,2.3-5.1,5.1-5.1h2.9c2.8,0,5.1,2.3,5.1,5.1V174.4z"/>
	<path id="XMLID_80_" class="st73" d="M180.1,179.8c0,0.9-0.7,1.6-1.6,1.6h-22.2c-1.4,0-2.5-1.1-2.5-2.5l0,0c0-1.1,0.8-2.1,1.8-2.4
		l11.3-3.1h13.1V179.8z"/>
	<path id="XMLID_79_" class="st15" d="M180.1,179.8c0,0.9-0.7,1.6-1.6,1.6h-21.9c-1.4,0-2.5-1.1-2.5-2.5l0,0c0-1.1,0.7-2.1,1.8-2.4
		l12.1-3.3l12,0.2V179.8z"/>
	<path id="XMLID_78_" class="st65" d="M179.8,181.4h-23.3c-0.7,0-1.3-0.6-1.3-1.3v-0.7h26v0.7C181.1,180.8,180.5,181.4,179.8,181.4z
		"/>
	<line id="XMLID_77_" class="st15" x1="259.1" y1="181.4" x2="1.1" y2="181.4"/>
	<path id="XMLID_76_" class="st74" d="M145.3,64.9c0,0.5-0.4,0.9-0.9,0.9c-0.5,0-0.9-0.4-0.9-0.9c0-0.5,0.4-0.9,0.9-0.9
		C144.9,64.1,145.3,64.4,145.3,64.9z"/>
	<path id="XMLID_75_" class="st14" d="M138.4,65.9l3.1-1.2l3.5,8.1l-3.1,1.4c-0.2,0.3-0.5,0.6-0.7,0.9l-9.9,5.3l-11-6l10.8-5.5"/>
	<path id="XMLID_74_" class="st22" d="M132.6,78l0.7,0.3c0.7,0.3,0.9,1.1,0.6,1.8c-0.3,0.6-1.1,0.9-1.7,0.6l-1.1-0.5l-2.7-1.2
		l-3.8-1.7l-1.1-0.5c-1.4-0.6-2.6-1.6-3.6-2.8c0,0-3-1.3-3.1-1.4c0-0.1,0-0.1,0-0.1l2.4-7.3l2.4,0.9c0.6,0.2,1.2,0.1,1.8-0.2
		l1.5-0.9l0,0c0,0,2.6,0.5,2.7,0.5c0,0,3.3,0.6,3.3,0.6l-0.1,1.6c-0.1,0.4,0,1,0.5,1.2l1.1,0.6l8.6,3.7c0.7,0.3,1,1.2,0.6,1.8
		c-0.3,0.6-1.3,0.7-1.9,0.4l-2.1-0.9"/>
	<path id="XMLID_73_" class="st14" d="M138.5,66l-1.6-0.8c-1.4-0.8-3-1.2-4.7-1.2l-1.2,0l-4.9,0.2c-0.8,0-1.4,0.7-1.4,1.5
		c0.1,0.8,0.7,1.4,1.5,1.3l0.8,0l2-0.1c0.6,0,1.2,0.2,1.6,0.6c0.3,0.2,0.3,0.6,0.3,0.9c0,0,0,0.3,0.1,0.5"/>
	<path id="XMLID_72_" class="st22" d="M122.3,78.6l-0.4-0.7c-0.3-0.6-0.1-1.4,0.5-1.7l2.8-1.6c0.6-0.3,1.4-0.1,1.7,0.5l0.4,0.7
		c0.3,0.6,0.1,1.4-0.5,1.7l-2.8,1.6C123.4,79.5,122.6,79.2,122.3,78.6z"/>
	<path id="XMLID_71_" class="st22" d="M137.8,72l3.7,1.6c0.8,0.3,1.2,1.3,0.9,2.1l0,0.1c-0.3,0.8-1.3,1.2-2.1,0.9l-3.8-1.6"/>
	<path id="XMLID_70_" class="st22" d="M136.1,75l2.6,1.1c0.8,0.3,1.2,1.3,0.9,2.1l0,0.1c-0.3,0.8-1.3,1.2-2.1,0.9l-4.7-1.9"/>
	<path id="XMLID_69_" class="st22" d="M132.7,77.2l2.3,1c0.8,0.3,1.2,1.3,0.9,2.1l0,0.1c-0.3,0.8-1.3,1.2-2.1,0.9l-3.8-1.6"/>
	<path id="XMLID_68_" class="st22" d="M123.5,73.8L123.5,73.8c0.4,0.8,0.2,1.8-0.6,2.2l-2.1,1.2c-0.8,0.4-1.8,0.2-2.2-0.6l0,0
		c-0.4-0.8-0.2-1.8,0.6-2.2l2.1-1.2C122.1,72.7,123.1,73,123.5,73.8"/>
	<path id="XMLID_67_" class="st22" d="M126,80.3l-0.4-0.7c-0.3-0.6-0.1-1.4,0.5-1.7l1.7-1c0.6-0.3,1.4-0.1,1.7,0.5l0.4,0.7
		c0.3,0.6,0.1,1.4-0.5,1.7l-1.7,1C127.2,81.1,126.4,80.9,126,80.3z"/>
	<g id="XMLID_65_">
		<path id="XMLID_66_" class="st22" d="M120.2,65.7L71,48.1c-2.4-0.9-0.2,0.9-1,3.3c-0.9,2.4,0,5.1,2.4,5.9l46.2,16.3"/>
	</g>
	<path id="XMLID_64_" class="st71" d="M67.2,53"/>
	<path id="XMLID_63_" class="st17" d="M66,55.9l13.2,4.4c0.6,0.2,1.3-0.1,1.5-0.7l2.3-6.7c0.2-0.6-0.1-1.3-0.7-1.5l-12.4-4.5"/>
	<path id="XMLID_62_" class="st75" d="M84.6,31.1c0-4.9-2-12.5,0.2-15.1c1.2-1.4,4.2,0.7,4.1,0.8L84.6,31.1z"/>
	<path id="XMLID_61_" class="st22" d="M62.8,19.5l0.3,8.5v0c0,6.7,5.4,12.1,12,12.1l0,0c6.6,0,12-5.4,12-12.1v-8.9v-1.5
		c0-3.4-2.8-6.2-6.2-6.2l-11.5,0c-3.4,0-6.2,2.8-6.2,6.2v2.8"/>
	<path id="XMLID_60_" class="st24" d="M62.5,20.6l-0.4,8.5v0c0.3,6.7,13.4,12.3,13.4,12.3h2.1c0,0,0.3-0.1,0.4-0.1
		c-7-0.2-12.6-5.6-13-12.2v0l0.4-8.5l-0.4,1v-3c0.3-3.5,7-6.2,7-6.2h-3c0,0-6.7,2.8-7,6.2v3L62.5,20.6z"/>
	<path id="XMLID_59_" class="st9" d="M62.8,19.5l0.3,8.5v0.3c0,6.6,5.4,12,12,12h0c6.6,0,12-5.4,12-12v-9.2v-1.6
		c0-3.4-2.8-6.2-6.2-6.2l-11.7,0c-3.4,0-6.2,2.8-6.2,6.2v2.8"/>
	<path id="XMLID_58_" class="st44" d="M88.9,19.5"/>
	<path id="XMLID_57_" class="st9" d="M79.7,29.4c1,0,1.8-0.8,1.8-1.8"/>
	<path id="XMLID_56_" class="st76" d="M86.8,23.2c0,0-1-1-2.4-1c-2.1,0-2.4,1.1-2.4,1.1s-0.8-2.9,2.4-2.9S86.8,23.2,86.8,23.2z"/>
	<path id="XMLID_55_" class="st45" d="M61.1,26"/>
	<path id="XMLID_54_" class="st9" d="M86.7,21.4c-0.7-0.8-1.7-1.2-2.8-1c-0.8,0.1-1.5,0.6-1.9,1.2"/>
	<path id="XMLID_53_" class="st2" d="M83.7,23.5c0,0.6,0.5,1.1,1.1,1.1s1.1-0.5,1.1-1.1s-0.5-1.1-1.1-1.1S83.7,23,83.7,23.5z"/>
	<path id="XMLID_52_" class="st77" d="M82,33.1c0,0-0.2,0.3-0.4,0.5c-0.2,0.3-0.4,0.5-0.7,0.7c-0.9,0.4-2,0.4-2.8-0.2
		c-0.2-0.1-0.3-0.3-0.4-0.4L77.2,33c0.9,0,1.2-0.6,1.7-0.6h1.7C81.1,32.4,81.2,33.1,82,33.1z"/>
	<path id="XMLID_51_" class="st9" d="M86.6,22.9c0,0-2-1.5-4.7,0"/>
	<path id="XMLID_50_" class="st44" d="M79.7,20.3"/>
	<path id="XMLID_49_" class="st76" d="M77.2,23.2c0,0-1-1-2.4-1c-2.1,0-2.4,1.1-2.4,1.1s-0.8-2.9,2.4-2.9
		C77.8,20.4,77.2,23.2,77.2,23.2z"/>
	<path id="XMLID_48_" class="st9" d="M77.1,21.4c-0.7-0.8-1.7-1.2-2.8-1c-0.8,0.1-1.5,0.6-1.9,1.2"/>
	<path id="XMLID_47_" class="st2" d="M74.3,23.5c0,0.6,0.5,1.1,1.1,1.1s1.1-0.5,1.1-1.1s-0.5-1.1-1.1-1.1S74.3,23,74.3,23.5z"/>
	<path id="XMLID_46_" class="st9" d="M77.1,22.9c0,0-2-1.5-4.7,0"/>
	<path id="XMLID_45_" class="st78" d="M82.7,33.1c0,0-0.7,0.8-2.9,0.8s-3-0.8-3-0.8"/>
	<g id="XMLID_44_">
		<path class="st53" d="M65.1,26.4l0-3.7c0-0.4,0.4-0.8,0.8-0.8c5,0,17.8-1.2,22.8-5.1l0,0c0-7.5-5.9-14.6-15.7-14.6l0,0
			c-7.5,0-14.3,4.2-15.8,12.3l-1.9,9.9"/>
		<path class="st49" d="M65.1,26.4l0-3.7c0-0.4,0.4-0.8,0.8-0.8c5,0,17.8-1.2,22.8-5.1l0,0c0-7.5-5.9-14.6-15.7-14.6l0,0
			c-7.5,0-14.3,4.2-15.8,12.3l-1.9,9.9"/>
	</g>
	<path id="XMLID_43_" class="st14" d="M65.3,26.3c0-1.7-1.4-3-3-3c-1.7,0-3,1.4-3,3s1.4,3,3,3c0.5,0,1.1-0.1,1.5-0.4"/>
	<path id="XMLID_42_" class="st9" d="M62.3,25.1c-0.7,0-1.2,0.6-1.2,1.2"/>
	<line id="XMLID_41_" class="st79" x1="116.3" y1="72.7" x2="118.8" y2="65.3"/>
	<path id="XMLID_40_" class="st16" d="M61.7,28.8c0,0.4,0.4,0.8,0.8,0.8s0.8-0.4,0.8-0.8c0-0.4-0.4-0.8-0.8-0.8S61.7,28.4,61.7,28.8
		z"/>
	<path id="XMLID_39_" class="st26" d="M120.2,68.5c0,1.4-1.1,2.5-2.5,2.5s-2.5-1.1-2.5-2.5c0-1.4,1.1-2.5,2.5-2.5
		S120.2,67.2,120.2,68.5z"/>
	<path id="XMLID_38_" class="st0" d="M69.1,93.4h130c2.2,0,4-1.8,4-4v-2c0-2.2-1.8-4-4-4h-130c-2.2,0-4,1.8-4,4v2
		C65.1,91.6,66.9,93.4,69.1,93.4z"/>
	<path id="XMLID_37_" class="st80" d="M203,89.9c-0.6,2.1-2.7,3.5-4.9,3.5l-127.7,0c-1.4,0-2.7-0.5-3.6-1.4
		c-0.9-0.9-1.5-2.1-1.5-3.4c0-0.7,0.2-1.4,0.5-2c0.3,0.5,0.6,1,1,1.4c0.9,0.9,2.2,1.4,3.6,1.4H198c2.1,0,3.8-1.1,4.7-2.8
		C203.1,87.6,203.3,88.7,203,89.9z"/>
	<path id="XMLID_36_" class="st15" d="M69.1,93.4h130c2.2,0,4-1.8,4-4v-2c0-2.2-1.8-4-4-4h-130c-2.2,0-4,1.8-4,4v2
		C65.1,91.6,66.9,93.4,69.1,93.4z"/>
	<polyline id="XMLID_12_" class="st81" points="129.1,100.4 129.1,93.4 136.1,93.4 136.1,100.4 	"/>
</g>
</svg>
