<?xml version="1.0" encoding="utf-8"?>
<!-- Generator: Adobe Illustrator 22.1.0, SVG Export Plug-In . SVG Version: 6.00 Build 0)  -->
<svg version="1.1" id="Capa_1" xmlns="http://www.w3.org/2000/svg" xmlns:xlink="http://www.w3.org/1999/xlink" x="0px" y="0px"
	 viewBox="0 0 260.2 182.5" style="enable-background:new 0 0 260.2 182.5;" xml:space="preserve">
<style type="text/css">
	.st0{clip-path:url(#SVGID_2_);}
	.st1{fill:#FFEDD9;stroke:#640917;stroke-width:2.3642;stroke-linecap:round;stroke-miterlimit:10;}
	.st2{fill:#EDAF5D;stroke:#630B18;stroke-width:0.75;stroke-miterlimit:10;}
	.st3{fill:#9E513C;stroke:#640917;stroke-miterlimit:10;}
	.st4{fill:#CE3E3E;}
	.st5{fill:none;stroke:#640917;stroke-linecap:round;stroke-miterlimit:10;}
	.st6{fill:#CC4040;stroke:#640917;stroke-linecap:round;stroke-miterlimit:10;}
	.st7{fill:#FFFFFF;stroke:#640917;stroke-linecap:round;stroke-miterlimit:10;}
	.st8{fill:#E25959;stroke:#640917;stroke-linecap:round;stroke-miterlimit:10;}
	.st9{fill:#F7F0ED;}
	.st10{fill:#9FCCC9;}
	.st11{fill:#CDE0DF;}
	.st12{fill:none;stroke:#640917;stroke-miterlimit:10;}
	.st13{fill:none;stroke:#640917;stroke-width:2.3642;stroke-miterlimit:10;}
	
		.st14{fill-rule:evenodd;clip-rule:evenodd;fill:#FF9F36;stroke:#640917;stroke-width:2.3642;stroke-linecap:round;stroke-miterlimit:10;}
	.st15{fill-rule:evenodd;clip-rule:evenodd;fill:#FFFFFF;stroke:#640917;stroke-width:2.3642;stroke-miterlimit:10;}
	
		.st16{fill-rule:evenodd;clip-rule:evenodd;fill:#E25959;stroke:#640917;stroke-width:2.3642;stroke-linecap:round;stroke-miterlimit:10;}
	.st17{fill:#E25959;stroke:#640917;stroke-width:2.3642;stroke-linecap:round;stroke-miterlimit:10;}
	.st18{fill:#CDE0DF;stroke:#640917;stroke-width:2.3642;stroke-miterlimit:10;}
	.st19{fill:#B2654D;stroke:#640917;stroke-miterlimit:10;}
	.st20{fill:#CDE0DF;stroke:#640917;stroke-miterlimit:10;}
	.st21{fill:#9FCCC9;stroke:#640917;stroke-miterlimit:10;}
	.st22{fill:#F7F0ED;stroke:#630B18;stroke-miterlimit:10;}
	.st23{fill:#FFFFFF;stroke:#640917;stroke-width:0.75;stroke-linecap:round;stroke-miterlimit:10;}
	.st24{fill:#FFFFFF;stroke:#640917;stroke-width:2.3642;stroke-linecap:round;stroke-miterlimit:10;}
	.st25{fill:none;stroke:#640917;stroke-width:2.3642;stroke-linecap:round;stroke-miterlimit:10;}
	.st26{fill:#640917;}
	.st27{fill:#EDAF5D;}
	.st28{fill:none;stroke:#2E2F73;stroke-width:2.3642;stroke-linecap:round;stroke-miterlimit:10;}
	.st29{fill:#EDB67A;stroke:#640917;stroke-width:0.75;stroke-linecap:round;stroke-miterlimit:10;}
	.st30{fill:#FFEDD9;stroke:#640917;stroke-width:0.75;stroke-linecap:round;stroke-miterlimit:10;}
	.st31{fill:#FCD3B6;}
	.st32{fill:none;stroke:#640917;stroke-width:0.75;stroke-linecap:round;stroke-miterlimit:10;}
	.st33{fill:#FFF3E4;stroke:#640917;stroke-width:2.3642;stroke-linecap:round;stroke-miterlimit:10;}
	.st34{fill:#E8B592;}
	.st35{fill:#FFD671;}
	.st36{fill:none;stroke:#640917;stroke-width:0.75;stroke-miterlimit:10;}
	.st37{fill:#FFFFFF;}
	.st38{fill:#ABC9C7;}
	.st39{fill:#E2CDC7;stroke:#630B18;stroke-miterlimit:10;}
	.st40{fill:#FF9F36;stroke:#640917;stroke-linecap:round;stroke-miterlimit:10;}
	.st41{fill:none;stroke:#E25959;stroke-width:0.75;stroke-linecap:round;stroke-miterlimit:10;}
	.st42{fill:#E2CDC7;}
	.st43{fill:#FFEDD9;stroke:#640917;stroke-linecap:round;stroke-miterlimit:10;}
	.st44{fill:#FFEDDA;}
	.st45{fill:#CC4040;}
</style>
<g>
	<defs>
		<rect id="SVGID_1_" x="29.3" y="3.4" width="202.4" height="176.3"/>
	</defs>
	<clipPath id="SVGID_2_">
		<use xlink:href="#SVGID_1_"  style="overflow:visible;"/>
	</clipPath>
	<g id="XMLID_2524_" class="st0">
		
			<rect id="XMLID_4010_" x="84.8" y="34.4" transform="matrix(-1 -1.224647e-16 1.224647e-16 -1 182.7948 79.3262)" class="st1" width="13.2" height="10.5"/>
		<path id="XMLID_4006_" class="st2" d="M97.2,49.1l-5.5,2.8c-9.8,0-18.5-8.2-16.2-17.8L79.1,15c1.9-6.9,7.2-10.1,14.5-10.1h0
			c7.1,0,12.9,5.6,13.1,12.7c0,0.3-0.1,0.6-0.2,0.9l0,15.5C106.6,40.3,102.9,46.2,97.2,49.1z"/>
		<g id="XMLID_4004_">
			<path id="XMLID_4005_" class="st3" d="M102.6,173.6c-0.7,0-1.4-0.1-2-0.4c-2.7-1.1-4-4.2-2.9-6.9l21.6-52.9c0-0.1,0.1-0.1,0-0.2
				c-0.1-0.1-0.1-0.1-0.2-0.1l-38.7,0c-2.9,0-5.3-2.4-5.3-5.3c0-2.9,2.4-5.3,5.3-5.3l38.7,0c3.7,0,7.1,1.8,9.1,4.9
				c2,3.1,2.4,6.9,0.9,10.2l-21.5,52.8C106.7,172.4,104.7,173.6,102.6,173.6z"/>
		</g>
		<path id="XMLID_4002_" class="st4" d="M98.1,164.7l3.6,1.6c1.6,0.7,2.8,2.2,3,3.9l1.2,7.5l-11.3-4.9L98.1,164.7z"/>
		<line id="XMLID_4001_" class="st5" x1="99.5" y1="169.2" x2="96.6" y2="168"/>
		<g id="XMLID_3992_">
			<path id="XMLID_4000_" class="st6" d="M158.8,72.1h-9c-0.6,0-1.1-0.5-1.1-1.1v-0.2c0-0.6,0.5-1.1,1.1-1.1h9
				c0.6,0,1.1,0.5,1.1,1.1V71C159.9,71.6,159.4,72.1,158.8,72.1z"/>
			<path id="XMLID_3999_" class="st7" d="M159,72.1l-0.9,11.7c0,0.4-0.3,0.7-0.7,0.7h-6.3c-0.4,0-0.7-0.3-0.7-0.7l-0.9-11.7H159z"/>
			<path id="XMLID_3998_" class="st8" d="M158.4,69.8h-8.1v-0.5c0-0.5,0.4-1,0.9-1l6-0.7c0.6-0.1,1.2,0.4,1.2,1V69.8z"/>
			<path id="XMLID_3997_" class="st9" d="M159,72.1l-0.9,11.7c0,0.4-0.3,0.7-0.7,0.7h-1.1l0.9-12.4H159z"/>
			<path id="XMLID_3996_" class="st5" d="M159,72.1l-0.9,11.7c0,0.4-0.3,0.7-0.7,0.7h-6.3c-0.4,0-0.7-0.3-0.7-0.7l-0.9-11.7H159z"/>
			<path id="XMLID_3995_" class="st10" d="M159.3,74l-0.6,8.3c0,0.2-0.2,0.3-0.4,0.3h-1.8l0.7-9h1.8C159.1,73.7,159.3,73.8,159.3,74
				z"/>
			<path id="XMLID_3994_" class="st11" d="M157.1,73.7l-0.7,9h-6.1c-0.2,0-0.4-0.1-0.4-0.3l-0.6-8.3c0-0.2,0.2-0.4,0.4-0.4H157.1z"
				/>
			<path id="XMLID_3993_" class="st12" d="M149.7,73.7h7.4h1.8c0.2,0,0.4,0.2,0.4,0.4l-0.6,8.3c0,0.2-0.2,0.3-0.4,0.3h-1.8h-6.1
				c-0.2,0-0.4-0.1-0.4-0.3l-0.6-8.3C149.3,73.8,149.5,73.7,149.7,73.7z"/>
		</g>
		<g id="XMLID_3967_">
			<g id="XMLID_3982_">
				<polygon id="XMLID_3991_" class="st13" points="165.6,178.2 147.6,178.2 137.9,142.9 175.1,142.9 				"/>
				<polygon id="XMLID_3990_" class="st14" points="150,176.4 147.8,175.2 146.5,173 146.5,170.5 147.8,168.3 150,167 152.5,167 
					154.7,168.3 156,170.5 156,173 154.7,175.2 152.5,176.4 				"/>
				<polygon id="XMLID_3989_" class="st15" points="155.5,176.4 153.4,175.1 152.1,173 152.1,170.5 153.4,168.3 155.5,167.1 
					158,167.1 160.2,168.3 161.4,170.5 161.4,173 160.2,175.1 158,176.4 				"/>
				<polygon id="XMLID_3988_" class="st14" points="160.8,176.4 158.7,175.1 157.4,173 157.4,170.5 158.7,168.3 160.8,167.1 
					163.3,167.1 165.5,168.3 166.7,170.5 166.7,173 165.5,175.1 163.3,176.4 				"/>
				<path id="XMLID_3987_" class="st15" d="M164.6,167.6l1.7,0.7c0.9,0.3,1.8-0.1,2.1-1l1.5-5.4c0.2-0.8-0.2-1.6-0.9-1.9l-1.7-0.7
					c-0.9-0.4-1.9,0.1-2.1,1l-1.5,5.5C163.5,166.5,163.9,167.3,164.6,167.6z"/>
				<path id="XMLID_3986_" class="st16" d="M157.3,164.6l0.2-0.8c0.3-1.1,1.5-1.7,2.5-1.2l2.4,1c0.9,0.4,1.4,1.4,1,2.4l-0.2,0.7
					c-0.3,1-1.4,1.5-2.4,1.1l-2.4-0.9C157.5,166.6,157,165.6,157.3,164.6z"/>
				<polygon id="XMLID_3985_" class="st15" points="152.3,170.3 150.5,169.3 149.4,167.4 149.4,165.2 150.5,163.4 152.3,162.3 
					154.5,162.3 156.3,163.4 157.4,165.2 157.4,167.4 156.3,169.3 154.5,170.3 				"/>
				<path id="XMLID_3984_" class="st17" d="M175.1,144l-37.2,0c-0.6,0-1-0.5-1-1v-0.2c0-0.6,0.5-1,1-1h37.2c0.6,0,1,0.5,1,1v0.2
					C176.1,143.5,175.7,144,175.1,144z"/>
				<path id="XMLID_3983_" class="st16" d="M165.4,179.1h-18c-0.5,0-0.9-0.4-0.9-0.9V178c0-0.5,0.4-0.9,0.9-0.9h18
					c0.5,0,0.9,0.4,0.9,0.9v0.2C166.3,178.7,165.9,179.1,165.4,179.1z"/>
			</g>
			<line id="XMLID_3981_" class="st18" x1="138" y1="144" x2="169.8" y2="162.4"/>
			<line id="XMLID_3980_" class="st18" x1="140.1" y1="151" x2="168.7" y2="167.5"/>
			<line id="XMLID_3979_" class="st18" x1="158.2" y1="143.8" x2="172.6" y2="152.1"/>
			<line id="XMLID_3978_" class="st18" x1="148.6" y1="144" x2="171.3" y2="157.1"/>
			<line id="XMLID_3977_" class="st18" x1="142" y1="157.9" x2="167.1" y2="172.5"/>
			<line id="XMLID_3976_" class="st18" x1="143.9" y1="164.7" x2="165.7" y2="177.3"/>
			<line id="XMLID_3975_" class="st18" x1="145.6" y1="171" x2="156.1" y2="177.1"/>
			<line id="XMLID_3974_" class="st18" x1="175.1" y1="144.2" x2="143.2" y2="162.6"/>
			<line id="XMLID_3973_" class="st18" x1="172.9" y1="151.2" x2="144.4" y2="167.7"/>
			<line id="XMLID_3972_" class="st18" x1="154.8" y1="144" x2="140.4" y2="152.3"/>
			<line id="XMLID_3971_" class="st18" x1="164.4" y1="144.2" x2="141.8" y2="157.3"/>
			<line id="XMLID_3970_" class="st18" x1="171" y1="158.1" x2="145.9" y2="172.7"/>
			<line id="XMLID_3969_" class="st18" x1="169.1" y1="164.9" x2="147.3" y2="177.5"/>
			<line id="XMLID_3968_" class="st18" x1="167.4" y1="171.2" x2="156.9" y2="177.3"/>
		</g>
		<g id="XMLID_3965_">
			<path id="XMLID_3966_" class="st19" d="M107.7,160.4l5.9-46.5l-28.5,0c-3.4,0-6.2-2.8-6.2-6.2c0-3.4,2.8-6.2,6.2-6.2l30.3,0
				c3.1,0,6,1.3,8.1,3.7c2,2.3,3,5.4,2.6,8.5l-5.6,46.7H107.7z"/>
		</g>
		<g id="XMLID_3962_">
			<rect id="XMLID_3964_" x="152.6" y="94.2" class="st20" width="43.5" height="85.2"/>
			<path id="XMLID_3963_" class="st21" d="M199.2,179.4h-55.8c-1,0-1.7-0.8-1.7-1.7v-0.3c0-1,0.8-1.7,1.7-1.7l55.8,0
				c1,0,1.7,0.8,1.7,1.7v0.3C200.9,178.6,200.1,179.4,199.2,179.4z"/>
		</g>
		
			<rect id="XMLID_3961_" x="85.7" y="35.8" transform="matrix(-1 -1.224647e-16 1.224647e-16 -1 182.4548 82.0692)" class="st1" width="11" height="10.5"/>
		<g id="XMLID_3959_">
			<path id="XMLID_3960_" class="st22" d="M96.7,50.9l13.5,25.3l15.1,2.3c1.4,0-15.5,5.8-15.5,5.8c-2.7,0-5.2-1.5-6.5-3.9L89.5,54.7
				"/>
		</g>
		<path id="XMLID_3958_" class="st7" d="M86.7,44.1c-2.9,0.8-5.3,3.3-5.9,6.5l-9,44.9c-1.1,5.4,5.4,15.6,10.9,15.6l11.7-15.6
			L98.9,72l0.9-0.3c5.9-1.9,8.3-10.2,5.2-15c0,0-7-10.8-8-11.3"/>
		<path id="XMLID_3957_" class="st23" d="M85.9,41.8v2.5l13.7,5.7l-1.1-3.9c-0.3-1.1-1.2-1.9-2.3-2.1L85.9,41.8z"/>
		<polyline id="XMLID_3956_" class="st24" points="94,97.2 93.3,100.6 73,98 71.8,95.5 		"/>
		<path id="XMLID_3955_" class="st1" d="M119.1,167.2l4.1,4.5v2.4c0,0-2.3,1.6-3,1.6c-0.6,0-8.4-3.2-8.4-3.5c0-0.2-3.3-0.4-1.5-2"/>
		<path id="XMLID_3954_" class="st19" d="M82.4,113.9l-1.7,0c-6.3,0-11.1-5.7-10-11.9l1.1-6.5h22.6l-0.8,6l1,0"/>
		<line id="XMLID_3953_" class="st25" x1="225.9" y1="179.4" x2="35.4" y2="179.4"/>
		<path id="XMLID_3952_" class="st17" d="M89.5,55.1"/>
		<path id="XMLID_3951_" class="st26" d="M105,179.6h0.7c2.1,0,3.7-1.7,3.7-3.7v-4.5h-8.2v4.5C101.3,178,103,179.6,105,179.6z"/>
		<path id="XMLID_3950_" class="st26" d="M66.2,179.6h0.7c2.1,0,3.7-1.7,3.7-3.7v-4.5l-8.2,0v4.5C62.4,178,64.1,179.6,66.2,179.6z"
			/>
		<path id="XMLID_3947_" class="st27" d="M82,45.1c0.9-0.4,1.3-2.2,2.4-2.2l2.2-1.2c0-0.2-0.1-0.4-0.1-0.6c0-0.1,1.7-0.3,1.7-0.4
			v-3.8c-2.1-2.1-3.4-5-3.4-8.2l-1.6-8.2l0,1v-1.3l-2.9,12.4C78.9,39.3,80.7,42.1,82,45.1z"/>
		<path id="XMLID_3946_" class="st28" d="M107.9,20"/>
		<path id="XMLID_3945_" class="st29" d="M105.4,31.8c0-4.7-1.9-12.1,0.2-14.7c1.1-1.4,4.1,0.7,4,0.8L105.4,31.8z"/>
		<path id="XMLID_3944_" class="st30" d="M84.1,20.4l0,8.2l0,0c0,6.5,5.3,11.8,11.8,11.8h0c6.5,0,11.8-5.3,11.8-11.8v-8.7v-1.5
			c0-3.3-2.7-6-6-6l-11.5,0c-3.3,0-6,2.7-6,6v2.9"/>
		<path id="XMLID_3941_" class="st31" d="M86.8,28.6C86.8,28.6,86.8,28.6,86.8,28.6l0-8.2l0,1v-2.9c0-3.3,2.7-6,6-6h-2.7
			c-3.3,0-6,2.7-6,6v2.9l0-1l0,8.2c0,0,0,0,0,0c0,6.5,5.3,11.8,11.8,11.8h1.9c0.1,0,0.3,0,0.4,0"/>
		<path id="XMLID_3940_" class="st32" d="M84.1,20.3l0,8.2v0c0,6.5,5.3,11.8,11.8,11.8h0c6.5,0,11.8-5.3,11.8-11.8v-8.7v-1.5
			c0-3.3-2.7-6-6-6l-11.5,0c-3.3,0-6,2.7-6,6v2.9"/>
		<path id="XMLID_3939_" class="st33" d="M82.6,26.9"/>
		<path id="XMLID_3938_" class="st28" d="M100.7,21.4"/>
		<path id="XMLID_3937_" class="st34" d="M106.6,24.1c0,0-0.9-1-2.4-1c-2,0-2.4,1.1-2.4,1.1s-0.7-2.8,2.3-2.8
			C107.2,21.4,106.6,24.1,106.6,24.1z"/>
		<path id="XMLID_3936_" class="st32" d="M106.5,22.4c-0.6-0.8-1.7-1.2-2.7-1c-0.8,0.1-1.5,0.6-1.9,1.2"/>
		<path id="XMLID_3935_" class="st26" d="M103.7,24.5c0,0.6,0.5,1,1,1s1-0.5,1-1c0-0.6-0.5-1-1-1S103.7,23.9,103.7,24.5z"/>
		<path id="XMLID_3907_" class="st32" d="M106.4,23.9c0,0-2-1.5-4.6,0"/>
		<path id="XMLID_2529_" class="st35" d="M75.7,33.7l3.4-18.1c1.4-7.8,8-11.9,15.3-11.9l0,0c9.6,0,15.3,6.9,15.3,14.1l0,0
			c0,2-7.4,5.8-11.5,5.6l0,0.4c0,2.3-1.9,4.1-4.1,4.1l0,0v7.7C94,41.5,89.4,46,83.8,46H81"/>
		<path id="XMLID_2526_" class="st27" d="M80.5,34.1c-0.4,10.3,5.2,12.1,5.2,12.1C85,46.4,81,46.4,81,46.4c0.7,2-7.8-2.4-5.5-11.9
			l0.1-0.4v0l3.5-18.4c0,0,0,0,0,0c0-0.2,0.1-0.3,0.1-0.5c1.7-7.3,8.1-11.1,15.1-11.1c0.8,0,1.7,0.1,2.5,0.2c-1.4,0.2-2.8,0.5-4,1
			c-4.2,1.6-7.5,5-8.6,9.9c0,0.1,0,0.1,0,0.2L84,15.7c0,0,0,0,0,0c0,0.1,0,0.2-0.1,0.4C83.9,16.1,80.7,29.5,80.5,34.1z"/>
		<path id="XMLID_2523_" class="st36" d="M81,46h2.7C89.4,46,94,41.5,94,35.8v-7.7l0,0c2.3,0,4.1-1.8,4.1-4.1l0-0.4
			c4.2,0.2,11.5-3.6,11.5-5.6l0,0c0-7.3-5.7-14.1-15.3-14.1l0,0c-7.3,0-13.8,4.1-15.3,11.9l-3.4,18.1c0,0-2.8,9.4,5.2,14.5"/>
		<path id="XMLID_2522_" class="st30" d="M96,27.8c0-1.6-1.3-2.9-2.9-2.9s-2.9,1.3-2.9,2.9c0,1.6,1.3,2.9,2.9,2.9
			c0.5,0,1-0.1,1.5-0.4"/>
		<path id="XMLID_2521_" class="st32" d="M93,26c-0.7,0-1.2,0.5-1.2,1.2"/>
		<path id="XMLID_2520_" class="st37" d="M92.4,29.6c0,0.4,0.3,0.8,0.8,0.8c0.4,0,0.8-0.3,0.8-0.8c0-0.4-0.3-0.8-0.8-0.8
			C92.8,28.9,92.4,29.2,92.4,29.6z"/>
		<polyline id="XMLID_2519_" class="st5" points="99.9,160.4 94.6,172.8 106.6,178 		"/>
		<path id="XMLID_2211_" class="st20" d="M92.1,94.2h104.3c2.5,0,4.5-2,4.5-4.5v-0.9c0-2.5-2-4.5-4.5-4.5H92.1c-2.5,0-4.5,2-4.5,4.5
			v0.9C87.6,92.2,89.6,94.2,92.1,94.2z"/>
		<path id="XMLID_2210_" class="st21" d="M60.8,174.7h50.5v-0.4c0-2.2-1.8-4-4-4H64.9c-2.2,0-4,1.8-4,4V174.7z"/>
		<path id="XMLID_2209_" class="st38" d="M200.9,89.3c0,2.7-1.9,5-4.2,5h-104c-1.2,0-2.2-0.6-3-1.5c-0.8-0.9-1.2-2.1-1.2-3.5
			c0-0.7,0.1-1.4,0.4-2.1c0.2,0.5,0.5,1,0.8,1.4c0.8,0.9,1.8,1.5,3,1.5h104c1.7,0,3.1-1.2,3.8-2.9C200.8,87.8,200.9,88.5,200.9,89.3
			z"/>
		<path id="XMLID_2208_" class="st5" d="M92.9,94.2h104.3c2.5,0,4.5-2,4.5-4.5v-0.9c0-2.5-2-4.5-4.5-4.5H92.9c-2.5,0-4.5,2-4.5,4.5
			v0.9C88.4,92.2,90.4,94.2,92.9,94.2z"/>
		<path id="XMLID_2207_" class="st8" d="M107.7,179.4l23.7,0.1c1.3,0,2.3-1,2.3-2.3l0,0c0-0.7-0.3-1.3-0.8-1.7l0,0
			c-3.2-2.8-6.4-5.8-9.2-9.1c-1.5-1.8-2.8-3.8-3.7-5.9l0,0h-12.3L107.7,179.4z"/>
		<path id="XMLID_2206_" class="st4" d="M107.7,170.5l3.9,0c1.8,0,3.4,0.9,4.3,2.4l4.1,6.5l-12.4,0L107.7,170.5z"/>
		<line id="XMLID_2204_" class="st5" x1="110.8" y1="174.2" x2="107.7" y2="174.1"/>
		<path id="XMLID_2203_" class="st26" d="M85.6,179.6h0.9c2,0,3.7-1.6,3.7-3.7v-0.8c0-2.1-1.7-3.7-3.7-3.7h-0.7
			c-2.1,0-3.7,1.7-3.7,3.7v0.8C82,178,83.6,179.6,85.6,179.6z"/>
		
			<rect id="XMLID_2202_" x="80.6" y="119.3" transform="matrix(-1 -1.224647e-16 1.224647e-16 -1 172.1322 251.2324)" class="st18" width="10.9" height="12.6"/>
		
			<rect id="XMLID_2201_" x="83.7" y="131.9" transform="matrix(-1 -1.224647e-16 1.224647e-16 -1 172.1322 303.3757)" class="st18" width="4.7" height="39.5"/>
		<rect id="XMLID_2200_" x="80.6" y="124.4" class="st38" width="10.9" height="4.5"/>
		<g id="XMLID_2197_">
			<line id="XMLID_2199_" class="st22" x1="169" y1="51.3" x2="179.5" y2="81.1"/>
			<path id="XMLID_2198_" class="st39" d="M179.5,83.8c-1.1,0-2.2-0.7-2.6-1.8l-10.5-29.8c-0.5-1.4,0.2-3,1.7-3.5
				c1.4-0.5,3,0.2,3.5,1.7l10.5,29.8c0.5,1.4-0.2,3-1.7,3.5C180.1,83.8,179.8,83.8,179.5,83.8z"/>
		</g>
		<rect id="XMLID_2196_" x="83.7" y="131.9" class="st38" width="4.7" height="2.4"/>
		
			<rect id="XMLID_2195_" x="83.7" y="131.9" transform="matrix(-1 -1.224647e-16 1.224647e-16 -1 172.1322 302.2287)" class="st12" width="4.7" height="38.4"/>
		
			<rect id="XMLID_2194_" x="80.6" y="119.3" transform="matrix(-1 -1.224647e-16 1.224647e-16 -1 172.1322 251.2324)" class="st12" width="10.9" height="12.6"/>
		<path id="XMLID_2193_" class="st20" d="M81.9,174.7h8.2v-0.7c0-2.1-1.7-3.7-3.7-3.7h-0.7c-2.1,0-3.7,1.7-3.7,3.7V174.7z"/>
		<path id="XMLID_2192_" class="st40" d="M107.3,114.2l-38,0c-2.6,0-4.6,2.1-4.6,4.6v0.9c0,2.6,2.1,4.6,4.6,4.6h38
			c2.6,0,4.6-2.1,4.6-4.6v-0.9C111.9,116.3,109.8,114.2,107.3,114.2z"/>
		<path id="XMLID_2191_" class="st22" d="M153.7,84.1h-12.5v-2.8h10c1.4,0,2.6,1.1,2.6,2.6V84.1z"/>
		<path id="XMLID_2190_" class="st40" d="M70.6,124.4h-6.2c-2,0-3.6-1.6-3.6-3.6l0-66.6c0-2.7,2.2-4.9,4.9-4.9h0
			c2.7,0,4.9,2.2,4.9,4.9V116"/>
		<path id="XMLID_2189_" class="st30" d="M107.3,24.9l1.2,4.1c0.2,0.7-0.3,1.4-1.1,1.4h-1"/>
		<path id="XMLID_2188_" class="st41" d="M105.1,33.3L105.1,33.3c-0.4,0-1-0.2-1.4-0.3"/>
		<path id="XMLID_2187_" class="st20" d="M65.8,126.3l41.1,0c2.7,0,5-2.2,5-5v-0.5H60.8v0.5C60.8,124,63.1,126.3,65.8,126.3z"/>
		<g id="XMLID_2116_">
			<path id="XMLID_2186_" class="st7" d="M91.9,50.9l13.5,25.3h18.7c1.4,0,2.5,1.1,2.5,2.5v0.9c0,0,11.1,4.7,8.9,4.7H105
				c-2.7,0-5.2-1.5-6.5-3.9L84.8,54.7"/>
		</g>
		<path id="XMLID_2114_" class="st7" d="M154.3,74.1l-0.6-0.2l15.6-49.6l0.6,0.2c3.2,1,4.9,4.4,3.9,7.6l-12,38.1
			C160.9,73.4,157.5,75.1,154.3,74.1z"/>
		<path id="XMLID_2113_" class="st22" d="M161.9,71.1l-0.3-0.1L174,31.5l0.3,0.1c1.6,0.5,2.6,2.3,2,3.9l-10.6,33.6
			C165.3,70.7,163.5,71.6,161.9,71.1z"/>
		<path id="XMLID_2112_" class="st7" d="M162.5,84.3h22.6V84c0-1.6-1.3-2.9-2.9-2.9h-16.8c-1.6,0-2.9,1.3-2.9,2.9V84.3z"/>
		<circle id="XMLID_2111_" class="st22" cx="171.3" cy="55.5" r="4.2"/>
		<path id="XMLID_2110_" class="st42" d="M173.4,55.5c0,1.2-0.9,2.1-2.1,2.1c-1.2,0-2.1-0.9-2.1-2.1s0.9-2.1,2.1-2.1
			C172.4,53.4,173.4,54.4,173.4,55.5z"/>
		<path id="XMLID_2109_" class="st43" d="M137.4,84.3h-10.8l0-6.5h5.6l7.8,4c1.3,0.5,0.9,2.5-0.5,2.5H137.4z"/>
		<path id="XMLID_2108_" class="st7" d="M145.3,84.3h-13.1v-0.5c0-2.7,2.2-4.8,4.8-4.8h3.5c2.7,0,4.8,2.2,4.8,4.8V84.3z"/>
		<path id="XMLID_2107_" class="st44" d="M133.9,83.9h-3.5V81c0,0,4.5-0.7,5.3,0.6C133.8,82.5,133.9,83.9,133.9,83.9z"/>
		<g id="XMLID_2105_">
			<path id="XMLID_2106_" class="st43" d="M131.5,77.8c0.1,0,6.1-0.8,9.6-3.2c0.6-0.4,1.4-0.2,1.8,0.3c0.4,0.6,0.2,1.4-0.3,1.8
				c-2.5,1.7-6.4,2.8-8.6,3.3"/>
		</g>
		<g id="XMLID_2005_">
			<path id="XMLID_2104_" class="st43" d="M134,78.5c1.8,0.2,4.4,1,5.8,3.2c0.4,0.6,0.2,1.4-0.4,1.8c-0.2,0.1-0.5,0.2-0.7,0.2
				c-0.4,0-0.8-0.2-1.1-0.6c-1.5-2.3-5.4-2.1-5.4-2.1"/>
		</g>
		<polyline id="XMLID_2004_" class="st38" points="152.6,100.6 152.6,94.2 196.1,94.2 196.1,100.6 		"/>
		<path id="XMLID_584_" class="st8" d="M73.4,129.9H58.1c-6.9,0-12.5-5.6-12.5-12.5v-2.5c0-6.9,5.6-12.5,12.5-12.5h15.3
			c6.9,0,12.5,5.6,12.5,12.5v2.5C85.9,124.3,80.3,129.9,73.4,129.9z"/>
		<path id="XMLID_583_" class="st45" d="M85.9,110.7v6.2c0,1.9-1.6,3.5-3.5,3.5l-33.3,0c-1.9,0-3.5-1.6-3.5-3.5v-6.2"/>
		<path id="XMLID_11_" class="st5" d="M73.4,129.9H58.1c-6.9,0-12.5-5.6-12.5-12.5v-2.5c0-6.9,5.6-12.5,12.5-12.5h15.3
			c6.9,0,12.5,5.6,12.5,12.5v2.5C85.9,124.3,80.3,129.9,73.4,129.9z"/>
		<path id="XMLID_10_" class="st25" d="M49.5,102.4l11-49c1.2-5.5,9.2-5.5,10.3,0.1l10.3,48.9"/>
		<path id="XMLID_1999_" class="st8" d="M85.9,107.8v6.2c0,1.9-1.6,3.5-3.5,3.5H49.1c-1.9,0-3.5-1.6-3.5-3.5v-6.2"/>
		<path id="XMLID_1998_" class="st25" d="M85.9,107.8"/>
		<path id="XMLID_1997_" class="st6" d="M66.5,113.7c0,1-0.8,1.8-1.8,1.8s-1.8-0.8-1.8-1.8s0.8-1.8,1.8-1.8S66.5,112.7,66.5,113.7z"
			/>
		<path id="XMLID_9_" class="st18" d="M152.6,122.5"/>
	</g>
</g>
</svg>
