<?xml version="1.0" encoding="utf-8"?>
<!-- Generator: Adobe Illustrator 22.1.0, SVG Export Plug-In . SVG Version: 6.00 Build 0)  -->
<svg version="1.1" id="Capa_1" xmlns="http://www.w3.org/2000/svg" xmlns:xlink="http://www.w3.org/1999/xlink" x="0px" y="0px"
	 viewBox="0 0 260.2 182.5" style="enable-background:new 0 0 260.2 182.5;" xml:space="preserve">
<style type="text/css">
	.st0{clip-path:url(#SVGID_2_);fill:#B2C7C5;stroke:#56111D;stroke-width:2.0999;stroke-miterlimit:10;}
	.st1{clip-path:url(#SVGID_2_);}
	.st2{fill:#B2C7C5;stroke:#56111D;stroke-width:2.0999;stroke-miterlimit:10;}
	.st3{fill:#E79D41;stroke:#56111D;stroke-width:2.0999;stroke-linecap:round;stroke-miterlimit:10;}
	.st4{fill:#D0DEDD;stroke:#56111D;stroke-width:2.0999;stroke-miterlimit:10;}
	.st5{fill:#B24747;stroke:#56111D;stroke-width:2.0999;stroke-linecap:round;stroke-miterlimit:10;}
	.st6{fill:#FFFFFF;}
	.st7{fill:#C55959;stroke:#56111D;stroke-width:2.0999;stroke-linecap:round;stroke-miterlimit:10;}
	.st8{fill:#FFFFFF;stroke:#56111D;stroke-width:2.0999;stroke-linecap:round;stroke-miterlimit:10;}
	.st9{fill:#B18870;stroke:#56111D;stroke-width:2.0999;stroke-linecap:round;stroke-miterlimit:10;}
	.st10{fill:none;}
	.st11{fill:#F9EBD8;stroke:#56111D;stroke-width:2.0999;stroke-linecap:round;stroke-miterlimit:10;}
	.st12{fill:#F0D1B5;}
	.st13{fill:#F9EBD8;}
	.st14{fill:none;stroke:#56111D;stroke-width:2.0999;stroke-linecap:round;stroke-miterlimit:10;}
	.st15{fill:none;stroke:#323371;stroke-width:2.0999;stroke-linecap:round;stroke-miterlimit:10;}
	.st16{fill:#FBF2E3;stroke:#56111D;stroke-width:2.0999;stroke-linecap:round;stroke-miterlimit:10;}
	.st17{fill:#56111D;stroke:#56111D;stroke-width:2.0999;stroke-linecap:round;stroke-miterlimit:10;}
	.st18{fill:#F0D1B5;stroke:#56111D;stroke-width:2.0999;stroke-linecap:round;stroke-miterlimit:10;}
	.st19{fill:#FFFFFF;stroke:#56111D;stroke-width:2.0999;stroke-miterlimit:10;}
	.st20{fill:#F4EFEC;}
	.st21{fill:#56111D;}
	.st22{opacity:0.13;fill:#56111D;}
	.st23{fill:#F3D477;stroke:#56111D;stroke-width:2.0999;stroke-miterlimit:10;}
	.st24{fill:#DBB593;stroke:#56111D;stroke-width:2.0999;stroke-linecap:round;stroke-miterlimit:10;}
	.st25{fill:#B6C7C5;stroke:#56111D;stroke-width:2.0999;stroke-miterlimit:10;}
	.st26{fill:#F8E9DD;}
	.st27{fill:#F4EFEC;stroke:#56111D;stroke-width:2.0999;stroke-miterlimit:10;}
	.st28{fill:#DBCFCA;stroke:#56111D;stroke-width:2.0999;stroke-miterlimit:10;}
	.st29{fill:#B2C7C5;stroke:#56111D;stroke-width:2.0999;stroke-linecap:round;stroke-miterlimit:10;}
	.st30{fill:#B2C7C5;}
	.st31{fill:#D0DEDD;}
	.st32{fill:#F4EFEC;stroke:#56111D;stroke-width:2.0999;stroke-linecap:round;stroke-linejoin:round;stroke-miterlimit:10;}
	.st33{fill:#FFFFFF;stroke:#56111D;stroke-width:2.0999;stroke-linecap:round;stroke-linejoin:round;stroke-miterlimit:10;}
	
		.st34{opacity:0.13;fill:#F4EFEC;stroke:#56111D;stroke-width:2.0999;stroke-linecap:round;stroke-linejoin:round;stroke-miterlimit:10;}
	.st35{fill:#AA3E3E;stroke:#56111D;stroke-width:2.0999;stroke-linecap:round;stroke-linejoin:round;stroke-miterlimit:10;}
	.st36{opacity:0.15;fill:#56111D;}
	.st37{fill:none;stroke:#D3AC8C;stroke-width:4.1998;stroke-linecap:round;stroke-miterlimit:10;}
</style>
<g>
	<defs>
		<rect id="SVGID_1_" x="24.8" y="0.4" width="210.4" height="182.5"/>
	</defs>
	<clipPath id="SVGID_2_">
		<use xlink:href="#SVGID_1_"  style="overflow:visible;"/>
	</clipPath>
	<path id="XMLID_13316_" class="st0" d="M191.8,56.5h-26c-7.1,0-12.9-5.8-12.9-12.9s5.8-12.9,12.9-12.9h26c7.1,0,12.9,5.8,12.9,12.9
		S199,56.5,191.8,56.5z"/>
	<g id="XMLID_4899_" class="st1">
		<path id="XMLID_5002_" class="st2" d="M132,169V99.5c0-15.8,12.9-28.7,28.7-28.7h31.5c15.8,0,28.7,12.9,28.7,28.7V170
			C213.1,169.5,132,179.5,132,169z"/>
		<rect id="XMLID_5062_" x="171.5" y="62.3" class="st2" width="7" height="10.1"/>
		<path id="XMLID_4897_" class="st3" d="M128.7,170.1v-69.5c0-14.8,12-26.8,26.8-26.8h31.5c14.8,0,26.8,12,26.8,26.8v70.6
			C214.3,173.3,128.7,179.5,128.7,170.1z"/>
		<path id="XMLID_5060_" class="st3" d="M131.4,170.1v-69.5c0-14.8,12-26.8,26.8-26.8h31.5c14.8,0,26.8,12,26.8,26.8v70.6
			C209.4,167.7,131.4,179.5,131.4,170.1z"/>
		<path id="XMLID_5057_" class="st4" d="M129.1,169V99.5c0-15.8,12.9-28.7,28.7-28.7h31.5c15.8,0,28.7,12.9,28.7,28.7V170
			C210.2,169.5,129.1,179.5,129.1,169z M157.8,74.5c-13.8,0-25,11.2-25,25V169c0,8.4,73.4-0.8,81.5,1V99.5c0-13.8-11.2-25-25-25
			H157.8z"/>
		<path id="XMLID_4896_" class="st5" d="M82.8,162.3c0.8-3.8,4.4-7.6,4.4-12c0-4.4,1.6-8.7,1.6-8.7h26.3c0,0,15.7-48.9,15.7-50.7
			c2.4-3.7,5.7-7.4,10-7.3c4.4,0.1,5.7,2.5,5.6,6.8c0,0.7-0.4,18.2-10.2,35.7c-3.7,6.5,0.9,23.4-3.4,28.8
			C126.2,163.1,108.3,158.7,82.8,162.3z"/>
		<path id="XMLID_5054_" class="st6" d="M177.9,38.9h1.7c-0.3-0.1-0.5-0.2-0.9-0.2C178.5,38.7,178.2,38.8,177.9,38.9z"/>
		<path id="XMLID_5053_" class="st6" d="M201.2,40.7h1.7c-0.3-0.1-0.5-0.2-0.9-0.2C201.8,40.5,201.5,40.5,201.2,40.7z"/>
		<path id="XMLID_5052_" class="st3" d="M186.7,62.1h-17.3c-5.8,0-10.5-4.7-10.5-10.5l0,0c0-5.8,4.7-10.5,10.5-10.5h17.3
			c5.8,0,10.5,4.7,10.5,10.5l0,0C197.2,57.4,192.5,62.1,186.7,62.1z"/>
		<path id="XMLID_5050_" class="st6" d="M180.9,34.1c0-0.1,0-0.1-0.1-0.2C180.9,34,180.9,34.1,180.9,34.1z"/>
		<path id="XMLID_5047_" class="st4" d="M188.2,63.5H164c-6.6,0-12-5.4-12-12s5.4-12,12-12h24.2c6.6,0,12,5.4,12,12
			S194.8,63.5,188.2,63.5z M164,43.3c-4.6,0-8.3,3.7-8.3,8.3s3.7,8.3,8.3,8.3h24.2c4.6,0,8.3-3.7,8.3-8.3s-3.7-8.3-8.3-8.3H164z"/>
		<path id="XMLID_4894_" class="st7" d="M194.1,97.5v75.4h-64.6V97.5c0-9.8,7.9-17.7,17.7-17.7h29.2
			C186.2,79.8,194.1,87.7,194.1,97.5z"/>
		<path id="XMLID_4893_" class="st8" d="M196.3,99.7"/>
		<path id="XMLID_4892_" class="st8" d="M160.7,99.7"/>
		<path id="XMLID_4890_" class="st9" d="M307.3,167.6c-2.1-2.1-5-3.4-8.2-3.4H139H9.6c-6.4,0-11.6,5.2-11.6,11.6c0,0,24.2,0,50,0
			H139h113.5c25.7,0,58.2,0,58.2,0C310.7,172.6,309.4,169.7,307.3,167.6z"/>
		<path id="XMLID_4889_" class="st10" d="M57,164.2"/>
		<path id="XMLID_4888_" class="st11" d="M164.6,67.2l1.2,9c0,0.3,0.1,0.5,0.1,0.8c0.3,5.2-3.5,9.8-8.7,10.5l-5.3,10.7
			c0,0-6.9-12-7.3-15.5l-1.2-9.3L164.6,67.2z"/>
		<path id="XMLID_4884_" class="st12" d="M164.7,68.1l1.1,8.1c0,0.3,0.1,0.5,0.1,0.8c-3,2.2-6.6,3.7-10.6,4.2l-3.8,0.5
			c-2.5,0.3-4.9,0.2-7.2-0.4c0,0-0.1,0-0.1,0l-0.9-7l0.1,0L164.7,68.1z"/>
		<path id="XMLID_4883_" class="st13" d="M167,34.4l2.1,16.1v0c1.7,12.8-7.3,24.5-20.1,26.2l-3.8,0.5c-10.7,1.4-20.5-6.1-21.9-16.8
			l-2.8-20.8l-0.3-2.4c-1.7-12.8,7.3-24.5,20.1-26.2l0,0c12.8-1.7,24.5,7.3,26.2,20.1l0.7,5.2"/>
		
			<rect id="XMLID_4882_" x="121.5" y="42.6" transform="matrix(0.9914 -0.1312 0.1312 0.9914 -4.9542 16.9138)" class="st12" width="8.8" height="7"/>
		<path id="XMLID_4881_" class="st12" d="M144.4,47.1l-0.2,0c-3.4,0.4-6.5-1.9-7-5.3l-0.1-0.8l12.1-1.6l0.2,1.2
			C149.8,43.8,147.6,46.7,144.4,47.1z"/>
		<path id="XMLID_4879_" class="st12" d="M167,34.4l2.1,16.1c0,0,0,0,0,0c1.7,12.8-7.3,24.5-20.1,26.2l-3.8,0.5
			c-0.2,0-0.5,0.1-0.7,0.1c12.3-2.1,20.9-13.6,19.3-26.1c0,0,0,0,0,0l-2.1-16.1l0.3,1.9l-0.8-5.7c-0.9-6.5-6.9-11.2-13.4-10.3
			l5.3-0.7c6.6-0.9,12.6,3.7,13.4,10.3l0.8,5.7L167,34.4z"/>
		<path id="XMLID_4878_" class="st14" d="M167,34.3l2.1,16.1v0c1.7,12.8-7.3,24.5-20.1,26.2l-3.8,0.5c-10.7,1.4-20.5-6.1-21.9-16.8
			l-2.8-20.8l-0.3-2.4c-1.7-12.8,7.3-24.5,20.1-26.2h0c12.8-1.7,24.5,7.3,26.2,20.1l0.7,5.2"/>
		<path id="XMLID_4877_" class="st15" d="M116.4,43.1"/>
		<path id="XMLID_4876_" class="st14" d="M135.6,58.4c-1.9,0.3-3.7-1.1-4-3l-1-7.8"/>
		<path id="XMLID_4875_" class="st16" d="M178,50.5"/>
		<path id="XMLID_4874_" class="st17" d="M147.8,40.2l-9,1.2c-0.8,0.1-1.6-0.5-1.7-1.3l0,0c-0.1-0.8,0.5-1.6,1.3-1.7l9-1.2
			c0.8-0.1,1.6,0.5,1.7,1.3l0,0C149.2,39.3,148.7,40.1,147.8,40.2z"/>
		<path id="XMLID_4873_" class="st17" d="M119.9,34.6L119.9,34.6l29.5-3.9c3-0.4,5.8,1.7,6.2,4.7l0.5,3.9c0.7,5.2,5.4,8.8,10.6,8.1
			l7.4-1l-2.6-19.3c-1.4-10.6-10.7-18.2-21.1-17.6c-1.8,0.1-3.6,0-5.5-0.1l-7.2-0.5l-0.8,2.3l-11.9-2l-0.9,3l-8.1-1.8
			C116,10.5,108.2,26.3,119.9,34.6z"/>
		<path id="XMLID_4872_" class="st17" d="M128.4,42.7l-5.8,0.8c-0.8,0.1-1.6-0.5-1.7-1.3l0,0c-0.1-0.8,0.5-1.6,1.3-1.7l5.8-0.8
			c0.8-0.1,1.6,0.5,1.7,1.3l0,0C129.8,41.9,129.2,42.6,128.4,42.7z"/>
		<path id="XMLID_4871_" class="st18" d="M163.4,48c-0.4-3.2,1.8-6.1,5-6.5c3.2-0.4,6.1,1.8,6.5,5c0.4,3.2-1.8,6.1-5,6.5
			c-1,0.1-2.1,0-3-0.4"/>
		<path id="XMLID_4870_" class="st16" d="M168.9,44.9c1.3-0.2,2.5,0.7,2.7,2"/>
		<path id="XMLID_4869_" class="st7" d="M144.1,80.1l-0.3-2l-0.1,0c-1.9,0.2-3.2,2-3,3.9l2.2,16.8l4.9-7.8c0,0-2.4-4.7-3.1-7.1
			C144.4,82.8,144.1,80.1,144.1,80.1z"/>
		<path id="XMLID_4867_" class="st7" d="M165.3,73.2l0.9-0.1c1.1-0.1,2.2,0.6,2.3,1.8l0.2,1.7c0.1,0.4,0,0.8-0.3,1.1l-11.9,20.2
			l-3.4-9.9c-0.3-2,0.5-4,1.9-5.4L165.3,73.2z"/>
		<line id="XMLID_4866_" class="st19" x1="151.8" y1="97.8" x2="151.8" y2="149.3"/>
		<path id="XMLID_4864_" class="st8" d="M149.4,114.3c0,0.7-0.6,1.3-1.3,1.3c-0.7,0-1.3-0.6-1.3-1.3c0-0.7,0.6-1.3,1.3-1.3
			C148.8,113,149.4,113.6,149.4,114.3z"/>
		<path id="XMLID_4863_" class="st8" d="M149.4,121.5c0,0.7-0.6,1.3-1.3,1.3c-0.7,0-1.3-0.6-1.3-1.3c0-0.7,0.6-1.3,1.3-1.3
			C148.8,120.2,149.4,120.8,149.4,121.5z"/>
		<path id="XMLID_4848_" class="st8" d="M149.4,128.5c0,0.7-0.6,1.3-1.3,1.3c-0.7,0-1.3-0.6-1.3-1.3c0-0.7,0.6-1.3,1.3-1.3
			C148.8,127.2,149.4,127.7,149.4,128.5z"/>
		<path id="XMLID_5015_" class="st8" d="M145.7,48.1c0.2,1.6-0.9,3-2.5,3.2c-1.6,0.2-3-0.9-3.2-2.5c-0.2-1.6,0.9-3,2.5-3.2
			C144.1,45.4,145.5,46.5,145.7,48.1z"/>
		<path id="XMLID_5014_" class="st8" d="M128.1,50.4c0.2,1.6-0.9,3-2.5,3.2c-1.6,0.2-3-0.9-3.2-2.5c-0.2-1.6,0.9-3,2.5-3.2
			C126.5,47.7,127.9,48.8,128.1,50.4z"/>
		<path id="XMLID_4816_" class="st8" d="M149.4,100.1c0,0.7-0.6,1.3-1.3,1.3c-0.7,0-1.3-0.6-1.3-1.3c0-0.7,0.6-1.3,1.3-1.3
			C148.8,98.8,149.4,99.3,149.4,100.1z"/>
		<path id="XMLID_4811_" class="st8" d="M149.4,107.2c0,0.7-0.6,1.3-1.3,1.3c-0.7,0-1.3-0.6-1.3-1.3c0-0.7,0.6-1.3,1.3-1.3
			C148.8,105.9,149.4,106.5,149.4,107.2z"/>
		<path id="XMLID_4805_" class="st20" d="M149.2,138.7c0,1.1-0.9,2-2,2s-2-0.9-2-2c0-1.1,0.9-2,2-2S149.2,137.6,149.2,138.7z"/>
		<path id="XMLID_6043_" class="st21" d="M143.3,49.3c0.1,0.7-0.4,1.4-1.2,1.5c-0.7,0.1-1.4-0.4-1.5-1.2c-0.1-0.7,0.4-1.4,1.2-1.5
			C142.5,48,143.2,48.5,143.3,49.3z"/>
		<path id="XMLID_4802_" class="st21" d="M125.5,51.6c0.1,0.7-0.4,1.4-1.2,1.5c-0.7,0.1-1.4-0.4-1.5-1.2c-0.1-0.7,0.4-1.4,1.2-1.5
			C124.8,50.3,125.4,50.9,125.5,51.6z"/>
		<path id="XMLID_5008_" class="st7" d="M193.3,92.2l19,57.4c1.8,6.4-4,14.4-12.1,14.4h-33.5c-0.8-4.3-4.1-3.2-4.3-7.3
			c-0.2-4.4,3.3-8.1,7.7-8.1h25.4l-15-45.2"/>
		<path id="XMLID_5007_" class="st18" d="M132.9,147.7l-7.6,2.1c-1.3,0.4-2.6-0.2-3.3-1.2c-0.2-0.2-0.3-0.5-0.4-0.8
			c-0.4-1.6,0.5-3.2,2.1-3.7l10.7-3"/>
		<path id="XMLID_5006_" class="st18" d="M152.1,154.4l-10.5-2.1c-1.3-0.2-2.3-1.2-2.5-2.5c0-0.3,0-0.6,0-0.9
			c0.2-1.6,1.7-2.7,3.4-2.5l11,1.6"/>
		<path id="XMLID_5003_" class="st18" d="M157.4,156.4l7.2,1.4l1.7-9.1c0.1-0.3,0.2-0.7,0.2-1l0.2-1.1l0,0l-12.2-10.8
			c-1.3-1.2-3.1-1.7-4.8-1.4l-10,1.6c-1.4,0.2-2.7,0.9-3.6,2l-7,8.4c-1.1,1.3-1,3.2,0.3,4.3c0.2,0.2,0.5,0.4,0.8,0.5
			c0.9,0.4,1.9,0.3,2.7-0.2c0.4,0.5,1,0.9,1.7,1.1l4.9,1l6.2-7l1.3,2.2 M146.9,148.3l0.6,1.1c2.1,3.7,5.7,6.3,9.9,7.1"/>
		<path id="XMLID_10345_" class="st18" d="M150.5,134.2"/>
		<path id="XMLID_10344_" class="st18" d="M139.6,138.2c0.9-1.1,2.3-2.6,3.7-2.8"/>
		<path id="XMLID_5001_" class="st18" d="M142.1,144.5l-5,6c-0.9,1-2.3,1.3-3.4,0.8c-0.3-0.1-0.5-0.3-0.8-0.5
			c-1.3-1.1-1.4-2.9-0.4-4.2l7.1-8.5"/>
		<g id="XMLID_4999_">
			<path id="XMLID_5000_" class="st18" d="M150.2,144.6l-1-1c-0.5-0.4-1.2-0.4-1.6,0.1l-6.3,7.6c-0.9,1-2.3,1.3-3.4,0.8
				c-0.4-0.2-0.7-0.4-1-0.7c-1-1.1-1-2.8,0-4l7.1-8.4c0.9-1.1,2.2-1.8,3.6-2l4.4-0.6"/>
		</g>
		<g id="XMLID_4996_">
			<line id="XMLID_4998_" class="st18" x1="59" y1="146.2" x2="58.7" y2="154.8"/>
			<path id="XMLID_4997_" class="st18" d="M58,157.7c-1.4-0.3-2.4-1.6-2.3-3l0.3-8.6c0.1-1.6,1.4-2.9,3.1-2.9
				c1.6,0.1,2.9,1.4,2.9,3.1l-0.3,8.6c-0.1,1.6-1.4,2.9-3.1,2.9C58.4,157.7,58.2,157.7,58,157.7z"/>
		</g>
		<path id="XMLID_4995_" class="st22" d="M58,157.7c-1.4-0.3-2.4-1.6-2.3-3l0.3-8.6c0.1-1.6,1.4-2.9,3.1-2.9
			c1.6,0.1,2.9,1.4,2.9,3.1l-0.3,8.6c-0.1,1.6-1.4,2.9-3.1,2.9C58.4,157.7,58.2,157.7,58,157.7z"/>
		<g id="XMLID_4992_">
			<line id="XMLID_4994_" class="st18" x1="59.8" y1="145" x2="62.8" y2="153.9"/>
			<path id="XMLID_4993_" class="st18" d="M62.2,156.9c-1-0.2-1.8-0.9-2.2-1.9l-3.1-9c-0.5-1.6,0.3-3.2,1.9-3.8
				c1.6-0.5,3.2,0.3,3.8,1.9l3.1,9c0.5,1.6-0.3,3.2-1.9,3.8C63.3,156.9,62.7,157,62.2,156.9z"/>
		</g>
		<path id="XMLID_4991_" class="st23" d="M75.7,137.1c-0.6,0.5-1.6,0.2-2.2-0.6c-0.6-0.8-0.7-1.8-0.1-2.3c0.6-0.5,1.6-0.2,2.2,0.6
			C76.3,135.6,76.3,136.6,75.7,137.1z"/>
		<line id="XMLID_4990_" class="st18" x1="59.2" y1="148.9" x2="67.1" y2="153"/>
		<path id="XMLID_4989_" class="st22" d="M62.2,156.9c-1-0.2-1.8-0.9-2.2-1.9l-3.1-9c-0.5-1.6,0.3-3.2,1.9-3.8
			c1.6-0.5,3.2,0.3,3.8,1.9l3.1,9c0.5,1.6-0.3,3.2-1.9,3.8C63.3,156.9,62.7,157,62.2,156.9z"/>
		<path id="XMLID_4988_" class="st18" d="M66.6,155.3c-0.3-0.1-0.5-0.1-0.8-0.3l-7.8-4.1c-1.5-0.8-2-2.6-1.2-4c0.8-1.5,2.6-2,4-1.2
			l7.8,4.1c1.5,0.8,2,2.6,1.2,4C69.2,155,67.9,155.6,66.6,155.3z"/>
		<path id="XMLID_4987_" class="st22" d="M66.6,155.3c-0.3-0.1-0.5-0.1-0.8-0.3l-7.8-4.1c-1.5-0.8-2-2.6-1.2-4c0.8-1.5,2.6-2,4-1.2
			l7.8,4.1c1.5,0.8,2,2.6,1.2,4C69.2,155,67.9,155.6,66.6,155.3z"/>
		<path id="XMLID_4986_" class="st24" d="M56.3,142.6c-0.1,0.2,2.7,7,2.7,7l11.7,0.2c0,0,2.2-5.8,2-6c-0.1-0.2-5.2-6-5.5-6.1
			C67,137.5,56.3,142.6,56.3,142.6z"/>
		<g id="XMLID_4984_">
			<path id="XMLID_4985_" class="st18" d="M51.2,154.8c-0.3-0.1-0.6-0.2-0.8-0.3c-1.4-0.8-1.9-2.6-1.1-4l5.4-9.7
				c0.7-1.2,1.8-2.2,3.2-2.7l9.6-3.4c1.7-0.6,3.5-0.4,5,0.5l12.5,7.4c1.4,0.8,1.9,2.7,1,4.1c-0.8,1.4-2.7,1.9-4.1,1l-12.5-7.4
				l-9.5,3.4l-5.4,9.7C53.7,154.5,52.4,155.1,51.2,154.8z"/>
		</g>
		<g id="XMLID_4982_">
			<path id="XMLID_4983_" class="st18" d="M51.2,154.9c-0.3-0.1-0.6-0.2-0.8-0.3c-1.4-0.8-1.9-2.6-1.1-4l5.4-9.7
				c0.7-1.2,1.8-2.2,3.2-2.7l9.6-3.4c1.7-0.6,3.5-0.4,5,0.5l12.5,7.4c1.4,0.8,1.9,2.7,1,4.1c-0.8,1.4-2.7,1.9-4.1,1l-12.5-7.4
				l-9.5,3.4l-5.4,9.7C53.7,154.6,52.4,155.1,51.2,154.9z"/>
		</g>
		<polyline id="XMLID_4981_" class="st18" points="87.7,153.7 91.1,146.3 75.4,136.9 69.3,136.2 68.5,144.8 		"/>
		<g id="XMLID_4959_">
			<path id="XMLID_4980_" class="st23" d="M80.3,131.6c-0.6-0.8-1.6-1.1-2.2-0.6l-1.8,1.5l2.2,2.9l1.9-1.5
				C81,133.4,80.9,132.3,80.3,131.6z"/>
			<g id="XMLID_4964_">
				<path id="XMLID_4967_" class="st4" d="M47.9,151.3c10.4-7.4,25.2-17.8,27.2-19.5c1-1.1,5.2,3.4,3.6,4.6
					c-0.8,0.6-1.9,1.4-3.4,2.5c-2.5,1.8-5.9,4.3-10.3,7.4c-7.4,5.3-13.4,9.5-13.4,9.5C50.9,156.4,46.6,152.3,47.9,151.3z"/>
			</g>
			<path id="XMLID_4963_" class="st25" d="M51.4,152.3c-1-1.3-2.6-1.7-3.5-0.9l-3.7,5.4c0,0,0,0,0,0c0,0.2,0,0.4,0.1,0.5
				c0.1,0.2,0.4,0.3,0.5,0.2l6.8-1.6C52.5,155.2,52.4,153.6,51.4,152.3z"/>
			<path id="XMLID_4962_" class="st4" d="M75.1,131.9c0.9-0.7,2.5-0.3,3.5,0.9c1,1.3,1.1,2.9,0.2,3.7"/>
			<polygon id="XMLID_4961_" class="st22" points="43.9,157.8 48.5,155.6 79.2,133.7 79.5,135.1 79,136.4 51.4,156.1 			"/>
			<path id="XMLID_4960_" class="st7" d="M44.8,157.6l-1,0.3c-0.1,0-0.3-0.1-0.2-0.2l0.5-0.8c0.1-0.1,0.4,0,0.5,0.2
				C44.8,157.2,44.9,157.4,44.8,157.6z"/>
		</g>
		<line id="XMLID_4958_" class="st18" x1="55.5" y1="151.9" x2="69.6" y2="149.5"/>
		<path id="XMLID_4957_" class="st18" d="M68.5,144.2c-0.2,1.1-1,1.9-2.1,2.3l-11.4,2c-1.6,0.3-2.7,1.8-2.4,3.4
			c0.2,1.2,1.2,2.2,2.3,2.4c0.4,0.1,0.7,0.1,1.1,0l9.2-1.6c1-0.2,2.1,0,3,0.4L75,156c2.4,1.1,5,1.7,7.7,1.8l4,0.2l1.2-5.7"/>
		<path id="XMLID_4956_" class="st26" d="M59.3,151.4L59.3,151.4c0.1,1-0.6,1.9-1.6,2.1l-1.5,0.2c-1,0.1-1.9-0.6-2.1-1.6l0,0
			c-0.1-1,0.6-1.9,1.6-2.1l1.5-0.2C58.2,149.7,59.1,150.4,59.3,151.4z"/>
		<path id="XMLID_4955_" class="st22" d="M87.1,155.6l-0.5,2.3l-4-0.2c-2.6-0.1-5.2-0.7-7.7-1.8l-6.7-2.9c-1-0.4-2-0.5-3-0.4
			l-9.2,1.6c-0.4,0.1-0.8,0.1-1.1,0c-1.2-0.2-2.1-1.2-2.3-2.4c-0.1-0.8,0.1-1.6,0.5-2.2c0.2,1.2,1.2,2.1,2.3,2.3
			c0.4,0.1,0.7,0.1,1.1,0l9.2-1.6c1-0.2,2.1,0,3,0.4l6.7,2.9c2.4,1.1,5,1.7,7.7,1.8L87.1,155.6z"/>
		<polygon id="XMLID_4954_" class="st7" points="91.7,157.9 84.2,157.9 84.2,141.6 91.7,141.6 		"/>
		<rect id="XMLID_4953_" x="24.4" y="157.7" class="st8" width="107.5" height="4.4"/>
		<rect id="XMLID_4952_" x="103.5" y="157.7" class="st27" width="28.4" height="4.4"/>
		<rect id="XMLID_4951_" x="103.5" y="157.8" class="st27" width="28.4" height="4.4"/>
		<path id="XMLID_4950_" class="st28" d="M57.3,162.1H47.1l0,0c0-2.3,1.9-4.2,4.2-4.2h1.8C55.4,157.9,57.3,159.8,57.3,162.1
			L57.3,162.1z"/>
		
			<rect id="XMLID_4949_" x="162.9" y="144.8" transform="matrix(0.917 0.3988 -0.3988 0.917 75.2766 -53.7471)" class="st7" width="7.8" height="18.6"/>
		<path id="XMLID_4948_" class="st5" d="M119.3,164.2H21.2c-0.5,0-0.9-0.4-0.9-0.9l0,0c0-0.5,0.4-0.9,0.9-0.9h98.1
			c0.5,0,0.9,0.4,0.9,0.9l0,0C120.3,163.8,119.8,164.2,119.3,164.2z"/>
		<path id="XMLID_4947_" class="st18" d="M108,154.4"/>
		<line id="XMLID_4946_" class="st29" x1="113.4" y1="153.8" x2="120.9" y2="153.8"/>
		<path class="st4" d="M148.4,157l-1.3,7h-37.8c-3.6,0-6.6-2.4-7.5-5.7c-0.2-0.7-0.3-1.4-0.3-2.2c0-2.2,0.9-4.1,2.3-5.5
			c1.4-1.4,3.4-2.3,5.5-2.3h16.1L148.4,157z"/>
		<path class="st30" d="M128,158.4v5.7h-18.7c-3.6,0-6.6-2.4-7.5-5.7H128z"/>
		<path class="st30" d="M108.3,156.2c0-4.3,3.5-7.8,7.8-7.8h-6.8c-4.3,0-7.8,3.5-7.8,7.8c0,4.3,3.5,7.8,7.8,7.8h6.8
			C111.8,164,108.3,160.5,108.3,156.2z"/>
		<path id="XMLID_4944_" class="st2" d="M162.7,164.2h-37.8c-4.4,0-7.9-3.5-7.9-7.9v0c0-4.4,3.5-7.9,7.9-7.9h6.3l25.9,5
			c3.2,0.6,5.6,3.5,5.6,6.8V164.2z"/>
		<path id="XMLID_4943_" class="st31" d="M155.2,160.8h-17.6c-0.6,0-1.1-0.5-1.1-1.1l0,0c0-0.6,0.5-1.1,1.1-1.1h17.6
			c0.6,0,1.1,0.5,1.1,1.1l0,0C156.3,160.4,155.8,160.8,155.2,160.8z"/>
		<g id="XMLID_4922_">
			<polygon id="XMLID_4942_" class="st32" points="105.2,151.1 113.3,151.1 107.9,140.1 99.8,140.1 			"/>
			<polygon id="XMLID_4941_" class="st33" points="89.7,164 97.8,164 107.9,140.1 99.8,140.1 			"/>
			<polygon id="XMLID_4940_" class="st32" points="89.7,163.9 97.8,163.9 92.4,153 84.3,153 			"/>
			<polygon id="XMLID_4939_" class="st33" points="79.9,163.9 88,163.9 92.4,153 84.3,153 			"/>
			<g id="XMLID_4927_">
				<line id="XMLID_4938_" class="st34" x1="100.5" y1="142.7" x2="104.3" y2="142.7"/>
				<line id="XMLID_4937_" class="st34" x1="99.6" y1="145.1" x2="103.4" y2="145.1"/>
				<line id="XMLID_4936_" class="st34" x1="98.8" y1="147.2" x2="102.6" y2="147.2"/>
				<line id="XMLID_4935_" class="st34" x1="97.9" y1="149.6" x2="101.7" y2="149.6"/>
				<line id="XMLID_4934_" class="st34" x1="97" y1="151.9" x2="100.8" y2="151.9"/>
				<line id="XMLID_4933_" class="st34" x1="96.2" y1="154" x2="99.9" y2="154"/>
				<line id="XMLID_4932_" class="st34" x1="95.3" y1="156.4" x2="99" y2="156.4"/>
			</g>
			<g id="XMLID_4923_">
				<line id="XMLID_4926_" class="st34" x1="85.1" y1="156.2" x2="88.9" y2="156.2"/>
				<line id="XMLID_4925_" class="st34" x1="84.3" y1="158.4" x2="88.1" y2="158.4"/>
				<line id="XMLID_4924_" class="st34" x1="83.4" y1="160.7" x2="87.2" y2="160.7"/>
			</g>
		</g>
		<polygon id="XMLID_4921_" class="st35" points="153,86.8 151.8,97.6 155.2,93.9 		"/>
		<polygon id="XMLID_4920_" class="st36" points="181.3,105.9 194.1,144.2 194.1,148.6 181.3,148.6 		"/>
		<path id="XMLID_4919_" class="st36" d="M166.7,164.1l2-5.4h30.8c4.2,0,7.9-2.7,9.2-6.7l2.2-6.9c0,0,4.9,8.6-1.2,14.7
			c-6.1,6.1-10.4,4.5-10.4,4.5L166.7,164.1z"/>
		<path id="XMLID_4912_" class="st8" d="M138.3,69.3L138.3,69.3c-2.6,0.3-5.1-1.5-5.4-4.2l0,0l9.6-1.3l0,0
			C142.8,66.5,141,68.9,138.3,69.3z"/>
		<line id="XMLID_4911_" class="st2" x1="-11.5" y1="175.8" x2="323.6" y2="175.8"/>
		<line id="XMLID_4910_" class="st37" x1="24.4" y1="169.3" x2="135.9" y2="169.3"/>
		<line id="XMLID_4909_" class="st37" x1="8.2" y1="169.3" x2="15.4" y2="169.3"/>
		<line id="XMLID_4900_" class="st2" x1="164.6" y1="67.2" x2="165.5" y2="73.2"/>
	</g>
	<g class="st1">
		<rect id="XMLID_4801_" x="244.1" y="150.8" class="st19" width="75.2" height="14.3"/>
		<rect id="XMLID_4791_" x="268.9" y="149" class="st4" width="66.7" height="16.1"/>
		<circle id="XMLID_4787_" class="st36" cx="327.1" cy="157" r="4.1"/>
		<rect id="XMLID_4781_" x="274.4" y="152.4" class="st6" width="41.3" height="9.3"/>
		<polygon class="st2" points="269.3,152.7 269.3,149 242.5,149 242.5,152.7 265.6,152.7 265.5,161.3 242.5,161.3 242.5,165 
			269.3,165 269.3,161.3 269.2,161.3 269.3,152.7 		"/>
	</g>
</g>
</svg>
