<?xml version="1.0" encoding="utf-8"?>
<!-- Generator: Adobe Illustrator 22.1.0, SVG Export Plug-In . SVG Version: 6.00 Build 0)  -->
<svg version="1.1" id="Capa_1" xmlns="http://www.w3.org/2000/svg" xmlns:xlink="http://www.w3.org/1999/xlink" x="0px" y="0px"
	 viewBox="0 0 260.2 182.5" style="enable-background:new 0 0 260.2 182.5;" xml:space="preserve">
<style type="text/css">
	.st0{fill:#FFFFFF;stroke:#56111D;stroke-width:2.1107;stroke-miterlimit:10;}
	.st1{fill:#E79D41;stroke:#56111D;stroke-width:2.1107;stroke-linecap:round;stroke-miterlimit:10;}
	.st2{fill:#D6852F;}
	.st3{fill:#FFFFFF;}
	.st4{fill:#D6852F;stroke:#56111D;stroke-width:2.1107;stroke-linecap:round;stroke-miterlimit:10;}
	.st5{fill:#FFFFFF;stroke:#56111D;stroke-miterlimit:10;}
	.st6{fill:#D0DEDD;stroke:#56111D;stroke-miterlimit:10;}
	.st7{fill:#B2C7C5;}
	.st8{fill:#ABCAC7;stroke:#56111D;stroke-miterlimit:10;}
	.st9{fill:#C55959;stroke:#56111D;stroke-linecap:round;stroke-miterlimit:10;}
	.st10{fill:#9F2B2B;}
	.st11{fill:#B04242;stroke:#56111D;stroke-linecap:round;stroke-miterlimit:10;}
	.st12{fill:#D0DEDD;stroke:#56111D;stroke-width:2.1107;stroke-miterlimit:10;}
	.st13{fill:#ABCAC7;stroke:#56111D;stroke-width:2.1107;stroke-miterlimit:10;}
	.st14{fill:#E79D41;stroke:#56111D;stroke-linecap:round;stroke-miterlimit:10;}
	.st15{fill:#D6852F;stroke:#56111D;stroke-linecap:round;stroke-miterlimit:10;}
	.st16{fill:#F4EFEC;}
	.st17{fill:none;stroke:#56111D;stroke-linecap:round;stroke-miterlimit:10;}
	.st18{fill:none;stroke:#56111D;stroke-width:2.1107;stroke-linecap:round;stroke-miterlimit:10;}
	.st19{fill:#F4EFEC;stroke:#56111D;stroke-miterlimit:10;}
	.st20{fill:#EBE3DF;stroke:#56111D;stroke-miterlimit:10;}
	.st21{fill:#E5DEDA;}
	.st22{fill:#FFFFFF;stroke:#56111D;stroke-linecap:round;stroke-miterlimit:10;}
	.st23{fill:#D7CBC5;}
	.st24{fill:none;}
	.st25{fill:#ABCAC7;}
	.st26{fill:#D0DEDD;}
	.st27{fill:none;stroke:#56111D;stroke-miterlimit:10;}
	.st28{fill:#B04242;stroke:#56111D;stroke-width:2.1107;stroke-linecap:round;stroke-miterlimit:10;}
	.st29{fill:#56111D;}
	.st30{fill:none;stroke:#56111D;stroke-width:2.1107;stroke-miterlimit:10;}
	.st31{fill:#612633;stroke:#56111D;stroke-width:2.1107;stroke-linecap:round;stroke-miterlimit:10;}
	.st32{fill:#F9EBD8;stroke:#56111D;stroke-linecap:round;stroke-miterlimit:10;}
	.st33{fill:#F0D1B5;}
	.st34{fill:#FFFFFF;stroke:#56111D;stroke-linecap:round;stroke-linejoin:round;stroke-miterlimit:10;}
	.st35{fill:#F0D1B5;stroke:#56111D;stroke-linecap:round;stroke-miterlimit:10;}
	.st36{fill:#DA872E;stroke:#56111D;stroke-width:1.7993;stroke-linecap:round;stroke-miterlimit:10;}
	.st37{fill:#F9EBD8;stroke:#56111D;stroke-width:1.7993;stroke-linecap:round;stroke-miterlimit:10;}
	.st38{fill:#F9EBD8;stroke:#56111D;stroke-width:0.75;stroke-linecap:round;stroke-miterlimit:10;}
	.st39{fill:none;stroke:#56111D;stroke-width:0.75;stroke-linecap:round;stroke-miterlimit:10;}
	.st40{fill:none;stroke:#323371;stroke-width:1.7993;stroke-linecap:round;stroke-miterlimit:10;}
	.st41{fill:#FBF2E3;stroke:#56111D;stroke-width:1.7993;stroke-linecap:round;stroke-miterlimit:10;}
	.st42{fill:#FFFFFF;stroke:#56111D;stroke-width:0.75;stroke-linecap:round;stroke-miterlimit:10;}
	.st43{fill:#E79D41;stroke:#56111D;stroke-width:0.75;stroke-linecap:round;stroke-miterlimit:10;}
	.st44{fill:#FFFFFF;stroke:#56111D;stroke-width:1.7993;stroke-linecap:round;stroke-miterlimit:10;}
	.st45{fill:#55131E;}
	.st46{fill:#FFFFFF;stroke:#56111D;stroke-width:2.1107;stroke-linecap:round;stroke-miterlimit:10;}
	.st47{fill:#B2C7C5;stroke:#56111D;stroke-miterlimit:10;}
	.st48{fill:#F4EFEC;stroke:#56111D;stroke-width:2.1107;stroke-linecap:round;stroke-miterlimit:10;}
	.st49{fill:#D6CECA;}
	.st50{fill:#E5F1F0;}
	.st51{fill:#55131E;stroke:#55131E;stroke-width:2.1107;stroke-miterlimit:10;}
	.st52{fill:#D6852F;stroke:#56111D;stroke-width:0.75;stroke-linecap:round;stroke-miterlimit:10;}
	.st53{fill:#815646;}
	.st54{fill:#C55959;stroke:#56111D;stroke-width:2.1107;stroke-linecap:round;stroke-miterlimit:10;}
	.st55{fill-rule:evenodd;clip-rule:evenodd;fill:#E79D41;stroke:#56111D;stroke-linecap:round;stroke-miterlimit:10;}
	.st56{fill-rule:evenodd;clip-rule:evenodd;fill:#FFFFFF;stroke:#56111D;stroke-miterlimit:10;}
	.st57{fill-rule:evenodd;clip-rule:evenodd;fill:#C55959;stroke:#56111D;stroke-linecap:round;stroke-miterlimit:10;}
	.st58{fill:#EBE3DF;stroke:#56111D;stroke-width:2.1107;stroke-miterlimit:10;}
	.st59{fill:#B14040;}
	.st60{fill:#D67474;stroke:#56111D;stroke-width:2.1107;stroke-linecap:round;stroke-miterlimit:10;}
	.st61{fill:#F4EFEC;stroke:#56111D;stroke-width:2.1107;stroke-miterlimit:10;}
	.st62{fill:#E4D7D1;}
	.st63{fill:#AFCCC9;}
	.st64{fill:#E5F1F0;stroke:#56111D;stroke-width:2.1107;stroke-linecap:round;stroke-miterlimit:10;}
	.st65{fill:#DA872E;}
	.st66{fill:#C67323;}
	.st67{fill:#E8A258;stroke:#56111D;stroke-width:2.1107;stroke-linecap:round;stroke-miterlimit:10;}
	.st68{fill:#612633;stroke:#56111D;stroke-linecap:round;stroke-miterlimit:10;}
	.st69{fill:#712B3F;stroke:#56111D;stroke-linecap:round;stroke-miterlimit:10;}
	.st70{fill:#C55959;}
	.st71{fill:#855747;stroke:#56111D;stroke-width:2.1107;stroke-linecap:round;stroke-miterlimit:10;}
	.st72{fill:#A57A65;stroke:#56111D;stroke-width:2.1107;stroke-linecap:round;stroke-miterlimit:10;}
	.st73{fill:#F4EFEC;stroke:#56111D;stroke-linecap:round;stroke-miterlimit:10;}
	.st74{fill:none;stroke:#FFFFFF;stroke-linecap:round;stroke-miterlimit:10;}
	.st75{opacity:0.12;fill:#55131E;stroke:#55131E;stroke-width:2.1107;stroke-miterlimit:10;}
</style>
<g id="XMLID_1804_">
	<g id="XMLID_7587_">
		<rect id="XMLID_7593_" x="36.4" y="93.7" class="st0" width="28.5" height="8.6"/>
		<rect id="XMLID_7592_" x="43" y="93.7" class="st1" width="21.9" height="8.6"/>
		<path id="XMLID_7591_" class="st2" d="M62.6,97.9c0,1-0.8,1.8-1.8,1.8c-1,0-1.8-0.8-1.8-1.8c0-1,0.8-1.8,1.8-1.8
			C61.8,96.2,62.6,97,62.6,97.9z"/>
		<rect id="XMLID_7590_" x="46.2" y="96" class="st3" width="11" height="4"/>
		<rect id="XMLID_7589_" x="36.4" y="93.7" class="st4" width="6.5" height="1.6"/>
		<rect id="XMLID_7588_" x="36.4" y="100.7" class="st4" width="6.5" height="1.6"/>
	</g>
	<g id="XMLID_7580_">
		<rect id="XMLID_7586_" x="38.8" y="85.2" class="st5" width="28.5" height="8.6"/>
		<rect id="XMLID_7585_" x="45.3" y="85.2" class="st6" width="21.9" height="8.6"/>
		<path id="XMLID_7584_" class="st7" d="M65,89.4c0,1-0.8,1.8-1.8,1.8c-1,0-1.8-0.8-1.8-1.8c0-1,0.8-1.8,1.8-1.8
			C64.2,87.6,65,88.4,65,89.4z"/>
		<rect id="XMLID_7583_" x="48.5" y="87.5" class="st3" width="11" height="4"/>
		<rect id="XMLID_7582_" x="38.8" y="85.2" class="st8" width="6.5" height="1.6"/>
		<rect id="XMLID_7581_" x="38.8" y="92.1" class="st8" width="6.5" height="1.6"/>
	</g>
	<g id="XMLID_7573_">
		<rect id="XMLID_7579_" x="33.1" y="76.3" class="st5" width="28.5" height="8.6"/>
		<rect id="XMLID_7578_" x="39.7" y="76.3" class="st9" width="21.9" height="8.6"/>
		<path id="XMLID_7577_" class="st10" d="M59.3,80.5c0,1-0.8,1.8-1.8,1.8c-1,0-1.8-0.8-1.8-1.8c0-1,0.8-1.8,1.8-1.8
			C58.5,78.8,59.3,79.5,59.3,80.5z"/>
		<rect id="XMLID_7576_" x="42.9" y="78.6" class="st3" width="11" height="4"/>
		<rect id="XMLID_7575_" x="33.1" y="76.3" class="st11" width="6.5" height="1.6"/>
		<rect id="XMLID_7574_" x="33.1" y="83.2" class="st11" width="6.5" height="1.6"/>
	</g>
	<g id="XMLID_7566_">
		<rect id="XMLID_7572_" x="35.5" y="67.8" class="st5" width="28.5" height="8.6"/>
		<rect id="XMLID_7571_" x="42" y="67.8" class="st6" width="21.9" height="8.6"/>
		<path id="XMLID_7570_" class="st7" d="M61.7,72c0,1-0.8,1.8-1.8,1.8c-1,0-1.8-0.8-1.8-1.8s0.8-1.8,1.8-1.8
			C60.9,70.2,61.7,71,61.7,72z"/>
		<rect id="XMLID_7569_" x="45.3" y="70" class="st3" width="11" height="4"/>
		<rect id="XMLID_7568_" x="35.5" y="67.8" class="st8" width="6.5" height="1.6"/>
		<rect id="XMLID_7567_" x="35.5" y="74.7" class="st8" width="6.5" height="1.6"/>
	</g>
	<g id="XMLID_7559_">
		<rect id="XMLID_7565_" x="16.3" y="169.6" class="st0" width="28.5" height="8.6"/>
		<rect id="XMLID_7564_" x="22.8" y="169.6" class="st12" width="21.9" height="8.6"/>
		<path id="XMLID_7563_" class="st7" d="M42.5,173.8c0,1-0.8,1.8-1.8,1.8c-1,0-1.8-0.8-1.8-1.8c0-1,0.8-1.8,1.8-1.8
			C41.7,172,42.5,172.8,42.5,173.8z"/>
		<rect id="XMLID_7562_" x="26.1" y="171.9" class="st3" width="11" height="4"/>
		<rect id="XMLID_7561_" x="16.3" y="169.6" class="st13" width="6.5" height="1.6"/>
		<rect id="XMLID_7560_" x="16.3" y="176.5" class="st13" width="6.5" height="1.6"/>
	</g>
	<g id="XMLID_7552_">
		<rect id="XMLID_7558_" x="10.7" y="160.7" class="st5" width="28.5" height="8.6"/>
		<rect id="XMLID_7557_" x="17.2" y="160.7" class="st14" width="21.9" height="8.6"/>
		<path id="XMLID_7556_" class="st10" d="M36.9,164.9c0,1-0.8,1.8-1.8,1.8c-1,0-1.8-0.8-1.8-1.8c0-1,0.8-1.8,1.8-1.8
			C36.1,163.2,36.9,163.9,36.9,164.9z"/>
		<rect id="XMLID_7555_" x="20.4" y="163" class="st3" width="11" height="4"/>
		<rect id="XMLID_7554_" x="10.7" y="160.7" class="st15" width="6.5" height="1.6"/>
		<rect id="XMLID_7553_" x="10.7" y="167.6" class="st15" width="6.5" height="1.6"/>
	</g>
	<g id="XMLID_7545_">
		<rect id="XMLID_7551_" x="13" y="152.2" class="st5" width="28.5" height="8.6"/>
		<rect id="XMLID_7550_" x="19.5" y="152.2" class="st14" width="21.9" height="8.6"/>
		<path id="XMLID_7549_" class="st7" d="M39.2,156.4c0,1-0.8,1.8-1.8,1.8c-1,0-1.8-0.8-1.8-1.8c0-1,0.8-1.8,1.8-1.8
			C38.4,154.6,39.2,155.4,39.2,156.4z"/>
		<rect id="XMLID_7548_" x="22.8" y="154.4" class="st3" width="11" height="4"/>
		<rect id="XMLID_7547_" x="13" y="152.2" class="st15" width="6.5" height="1.6"/>
		<rect id="XMLID_7546_" x="13" y="159.1" class="st15" width="6.5" height="1.6"/>
	</g>
	<rect id="XMLID_7544_" x="35.5" y="69.3" class="st16" width="6.5" height="2.1"/>
	<rect id="XMLID_7543_" x="35.5" y="69.3" class="st17" width="6.5" height="5.3"/>
	<rect id="XMLID_7542_" x="33.1" y="77.9" class="st16" width="6.5" height="2.1"/>
	<rect id="XMLID_7541_" x="33.1" y="77.9" class="st17" width="6.5" height="5.3"/>
	<rect id="XMLID_7540_" x="38.8" y="86.7" class="st16" width="6.5" height="2.1"/>
	<rect id="XMLID_7539_" x="38.8" y="86.7" class="st17" width="6.5" height="5.3"/>
	<rect id="XMLID_7538_" x="36.4" y="95.3" class="st16" width="6.5" height="2.1"/>
	<rect id="XMLID_7537_" x="36.4" y="95.3" class="st18" width="6.5" height="5.3"/>
	<rect id="XMLID_7536_" x="13" y="153.8" class="st16" width="6.5" height="2.1"/>
	<rect id="XMLID_7535_" x="13" y="153.8" class="st17" width="6.5" height="5.3"/>
	<rect id="XMLID_7534_" x="10.7" y="162.3" class="st16" width="6.5" height="2.1"/>
	<rect id="XMLID_7533_" x="10.7" y="162.3" class="st17" width="6.5" height="5.3"/>
	<rect id="XMLID_7532_" x="16.3" y="171.2" class="st16" width="6.5" height="2.1"/>
	<rect id="XMLID_7531_" x="16.3" y="171.2" class="st18" width="6.5" height="5.3"/>
	<g id="XMLID_7519_">
		<rect id="XMLID_7530_" x="55.1" y="73.5" class="st19" width="28" height="28.3"/>
		<rect id="XMLID_7529_" x="71.8" y="73.5" class="st20" width="11.3" height="28.3"/>
		<polygon id="XMLID_7528_" class="st21" points="61.2,92.7 59.9,95 57.4,92.7 		"/>
		<polygon id="XMLID_7527_" class="st22" points="61.2,92.7 58.7,95.1 56.2,92.7 		"/>
		<polygon id="XMLID_7526_" class="st21" points="69.3,96.6 68,98.9 65.6,96.6 		"/>
		<polygon id="XMLID_7525_" class="st22" points="69.3,96.6 66.8,99 64.4,96.6 		"/>
		<polygon id="XMLID_7524_" class="st23" points="78.3,79.9 73.5,82.2 71.8,79.9 		"/>
		<path id="XMLID_7523_" class="st19" d="M78.3,79.9l-2.5,2.4l-3.7-2.2c-0.1-0.1,0-0.2,0.1-0.2H78.3z"/>
		<polygon id="XMLID_7522_" class="st23" points="83.1,86.2 78.3,88.5 76.6,86.2 		"/>
		<polygon id="XMLID_7521_" class="st16" points="83.1,86.2 80.6,88.6 76.6,86.2 		"/>
		<rect id="XMLID_7520_" x="55.1" y="73.5" class="st24" width="28" height="28.3"/>
	</g>
	<g id="XMLID_7510_">
		<path id="XMLID_7518_" class="st11" d="M75.1,90.1h8.2c0.6,0,1.1-0.5,1.1-1.1v0c0-0.6-0.5-1.1-1.1-1.1h-8.2
			c-0.6,0-1.1,0.5-1.1,1.1v0C74.1,89.6,74.6,90.1,75.1,90.1z"/>
		<path id="XMLID_7517_" class="st22" d="M74.8,90.1l0.8,10.9c0,0.3,0.3,0.6,0.7,0.6h5.8c0.3,0,0.6-0.3,0.7-0.6l0.9-10.9H74.8z"/>
		<path id="XMLID_7516_" class="st9" d="M75.5,88H83v-0.5c0-0.5-0.4-0.9-0.9-1l-5.6-0.7c-0.6-0.1-1.1,0.4-1.1,1V88z"/>
		<path id="XMLID_7515_" class="st16" d="M74.8,90.1l0.8,10.9c0,0.3,0.3,0.6,0.7,0.6h1.1l-0.8-11.5H74.8z"/>
		<path id="XMLID_7514_" class="st17" d="M74.8,90.1l0.8,10.9c0,0.3,0.3,0.6,0.7,0.6h5.8c0.3,0,0.6-0.3,0.7-0.6l0.9-10.9H74.8z"/>
		<path id="XMLID_7513_" class="st25" d="M74.6,91.9l0.6,7.7c0,0.2,0.2,0.3,0.3,0.3h1.7l-0.6-8.4H75C74.8,91.6,74.6,91.7,74.6,91.9z
			"/>
		<path id="XMLID_7512_" class="st26" d="M76.6,91.6l0.6,8.4h5.7c0.2,0,0.3-0.1,0.3-0.3l0.6-7.7c0-0.2-0.1-0.4-0.3-0.4H76.6z"/>
		<path id="XMLID_7511_" class="st27" d="M83.5,91.6h-6.9H75c-0.2,0-0.4,0.2-0.3,0.4l0.6,7.7c0,0.2,0.2,0.3,0.3,0.3h1.7h5.7
			c0.2,0,0.3-0.1,0.3-0.3l0.6-7.7C83.9,91.7,83.7,91.6,83.5,91.6z"/>
	</g>
	<polygon id="XMLID_7509_" class="st28" points="57.3,73.5 54.3,75.1 54.3,54 57.3,54 	"/>
	<path id="XMLID_7508_" class="st29" d="M136.4,178.2h-0.1c-2.4,0-4.3-1.9-4.3-4.3v-4.4h8.7v4.4
		C140.6,176.2,138.7,178.2,136.4,178.2z"/>
	<path id="XMLID_7507_" class="st29" d="M156.8,178.2h-0.1c-2.4,0-4.3-1.9-4.3-4.3v-4.4h8.7v4.4
		C161.1,176.2,159.2,178.2,156.8,178.2z"/>
	<path id="XMLID_7506_" class="st29" d="M177.5,178.2h-0.1c-2.4,0-4.3-1.9-4.3-4.3v-4.4h8.7v4.4
		C181.7,176.2,179.8,178.2,177.5,178.2z"/>
	<rect id="XMLID_7505_" x="151" y="132.4" class="st12" width="11.6" height="13.3"/>
	<rect id="XMLID_7504_" x="154.3" y="145.8" class="st12" width="4.9" height="24.9"/>
	<path id="XMLID_7503_" class="st15" d="M157.5,137.8h10.2c10,0,18.2-8.1,18.2-18.2V82.2c0-7.5-6.1-13.5-13.5-13.5h-19.5
		c-7.5,0-13.5,6.1-13.5,13.5v37.5C139.4,129.7,147.5,137.8,157.5,137.8z"/>
	
		<rect id="XMLID_7502_" x="151" y="137.8" transform="matrix(-1 -1.224647e-16 1.224647e-16 -1 313.4933 280.4138)" class="st7" width="11.6" height="4.8"/>
	
		<rect id="XMLID_7501_" x="154.3" y="146.1" transform="matrix(-1 -1.224647e-16 1.224647e-16 -1 313.4932 294.7444)" class="st7" width="4.9" height="2.6"/>
	<rect id="XMLID_7500_" x="154.3" y="145.8" class="st30" width="4.9" height="22.5"/>
	<rect id="XMLID_7499_" x="151" y="132.4" class="st30" width="11.6" height="13.3"/>
	<path id="XMLID_7498_" class="st13" d="M183.4,173h-53.4v-0.1c0-2.5,2.1-4.6,4.6-4.6h44.1C181.4,168.3,183.4,170.4,183.4,173
		L183.4,173z"/>
	<path id="XMLID_7497_" class="st12" d="M161.1,173h-8.7v-0.4c0-2.4,1.9-4.3,4.3-4.3h0.1c2.4,0,4.3,1.9,4.3,4.3V173z"/>
	<path id="XMLID_7496_" class="st14" d="M162.4,137.8h-23V82.2c0-7.5,6.1-13.5,13.5-13.5h12.4c7.5,0,13.5,6.1,13.5,13.5v39.2
		C178.8,130.5,171.5,137.8,162.4,137.8z"/>
	
		<rect id="XMLID_7493_" x="139.4" y="84.2" transform="matrix(-1 -1.224647e-16 1.224647e-16 -1 318.2267 174.1419)" class="st15" width="39.5" height="5.8"/>
	
		<rect id="XMLID_7495_" x="139.4" y="121.2" transform="matrix(-1 -1.224647e-16 1.224647e-16 -1 318.2267 248.2625)" class="st4" width="39.5" height="5.8"/>
	<path id="XMLID_7494_" class="st31" d="M148.3,127.1h-5.6v-22.6h27.9v0.3C170.6,117.1,160.6,127.1,148.3,127.1z"/>
	<g id="XMLID_7673_">
		<path id="XMLID_7674_" class="st32" d="M153.7,77.5c0.8-0.3,1.5-0.8,2-1.6c1-1.7,0.5-3.9-1.2-4.9l-20.6-12.5
			c-4.4-2.7-7.8-6.9-9.4-11.9l-7.9-24.4c-0.6-1.9-2.6-2.9-4.5-2.3c-1.9,0.6-2.9,2.6-2.3,4.5l7.9,24.4c2.1,6.6,6.6,12.2,12.5,15.8
			l20.6,12.5C151.7,77.7,152.8,77.8,153.7,77.5z"/>
	</g>
	<g id="XMLID_7669_">
		<g>
			<path id="XMLID_11_" class="st33" d="M156.1,75c-0.1,0.3-0.2,0.6-0.4,0.8c-0.5,0.8-1.2,1.3-2,1.6c-1,0.3-2,0.2-3-0.3l-20.6-12.5
				c-5.9-3.6-10.4-9.2-12.5-15.8l-7.9-24.4c-0.6-1.9,0.4-3.9,2.3-4.5c0,0,0,0,0.1,0c-0.2,0.7-0.2,1.4,0,2.2l7.9,24.4
				c2.1,6.6,6.6,12.2,12.5,15.8l20.6,12.5C154.1,75.2,155.2,75.3,156.1,75z"/>
		</g>
	</g>
	<g id="XMLID_7667_">
		<path id="XMLID_7668_" class="st17" d="M154,77.5c0.8-0.3,1.5-0.8,2-1.6c1-1.7,0.5-3.9-1.2-4.9l-20.6-12.5
			c-4.4-2.7-7.8-6.9-9.4-11.9l-7.9-24.4c-0.6-1.9-2.6-2.9-4.5-2.3c-1.9,0.6-2.9,2.6-2.3,4.5l7.9,24.4c2.1,6.6,6.6,12.2,12.5,15.8
			L151,77.1C151.9,77.7,153,77.8,154,77.5z"/>
	</g>
	<polyline id="XMLID_7666_" class="st34" points="153.9,69.3 138.1,59.7 133.1,67.5 150.6,78.1 	"/>
	<g id="XMLID_7653_">
		<g id="XMLID_7654_">
			<g id="XMLID_7664_">
				<path id="XMLID_7665_" class="st35" d="M111.3,28.4c-0.5-1.7-1.5-3-1.9-3.6l-0.2-0.4c0,0,0-0.1,0-0.1c-0.2-0.5-0.3-1-0.4-1.5
					c-0.1-1.6,0.8-3.2,2.3-3.9c0.1-0.1,2.1-1.8,4.1,1.7"/>
			</g>
			<g id="XMLID_7662_">
				<path id="XMLID_7663_" class="st32" d="M113,20.6l-0.9-4.5c0-0.2,0-0.4,0-0.5c0.1-0.5,0.5-1,1.1-1.1c0.7-0.1,1.4,0.3,1.6,1.1
					l1.2,6.1"/>
			</g>
			<g id="XMLID_7660_">
				<path id="XMLID_7661_" class="st32" d="M110.9,21.9l-1.3-5c0-0.2-0.1-0.3,0-0.5c0.1-0.5,0.4-1,1-1.1c0.7-0.2,1.5,0.2,1.7,0.9
					l1,4.6"/>
			</g>
			<g id="XMLID_7658_">
				<path id="XMLID_7659_" class="st32" d="M108.8,23.1l-1.7-4.7c0-0.2-0.1-0.4,0-0.5c0.1-0.5,0.4-1,1-1.1c0.7-0.2,1.5,0.2,1.6,1
					l1.2,4.2"/>
			</g>
			<path id="XMLID_7657_" class="st22" d="M124,19.7c0,0-9.1-6.8-6.4-17.9c-6.8-3.2-25.4,3.3-28.6,9.1c-1.7,11,6.1,18.5,8.4,18.5
				C114,17.3,124,19.7,124,19.7"/>
			<g id="XMLID_7655_">
				<path id="XMLID_7656_" class="st32" d="M117,25.6c0.5-0.2,0.8-0.6,0.9-1.2l0.3-4.5c0.1-0.7-0.5-1.4-1.3-1.4
					c-0.7-0.1-1.5,0.7-1.6,1.9l-0.1,2"/>
			</g>
		</g>
	</g>
	<g id="XMLID_7651_">
		<path id="XMLID_7652_" class="st35" d="M160.7,75.4c-0.8-0.3-1.5-0.8-2-1.6c-1-1.7-0.5-3.9,1.2-4.9l20.6-12.5
			c4.4-2.7,7.8-6.9,9.4-11.9l7.9-24.4c0.6-1.9,2.6-2.9,4.5-2.3c1.9,0.6,2.9,2.6,2.3,4.5l-7.9,24.4c-2.1,6.6-6.6,12.2-12.5,15.8
			l-20.6,12.5C162.8,75.6,161.7,75.7,160.7,75.4z"/>
	</g>
	<polyline id="XMLID_7650_" class="st34" points="159.3,68 176.3,57.6 181.3,65.4 163.8,76 	"/>
	<polyline id="XMLID_7649_" class="st22" points="170.7,69.4 170.7,110.6 142.4,110.6 142.5,70.7 	"/>
	<rect x="152.8" y="66.7" class="st3" width="8.2" height="6.1"/>
	<path id="XMLID_7648_" class="st14" d="M160.8,53.8H153c-5.3,0-9.5-4.3-9.5-9.5v-6.4c0-7.3,5.9-13.2,13.2-13.2h0.4
		c7.3,0,13.2,5.9,13.2,13.2v6.4C170.3,49.6,166.1,53.8,160.8,53.8z"/>
	<polyline id="XMLID_7647_" class="st17" points="170.7,69.8 170.7,110.6 142.4,110.6 142.4,106.8 	"/>
	<rect id="XMLID_7645_" x="162.8" y="73" class="st16" width="4.1" height="5.7"/>
	<polygon id="XMLID_7644_" class="st36" points="158.4,69.8 155.3,69.8 154.6,66.7 159.1,66.7 	"/>
	<path id="XMLID_7643_" class="st37" d="M162.4,56.9v5c0,2.6-2.1,4.8-4.8,4.8H156c-2.6,0-4.8-2.1-4.8-4.8v-3.3L162.4,56.9z"/>
	<path id="XMLID_7642_" class="st35" d="M164.6,45.3c0-1.5,1.2-2.7,2.7-2.7c1.5,0,2.7,1.2,2.7,2.7c0,1.5-1.2,2.7-2.7,2.7
		c-0.5,0-1-0.1-1.3-0.4"/>
	<path id="XMLID_7641_" class="st35" d="M147.9,45.3c0-1.5-1.2-2.7-2.7-2.7c-1.5,0-2.7,1.2-2.7,2.7c0,1.5,1.2,2.7,2.7,2.7
		c0.5,0,1-0.1,1.3-0.4"/>
	<path id="XMLID_7639_" class="st33" d="M162.4,57.3v4.2c0,0.1,0,0.3,0,0.4c-1.7,0.9-3.6,1.4-5.7,1.4h-1.9c-1.3,0-2.5-0.2-3.6-0.7
		c0,0,0,0,0,0v-3.6l0,0L162.4,57.3z"/>
	<path id="XMLID_7638_" class="st17" d="M162.4,56.9v4.6v0.3c0,2.7-2.2,4.9-4.9,4.9H156c-2.7,0-4.9-2.2-4.9-4.9v-3.2L162.4,56.9z"/>
	<path id="XMLID_7637_" class="st38" d="M166.9,42l0,7.6l0,0c0,6-4.9,10.9-10.9,10.9h0c-6,0-10.9-4.9-10.9-10.9v-8v-1.4
		c0-3.1,2.5-5.6,5.6-5.6l10.6,0c3.1,0,5.6,2.5,5.6,5.6v2.7"/>
	<path id="XMLID_7635_" class="st33" d="M166.9,42l0,7.6c0,0,0,0,0,0c0,6-4.9,10.9-10.9,10.9h-1.8c-0.1,0-0.2,0-0.3,0
		c5.8-0.2,10.5-5,10.5-10.9c0,0,0,0,0,0l0-7.6l0,0.9v-2.7c0-3.1-2.5-5.6-5.6-5.6h2.5c3.1,0,5.6,2.5,5.6,5.6v2.7L166.9,42z"/>
	<g id="XMLID_7623_">
		<g id="XMLID_7626_">
			<g id="XMLID_7633_">
				<path id="XMLID_7634_" class="st35" d="M199.1,18.3c-0.1-1.2-0.9-1.9-1.6-1.9c-0.7,0.1-1.3,0.7-1.3,1.4l0.3,4.5
					c0,0.5,0.4,1,0.9,1.2"/>
			</g>
			<g id="XMLID_7631_">
				<path id="XMLID_7632_" class="st35" d="M203.6,25.8c0.2-0.4,1.1-2.5,1.5-3.1l0.2-0.4c0,0,0-0.1,0-0.1c0.2-0.5,0.3-1,0.4-1.5
					c0.1-1.6-0.8-3.2-2.3-3.9c-0.1-0.1-2.1-1.8-4.1,1.7"/>
			</g>
			<g id="XMLID_7629_">
				<path id="XMLID_7630_" class="st35" d="M201.5,18.6l0.9-4.5c0-0.2,0-0.4,0-0.5c-0.1-0.5-0.5-1-1.1-1.1c-0.7-0.1-1.4,0.3-1.6,1.1
					l-1.2,6.1"/>
			</g>
			<g id="XMLID_7627_">
				<path id="XMLID_7628_" class="st35" d="M203.5,19.9l1.3-5c0-0.2,0.1-0.3,0-0.5c-0.1-0.5-0.4-1-1-1.1c-0.7-0.2-1.5,0.2-1.7,0.9
					l-1,4.6"/>
			</g>
		</g>
		<g id="XMLID_7624_">
			<path id="XMLID_7625_" class="st35" d="M205.4,22l1.9-5.6c0-0.2,0.1-0.4,0-0.5c-0.1-0.5-0.4-1-1-1.1c-0.7-0.2-1.5,0.2-1.6,1
				l-1.2,4.2"/>
		</g>
	</g>
	<path id="XMLID_7622_" class="st39" d="M166.9,41.9l0,7.6v0c0,6-4.9,10.9-10.9,10.9h0c-6,0-10.9-4.9-10.9-10.9v-8v-1.4
		c0-3.1,2.5-5.6,5.6-5.6l10.6,0c3.1,0,5.6,2.5,5.6,5.6v2.7"/>
	<path id="XMLID_7621_" class="st40" d="M143,42.9"/>
	<path id="XMLID_7620_" class="st39" d="M155.4,49.9c-0.9,0-1.6-0.7-1.6-1.6v-3.7"/>
	<path id="XMLID_7619_" class="st41" d="M169,46.8"/>
	<polygon id="XMLID_7618_" class="st36" points="160.1,95 156.8,97.6 153.5,95.1 155.3,69.8 158.4,69.8 	"/>
	<path id="XMLID_7617_" class="st42" d="M164.3,62.9c-0.7-0.2-1.4-0.2-2.1,0.1c-1.5,1.9-3.7,3.6-3.7,3.6l2,4.7l4.7-5.9
		C165.9,64.5,165.5,63.1,164.3,62.9C164.4,62.9,164.3,62.9,164.3,62.9"/>
	<path id="XMLID_7616_" class="st42" d="M154.1,68.9c0.5-1.2,1-2.3,1-2.3s-2.2-1.7-3.7-3.6c-0.6-0.3-1.4-0.3-2.2-0.1
		c-1.1,0.3-1.5,1.5-0.8,2.4l4.7,6C153.1,71.3,153.6,70.1,154.1,68.9z"/>
	<circle id="XMLID_7611_" class="st42" cx="154.6" cy="54.6" r="2.3"/>
	<path id="XMLID_7610_" class="st43" d="M150.3,42.6h-2.8c-0.6,0-1-0.5-1-1v0c0-0.6,0.5-1,1-1h2.8c0.6,0,1,0.5,1,1v0
		C151.3,42.2,150.9,42.6,150.3,42.6z"/>
	<path id="XMLID_7609_" class="st43" d="M160.2,42.6h-2.8c-0.6,0-1-0.5-1-1v0c0-0.6,0.5-1,1-1h2.8c0.6,0,1,0.5,1,1v0
		C161.2,42.2,160.7,42.6,160.2,42.6z"/>
	<path id="XMLID_7608_" class="st14" d="M165.1,31.2L165.1,31.2c1.8,0,3.2-1.4,3.2-3.2v-1.6H163"/>
	<path id="XMLID_7607_" class="st14" d="M160.6,31.8L160.6,31.8c2.6,0,4.8-2.1,4.8-4.8v-2.3h-7.8"/>
	<path id="XMLID_7606_" class="st44" d="M114,4c0,0-2.3,4.9,2.7,12.7"/>
	<path id="XMLID_7605_" class="st44" d="M110.3,4.6c0,0-2.3,4.9,2.7,12.7"/>
	<path id="XMLID_7604_" class="st44" d="M106.6,5.4c0,0-2.3,4.9,2.7,12.7"/>
	<path id="XMLID_7603_" class="st44" d="M102.4,6.9c0,0-2.3,4.9,2.7,12.7"/>
	<path id="XMLID_7602_" class="st44" d="M98.8,8.7c0,0-2.3,4.9,2.7,12.7"/>
	<path id="XMLID_7601_" class="st44" d="M95,10.4c0,0-1.1,2.3-0.1,6.3"/>
	<path id="XMLID_7595_" class="st45" d="M158.9,46.6L158.9,46.6c-0.6,0-1.1-0.5-1.1-1V45c0-0.6,0.5-1,1-1h0c0.6,0,1,0.5,1,1v0.6
		C159.9,46.2,159.5,46.6,158.9,46.6z"/>
	<path id="XMLID_7594_" class="st45" d="M148.9,46.6L148.9,46.6c-0.6,0-1.1-0.5-1.1-1V45c0-0.6,0.5-1,1-1h0c0.6,0,1,0.5,1,1v0.6
		C150,46.2,149.5,46.6,148.9,46.6z"/>
	<path id="XMLID_7492_" class="st1" d="M126.1,127.1h42c2.7,0,5,2.2,5,5v0.2c0,3.1-2.5,5.6-5.6,5.6h-41.3c-2.7,0-5-2.2-5-5V132
		C121.2,129.3,123.4,127.1,126.1,127.1z"/>
	<path id="XMLID_7487_" class="st46" d="M161.8,72.1"/>
	<path id="XMLID_7486_" class="st46" d="M145.3,72.1"/>
	<path id="XMLID_7478_" class="st47" d="M149.9,102.2h-21.2v-2.3h18.9C148.8,99.9,149.9,100.9,149.9,102.2L149.9,102.2z"/>
	<path class="st48" d="M79.2,105.7v1.8c-2.9,0.8-5.1,3.5-5.1,6.7v63.7l-0.2,0.2H33.5v-72.4H79.2z"/>
	<path class="st49" d="M79.2,105.7v1.8c-2.9,0.8-5.1,3.5-5.1,6.7v14.4H30.7v-22.9H79.2z"/>
	<path id="XMLID_7477_" class="st48" d="M230.9,178.2h-48.7V102h33c8.7,0,15.7,7,15.7,15.7V178.2z"/>
	<path id="XMLID_7474_" class="st46" d="M185.9,103.6c-1-1-2.3-1.6-3.8-1.6H97.3H33.1c-3,0-5.4,2.4-5.4,5.4v70.7h5.8v-63.7
		c0-3.9,3.1-7,7-7h56.7h78.6c3.4,0,6.2,2.8,6.2,6.2v64.5h5.4v-70.7C187.5,105.9,186.9,104.6,185.9,103.6z"/>
	<path id="XMLID_7472_" class="st24" d="M97.3,102"/>
	<path id="XMLID_7471_" class="st47" d="M130.7,102H84.7l-5.1-26.5c-0.4-2.3,1.3-4.4,3.6-4.4h38.5c1.8,0,3.3,1.2,3.6,3L130.7,102z"
		/>
	<path id="XMLID_7470_" class="st26" d="M129,102H83l-5.1-26.5c-0.4-2.3,1.3-4.4,3.6-4.4H120c1.8,0,3.3,1.2,3.6,3L129,102z"/>
	<polygon id="XMLID_7469_" class="st7" points="129,102 83,102 81.8,95.7 127.8,95.7 	"/>
	<circle id="XMLID_7468_" class="st3" cx="102.4" cy="87.5" r="3.6"/>
	<path id="XMLID_7467_" class="st27" d="M129,102H83l-5.1-26.5c-0.4-2.3,1.3-4.4,3.6-4.4H120c1.8,0,3.3,1.2,3.6,3L129,102z"/>
	<path id="XMLID_7466_" class="st12" d="M131.5,100.8c0,0.7-0.6,1.2-1.2,1.2s-1.2-0.6-1.2-1.2c0-0.7,0.6-1.2,1.2-1.2
		S131.5,100.1,131.5,100.8z"/>
	<g id="XMLID_7464_">
		<polygon id="XMLID_7465_" class="st26" points="52.1,101.2 40.6,65.4 65.4,44.3 67.7,47 44.7,66.6 55.4,100.1 		"/>
	</g>
	<g id="XMLID_7462_">
		<polygon id="XMLID_7463_" class="st50" points="44.6,66.6 55.3,100.1 53.8,100.6 42.6,65.9 66.4,45.6 67.6,47 		"/>
	</g>
	<g id="XMLID_7460_">
		<polygon id="XMLID_7461_" class="st27" points="52.1,101.2 40.6,65.4 65.4,44.3 67.7,47 44.7,66.6 55.4,100.1 		"/>
	</g>
	<path id="XMLID_7459_" class="st15" d="M64.8,102H42.6v0c0-1.5,1.2-2.8,2.8-2.8H62C63.6,99.2,64.8,100.5,64.8,102L64.8,102z"/>
	<circle id="XMLID_7458_" class="st14" cx="43.4" cy="65.3" r="3.7"/>
	
		<ellipse id="XMLID_7457_" transform="matrix(0.7071 -0.7071 0.7071 0.7071 -13.1419 60.6493)" class="st12" cx="66.6" cy="46.2" rx="3.7" ry="3.7"/>
	<path id="XMLID_7456_" class="st14" d="M57.4,99.2h-8.8v-0.1c0-2.2,1.8-4,4-4h0.7C55.6,95.1,57.4,96.9,57.4,99.2L57.4,99.2z"/>
	<path id="XMLID_7455_" class="st2" d="M44.9,65.4c0,0.8-0.7,1.5-1.5,1.5c-0.8,0-1.5-0.7-1.5-1.5c0-0.8,0.7-1.5,1.5-1.5
		C44.2,63.8,44.9,64.5,44.9,65.4z"/>
	<path id="XMLID_7454_" class="st30" d="M55.6,95.8L55.6,95.8c0.2-0.2,0.6-0.2,0.8,0l0.3,0.4c0.2,0.2,0.2,0.5,0,0.7l0,0"/>
	<g id="XMLID_7452_">
		<path id="XMLID_7453_" class="st51" d="M105.3,175.1c-0.6,0-4,1.4-4.5,1.3c-3.2-1-3.3-1-2.4-4.1l14.4-48c1.7-5.5,6.6-9.2,12.4-9.2
			h11.1c3.3,0,6,2.7,6,6c0,3.3-2.7,6-6,6h-11.1c-0.4,0-0.8,0.3-0.9,0.7l-14.4,48C109.1,178.3,107.8,175.1,105.3,175.1z"/>
	</g>
	<line id="XMLID_7451_" class="st18" x1="134" y1="174.2" x2="136.3" y2="174.1"/>
	<g id="XMLID_7449_">
		<path id="XMLID_7450_" class="st31" d="M147.2,127h-11.1c-0.4,0-0.8,0.3-0.9,0.7l-14.4,48c-0.8,2.6-2-0.6-4.6-0.6
			c-0.6,0-2.2,0.8-2.8,0.6c-3.2-1-5.1-0.2-4.2-3.4l14.4-48c1.7-5.5,6.6-9.2,12.4-9.2h24.6"/>
	</g>
	<rect id="XMLID_7448_" x="214.5" y="128.6" class="st52" width="37.3" height="49.3"/>
	<rect id="XMLID_7447_" x="202.6" y="128.6" class="st43" width="37.3" height="49.3"/>
	<rect id="XMLID_7446_" x="202.6" y="144.3" class="st15" width="37.3" height="3.2"/>
	<rect id="XMLID_7445_" x="202.6" y="160.9" class="st15" width="37.3" height="3.2"/>
	<path id="XMLID_7444_" class="st5" d="M225.1,140.8h-8.8c-0.7,0-1.3-0.6-1.3-1.3v0c0-0.7,0.6-1.3,1.3-1.3h8.8
		c0.7,0,1.3,0.6,1.3,1.3v0C226.4,140.2,225.8,140.8,225.1,140.8z"/>
	<path id="XMLID_7443_" class="st5" d="M225.1,157.1h-8.8c-0.7,0-1.3-0.6-1.3-1.3v0c0-0.7,0.6-1.3,1.3-1.3h8.8
		c0.7,0,1.3,0.6,1.3,1.3v0C226.4,156.5,225.8,157.1,225.1,157.1z"/>
	<path id="XMLID_7442_" class="st5" d="M225.1,173.4h-8.8c-0.7,0-1.3-0.6-1.3-1.3v0c0-0.7,0.6-1.3,1.3-1.3h8.8
		c0.7,0,1.3,0.6,1.3,1.3v0C226.4,172.8,225.8,173.4,225.1,173.4z"/>
	<path id="XMLID_7409_" class="st53" d="M78.9,143.6H50.6c-0.8,0-1.4,0.6-1.4,1.4c0,0.7,0.6,1.3,1.3,1.4l0.1,0l5.8,20.8l-0.1,0
		l0.2,0.3l2.3,8.3c-0.4,0.2-0.7,0.6-0.7,1.1c0,0.7,0.5,1.2,1.2,1.2h16.1c0.7,0,1.2-0.5,1.2-1.2c0-0.3-0.1-0.6-0.3-0.8l2.7-10v-5.8
		c0,0,0,0,0,0l-0.1,0l0.1-0.1v-0.8l-0.9,0.5l-0.7-0.3c-0.5-0.2-1-0.2-1.4,0c-0.2,0.1-0.4,0.2-0.5,0.4l-2.7-1.5l4.2-2.4l2.1,1.2v-0.8
		l-1.4-0.8l1.4-0.8v-0.8l-2.1,1.2l-3.8-2.2l3.8-2.2l2.1,1.2v-0.8l-1.4-0.8l1.4-0.8v-0.8l-2.1,1.2l-4.2-2.4l2-1.2l-0.1-0.1h4.3V143.6
		z M69.1,146.4l2.2,1.3l-3.8,2.2l-3.8-2.2l2.2-1.3H69.1z M62,153.1l-3.8,2.2l-3.8-2.2l3.8-2.2L62,153.1z M58.9,150.5L63,148l3.8,2.2
		l-4.2,2.4L58.9,150.5z M62.7,153.4l4.2,2.4l-3.8,2.2l-4.2-2.4L62.7,153.4z M67.5,156.2l3.8,2.2l-3.8,2.2l-3.8-2.2L67.5,156.2z
		 M63.4,153.1l4.2-2.4l4.2,2.4l-4.2,2.4L63.4,153.1z M64.6,146.4l-1.6,0.9l-1.6-0.9H64.6z M60.1,146.4l2.2,1.3l-4.2,2.4l-6.4-3.7
		H60.1z M51.3,146.9l6.2,3.6l-3.8,2.2l-0.9-0.5L51.3,146.9z M53.2,153.7l0.5-0.3l3.8,2.2l-3.2,1.9L53.2,153.7z M54.5,158.2l3.7-2.2
		l4.2,2.4l-3.9,2.2l-4-2.3L54.5,158.2z M54.8,159.3l3,1.8l-2.2,1.3L54.8,159.3z M56.5,165.5l1.3,0.8l-1,0.6L56.5,165.5z M58,169.9
		v0.5l-0.2-0.1l-0.8-2.8l1.5-0.8l1.3,0.8l-0.6,0.4L58,169.9z M59.6,175.7h-0.2l-0.5-2l0.4,0.8l1.2,0.7L59.6,175.7z M60.6,167
		L60.6,167l-1.4-0.7l1.4-0.8V167z M60.9,175.7l0.2-0.1l0.2,0.1H60.9z M61.7,163.3l-0.6,1.1l-2.5,1.5l-2.3-1.3l-0.4-1.6l2.7-1.6
		L61.7,163.3L61.7,163.3z M62.3,162.9l-3.2-1.9l3.9-2.2l3.8,2.2l-2.1,1.2h-1.2L62.3,162.9z M63.9,175.7l0.9-0.5l0.9,0.5H63.9z
		 M67.9,175.7h-0.8l0,0L67.9,175.7L67.9,175.7z M67.9,163.9l-0.1,0.2l-0.4-0.7l-1.6-0.9l1.7-1l1.8,1c-0.1,0-0.2,0.1-0.3,0.1
		C68.5,162.9,68.1,163.3,67.9,163.9z M69.2,175.7l1-0.6l1,0.6h2.4l0.2-0.1l0.3,0.2H69.2z M73.9,164.4L73.9,164.4
		c-0.3-0.4-0.5-0.6-0.9-0.8l1.4-0.8L73.9,164.4z M76.1,168.3c0.2,0.1,0.4,0.1,0.6,0.1c0.3,0,0.5-0.1,0.8-0.2c0,0,0,0,0.1,0l-0.6,2.2
		l-0.1,0.1v-0.5l-1-1.7L76.1,168.3z M75.7,174.5l0.5-0.8l-0.5,2c0,0-0.1,0-0.1,0l-1-0.6L75.7,174.5z M75,160.6c0,0,0,0.1-0.1,0.1
		l-0.3,1.1l-2.4,1.4l-1.1-0.5l-2.9-1.7l3.8-2.2L75,160.6z M76.2,155.7l-4.2,2.4l-3.8-2.2l4.2-2.4L76.2,155.7z M76.2,150.5l-3.8,2.2
		l-4.2-2.4L72,148L76.2,150.5z M72,147.3l-1.6-0.9h3.1L72,147.3z"/>
	<g id="XMLID_7400_">
		<path id="XMLID_7408_" class="st28" d="M80.4,156.6l-1.7,8c-0.1,0.6,0.2,1.1,0.8,1.3l0,0c0.6,0.1,1.1-0.2,1.3-0.8l1.7-8
			c0.1-0.6-0.2-1.1-0.8-1.3l0,0C81.1,155.7,80.5,156.1,80.4,156.6z"/>
		<path id="XMLID_7407_" class="st46" d="M80.5,156.3l-10.8-1.5c-0.3,0-0.7,0.2-0.7,0.5l-1.2,5.7c-0.1,0.3,0.1,0.7,0.5,0.8l10.5,3.1
			L80.5,156.3z"/>
		<path id="XMLID_7406_" class="st54" d="M82.4,157.4l-1.6,7.4l0.5,0.1c0.5,0.1,1-0.2,1.1-0.6l1.8-5.3c0.2-0.5-0.1-1.1-0.7-1.3
			L82.4,157.4z"/>
		<path id="XMLID_7405_" class="st16" d="M80.5,156.3l-10.8-1.5c-0.3,0-0.7,0.2-0.7,0.5l-0.2,1l11.4,1.6L80.5,156.3z"/>
		<path id="XMLID_7404_" class="st18" d="M80.5,156.3l-10.8-1.5c-0.3,0-0.7,0.2-0.7,0.5l-1.2,5.7c-0.1,0.3,0.1,0.7,0.5,0.8l10.5,3.1
			L80.5,156.3z"/>
		<path id="XMLID_7403_" class="st25" d="M78.7,155.8l-7.6-1.1c-0.2,0-0.3,0.1-0.4,0.3l-0.4,1.7l8.3,1.2l0.3-1.6
			C79,156,78.9,155.8,78.7,155.8z"/>
		<path id="XMLID_7402_" class="st26" d="M78.7,157.8l-8.3-1.2l-1.2,5.6c0,0.2,0.1,0.4,0.2,0.4l7.4,2.2c0.2,0.1,0.4-0.1,0.4-0.3
			L78.7,157.8z"/>
		<path id="XMLID_7401_" class="st30" d="M77.2,164.5l1.4-6.7l0.3-1.6c0-0.2-0.1-0.4-0.3-0.4l-7.6-1.1c-0.2,0-0.3,0.1-0.4,0.3
			l-0.4,1.7l-1.2,5.6c0,0.2,0.1,0.4,0.2,0.4l7.4,2.2C77,164.8,77.2,164.7,77.2,164.5z"/>
	</g>
	<g id="XMLID_7375_">
		<g id="XMLID_7390_">
			<polygon id="XMLID_7399_" class="st27" points="80.6,177.3 64.3,177.3 55.5,145.3 89.1,145.3 			"/>
			<polygon id="XMLID_7398_" class="st55" points="66.4,175.8 64.4,174.6 63.3,172.7 63.3,170.4 64.4,168.4 66.4,167.2 68.7,167.2 
				70.7,168.4 71.8,170.4 71.8,172.7 70.7,174.6 68.7,175.8 			"/>
			<polygon id="XMLID_7397_" class="st56" points="71.5,175.7 69.5,174.6 68.4,172.6 68.4,170.4 69.5,168.4 71.5,167.3 73.7,167.3 
				75.7,168.4 76.8,170.4 76.8,172.6 75.7,174.6 73.7,175.7 			"/>
			<polygon id="XMLID_7396_" class="st55" points="76.2,175.7 74.3,174.6 73.2,172.6 73.2,170.4 74.3,168.4 76.2,167.3 78.5,167.3 
				80.4,168.4 81.6,170.4 81.6,172.6 80.4,174.6 78.5,175.7 			"/>
			<path id="XMLID_7395_" class="st56" d="M79.7,167.8l1.5,0.6c0.8,0.3,1.7-0.1,1.9-0.9l1.4-4.9c0.2-0.7-0.2-1.4-0.8-1.7l-1.6-0.7
				c-0.8-0.3-1.7,0.1-1.9,0.9l-1.4,4.9C78.6,166.8,79,167.5,79.7,167.8z"/>
			<path id="XMLID_7394_" class="st57" d="M73,165.1l0.2-0.8c0.3-1,1.3-1.5,2.3-1.1l2.2,0.9c0.8,0.3,1.2,1.3,0.9,2.1l-0.2,0.6
				c-0.3,0.9-1.3,1.3-2.2,1l-2.2-0.8C73.2,166.8,72.8,165.9,73,165.1z"/>
			<polygon id="XMLID_7393_" class="st56" points="68.6,170.2 66.9,169.3 65.9,167.6 65.9,165.6 66.9,163.9 68.6,163 70.5,163 
				72.2,163.9 73.2,165.6 73.2,167.6 72.2,169.3 70.5,170.2 			"/>
			<path id="XMLID_7392_" class="st9" d="M89.1,146.4H55.5c-0.6,0-1-0.5-1-1v0c0-0.6,0.5-1,1-1h33.6c0.6,0,1,0.5,1,1v0
				C90.1,145.9,89.6,146.4,89.1,146.4z"/>
			<path id="XMLID_7391_" class="st57" d="M80.3,178.2H64.2c-0.5,0-0.9-0.4-0.9-0.9v0c0-0.5,0.4-0.9,0.9-0.9h16.2
				c0.5,0,0.9,0.4,0.9,0.9v0C81.2,177.8,80.8,178.2,80.3,178.2z"/>
		</g>
		<line id="XMLID_7389_" class="st6" x1="55.5" y1="146.4" x2="84.4" y2="163.1"/>
		<line id="XMLID_7388_" class="st6" x1="57.5" y1="152.7" x2="83.3" y2="167.7"/>
		<line id="XMLID_7387_" class="st6" x1="74.2" y1="146.4" x2="86.9" y2="153.8"/>
		<line id="XMLID_7386_" class="st6" x1="65.2" y1="146.4" x2="85.7" y2="158.3"/>
		<line id="XMLID_7385_" class="st6" x1="59.2" y1="159" x2="82" y2="172.2"/>
		<line id="XMLID_7384_" class="st6" x1="60.9" y1="165.1" x2="80.6" y2="176.6"/>
		<line id="XMLID_7383_" class="st6" x1="62.4" y1="170.9" x2="72" y2="176.4"/>
		<line id="XMLID_7382_" class="st6" x1="88.8" y1="146.8" x2="60.3" y2="163.3"/>
		<line id="XMLID_7381_" class="st6" x1="87.2" y1="152.9" x2="61.3" y2="167.9"/>
		<line id="XMLID_7380_" class="st6" x1="70.8" y1="146.4" x2="57.8" y2="153.9"/>
		<line id="XMLID_7379_" class="st6" x1="79.2" y1="146.7" x2="59" y2="158.4"/>
		<line id="XMLID_7378_" class="st6" x1="85.5" y1="159.1" x2="62.7" y2="172.4"/>
		<line id="XMLID_7377_" class="st6" x1="83.7" y1="165.3" x2="64" y2="176.7"/>
		<line id="XMLID_7376_" class="st6" x1="82.2" y1="171" x2="72.7" y2="176.6"/>
	</g>
	<rect id="XMLID_7374_" x="169.6" y="91.2" class="st19" width="28" height="10.8"/>
	<rect id="XMLID_7373_" x="186.3" y="91.2" class="st58" width="25.6" height="10.8"/>
	<polygon id="XMLID_7372_" class="st21" points="175.7,92.9 174.4,95.2 171.9,92.9 	"/>
	<polygon id="XMLID_7371_" class="st22" points="175.7,92.9 173.2,95.3 170.7,92.9 	"/>
	<polygon id="XMLID_7370_" class="st21" points="183.8,96.8 182.5,99 180.1,96.8 	"/>
	<polygon id="XMLID_7369_" class="st22" points="183.8,96.8 181.3,99.2 178.9,96.8 	"/>
	<polygon id="XMLID_7368_" class="st9" points="54.1,54 58.1,50.5 58.7,54.6 56.2,56.7 	"/>
	<polygon id="XMLID_7367_" class="st9" points="56.2,56.7 53.7,77.9 57.8,84 61.9,77.9 58.7,54.6 	"/>
	<g id="XMLID_7325_">
		<g id="XMLID_7354_">
			<path id="XMLID_7366_" class="st54" d="M209.1,84.1v2.7h0.8v0.9h-16.5c-1.2,0-2.2-1-2.2-2.2c0-0.6,0.2-1.1,0.6-1.5
				c0.4-0.4,0.9-0.6,1.5-0.6H210v0.8H209.1z"/>
			<path id="XMLID_7365_" class="st59" d="M201,85.5v2.2h-7.5c-1.2,0-2.2-0.9-2.2-1.9c0-0.1,0-0.2,0-0.2H201z"/>
			<path id="XMLID_7364_" class="st18" d="M209.1,84.1v2.7h0.8v0.9h-16.5c-1.2,0-2.2-1-2.2-2.2c0-0.6,0.2-1.1,0.6-1.5
				c0.4-0.4,0.9-0.6,1.5-0.6H210v0.8H209.1z"/>
			<path id="XMLID_7363_" class="st60" d="M216.4,84.1v2.7h0.4c0.2,0,0.4,0.2,0.4,0.4l0,0c0,0.2-0.2,0.4-0.4,0.4h-16
				c-1.2,0-2.2-0.9-2.2-2.1c0-0.6,0.2-1.2,0.6-1.6c0.4-0.4,0.9-0.6,1.5-0.6h16.1c0.2,0,0.4,0.2,0.4,0.4l0,0c0,0.2-0.2,0.4-0.4,0.4
				H216.4z"/>
			<path id="XMLID_7362_" class="st18" d="M195.8,87.7h-0.4c-1.2,0-2.2-1-2.2-2.2c0-0.6,0.2-1.1,0.6-1.5c0.4-0.4,0.9-0.6,1.5-0.6
				h0.3"/>
			<path id="XMLID_7361_" class="st18" d="M198.3,87.7h-0.4c-1.2,0-2.2-1-2.2-2.2c0-0.6,0.2-1.1,0.6-1.5c0.4-0.4,0.9-0.6,1.5-0.6
				h0.3"/>
			<path id="XMLID_7360_" class="st61" d="M216.4,86.8h-15.6c-0.7,0-1.3-0.6-1.3-1.3v0c0-0.7,0.6-1.3,1.3-1.3h15.6V86.8z"/>
			<path id="XMLID_7359_" class="st61" d="M197.9,87.7h-2.5c-1.2,0-2.2-1-2.2-2.2c0-0.6,0.2-1.1,0.6-1.5c0.4-0.4,0.9-0.6,1.5-0.6
				h2.5c-0.6,0-1.1,0.2-1.5,0.6c-0.4,0.4-0.6,0.9-0.6,1.5C195.8,86.7,196.7,87.7,197.9,87.7z"/>
			<path id="XMLID_7358_" class="st62" d="M197.9,87.7h-2.5c-1.2,0-2.2-1-2.2-2.2h2.5C195.8,86.7,196.7,87.7,197.9,87.7z"/>
			<path id="XMLID_7357_" class="st62" d="M216.4,84.1V85h-15.5c-0.4,0-0.7,0.1-0.9,0.4c-0.1,0.1-0.3,0.3-0.3,0.5
				c0-0.1-0.1-0.3-0.1-0.4c0-0.4,0.1-0.7,0.4-0.9c0.2-0.2,0.6-0.4,0.9-0.4H216.4z"/>
			<path id="XMLID_7356_" class="st18" d="M197.9,87.7h-2.5c-1.2,0-2.2-1-2.2-2.2c0-0.6,0.2-1.1,0.6-1.5c0.4-0.4,0.9-0.6,1.5-0.6
				h2.5c-0.6,0-1.1,0.2-1.5,0.6c-0.4,0.4-0.6,0.9-0.6,1.5C195.8,86.7,196.7,87.7,197.9,87.7z"/>
			<path id="XMLID_7355_" class="st30" d="M216.4,86.8h-15.6c-0.7,0-1.3-0.6-1.3-1.3v0c0-0.7,0.6-1.3,1.3-1.3h15.6V86.8z"/>
		</g>
		<path id="XMLID_7353_" class="st26" d="M203.2,92.9v2.7h0.8v0.8h-16.5c-1.2,0-2.2-1-2.2-2.2c0-0.6,0.2-1.1,0.6-1.5
			c0.4-0.4,0.9-0.6,1.5-0.6H204v0.8H203.2z"/>
		<path id="XMLID_7352_" class="st63" d="M202.6,94.2v2.2h-15.1c-1.2,0-2.2-0.9-2.2-1.9c0-0.1,0-0.2,0-0.2H202.6z"/>
		<path id="XMLID_7351_" class="st18" d="M203.2,92.9v2.7h0.8v0.8h-16.5c-1.2,0-2.2-1-2.2-2.2c0-0.6,0.2-1.1,0.6-1.5
			c0.4-0.4,0.9-0.6,1.5-0.6H204v0.8H203.2z"/>
		<path id="XMLID_7350_" class="st64" d="M218.1,92.9v2.7h0.4c0.2,0,0.4,0.2,0.4,0.4l0,0c0,0.2-0.2,0.4-0.4,0.4h-16
			c-1.2,0-2.2-0.9-2.2-2.1c0-0.6,0.2-1.2,0.6-1.6c0.4-0.4,0.9-0.6,1.5-0.6h16.1c0.2,0,0.4,0.2,0.4,0.4l0,0c0,0.2-0.2,0.4-0.4,0.4
			H218.1z"/>
		<path id="XMLID_7349_" class="st61" d="M218.1,95.5h-15.6c-0.7,0-1.3-0.6-1.3-1.3v0c0-0.7,0.6-1.3,1.3-1.3h15.6V95.5z"/>
		<path id="XMLID_7348_" class="st16" d="M198.9,96.4H192c-1.2,0-2.2-1-2.2-2.2c0-0.6,0.2-1.1,0.6-1.5c0.4-0.4,0.9-0.6,1.5-0.6h6.9
			c-0.6,0-1.1,0.2-1.5,0.6c-0.4,0.4-0.6,0.9-0.6,1.5C196.8,95.4,197.7,96.4,198.9,96.4z"/>
		<path id="XMLID_7347_" class="st62" d="M198.9,96.4H192c-1.2,0-2.2-1-2.2-2.2h6.9C196.8,95.4,197.7,96.4,198.9,96.4z"/>
		<path id="XMLID_7346_" class="st62" d="M218.1,92.9v0.9h-15.5c-0.4,0-0.7,0.1-0.9,0.4c-0.1,0.1-0.3,0.3-0.3,0.5
			c0-0.1-0.1-0.3-0.1-0.4c0-0.4,0.1-0.7,0.4-0.9c0.2-0.2,0.6-0.4,0.9-0.4H218.1z"/>
		<path id="XMLID_7345_" class="st18" d="M196.4,92h2.5c-0.6,0-1.1,0.2-1.5,0.6c-0.4,0.4-0.6,0.9-0.6,1.5c0,1.2,1,2.2,2.2,2.2h-2.5"
			/>
		<path id="XMLID_7344_" class="st18" d="M192,96.4c-1.2,0-2.2-1-2.2-2.2c0-0.6,0.2-1.1,0.6-1.5c0.4-0.4,0.9-0.6,1.5-0.6"/>
		<path id="XMLID_7343_" class="st27" d="M218.1,95.5h-15.6c-0.7,0-1.3-0.6-1.3-1.3v0c0-0.7,0.6-1.3,1.3-1.3h15.6V95.5z"/>
		<g id="XMLID_7334_">
			<path id="XMLID_7342_" class="st65" d="M205.9,88.5v2.7h0.8V92h-16.5c-1.2,0-2.2-1-2.2-2.2c0-0.6,0.2-1.1,0.6-1.5
				c0.4-0.4,0.9-0.6,1.5-0.6h16.5v0.8H205.9z"/>
			<path id="XMLID_7341_" class="st66" d="M197.8,89.8V92h-7.5c-1.2,0-2.2-0.9-2.2-1.9c0-0.1,0-0.2,0-0.2H197.8z"/>
			<path id="XMLID_7340_" class="st18" d="M205.9,88.5v2.7h0.8V92h-16.5c-1.2,0-2.2-1-2.2-2.2c0-0.6,0.2-1.1,0.6-1.5
				c0.4-0.4,0.9-0.6,1.5-0.6h16.5v0.8H205.9z"/>
			<path id="XMLID_7339_" class="st67" d="M213.1,88.5v2.7h0.4c0.2,0,0.4,0.2,0.4,0.4l0,0c0,0.2-0.2,0.4-0.4,0.4h-16
				c-1.2,0-2.2-0.9-2.2-2.1c0-0.6,0.2-1.2,0.6-1.6c0.4-0.4,0.9-0.6,1.5-0.6h16.1c0.2,0,0.4,0.2,0.4,0.4l0,0c0,0.2-0.2,0.4-0.4,0.4
				H213.1z"/>
			<path id="XMLID_7338_" class="st61" d="M213.1,91.2h-15.6c-0.7,0-1.3-0.6-1.3-1.3v0c0-0.7,0.6-1.3,1.3-1.3h15.6V91.2z"/>
			<path id="XMLID_7337_" class="st62" d="M213.1,88.5v0.9h-15.5c-0.4,0-0.7,0.1-0.9,0.4c-0.1,0.1-0.3,0.3-0.3,0.5
				c0-0.1-0.1-0.3-0.1-0.4c0-0.4,0.1-0.7,0.4-0.9c0.2-0.2,0.6-0.4,0.9-0.4H213.1z"/>
			<path id="XMLID_7336_" class="st30" d="M213.1,91.2h-15.6c-0.7,0-1.3-0.6-1.3-1.3v0c0-0.7,0.6-1.3,1.3-1.3h15.6V91.2z"/>
			<path id="XMLID_7335_" class="st18" d="M194.5,92H192c-1.2,0-2.2-1-2.2-2.2c0-0.6,0.2-1.1,0.6-1.5c0.4-0.4,0.9-0.6,1.5-0.6h2.5
				c-0.6,0-1.1,0.2-1.5,0.6c-0.4,0.4-0.6,0.9-0.6,1.5C192.3,91,193.3,92,194.5,92z"/>
		</g>
		<g id="XMLID_7326_">
			<g id="XMLID_7328_">
				<path id="XMLID_7333_" class="st68" d="M190.5,102h22c1.5,0,2.8-1.2,2.8-2.8v-0.1c0-1.5-1.2-2.8-2.8-2.8h-22V102z"/>
				<path id="XMLID_7332_" class="st69" d="M190.5,97.2v4h-0.4c-0.2,0-0.4,0.2-0.4,0.4l0,0c0,0.2,0.2,0.4,0.4,0.4h15.5
					c1.5,0,2.8-1.3,2.8-2.8v0c0-1.5-1.3-2.8-2.8-2.8h-15.5c-0.2,0-0.4,0.2-0.4,0.4v0c0,0.2,0.2,0.4,0.4,0.4H190.5z"/>
				<path id="XMLID_7331_" class="st19" d="M191.5,101.1h14.9c1.1,0,2-0.9,2-2v-0.1c0-1.1-0.9-2-2-2h-14.9V101.1z"/>
				<path id="XMLID_7330_" class="st62" d="M190.5,97.2V98h14.9c0.5,0,1,0.2,1.4,0.6c0.3,0.3,0.5,0.6,0.5,1c0-0.1,0-0.3,0-0.4v0
					c0-1.1-0.9-2-2-2H190.5z"/>
				<path id="XMLID_7329_" class="st27" d="M191.5,101.1h14.9c1.1,0,2-0.9,2-2v-0.1c0-1.1-0.9-2-2-2h-14.9V101.1z"/>
			</g>
			<path id="XMLID_7327_" class="st45" d="M215.3,99.2c0,1.5-1.3,2.8-2.8,2.8h-6.9c1.5,0,2.8-1.3,2.8-2.8v0H215.3z"/>
		</g>
	</g>
	<g id="XMLID_7291_">
		<path id="XMLID_7297_" class="st8" d="M244.3,110.4h-4.7c0,0,2.5,0.1,2.5,0.1v2.3c0,1.5-1.3,2.8-2.8,2.8H218
			c-1.5,0-2.8-1.3-2.8-2.8v-2.3c0,0,0-0.1,0-0.1h-1.6c-1.5,0-2.8,1.3-2.8,2.8v12.5c0,1.5,1.3,2.8,2.8,2.8h30.7
			c1.5,0,2.8-1.3,2.8-2.8v-12.5C247.1,111.6,245.9,110.4,244.3,110.4z"/>
		<path id="XMLID_7296_" class="st8" d="M239.4,110.5h-22.7v0c0-1.6,1.3-2.9,2.9-2.9h16.8C238.1,107.5,239.4,108.8,239.4,110.5
			L239.4,110.5z"/>
		<path class="st5" d="M236.5,110.5c0,0,0,0.1,0,0.1c-1.9,1.2-16.7,10.1-16.7-0.1c0-10.9,4.3-15,4.3-15h16.7
			C240.8,95.5,236.5,99.6,236.5,110.5z"/>
		<path id="XMLID_7295_" class="st6" d="M240.7,110.4h-2.2c0,0,0,0.1,0,0.1v2.3c0,1.5-1.3,2.8-2.8,2.8h-21.3c-1.5,0-2.8-1.3-2.8-2.8
			v-2.3c0,0,0-0.1,0-0.1H210c-1.5,0-2.8,1.3-2.8,2.8v12.5c0,1.5,1.3,2.8,2.8,2.8h30.7c1.5,0,2.8-1.3,2.8-2.8v-12.5
			C243.5,111.6,242.3,110.4,240.7,110.4z"/>
		<rect id="XMLID_7294_" x="211.1" y="123.7" class="st8" width="28.5" height="2.3"/>
		<path id="XMLID_7293_" class="st8" d="M211.7,112.8c0,1.5,1.3,2.8,2.8,2.8h21.3c1.5,0,2.8-1.3,2.8-2.8v-2.3c0,0,0-0.1,0-0.1h-26.9
			c0,0,0,0.1,0,0.1V112.8z"/>
		<path id="XMLID_7292_" class="st6" d="M241.4,113.8c0-0.2-0.2-0.4-0.4-0.4c-0.2,0-0.4,0.2-0.4,0.4c0,0.2,0.2,0.4,0.4,0.4
			C241.3,114.3,241.4,114.1,241.4,113.8z"/>
	</g>
	<g id="XMLID_7284_">
		<rect id="XMLID_7290_" x="190.5" y="74.7" class="st0" width="28.5" height="8.6"/>
		<rect id="XMLID_7289_" x="197" y="74.7" class="st54" width="21.9" height="8.6"/>
		<path id="XMLID_7288_" class="st10" d="M216.7,79c0,1-0.8,1.8-1.8,1.8c-1,0-1.8-0.8-1.8-1.8s0.8-1.8,1.8-1.8
			C215.9,77.2,216.7,78,216.7,79z"/>
		<rect id="XMLID_7287_" x="200.3" y="77" class="st3" width="11" height="4"/>
		<rect id="XMLID_7286_" x="190.5" y="74.7" class="st28" width="6.5" height="1.6"/>
		<rect id="XMLID_7285_" x="190.5" y="81.7" class="st28" width="6.5" height="1.6"/>
	</g>
	<g id="XMLID_7275_">
		<g id="XMLID_7279_">
			<path id="XMLID_7283_" class="st70" d="M204.5,69.2l-3-13.2c0,0,0,0,0,0l-1.6,0.4l3,13.2c0.1,0.5,0.6,0.7,1,0.6
				C204.4,70.1,204.6,69.7,204.5,69.2z"/>
			<path id="XMLID_7282_" class="st10" d="M200.7,54.7c-0.4-0.5-0.7-1-0.7-1s-0.3,2.2-0.2,2.6l0,0l1.6-0.4
				C201.4,55.8,201.1,55.2,200.7,54.7z"/>
			<path id="XMLID_7281_" class="st70" d="M203.9,72.9l4.2-12.9c0,0,0,0,0,0l-1.6-0.5l-4.2,12.9c-0.1,0.4,0.1,0.9,0.5,1.1
				C203.2,73.5,203.7,73.3,203.9,72.9z"/>
			<path id="XMLID_7280_" class="st10" d="M208.1,58.5c0-0.6-0.1-1.2-0.1-1.2s-1.3,1.7-1.5,2.2l0,0l1.6,0.5
				C208.2,59.7,208.1,59.1,208.1,58.5z"/>
		</g>
		<path id="XMLID_7278_" class="st61" d="M208.4,65.4v7.4c0,0.9-0.8,1.7-1.7,1.7h-5.4c-0.9,0-1.7-0.8-1.7-1.7v-7.4
			c0-0.9,0.8-1.7,1.7-1.7h5.4C207.7,63.8,208.4,64.5,208.4,65.4z"/>
		<path id="XMLID_7277_" class="st3" d="M204,65.4v7.4c0,0.9-0.8,1.7-1.7,1.7h-1.1c-0.9,0-1.7-0.8-1.7-1.7v-7.4
			c0-0.9,0.8-1.7,1.7-1.7h1.1C203.3,63.8,204,64.5,204,65.4z"/>
		<path id="XMLID_7276_" class="st30" d="M208.4,65.4v7.4c0,0.9-0.8,1.7-1.7,1.7h-5.4c-0.9,0-1.7-0.8-1.7-1.7v-7.4
			c0-0.9,0.8-1.7,1.7-1.7h5.4C207.7,63.8,208.4,64.5,208.4,65.4z"/>
	</g>
	<line id="XMLID_7274_" class="st28" x1="6.1" y1="178.2" x2="254.9" y2="178.2"/>
	<path id="XMLID_7273_" class="st71" d="M110.6,178.2H88.2c-1.4,0-2.5-1.1-2.5-2.5l0,0c0-1.1,0.8-2.1,1.9-2.4l11.4-3.1h13.3v6.5
		C112.3,177.5,111.5,178.2,110.6,178.2z"/>
	<path id="XMLID_7272_" class="st46" d="M110.8,178.2H87.7c-1,0-1.8-0.8-1.8-1.8v0h26.6v0C112.6,177.4,111.8,178.2,110.8,178.2z"/>
	<path id="XMLID_7271_" class="st72" d="M120.7,178.2H98.3c-1.4,0-2.5-1.1-2.5-2.5l0,0c0-1.1,0.8-2.1,1.9-2.4l11.4-3.1h13.3v6.5
		C122.3,177.5,121.6,178.2,120.7,178.2z"/>
	<path id="XMLID_7270_" class="st18" d="M120.7,178.2H98.3c-1.4,0-2.5-1.1-2.5-2.5l0,0c0-1.1,0.8-2.1,1.9-2.4l12.4-3.4l12.3,0.2v6.5
		C122.3,177.5,121.6,178.2,120.7,178.2z"/>
	<path id="XMLID_7269_" class="st46" d="M120.6,178.2H97.5c-1,0-1.8-0.8-1.8-1.8v0h26.6v0C122.3,177.4,121.5,178.2,120.6,178.2z"/>
	<line id="XMLID_7268_" class="st46" x1="105.1" y1="171.3" x2="105.5" y2="172.6"/>
	<line id="XMLID_7267_" class="st46" x1="106.2" y1="171" x2="106.6" y2="172.4"/>
	<line id="XMLID_7266_" class="st46" x1="107.3" y1="170.7" x2="107.7" y2="172.1"/>
	<line id="XMLID_7265_" class="st46" x1="95.2" y1="171.3" x2="95.6" y2="172.6"/>
	<line id="XMLID_7264_" class="st46" x1="96.3" y1="171" x2="96.7" y2="172.4"/>
	<line id="XMLID_7263_" class="st46" x1="97.4" y1="170.7" x2="97.8" y2="172.1"/>
	<line id="XMLID_7257_" class="st73" x1="62.6" y1="96.6" x2="70.5" y2="96.6"/>
	<line id="XMLID_7170_" class="st73" x1="55.4" y1="92.7" x2="63.2" y2="92.7"/>
	<line id="XMLID_7162_" class="st22" x1="178.8" y1="92.9" x2="169.6" y2="92.9"/>
	<line id="XMLID_7115_" class="st22" x1="184.8" y1="96.8" x2="177.1" y2="96.8"/>
	<g id="XMLID_6851_">
		<path id="XMLID_7110_" class="st14" d="M68.2,36.8c-4.4,3.4-5.2,9.6-1.8,14c0.1,0.1,0.2,0.2,0.3,0.3c0,0,0,0,0.1,0.1
			c0.1,0.1,0.3,0.2,0.4,0.3c0,0,0.1,0,0.2,0.1c0.4,0.1,0.8,0.2,1.2,0.2c0.1,0,0.2,0,0.3,0c0.1,0,0.2,0,0.3,0
			c1.3-0.1,2.9-0.7,4.5-1.6c0.9-0.5,1.9-1.1,2.8-1.8c0.1-0.1,0.1-0.1,0.2-0.2c0,0,0,0,0,0c0,0,0.1-0.1,0.1-0.1l0.1-0.1
			c0.1-0.1,0.2-0.1,0.2-0.2c3.3-2.6,6-5.9,5.6-8.2c0,0,0,0,0,0c-0.1-0.4-0.2-0.7-0.4-1C78.8,34.3,72.5,33.5,68.2,36.8z"/>
		<path id="XMLID_7107_" class="st15" d="M82.6,39.6C82.6,39.6,82.6,39.6,82.6,39.6c0.1,0.2,1.1,3.2-5.6,8.2c0,0,0,0,0,0
			c-0.1,0-0.1,0.1-0.2,0.1l-0.1,0.1c0,0-0.1,0.1-0.1,0.1c0,0,0,0,0,0c-0.1,0.1-0.1,0.1-0.2,0.2c-1,0.7-1.9,1.3-2.8,1.8
			c-2,1.1-3.4,1.5-4.5,1.6c-0.1,0-0.2,0-0.3,0c-0.1,0-0.2,0-0.3,0c-0.5,0-0.9-0.1-1.2-0.2c-0.1,0-0.1,0-0.2-0.1
			c-0.2-0.1-0.4-0.2-0.4-0.3c0,0-0.1-0.1-0.1-0.1s0.5-1.1,4.3-4.3c0.8-0.7,1.8-1.5,2.9-2.3c1.2-0.9,2.3-1.7,3.3-2.3
			C80.8,39.8,82.6,39.6,82.6,39.6z"/>
		<path id="XMLID_7104_" class="st5" d="M77.5,42.5c1.3,1.6,1,4-0.5,5.3c0,0,0,0-0.1,0.1c0,0,0,0,0,0c0,0-0.1,0.1-0.2,0.1
			c-0.1,0.1-0.2,0.1-0.2,0.2c0,0,0,0,0,0c-1.7,1.1-4,0.8-5.3-0.9C71.2,47.1,71,47,71,46.8c0.8-0.7,1.8-1.5,2.9-2.3
			c1.2-0.9,2.3-1.7,3.3-2.3C77.3,42.3,77.4,42.4,77.5,42.5z"/>
		<path id="XMLID_6869_" class="st74" d="M73.7,36.7c1.4-0.1,3.1,0.3,4.9,1.5"/>
		<path id="XMLID_6868_" class="st74" d="M69.9,38c0,0,0.6-0.5,1.7-0.9"/>
	</g>
	<polygon id="XMLID_6850_" class="st75" points="147.1,137.8 132.2,137.8 135.5,127.3 150.2,127.1 	"/>
</g>
</svg>
