<?xml version="1.0" encoding="utf-8"?>
<!-- Generator: Adobe Illustrator 22.1.0, SVG Export Plug-In . SVG Version: 6.00 Build 0)  -->
<svg version="1.1" id="Capa_1" xmlns="http://www.w3.org/2000/svg" xmlns:xlink="http://www.w3.org/1999/xlink" x="0px" y="0px"
	 viewBox="0 0 500 500" style="enable-background:new 0 0 500 500;" xml:space="preserve">
<g>
	<path d="M81.1,205.8H26.4C14,205.8,4,215.8,4,228.1v245.8c0,12.4,10,22.3,22.4,22.3h54.7c12.3,0,22.3-10,22.3-22.3V228.1
		C103.4,215.8,93.4,205.8,81.1,205.8L81.1,205.8z M81.1,205.8"/>
	<path d="M211.8,272.8h-54.8c-12.4,0-22.3,10-22.3,22.4v178.7c0,12.3,10,22.3,22.3,22.3h54.8c12.4,0,22.4-10,22.4-22.3V295.2
		C234.2,282.8,224.2,272.8,211.8,272.8L211.8,272.8z M211.8,272.8"/>
	<path d="M342.5,272.8h-54.8c-12.3,0-22.3,10-22.3,22.4v178.7c0,12.3,10,22.3,22.3,22.3h54.8c12.4,0,22.4-10,22.4-22.3V295.2
		C364.9,282.8,354.8,272.8,342.5,272.8L342.5,272.8z M342.5,272.8"/>
	<path d="M473.2,205.8h-54.8c-12.4,0-22.3,10-22.3,22.4v245.8c0,12.4,10,22.3,22.3,22.3h54.8c12.4,0,22.4-10,22.4-22.3V228.1
		C495.6,215.8,485.6,205.8,473.2,205.8L473.2,205.8z M473.2,205.8"/>
	<path d="M256.3,139.3v40.2c12.2-0.8,25-6.5,25-19.9C281.3,145.8,267.3,141.7,256.3,139.3L256.3,139.3z M256.3,139.3"/>
	<path d="M221.3,91.2c0,10.2,7.6,16,22.8,19.1V73.8C230.3,74.3,221.3,82.4,221.3,91.2L221.3,91.2z M221.3,91.2"/>
	<path d="M249.8,4.7c-67.8,0-122.9,55.2-122.9,122.9c0,67.7,55.2,122.9,122.9,122.9c67.8,0,122.9-55.2,122.9-122.9C372.7,59.9,317.6,4.7,249.8,4.7L249.8,4.7z M256.3,200.2v12.6c0,3.5-2.7,6.9-6.1,6.9c-3.4,0-6-3.4-6-6.9v-12.6c-34.4-0.8-51.4-21.3-51.4-37.4c0-8.1,4.9-12.8,12.6-12.8c22.8,0,5,28,38.9,29.5v-42.4c-30.1-5.5-48.4-18.7-48.4-41.3c0-27.6,23-41.9,48.4-42.6V42.3c0-3.5,2.6-7,6-7c3.5,0,6.1,3.5,6.1,7v10.8c15.8,0.4,48.4,10.4,48.4,30.3c0,7.9-5.9,12.6-12.8,12.6c-13.2,0-13-21.7-35.5-22.1v38.6c26.8,5.7,50.6,13.6,50.6,44.9C306.9,184.6,286.6,198.4,256.3,200.2L256.3,200.2z M256.3,200.2"/>
</g>
</svg>
