<?xml version="1.0" encoding="utf-8"?>
<!-- Generator: Adobe Illustrator 22.1.0, SVG Export Plug-In . SVG Version: 6.00 Build 0)  -->
<svg version="1.1" id="Capa_1" xmlns="http://www.w3.org/2000/svg" xmlns:xlink="http://www.w3.org/1999/xlink" x="0px" y="0px"
	 viewBox="0 0 500 500" style="enable-background:new 0 0 500 500;" xml:space="preserve">
<g>
	<path d="M251.1,496.5c-11.3,0-22.3-3.2-31.8-9.2c-8.7-5.5-18.8-7.5-28.5-5.6c-11.4,2.2-23.1,0.9-33.9-3.5
		c-10.4-4.3-19.4-11.5-25.9-20.6c-5.8-8.3-14.6-14-24.7-16.2c-11.2-2.4-21.3-8-29.5-16.1c-7.9-7.9-13.3-17.7-15.9-28.5
		c-2.5-10.4-8.2-19.2-16.3-24.7c-9.6-6.5-17-15.7-21.5-26.5c-4.3-10.4-5.6-21.8-3.7-32.9c1.7-10.1-0.3-20.2-5.7-28.5
		c-6.4-9.7-9.7-21-9.7-32.7c0-11.3,3.2-22.3,9.2-31.8c5.5-8.7,7.5-18.8,5.6-28.5c-2.2-11.4-0.9-23.1,3.5-33.9
		c4.3-10.4,11.5-19.4,20.6-25.9c8.3-5.8,14-14.6,16.2-24.7c2.4-11.2,8-21.4,16.1-29.5C83.1,69.5,93,64,103.7,61.4
		c10.4-2.5,19.2-8.2,24.7-16.3c6.5-9.6,15.7-17,26.5-21.5c10.4-4.3,21.8-5.6,32.9-3.7c10.1,1.7,20.2-0.3,28.5-5.7
		c9.7-6.4,21-9.7,32.7-9.7c11.3,0,22.3,3.2,31.8,9.2c8.7,5.5,18.8,7.5,28.5,5.6c11.4-2.2,23.1-0.9,33.9,3.5
		c10.4,4.3,19.4,11.5,25.9,20.6c5.8,8.3,14.6,14,24.7,16.2c11.2,2.4,21.3,8,29.5,16.1c7.9,7.9,13.3,17.7,15.9,28.5
		c2.5,10.4,8.2,19.2,16.3,24.7c9.6,6.5,17,15.7,21.5,26.5c4.3,10.4,5.6,21.8,3.7,32.9c-1.7,10.1,0.3,20.2,5.7,28.5
		c6.4,9.7,9.7,21,9.7,32.7c0,11.3-3.2,22.3-9.2,31.8c-5.5,8.7-7.5,18.8-5.6,28.5c2.2,11.4,0.9,23.1-3.5,33.9
		c-4.3,10.4-11.5,19.4-20.6,25.9c-8.3,5.8-14,14.6-16.2,24.7c-2.4,11.2-8,21.4-16.1,29.5c-7.9,7.9-17.7,13.3-28.5,15.9
		c-10.4,2.5-19.2,8.2-24.7,16.3c-6.5,9.6-15.7,17-26.5,21.5c-10.4,4.3-21.8,5.6-32.9,3.7c-10.1-1.7-20.2,0.3-28.5,5.7
		C274.1,493.1,262.8,496.5,251.1,496.5z M197.9,461.4c11.1,0,22.1,3.2,31.8,9.3c6.4,4,13.8,6.1,21.3,6.1c7.8,0,15.4-2.3,21.9-6.5
		c12.4-8.2,27.6-11.2,42.6-8.6c7.4,1.3,15.1,0.4,22.1-2.5c7.2-3,13.4-8,17.8-14.4c8.3-12.1,21.2-20.8,36.4-24.4
		c7.2-1.7,13.8-5.4,19.1-10.7c5.4-5.4,9.2-12.3,10.8-19.8c3.2-14.9,11.8-27.9,24.1-36.6c6.2-4.4,10.9-10.4,13.8-17.4
		c3-7.2,3.8-15.1,2.4-22.8c-2.8-14.6,0.2-29.8,8.3-42.6c4-6.4,6.1-13.8,6.1-21.3c0-7.8-2.3-15.4-6.5-21.9
		c-8.2-12.4-11.2-27.6-8.6-42.6c1.3-7.4,0.4-15.1-2.5-22.1c-3-7.2-8-13.4-14.4-17.8c-12.1-8.3-20.8-21.2-24.4-36.4
		c-1.7-7.2-5.4-13.8-10.7-19.1c-5.4-5.4-12.3-9.2-19.8-10.8C374.6,75.5,361.6,67,353,54.7c-4.4-6.2-10.4-10.9-17.4-13.8
		c-7.2-3-15.1-3.8-22.8-2.4c-14.6,2.8-29.8-0.2-42.6-8.3c-6.4-4-13.8-6.1-21.3-6.1c-7.8,0-15.4,2.3-21.9,6.5
		c-12.4,8.2-27.6,11.2-42.6,8.6c-7.4-1.3-15.1-0.4-22.1,2.5c-7.2,3-13.4,8-17.8,14.4c-8.3,12.1-21.2,20.8-36.4,24.4
		c-7.2,1.7-13.8,5.4-19.1,10.7c-5.4,5.4-9.2,12.3-10.8,19.8c-3.2,14.9-11.8,27.9-24.1,36.6c-6.2,4.4-10.9,10.4-13.8,17.4
		c-3,7.2-3.8,15.1-2.4,22.8c2.8,14.6-0.2,29.8-8.3,42.6c-4,6.4-6.1,13.8-6.1,21.3c0,7.8,2.3,15.4,6.5,21.9
		c8.2,12.4,11.2,27.6,8.6,42.6c-1.3,7.4-0.4,15.1,2.5,22.1c3,7.2,8,13.4,14.4,17.8c12.1,8.3,20.8,21.2,24.4,36.4
		c1.7,7.2,5.4,13.8,10.7,19.1c5.4,5.4,12.3,9.2,19.8,10.8c14.9,3.2,27.9,11.8,36.6,24.1c4.4,6.2,10.4,10.9,17.4,13.8
		c7.2,3,15.1,3.8,22.8,2.4C190.7,461.7,194.3,461.4,197.9,461.4z"/>
	<path d="M142.3,221.7v-45.5c0-26.1,17-35.8,39.2-35.8c21.9,0,39.2,9.7,39.2,35.8v45.5c0,26.1-17.3,35.8-39.2,35.8
		C159.3,257.5,142.3,247.8,142.3,221.7z M202.4,176.1c0-13.4-7.9-19.7-20.9-19.7c-13.1,0-20.9,6.4-20.9,19.7v45.5
		c0,13.4,7.9,19.7,20.9,19.7c13.1,0,20.9-6.4,20.9-19.7V176.1z M314.8,138.5c0,1.5-0.3,2.7-0.9,4.2L200.3,366.4
		c-1.5,3.3-4.9,4.9-8.5,4.9c-5.5,0-9.7-4.2-9.7-9.1c0-1.2,0.3-2.7,0.9-3.9L296.8,133c1.5-3,4.6-4.6,7.6-4.6
		C309.3,128.5,314.8,132.7,314.8,138.5z M274.4,327.3v-45.5c0-26.1,17-35.8,39.2-35.8c21.9,0,39.2,9.7,39.2,35.8v45.5
		c0,26.1-17.3,35.8-39.2,35.8C291.4,363.1,274.4,353.4,274.4,327.3z M334.5,281.8c0-13.4-7.9-19.7-20.9-19.7
		c-13.1,0-20.9,6.4-20.9,19.7v45.5c0,13.4,7.9,19.7,20.9,19.7c13.1,0,20.9-6.4,20.9-19.7V281.8z"/>
</g>
</svg>
