<?xml version="1.0" encoding="utf-8"?>
<!-- Generator: Adobe Illustrator 22.1.0, SVG Export Plug-In . SVG Version: 6.00 Build 0)  -->
<svg version="1.1" id="Capa_1" xmlns="http://www.w3.org/2000/svg" xmlns:xlink="http://www.w3.org/1999/xlink" x="0px" y="0px"
	 viewBox="0 0 500 500" style="enable-background:new 0 0 500 500;" xml:space="preserve">
<g>
	<path d="M433.4,369.7H4v15.9h429.3c26.3,0,47.7,21.4,47.7,47.7S459.7,481,433.4,481H4v15.9h429.3c35.1,0,63.6-28.5,63.6-63.6
		S468.4,369.7,433.4,369.7z"/>
	<path d="M465.2,433.3c0-17.5-14.3-31.8-31.8-31.8c-17.5,0-31.8,14.3-31.8,31.8c0,17.5,14.3,31.8,31.8,31.8
		C450.9,465.1,465.2,450.9,465.2,433.3z M417.5,433.3c0-8.8,7.1-15.9,15.9-15.9c8.8,0,15.9,7.1,15.9,15.9s-7.1,15.9-15.9,15.9
		C424.6,449.2,417.5,442.1,417.5,433.3z"/>
	<path d="M385.7,433.3c0-17.5-14.3-31.8-31.8-31.8c-17.5,0-31.8,14.3-31.8,31.8c0,17.5,14.3,31.8,31.8,31.8
		C371.4,465.1,385.7,450.9,385.7,433.3z M338,433.3c0-8.8,7.1-15.9,15.9-15.9c8.8,0,15.9,7.1,15.9,15.9s-7.1,15.9-15.9,15.9
		C345.1,449.2,338,442.1,338,433.3z"/>
	<path d="M306.2,433.3c0-17.5-14.3-31.8-31.8-31.8c-17.5,0-31.8,14.3-31.8,31.8c0,17.5,14.3,31.8,31.8,31.8
		C291.9,465.1,306.2,450.9,306.2,433.3z M258.5,433.3c0-8.8,7.1-15.9,15.9-15.9c8.8,0,15.9,7.1,15.9,15.9s-7.1,15.9-15.9,15.9
		C265.6,449.2,258.5,442.1,258.5,433.3z"/>
	<path d="M226.6,433.3c0-17.5-14.3-31.8-31.8-31.8S163,415.8,163,433.3c0,17.5,14.3,31.8,31.8,31.8S226.6,450.9,226.6,433.3z
		 M178.9,433.3c0-8.8,7.1-15.9,15.9-15.9s15.9,7.1,15.9,15.9s-7.1,15.9-15.9,15.9S178.9,442.1,178.9,433.3z"/>
	<path d="M147.1,433.3c0-17.5-14.3-31.8-31.8-31.8s-31.8,14.3-31.8,31.8c0,17.5,14.3,31.8,31.8,31.8S147.1,450.9,147.1,433.3z
		 M99.4,433.3c0-8.8,7.1-15.9,15.9-15.9s15.9,7.1,15.9,15.9s-7.1,15.9-15.9,15.9S99.4,442.1,99.4,433.3z"/>
	<path d="M67.6,433.3c0-17.5-14.3-31.8-31.8-31.8S4,415.8,4,433.3c0,17.5,14.3,31.8,31.8,31.8S67.6,450.9,67.6,433.3z M19.9,433.3
		c0-8.8,7.1-15.9,15.9-15.9s15.9,7.1,15.9,15.9s-7.1,15.9-15.9,15.9S19.9,442.1,19.9,433.3z"/>
	<path d="M405.3,55c-1.2-1.1-2.4-2.1-3.7-3.1V4h-15.9v40.6c-2.6-0.5-5.2-0.8-8-0.8c-2.7,0-5.4,0.3-8,0.8V4h-15.9v47.9
		c-1.3,1-2.5,1.9-3.7,3.1l-91.7,47.6v102.1l26.9,53.8h20.8v47.7h143.1v-47.7h20.8l26.9-53.8V102.5L405.3,55z M401.6,83.5
		c0,13.2-10.7,23.9-23.9,23.9s-23.9-10.7-23.9-23.9s10.7-23.9,23.9-23.9S401.6,70.4,401.6,83.5z M433.4,178.9H322.1v-34.5l50.5-21.7
		c1.7,0.2,3.4,0.5,5.1,0.5s3.4-0.3,5.1-0.5l50.5,21.7V178.9z M295.2,242.5l-20.8-41.6v-88.7L338.4,79c-0.2,1.5-0.5,3-0.5,4.5
		c0,12.3,5.8,23.2,14.6,30.5l-46.4,19.9V163h-15.9v15.9h15.9v15.9h-15.9v15.9h15.9v31.8H295.2z M433.4,290.2H322.1v-31.8v-63.6
		h111.3v63.6V290.2z M481.1,200.9l-20.8,41.6h-11v-31.8h15.9v-15.9h-15.9v-15.9h15.9V163h-15.9v-29.1L402.9,114
		c8.8-7.3,14.6-18.2,14.6-30.5c0-1.6-0.3-3-0.5-4.5l64.1,33.2V200.9z"/>
	<path d="M51.7,306.1v47.7h143.1v-47.7h20.8l26.9-53.8V150.2l-91.7-47.6c-1.2-1.1-2.4-2.1-3.7-3.1V4h-15.9v88.3
		c-2.6-0.5-5.2-0.8-8-0.8s-5.4,0.3-8,0.8V4H99.4v95.6c-1.3,1-2.5,1.9-3.7,3.1L4,150.2v102.1l26.9,53.8H51.7z M123.3,171
		c1.7,0,3.4-0.3,5.1-0.5l50.5,21.7v34.5H67.6v-34.5l50.5-21.7C119.9,170.7,121.5,171,123.3,171z M178.9,337.9H67.6v-31.8v-63.6
		h111.3v63.6V337.9z M226.6,248.6l-20.8,41.6h-11v-31.8h15.9v-15.9h-15.9v-15.9h15.9v-15.9h-15.9v-29.1l-46.4-19.9
		c8.8-7.3,14.6-18.2,14.6-30.5c0-1.6-0.3-3-0.5-4.5l64.1,33.2V248.6z M147.1,131.2c0,13.2-10.7,23.9-23.9,23.9s-23.9-10.7-23.9-23.9
		c0-13.2,10.7-23.9,23.9-23.9C136.4,107.4,147.1,118.1,147.1,131.2z M19.9,159.9L84,126.7c-0.2,1.5-0.5,3-0.5,4.5
		c0,12.3,5.8,23.2,14.6,30.5l-46.4,19.9v29.1H35.8v15.9h15.9v15.9H35.8v15.9h15.9v31.8h-11l-20.8-41.6V159.9z"/>
	<rect x="401.6" y="258.4" width="15.9" height="15.9"/>
	<rect x="147.1" y="306.1" width="15.9" height="15.9"/>
</g>
</svg>
