<?xml version="1.0" encoding="utf-8"?>
<!-- Generator: Adobe Illustrator 22.1.0, SVG Export Plug-In . SVG Version: 6.00 Build 0)  -->
<svg version="1.1" id="Capa_1" xmlns="http://www.w3.org/2000/svg" xmlns:xlink="http://www.w3.org/1999/xlink" x="0px" y="0px"
	 viewBox="0 0 500 500" style="enable-background:new 0 0 500 500;" xml:space="preserve">
<g>
	<path d="M440.8,3.5v152.7h-40.7V74.8H247.4V34.1H89.6v122.2H53.9V3.5H3v493.9h50.9v-91.6h386.9v91.6h56V3.5H440.8z M18.3,482.1
		V18.8h20.3v463.3H18.3z M247.4,90.1h137.4v66.2H247.4V90.1z M155.8,49.4h25.4v45.8h-25.4V49.4z M104.9,49.4h35.6v61.1h56V49.4h35.6
		v106.9H104.9V49.4z M440.8,390.5H53.9v-15.2h386.9V390.5z M115,359.9v-66.2h137.4v66.2H115z M359.4,314.1V253H395v106.9H267.8V253
		h35.6v61.1H359.4z M318.7,298.8V253h25.4v45.8H318.7z M440.8,359.9h-30.5V237.7H252.5v40.7H99.7v81.5H53.9V202.1h386.9V359.9z
		 M440.8,186.8H53.9v-15.2h386.9V186.8z M481.6,482.1h-25.4V18.8h25.4V482.1z M481.6,482.1"/>
	<rect x="336.5" y="115.5" width="30.5" height="15.3"/>
	<rect x="275.4" y="115.5" width="50.9" height="15.3"/>
	<rect x="204.1" y="319.2" width="30.6" height="15.3"/>
	<rect x="143" y="319.2" width="50.9" height="15.3"/>
</g>
</svg>
