<?xml version="1.0" encoding="utf-8"?>
<!-- Generator: Adobe Illustrator 22.1.0, SVG Export Plug-In . SVG Version: 6.00 Build 0)  -->
<svg version="1.1" id="Capa_1" xmlns="http://www.w3.org/2000/svg" xmlns:xlink="http://www.w3.org/1999/xlink" x="0px" y="0px"
	 viewBox="0 0 500 500" style="enable-background:new 0 0 500 500;" xml:space="preserve">
<g>
	<path d="M495.5,250.5C495.5,115.1,385.3,5,250,5S4.5,115.1,4.5,250.5c0,71.5,30.7,135.9,79.7,180.8l-0.2,0.2l7.9,6.7
		c0.5,0.4,1.1,0.8,1.6,1.2c4.2,3.5,8.6,6.8,13.1,10c1.4,1,2.9,2.1,4.4,3.1c4.8,3.3,9.7,6.4,14.7,9.3c1.1,0.7,2.2,1.3,3.3,1.9
		c5.5,3.1,11.1,6.1,16.8,8.7c0.4,0.2,0.8,0.4,1.3,0.6c18.7,8.6,38.6,15,59.4,18.8c0.6,0.1,1.1,0.2,1.7,0.3c6.4,1.1,13,2,19.6,2.6
		c0.8,0.1,1.6,0.1,2.4,0.2c6.6,0.5,13.3,0.9,20,0.9c6.7,0,13.3-0.3,19.8-0.9c0.8-0.1,1.7-0.1,2.5-0.2c6.6-0.6,13-1.5,19.4-2.6
		c0.6-0.1,1.1-0.2,1.7-0.3c20.5-3.7,40.1-9.9,58.5-18.3c0.7-0.3,1.4-0.6,2-0.9c5.5-2.6,10.9-5.4,16.2-8.4c1.3-0.7,2.6-1.5,3.9-2.3
		c4.8-2.8,9.6-5.8,14.1-8.9c1.7-1.1,3.3-2.3,4.9-3.5c3.9-2.8,7.8-5.7,11.5-8.8c0.8-0.6,1.8-1.3,2.6-1.9l8.1-6.8l-0.3-0.2
		C464.4,387.1,495.5,322.3,495.5,250.5L495.5,250.5z M22.4,250.5C22.4,124.9,124.5,22.9,250,22.9s227.6,102.1,227.6,227.6
		c0,67.6-29.7,128.4-76.7,170.2c-2.6-1.8-5.2-3.4-8-4.8L317.4,378c-6.8-3.4-11-10.2-11-17.8v-26.4c1.7-2.1,3.6-4.6,5.5-7.3
		c9.8-13.8,17.7-29.2,23.4-45.7c11.3-5.4,18.6-16.7,18.6-29.4v-31.6c0-7.7-2.8-15.2-7.9-21.1V157c0.4-4.6,2.1-30.8-16.8-52.3
		c-16.4-18.7-43.1-28.3-79.2-28.3c-36.1,0-62.7,9.6-79.2,28.3c-18.9,21.6-17.3,47.7-16.8,52.3v41.7c-5.1,5.9-7.9,13.4-7.9,21.1v31.6
		c0,9.9,4.4,19,12,25.2c7.2,28.3,22.1,49.8,27.6,57v25.8c0,7.3-4,14-10.4,17.5l-70.6,38.5c-2.2,1.2-4.5,2.7-6.7,4.3
		C51.7,378,22.4,317.6,22.4,250.5L22.4,250.5z M383.5,434.6c-3.1,2.3-6.3,4.5-9.6,6.6c-1.5,1-3,1.9-4.4,2.9
		c-4.2,2.6-8.5,5.1-12.9,7.4c-1,0.5-1.9,1-2.9,1.5c-10.1,5.1-20.5,9.6-31.2,13.2c-0.3,0.1-0.7,0.3-1.1,0.4c-5.6,1.9-11.2,3.5-17,4.9
		h0c-5.8,1.4-11.6,2.6-17.5,3.6c-0.2,0-0.4,0-0.5,0.1c-5.5,0.9-11.2,1.5-16.7,2c-1,0.1-2,0.1-3,0.2c-5.5,0.4-11.1,0.6-16.7,0.6
		c-5.7,0-11.3-0.3-16.9-0.7c-1,0-2-0.1-2.9-0.2c-5.7-0.5-11.3-1.2-16.9-2l-0.7-0.1c-11.8-2-23.4-4.9-34.7-8.7
		c-0.3-0.1-0.7-0.3-1-0.4c-5.6-1.9-11.2-4-16.6-6.4c0,0-0.1,0-0.1,0c-5.1-2.2-10.2-4.7-15.2-7.3c-0.6-0.3-1.3-0.7-2-1
		c-4.6-2.4-9-5.1-13.4-7.8c-1.3-0.8-2.6-1.7-3.9-2.5c-4.1-2.6-8.1-5.4-11.9-8.3c-0.4-0.3-0.8-0.6-1.2-0.9l0.8-0.5l70.6-38.5
		c12.1-6.6,19.7-19.3,19.7-33.2v-32.2l-2.1-2.5c-0.2-0.2-19.5-23.7-26.8-55.5l-0.8-3.5l-3.1-2c-4.3-2.8-6.9-7.4-6.9-12.4v-31.6
		c0-4.1,1.8-8,5-10.9l3-2.7v-49.7l-0.1-1.2c0-0.2-2.7-21.7,12.5-38.9c12.9-14.7,35-22.2,65.7-22.2c30.6,0,52.7,7.4,65.6,22
		c15.1,17,12.6,38.9,12.6,39.1l-0.1,50.9l3,2.7c3.2,2.9,5,6.8,5,10.9v31.6c0,6.4-4.4,12.2-10.5,14.1l-4.5,1.4l-1.4,4.4
		c-5.3,16.3-12.8,31.5-22.3,44.9c-2.4,3.3-4.6,6.2-6.6,8.5l-2.2,2.5v33c0,14.4,8,27.3,20.8,33.8l75.6,37.8c0.5,0.2,1,0.5,1.4,0.7
		C385.5,433.3,384.5,433.9,383.5,434.6L383.5,434.6z M383.5,434.6"/>
</g>
</svg>
