<?xml version="1.0" encoding="utf-8"?>
<!-- Generator: Adobe Illustrator 22.1.0, SVG Export Plug-In . SVG Version: 6.00 Build 0)  -->
<svg version="1.1" id="Capa_1" xmlns="http://www.w3.org/2000/svg" xmlns:xlink="http://www.w3.org/1999/xlink" x="0px" y="0px"
	 viewBox="0 0 602 328.2" style="enable-background:new 0 0 602 328.2;" xml:space="preserve">
<style type="text/css">
	.st0{opacity:0.15;}
	.st1{clip-path:url(#SVGID_2_);}
	.st2{opacity:0.19;fill:#07113D;}
	.st3{fill:#8090BC;}
	.st4{fill:none;stroke:#716F82;stroke-width:7;stroke-linecap:round;stroke-miterlimit:10;}
	.st5{fill:#A3ADD1;}
	.st6{opacity:0.6;fill:#07113D;}
	.st7{fill:#FFFFFF;}
	.st8{fill:#061D48;}
	.st9{fill:#5472C6;}
	.st10{fill:#9995A7;}
	.st11{fill:#D93838;}
	.st12{fill:#F7C946;}
	.st13{fill:#BCDB3A;}
	.st14{fill:#6D7DAA;}
	.st15{fill:#4D6199;}
	.st16{fill:none;stroke:#2C3765;stroke-width:0.7941;stroke-linecap:round;stroke-miterlimit:10;}
	.st17{fill:#FFBE2E;}
	.st18{fill:#EAA64F;}
	.st19{fill:none;stroke:#2C3765;stroke-width:0.5226;stroke-miterlimit:10;}
	.st20{fill:#5485CC;}
	.st21{fill:#F4A891;}
	.st22{fill:#B92B2B;}
	.st23{fill:#B95241;}
	.st24{fill:#DB734C;}
	.st25{fill:#FFC7B0;}
	.st26{fill:#FFC4BC;}
	.st27{fill:none;stroke:#B95241;stroke-width:1.079;stroke-linecap:round;stroke-miterlimit:10;}
	.st28{fill:#07113D;}
	.st29{fill:none;stroke:#07113D;stroke-width:1.1711;stroke-linecap:round;stroke-miterlimit:10;}
	.st30{opacity:0.37;fill:#591239;}
	.st31{fill:#C2C2C7;}
	.st32{fill:#181827;}
	.st33{fill:#591239;}
	.st34{fill:#25253A;}
	.st35{fill:#884C2E;}
	.st36{fill:none;stroke:#07113D;stroke-width:1.1468;stroke-linecap:round;stroke-miterlimit:10;}
	.st37{fill:#A36440;}
	.st38{fill:none;stroke:#07113D;stroke-width:1.1434;stroke-linecap:round;stroke-miterlimit:10;}
	.st39{fill:#2B1B40;}
	.st40{fill:#080B2E;}
	.st41{opacity:0.51;}
	.st42{fill:#85807E;}
</style>
<g class="st0">
	<defs>
		<rect id="SVGID_1_" class="st0" width="602" height="328.2"/>
	</defs>
	<clipPath id="SVGID_2_">
		<use xlink:href="#SVGID_1_"  style="overflow:visible;"/>
	</clipPath>
	<g class="st1">
		<rect x="5.9" y="-24.7" class="st2" width="117.6" height="145.5"/>
		<rect x="162.2" y="-24.7" class="st2" width="117.6" height="145.5"/>
		<rect x="318.5" y="-24.7" class="st2" width="117.6" height="145.5"/>
		<rect x="474.8" y="-24.7" class="st2" width="117.6" height="145.5"/>
		<rect x="5.9" y="147.1" class="st2" width="117.6" height="145.5"/>
		<rect x="161.8" y="147.1" class="st2" width="117.6" height="145.5"/>
		<rect x="473.6" y="147.1" class="st2" width="117.6" height="145.5"/>
		<rect x="317.7" y="147.1" class="st2" width="117.6" height="145.5"/>
		<rect x="5.4" y="-31.8" class="st3" width="117.6" height="145.5"/>
		<rect x="161.7" y="-31.8" class="st3" width="117.6" height="145.5"/>
		<rect x="318" y="-31.8" class="st3" width="117.6" height="145.5"/>
		<rect x="474.4" y="-31.8" class="st3" width="117.6" height="145.5"/>
		<rect x="5.4" y="140" class="st3" width="117.6" height="145.5"/>
		<rect x="161.3" y="140" class="st3" width="117.6" height="145.5"/>
		<rect x="473.1" y="140" class="st3" width="117.6" height="145.5"/>
		<rect x="317.2" y="140" class="st3" width="117.6" height="145.5"/>
		<line class="st4" x1="484.8" y1="476" x2="598.8" y2="476"/>
		<line class="st4" x1="34.7" y1="476" x2="156.1" y2="476"/>
		<g>
			<g>
				<g>
					<rect x="5.4" y="-36.1" class="st5" width="117.6" height="145.5"/>
					<polygon class="st6" points="119.5,97.2 15.1,97.2 11.7,-26 116.1,-26 					"/>
				</g>
				<g>
					<rect x="12" y="-26.4" class="st7" width="104.3" height="118.9"/>
					<circle class="st8" cx="111.4" cy="-21.9" r="2"/>
					<rect x="23.9" y="-11" class="st5" width="78.7" height="11.3"/>
					<rect x="23.7" y="11.2" class="st9" width="27.1" height="15.4"/>
					<rect x="55.2" y="30.6" class="st5" width="27.1" height="15.4"/>
					<rect x="86.2" y="11.2" class="st10" width="16.9" height="15.4"/>
					<rect x="86.2" y="30.9" class="st11" width="16.9" height="15.4"/>
					<g>
						<rect x="55.4" y="23.5" class="st8" width="27.1" height="1.1"/>
						<rect x="55.4" y="19.6" class="st8" width="27.1" height="1.1"/>
						<rect x="55.4" y="15.7" class="st8" width="27.1" height="1.1"/>
						<rect x="55.4" y="11.8" class="st8" width="27.1" height="1.1"/>
					</g>
					<rect x="23.7" y="49.7" class="st12" width="27.1" height="15.4"/>
					<rect x="86.2" y="49.7" class="st10" width="16.9" height="15.4"/>
					<g>
						<rect x="55.4" y="62" class="st8" width="27.1" height="1.1"/>
						<rect x="55.4" y="58.1" class="st8" width="27.1" height="1.1"/>
						<rect x="55.4" y="54.2" class="st8" width="27.1" height="1.1"/>
						<rect x="55.4" y="50.3" class="st8" width="27.1" height="1.1"/>
					</g>
					<g>
						<rect x="23.6" y="42.3" class="st8" width="27.1" height="1.1"/>
						<rect x="23.6" y="38.4" class="st8" width="27.1" height="1.1"/>
						<rect x="23.6" y="34.5" class="st8" width="27.1" height="1.1"/>
						<rect x="23.6" y="30.6" class="st8" width="27.1" height="1.1"/>
					</g>
					<circle class="st8" cx="16" cy="-21.9" r="2"/>
				</g>
			</g>
			<g>
				<g>
					<g>
						<rect x="161.7" y="-36.1" class="st5" width="117.6" height="145.5"/>
						<polygon class="st6" points="275.6,97.2 171.2,97.2 167.9,-26 272.2,-26 						"/>
					</g>
					<rect x="168.3" y="-26.4" class="st7" width="104.3" height="118.9"/>
					<circle class="st8" cx="267.8" cy="-21.9" r="2"/>
					<circle class="st8" cx="172.3" cy="-21.9" r="2"/>
				</g>
				<g id="XMLID_379_">
					
						<rect id="XMLID_917_" x="212.1" y="-15.3" transform="matrix(-1.836970e-16 1 -1 -1.836970e-16 217.1076 -215.1449)" class="st13" width="8" height="32.5"/>
					
						<rect id="XMLID_916_" x="219.1" y="-8.2" transform="matrix(-1.836970e-16 1 -1 -1.836970e-16 238.1547 -208.1306)" class="st13" width="8" height="46.5"/>
					
						<rect id="XMLID_915_" x="208.8" y="16.1" transform="matrix(-1.836970e-16 1 -1 -1.836970e-16 241.8672 -183.7818)" class="st13" width="8" height="25.9"/>
					
						<rect id="XMLID_914_" x="223.5" y="27.3" transform="matrix(-1.836970e-16 1 -1 -1.836970e-16 256.5832 -198.4977)" class="st11" width="8" height="3.6"/>
					
						<rect id="XMLID_913_" x="232.4" y="-3" transform="matrix(-1.836970e-16 1 -1 -1.836970e-16 237.3724 -235.4097)" class="st11" width="8" height="8.1"/>
					
						<rect id="XMLID_912_" x="221.8" y="17.2" transform="matrix(-1.836970e-16 1 -1 -1.836970e-16 268.8299 -182.6831)" class="st13" width="8" height="51.7"/>
					
						<rect id="XMLID_911_" x="212.1" y="41" transform="matrix(-1.836970e-16 1 -1 -1.836970e-16 273.3427 -158.9098)" class="st13" width="8" height="32.5"/>
					
						<rect id="XMLID_910_" x="204" y="63.1" transform="matrix(-1.836970e-16 1 -1 -1.836970e-16 279.2565 -136.7622)" class="st13" width="8" height="16.2"/>
					<path id="XMLID_909_" class="st14" d="M190.3,3.5v-5c0-0.8,0.7-1.5,1.5-1.5h2.4c0.8,0,1.5,0.7,1.5,1.5v5c0,0.8-0.7,1.5-1.5,1.5
						l-2.4,0C190.9,5,190.3,4.3,190.3,3.5z"/>
					<path id="XMLID_908_" class="st14" d="M190.3,17.5v-5c0-0.8,0.7-1.5,1.5-1.5h2.4c0.8,0,1.5,0.7,1.5,1.5v5
						c0,0.8-0.7,1.5-1.5,1.5l-2.4,0C190.9,19,190.3,18.3,190.3,17.5z"/>
					<path id="XMLID_907_" class="st14" d="M190.3,31.6v-5c0-0.8,0.7-1.5,1.5-1.5h2.4c0.8,0,1.5,0.7,1.5,1.5v5
						c0,0.8-0.7,1.5-1.5,1.5l-2.4,0C190.9,33,190.3,32.4,190.3,31.6z"/>
					<path id="XMLID_906_" class="st14" d="M190.3,45.6v-5c0-0.8,0.7-1.5,1.5-1.5h2.4c0.8,0,1.5,0.7,1.5,1.5v5
						c0,0.8-0.7,1.5-1.5,1.5h-2.4C190.9,47.1,190.3,46.4,190.3,45.6z"/>
					<path id="XMLID_905_" class="st14" d="M190.3,59.7v-5c0-0.8,0.7-1.5,1.5-1.5h2.4c0.8,0,1.5,0.7,1.5,1.5v5
						c0,0.8-0.7,1.5-1.5,1.5h-2.4C190.9,61.2,190.3,60.5,190.3,59.7z"/>
					<path id="XMLID_904_" class="st14" d="M190.3,73.8v-5c0-0.8,0.7-1.5,1.5-1.5h2.4c0.8,0,1.5,0.7,1.5,1.5v5
						c0,0.8-0.7,1.5-1.5,1.5h-2.4C190.9,75.2,190.3,74.6,190.3,73.8z"/>
					
						<rect id="XMLID_903_" x="211.2" y="66.7" transform="matrix(-1.836970e-16 1 -1 -1.836970e-16 286.4013 -143.907)" class="st11" width="8" height="9.1"/>
				</g>
			</g>
			<g>
				<g>
					<g>
						<rect x="318" y="-36.1" class="st5" width="117.6" height="145.5"/>
						<polygon class="st6" points="432.7,97.2 328.4,97.2 325,-26 429.3,-26 						"/>
					</g>
					<rect x="324.6" y="-26.4" class="st7" width="104.3" height="118.9"/>
					<circle class="st8" cx="424.1" cy="-21.9" r="2"/>
					<circle class="st8" cx="328.6" cy="-21.9" r="2"/>
				</g>
				<g>
					<g>
						<rect x="346.4" y="33.5" class="st15" width="43.9" height="2.7"/>
						<rect x="346.4" y="39.6" class="st15" width="68.6" height="2.7"/>
						<rect x="346.4" y="45.6" class="st15" width="46.2" height="2.7"/>
					</g>
					<path class="st14" d="M343.6,34.9c0,1.1-1,2-2.2,2s-2.2-0.9-2.2-2c0-1.1,1-2,2.2-2S343.6,33.7,343.6,34.9z"/>
					<path class="st14" d="M343.6,41.6c0,1.1-1,2-2.2,2s-2.2-0.9-2.2-2s1-2,2.2-2S343.6,40.5,343.6,41.6z"/>
					<path class="st14" d="M343.6,47.6c0,1.1-1,2-2.2,2s-2.2-0.9-2.2-2c0-1.1,1-2,2.2-2S343.6,46.5,343.6,47.6z"/>
				</g>
				<g>
					<line class="st16" x1="341.2" y1="59.1" x2="378.1" y2="59.1"/>
					<line class="st16" x1="341.2" y1="70.7" x2="397.6" y2="70.7"/>
					<line class="st16" x1="341.2" y1="63" x2="363.6" y2="63"/>
					<line class="st16" x1="341.2" y1="66.8" x2="398.6" y2="66.8"/>
				</g>
				<rect x="339.4" y="-5.3" class="st11" width="73.4" height="5.7"/>
				<rect x="339.4" y="4.8" class="st11" width="73.4" height="5.7"/>
				<rect x="339.4" y="14.9" class="st11" width="73.4" height="5.7"/>
			</g>
			<g>
				<g>
					<g>
						<rect x="474.4" y="-36.1" class="st5" width="117.6" height="145.5"/>
						<polygon class="st6" points="588.5,97.2 484.2,97.2 480.8,-26 585.2,-26 						"/>
					</g>
					<rect x="480.9" y="-26.4" class="st7" width="104.3" height="118.9"/>
					<circle class="st8" cx="580.4" cy="-21.9" r="2"/>
					<circle class="st8" cx="485" cy="-21.9" r="2"/>
				</g>
				<g>
					<rect x="522" y="-5.8" class="st15" width="44.7" height="3.4"/>
					<rect x="522" y="0.5" class="st15" width="44.7" height="3.4"/>
					<rect x="522" y="7.3" class="st15" width="44.7" height="3.4"/>
				</g>
				<g>
					<rect x="522" y="25.4" class="st15" width="44.7" height="3.4"/>
					<rect x="522" y="31.8" class="st15" width="44.7" height="3.4"/>
					<rect x="522" y="38.5" class="st15" width="44.7" height="3.4"/>
				</g>
				<g>
					<rect x="522.4" y="53.3" class="st15" width="44.7" height="3.4"/>
					<rect x="522.4" y="59.7" class="st15" width="44.7" height="3.4"/>
					<rect x="522.4" y="66.5" class="st15" width="44.7" height="3.4"/>
				</g>
				<path class="st10" d="M507.8,10.7h-8.4c-2.8,0-5.1-2.3-5.1-5.1v-8.2c0-2.8,2.3-5.1,5.1-5.1h8.4c2.8,0,5.1,2.3,5.1,5.1v8.2
					C512.9,8.5,510.6,10.7,507.8,10.7z"/>
				<path class="st17" d="M507.4,41.5H499c-2.8,0-5.1-2.3-5.1-5.1v-8.2c0-2.8,2.3-5.1,5.1-5.1h8.4c2.8,0,5.1,2.3,5.1,5.1v8.2
					C512.5,39.2,510.3,41.5,507.4,41.5z"/>
				<path class="st13" d="M507.8,71.7h-8.4c-2.8,0-5.1-2.3-5.1-5.1v-8.2c0-2.8,2.3-5.1,5.1-5.1h8.4c2.8,0,5.1,2.3,5.1,5.1v8.2
					C512.9,69.4,510.6,71.7,507.8,71.7z"/>
			</g>
			<g>
				<g>
					<g>
						<g>
							<rect x="5.4" y="135.7" class="st5" width="117.6" height="145.5"/>
							<polygon class="st6" points="119.5,268.8 15.1,268.8 11.7,145.7 116.1,145.7 							"/>
						</g>
						<g>
							<rect x="12" y="145.4" class="st7" width="104.3" height="118.9"/>
							<path class="st8" d="M113.5,149.9c0,1.1-0.9,2-2,2c-1.1,0-2-0.9-2-2c0-1.1,0.9-2,2-2C112.6,147.8,113.5,148.8,113.5,149.9z"
								/>
							<rect x="23.9" y="169.3" class="st9" width="78.7" height="11.3"/>
							<path class="st8" d="M18,149.9c0,1.1-0.9,2-2,2c-1.1,0-2-0.9-2-2c0-1.1,0.9-2,2-2C17.1,147.8,18,148.8,18,149.9z"/>
						</g>
					</g>
					<rect x="23.2" y="183.9" class="st11" width="36.9" height="13.2"/>
					<rect x="65.8" y="183.9" class="st11" width="36.1" height="13.2"/>
					<rect x="88" y="199.6" class="st10" width="13.5" height="10.3"/>
					<rect x="23.2" y="202.1" class="st18" width="36.9" height="13.2"/>
					<rect x="65.8" y="202.1" class="st18" width="36.1" height="13.2"/>
					<rect x="23.2" y="237.5" class="st10" width="13.5" height="10.3"/>
					<rect x="44.8" y="237.5" class="st10" width="13.5" height="10.3"/>
					<rect x="66.4" y="237.5" class="st10" width="13.5" height="10.3"/>
					<rect x="88" y="237.3" class="st10" width="13.5" height="10.3"/>
				</g>
				<g>
					<g>
						<g>
							<rect x="161.3" y="135.7" class="st5" width="117.6" height="145.5"/>
							<polygon class="st6" points="275.3,268.8 171,268.8 167.6,145.7 271.9,145.7 							"/>
						</g>
						<rect x="167.9" y="145.4" class="st7" width="104.3" height="118.9"/>
						<path class="st8" d="M269.4,149.9c0,1.1-0.9,2-2,2s-2-0.9-2-2c0-1.1,0.9-2,2-2S269.4,148.8,269.4,149.9z"/>
						<path class="st8" d="M173.9,149.9c0,1.1-0.9,2-2,2s-2-0.9-2-2c0-1.1,0.9-2,2-2S173.9,148.8,173.9,149.9z"/>
					</g>
					<path class="st15" d="M188.8,172.8h10.1c0,5.5-4.6,10.1-10.1,10.1c-5.5,0-10.1-4.6-10.1-10.1c0-5.5,4.6-10.1,10.1-10.1
						c3.4,0,6.5,1.7,8.4,4.5L188.8,172.8z"/>
					<path class="st11" d="M189.2,202.7l-0.3-10.1c0.1,0,0.2,0,0.3,0c5.5,0,10.1,4.6,10.1,10.1c0,5.5-4.6,10.1-10.1,10.1
						c-5.5,0-10.1-4.6-10.1-10.1L189.2,202.7z"/>
					<path class="st17" d="M188.8,232.7h10.1c0,5.5-4.6,10.1-10.1,10.1c-5.5,0-10.1-4.6-10.1-10.1c0-5.5,4.6-10.1,10.1-10.1
						c1.5,0,3,0.3,4.4,1L188.8,232.7z"/>
					<g>
						<rect x="207.7" y="164.1" class="st8" width="44.7" height="3.4"/>
						<rect x="207.7" y="170.5" class="st8" width="44.7" height="3.4"/>
						<rect x="207.7" y="177.2" class="st8" width="44.7" height="3.4"/>
					</g>
					<g>
						<rect x="207.7" y="195.3" class="st8" width="44.7" height="3.4"/>
						<rect x="207.7" y="201.7" class="st8" width="44.7" height="3.4"/>
						<rect x="207.7" y="208.5" class="st8" width="44.7" height="3.4"/>
					</g>
					<g>
						<rect x="208" y="223.3" class="st8" width="44.7" height="3.4"/>
						<rect x="208" y="229.6" class="st8" width="44.7" height="3.4"/>
						<rect x="208" y="236.4" class="st8" width="44.7" height="3.4"/>
					</g>
				</g>
				<g>
					<g>
						<g>
							<g>
								<rect x="473.1" y="135.7" class="st5" width="117.6" height="145.5"/>
								<polygon class="st6" points="587,268.8 482.7,268.8 479.3,145.7 583.6,145.7 								"/>
							</g>
							<rect x="479.7" y="145.4" class="st7" width="104.3" height="118.9"/>
							<path class="st8" d="M581.2,149.9c0,1.1-0.9,2-2,2c-1.1,0-2-0.9-2-2c0-1.1,0.9-2,2-2C580.3,147.8,581.2,148.8,581.2,149.9z"
								/>
							<path class="st8" d="M485.8,149.9c0,1.1-0.9,2-2,2s-2-0.9-2-2c0-1.1,0.9-2,2-2S485.8,148.8,485.8,149.9z"/>
						</g>
						<g>
							<rect x="507.5" y="189.7" class="st10" width="48.8" height="10.2"/>
							<rect x="507.5" y="203.8" class="st10" width="48.8" height="10.2"/>
							<rect x="507.5" y="231.9" class="st10" width="48.8" height="10.2"/>
							<rect x="507.5" y="217.9" class="st17" width="48.8" height="10.2"/>
						</g>
						<rect x="507.3" y="160.7" class="st15" width="21.9" height="23"/>
					</g>
					<path class="st7" d="M520.2,172.3c1.1-0.7,1.8-1.8,1.8-3.2c0-2.1-1.7-3.7-3.7-3.7c-2.1,0-3.7,1.7-3.7,3.7
						c0,1.3,0.7,2.5,1.8,3.2c-1.6,0.4-2.8,1.9-2.8,3.7v3h9.6v-3C523.1,174.2,521.9,172.7,520.2,172.3z"/>
				</g>
				<g>
					<g>
						<g>
							<rect x="317.2" y="135.7" class="st5" width="117.6" height="145.5"/>
							<polygon class="st6" points="432,268.8 327.7,268.8 324.3,145.7 428.6,145.7 							"/>
						</g>
						<rect x="323.8" y="145.4" class="st7" width="104.3" height="118.9"/>
						<path class="st8" d="M425.3,149.9c0,1.1-0.9,2-2,2s-2-0.9-2-2c0-1.1,0.9-2,2-2S425.3,148.8,425.3,149.9z"/>
						<path class="st8" d="M329.9,149.9c0,1.1-0.9,2-2,2s-2-0.9-2-2c0-1.1,0.9-2,2-2S329.9,148.8,329.9,149.9z"/>
					</g>
					<g>
						<path class="st10" d="M389.2,170.7h-29.1c-1.9,0-3.4-1.5-3.4-3.4v-5.4c0-1.9,1.5-3.4,3.4-3.4h29.1c1.9,0,3.4,1.5,3.4,3.4v5.4
							C392.6,169.2,391,170.7,389.2,170.7z"/>
						<g>
							<g>
								<path class="st10" d="M368.9,173.8l-12.2,8L368.9,173.8z"/>
								<g>
									<line class="st19" x1="368.9" y1="173.8" x2="359.4" y2="180"/>
									<g>
										<polygon class="st14" points="358.7,177.8 356.7,181.7 361.1,181.5 										"/>
									</g>
								</g>
							</g>
							<g>
								<path class="st10" d="M380.4,173.8l12.2,8L380.4,173.8z"/>
								<g>
									<line class="st19" x1="380.4" y1="173.8" x2="389.9" y2="180"/>
									<g>
										<polygon class="st14" points="388.1,181.5 392.6,181.7 390.6,177.8 										"/>
									</g>
								</g>
							</g>
							<g>
								<path class="st10" d="M374.6,173.8v8V173.8z"/>
								<g>
									<line class="st19" x1="374.6" y1="173.8" x2="374.6" y2="178.5"/>
									<g>
										<polygon class="st14" points="372.4,177.9 374.6,181.7 376.8,177.9 										"/>
									</g>
								</g>
							</g>
						</g>
						<g>
							<g>
								<path class="st10" d="M351.8,191.9l-12.2,8L351.8,191.9z"/>
								<g>
									<line class="st19" x1="351.8" y1="191.9" x2="342.3" y2="198.1"/>
									<g>
										<polygon class="st14" points="341.7,195.9 339.7,199.9 344.1,199.6 										"/>
									</g>
								</g>
							</g>
							<g>
								<path class="st10" d="M357.6,191.9v8V191.9z"/>
								<g>
									<line class="st19" x1="357.6" y1="191.9" x2="357.6" y2="196.7"/>
									<g>
										<polygon class="st14" points="355.4,196 357.6,199.9 359.8,196 										"/>
									</g>
								</g>
							</g>
							<g>
								<path class="st10" d="M376,191.9v8V191.9z"/>
								<g>
									<line class="st19" x1="376" y1="191.9" x2="376" y2="196.7"/>
									<g>
										<polygon class="st14" points="373.7,196 376,199.9 378.2,196 										"/>
									</g>
								</g>
							</g>
						</g>
						<rect x="348.5" y="183.3" class="st17" width="15.9" height="5.5"/>
						<rect x="386.6" y="183.3" class="st11" width="15.9" height="5.5"/>
						<rect x="367.3" y="183.3" class="st15" width="15.9" height="5.5"/>
						<rect x="386.6" y="211.4" class="st20" width="15.9" height="5.5"/>
						<rect x="335.9" y="201.4" class="st14" width="9.5" height="5.3"/>
						<rect x="352.2" y="201.4" class="st14" width="9.5" height="5.3"/>
						<g>
							<g>
								<path class="st10" d="M398.3,191.5l12.2,8L398.3,191.5z"/>
								<g>
									<line class="st19" x1="398.3" y1="191.5" x2="407.8" y2="197.7"/>
									<g>
										<polygon class="st14" points="406.1,199.2 410.5,199.4 408.5,195.5 										"/>
									</g>
								</g>
							</g>
							<g>
								<path class="st10" d="M392.6,191.5v8V191.5z"/>
								<g>
									<line class="st19" x1="392.6" y1="191.5" x2="392.6" y2="196.2"/>
									<g>
										<polygon class="st14" points="390.3,195.6 392.6,199.4 394.8,195.6 										"/>
									</g>
								</g>
							</g>
						</g>
						
							<rect x="404.7" y="201" transform="matrix(-1 -1.224647e-16 1.224647e-16 -1 818.9644 407.2604)" class="st14" width="9.5" height="5.3"/>
						
							<rect x="388.5" y="201" transform="matrix(-1 -1.224647e-16 1.224647e-16 -1 786.4335 407.2604)" class="st14" width="9.5" height="5.3"/>
						<rect x="386.6" y="220.9" class="st11" width="15.9" height="5.5"/>
						<g>
							<g>
								<path class="st10" d="M398.3,229.1l12.2,8L398.3,229.1z"/>
								<g>
									<line class="st19" x1="398.3" y1="229.1" x2="407.8" y2="235.3"/>
									<g>
										<polygon class="st14" points="406.1,236.8 410.5,237 408.5,233.1 										"/>
									</g>
								</g>
							</g>
							<g>
								<path class="st10" d="M392.6,229.1v8V229.1z"/>
								<g>
									<line class="st19" x1="392.6" y1="229.1" x2="392.6" y2="233.9"/>
									<g>
										<polygon class="st14" points="390.3,233.2 392.6,237 394.8,233.2 										"/>
									</g>
								</g>
							</g>
						</g>
						
							<rect x="404.7" y="238.6" transform="matrix(-1 -1.224647e-16 1.224647e-16 -1 818.9644 482.5018)" class="st20" width="9.5" height="5.3"/>
						
							<rect x="388.5" y="238.6" transform="matrix(-1 -1.224647e-16 1.224647e-16 -1 786.4335 482.5018)" class="st20" width="9.5" height="5.3"/>
						<rect x="371.2" y="201.4" class="st11" width="9.5" height="5.3"/>
						<rect x="335.5" y="211.2" class="st20" width="28.8" height="13.1"/>
						<g>
							<polyline class="st19" points="365.3,218.7 376.2,218.7 376,212.1 							"/>
							<g>
								<polygon class="st14" points="378.2,212.7 376,208.9 373.8,212.8 								"/>
							</g>
						</g>
						<g>
							<polyline class="st19" points="404.3,223.3 415.1,223.3 415,216.8 							"/>
							<g>
								<polygon class="st14" points="417.2,217.4 414.9,213.6 412.8,217.5 								"/>
							</g>
						</g>
						<rect x="335.5" y="236.6" class="st17" width="28.8" height="6.2"/>
						<rect x="335.5" y="227.7" class="st11" width="28.8" height="6.2"/>
						<g>
							<polyline class="st19" points="365.3,237.3 376.2,237.3 376,230.7 							"/>
							<g>
								<polygon class="st14" points="378.2,231.3 376,227.5 373.8,231.4 								"/>
							</g>
						</g>
					</g>
				</g>
			</g>
			<g>
				<g>
					<path class="st21" d="M497.6,276.7l10.2-5.8c1.2-0.7,2.6-0.3,3.2,0.8l0.1,0.2c0.6,1.1,0.1,2.5-1.1,3.2l-10.2,5.8
						c-1.2,0.7-2.6,0.3-3.2-0.8l-0.1-0.2C496,278.9,496.5,277.4,497.6,276.7z"/>
					<path class="st21" d="M519.5,280.1c0,0-4.8,6.2-6.2,8c-2.6,3.5-4.8,4.7-7.2,3.4l-4-4c-1.9-2.5-2.6-3.8-1.3-6.3l4.4-8
						c1.3-2.4,4.4-3.3,6.8-2l4.8,2.6C519.2,275.1,520.8,277.6,519.5,280.1z"/>
					<path class="st21" d="M508.6,278.4l-6.7,7.9c-1,1.3-2.6,1.8-3.4,1.1l0,0c-0.8-0.7-0.7-2.3,0.4-3.6l6.7-7.9
						c1-1.3,2.6-1.8,3.4-1.1h0C509.8,275.5,509.7,277.1,508.6,278.4z"/>
					<path class="st21" d="M510.7,281.5l-6.7,7.9c-1,1.3-2.6,1.8-3.4,1.1l0,0c-0.8-0.7-0.7-2.3,0.4-3.6l6.7-7.9
						c1-1.3,2.6-1.8,3.4-1.1l0,0C511.9,278.6,511.8,280.2,510.7,281.5z"/>
					<path class="st21" d="M513.4,285.3l-6.7,7.9c-1,1.3-2.6,1.8-3.4,1.1l0,0c-0.8-0.7-0.7-2.3,0.4-3.6l6.7-7.9
						c1-1.3,2.6-1.8,3.4-1.1l0,0C514.6,282.4,514.4,284,513.4,285.3z"/>
					<path class="st21" d="M539.3,245.7c-1.3,3.9-2.6,7.8-4.5,11.4c-1,2-2.1,3.8-3.4,5.6l-13.6,19.6c-0.8,1.2-1.9,2-3.1,2.4
						c-2.2,0.7-4.8,0.1-6.8-1.9c-3.1-3.1-1.3-6.2,1-9.5c0,0,15.3-21.5,16.2-23.8c0.8-2,12.9-54.5,12.9-54.5c1.3-6.3,1-9.8,4.5-11.3
						c3.5-1.5,6.5,5.3,8.2,9.6C550.8,193.3,548.9,215.6,539.3,245.7z"/>
					<path class="st22" d="M531.9,213.9c2.6-12.4,4.7-20.5,6-26.8c1.2-6.2,6.8-8.9,12.6-2c5.8,6.9-0.8,23-3.6,39
						c-1.7,9.4-8,24.9-8,24.9l-13.6-7.5C525.2,241.6,529.4,226,531.9,213.9z"/>
					<polygon class="st7" points="525.8,236.5 533.5,239.8 534.3,245.7 538.4,241.3 542.7,243.1 540,251.1 523.3,243.8 					"/>
				</g>
				
					<ellipse transform="matrix(0.9915 -0.1301 0.1301 0.9915 -7.496 75.9898)" class="st23" cx="578.1" cy="95.4" rx="13.7" ry="13.7"/>
				<path class="st24" d="M572,152.2c-0.1,0.2-0.1-2.3-0.1-6.1c0-10.5,0.1-30.8-2.9-32.4c-8.1-4.3-41.2,19-43.3,9.9
					c-0.5-2.1-0.7-4.4-0.8-6.6c0-0.5,0-0.9,0-1.4c0.1-3.7,0.9-7.2,2.2-10.4c1.1-2.8,2.5-5.3,4.3-7.6c0,0,0,0,0,0
					c6-7.8,15.6-12.8,26.2-12.4c0.5,0,1,0,1.4,0.1c12.7,1,23.6,8.9,28.1,20.5c1.4,3.6,2.3,7.7,2.4,12
					C590.1,144,575.1,147.6,572,152.2z"/>
				<path class="st23" d="M572,152.2c-0.1,0.2-0.1-2.3-0.1-6.1l0.2-0.8c0,0,10.2-6.6,13.5-20.3c2.4-9.8,2-16.3,1.6-19.2
					c1.4,3.6,2.3,7.7,2.4,12C590.1,144,575.1,147.6,572,152.2z"/>
				<path class="st21" d="M558.4,195.2L558.4,195.2c4.8,0.5,9.1-3,9.6-7.7l4-38c0.5-4.8-3-9.1-7.7-9.6l0,0c-4.8-0.5-9.1,3-9.6,7.7
					l-4,38C550.2,190.4,553.6,194.7,558.4,195.2z"/>
				<g>
					<path class="st25" d="M574.7,137c0,0.3-0.1,0.6-0.1,0.9c0,0.1,0,0.2,0,0.3c-0.5,3.7-1.8,7.1-3.7,10c-0.1,0.1-0.2,0.3-0.3,0.4
						c-3,4.6-7.4,8.2-12.5,10.1c0,0,0,0,0,0c-2,0.7-4.1,1.2-6.2,1.4c-0.8,0.1-1.6,0.1-2.4,0.1c-0.3,0-0.5,0-0.8,0
						c-0.1,0-0.2,0-0.2,0c-1.2-0.1-2.3-0.2-3.4-0.4c-0.3-0.1-0.6-0.1-1-0.2c-10.4-2.5-18.1-11.7-18.9-22.8c-0.1-1.2-0.1-2.4,0-3.6
						l0.1-1.9L526,119c0.1-1.9,0.3-3.7,0.7-5.4c0.3-1.3,0.7-2.6,1.3-3.9c1.5-3.3,3.3-6.2,5.8-8.5c4.8-4.4,11.2-7,18.1-6.6
						c5.1,0.3,9.8,2.1,13.6,5.1c0.6,0.4,1.1,0.9,1.6,1.4c2.6,2.4,4.7,5.3,6.1,8.6c0,0,0,0,0,0c0.4,0.9,0.7,1.8,1,2.7
						c0,0.2,0.1,0.3,0.1,0.5c0.3,1.1,0.6,2.2,0.8,3.4c0,0.3,0.1,0.5,0.1,0.8c0.2,1.4,0.3,2.9,0.3,4.3l0,0.3l-0.1,1l-0.1,1.1
						l-0.1,1.4l0,0l0,0.1l0,0.2l0,0.6l0,0l-0.4,6.7l-0.1,2.2l-0.1,0.8l0,0.2c0,0.1,0,0.1,0,0.2C574.8,136.4,574.7,136.7,574.7,137z"
						/>
					<path class="st26" d="M576.5,136.1c-0.2,0-0.4,0.1-0.7,0.1c-0.1,0-0.2,0-0.3,0l-0.7,0l-0.9,0l0.2-3.3l0-0.7l0.3-6l0.9,0l0.7,0
						c0.1,0,0.3,0,0.4,0l0,0c0.2,0,0.4,0.1,0.6,0.1l0,0c1,0.2,1.8,0.7,2.5,1.4c0.9,1,1.4,2.2,1.3,3.6
						C580.7,133.6,578.8,135.7,576.5,136.1z"/>
				</g>
				<path class="st21" d="M537.7,136.4c0,0,0.1,1.9,2.7,2.1c2.3,0.2,2.7-1.4,2.7-1.4L537.7,136.4z"/>
				<path class="st24" d="M574,114.9c0,0-44-10.8-48.2-1.8c0,0-0.8-9.6,13.2-17.9s35.9,2.2,37.4,6.5c1.4,4.4,0.8,7.6,0.8,7.6
					L574,114.9z"/>
				<g>
					<path class="st27" d="M547.7,122.9c0,0,5.7-2,10.2,1.9"/>
					<path class="st27" d="M528.2,120.4c0,0,5.5-2.1,10.3,1.6"/>
				</g>
				<path class="st28" d="M551.1,131.6L551.1,131.6c0.6,0.1,1.2-0.4,1.3-1l0.2-2.1c0.1-0.6-0.4-1.2-1-1.3l0,0
					c-0.6-0.1-1.2,0.4-1.3,1l-0.2,2.1C550,131,550.5,131.5,551.1,131.6z"/>
				<path class="st28" d="M533.2,129.7L533.2,129.7c0.6,0.1,1.2-0.4,1.3-1l0.2-2.1c0.1-0.6-0.4-1.2-1-1.3l0,0
					c-0.6-0.1-1.2,0.4-1.3,1l-0.2,2.1C532.1,129.1,532.6,129.6,533.2,129.7z"/>
				<path class="st11" d="M590.4,211.2l-0.6,9.3l-4,67.3l-0.2,2.7h-0.1l-16.2-0.7l-38.6-1.7l3.4-40.4l-3-37.1
					c-0.1-0.6-0.1-1.1,0-1.7c1.3-20.3,8.8-35.6,23.2-40l-1.4,25.5c1.7,0,14.7-25.4,16.3-25.1c2.5,0.4,4.8,1.4,6.8,2.8
					C585.3,178.3,589.9,193.3,590.4,211.2z"/>
				<path class="st11" d="M535.3,142l10.3,1.5c0,0-1.7,2.9-5.8,2.4C536.5,145.6,535.3,142,535.3,142z"/>
				<path class="st21" d="M576.5,136.1c-0.2,0-0.4,0.1-0.7,0.1c-0.1,0-0.2,0-0.3,0l-0.7,0c0,0.3,0,0.6-0.1,0.9
					c0,0.3-0.1,0.6-0.1,0.9c0,0.1,0,0.2,0,0.3c-0.5,3.7-1.8,7.1-3.7,10c-0.1,0.1-0.2,0.3-0.3,0.4c-3,4.6-7.4,8.2-12.5,10.1
					c0,0,0,0,0,0c-2,0.7-4.1,1.2-6.2,1.4c-0.8,0.1-1.6,0.1-2.4,0.1c-0.3,0-0.5,0-0.8,0c1.3,0,8.7-0.9,14.5-9.3
					c6.3-9.1,8.7-27.2,8.7-27.2s-0.1-7.8,0.4-7.8c0.1,0,1.4,0.5,3.2,1.1c0.2,1.4,0.3,2.9,0.3,4.3l0,0.3l-0.1,1l-0.1,1.1l-0.1,1.4
					l0,0l0,0.1l0,0.2l0,0.6l0.7,0c0.1,0,0.3,0,0.4,0l0,0c0.2,0,0.4,0.1,0.6,0.1l0,0c1,0.2,1.8,0.7,2.5,1.4c0.9,1,1.4,2.2,1.3,3.6
					C580.7,133.6,578.8,135.7,576.5,136.1z"/>
				<path class="st24" d="M532,110.1c-0.4,3.5-3.5,6.1-7,5.7c-3.5-0.4-6.1-3.5-5.7-7c0.4-3.5,3.5-6.1,7-5.7
					C529.8,103.4,532.3,106.6,532,110.1z"/>
				<path class="st24" d="M543.2,109.7c-0.4,3.5-3.5,6.1-7,5.7c-3.5-0.4-6.1-3.5-5.7-7c0.4-3.5,3.5-6.1,7-5.7
					C541,103,543.6,106.1,543.2,109.7z"/>
				<path class="st24" d="M555.4,110.4c-0.4,3.5-3.5,6.1-7,5.7c-3.5-0.4-6.1-3.5-5.7-7c0.4-3.5,3.5-6.1,7-5.7
					C553.2,103.7,555.7,106.9,555.4,110.4z"/>
				<circle class="st24" cx="561.6" cy="112.2" r="6.4"/>
				<path class="st24" d="M567.1,108.4l5,22.4c0.3,1.4,2.2,1.5,2.7,0.2l7-17C581.8,114.1,576.5,96.3,567.1,108.4z"/>
				<polygon class="st7" points="571.4,169 571.7,162.6 560.9,162.6 555.7,179.7 554.5,162.8 550.4,162.6 549.2,208.3 				"/>
				<g>
					<path class="st28" d="M543.5,311l22.8,1.7c10.1,0.8,18.7-3.8,19.3-10.6l-0.1-12.5l-57.9-1l-0.7,9
						C526.3,304.4,533.5,310.3,543.5,311z"/>
					<g>
						<g>
							<path class="st28" d="M542.2,474.8h-1.5c-0.9,0-1.6-0.7-1.6-1.6v-22.3l6.7,1.4l-2,21.1C543.8,474.2,543.1,474.8,542.2,474.8z
								"/>
							<g>
								<path class="st28" d="M526,449.5l-8,14.1c-1.3,2.2-3.7,3.6-6.3,3.7l0,0c-2.1,0.1-3.7,1.7-3.8,3.8l0,0
									c-0.1,2.3,1.7,4.3,4,4.3l6.4,0c3.3,0,6.6-1.3,9-3.6l17.4-16.3c0.8-1.1,1.2-2.5,1.1-3.9l0,0c-0.3-3.1-3.2-5.3-6.2-4.9
									L526,449.5z"/>
								<path class="st23" d="M525.6,447.7l-8,14.1c-1.3,2.2-3.7,3.6-6.3,3.7l0,0c-2.1,0.1-3.7,1.7-3.8,3.8l0,0
									c-0.1,2.3,1.7,4.3,4,4.3l4.6,0c4.5,0,8.9-1.7,12.2-4.8l16.1-15c0.8-1.1,1.2-2.5,1.1-3.9l0,0c-0.3-3.1-3.2-5.3-6.2-4.9
									L525.6,447.7z"/>
								<line class="st29" x1="519.5" y1="458.2" x2="523.1" y2="460.4"/>
								<line class="st29" x1="521" y1="455.4" x2="524.6" y2="457.6"/>
								<line class="st29" x1="522.4" y1="452.7" x2="526" y2="454.9"/>
							</g>
						</g>
						<g>
							<path class="st28" d="M526.3,447.5l17.4,0.4l-5.5-61.8c-0.3-2.2-0.4-4.4-0.1-6.5l13.9-81.2l-24.9-2.9l-11.7,77.7
								c-0.5,4.5-0.4,9.2,0.3,13.7L526.3,447.5z"/>
						</g>
						<rect x="524.5" y="443.8" class="st10" width="20.7" height="4.4"/>
					</g>
					<g>
						<g>
							<path class="st28" d="M582.6,476.1h-1.5c-0.9,0-1.6-0.7-1.6-1.6v-22.3l6.7,1.4l-2,21.1C584.1,475.5,583.4,476.1,582.6,476.1z
								"/>
							<g>
								<path class="st28" d="M566.4,450.8l-8,14.1c-1.3,2.2-3.7,3.6-6.3,3.7l0,0c-2.1,0.1-3.7,1.7-3.8,3.8l0,0
									c-0.1,2.3,1.7,4.3,4,4.3l6.4,0c3.3,0,6.6-1.3,9-3.6l17.4-16.3c0.8-1.1,1.2-2.5,1.1-3.9l0,0c-0.3-3.1-3.2-5.3-6.2-4.9
									L566.4,450.8z"/>
								<path class="st23" d="M566,449l-8,14.1c-1.3,2.2-3.7,3.6-6.3,3.7l0,0c-2.1,0.1-3.7,1.7-3.8,3.8l0,0c-0.1,2.3,1.7,4.3,4,4.3
									l4.6,0c4.5,0,8.9-1.7,12.2-4.8l16.1-15c0.8-1.1,1.2-2.5,1.1-3.9l0,0c-0.3-3.1-3.2-5.3-6.2-4.9L566,449z"/>
								<line class="st29" x1="559.9" y1="459.5" x2="563.5" y2="461.7"/>
								<line class="st29" x1="561.3" y1="456.7" x2="564.9" y2="458.9"/>
								<line class="st29" x1="562.8" y1="454" x2="566.4" y2="456.2"/>
							</g>
						</g>
						<polygon class="st28" points="566.8,448.6 584.2,448.7 585.3,296.5 556.3,295 						"/>
						<rect x="565.8" y="444.6" class="st10" width="19.5" height="4.5"/>
					</g>
				</g>
				<rect x="530.6" y="286.3" class="st14" width="55.4" height="5.8"/>
				<path class="st30" d="M589.8,220.5l-3.9,65.3l-17,0.9c0,0-0.6-35-0.9-45.7c-0.3-10.7,12.8-41.4,12.8-41.4
					S585.5,208.4,589.8,220.5z"/>
				<path class="st25" d="M534.7,280.5l11.6-3.2c1.4-0.4,2.7,0.3,3.1,1.6l0.1,0.2c0.3,1.2-0.5,2.5-1.9,2.9l-11.6,3.2
					c-1.4,0.4-2.7-0.3-3.1-1.6l-0.1-0.2C532.6,282.2,533.4,280.9,534.7,280.5z"/>
				<g>
					<path class="st31" d="M540.5,309.8c-0.7,0.5-1.5,0.8-2.5,1l-23.7,4.2c-3.4,0.6-6.7-1.7-7.3-5.1l-7.2-40.6
						c-0.6-3.4,1.7-6.7,5.1-7.3l0.3,0l23.4-4.1c3.4-0.6,6.7,1.7,7.3,5.1l2.8,15.6l2.7,15.6l1.7,9.5
						C543.6,306.1,542.5,308.5,540.5,309.8z"/>
					<path class="st7" d="M521.5,276.2c0.3,1.7-0.5,3.2-1.9,3.5c-1.4,0.3-2.7-0.9-3-2.6c-0.3-1.7,0.5-3.2,1.9-3.5
						C519.8,273.3,521.2,274.5,521.5,276.2z"/>
				</g>
				<path class="st14" d="M545.3,298.7l-8.9,6.7c-1.5,1.2-3.3,1.3-4,0.3c-0.2-0.3-0.3-0.7-0.3-1.2c0.1-0.9,0.7-2,1.7-2.8l6.2-4.6
					l-0.5-0.8l-8.7,6.5c-1.5,1.2-3.3,1.3-4,0.3c-0.2-0.3-0.3-0.7-0.3-1.2c0.1-0.9,0.7-2,1.7-2.8l9.1-6.8l-0.1-0.1
					c-0.1-0.3-0.2-0.5-0.3-0.7l-7.2,5.4c-1.5,1.2-3.3,1.3-4,0.3c-0.2-0.3-0.3-0.7-0.3-1.2c0.1-0.9,0.7-2,1.7-2.8l9.3-7
					c0,0,0.1-0.1,0.1-0.1c0.2-0.4,0.5-0.8,0.9-1.3L545.3,298.7z"/>
				<path class="st25" d="M555.8,289.3c0,0-6.4,4.9-8.2,6.3c-3.5,2.8-5.9,3.4-8,1.5l-3-4.9c-1.2-3-1.7-4.5,0.3-6.5l6.3-6.8
					c1.9-2.1,5.2-2.2,7.3-0.3l4.2,3.8C556.7,284.3,557.7,287.2,555.8,289.3z"/>
				<path class="st25" d="M538.3,290.1l-8.7,6.1c-1.4,1-3,1.2-3.7,0.3h0c-0.7-0.9-0.1-2.4,1.3-3.5l8.7-6.1c1.4-1,3-1.2,3.7-0.3l0,0
					C540.3,287.6,539.7,289.1,538.3,290.1z"/>
				<path class="st25" d="M539.3,295.3l-8.7,6.1c-1.4,1-3,1.2-3.7,0.3l0,0c-0.7-0.9-0.1-2.4,1.3-3.5l8.7-6.1c1.4-1,3-1.2,3.7-0.3
					l0,0C541.3,292.8,540.7,294.3,539.3,295.3z"/>
				<path class="st25" d="M544.6,297.6l-8.7,6.1c-1.4,1-3,1.2-3.7,0.3l0,0c-0.7-0.9-0.1-2.4,1.3-3.5l8.7-6.1c1.4-1,3-1.2,3.7-0.3
					l0,0C546.5,295,545.9,296.5,544.6,297.6z"/>
				<g>
					<path class="st25" d="M584.1,260.3c-2.1,3.7-4.5,7.1-7.3,10.2c-1.5,1.7-3.1,3.2-4.8,4.7l-18.5,16c-1.1,1-2.4,1.5-3.6,1.6
						c-2.4,0.2-4.8-1.1-6.4-3.6c-2.4-3.8,0.2-6.5,3.4-9.2l16.6-16c1.8-1.8,3.4-3.7,4.9-5.6c1.3-1.8,2.5-3.7,3.6-5.6
						c5.7-10.2,7.6-22.2,6-34l-2.7-19.4c-0.6-4.7,2-9,5.9-9.6c3.9-0.6,7.6,2.6,8.2,7.3l2.7,19.5
						C594.2,232.1,591.3,247.7,584.1,260.3z"/>
				</g>
				<path class="st21" d="M573.5,250.2l12.2,7.5c-2.1,3.7-4.1,7.3-6.9,10.3l-9.6-10.8L573.5,250.2z"/>
				<path class="st11" d="M575.9,239c0.1-0.6,2.4-3.5,0.6-16c-1.8-12.4-4.2-25.5-1.4-31.4c2.8-5.9,10-8.9,14.1-0.5
					c4.1,8.3,5.8,38.2,4.5,47.8c-1.3,9.7-8.9,23.6-8.9,23.6l-14.9-10.9C569.9,251.7,574.4,245.6,575.9,239z"/>
				<polygon class="st7" points="572.5,247.2 579.4,252.4 578.8,258.4 583.9,255.1 587.8,257.9 583.2,265.2 568.2,253.7 				"/>
				<path class="st25" d="M498.6,286.9L498.6,286.9c0.6,0.6,1.7,0.6,2.3,0l2.3-2.3c0.6-0.6,0.6-1.7,0-2.3l0,0
					c-0.6-0.6-1.7-0.6-2.3,0l-2.3,2.3C498,285.2,498,286.2,498.6,286.9z"/>
				<path class="st25" d="M500.5,290.6L500.5,290.6c0.6,0.6,1.7,0.6,2.3,0l2.3-2.3c0.6-0.6,0.6-1.7,0-2.3l0,0
					c-0.6-0.6-1.7-0.6-2.3,0l-2.3,2.3C499.9,288.9,499.9,290,500.5,290.6z"/>
				<path class="st25" d="M502,294.1L502,294.1c0.6,0.6,1.7,0.6,2.3,0l2.3-2.3c0.6-0.6,0.6-1.7,0-2.3l0,0c-0.6-0.6-1.7-0.6-2.3,0
					l-2.3,2.3C501.4,292.4,501.4,293.4,502,294.1z"/>
			</g>
			<path class="st6" d="M198.2,192.8c-2.3,7.1-21.3,31.7-36.9,50.9v-26.1l22.2-18.1L198.2,192.8z"/>
		</g>
		<g>
			<g>
				<g>
					<g>
						<g>
							<path class="st21" d="M184.5,192l9.8-8.8c0.9-0.8,1-2.2,0.2-3.1l0,0c-0.8-0.9-2.2-1-3.1-0.2l-9.8,8.8c-0.9,0.8-1,2.2-0.2,3.1
								l0,0C182.2,192.7,183.6,192.8,184.5,192z"/>
							<path class="st21" d="M177.7,197l6.2-11.6c0.6-1.1,0.2-2.4-0.9-2.9l0,0c-1.1-0.6-2.4-0.2-2.9,0.9l-6.2,11.6
								c-0.6,1.1-0.2,2.4,0.9,2.9l0,0C175.8,198.5,177.1,198.1,177.7,197z"/>
							<path class="st21" d="M186.3,196.6l11.9-10c0.9-0.8,1-2.1,0.3-3.1l0,0c-0.8-0.9-2.1-1-3.1-0.3l-11.9,10
								c-0.9,0.8-1,2.1-0.3,3.1l0,0C184,197.2,185.4,197.3,186.3,196.6z"/>
							<path class="st21" d="M186.3,202.8l11.9-10c0.9-0.8,1-2.1,0.3-3.1l0,0c-0.8-0.9-2.1-1-3.1-0.3l-11.9,10
								c-0.9,0.8-1,2.1-0.3,3.1l0,0C184,203.5,185.4,203.6,186.3,202.8z"/>
						</g>
						<path class="st21" d="M184.7,185.9c-0.1,0.1-1.8,1.1-3.7,2.2c-3.2,1.9-5.9,4.5-7.9,7.6l-3.8,6c0,0,8.8,7.4,9.3,7.1
							c7.5-3.9,12.8-10.6,12.8-10.6L184.7,185.9z"/>
					</g>
					<polygon class="st7" points="166.9,199.7 172,195.7 183.3,210.5 176.8,214.6 					"/>
					<g>
						<path class="st32" d="M180.9,214.2c0,0-31.4,24.7-31.5,24.8c-9.5,7.7-23.6,9.8-33.6,2.6c-1.5-1.1-4.9-4.4-6.2-5.9
							c-1.7-2-16.6-29.5-16.6-29.5l12.1-27.8c0,0,17.2,36.1,18.2,38.1c1.8,3.4,5.1,6.3,7,6.6c3.2,0.5,5,0,7.6-1.5
							c12.6-7.2,30.3-24.1,30.3-24.1L180.9,214.2z"/>
					</g>
				</g>
				<path class="st33" d="M90.8,439.6c-0.1,1.4-0.7,22.1-0.7,22.1l15.3,0.3l-0.3-25.9L90.8,439.6z"/>
				<path class="st34" d="M83.8,299c0,0.2,0,1.1,0,2.8c0.7,24.1,5,155.4,5,155.4l19.7-0.7l5.2-153.7L83.8,299z"/>
				<g>
					<path class="st35" d="M88.7,474.3l40.3,0.3c2.4,0,4.4-1.9,4.4-4.3l0,0c0-1.9-1.1-3.5-2.9-4.2l-19.9-7.1l-21.8,0.4L88.7,474.3z"
						/>
					<path class="st28" d="M131.1,475.8l-42.1,0l0-2.9l43.8,0v1.3C132.8,475,132,475.8,131.1,475.8z"/>
					<g>
						<line class="st36" x1="110.1" y1="464.9" x2="114.9" y2="459.8"/>
						<line class="st36" x1="113.6" y1="466.4" x2="118.4" y2="461.3"/>
						<line class="st36" x1="116.9" y1="468.4" x2="122.3" y2="462.6"/>
					</g>
				</g>
				<path class="st33" d="M56.2,439.3c-0.1,1.4-0.3,22-0.3,22l15.3,0l-0.8-25.7L56.2,439.3z"/>
				<path class="st34" d="M46.7,299.7c0,0.2,0,1.1,0.1,2.8c1.2,23.9,7.7,154.4,7.7,154.4l19.7-1L76.7,303L46.7,299.7z"/>
				<g>
					<path class="st37" d="M54.4,474l40.3,1.6c2.4,0.1,4.4-1.8,4.5-4.2l0,0c0.1-1.9-1-3.5-2.8-4.2l-19.7-7.7L55,459.1L54.4,474z"/>
					<path class="st28" d="M95.5,476.7l-40.8-1.3l0.1-2.9l43.7,1.4l0,0C98.4,475.5,97.1,476.8,95.5,476.7z"/>
					<g>
						<line class="st38" x1="76.1" y1="465.3" x2="81" y2="460.4"/>
						<line class="st38" x1="79.6" y1="466.9" x2="84.4" y2="462"/>
						<line class="st38" x1="82.8" y1="468.9" x2="88.3" y2="463.4"/>
					</g>
				</g>
				<path class="st34" d="M114.8,295.5c0.4,4.4-0.7,8.6-3,11.9c-2.9,4.3-7.7,7.4-13.3,7.9l-30.5,2.9c-0.9,0.1-1.8,0.1-2.7,0.1
					c-2.3-0.1-4.4-0.6-6.4-1.5c-0.4-0.2-0.7-0.3-1-0.5c-5.3-2.7-9.1-8-9.7-14.4l-0.4-9.7l65.6-6.9L114.8,295.5z"/>
				<g>
					<path class="st21" d="M82.3,180.3l-9.1,1.6c-3.1,0.6-6.2-1.6-6.7-4.7l-6.5-36.5c-0.6-3.1,1.6-6.2,4.7-6.7l9.1-1.6
						c3.1-0.6,6.2,1.6,6.7,4.7l6.5,36.5C87.5,176.7,85.4,179.7,82.3,180.3z"/>
					<path class="st39" d="M106.9,105.9c0.1,0.5,0.1,1,0.1,1.5c0.1,2.4,0,4.7-0.3,6.9c-1.5,9.7-7.2,18.1-15.3,23.1
						c-4.1,2.5-8.7,4.1-13.8,4.7c-8.2,0.9-14.6,5.3-20.9,0.9c-2-1.4-3.9-3-5.5-4.8c-0.6-0.7-1.3-1.4-1.9-2.2
						c-3.6-4.6-7.3-16.9-8-23.1c-1.9-17.6,10.5-33.4,27.8-36c0.5-0.1,1-0.1,1.5-0.2c11-1.2,21.3,3.2,28.2,11c0,0,0,0,0,0
						c2,2.3,3.7,4.8,5,7.6C105.4,98.5,106.5,102.1,106.9,105.9z"/>
					<g>
						<path class="st26" d="M64.9,120.2c0.1,0.7,0,1.4-0.1,2.1c-0.2,0.8-0.5,1.7-1.1,2.3c-0.9,1.2-2.3,2.1-3.9,2.3l-3.5,0.4
							l-2.7,0.3l-1-7.9l0,0l-0.2-1.5l-0.1-1.1l-0.1-1l0-0.3l0,0l6.1-0.8c1.5-0.2,3,0.2,4.2,1.1c0.7,0.5,1.3,1.2,1.7,2
							C64.6,118.8,64.8,119.5,64.9,120.2z"/>
						<path class="st25" d="M106.1,109.5l1.6,12.8l0.2,1.9c0.2,1.3,0.2,2.5,0.2,3.8c-0.2,11.6-8,21.8-19.1,25.3
							c-0.3,0.1-0.7,0.2-1,0.3c-1.2,0.3-2.4,0.6-3.7,0.7c-1.2,0.2-2.4,0.2-3.7,0.2c-2.4,0-4.7-0.3-6.9-0.9c0,0,0,0,0,0
							c-9.6-2.6-17.3-10.4-19.4-20.4c-0.1-0.3-0.1-0.6-0.2-0.9c-0.1-0.3-0.1-0.7-0.2-1.1l0-0.2l-0.1-0.9l-0.3-2.3l-1-7.8l0-0.1l0,0
							l-0.2-1.5l-0.1-1.1l-0.1-1l0-0.3c-0.2-1.8-0.2-3.6,0.1-5.4c0.1-1.2,0.4-2.4,0.7-3.6c0-0.2,0.1-0.4,0.1-0.5
							c0.2-1,0.6-1.9,0.9-2.9c0,0,0,0,0,0c1.3-3.5,3.4-6.8,6.1-9.5c0.5-0.5,1.1-1.1,1.7-1.6c4-3.4,9-5.7,14.5-6.4
							c7.4-0.9,14.6,1.2,20.1,5.4c2.9,2.3,5.1,5.1,6.9,8.4c0.7,1.3,1.2,2.6,1.6,3.9C105.5,105.7,105.9,107.5,106.1,109.5z"/>
						<path class="st26" d="M55.3,119.5l1,7.9l0.7,5.4l-2.1,0.3c-0.2,0-0.3,0-0.5,0c-3.6,0.2-6.7-2.5-7.2-6
							c-0.2-1.8,0.3-3.5,1.4-4.9c1-1.2,2.4-2,4-2.3l0,0c0.2-0.1,0.3-0.1,0.5-0.1L55.3,119.5z"/>
					</g>
					<path class="st21" d="M83.6,154.2c0,0-4.7,1.2-9.8-0.8c0,0,0,0,0,0c-9.6-2.6-17.3-10.4-19.4-20.4c-3.6,0.2-6.7-2.5-7.2-6
						c-0.2-1.8,0.3-3.5,1.4-4.9c1-1.2,2.4-2,4-2.3l0,0l-0.2-1.5l-0.1-1.1l-0.1-1l0-0.3l0,0c-0.2-1.8-0.2-3.6,0.1-5.4
						c3.2-2.7,6.9-3.7,9.7,0.5c0,0,0.2,2.1,0.5,5.2c0.3,2.4,0.7,5.3,1.2,8.4c1.1,6.4,2.7,13.4,5.1,17.5
						C73.9,150.7,83.6,154.2,83.6,154.2z"/>
					<g>
						<path class="st39" d="M103.3,110.9l-8.4,1.5c-0.8,0.1-1.6-0.4-1.8-1.2l0,0c-0.1-0.8,0.4-1.6,1.2-1.8l8.4-1.5
							c0.8-0.1,1.6,0.4,1.8,1.2l0,0C104.7,109.9,104.2,110.7,103.3,110.9z"/>
						<path class="st39" d="M82.8,114.5l-8.4,1.5c-0.8,0.1-1.6-0.4-1.8-1.2l0,0c-0.1-0.8,0.4-1.6,1.2-1.8l8.4-1.5
							c0.8-0.1,1.6,0.4,1.8,1.2l0,0C84.2,113.6,83.7,114.4,82.8,114.5z"/>
						<path class="st7" d="M87.9,135.8c1.7,1.7,3.6,2.1,5.6,1.8c2.4-0.3,5-1.9,5.4-3.9L87.9,135.8z"/>
						<path class="st21" d="M96.1,127.3c0,0-0.2,0-0.2,0c0.2,1.4-0.8,2.6-3.7,3.1L90,119.7C93.7,123.1,95.4,125.1,96.1,127.3z"/>
					</g>
				</g>
				<path class="st40" d="M49.4,309.7c0,0,26.8-2.9,26.5-3.9c-0.3-1-0.3-12.3-0.3-12.3s21.3-3.6,21.3-2.3c0,1.3,1.9,11.3,1.9,11.3
					l15.8-2.9l-0.3-16.8L45.5,290L49.4,309.7z"/>
				<g>
					<polygon class="st7" points="100.9,285 69,288.2 58.1,157.7 67.9,157.2 77.2,181.6 79.3,157.1 87.6,156.4 					"/>
				</g>
				<path class="st34" d="M75.6,302.3c0,0-7.6,1.1-13,2.1c-1.9,0.3-4.1,0.7-6.5,0.9c-3.3,0.4-7.1,0.6-11.1,0.5
					c-0.2,0-0.5-0.1-0.7-0.2L37.8,220c-0.1-0.7-0.2-1.3-0.2-2c-1.4-13.1-1-20.5-1.2-31.8c0-1.6-0.1-3.3-0.1-5.1c0-1.1,0.1-2.1,0.3-3
					c1.3-5,6-8.5,11.2-11.1c3.1-1.6,6.4-2.8,9.2-3.9c1.3-0.5,1-0.3,1.7-0.9L75.6,302.3z"/>
				<path class="st34" d="M118.4,297.1l-5.3,0.5l-12.1,1.1c0,0-14.2-136.7-12.9-136.2c2.1,0.8,4.4,2,6.7,3.6
					c4.6,3.3,9.1,8.2,11.5,14.1c0.7,1.7,1.3,3.5,1.6,5.3c0,0.1,0,0.1,0,0.2C110.1,197.4,118.4,297.1,118.4,297.1z"/>
				<g>
					<path class="st10" d="M79.8,189.7c0.1,0.9-0.6,1.7-1.5,1.7c-0.9,0.1-1.7-0.6-1.7-1.5c-0.1-0.9,0.6-1.7,1.5-1.7
						C79,188.2,79.7,188.9,79.8,189.7z"/>
					<path class="st10" d="M81.2,205.8c0.1,0.9-0.6,1.7-1.5,1.7c-0.9,0.1-1.7-0.6-1.7-1.5c-0.1-0.9,0.6-1.7,1.5-1.7
						C80.4,204.3,81.1,204.9,81.2,205.8z"/>
					<path class="st10" d="M82.6,221.8c0.1,0.9-0.6,1.7-1.5,1.7c-0.9,0.1-1.7-0.6-1.7-1.5c-0.1-0.9,0.6-1.7,1.5-1.7
						S82.6,221,82.6,221.8z"/>
					<path class="st10" d="M84.1,237.9c0.1,0.9-0.6,1.7-1.5,1.7c-0.9,0.1-1.7-0.6-1.7-1.5c-0.1-0.9,0.6-1.7,1.5-1.7
						C83.2,236.4,84,237,84.1,237.9z"/>
					<path class="st10" d="M85.5,253.9c0.1,0.9-0.6,1.7-1.5,1.7c-0.9,0.1-1.7-0.6-1.7-1.5c-0.1-0.9,0.6-1.7,1.5-1.7
						S85.4,253.1,85.5,253.9z"/>
				</g>
				<polygon class="st7" points="67.9,157.2 66.6,166.5 59.3,166.6 58.1,157.7 				"/>
				<polygon class="st7" points="79.3,157.1 82.2,165.1 88.1,165 88.8,156.1 				"/>
				<path class="st39" d="M51.4,117.8l1.3,6.4c0.3,1.4,1.8,2.1,3,1.5l0,0c0.6-0.3,1.1-0.8,1.2-1.5c0.7-2.9,2.7-11.4,4.8-16
					c2.7-5.6,9.1-5.9,9.1-5.9l8.5,2.1c2.7,0.6,4.9-2.2,3.6-4.6l-0.3-0.6l10.9,2.5c2.4,0.5,3.9-1.8,3.1-4.1c0,0,0,0,0.1,0
					c0.4,0.1,6.3,0.3,11.6,0.4c3,0.1,4.4-3.7,2.1-5.7c-6.6-5.4-17-12.8-25.9-14.2C70,76,51.7,93.3,50.3,97.3
					C49,101.3,51.4,117.8,51.4,117.8z"/>
				<path class="st28" d="M80.9,123.7L80.9,123.7c-0.6,0.1-1.2-0.3-1.3-0.9l-0.5-2.6c-0.1-0.6,0.3-1.2,0.9-1.3l0,0
					c0.6-0.1,1.2,0.3,1.3,0.9l0.5,2.6C81.9,122.9,81.5,123.5,80.9,123.7z"/>
				<path class="st28" d="M100.4,119.7L100.4,119.7c-0.6,0.1-1.2-0.3-1.3-0.9l-0.5-2.6c-0.1-0.6,0.3-1.2,0.9-1.3l0,0
					c0.6-0.1,1.2,0.3,1.3,0.9l0.5,2.6C101.4,119,101.1,119.6,100.4,119.7z"/>
				<path class="st32" d="M51.8,305.1c-3.3,0.4-2.7,0.8-6.8,0.7c-0.2,0-0.5-0.1-0.7-0.2L37.4,217c-0.1-0.7,3.5-6,3.5-6.7
					C43.6,220,54.2,304.9,51.8,305.1z"/>
				<g>
					<g>
						<path class="st25" d="M47.9,294.9l15.4,6.5c1.1,0.5,2.4-0.1,2.9-1.2l0,0c0.5-1.1-0.1-2.4-1.2-2.9l-15.4-6.5
							c-1.1-0.5-2.4,0.1-2.9,1.2v0C46.2,293.1,46.8,294.4,47.9,294.9z"/>
					</g>
					<g>
						<path class="st31" d="M93.5,325.6l-31.8,20.5c-4.4,2.8-10.2,1.5-13-2.8l-11.5-17.9c-2.8-4.4-1.5-10.2,2.8-13l31.8-20.5
							c4.4-2.8,10.2-1.5,13,2.8l11.5,17.9C99.1,317,97.8,322.8,93.5,325.6z"/>
					</g>
					<g class="st41">
						<g>
							<path class="st42" d="M55,315.4c0.1-0.2,8.7-8.8,7.4-10.9c-2.1-3.4-5-6.8-8-9.6l-5.7-5.3c0,0-7.2,8-7.6,8.4
								c-5.4,5.6,7,14.6,7,14.6S53.4,319.5,55,315.4z"/>
						</g>
						<g>
							<path class="st42" d="M55.6,304.3l12.8,12.5c0.9,0.9,2.5,0.6,3.6-0.6l0,0c1-1.2,1.1-3,0.2-3.9l-12.8-12.5
								c-0.9-0.9-2.5-0.6-3.6,0.6l0,0C54.7,301.6,54.6,303.4,55.6,304.3z"/>
						</g>
						<g>
							<path class="st42" d="M54.6,311.4l10.3,10c0.9,0.9,2.4,0.8,3.2-0.2l0,0c0.8-1,0.8-2.6-0.2-3.5l-10.3-10
								c-0.9-0.9-2.4-0.8-3.2,0.2l0,0C53.6,308.9,53.7,310.5,54.6,311.4z"/>
						</g>
						<g>
							<path class="st42" d="M46,311l12.2,11.8c0.9,0.9,2.4,0.8,3.2-0.2h0c0.8-1,0.8-2.6-0.2-3.5l-12.2-11.8
								c-0.9-0.9-2.4-0.8-3.2,0.2h0C45,308.5,45.1,310.1,46,311z"/>
						</g>
					</g>
					<g>
						<g>
							<path class="st25" d="M54.6,312.7c0.1-0.2,8.4-7.9,7.2-9.7c-2.1-3-4.8-6.1-7.7-8.6l-5.5-4.7c0,0-7,7.2-7.4,7.5
								c-5.3,5,6.8,13.1,6.8,13.1S53,316.4,54.6,312.7z"/>
						</g>
						<g>
							<path class="st25" d="M55,302.9L67.5,314c0.9,0.8,2.3,0.7,3.1-0.2l0,0c0.8-0.9,0.7-2.3-0.2-3.1l-12.5-11.1
								c-0.9-0.8-2.3-0.7-3.1,0.2v0C54,300.6,54.1,302.1,55,302.9z"/>
						</g>
						<g>
							<path class="st25" d="M54.2,309.2l10,8.9c0.9,0.8,2.3,0.7,3.1-0.2l0,0c0.8-0.9,0.7-2.3-0.2-3.1l-10-8.9
								c-0.9-0.8-2.3-0.7-3.1,0.2l0,0C53.2,306.9,53.2,308.3,54.2,309.2z"/>
						</g>
						<g>
							<path class="st25" d="M45.8,308.8l11.9,10.6c0.9,0.8,2.3,0.7,3.1-0.2l0,0c0.8-0.9,0.7-2.3-0.2-3.1l-11.9-10.6
								c-0.9-0.8-2.3-0.7-3.1,0.2l0,0C44.8,306.5,44.9,308,45.8,308.8z"/>
						</g>
					</g>
					<g>
						<polygon class="st7" points="52.4,289.7 50.8,288.2 47.2,285.1 37,296.5 34.9,298.9 35.6,299.5 37.1,300.9 40,303.5 
							40.6,302.9 47.8,294.8 50.7,291.6 50.9,291.3 						"/>
					</g>
					<g>
						<path class="st34" d="M49.5,184.3l-8-9.5l-1.3-1.1c-0.2,0.2-2.4,2.9-5.6,7.3c-2.7,3.8-6.2,8.8-9.5,14.5
							C14.6,213,9.8,228.8,10.6,242.3c1.6,28.1,22.8,56.9,23.7,58.1l1.3-0.9l2.3-1.7l9.5-7l1.3-1l2.1-1.6l1.4-1.1
							c-0.2-0.2-18.1-24.8-19.4-46.2c-1-16.3,6.7-33.3,15-44.1C49.1,195.3,48.6,185.3,49.5,184.3z"/>
					</g>
				</g>
			</g>
			<path class="st7" d="M81.9,311.5c0,1.6-1.3,3-2.8,3s-2.8-1.3-2.8-3c0-1.6,1.3-3,2.8-3S81.9,309.8,81.9,311.5z"/>
		</g>
	</g>
</g>
</svg>
