<?xml version="1.0" encoding="utf-8"?>
<!-- Generator: Adobe Illustrator 22.1.0, SVG Export Plug-In . SVG Version: 6.00 Build 0)  -->
<svg version="1.1" id="Capa_1" xmlns="http://www.w3.org/2000/svg" xmlns:xlink="http://www.w3.org/1999/xlink" x="0px" y="0px"
	 viewBox="0 0 602 328.2" style="enable-background:new 0 0 602 328.2;" xml:space="preserve">
<style type="text/css">
	.st0{opacity:0.15;}
	.st1{clip-path:url(#SVGID_2_);}
	.st2{opacity:0.34;fill:#640917;stroke:#640917;stroke-width:1.9451;stroke-linecap:round;stroke-miterlimit:10;}
	.st3{fill:#FFFFFF;}
	.st4{fill:#CDE0DF;stroke:#640917;stroke-width:1.7993;stroke-miterlimit:10;}
	.st5{fill:#B6CCCA;stroke:#640917;stroke-width:1.7993;stroke-miterlimit:10;}
	.st6{fill:#E8DAD6;}
	.st7{fill:#FF9F36;}
	.st8{fill:#E25959;}
	.st9{fill:#FF9F36;stroke:#640917;stroke-width:1.7993;stroke-linecap:round;stroke-miterlimit:10;}
	.st10{fill:#CDE0DF;}
	.st11{fill:#640917;}
	.st12{fill:#EDE6E4;stroke:#640917;stroke-width:1.7993;stroke-miterlimit:10;}
	.st13{fill:#ABC9C7;}
	.st14{fill:none;stroke:#640917;stroke-width:1.7993;stroke-miterlimit:10;}
	.st15{fill:#ABC9C7;stroke:#640917;stroke-width:1.7993;stroke-miterlimit:10;}
	.st16{fill:#FFFAF8;stroke:#640917;stroke-width:1.7993;stroke-linecap:round;stroke-miterlimit:10;}
	.st17{fill:#FCD3B6;stroke:#640917;stroke-width:1.7993;stroke-linecap:round;stroke-miterlimit:10;}
	.st18{fill:none;stroke:#640917;stroke-width:1.7993;stroke-linecap:round;stroke-miterlimit:10;}
	.st19{fill:#E25959;stroke:#640917;stroke-width:1.7993;stroke-linecap:round;stroke-miterlimit:10;}
	.st20{fill:#FFFFFF;stroke:#640917;stroke-width:1.7993;stroke-linecap:round;stroke-miterlimit:10;}
	.st21{fill:#FFEDD9;stroke:#640917;stroke-width:1.7993;stroke-linecap:round;stroke-miterlimit:10;}
	.st22{fill:#FCD3B6;}
	.st23{fill:#E0D4D1;}
	.st24{fill:#CC4040;stroke:#640917;stroke-width:1.7993;stroke-linecap:round;stroke-miterlimit:10;}
	.st25{fill:none;}
	.st26{fill:none;stroke:#2E2F73;stroke-width:1.7993;stroke-linecap:round;stroke-miterlimit:10;}
	.st27{fill:#FFF3E4;stroke:#640917;stroke-width:1.7993;stroke-linecap:round;stroke-miterlimit:10;}
	.st28{fill:#640917;stroke:#640917;stroke-width:1.7993;stroke-linecap:round;stroke-miterlimit:10;}
	.st29{fill:#4F0816;stroke:#4F0816;stroke-width:1.7993;stroke-linecap:round;stroke-miterlimit:10;}
	.st30{fill:#FFFFFF;stroke:#640917;stroke-width:1.7993;stroke-miterlimit:10;}
	.st31{fill:#F7F0ED;}
	.st32{fill:#9FCCC9;}
	.st33{fill:#C68671;stroke:#640917;stroke-width:1.7993;stroke-miterlimit:10;}
	.st34{fill:#C68671;}
	.st35{fill:#B7715E;}
	.st36{fill:#DBAA94;stroke:#640917;stroke-width:1.7993;stroke-linecap:round;stroke-miterlimit:10;}
	.st37{fill:#B2654D;stroke:#640917;stroke-width:1.7993;stroke-linecap:round;stroke-miterlimit:10;}
	.st38{fill:#F7F0ED;stroke:#640917;stroke-width:1.7993;stroke-linecap:round;stroke-miterlimit:10;}
	.st39{fill:#510715;stroke:#4F0E18;stroke-width:1.7993;stroke-miterlimit:10;}
	.st40{fill:#EF8720;}
	.st41{fill:none;stroke:#64121A;stroke-width:1.7993;stroke-linecap:round;stroke-miterlimit:10;}
</style>
<g class="st0">
	<defs>
		<rect id="SVGID_1_" y="0.4" class="st0" width="602" height="328.2"/>
	</defs>
	<clipPath id="SVGID_2_">
		<use xlink:href="#SVGID_1_"  style="overflow:visible;"/>
	</clipPath>
	<g id="XMLID_6599_" class="st1">
		<path class="st2" d="M409.3-51.6H38.1c-6.7,0-12.2,5.5-12.2,12.2v213.6c0,6.7,5.5,12.2,12.2,12.2H265v16h19.3h1h19.3h20.3h20.3
			v-16h64.1c6.7,0,12.2-5.5,12.2-12.2V-39.4C421.5-46.1,416-51.6,409.3-51.6z"/>
		<rect id="XMLID_6382_" x="20.4" y="-56.5" class="st3" width="386.3" height="228.8"/>
		<g id="XMLID_6378_">
			<path id="XMLID_6379_" class="st4" d="M399.2,175.3H28c-6.7,0-12.2-5.5-12.2-12.2V-50.5c0-6.7,5.5-12.2,12.2-12.2h371.2
				c6.7,0,12.2,5.5,12.2,12.2v213.6C411.4,169.8,405.9,175.3,399.2,175.3z M28-53.5c-1.6,0-3,1.3-3,3v213.6c0,1.6,1.3,3,3,3h371.2
				c1.6,0,3-1.3,3-3V-50.5c0-1.6-1.3-3-3-3H28z"/>
		</g>
		<path id="XMLID_6377_" class="st5" d="M35.9-58.1L35.9-58.1c0,2.5-2.1,4.6-4.6,4.6h-2.7c-2,0-3.6,1.6-3.6,3.6v6.1
			c0,2.5-2.1,4.6-4.6,4.6l0,0c-2.5,0-4.6-2.1-4.6-4.6v-11.4c0-4.2,3.4-7.6,7.6-7.6h7.9C33.8-62.7,35.9-60.6,35.9-58.1z"/>
		<path id="XMLID_6376_" class="st5" d="M20.4,155.2L20.4,155.2c2.5,0,4.6,2.1,4.6,4.6v2.7c0,2,1.6,3.6,3.6,3.6h6.1
			c2.5,0,4.6,2.1,4.6,4.6l0,0c0,2.5-2.1,4.6-4.6,4.6H23.4c-4.2,0-7.6-3.4-7.6-7.6v-7.9C15.8,157.3,17.9,155.2,20.4,155.2z"/>
		<path id="XMLID_6375_" class="st5" d="M391.3-58.1L391.3-58.1c0,2.5,2.1,4.6,4.6,4.6h2.7c2,0,3.6,1.6,3.6,3.6v6.1
			c0,2.5,2.1,4.6,4.6,4.6l0,0c2.5,0,4.6-2.1,4.6-4.6v-11.4c0-4.2-3.4-7.6-7.6-7.6h-7.9C393.3-62.7,391.3-60.6,391.3-58.1z"/>
		<path id="XMLID_6374_" class="st5" d="M406.7,155.2L406.7,155.2c-2.5,0-4.6,2.1-4.6,4.6v2.7c0,2-1.6,3.6-3.6,3.6h-6.1
			c-2.5,0-4.6,2.1-4.6,4.6l0,0c0,2.5,2.1,4.6,4.6,4.6h11.4c4.2,0,7.6-3.4,7.6-7.6v-7.9C411.4,157.3,409.3,155.2,406.7,155.2z"/>
		<rect id="XMLID_6373_" x="90" y="-43.3" class="st6" width="3.7" height="196"/>
		<rect id="XMLID_6372_" x="182.9" y="-43.3" class="st6" width="3.7" height="196"/>
		
			<rect id="XMLID_6371_" x="208.7" y="-163.2" transform="matrix(-1.836970e-16 1 -1 -1.836970e-16 221.9163 -199.0956)" class="st6" width="3.7" height="349.2"/>
		
			<rect id="XMLID_6370_" x="208.7" y="-132.3" transform="matrix(-1.836970e-16 1 -1 -1.836970e-16 252.8463 -168.1655)" class="st6" width="3.7" height="349.2"/>
		
			<rect id="XMLID_6369_" x="208.7" y="-132.3" transform="matrix(-1.836970e-16 1 -1 -1.836970e-16 252.8463 -168.1655)" class="st6" width="3.7" height="349.2"/>
		
			<rect id="XMLID_6368_" x="208.7" y="-101.3" transform="matrix(-1.836970e-16 1 -1 -1.836970e-16 283.7764 -137.2354)" class="st6" width="3.7" height="349.2"/>
		
			<rect id="XMLID_6367_" x="208.7" y="-101.3" transform="matrix(-1.836970e-16 1 -1 -1.836970e-16 283.7764 -137.2354)" class="st6" width="3.7" height="349.2"/>
		
			<rect id="XMLID_6366_" x="208.7" y="-70.4" transform="matrix(-1.836970e-16 1 -1 -1.836970e-16 314.7064 -106.3054)" class="st6" width="3.7" height="349.2"/>
		
			<rect id="XMLID_6365_" x="208.7" y="-70.4" transform="matrix(-1.836970e-16 1 -1 -1.836970e-16 314.7064 -106.3054)" class="st6" width="3.7" height="349.2"/>
		
			<rect id="XMLID_6364_" x="208.7" y="-39.5" transform="matrix(-1.836970e-16 1 -1 -1.836970e-16 345.6365 -75.3753)" class="st6" width="3.7" height="349.2"/>
		<rect id="XMLID_6363_" x="276.5" y="-43.3" class="st6" width="3.7" height="196"/>
		<rect id="XMLID_6362_" x="332.5" y="-43.3" class="st6" width="3.7" height="196"/>
		<rect id="XMLID_6361_" x="100.4" y="-43.3" class="st7" width="20.3" height="20.3"/>
		<rect id="XMLID_6360_" x="127.8" y="-43.3" class="st8" width="20.3" height="20.3"/>
		<rect id="XMLID_6359_" x="154.3" y="-43.3" class="st7" width="20.3" height="20.3"/>
		<rect id="XMLID_6358_" x="100.4" y="-17" class="st8" width="20.3" height="20.3"/>
		<rect id="XMLID_6357_" x="127.8" y="-17" class="st8" width="20.3" height="20.3"/>
		<rect id="XMLID_6356_" x="154.3" y="-17" class="st7" width="20.3" height="20.3"/>
		<rect id="XMLID_6355_" x="196.2" y="-43.3" class="st7" width="20.3" height="20.3"/>
		<rect id="XMLID_6354_" x="223.9" y="-43.3" class="st7" width="20.3" height="20.3"/>
		<rect id="XMLID_6353_" x="196.2" y="-17" class="st7" width="20.3" height="20.3"/>
		<rect id="XMLID_6352_" x="196.2" y="16.5" class="st6" width="20.3" height="20.3"/>
		<rect id="XMLID_6351_" x="223.9" y="16.5" class="st6" width="20.3" height="20.3"/>
		<rect id="XMLID_6350_" x="100.4" y="16.5" class="st7" width="20.3" height="20.3"/>
		<rect id="XMLID_6349_" x="127.8" y="16.5" class="st8" width="20.3" height="20.3"/>
		
			<rect id="XMLID_6348_" x="132.6" y="23" transform="matrix(0.9888 -0.1494 0.1494 0.9888 -3.3437 21.6901)" class="st3" width="20.3" height="20.3"/>
		<rect id="XMLID_6347_" x="100.4" y="46.2" class="st7" width="20.3" height="20.3"/>
		<rect id="XMLID_6346_" x="196.2" y="78.7" class="st7" width="20.3" height="20.3"/>
		<rect id="XMLID_6345_" x="127.8" y="46.2" class="st8" width="20.3" height="20.3"/>
		<rect id="XMLID_6344_" x="100.4" y="77.5" class="st7" width="20.3" height="20.3"/>
		<rect id="XMLID_6343_" x="127.8" y="77.5" class="st8" width="20.3" height="20.3"/>
		<rect id="XMLID_6342_" x="130.4" y="108.7" class="st3" width="20.3" height="20.3"/>
		<rect id="XMLID_6341_" x="157.8" y="108.7" class="st3" width="20.3" height="20.3"/>
		
			<rect id="XMLID_6340_" x="194.3" y="-38.7" transform="matrix(0.9013 0.4331 -0.4331 0.9013 7.8196 -91.3709)" class="st9" width="20.3" height="20.3"/>
		<rect id="XMLID_6339_" x="284.8" y="-16.6" class="st8" width="20.3" height="20.3"/>
		<rect id="XMLID_6338_" x="284.8" y="16.8" class="st10" width="20.3" height="20.3"/>
		<rect id="XMLID_6337_" x="284.8" y="46.5" class="st8" width="20.3" height="20.3"/>
		<rect id="XMLID_6336_" x="249.4" y="46.5" class="st10" width="20.3" height="20.3"/>
		<rect id="XMLID_6335_" x="223.9" y="46.5" class="st8" width="20.3" height="20.3"/>
		<rect id="XMLID_6334_" x="196.2" y="46.5" class="st10" width="20.3" height="20.3"/>
		<rect id="XMLID_6333_" x="284.8" y="78.7" class="st10" width="20.3" height="20.3"/>
		<rect id="XMLID_6332_" x="284.8" y="110.2" class="st8" width="20.3" height="20.3"/>
		<rect id="XMLID_6331_" x="274.6" y="164.9" class="st8" width="20.3" height="20.3"/>
		<rect id="XMLID_6330_" x="294.9" y="164.9" class="st3" width="20.3" height="20.3"/>
		<rect id="XMLID_6329_" x="315.3" y="164.9" class="st7" width="20.3" height="20.3"/>
		<rect id="XMLID_6328_" x="255.4" y="164.9" class="st10" width="20.3" height="20.3"/>
		<rect id="XMLID_6327_" x="308.8" y="-16.6" class="st7" width="20.3" height="20.3"/>
		<rect id="XMLID_6326_" x="308.8" y="16.8" class="st7" width="20.3" height="20.3"/>
		<rect id="XMLID_6325_" x="308.8" y="46.5" class="st7" width="20.3" height="20.3"/>
		<rect id="XMLID_6324_" x="308.8" y="78.7" class="st7" width="20.3" height="20.3"/>
		<rect id="XMLID_6323_" x="308.8" y="110.2" class="st7" width="20.3" height="20.3"/>
		<rect id="XMLID_6322_" x="340.8" y="-16.6" class="st6" width="20.3" height="20.3"/>
		<rect id="XMLID_6321_" x="340.8" y="16.8" class="st6" width="20.3" height="20.3"/>
		<rect id="XMLID_6320_" x="340.8" y="46.5" class="st6" width="20.3" height="20.3"/>
		<rect id="XMLID_6319_" x="340.8" y="78.7" class="st6" width="20.3" height="20.3"/>
		<rect id="XMLID_6318_" x="340.8" y="110.2" class="st6" width="20.3" height="20.3"/>
		<rect id="XMLID_6317_" x="154.3" y="16.5" class="st7" width="20.3" height="20.3"/>
		<path id="XMLID_6316_" class="st6" d="M83.5-9.9H37.4c-0.8,0-1.5-0.7-1.5-1.5l0,0c0-0.8,0.7-1.5,1.5-1.5h46.1
			c0.8,0,1.5,0.7,1.5,1.5l0,0C85.1-10.6,84.4-9.9,83.5-9.9z"/>
		<path id="XMLID_6315_" class="st6" d="M83.5,28.2H37.4c-0.8,0-1.5-0.7-1.5-1.5l0,0c0-0.8,0.7-1.5,1.5-1.5h46.1
			c0.8,0,1.5,0.7,1.5,1.5l0,0C85.1,27.5,84.4,28.2,83.5,28.2z"/>
		<path id="XMLID_6314_" class="st6" d="M83.5,59.4H37.4c-0.8,0-1.5-0.7-1.5-1.5l0,0c0-0.8,0.7-1.5,1.5-1.5h46.1
			c0.8,0,1.5,0.7,1.5,1.5l0,0C85.1,58.7,84.4,59.4,83.5,59.4z"/>
		<path id="XMLID_6313_" class="st6" d="M83.5,89.2H37.4c-0.8,0-1.5-0.7-1.5-1.5l0,0c0-0.8,0.7-1.5,1.5-1.5h46.1
			c0.8,0,1.5,0.7,1.5,1.5l0,0C85.1,88.5,84.4,89.2,83.5,89.2z"/>
		
			<rect id="XMLID_6312_" x="249.4" y="52.4" transform="matrix(0.9888 -0.1493 0.1493 0.9888 -6.4365 39.4658)" class="st8" width="20.3" height="20.3"/>
		<path id="XMLID_6311_" class="st6" d="M83.5,122H37.4c-0.8,0-1.5-0.7-1.5-1.5l0,0c0-0.8,0.7-1.5,1.5-1.5h46.1
			c0.8,0,1.5,0.7,1.5,1.5l0,0C85.1,121.3,84.4,122,83.5,122z"/>
		<path id="XMLID_6310_" class="st6" d="M264,84.6h-39.6c-0.8,0-1.5-0.7-1.5-1.5l0,0c0-0.8,0.7-1.5,1.5-1.5H264
			c0.8,0,1.5,0.7,1.5,1.5l0,0C265.5,83.9,264.8,84.6,264,84.6z"/>
		<path id="XMLID_6309_" class="st6" d="M264,93.8h-39.6c-0.8,0-1.5-0.7-1.5-1.5l0,0c0-0.8,0.7-1.5,1.5-1.5H264
			c0.8,0,1.5,0.7,1.5,1.5l0,0C265.5,93.1,264.8,93.8,264,93.8z"/>
		<path id="XMLID_6308_" class="st6" d="M82.7-1.6H59c-0.8,0-1.5-0.7-1.5-1.5l0,0c0-0.8,0.7-1.5,1.5-1.5h23.8c0.8,0,1.5,0.7,1.5,1.5
			l0,0C84.3-2.3,83.6-1.6,82.7-1.6z"/>
		<path id="XMLID_6307_" class="st6" d="M259.3,0h-23.8c-0.8,0-1.5-0.7-1.5-1.5l0,0c0-0.8,0.7-1.5,1.5-1.5h23.8
			c0.8,0,1.5,0.7,1.5,1.5l0,0C260.9-0.7,260.2,0,259.3,0z"/>
		<path id="XMLID_6306_" class="st6" d="M259.3-9.8h-23.8c-0.8,0-1.5-0.7-1.5-1.5l0,0c0-0.8,0.7-1.5,1.5-1.5h23.8
			c0.8,0,1.5,0.7,1.5,1.5l0,0C260.9-10.5,260.2-9.8,259.3-9.8z"/>
		<path id="XMLID_6305_" class="st6" d="M83.5-18.4H37.4c-0.8,0-1.5-0.7-1.5-1.5l0,0c0-0.8,0.7-1.5,1.5-1.5h46.1
			c0.8,0,1.5,0.7,1.5,1.5l0,0C85.1-19.1,84.4-18.4,83.5-18.4z"/>
		<path id="XMLID_6304_" class="st6" d="M83.5-27H37.4c-0.8,0-1.5-0.7-1.5-1.5l0,0c0-0.8,0.7-1.5,1.5-1.5h46.1
			c0.8,0,1.5,0.7,1.5,1.5l0,0C85.1-27.7,84.4-27,83.5-27z"/>
		<path id="XMLID_6303_" class="st11" d="M461.5,427.1L461.5,427.1c-5.5,0-9.9-4.4-9.9-9.9v-9.9h19.8v9.9
			C471.4,422.7,467,427.1,461.5,427.1z"/>
		<path id="XMLID_6302_" class="st11" d="M508.2,427.1L508.2,427.1c-5.5,0-9.9-4.4-9.9-9.9v-9.9h19.8v9.9
			C518.1,422.7,513.7,427.1,508.2,427.1z"/>
		<path id="XMLID_6301_" class="st11" d="M555.4,427.1L555.4,427.1c-5.5,0-9.9-4.4-9.9-9.9v-9.9h19.8v9.9
			C565.3,422.7,560.9,427.1,555.4,427.1z"/>
		<rect id="XMLID_6300_" x="495" y="322.6" class="st4" width="26.4" height="30.5"/>
		<rect id="XMLID_6299_" x="502.6" y="353.1" class="st4" width="11.3" height="56.8"/>
		<path id="XMLID_6298_" class="st12" d="M486.7,334.9h70c10,0,18.2-8.1,18.2-18.2V190.5c0-7.5-6.1-13.5-13.5-13.5H482
			c-7.5,0-13.5,6.1-13.5,13.5v126.3C468.5,326.8,476.6,334.9,486.7,334.9z"/>
		
			<rect id="XMLID_6297_" x="495" y="334.9" transform="matrix(-1 -1.224647e-16 1.224647e-16 -1 1016.4222 680.821)" class="st13" width="26.4" height="11"/>
		
			<rect id="XMLID_6296_" x="502.6" y="353.9" transform="matrix(-1 -1.224647e-16 1.224647e-16 -1 1016.4222 713.5707)" class="st13" width="11.3" height="5.8"/>
		<rect id="XMLID_6295_" x="502.6" y="353.1" class="st14" width="11.3" height="51.5"/>
		<rect id="XMLID_6294_" x="495" y="322.6" class="st14" width="26.4" height="30.5"/>
		<path id="XMLID_6293_" class="st15" d="M569.2,415.3h-122l0,0c0-5.9,4.8-10.7,10.7-10.7h100.5
			C564.4,404.6,569.2,409.4,569.2,415.3L569.2,415.3z"/>
		<path id="XMLID_6292_" class="st4" d="M518.2,415.3h-19.9v-0.8c0-5.5,4.5-10,10-10l0,0c5.5,0,10,4.5,10,10V415.3z"/>
		<path id="XMLID_6291_" class="st16" d="M542.5,334.9h-73.8V190.5c0-7.5,6.1-13.5,13.5-13.5h63.2c7.5,0,13.5,6.1,13.5,13.5v128
			C558.9,327.6,551.6,334.9,542.5,334.9z"/>
		
			<rect id="XMLID_6290_" x="468.5" y="297" transform="matrix(-1 -1.224647e-16 1.224647e-16 -1 1027.2397 607.3452)" class="st12" width="90.2" height="13.3"/>
		<path id="XMLID_6289_" class="st4" d="M513.4,310.3H476v-51.7h63.7v25.3C539.8,298.5,527.9,310.3,513.4,310.3z"/>
		
			<rect id="XMLID_6288_" x="468.5" y="254.2" transform="matrix(-1 -1.224647e-16 1.224647e-16 -1 1027.2397 521.6837)" class="st12" width="90.2" height="13.3"/>
		
			<rect id="XMLID_6287_" x="468.5" y="212.3" transform="matrix(-1 -1.224647e-16 1.224647e-16 -1 1027.2397 437.957)" class="st12" width="90.2" height="13.3"/>
		<path id="XMLID_6286_" class="st12" d="M438.4,310.3H534c6.3,0,11.5,5.1,11.5,11.5l0,0c0,7.2-5.9,13.1-13.1,13.1h-94
			c-6.3,0-11.5-5.1-11.5-11.5v-1.6C426.9,315.5,432,310.3,438.4,310.3z"/>
		<path id="XMLID_6285_" class="st17" d="M412.3,253c-4.6,0-8.4-3.8-8.4-8.4s3.8-8.4,8.4-8.4c64.7,0,66.6-57,66.7-59.4
			c0.1-4.6,3.9-8.3,8.5-8.2c4.6,0.1,8.3,3.9,8.2,8.5c0,0.8-0.4,19.3-10.8,37.8C475.2,232.3,454.6,253,412.3,253z"/>
		<path id="XMLID_6284_" class="st18" d="M544.5,182.6v82.1h-68.3v-82.1c0-10.3,8.4-18.7,18.7-18.7h30.9
			C536.1,163.9,544.5,172.2,544.5,182.6z"/>
		<path id="XMLID_6283_" class="st19" d="M544.5,182.6v79.8h-68.3v-79.8c0-10.3,8.4-18.7,18.7-18.7h30.9
			C536.1,163.9,544.5,172.2,544.5,182.6z"/>
		<path id="XMLID_6282_" class="st20" d="M519.7,184.9"/>
		<path id="XMLID_6281_" class="st20" d="M482,184.9"/>
		<path id="XMLID_6280_" class="st21" d="M544.5,184.9v34.7c0,18.4-15,33.4-33.4,33.4h-37.3c-4.6,0-8.4-3.8-8.4-8.4s7.2-8.1,8.4-8.4
			h37.3c9.2,0,16.7-7.5,16.7-16.7v-32"/>
		<path id="XMLID_6277_" class="st22" d="M544.2,182.6v37c0,9.3-3.8,17.6-9.9,23.7c-6.1,6-14.4,9.7-23.6,9.7h-9.9
			c18.4,0,33.4-15,33.4-33.4v-37c0-7.1,2.9-11-2.4-14c-2.7-1.5-1-4-1-4C541.3,164.6,544.2,172.2,544.2,182.6z"/>
		<path id="XMLID_6276_" class="st18" d="M544.5,184.9v34.7c0,18.4-15,33.4-33.4,33.4h-37.3c-4.6,0-8.4-3.8-8.4-8.4s7.2-8.1,8.4-8.4
			h37.3c9.2,0,16.7-7.5,16.7-16.7v-32"/>
		<path id="XMLID_6275_" class="st21" d="M473.8,236.2l-21.6,4.6c-5.7,1.2-9.8,6.3-9.8,12.1l0,0h31.4"/>
		<line id="XMLID_6274_" class="st18" x1="476.2" y1="235.2" x2="476.2" y2="213"/>
		<path id="XMLID_6273_" class="st15" d="M492.5,253.7h-48.4v-5.3h43.1C490.1,248.3,492.5,250.7,492.5,253.7L492.5,253.7z"/>
		<rect id="XMLID_6272_" x="256.6" y="261.6" class="st12" width="104.5" height="165.6"/>
		<rect id="XMLID_6271_" x="250.1" y="261.6" class="st23" width="111" height="52.3"/>
		<rect id="XMLID_6270_" x="256.6" y="261.6" class="st18" width="104.5" height="165.6"/>
		<path id="XMLID_6269_" class="st12" d="M631.2,427.1H519.9V253.2h95.6c8.7,0,15.7,7,15.7,15.7V427.1z"/>
		<path id="XMLID_6268_" class="st18" d="M544.5,187v-4.4c0-10.3-8.4-18.7-18.7-18.7h-3"/>
		<rect id="XMLID_6267_" x="476.2" y="257.3" class="st24" width="46.6" height="17.3"/>
		<path id="XMLID_6266_" class="st16" d="M402.3,253.2H255.6c-6.8,0-12.3,5.5-12.3,12.3v161.6h13.3V270.5c0-2.8,2.3-5,5-5h140.6"/>
		<path id="XMLID_6265_" class="st16" d="M325.9,265.5h185.7c4.5,0,8.1,3.6,8.1,8.1V427h12.3V265.5c0-3.4-1.4-6.5-3.6-8.7
			c-2.2-2.2-5.3-3.6-8.7-3.6H325.9"/>
		<path id="XMLID_6264_" class="st25" d="M438.5,160.3"/>
		<path id="XMLID_6263_" class="st25" d="M372.3,253.2"/>
		<path id="XMLID_6262_" class="st15" d="M448.7,253.2h-105l-11.7-60.6c-1-5.2,3-10,8.2-10h87.9c4,0,7.5,2.9,8.2,6.8L448.7,253.2z"
			/>
		<path id="XMLID_6261_" class="st4" d="M444.8,253.2h-105L328,192.6c-1-5.2,3-10,8.2-10h87.9c4,0,7.5,2.9,8.2,6.8L444.8,253.2z"/>
		<polygon id="XMLID_6260_" class="st13" points="444.8,253.2 339.8,253.2 337,238.7 442,238.7 		"/>
		<circle id="XMLID_6259_" class="st3" cx="384.1" cy="219.9" r="8.2"/>
		<path id="XMLID_6258_" class="st14" d="M444.8,253.2h-105L328,192.6c-1-5.2,3-10,8.2-10h87.9c4,0,7.5,2.9,8.2,6.8L444.8,253.2z"/>
		<path id="XMLID_6257_" class="st4" d="M450.5,250.4c0,1.6-1.3,2.8-2.8,2.8c-1.6,0-2.8-1.3-2.8-2.8c0-1.6,1.3-2.8,2.8-2.8
			C449.2,247.5,450.5,248.8,450.5,250.4z"/>
		<path id="XMLID_6256_" class="st15" d="M407.5,420.3c-1.3,0-9,3.3-10.4,2.9c-7.3-2.2-7.6-2.2-5.4-9.5l33-109.7
			c3.8-12.6,15.2-21.1,28.3-21.1h25.3c7.6,0,13.7,6.1,13.7,13.7c0,7.6-6.1,13.7-13.7,13.7H453c-1,0-1.8,0.6-2.1,1.5l-33,109.7
			C416.2,427.5,413.4,420.2,407.5,420.3z"/>
		<line id="XMLID_6255_" class="st18" x1="456.2" y1="418" x2="461.5" y2="418"/>
		<path id="XMLID_6254_" class="st4" d="M503.3,310.3H478c-1,0-1.8,0.6-2.1,1.5l-33,109.7c-1.8,5.9-4.5-1.4-10.4-1.4
			c-1.3,0-5,1.7-6.3,1.3c-7.3-2.2-11.8-0.6-9.6-7.8l33-109.7c3.8-12.6,15.2-21.1,28.3-21.1h17"/>
		<path id="XMLID_6253_" class="st21" d="M517.4,153.2v9.6c0,0.3,0,0.6,0,0.9c-0.4,5.5-5,9.8-10.6,9.8l-5.1,0
			c-2.9,0-5.6-1.5-6.9-4.1c-0.4-0.8-0.7-1.7-0.7-2.6v-10L517.4,153.2z"/>
		<path id="XMLID_6250_" class="st22" d="M517.4,154.1v8.7c0,0.3,0,0.6,0,0.9c-3.5,1.9-7.5,2.9-11.7,2.9h-4c-2.7,0-5.2-0.5-7.5-1.4
			c0,0-0.1,0-0.1,0v-7.5l0.1,0L517.4,154.1z"/>
		<path id="XMLID_6249_" class="st18" d="M517.4,153.2v9.6c0,0.3,0,0.6,0,0.9c-0.4,5.5-5,9.8-10.6,9.8h-5.8c-3.7,0-6.8-2.9-6.8-6.6
			c0,0,0-0.1,0-0.1v-10L517.4,153.2z"/>
		<path id="XMLID_6248_" class="st21" d="M527.9,118.6l0,17.2l0,0c0,13.7-11.1,24.7-24.7,24.7h-4c-11.4,0-20.7-9.3-20.7-20.7v-22.2
			v-2.6c0-13.6,11.1-24.7,24.7-24.7h0c13.6,0,24.7,11.1,24.7,24.7v5.6"/>
		<rect id="XMLID_6247_" x="478.5" y="121.4" class="st22" width="9.3" height="7.4"/>
		<path id="XMLID_6246_" class="st22" d="M505.5,128.8H499c-1.9,0-3.4-1.5-3.4-3.4v-4h12.9v4.2C508.6,127.4,507.2,128.8,505.5,128.8
			z"/>
		<path id="XMLID_6245_" class="st20" d="M503.9,131h-2.9c-1.2,0-2.1-1-2.1-2.1l0,0c0-1.2,1-2.1,2.1-2.1h2.9c1.2,0,2.1,1,2.1,2.1
			l0,0C506,130.1,505.1,131,503.9,131z"/>
		<path id="XMLID_6242_" class="st22" d="M527.9,118.6l0,17.2c0,0,0,0,0,0c0,13.6-11.1,24.7-24.7,24.7h-4c-0.3,0-0.5,0-0.8,0
			c13.2-0.5,23.8-11.3,23.8-24.7c0,0,0,0,0,0l0-17.2l0,2.1v-6.1c0-7-5.6-12.7-12.6-12.7h5.6c7,0,12.7,5.7,12.7,12.7v6.1L527.9,118.6
			z"/>
		<path id="XMLID_6241_" class="st18" d="M527.9,118.4l0,17.2l0,0c0,13.7-11.1,24.7-24.7,24.7h-4c-11.4,0-20.7-9.3-20.7-20.7v-22.2
			v-2.6c0-13.6,11.1-24.7,24.7-24.7h0c13.6,0,24.7,11.1,24.7,24.7v5.6"/>
		<path id="XMLID_6240_" class="st26" d="M473.6,120.7"/>
		<path id="XMLID_6239_" class="st18" d="M491.6,139.3c-2.1,0-3.7-1.7-3.7-3.7v-8.4"/>
		<path id="XMLID_6238_" class="st27" d="M531,132.3"/>
		<path id="XMLID_6237_" class="st28" d="M507,121.9h-9.6c-0.9,0-1.6-0.7-1.6-1.6l0,0c0-0.9,0.7-1.6,1.6-1.6h9.6
			c0.9,0,1.6,0.7,1.6,1.6l0,0C508.6,121.2,507.9,121.9,507,121.9z"/>
		<path id="XMLID_6236_" class="st28" d="M500.4,90.2c-12.2,0-22,9.9-22,22v0h16.2c3.3,0,6.1-2,7.3-4.8c0.8-1.8,2.5-3.1,4.5-3.1
			l0.4,0c4.9,0,8.9,4,8.9,9v9c0,5.5,4.5,10,10,10h7.9v-20.6c0-11.9-9.6-21.5-21.5-21.5H500.4z"/>
		<path id="XMLID_6234_" class="st18" d="M500.4,90.2c-12.2,0-22,9.9-22,22v0h16.2c3.3,0,6.1-2,7.3-4.8c0.8-1.8,2.5-3.1,4.5-3.1
			l0.4,0c4.9,0,8.9,4,8.9,9v9c0,5.5,4.5,10,10,10h7.9v-20.6c0-11.9-9.6-21.5-21.5-21.5H500.4z"/>
		<path id="XMLID_6233_" class="st28" d="M486.3,121.9h-6.1c-0.9,0-1.6-0.7-1.6-1.6l0,0c0-0.9,0.7-1.6,1.6-1.6h6.1
			c0.9,0,1.6,0.7,1.6,1.6l0,0C487.9,121.2,487.2,121.9,486.3,121.9z"/>
		<path id="XMLID_6235_" class="st29" d="M533.2,111.7v20.6h-7.9c-0.9,0-1.7-0.1-2.5-0.3v-20.3c0-11.9-9.6-21.5-21.5-21.5h10.4
			C523.6,90.2,533.2,99.8,533.2,111.7z"/>
		<path id="XMLID_6232_" class="st17" d="M522.3,132.3c0-3.4,2.8-6.2,6.2-6.2c3.4,0,6.2,2.8,6.2,6.2c0,3.4-2.8,6.2-6.2,6.2
			c-1.1,0-2.2-0.3-3.1-0.8"/>
		<path id="XMLID_6231_" class="st27" d="M528.4,129.8c1.4,0,2.5,1.1,2.5,2.5"/>
		<path id="XMLID_6230_" class="st18" d="M496.1,145.4c-1.1,1.4-2.7,2.2-4.5,2.2l0,0c-1.8,0-3.5-0.9-4.5-2.2"/>
		<circle id="XMLID_6229_" class="st11" cx="500.8" cy="129.2" r="1.6"/>
		<path id="XMLID_6228_" class="st20" d="M484.3,131h-2.9c-1.2,0-2.1-1-2.1-2.1l0,0c0-1.2,1-2.1,2.1-2.1h2.9c1.2,0,2.1,1,2.1,2.1
			l0,0C486.4,130.1,485.4,131,484.3,131z"/>
		<circle id="XMLID_6227_" class="st11" cx="481.3" cy="129.2" r="1.6"/>
		<path id="XMLID_6226_" class="st19" d="M527.7,184.9v19.4h16.9v-24.8c0-8.7-7-15.7-15.7-15.7h-1.2"/>
		<path id="XMLID_6225_" class="st28" d="M526.9,140.8L526.9,140.8c0,15.4-12.5,27.8-27.8,27.8h-2.4c-10,0-18.2-8.1-18.2-18.2v-9.6"
			/>
		<path id="XMLID_6224_" class="st3" d="M495.8,153.1H489c-1.9,0-3.5-1.6-3.5-3.5v-4.2h13.7v4.2
			C499.3,151.5,497.7,153.1,495.8,153.1z"/>
		<line id="XMLID_6223_" class="st24" x1="159.6" y1="427.1" x2="728.1" y2="427.1"/>
		<path id="XMLID_6222_" class="st12" d="M419.8,427.2h-51.2c-3.2,0-5.8-2.6-5.8-5.8l0,0c0-2.6,1.7-4.9,4.2-5.6l26.1-7.2h30.4v14.8
			C423.5,425.6,421.8,427.2,419.8,427.2z"/>
		<path id="XMLID_6221_" class="st20" d="M422.1,427.2h-56.6c-1.1,0-2.1-0.9-2.1-2.1v-2h60.7v2C424.2,426.3,423.3,427.2,422.1,427.2
			z"/>
		<polygon id="XMLID_6220_" class="st19" points="392.3,409.2 398,423.2 403.5,423.2 397.1,408.7 		"/>
		<polygon id="XMLID_6219_" class="st19" points="402.5,408.7 408.2,423.2 413.7,423.2 407.3,408.7 		"/>
		<path id="XMLID_6218_" class="st30" d="M442.7,427.2h-51.2c-3.2,0-5.8-2.6-5.8-5.8l0,0c0-2.6,1.7-4.9,4.2-5.6l26.1-7.2h30.4v14.8
			C446.5,425.6,444.8,427.2,442.7,427.2z"/>
		<path id="XMLID_6217_" class="st18" d="M442.7,427.2h-51.2c-3.2,0-5.8-2.6-5.8-5.8l0,0c0-2.6,1.7-4.9,4.2-5.6l28.3-7.7l28.1,0.5
			v14.8C446.5,425.6,444.8,427.2,442.7,427.2z"/>
		<path id="XMLID_6216_" class="st20" d="M444.4,427.2h-56.6c-1.1,0-2.1-0.9-2.1-2.1v-2h60.7v2C446.5,426.3,445.5,427.2,444.4,427.2
			z"/>
		<path id="XMLID_6215_" class="st20" d="M385.4,414.5"/>
		<path id="XMLID_6214_" class="st20" d="M384.5,411.4"/>
		<path id="XMLID_6213_" class="st20" d="M388,413.9"/>
		<path id="XMLID_6212_" class="st20" d="M387,410.8"/>
		<path id="XMLID_6211_" class="st20" d="M390.5,413.2"/>
		<path id="XMLID_6210_" class="st20" d="M389.6,410.1"/>
		<path id="XMLID_6209_" class="st24" d="M465.7,225.9h21.1c0.7,0,1.3-0.6,1.3-1.3v-2.4c0-0.7-0.6-1.3-1.3-1.3h-21.1
			c-0.7,0-1.3,0.6-1.3,1.3v2.4C464.4,225.4,465,225.9,465.7,225.9z"/>
		<path id="XMLID_6208_" class="st20" d="M466.1,225.9l1.9,24.9c0.1,0.8,0.7,1.4,1.5,1.4h13.3c0.8,0,1.4-0.6,1.5-1.4l2-24.9H466.1z"
			/>
		<path id="XMLID_6207_" class="st19" d="M467.6,221h17.2v-1.1c0-1.1-0.8-2.1-1.9-2.2l-12.8-1.5c-1.3-0.2-2.5,0.9-2.5,2.2V221z"/>
		<path id="XMLID_6206_" class="st31" d="M466.1,225.9l1.9,24.9c0.1,0.8,0.7,1.4,1.5,1.4h2.4l-1.9-26.3H466.1z"/>
		<path id="XMLID_6205_" class="st18" d="M466.1,225.9l1.9,24.9c0.1,0.8,0.7,1.4,1.5,1.4h13.3c0.8,0,1.4-0.6,1.5-1.4l2-24.9H466.1z"
			/>
		<path id="XMLID_6204_" class="st32" d="M465.6,230.1l1.3,17.5c0,0.4,0.4,0.7,0.8,0.7h3.9l-1.4-19.1h-3.8
			C466,229.3,465.6,229.6,465.6,230.1z"/>
		<path id="XMLID_6203_" class="st10" d="M470.2,229.3l1.4,19.1h13c0.4,0,0.8-0.3,0.8-0.7l1.3-17.5c0-0.5-0.3-0.8-0.8-0.8H470.2z"/>
		<path id="XMLID_6202_" class="st14" d="M486,229.3h-15.8h-3.8c-0.5,0-0.8,0.4-0.8,0.8l1.3,17.5c0,0.4,0.4,0.7,0.8,0.7h3.9h13
			c0.4,0,0.8-0.3,0.8-0.7l1.3-17.5C486.8,229.6,486.4,229.3,486,229.3z"/>
		<polygon id="XMLID_6201_" class="st19" points="416.1,409.2 421.8,423.2 427.3,423.2 420.9,408.7 		"/>
		<polygon id="XMLID_6200_" class="st19" points="426.3,408.7 432,423.2 437.5,423.2 431.1,408.7 		"/>
		<path id="XMLID_6199_" class="st17" d="M156.7,178.2l-44.1-15.8c-17.5-6.3-31.9-19.7-39.3-36.8l-3.3-7.5l17-8.3l3.6,8.2
			c5.4,12.3,15.7,22,28.4,26.5l38.7,13.8c4.9,1.8,7.5,7.2,5.7,12.1C161.5,175.4,161.6,179.9,156.7,178.2z"/>
		<polyline id="XMLID_6198_" class="st19" points="74.9,82.2 87,109.9 70,118.1 58.5,91.7 		"/>
		<path id="XMLID_6197_" class="st33" d="M86.1,221.7L67.6,415.3c-10.1-1.9-20.6,2.7-29.2-2.8l20.2-211c0.8-8.1,6.2,3.4,14.3,4.2
			C80.9,206.5,86.8,213.7,86.1,221.7z"/>
		<path id="XMLID_6196_" class="st33" d="M149.6,409.8c-8.9,4.8-18.8-1.2-28.9,0l-18.5-188.1c-0.8-8.1,5.1-15.2,13.2-16
			c8.1-0.8,13.8-12.2,14.6-4.2L149.6,409.8z"/>
		<rect id="XMLID_6195_" x="62.3" y="199.8" class="st34" width="63.6" height="20.6"/>
		<polyline id="XMLID_6194_" class="st34" points="58.6,201.5 58.6,192.3 130,192.3 130,201.5 		"/>
		<path id="XMLID_6193_" class="st21" d="M108.5,73.5H83.9c-7.1,0-12.8-5.7-12.8-12.8V8.5h45.6c2.5,0,4.5,2,4.5,4.5v47.7
			C121.3,67.8,115.5,73.5,108.5,73.5z"/>
		<path id="XMLID_6192_" class="st22" d="M101,73.1c-1.6,0.3-3.2,0.5-4.8,0.5c-13.8,0-25.1-11.2-25.1-25.1v-40h9.7v40
			C80.8,60.7,89.5,70.8,101,73.1z"/>
		<path id="XMLID_6191_" class="st18" d="M108.5,73.5H83.9c-7.1,0-12.8-5.7-12.8-12.8V8.5h45.6c2.5,0,4.5,2,4.5,4.5v47.7
			C121.3,67.8,115.5,73.5,108.5,73.5z"/>
		<polygon id="XMLID_6190_" class="st35" points="59.1,196.4 68.6,196.4 47.9,409.8 37.5,409.8 		"/>
		<path id="XMLID_6189_" class="st14" d="M86.1,220.3c0,0.5,0,0.9-0.1,1.4L67.6,415.3c-0.7,7.6-30,5.3-29.2-2.8l20.2-211"/>
		<path id="XMLID_6188_" class="st14" d="M130,194.9v6.7l19.6,208.3h-29.5l-17.9-188.1c0-0.5-0.1-0.9-0.1-1.4"/>
		<path id="XMLID_6187_" class="st9" d="M130,196.4H58.6V93.9c0-9,7.3-16.3,16.3-16.3h38.9c9,0,16.3,7.3,16.3,16.3L130,196.4z"/>
		<path id="XMLID_6186_" class="st17" d="M77.4,44.7c0-3.5-2.8-6.3-6.3-6.3c-3.5,0-6.3,2.8-6.3,6.3c0,3.5,2.8,6.3,6.3,6.3
			c1.1,0,2.2-0.3,3.1-0.8"/>
		<path id="XMLID_6185_" class="st27" d="M71.1,42.1c-1.4,0-2.6,1.1-2.6,2.6"/>
		<path id="XMLID_6184_" class="st21" d="M99.8,89.1l-11.6,0c-3.3,0-6.1-2.7-6.1-6.1V70.6h23.7v12.5
			C105.9,86.4,103.1,89.1,99.8,89.1z"/>
		<path id="XMLID_6183_" class="st17" d="M105.9,68.8v7.5c-3,1.6-6.3,2.5-9.8,2.5h-4.2c-3.5,0-6.8-0.9-9.8-2.5v-7.5"/>
		<path id="XMLID_6182_" class="st18" d="M105.9,68.8V80c0,5-4.1,9.1-9.1,9.1h-5.5c-5,0-9.1-4.1-9.1-9.1V68.8"/>
		<path id="XMLID_6181_" class="st20" d="M77.4,77.2h33.2v-1.9c0-1-0.8-1.8-1.8-1.8H79.2c-1,0-1.8,0.8-1.8,1.8V77.2z"/>
		<line id="XMLID_6180_" class="st20" x1="130" y1="114.4" x2="130" y2="122.5"/>
		<path id="XMLID_6179_" class="st9" d="M41.8,426.8h47c2.9,0,5.3-2.4,5.3-5.3l0,0c0-2.4-1.6-4.5-3.9-5.1l-24-6.6H38.4v13.5
			C38.4,425.3,39.9,426.8,41.8,426.8z"/>
		<path id="XMLID_6178_" class="st19" d="M41.8,426.8h47c2.9,0,5.3-2.4,5.3-5.3l0,0c0-2.4-1.6-4.5-3.9-5.1l-24-6.6H38.4v13.5
			C38.4,425.3,39.9,426.8,41.8,426.8z"/>
		<path id="XMLID_6177_" class="st20" d="M40.3,426.8h51.9c1.1,0,1.9-0.9,1.9-1.9v-1.8H38.4v1.8C38.4,426,39.3,426.8,40.3,426.8z"/>
		<line id="XMLID_6176_" class="st20" x1="74.6" y1="412.3" x2="73.7" y2="415.1"/>
		<line id="XMLID_6175_" class="st20" x1="72.2" y1="411.7" x2="71.4" y2="414.6"/>
		<line id="XMLID_6082_" class="st36" x1="102.1" y1="220.3" x2="74.8" y2="220.3"/>
		<path id="XMLID_6081_" class="st19" d="M123.4,426.8h47c2.9,0,5.3-2.4,5.3-5.3l0,0c0-2.4-1.6-4.5-3.9-5.1l-24-6.6H120v13.5
			C120,425.3,121.5,426.8,123.4,426.8z"/>
		<path id="XMLID_6080_" class="st18" d="M123.4,426.8h47c2.9,0,5.3-2.4,5.3-5.3l0,0c0-2.4-1.6-4.5-3.9-5.1l-24-6.6H120v13.5
			C120,425.3,121.5,426.8,123.4,426.8z"/>
		<path id="XMLID_6079_" class="st20" d="M121.9,426.8h51.9c1.1,0,1.9-0.9,1.9-1.9v-1.8H120v1.8C120,426,120.8,426.8,121.9,426.8z"
			/>
		<line id="XMLID_6078_" class="st20" x1="156.2" y1="412.3" x2="155.3" y2="415.1"/>
		<line id="XMLID_6076_" class="st20" x1="153.8" y1="411.7" x2="153" y2="414.6"/>
		<line id="XMLID_6072_" class="st20" x1="69.9" y1="411.1" x2="69" y2="414"/>
		<line id="XMLID_6071_" class="st28" x1="-53" y1="426.8" x2="252.4" y2="426.8"/>
		<line id="XMLID_6070_" class="st18" x1="58.6" y1="123.5" x2="58.6" y2="115.2"/>
		<path id="XMLID_6069_" class="st37" d="M99.9,12.8"/>
		<path id="XMLID_6068_" class="st37" d="M88.1,12.8"/>
		<path id="XMLID_6067_" class="st9" d="M153.7,298.8"/>
		<path id="XMLID_6066_" class="st9" d="M35.4,298.8"/>
		<path id="XMLID_6065_" class="st17" d="M168,163.7l8.5,16.3c0.7,1.4,0.2,3.1-1.2,3.8c-1.4,0.7-3.1,0.2-3.8-1.2l-4.8-9"/>
		<path id="XMLID_6064_" class="st17" d="M162.9,166.3l8.5,16.3c0.7,1.4,0.2,3.1-1.2,3.8c-1.4,0.7-3.1,0.2-3.8-1.2l-4.8-9"/>
		<path id="XMLID_6063_" class="st17" d="M159.9,172.4l6.6,12.5c0.7,1.4,0.2,3.1-1.2,3.8c-1.4,0.7-3.1,0.2-3.8-1.2l-4.8-9"/>
		
			<rect id="XMLID_6062_" x="156.7" y="159.4" transform="matrix(0.9375 0.3479 -0.3479 0.9375 69.8769 -47.7815)" class="st8" width="22.6" height="22.6"/>
		<polyline id="XMLID_6061_" class="st7" points="112.9,77.7 112.9,92.1 73.9,92.1 73.9,77.7 		"/>
		<line id="XMLID_6060_" class="st38" x1="73.9" y1="77.7" x2="112.9" y2="77.7"/>
		<path id="XMLID_6059_" class="st11" d="M129.2-1.9h-15.1h-0.8H88.9c-13.6,0-24.7,11.1-24.7,24.7V44c0,7.2,5.8,13,13,13h19.2
			c9.8,0,17.7-7.9,17.7-17.7V17.5l0,0c8.4,0,15.1-6.8,15.1-15.1V-1.9z"/>
		<path id="XMLID_6057_" class="st18" d="M129.2-1.9h-15.1h-0.8H88.9c-13.6,0-24.7,11.1-24.7,24.7V44c0,7.2,5.8,13,13,13h19.2
			c9.8,0,17.7-7.9,17.7-17.7V17.5l0,0c8.4,0,15.1-6.8,15.1-15.1V-1.9z"/>
		<path id="XMLID_6058_" class="st39" d="M90.3,57H77.4c-7.2,0-13-5.8-13-13V22.8c0-13.6,11.1-24.7,24.7-24.7H102
			c-13.6,0-24.7,11.1-24.7,24.7V44C77.3,51.2,83.1,57,90.3,57z"/>
		<path id="XMLID_6056_" class="st21" d="M118.5,39.6c0-3.5-2.8-6.3-6.3-6.3s-6.3,2.8-6.3,6.3s2.8,6.3,6.3,6.3
			c1.1,0,2.2-0.3,3.1-0.8"/>
		<path id="XMLID_6055_" class="st27" d="M112.2,37c-1.4,0-2.6,1.1-2.6,2.6"/>
		<path id="XMLID_6054_" class="st40" d="M86.7,77.7c-9,0-16.3,7.3-16.3,16.3v102.5H58.9V93.9c0-9,7.3-16.3,16.3-16.3H86.7z"/>
		<path id="XMLID_6053_" class="st17" d="M147.8,154.9l17.2,6.5c1.4,0.5,2.2,2.2,1.6,3.6c-0.5,1.4-2.2,2.2-3.6,1.6l-9.6-3.5"/>
		<path id="XMLID_6052_" class="st18" d="M130,196.4H58.6V93.9c0-9,7.3-16.3,16.3-16.3h38.9c9,0,16.3,7.3,16.3,16.3L130,196.4z"/>
		<path id="XMLID_6051_" class="st21" d="M190.3-4.4c0.1-0.8,0.6-1.6,1.4-2c1.3-0.8,3-0.3,3.8,1l6.2,10.8c0.8,1.3,0.3,3-1,3.8
			c-1.3,0.8-3,0.3-3.8-1l-6.2-10.8C190.3-3.2,190.2-3.8,190.3-4.4z"/>
		<path id="XMLID_6050_" class="st21" d="M197.9,0L197.9,0c2-4.8,7.6-7,12.4-5c4.8,2,6.3,6.1,4.2,10.9L208,26
			c-8.7,27.1-29.2,48.7-55.7,59h0l-7.2-17.5l0,0c21.5-8.1,38.2-25.5,45.5-47.3l4.8-14.5"/>
		<polyline id="XMLID_6049_" class="st9" points="116.7,77.9 145.1,67.6 152.3,85 125.3,94.9 		"/>
		<path id="XMLID_6048_" class="st21" d="M197.7,0.3l7.3-16.9c0.6-1.4,2.3-2.1,3.7-1.5c1.4,0.6,2.1,2.3,1.5,3.7l-5.7,13.6"/>
		<path id="XMLID_6047_" class="st21" d="M204.4-0.7l5.8-13.4c0.6-1.4,2.3-2.1,3.7-1.5c1.4,0.6,2.1,2.3,1.5,3.7l-5.2,12.8"/>
		<path id="XMLID_6046_" class="st21" d="M218.1-5.8"/>
		<path id="XMLID_6045_" class="st21" d="M209.4,13.5"/>
		<path id="XMLID_6044_" class="st21" d="M210,1.4l4.2-9.6c0.6-1.4,2.2-2.1,3.6-1.5c1.4,0.6,2.1,2.2,1.5,3.6L212,13.7"/>
		<line id="XMLID_2525_" class="st16" x1="58.6" y1="187.4" x2="58.6" y2="202.8"/>
		<path id="XMLID_5640_" class="st13" d="M476,310.3L476,310.3c0-6.8,5.5-12.3,12.3-12.3h9.1c4.2,0,7.6-3.4,7.6-7.6l0,0
			c0-4.2-3.4-7.6-7.6-7.6H489h-12.7v-8.3h43.5v29.1c0,0-3.1,4.9-11.5,5.8C499.9,310.3,476,310.3,476,310.3z"/>
		<path id="XMLID_5659_" class="st41" d="M497.4,282.9H489h-12.7v-8.3h43.5v30.5c0,0-3.1,4.4-11.5,5.2h-31h-0.9"/>
	</g>
</g>
</svg>
