<?xml version="1.0" encoding="utf-8"?>
<!-- Generator: Adobe Illustrator 22.1.0, SVG Export Plug-In . SVG Version: 6.00 Build 0)  -->
<svg version="1.1" id="Capa_1" xmlns="http://www.w3.org/2000/svg" xmlns:xlink="http://www.w3.org/1999/xlink" x="0px" y="0px"
	 viewBox="0 0 602 328.2" style="enable-background:new 0 0 602 328.2;" xml:space="preserve">
<style type="text/css">
	.st0{opacity:0.15;}
	.st1{clip-path:url(#SVGID_2_);fill:#B2C7C5;stroke:#56111D;stroke-width:2.0999;stroke-miterlimit:10;}
	.st2{clip-path:url(#SVGID_2_);}
	.st3{fill:#B2C7C5;stroke:#56111D;stroke-width:2.0999;stroke-miterlimit:10;}
	.st4{fill:#E79D41;stroke:#56111D;stroke-width:2.0999;stroke-linecap:round;stroke-miterlimit:10;}
	.st5{fill:#D0DEDD;stroke:#56111D;stroke-width:2.0999;stroke-miterlimit:10;}
	.st6{fill:#B24747;stroke:#56111D;stroke-width:2.0999;stroke-linecap:round;stroke-miterlimit:10;}
	.st7{fill:#FFFFFF;}
	.st8{fill:#C55959;stroke:#56111D;stroke-width:2.0999;stroke-linecap:round;stroke-miterlimit:10;}
	.st9{fill:#FFFFFF;stroke:#56111D;stroke-width:2.0999;stroke-linecap:round;stroke-miterlimit:10;}
	.st10{fill:#B18870;stroke:#56111D;stroke-width:2.0999;stroke-linecap:round;stroke-miterlimit:10;}
	.st11{fill:none;}
	.st12{fill:#F9EBD8;stroke:#56111D;stroke-width:2.0999;stroke-linecap:round;stroke-miterlimit:10;}
	.st13{fill:#F0D1B5;}
	.st14{fill:#F9EBD8;}
	.st15{fill:none;stroke:#56111D;stroke-width:2.0999;stroke-linecap:round;stroke-miterlimit:10;}
	.st16{fill:none;stroke:#323371;stroke-width:2.0999;stroke-linecap:round;stroke-miterlimit:10;}
	.st17{fill:#FBF2E3;stroke:#56111D;stroke-width:2.0999;stroke-linecap:round;stroke-miterlimit:10;}
	.st18{fill:#56111D;stroke:#56111D;stroke-width:2.0999;stroke-linecap:round;stroke-miterlimit:10;}
	.st19{fill:#F0D1B5;stroke:#56111D;stroke-width:2.0999;stroke-linecap:round;stroke-miterlimit:10;}
	.st20{fill:#FFFFFF;stroke:#56111D;stroke-width:2.0999;stroke-miterlimit:10;}
	.st21{fill:#F4EFEC;}
	.st22{fill:#56111D;}
	.st23{opacity:0.13;fill:#56111D;}
	.st24{fill:#F3D477;stroke:#56111D;stroke-width:2.0999;stroke-miterlimit:10;}
	.st25{fill:#DBB593;stroke:#56111D;stroke-width:2.0999;stroke-linecap:round;stroke-miterlimit:10;}
	.st26{fill:#B6C7C5;stroke:#56111D;stroke-width:2.0999;stroke-miterlimit:10;}
	.st27{fill:#F8E9DD;}
	.st28{fill:#F4EFEC;stroke:#56111D;stroke-width:2.0999;stroke-miterlimit:10;}
	.st29{fill:#DBCFCA;stroke:#56111D;stroke-width:2.0999;stroke-miterlimit:10;}
	.st30{fill:#B2C7C5;stroke:#56111D;stroke-width:2.0999;stroke-linecap:round;stroke-miterlimit:10;}
	.st31{fill:#B2C7C5;}
	.st32{fill:#D0DEDD;}
	.st33{fill:#F4EFEC;stroke:#56111D;stroke-width:2.0999;stroke-linecap:round;stroke-linejoin:round;stroke-miterlimit:10;}
	.st34{fill:#FFFFFF;stroke:#56111D;stroke-width:2.0999;stroke-linecap:round;stroke-linejoin:round;stroke-miterlimit:10;}
	
		.st35{opacity:0.13;fill:#F4EFEC;stroke:#56111D;stroke-width:2.0999;stroke-linecap:round;stroke-linejoin:round;stroke-miterlimit:10;}
	.st36{fill:#AA3E3E;stroke:#56111D;stroke-width:2.0999;stroke-linecap:round;stroke-linejoin:round;stroke-miterlimit:10;}
	.st37{opacity:0.15;fill:#56111D;}
	.st38{fill:none;stroke:#D3AC8C;stroke-width:4.1998;stroke-linecap:round;stroke-miterlimit:10;}
	.st39{fill:#A1745E;stroke:#56111D;stroke-width:2.0999;stroke-linecap:round;stroke-miterlimit:10;}
</style>
<g class="st0">
	<defs>
		<rect id="SVGID_1_" y="1.2" class="st0" width="602" height="326.7"/>
	</defs>
	<clipPath id="SVGID_2_">
		<use xlink:href="#SVGID_1_"  style="overflow:visible;"/>
	</clipPath>
	<path id="XMLID_13316_" class="st1" d="M364.6,101.7H318c-12.7,0-23.1-10.4-23.1-23.1s10.4-23.1,23.1-23.1h46.6
		c12.7,0,23.1,10.4,23.1,23.1S377.4,101.7,364.6,101.7z"/>
	<g id="XMLID_4899_" class="st2">
		<path id="XMLID_5002_" class="st3" d="M252.7,313.7V179.5c0-30.6,24.9-55.4,55.4-55.4H369c30.6,0,55.4,24.9,55.4,55.4v136.2
			C409.2,314.8,252.7,333.9,252.7,313.7z"/>
		<rect id="XMLID_5062_" x="329" y="107.9" class="st3" width="13.6" height="19.5"/>
		<path id="XMLID_4897_" class="st4" d="M246.5,315.8V181.6c0-28.6,23.2-51.8,51.8-51.8h60.9c28.6,0,51.8,23.2,51.8,51.8v136.2
			C411.6,321.9,246.5,334,246.5,315.8z"/>
		<path id="XMLID_5060_" class="st4" d="M251.7,315.8V181.6c0-28.6,23.2-51.8,51.8-51.8h60.9c28.6,0,51.8,23.2,51.8,51.8v136.2
			C402.2,311.2,251.7,334,251.7,315.8z"/>
		<path id="XMLID_5057_" class="st5" d="M247.1,313.7V179.5c0-30.6,24.9-55.4,55.4-55.4h60.9c30.6,0,55.4,24.9,55.4,55.4v136.2
			C403.6,314.8,247.1,333.9,247.1,313.7z M302.5,131.3c-26.6,0-48.2,21.6-48.2,48.2v134.2c0,16.2,141.6-1.6,157.3,2V179.5
			c0-26.6-21.6-48.2-48.2-48.2H302.5z"/>
		<path id="XMLID_4896_" class="st6" d="M157.7,300.9c1.5-7.3,8.5-14.7,8.5-23.2s3.2-16.8,3.2-16.8h50.8c0,0,30.3-94.4,30.3-97.9
			c4.6-7.1,11-14.3,19.3-14.1c8.4,0.2,11,4.8,10.9,13.2c0,1.4-0.7,35.1-19.7,68.9c-7.1,12.6,1.7,45.2-6.6,55.6
			C241.5,302.3,207,293.8,157.7,300.9z"/>
		<path id="XMLID_5054_" class="st7" d="M341.3,62.7h3.3c-0.5-0.3-1.1-0.4-1.7-0.4S341.8,62.4,341.3,62.7z"/>
		<path id="XMLID_5053_" class="st7" d="M386.3,66.1h3.3c-0.5-0.3-1.1-0.4-1.7-0.4C387.3,65.7,386.8,65.8,386.3,66.1z"/>
		<path id="XMLID_5052_" class="st4" d="M358.2,107.4h-33.4c-11.2,0-20.3-9.1-20.3-20.3l0,0c0-11.2,9.1-20.3,20.3-20.3h33.4
			c11.2,0,20.3,9.1,20.3,20.3l0,0C378.6,98.3,369.5,107.4,358.2,107.4z"/>
		<path id="XMLID_5050_" class="st7" d="M347.1,53.4c0-0.1-0.1-0.2-0.1-0.4C347,53.2,347.1,53.3,347.1,53.4z"/>
		<path id="XMLID_5047_" class="st5" d="M361.2,110.2h-46.6c-12.7,0-23.1-10.4-23.1-23.1S301.8,64,314.6,64h46.6
			c12.7,0,23.1,10.4,23.1,23.1S373.9,110.2,361.2,110.2z M314.6,71.2c-8.8,0-15.9,7.1-15.9,15.9s7.1,15.9,15.9,15.9h46.6
			c8.8,0,15.9-7.1,15.9-15.9s-7.1-15.9-15.9-15.9H314.6z"/>
		<path id="XMLID_4894_" class="st8" d="M372.6,175.7v145.6H248V175.7c0-18.9,15.3-34.1,34.1-34.1h56.3
			C357.3,141.6,372.6,156.9,372.6,175.7z"/>
		<path id="XMLID_4893_" class="st9" d="M376.8,179.9"/>
		<path id="XMLID_4892_" class="st9" d="M308.1,179.9"/>
		<path id="XMLID_4890_" class="st10" d="M590.9,311.1c-4.1-4.1-9.7-6.6-15.8-6.6H266.2H16.5c-12.4,0-22.4,10-22.4,22.4
			c0,0,46.7,0,96.4,0h175.7h219c49.7,0,112.3,0,112.3,0C597.5,320.7,595,315.1,590.9,311.1z"/>
		<path id="XMLID_4889_" class="st11" d="M108,304.5"/>
		<path id="XMLID_4888_" class="st12" d="M315.7,117.3l2.3,17.3c0.1,0.5,0.1,1.1,0.1,1.6c0.5,10-6.7,18.9-16.9,20.2L291,177.2
			c0,0-13.3-23.2-14.2-29.9l-2.4-18L315.7,117.3z"/>
		<path id="XMLID_4884_" class="st13" d="M315.9,118.9l2.1,15.7c0.1,0.5,0.1,1.1,0.1,1.6c-5.8,4.2-12.8,7.1-20.4,8.1l-7.3,1
			c-4.8,0.6-9.5,0.3-13.9-0.8c-0.1,0-0.1,0-0.2,0l-1.8-13.5l0.2,0L315.9,118.9z"/>
		<path id="XMLID_4883_" class="st14" d="M320.3,54l4.1,31.1v0c3.3,24.7-14.1,47.3-38.8,50.6l-7.3,1c-20.7,2.7-39.6-11.8-42.3-32.4
			l-5.3-40.1l-0.6-4.6c-3.3-24.7,14.1-47.3,38.8-50.6l0,0c24.7-3.3,47.3,14.1,50.6,38.8l1.3,10.1"/>
		
			<rect id="XMLID_4882_" x="232.5" y="69.8" transform="matrix(0.9914 -0.1312 0.1312 0.9914 -7.9515 32.2699)" class="st13" width="17" height="13.4"/>
		<path id="XMLID_4881_" class="st13" d="M282.1,77.8l-11.5,1.5c-3.4,0.4-6.5-1.9-7-5.3l-0.9-7.2l23.4-3.1l1,7.6
			C287.5,74.5,285.2,77.4,282.1,77.8z"/>
		<path id="XMLID_4879_" class="st13" d="M320.3,54l4.1,31.1c0,0,0,0,0,0c3.3,24.7-14.1,47.3-38.8,50.6l-7.3,1
			c-0.5,0.1-1,0.1-1.4,0.2c23.8-4,40.4-26.2,37.2-50.3c0,0,0,0,0,0l-4.1-31.1l0.5,3.8l-1.5-11c-1.7-12.6-13.2-21.5-25.9-19.9
			l10.2-1.3c12.7-1.7,24.3,7.2,26,19.9l1.5,11L320.3,54z"/>
		<path id="XMLID_4878_" class="st15" d="M320.3,53.7l4.1,31.1v0c3.3,24.7-14.1,47.3-38.8,50.6l-7.3,1
			c-20.7,2.7-39.6-11.8-42.3-32.4l-5.3-40.1l-0.6-4.6c-3.3-24.7,14.1-47.3,38.8-50.6h0c24.7-3.3,47.3,14.1,50.6,38.8l1.3,10.1"/>
		<path id="XMLID_4877_" class="st16" d="M222.5,70.8"/>
		<path id="XMLID_4876_" class="st15" d="M259.6,100.2c-3.7,0.5-7.1-2.1-7.6-5.9l-2-15.1"/>
		<path id="XMLID_4875_" class="st17" d="M341.5,85"/>
		<path id="XMLID_4874_" class="st18" d="M283.3,65.1l-17.4,2.3c-1.6,0.2-3.1-0.9-3.3-2.5l0,0c-0.2-1.6,0.9-3.1,2.5-3.3l17.4-2.3
			c1.6-0.2,3.1,0.9,3.3,2.5l0,0C286,63.4,284.9,64.9,283.3,65.1z"/>
		<path id="XMLID_4873_" class="st18" d="M229.3,54.4L229.3,54.4l56.9-7.5c5.8-0.8,11.2,3.3,12,9.1l1.1,7.6
			c1.3,10,10.5,17,20.5,15.7l14.2-1.9L329,40.2c-2.7-20.4-20.6-35-40.8-34c-3.5,0.2-7,0-10.5-0.2l-13.9-0.9l-1.6,4.4l-23-3.9
			l-1.8,5.9l-15.6-3.6C221.8,7.9,206.7,38.3,229.3,54.4z"/>
		<path id="XMLID_4872_" class="st18" d="M245.8,70.1l-11.1,1.5c-1.6,0.2-3.1-0.9-3.3-2.5l0,0c-0.2-1.6,0.9-3.1,2.5-3.3l11.1-1.5
			c1.6-0.2,3.1,0.9,3.3,2.5l0,0C248.5,68.4,247.4,69.9,245.8,70.1z"/>
		<path id="XMLID_4871_" class="st19" d="M313.4,80.2c-0.8-6.2,3.5-11.8,9.7-12.6c6.2-0.8,11.8,3.5,12.6,9.7
			c0.8,6.2-3.5,11.8-9.7,12.6c-2,0.3-4,0-5.7-0.7"/>
		<path id="XMLID_4870_" class="st17" d="M323.9,74.2c2.5-0.3,4.8,1.4,5.1,3.9"/>
		<path id="XMLID_4869_" class="st8" d="M276.2,142.2l-0.5-3.9l-0.3,0c-3.6,0.5-6.2,3.8-5.7,7.4l4.3,32.4l9.4-15.1
			c0,0-4.7-9.1-6.1-13.6C276.6,147.3,276.2,142.2,276.2,142.2z"/>
		<path id="XMLID_4867_" class="st8" d="M316.9,128.9l1.8-0.2c2.2-0.3,4.2,1.2,4.5,3.4l0.4,3.4c0.1,0.7-0.1,1.5-0.5,2.1l-22.9,39
			l-6.6-19c-0.5-3.9,0.9-7.8,3.7-10.4L316.9,128.9z"/>
		<line id="XMLID_4866_" class="st20" x1="291" y1="176.4" x2="291" y2="275.8"/>
		<path id="XMLID_4864_" class="st9" d="M286.2,208.2c0,1.4-1.1,2.5-2.5,2.5c-1.4,0-2.5-1.1-2.5-2.5c0-1.4,1.1-2.5,2.5-2.5
			C285.1,205.7,286.2,206.8,286.2,208.2z"/>
		<path id="XMLID_4863_" class="st9" d="M286.2,222c0,1.4-1.1,2.5-2.5,2.5c-1.4,0-2.5-1.1-2.5-2.5s1.1-2.5,2.5-2.5
			C285.1,219.5,286.2,220.6,286.2,222z"/>
		<path id="XMLID_4848_" class="st9" d="M286.2,235.5c0,1.4-1.1,2.5-2.5,2.5c-1.4,0-2.5-1.1-2.5-2.5c0-1.4,1.1-2.5,2.5-2.5
			C285.1,233,286.2,234.1,286.2,235.5z"/>
		<path id="XMLID_5015_" class="st9" d="M279.2,80.4c0.4,3.1-1.7,5.9-4.8,6.3c-3.1,0.4-5.9-1.7-6.3-4.8c-0.4-3.1,1.7-5.9,4.8-6.3
			C276,75.2,278.8,77.4,279.2,80.4z"/>
		<path id="XMLID_5014_" class="st9" d="M245.2,84.9c0.4,3.1-1.7,5.9-4.8,6.3c-3.1,0.4-5.9-1.7-6.3-4.8c-0.4-3.1,1.7-5.9,4.8-6.3
			C242,79.7,244.8,81.8,245.2,84.9z"/>
		<path id="XMLID_4816_" class="st9" d="M286.2,180.7c0,1.4-1.1,2.5-2.5,2.5c-1.4,0-2.5-1.1-2.5-2.5c0-1.4,1.1-2.5,2.5-2.5
			C285.1,178.2,286.2,179.3,286.2,180.7z"/>
		<path id="XMLID_4811_" class="st9" d="M286.2,194.5c0,1.4-1.1,2.5-2.5,2.5c-1.4,0-2.5-1.1-2.5-2.5c0-1.4,1.1-2.5,2.5-2.5
			C285.1,192,286.2,193.1,286.2,194.5z"/>
		<path id="XMLID_4805_" class="st21" d="M286,255.2c0,2.1-1.7,3.8-3.8,3.8s-3.8-1.7-3.8-3.8c0-2.1,1.7-3.8,3.8-3.8
			S286,253.1,286,255.2z"/>
		<path id="XMLID_6043_" class="st22" d="M274.5,82.7c0.2,1.4-0.8,2.7-2.2,2.9c-1.4,0.2-2.7-0.8-2.9-2.2c-0.2-1.4,0.8-2.7,2.2-2.9
			C273,80.3,274.3,81.3,274.5,82.7z"/>
		<path id="XMLID_4802_" class="st22" d="M240.2,87.2c0.2,1.4-0.8,2.7-2.2,2.9c-1.4,0.2-2.7-0.8-2.9-2.2c-0.2-1.4,0.8-2.7,2.2-2.9
			C238.7,84.7,240.1,85.7,240.2,87.2z"/>
		<path id="XMLID_5008_" class="st8" d="M371,165.6l36.7,110.8c3.5,12.3-7.6,27.8-23.4,27.8h-64.7c-1.5-8.3-8-6.2-8.4-14.2
			c-0.4-8.5,6.4-15.6,14.9-15.6h49l-29-87.3"/>
		<path id="XMLID_5007_" class="st19" d="M254.5,272.7l-14.6,4.1c-2.5,0.7-5-0.3-6.4-2.4c-0.3-0.5-0.5-1-0.7-1.6
			c-0.9-3,0.9-6.2,4-7.1l20.6-5.8"/>
		<path id="XMLID_5006_" class="st19" d="M291.6,285.6l-20.2-4c-2.6-0.4-4.5-2.4-4.8-4.8c-0.1-0.6-0.1-1.1,0-1.7
			c0.5-3.1,3.4-5.3,6.5-4.8l21.2,3.1"/>
		<path id="XMLID_5003_" class="st19" d="M301.7,289.5l14,2.6l3.3-17.5c0.2-0.6,0.4-1.3,0.4-2l0.4-2.2l0.1,0l-23.5-20.8
			c-2.5-2.2-5.9-3.2-9.3-2.7l-19.3,3.1c-2.7,0.4-5.2,1.8-6.9,3.9l-13.6,16.3c-2,2.4-1.9,6.2,0.5,8.2c0.5,0.4,1,0.7,1.5,0.9
			c1.7,0.7,3.6,0.6,5.1-0.4c0.7,1.1,1.8,1.8,3.2,2.1l9.5,2l11.9-13.6l2.4,4.3 M281.5,273.8l1.2,2c4.1,7.1,11.1,12.1,19.1,13.6"/>
		<path id="XMLID_10345_" class="st19" d="M288.4,246.7"/>
		<path id="XMLID_10344_" class="st19" d="M267.4,254.4c1.8-2.1,4.4-5.1,7.1-5.5"/>
		<path id="XMLID_5001_" class="st19" d="M272.2,266.5l-9.7,11.7c-1.7,2-4.4,2.6-6.6,1.6c-0.5-0.2-1-0.5-1.5-0.9
			c-2.4-2-2.8-5.6-0.7-8.1l13.7-16.5"/>
		<g id="XMLID_4999_">
			<path id="XMLID_5000_" class="st19" d="M287.8,266.7l-1.9-1.8c-0.9-0.9-2.4-0.8-3.2,0.2l-12.2,14.6c-1.7,2-4.4,2.6-6.6,1.6
				c-0.7-0.3-1.4-0.8-2-1.4c-2-2.1-2-5.5-0.1-7.7l13.6-16.3c1.8-2.1,4.2-3.5,6.9-3.9l8.5-1.2"/>
		</g>
		<g id="XMLID_4996_">
			<line id="XMLID_4998_" class="st19" x1="111.8" y1="269.7" x2="111.2" y2="286.3"/>
			<path id="XMLID_4997_" class="st19" d="M110,291.9c-2.7-0.6-4.6-3-4.5-5.8l0.6-16.6c0.1-3.2,2.8-5.6,6-5.5c3.2,0.1,5.6,2.8,5.5,6
				l-0.6,16.6c-0.1,3.2-2.8,5.6-6,5.5C110.6,292,110.3,292,110,291.9z"/>
		</g>
		<path id="XMLID_4995_" class="st23" d="M110,291.9c-2.7-0.6-4.6-3-4.5-5.8l0.6-16.6c0.1-3.2,2.8-5.6,6-5.5c3.2,0.1,5.6,2.8,5.5,6
			l-0.6,16.6c-0.1,3.2-2.8,5.6-6,5.5C110.6,292,110.3,292,110,291.9z"/>
		<g id="XMLID_4992_">
			<line id="XMLID_4994_" class="st19" x1="113.3" y1="267.3" x2="119.3" y2="284.7"/>
			<path id="XMLID_4993_" class="st19" d="M118.1,290.3c-1.9-0.4-3.6-1.8-4.2-3.8l-5.9-17.4c-1-3,0.6-6.3,3.6-7.3
				c3-1,6.3,0.6,7.3,3.6l5.9,17.4c1,3-0.6,6.3-3.6,7.3C120.1,290.5,119.1,290.5,118.1,290.3z"/>
		</g>
		<path id="XMLID_4991_" class="st24" d="M144.1,252.2c-1.1,0.9-3,0.4-4.2-1.1c-1.2-1.5-1.3-3.5-0.2-4.4c1.1-0.9,3-0.4,4.2,1.1
			C145.2,249.3,145.2,251.3,144.1,252.2z"/>
		<line id="XMLID_4990_" class="st19" x1="112.3" y1="274.9" x2="127.4" y2="282.9"/>
		<path id="XMLID_4989_" class="st23" d="M118.1,290.3c-1.9-0.4-3.6-1.8-4.2-3.8l-5.9-17.4c-1-3,0.6-6.3,3.6-7.3
			c3-1,6.3,0.6,7.3,3.6l5.9,17.4c1,3-0.6,6.3-3.6,7.3C120.1,290.5,119.1,290.5,118.1,290.3z"/>
		<path id="XMLID_4988_" class="st19" d="M126.5,287.3c-0.5-0.1-1-0.3-1.5-0.5l-15.1-7.9c-2.8-1.5-3.9-4.9-2.4-7.7
			c1.5-2.8,4.9-3.9,7.7-2.4l15.1,7.9c2.8,1.5,3.9,4.9,2.4,7.7C131.6,286.7,129,287.8,126.5,287.3z"/>
		<path id="XMLID_4987_" class="st23" d="M126.5,287.3c-0.5-0.1-1-0.3-1.5-0.5l-15.1-7.9c-2.8-1.5-3.9-4.9-2.4-7.7
			c1.5-2.8,4.9-3.9,7.7-2.4l15.1,7.9c2.8,1.5,3.9,4.9,2.4,7.7C131.6,286.7,129,287.8,126.5,287.3z"/>
		<path id="XMLID_4986_" class="st25" d="M106.6,262.7c-0.2,0.3,5.3,13.5,5.3,13.5l22.5,0.3c0,0,4.2-11.3,3.9-11.6
			c-0.3-0.3-10.1-11.5-10.6-11.8C127.4,252.9,106.6,262.7,106.6,262.7z"/>
		<g id="XMLID_4984_">
			<path id="XMLID_4985_" class="st19" d="M96.8,286.4c-0.5-0.1-1.1-0.3-1.6-0.6c-2.8-1.5-3.8-5-2.2-7.8l10.4-18.7
				c1.3-2.4,3.5-4.2,6.1-5.2l18.4-6.6c3.2-1.1,6.7-0.8,9.6,0.9l24.2,14.3c2.7,1.6,3.6,5.1,2,7.9c-1.6,2.7-5.1,3.6-7.9,2l-24.1-14.3
				l-18.3,6.6L103,283.6C101.7,285.8,99.1,286.9,96.8,286.4z"/>
		</g>
		<g id="XMLID_4982_">
			<path id="XMLID_4983_" class="st19" d="M96.7,286.4c-0.5-0.1-1.1-0.3-1.6-0.6c-2.8-1.5-3.8-5-2.2-7.8l10.4-18.7
				c1.3-2.4,3.5-4.2,6.1-5.2l18.4-6.6c3.2-1.1,6.7-0.8,9.6,0.9l24.2,14.3c2.7,1.6,3.6,5.1,2,7.9c-1.6,2.7-5.1,3.6-7.9,2l-24.1-14.3
				l-18.3,6.6l-10.4,18.7C101.7,285.9,99.1,286.9,96.7,286.4z"/>
		</g>
		<polyline id="XMLID_4981_" class="st19" points="167.2,284.1 173.9,269.9 143.5,251.9 131.8,250.5 130.1,266.9 		"/>
		<g id="XMLID_4959_">
			<path id="XMLID_4980_" class="st24" d="M152.9,241.5c-1.2-1.5-3.1-2-4.2-1.1l-3.6,2.8l4.3,5.6l3.7-2.9
				C154.2,245,154.1,243,152.9,241.5z"/>
			<g id="XMLID_4964_">
				<path id="XMLID_4967_" class="st5" d="M90.5,279.6c20.1-14.3,48.6-34.4,52.5-37.6c2-2.2,10.1,6.6,7,8.9
					c-1.5,1.1-3.7,2.8-6.6,4.9c-4.8,3.5-11.5,8.3-19.8,14.3c-14.2,10.2-25.8,18.3-25.9,18.4C96.2,289.5,87.9,281.5,90.5,279.6z"/>
			</g>
			<path id="XMLID_4963_" class="st26" d="M97.2,281.6c-2-2.4-5-3.3-6.8-1.8l-7.2,10.5c0,0,0,0,0,0c-0.1,0.3,0,0.7,0.3,1
				c0.3,0.3,0.7,0.5,1,0.5l13.1-3.1C99.3,287.2,99.1,284,97.2,281.6z"/>
			<path id="XMLID_4962_" class="st5" d="M142.9,242.1c1.8-1.4,4.9-0.6,6.8,1.8c2,2.4,2.1,5.6,0.3,7.1"/>
			<polygon id="XMLID_4961_" class="st23" points="82.7,292.1 91.5,287.9 150.8,245.6 151.4,248.4 150.4,250.8 97.1,288.8 			"/>
			<path id="XMLID_4960_" class="st8" d="M84.4,291.7l-2,0.5c-0.3,0.1-0.5-0.2-0.3-0.5l1-1.5c0.3-0.2,0.8,0.1,1,0.4
				C84.5,290.9,84.6,291.3,84.4,291.7z"/>
		</g>
		<line id="XMLID_4958_" class="st19" x1="105.1" y1="280.7" x2="132.3" y2="276.1"/>
		<path id="XMLID_4957_" class="st19" d="M130.1,265.8c-0.4,2.1-2,3.7-4,4.4l-22,3.8c-3.1,0.5-5.2,3.5-4.7,6.6
			c0.4,2.4,2.2,4.2,4.5,4.6c0.7,0.1,1.4,0.2,2.2,0l17.7-3c2-0.3,4-0.1,5.9,0.7l13,5.7c4.7,2,9.7,3.2,14.8,3.4l7.7,0.3l2.3-11.1"/>
		<path id="XMLID_4956_" class="st27" d="M112.4,279.7L112.4,279.7c0.2,1.9-1.1,3.7-3.1,4l-2.8,0.4c-1.9,0.2-3.7-1.1-4-3.1l0,0
			c-0.2-1.9,1.1-3.7,3.1-4l2.8-0.4C110.4,276.4,112.1,277.8,112.4,279.7z"/>
		<path id="XMLID_4955_" class="st23" d="M166.2,287.8l-1,4.5l-7.7-0.3c-5.1-0.2-10.1-1.4-14.8-3.4l-13-5.7
			c-1.8-0.8-3.9-1.1-5.9-0.7l-17.7,3c-0.7,0.1-1.5,0.1-2.2,0c-2.2-0.5-4.1-2.3-4.5-4.6c-0.3-1.6,0.1-3.1,1-4.3
			c0.5,2.3,2.3,4,4.4,4.4c0.7,0.1,1.4,0.2,2.2,0l17.7-3c2-0.3,4-0.1,5.9,0.7l13,5.7c4.7,2,9.7,3.2,14.8,3.4L166.2,287.8z"/>
		<polygon id="XMLID_4954_" class="st8" points="175,292.4 160.4,292.4 160.5,260.9 175,260.9 		"/>
		<rect id="XMLID_4953_" x="45.1" y="292" class="st9" width="207.5" height="8.5"/>
		<rect id="XMLID_4952_" x="197.8" y="292" class="st28" width="54.7" height="8.5"/>
		<rect id="XMLID_4951_" x="197.8" y="292.2" class="st28" width="54.7" height="8.5"/>
		<path id="XMLID_4950_" class="st29" d="M108.6,300.5H88.9l0,0c0-4.5,3.6-8.1,8.1-8.1h3.4C104.9,292.4,108.6,296,108.6,300.5
			L108.6,300.5z"/>
		
			<rect id="XMLID_4949_" x="312.4" y="267" transform="matrix(0.917 0.3988 -0.3988 0.917 140.1554 -103.9493)" class="st8" width="15" height="35.8"/>
		<path id="XMLID_4948_" class="st6" d="M228.2,304.5H38.9c-1,0-1.8-0.8-1.8-1.8l0,0c0-1,0.8-1.8,1.8-1.8h189.3c1,0,1.8,0.8,1.8,1.8
			l0,0C230.1,303.7,229.3,304.5,228.2,304.5z"/>
		<path id="XMLID_4947_" class="st19" d="M206.4,285.6"/>
		<line id="XMLID_4946_" class="st30" x1="216.9" y1="284.4" x2="231.3" y2="284.4"/>
		<path class="st5" d="M284.5,290.6l-2.5,13.5h-73c-6.9,0-12.7-4.6-14.5-10.9c-0.4-1.3-0.6-2.7-0.6-4.2c0-4.2,1.7-8,4.4-10.7
			c2.7-2.7,6.5-4.4,10.7-4.4H240L284.5,290.6z"/>
		<path class="st31" d="M245,293.2v10.9H209c-6.9,0-12.7-4.6-14.5-10.9H245z"/>
		<path class="st31" d="M207,289c0-8.3,6.8-15.1,15.1-15.1H209c-8.3,0-15.1,6.8-15.1,15.1c0,8.3,6.8,15.1,15.1,15.1h13.1
			C213.8,304.2,207,297.4,207,289z"/>
		<path id="XMLID_4944_" class="st3" d="M312,304.5h-72.9c-8.4,0-15.3-6.8-15.3-15.3v0c0-8.4,6.8-15.3,15.3-15.3h12.1l50,9.7
			c6.3,1.2,10.8,6.7,10.8,13.1V304.5z"/>
		<path id="XMLID_4943_" class="st32" d="M297.6,298h-33.9c-1.2,0-2.1-0.9-2.1-2.1l0,0c0-1.2,0.9-2.1,2.1-2.1h33.9
			c1.2,0,2.1,0.9,2.1,2.1l0,0C299.7,297.1,298.7,298,297.6,298z"/>
		<g id="XMLID_4922_">
			<polygon id="XMLID_4942_" class="st33" points="201.1,279.1 216.6,279.1 206.3,258 190.5,258 			"/>
			<polygon id="XMLID_4941_" class="st34" points="171.2,304.1 186.7,304.1 206.3,258 190.5,258 			"/>
			<polygon id="XMLID_4940_" class="st33" points="171.1,304 186.7,304 176.4,282.8 160.6,282.8 			"/>
			<polygon id="XMLID_4939_" class="st34" points="152.2,304 167.8,304 176.4,282.8 160.6,282.8 			"/>
			<g id="XMLID_4927_">
				<line id="XMLID_4938_" class="st35" x1="192" y1="263.1" x2="199.3" y2="263.1"/>
				<line id="XMLID_4937_" class="st35" x1="190.2" y1="267.5" x2="197.5" y2="267.5"/>
				<line id="XMLID_4936_" class="st35" x1="188.7" y1="271.7" x2="195.9" y2="271.7"/>
				<line id="XMLID_4935_" class="st35" x1="186.9" y1="276.2" x2="194.2" y2="276.2"/>
				<line id="XMLID_4934_" class="st35" x1="185.2" y1="280.7" x2="192.4" y2="280.7"/>
				<line id="XMLID_4933_" class="st35" x1="183.6" y1="284.9" x2="190.9" y2="284.9"/>
				<line id="XMLID_4932_" class="st35" x1="181.8" y1="289.3" x2="189.1" y2="289.3"/>
			</g>
			<g id="XMLID_4923_">
				<line id="XMLID_4926_" class="st35" x1="162.3" y1="289" x2="169.6" y2="289"/>
				<line id="XMLID_4925_" class="st35" x1="160.7" y1="293.2" x2="168" y2="293.2"/>
				<line id="XMLID_4924_" class="st35" x1="159" y1="297.7" x2="166.3" y2="297.7"/>
			</g>
		</g>
		<polygon id="XMLID_4921_" class="st36" points="293.3,155.1 291,175.9 297.5,168.9 		"/>
		<polygon id="XMLID_4920_" class="st37" points="347.8,192 372.6,265.8 372.6,274.4 347.8,274.4 		"/>
		<path id="XMLID_4919_" class="st37" d="M319.6,304.3l3.8-10.5h59.4c8.1,0,15.2-5.2,17.7-12.9l4.3-13.4c0,0,9.4,16.6-2.4,28.4
			c-11.8,11.8-20.2,8.6-20.2,8.6L319.6,304.3z"/>
		<path id="XMLID_4912_" class="st9" d="M264.9,121.3L264.9,121.3c-5.1,0.7-9.8-2.9-10.5-8l0,0l18.5-2.4l0,0
			C273.6,116,270,120.7,264.9,121.3z"/>
		<line id="XMLID_4911_" class="st3" x1="-24.3" y1="326.9" x2="622.5" y2="326.9"/>
		<line id="XMLID_4910_" class="st38" x1="45.1" y1="314.3" x2="260.3" y2="314.3"/>
		<line id="XMLID_4909_" class="st38" x1="13.7" y1="314.3" x2="27.8" y2="314.3"/>
		<path id="XMLID_4908_" class="st39" d="M606.3,326.9H448.3v-6.6c0-8.6,7-15.6,15.6-15.6h126.9c8.6,0,15.6,7,15.6,15.6V326.9z"/>
		<line id="XMLID_4900_" class="st3" x1="315.7" y1="117.3" x2="317.5" y2="128.8"/>
	</g>
	<g class="st2">
		<rect id="XMLID_4801_" x="392.5" y="270.5" class="st20" width="134.6" height="25.6"/>
		<rect id="XMLID_4791_" x="437" y="267.2" class="st5" width="119.4" height="28.8"/>
		<circle id="XMLID_4787_" class="st37" cx="541.2" cy="281.6" r="7.4"/>
		<rect id="XMLID_4781_" x="446.8" y="273.3" class="st7" width="74" height="16.7"/>
		<polygon class="st3" points="437.7,273.8 437.7,267.2 389.7,267.2 389.7,273.8 431,273.8 431,289.2 389.7,289.2 389.7,295.8 
			437.7,295.8 437.7,289.2 437.6,289.2 437.6,273.8 		"/>
	</g>
</g>
</svg>
