<?xml version="1.0" encoding="utf-8"?>
<!-- Generator: Adobe Illustrator 22.1.0, SVG Export Plug-In . SVG Version: 6.00 Build 0)  -->
<svg version="1.1" id="Capa_1" xmlns="http://www.w3.org/2000/svg" xmlns:xlink="http://www.w3.org/1999/xlink" x="0px" y="0px"
	 viewBox="0 0 602 328.2" style="enable-background:new 0 0 602 328.2;" xml:space="preserve">
<style type="text/css">
	.st0{opacity:0.15;}
	.st1{clip-path:url(#SVGID_2_);}
	.st2{fill:#E3EDED;}
	.st3{fill:#FFFFFF;}
	.st4{fill:none;stroke:#819999;stroke-width:2.5;stroke-linecap:round;stroke-miterlimit:10;}
	.st5{fill:none;stroke:#819999;stroke-width:2.5;stroke-linecap:round;stroke-linejoin:round;stroke-miterlimit:10;}
	.st6{fill:#819999;}
	.st7{fill:#819999;stroke:#56111D;stroke-width:2;stroke-linecap:round;stroke-miterlimit:10;}
	.st8{fill:#C7DDE0;stroke:#56111D;stroke-width:2;stroke-linecap:round;stroke-miterlimit:10;}
	.st9{fill:#B48471;stroke:#56111D;stroke-width:2;stroke-linecap:round;stroke-miterlimit:10;}
	.st10{opacity:0.11;fill:#571920;}
	.st11{fill:#F3D477;stroke:#56111D;stroke-width:2;stroke-miterlimit:10;}
	.st12{fill:#C78C42;stroke:#56111D;stroke-width:2;stroke-miterlimit:10;}
	.st13{fill:#DBA968;stroke:#3F101A;stroke-width:9;stroke-miterlimit:10;}
	.st14{fill:#99B5B5;stroke:#56111D;stroke-width:2;stroke-linecap:round;stroke-miterlimit:10;}
	.st15{fill:none;stroke:#FFFFFF;stroke-width:6;stroke-linecap:round;stroke-miterlimit:10;}
	.st16{fill:none;stroke:#D7EAEB;stroke-width:7;stroke-linecap:round;stroke-miterlimit:10;}
	.st17{fill:none;stroke:#B9D6D6;stroke-width:7;stroke-linecap:round;stroke-miterlimit:10;}
	.st18{fill:none;stroke:#FFFFFF;stroke-width:7;stroke-linecap:round;stroke-miterlimit:10;}
	.st19{fill:#FFFFFF;stroke:#56111D;stroke-width:2;stroke-miterlimit:10;}
	.st20{fill:#D7EAEB;stroke:#56111D;stroke-width:2;stroke-linecap:round;stroke-miterlimit:10;}
	.st21{fill:#99B5B5;}
	.st22{fill:none;stroke:#56111D;stroke-width:2;stroke-linecap:round;stroke-miterlimit:10;}
	.st23{fill:#9E654F;stroke:#56111D;stroke-width:2;stroke-linecap:round;stroke-miterlimit:10;}
	.st24{fill:none;stroke:#FFFFFF;stroke-width:3;stroke-linecap:round;stroke-miterlimit:10;}
	.st25{opacity:0.18;fill:#571920;}
	.st26{opacity:0.11;}
	.st27{fill:#571920;}
	.st28{fill:none;stroke:#9BB6BE;stroke-width:5;stroke-linecap:round;stroke-miterlimit:10;}
	.st29{fill:#F0D1B5;stroke:#56111D;stroke-width:2;stroke-linecap:round;stroke-miterlimit:10;}
	.st30{fill:#FFFFFF;stroke:#56111D;stroke-width:2;stroke-linecap:round;stroke-miterlimit:10;}
	.st31{fill:#FBF2E3;stroke:#56111D;stroke-width:2;stroke-linecap:round;stroke-miterlimit:10;}
	.st32{fill:#F9EBD8;stroke:#56111D;stroke-width:2;stroke-linecap:round;stroke-miterlimit:10;}
	.st33{fill:#F4EFEC;stroke:#56111D;stroke-width:2;stroke-linecap:round;stroke-miterlimit:10;}
	.st34{fill:#F0D1B5;}
	.st35{fill:#CCA793;stroke:#56111D;stroke-width:2;stroke-miterlimit:10;}
	.st36{fill:#F4EFEC;}
	.st37{fill:#C55959;}
	.st38{fill:#B64444;}
	.st39{fill:#C55959;stroke:#56111D;stroke-width:2;stroke-linecap:round;stroke-miterlimit:10;}
	.st40{fill:#55141F;}
	.st41{fill:#CCA793;stroke:#56111D;stroke-width:2;stroke-linecap:round;stroke-miterlimit:10;}
	.st42{opacity:0.75;fill:#FFFFFF;}
	.st43{fill:none;stroke:#56111D;stroke-width:2;stroke-miterlimit:10;}
	.st44{fill:#FFFFFF;stroke:#56111D;stroke-width:5;stroke-linecap:round;stroke-miterlimit:10;}
	.st45{clip-path:url(#SVGID_2_);fill:none;stroke:#FFFFFF;stroke-width:6;stroke-linecap:round;stroke-miterlimit:10;}
</style>
<g class="st0">
	<defs>
		<rect id="SVGID_1_" y="1.9" class="st0" width="600" height="327.1"/>
	</defs>
	<clipPath id="SVGID_2_">
		<use xlink:href="#SVGID_1_"  style="overflow:visible;"/>
	</clipPath>
	<g class="st1">
		<g id="XMLID_18493_">
			<path id="XMLID_18515_" class="st2" d="M414.2,297.7c0,3.1,0.7,6.1,2,8.8c3.3,6.9,10.3,11.7,18.5,11.7l117.7,0
				c12.5,0,22.6-10.1,22.6-22.6c0-2.4-0.4-4.7-1.1-6.9c-2.9-9.1-11.4-15.7-21.5-15.7c-3,0-5.9,0.6-8.5,1.7c-4.9-6.1-12.4-10-20.8-10
				c-1.6,0-3.1,0.1-4.6,0.4c-1.6-2.8-3.5-5.4-5.8-7.6c-6.4-6.5-15.4-10.5-25.2-10.5c-11.2,0-21.2,5.2-27.7,13.3c-0.4,0-0.8,0-1.2,0
				c-11.7,0-21.8,6.9-26.3,16.9c0,0.1-0.1,0.2-0.1,0.3C422,278.7,414.2,287.3,414.2,297.7z"/>
			<path id="XMLID_18514_" class="st3" d="M414.2,297.7c0,3.1,0.7,6.1,2,8.8c1.6,0.5,3.4,0.8,5.2,0.8c9.4,0,17-7.6,17-17
				c0-5.3-2.4-10-6.1-13.1c0,0.1-0.1,0.2-0.1,0.3C422,278.7,414.2,287.3,414.2,297.7z"/>
			<path id="XMLID_18497_" class="st3" d="M432.1,277.4c0,0,12.7-0.2,17.6,15.6c1.6,5.2,8.2,6.7,11.9,2.8c6.4-6.8,8.4-20.9-1.9-35.5
				c-0.4,0-0.8,0-1.2,0c-11.7,0-21.8,6.9-26.3,16.9C432.2,277.2,432.1,277.3,432.1,277.4z"/>
			<path id="XMLID_18496_" class="st3" d="M459.8,260.3c0,0,20.3,5.9,26.7,30.8c2.1,8.3,11.8,12.1,18.8,7.2
				c8.1-5.6,15.6-20.3,7.5-40.6c0-0.1-0.1-0.1-0.1-0.2c-6.4-6.5-15.4-10.5-25.2-10.5C476.3,247,466.3,252.2,459.8,260.3z"/>
			<path id="XMLID_18495_" class="st3" d="M525.9,295.6c-1.5,9.2,12.6,11.2,17.3,0.2c4.5-10.6,0.7-21.2,0.7-21.2
				c-4.9-6.1-12.4-10-20.8-10c-1.6,0-3.1,0.1-4.6,0.4C518.5,265.1,528.5,280.1,525.9,295.6z"/>
			<path id="XMLID_18494_" class="st3" d="M543.9,274.7c0,0,9.9,7.6,9.9,21.4c0,13.8,20.1,13.1,20.1-7.4
				c-2.9-9.1-11.4-15.7-21.5-15.7C549.4,273,546.5,273.6,543.9,274.7z"/>
		</g>
		<path id="XMLID_18492_" class="st4" d="M432.1,277.4c0-0.1,0.1-0.2,0.1-0.3c4.6-10,14.6-16.9,26.3-16.9c0.4,0,0.8,0,1.2,0
			c6.5-8.1,16.5-13.3,27.7-13.3c9.8,0,18.8,4,25.2,10.5c2.3,2.3,4.2,4.8,5.8,7.6c1.5-0.3,3-0.4,4.6-0.4c8.4,0,15.9,3.9,20.8,10
			c2.6-1.1,5.5-1.7,8.5-1.7c10.1,0,18.6,6.6,21.5,15.7c0.7,2.2,1.1,4.5,1.1,6.9c0,12.5-10.1,22.6-22.6,22.6l-117.7,0
			c-8.1,0-15.2-4.8-18.5-11.7c-1.3-2.7-2-5.6-2-8.8C414.2,287.3,422,278.7,432.1,277.4z"/>
		<g>
			<g id="XMLID_18441_">
				<path id="XMLID_18479_" class="st2" d="M114,37c0,4,0.9,7.8,2.5,11.2c4.2,8.8,13.1,14.9,23.5,14.9l150.2,0
					c15.9,0,28.8-12.9,28.8-28.8c0-3.1-0.5-6-1.4-8.8c-3.7-11.6-14.6-20-27.4-20c-3.9,0-7.5,0.8-10.9,2.1
					c-6.2-7.8-15.8-12.7-26.5-12.7c-2,0-3.9,0.2-5.8,0.5c-2-3.6-4.5-6.8-7.4-9.7c-8.2-8.3-19.6-13.4-32.1-13.4
					c-14.3,0-27,6.6-35.3,16.9c-0.5,0-1,0-1.6,0c-14.9,0-27.7,8.8-33.6,21.6c-0.1,0.1-0.1,0.2-0.2,0.3C124,12.7,114,23.7,114,37z"/>
				<path id="XMLID_18478_" class="st3" d="M114,37c0,4,0.9,7.8,2.5,11.2c2.1,0.7,4.3,1,6.6,1c12,0,21.7-9.7,21.7-21.7
					c0-6.7-3-12.7-7.8-16.7c-0.1,0.1-0.1,0.2-0.2,0.3C124,12.7,114,23.7,114,37z"/>
				<path id="XMLID_18461_" class="st3" d="M136.8,11.1c0,0,16.2-0.3,22.4,19.8c2,6.6,10.5,8.6,15.2,3.5c8.1-8.7,10.7-26.6-2.4-45.2
					c-0.5,0-1,0-1.6,0c-14.9,0-27.7,8.8-33.6,21.6C136.9,10.9,136.9,11,136.8,11.1z"/>
				<path id="XMLID_18460_" class="st3" d="M172.1-10.7c0,0,25.9,7.5,34.1,39.2c2.7,10.5,15,15.4,24,9.2
					c10.4-7.1,19.9-25.9,9.6-51.8c0-0.1-0.1-0.1-0.1-0.2c-8.2-8.3-19.6-13.4-32.1-13.4C193.2-27.7,180.4-21.1,172.1-10.7z"/>
				<path id="XMLID_18443_" class="st3" d="M256.5,34.3c-1.9,11.8,16,14.3,22,0.3c5.8-13.5,0.8-27,0.8-27
					c-6.2-7.8-15.8-12.7-26.5-12.7c-2,0-3.9,0.2-5.8,0.5C247-4.6,259.7,14.6,256.5,34.3z"/>
				<path id="XMLID_18442_" class="st3" d="M279.3,7.6c0,0,12.7,9.6,12.7,27.2c0,17.6,25.6,16.7,25.6-9.4c-3.7-11.6-14.6-20-27.4-20
					C286.4,5.5,282.7,6.3,279.3,7.6z"/>
			</g>
			<path id="XMLID_18440_" class="st4" d="M136.8,11.1c0.1-0.1,0.1-0.2,0.2-0.3c5.8-12.7,18.7-21.6,33.6-21.6c0.5,0,1,0,1.6,0
				c8.3-10.3,21.1-16.9,35.3-16.9c12.6,0,23.9,5.1,32.1,13.4c2.9,2.9,5.4,6.2,7.4,9.7c1.9-0.3,3.8-0.5,5.8-0.5
				c10.7,0,20.3,5,26.5,12.7c3.4-1.4,7-2.1,10.9-2.1c12.8,0,23.7,8.4,27.4,20c0.9,2.8,1.4,5.7,1.4,8.8c0,15.9-12.9,28.8-28.8,28.8
				l-150.2,0c-10.4,0-19.4-6.1-23.5-14.9C114.9,44.8,114,41,114,37C114,23.7,124,12.7,136.8,11.1z"/>
			<g>
				<path id="XMLID_18439_" class="st3" d="M384.6-89.7c-3.5-4.8-9.2-7.9-15.6-7.9c-1.3,0-2.5,0.1-3.7,0.4c0-0.5,0-1,0-1.5
					c0-14.4-7.7-27-19.2-34l0,0c-5.9-3.6-12.9-5.6-20.4-5.6c-18.8,0-34.5,13.1-38.6,30.7l0,0c0,0,0,0.1,0,0.1
					c-1-0.1-1.9-0.2-2.9-0.2c-13.5,0-24.5,10.9-24.5,24.5c0,4.3,1.1,8.4,3.1,11.9l0,0c3.9,7,11.2,11.9,19.7,12.5v0.1H369
					c10.7,0,19.4-8.7,19.4-19.4C388.3-82.6,386.9-86.5,384.6-89.7z"/>
				<g id="XMLID_18395_">
					<g id="XMLID_18397_">
						<path id="XMLID_18436_" class="st2" d="M262.9-71.4c3.9,7,11.2,11.9,19.7,12.5v0.1H369c10.7,0,19.4-8.7,19.4-19.4
							c0-4.3-1.4-8.2-3.7-11.4c-3.5-4.8-9.2-7.9-15.6-7.9c-1.3,0-2.5,0.1-3.7,0.4c0-0.5,0-1,0-1.5c0-14.4-7.7-27-19.2-34
							c6.5,10.4,13.6,26.9,6.4,42c-6.2,13.1-31,24.6-41.9,4.5s-23.4-21.5-23.4-21.5c5.2,4,8.5,10.3,8.5,17.3
							c0,12.1-9.8,21.9-21.9,21.9C269.8-68.6,266.1-69.6,262.9-71.4z"/>
					</g>
				</g>
				<path id="XMLID_18390_" class="st4" d="M384.6-89.7c-3.5-4.8-9.2-7.9-15.6-7.9c-1.3,0-2.5,0.1-3.7,0.4c0-0.5,0-1,0-1.5
					c0-14.4-7.7-27-19.2-34l0,0c-5.9-3.6-12.9-5.6-20.4-5.6c-18.8,0-34.5,13.1-38.6,30.7l0,0c0,0,0,0.1,0,0.1
					c-1-0.1-1.9-0.2-2.9-0.2c-13.5,0-24.5,10.9-24.5,24.5c0,4.3,1.1,8.4,3.1,11.9l0,0c3.9,7,11.2,11.9,19.7,12.5v0.1H369
					c10.7,0,19.4-8.7,19.4-19.4C388.3-82.6,386.9-86.5,384.6-89.7z"/>
			</g>
			<g>
				<path id="XMLID_18389_" class="st3" d="M529.6-45.7c-3-4.1-7.9-6.8-13.3-6.8c-1.1,0-2.1,0.1-3.1,0.3c0-0.4,0-0.9,0-1.3
					c0-12.3-6.6-23.1-16.4-29l0,0c-5.1-3-11-4.8-17.4-4.8c-16,0-29.5,11.2-32.9,26.2l0,0c0,0,0,0,0,0.1c-0.8-0.1-1.6-0.2-2.5-0.2
					c-11.5,0-20.9,9.3-20.9,20.9c0,3.7,1,7.2,2.7,10.2l0,0c3.4,6,9.6,10.2,16.8,10.6v0h73.7c9.1,0,16.5-7.4,16.5-16.5
					C532.8-39.6,531.6-43,529.6-45.7z"/>
				<g id="XMLID_18385_">
					<g id="XMLID_18386_">
						<path id="XMLID_18387_" class="st2" d="M425.7-30.1c3.4,6,9.6,10.2,16.8,10.6v0h73.7c9.1,0,16.5-7.4,16.5-16.5
							c0-3.7-1.2-7-3.2-9.8c-3-4.1-7.9-6.8-13.3-6.8c-1.1,0-2.1,0.1-3.1,0.3c0-0.4,0-0.9,0-1.3c0-12.3-6.6-23.1-16.4-29
							c5.5,8.9,11.6,23,5.4,35.9c-5.3,11.2-26.5,21-35.8,3.9c-9.3-17.1-20-18.4-20-18.4c4.4,3.4,7.2,8.8,7.2,14.8
							c0,10.3-8.4,18.7-18.7,18.7C431.6-27.7,428.5-28.6,425.7-30.1z"/>
					</g>
				</g>
				<path id="XMLID_18384_" class="st4" d="M529.6-45.7c-3-4.1-7.9-6.8-13.3-6.8c-1.1,0-2.1,0.1-3.1,0.3c0-0.4,0-0.9,0-1.3
					c0-12.3-6.6-23.1-16.4-29l0,0c-5.1-3-11-4.8-17.4-4.8c-16,0-29.5,11.2-32.9,26.2l0,0c0,0,0,0,0,0.1c-0.8-0.1-1.6-0.2-2.5-0.2
					c-11.5,0-20.9,9.3-20.9,20.9c0,3.7,1,7.2,2.7,10.2l0,0c3.4,6,9.6,10.2,16.8,10.6v0h73.7c9.1,0,16.5-7.4,16.5-16.5
					C532.8-39.6,531.6-43,529.6-45.7z"/>
			</g>
			<g>
				<path id="XMLID_18383_" class="st3" d="M278.1,283.3c-3.1-4.2-8-6.9-13.6-6.9c-1.1,0-2.2,0.1-3.2,0.3c0-0.4,0-0.9,0-1.3
					c0-12.6-6.7-23.6-16.8-29.6l0,0c-5.2-3.1-11.3-4.9-17.8-4.9c-16.4,0-30.1,11.4-33.6,26.7l0,0c0,0,0,0,0,0.1
					c-0.8-0.1-1.7-0.2-2.5-0.2c-11.8,0-21.3,9.6-21.3,21.3c0,3.8,1,7.3,2.7,10.4l0,0c3.4,6.1,9.8,10.4,17.2,10.9v0.1l75.3,0
					c9.3,0,16.9-7.6,16.9-16.9C281.4,289.6,280.2,286.1,278.1,283.3z"/>
				<g id="XMLID_18376_">
					<g id="XMLID_18377_">
						<path id="XMLID_18382_" class="st2" d="M172,299.3c3.4,6.1,9.8,10.4,17.2,10.9v0.1l75.3,0c9.3,0,16.9-7.6,16.9-16.9
							c0-3.7-1.2-7.2-3.3-10c-3.1-4.2-8-6.9-13.6-6.9c-1.1,0-2.2,0.1-3.2,0.3c0-0.4,0-0.9,0-1.3c0-12.6-6.7-23.6-16.8-29.6
							c5.6,9.1,11.8,23.5,5.6,36.7c-5.4,11.4-27,21.5-36.6,3.9c-9.5-17.5-20.4-18.8-20.4-18.8c4.5,3.5,7.4,8.9,7.4,15.1
							c0,10.5-8.5,19.1-19.1,19.1C178,301.8,174.8,300.9,172,299.3z"/>
					</g>
				</g>
				<path id="XMLID_18375_" class="st5" d="M278.1,283.3c-3.1-4.2-8-6.9-13.6-6.9c-1.1,0-2.2,0.1-3.2,0.3c0-0.4,0-0.9,0-1.3
					c0-12.6-6.7-23.6-16.8-29.6l0,0c-5.2-3.1-11.3-4.9-17.8-4.9c-16.4,0-30.1,11.4-33.6,26.7l0,0c0,0,0,0,0,0.1
					c-0.8-0.1-1.7-0.2-2.5-0.2c-11.8,0-21.3,9.6-21.3,21.3c0,3.8,1,7.3,2.7,10.4l0,0c3.4,6.1,9.8,10.4,17.2,10.9v0.1l75.3,0
					c9.3,0,16.9-7.6,16.9-16.9C281.4,289.6,280.2,286.1,278.1,283.3z"/>
			</g>
			<g>
				<path id="XMLID_18374_" class="st3" d="M563.2,140.8c-3-4.1-7.9-6.8-13.3-6.8c-1.1,0-2.1,0.1-3.1,0.3c0-0.4,0-0.9,0-1.3
					c0-12.3-6.6-23.1-16.4-29l0,0c-5.1-3-11-4.8-17.4-4.8c-16,0-29.5,11.2-32.9,26.2l0,0c0,0,0,0,0,0.1c-0.8-0.1-1.6-0.2-2.5-0.2
					c-11.5,0-20.9,9.3-20.9,20.9c0,3.7,1,7.2,2.7,10.2l0,0c3.4,6,9.6,10.2,16.8,10.6v0h73.3c8.2,0,16-6.7,16.8-14.9
					C566.7,147.9,565.5,144,563.2,140.8z"/>
				<g id="XMLID_18371_">
					<g id="XMLID_18372_">
						<path id="XMLID_18373_" class="st2" d="M459.4,156.4c3.4,6,9.6,10.2,16.8,10.6v0h73.3c8.2,0,16-6.7,16.8-14.9
							c0.4-4.3-0.8-8.3-3.1-11.4c-3-4.1-7.9-6.8-13.3-6.8c-1.1,0-2.1,0.1-3.1,0.3c0-0.4,0-0.9,0-1.3c0-12.3-6.6-23.1-16.4-29
							c5.5,8.9,11.6,23,5.4,35.9c-5.3,11.2-26.5,21-35.8,3.9c-9.3-17.1-20-18.4-20-18.4c4.4,3.4,7.3,8.8,7.2,14.9
							c-0.1,10-8.1,18.3-18.1,18.6C465.6,159,462.2,158.1,459.4,156.4z"/>
					</g>
				</g>
				<path id="XMLID_18370_" class="st4" d="M563.2,140.8c-3-4.1-7.9-6.8-13.3-6.8c-1.1,0-2.1,0.1-3.1,0.3c0-0.4,0-0.9,0-1.3
					c0-12.3-6.6-23.1-16.4-29l0,0c-5.1-3-11-4.8-17.4-4.8c-16,0-29.5,11.2-32.9,26.2l0,0c0,0,0,0,0,0.1c-0.8-0.1-1.6-0.2-2.5-0.2
					c-11.5,0-20.9,9.3-20.9,20.9c0,3.7,1,7.2,2.7,10.2l0,0c3.4,6,9.6,10.2,16.8,10.6v0h73.3c8.2,0,16-6.7,16.8-14.9
					C566.7,147.9,565.5,144,563.2,140.8z"/>
			</g>
			<g>
				<path id="XMLID_18364_" class="st3" d="M206.8,168.3c-3-4.1-7.9-6.8-13.3-6.8c-1.1,0-2.1,0.1-3.1,0.3c0-0.4,0-0.9,0-1.3
					c0-12.3-6.6-23.1-16.4-29l0,0c-5.1-3-11-4.8-17.4-4.8c-16,0-29.5,11.2-32.9,26.2l0,0c0,0,0,0,0,0.1c-0.8-0.1-1.6-0.2-2.5-0.2
					c-11.5,0-20.9,9.3-20.9,20.9c0,3.7,1,7.2,2.7,10.2l0,0c3.4,6,9.6,10.2,16.8,10.6v0h73.3c8.2,0,16-6.7,16.8-14.9
					C210.3,175.4,209.1,171.4,206.8,168.3z"/>
				<g id="XMLID_18360_">
					<g id="XMLID_18362_">
						<path id="XMLID_18363_" class="st2" d="M102.9,183.9c3.4,6,9.6,10.2,16.8,10.6v0l73.3,0c8.2,0,16-6.7,16.8-14.9
							c0.4-4.3-0.8-8.3-3.1-11.4c-3-4.1-7.9-6.8-13.3-6.8c-1.1,0-2.1,0.1-3.1,0.3c0-0.4,0-0.9,0-1.3c0-12.3-6.6-23.1-16.4-29
							c5.5,8.9,11.6,23,5.4,35.9c-5.3,11.2-26.5,21-35.8,3.9s-20-18.4-20-18.4c4.4,3.4,7.3,8.8,7.2,14.9c-0.1,10-8.1,18.3-18.1,18.6
							C109.2,186.4,105.8,185.5,102.9,183.9z"/>
					</g>
				</g>
				<path id="XMLID_18358_" class="st4" d="M206.8,168.3c-3-4.1-7.9-6.8-13.3-6.8c-1.1,0-2.1,0.1-3.1,0.3c0-0.4,0-0.9,0-1.3
					c0-12.3-6.6-23.1-16.4-29l0,0c-5.1-3-11-4.8-17.4-4.8c-16,0-29.5,11.2-32.9,26.2l0,0c0,0,0,0,0,0.1c-0.8-0.1-1.6-0.2-2.5-0.2
					c-11.5,0-20.9,9.3-20.9,20.9c0,3.7,1,7.2,2.7,10.2l0,0c3.4,6,9.6,10.2,16.8,10.6v0l73.3,0c8.2,0,16-6.7,16.8-14.9
					C210.3,175.4,209.1,171.4,206.8,168.3z"/>
			</g>
			<g>
				<g id="XMLID_18357_">
					<g id="XMLID_18529_">
						<g>
							<path class="st6" d="M562.6-50.7c2.9,0,5.6,0.8,7.9,2.3c3.2,2,5.6,5.1,6.6,8.8c0,0,0,0,0,0c1.4-0.8,3-1.2,4.8-1.2
								c3.8,0,7.1,2.1,8.9,5.3c0.8,1.4,1.2,3.1,1.2,4.8c0,5.6-4.5,10.1-10.1,10.1h-19.8v0c-7.8-0.3-14-6.4-14.5-14.1
								c0-0.3,0-0.6,0-0.9C547.6-44,554.3-50.7,562.6-50.7 M562.6-52.5c-9.3,0-16.8,7.5-16.8,16.8c0,0.3,0,0.7,0,1.1
								c0.5,8.1,6.6,14.6,14.5,15.6v0.1l1.8,0h19.8c6.5,0,11.9-5.3,11.9-11.8c0-2-0.5-3.9-1.4-5.7c-2.1-3.8-6.1-6.2-10.4-6.2
								c-1.3,0-2.5,0.2-3.7,0.6c-1.3-3.3-3.7-6.1-6.7-8C568.8-51.6,565.8-52.5,562.6-52.5L562.6-52.5z"/>
						</g>
					</g>
				</g>
				<g id="XMLID_15131_">
					<path id="XMLID_18213_" class="st2" d="M564.1-28.7c3.7-1.3,6.6-4.3,7.8-8c1.5-4.4,0.7-8.6-1.3-11.8c3.2,2,5.6,5.1,6.6,8.8
						c-0.7,1.7-0.7,3.7,0.3,5.8c0.6,1.4,1.8,2.6,3.2,3.2c4.7,2,9.2-0.8,10.1-4.9c1.4,2.6,1.7,5.8,0.3,9.1c-1.5,3.6-5.1,5.8-8.9,5.8
						h-20.1v0c-7.8-0.3-14-6.4-14.5-14.1C550.6-29.4,557.2-26.3,564.1-28.7z"/>
				</g>
			</g>
			<g>
				<g>
					<g>
						<path class="st6" d="M137.9,280.2c8.3,0,15.1,6.7,15.1,15.1c0,0.3,0,0.6,0,0.9c0,0.3,0,0.6-0.1,0.8c-0.9,7.3-7,13-14.4,13.2v0
							h-19.8c-5,0-9.2-3.7-10-8.5c-0.2-1.4-0.1-2.8,0.2-4.1c0.2-0.8,0.5-1.6,0.9-2.3c1.7-3.1,5-5.2,8.9-5.2c1.7,0,3.3,0.4,4.8,1.2v0
							c1-3.7,3.4-6.9,6.6-8.8C132.2,281.1,135,280.2,137.9,280.2 M137.9,278.5c-3.1,0-6.2,0.9-8.9,2.5c-3.1,1.9-5.4,4.7-6.7,8
							c-1.2-0.4-2.4-0.6-3.7-0.6c-4.3,0-8.3,2.4-10.4,6.2c-0.5,0.9-0.8,1.8-1.1,2.7c-0.4,1.5-0.5,3.2-0.2,4.8
							c0.9,5.8,5.8,10,11.7,10h19.8h1.8v-0.2c7.5-1,13.5-7.1,14.4-14.7c0-0.3,0.1-0.7,0.1-1c0-0.4,0-0.7,0-1
							C154.7,286,147.1,278.5,137.9,278.5L137.9,278.5z"/>
					</g>
				</g>
				<g id="XMLID_15130_">
					<path class="st2" d="M152.9,295.3c0,0.3,0,0.6,0,0.9c0,0.3,0,0.6-0.1,0.8c-0.9,7.3-7,13-14.4,13.2v0h-20.1
						c-3.9,0-7.5-2.2-8.9-5.8c-0.4-0.9-0.6-1.8-0.8-2.7c0,0,0,0,0,0c1.7,1.4,3.9,2.2,6.2,2.2c5.5,0,9.9-4.4,9.9-9.9
						c0-1.5-0.3-2.9-0.9-4.2c0.2-0.6,0.5-1.2,0.8-1.7c0,0.3,0,0.5,0,0.8c0,6.7,5.4,12.2,12.2,12.2c6.7,0,12.2-5.4,12.2-12.2
						c0-1.8-0.4-3.4-1.1-4.9C151,286.8,152.9,290.8,152.9,295.3z"/>
				</g>
			</g>
		</g>
		<g id="XMLID_1633_">
			<g id="XMLID_15127_">
				<line id="XMLID_15129_" class="st7" x1="353.6" y1="235.4" x2="281.5" y2="271.4"/>
				<path id="XMLID_15128_" class="st7" d="M281.5,277.5c-2.2,0-4.4-1.2-5.4-3.3c-1.5-3-0.3-6.6,2.7-8.1l72.1-36
					c3-1.5,6.6-0.3,8.1,2.7c1.5,3,0.3,6.6-2.7,8.1l-72.1,36C283.3,277.3,282.4,277.5,281.5,277.5z"/>
			</g>
			<g id="XMLID_15124_">
				<line id="XMLID_15126_" class="st7" x1="357.8" y1="235.4" x2="429.9" y2="273.6"/>
				<path id="XMLID_15125_" class="st7" d="M429.9,279.6c-1,0-1.9-0.2-2.8-0.7L355,240.7c-3-1.6-4.1-5.2-2.5-8.2s5.2-4.1,8.2-2.5
					l72.1,38.2c3,1.6,4.1,5.2,2.5,8.2C434.2,278.4,432.1,279.6,429.9,279.6z"/>
			</g>
			<path id="XMLID_15123_" class="st8" d="M285.2,282.1L285.2,282.1v-26.8l0,0c3.8,0,6.8,3.1,6.8,6.8v13.1
				C292,279.1,288.9,282.1,285.2,282.1z"/>
			<path id="XMLID_15122_" class="st9" d="M279.4,292.1L279.4,292.1c-4.9,0-8.9-4-8.9-8.9v-28.9c0-4.9,4-8.9,8.9-8.9l0,0
				c4.9,0,8.9,4,8.9,8.9v28.9C288.3,288.1,284.3,292.1,279.4,292.1z"/>
			<path id="XMLID_15120_" class="st10" d="M288.3,267.5v15.3c0,4.9-4,8.9-8.9,8.9c-4.9,0-8.9-4-8.9-8.9v-15.3c0,4.9,4,8.9,8.9,8.9
				C284.3,276.4,288.3,272.4,288.3,267.5z"/>
			<path id="XMLID_15119_" class="st8" d="M424.5,282.5L424.5,282.5v-26.8l0,0c-3.8,0-6.8,3.1-6.8,6.8v13.1
				C417.7,279.5,420.8,282.5,424.5,282.5z"/>
			<path id="XMLID_9993_" class="st9" d="M430.3,292L430.3,292c4.9,0,8.9-4,8.9-8.9v-28.9c0-4.9-4-8.9-8.9-8.9l0,0
				c-4.9,0-8.9,4-8.9,8.9v28.9C421.4,288,425.4,292,430.3,292z"/>
			<path id="XMLID_2049_" class="st10" d="M439.3,267.8v15.3c0,4.9-4,8.9-8.9,8.9c-4.9,0-8.9-4-8.9-8.9v-15.3c0,4.9,4,8.9,8.9,8.9
				C435.3,276.7,439.3,272.7,439.3,267.8z"/>
			<path class="st11" d="M596.9,186.5c0,3.3-0.4,6.4-1.2,9.5c0,0,0,0.1,0,0.1c-0.1,0.4-0.2,0.7-0.3,1.1c0,0.1-0.1,0.2-0.1,0.3
				c-0.1,0.3-0.2,0.7-0.3,1c-0.1,0.4-0.3,0.8-0.4,1.2c-0.1,0.3-0.2,0.7-0.4,1c-0.1,0.2-0.1,0.3-0.2,0.5c-0.1,0.2-0.1,0.3-0.2,0.5
				c-0.1,0.2-0.2,0.4-0.2,0.5c-0.1,0.3-0.3,0.6-0.4,0.8c-0.1,0.2-0.2,0.3-0.2,0.5c-0.1,0.3-0.3,0.5-0.4,0.8
				c-0.2,0.4-0.4,0.7-0.6,1.1c0,0,0,0,0,0.1c-0.2,0.3-0.4,0.7-0.6,1c0,0,0,0.1-0.1,0.1c-0.2,0.3-0.4,0.6-0.5,0.8
				c-0.3,0.4-0.5,0.8-0.8,1.1c-0.1,0.1-0.2,0.3-0.3,0.4c-0.1,0.2-0.3,0.4-0.4,0.5c-0.1,0.1-0.1,0.2-0.2,0.3
				c-0.2,0.2-0.3,0.4-0.5,0.6c-0.1,0.1-0.2,0.2-0.3,0.3c-0.2,0.3-0.5,0.6-0.7,0.9c-0.3,0.3-0.5,0.6-0.8,0.9c0,0-0.1,0.1-0.1,0.1
				c-0.3,0.3-0.5,0.6-0.8,0.9c-6.9,6.9-16.5,11.2-27,11.2H153.3c-0.3,0-0.6,0-0.8,0c-0.3,0-0.6,0-0.8,0c-0.2,0-0.4,0-0.7,0
				c-0.1,0-0.2,0-0.4,0c-0.2,0-0.3,0-0.5,0c-0.4,0-0.9-0.1-1.3-0.1c-0.2,0-0.3,0-0.5-0.1c-0.4-0.1-0.8-0.1-1.2-0.2
				c-0.2,0-0.4-0.1-0.6-0.1c0,0-0.1,0-0.1,0c-0.2,0-0.5-0.1-0.7-0.1c-0.2,0-0.4-0.1-0.6-0.1c-0.2,0-0.5-0.1-0.7-0.2
				c-0.3-0.1-0.5-0.1-0.8-0.2c-0.8-0.2-1.6-0.4-2.3-0.7c-0.2-0.1-0.5-0.2-0.7-0.2c-0.2-0.1-0.4-0.1-0.6-0.2c-0.8-0.3-1.6-0.6-2.4-1
				c-0.5-0.2-0.9-0.4-1.3-0.6c-0.5-0.3-1.1-0.6-1.6-0.8c-0.4-0.2-0.8-0.4-1.1-0.7c-0.4-0.3-0.9-0.6-1.3-0.8
				c-0.2-0.1-0.4-0.3-0.6-0.4c-0.2-0.1-0.4-0.3-0.6-0.5c-0.2-0.1-0.4-0.3-0.6-0.5c-0.2-0.2-0.4-0.3-0.6-0.5
				c-0.4-0.3-0.8-0.6-1.1-0.9c-0.3-0.3-0.7-0.6-1-0.8c-0.2-0.2-0.4-0.4-0.7-0.6c-0.2-0.2-0.4-0.4-0.6-0.6c-0.2-0.2-0.5-0.5-0.7-0.7
				c-0.2-0.2-0.4-0.5-0.6-0.7c-1.2-1.3-2.3-2.7-3.3-4.1c-0.1-0.2-0.3-0.4-0.4-0.6c-0.1-0.1-0.2-0.3-0.3-0.5
				c-0.1-0.2-0.2-0.3-0.3-0.5c-0.4-0.6-0.8-1.3-1.1-1.9c-0.1-0.2-0.2-0.4-0.3-0.7c-0.1-0.2-0.2-0.4-0.3-0.6
				c-0.1-0.2-0.2-0.4-0.3-0.6c-0.4-0.9-0.9-1.9-1.2-2.9c-0.1-0.2-0.2-0.5-0.2-0.7c-0.4-1-0.7-2.1-0.9-3.1c-0.8-3-1.2-6.2-1.2-9.5
				c0-6,1.4-11.6,3.8-16.6c1.9-3.9,4.4-7.4,7.4-10.4c6.9-6.9,16.5-11.2,27-11.2h405.3c15.5,0,28.8,9.2,34.8,22.4
				C595.7,175.5,596.9,180.9,596.9,186.5z"/>
			<path id="XMLID_2047_" class="st12" d="M189.5,166.9c0,1.8-2.5,3.3-5.5,3.3c-3,0-5.5-1.5-5.5-3.3s2.5-3.3,5.5-3.3
				C187.1,163.6,189.5,165.1,189.5,166.9z"/>
			<path class="st10" d="M593.5,170.7c-0.1,0.2-0.2,0.3-0.2,0.5c-0.1,0.3-0.3,0.5-0.4,0.8c-0.2,0.4-0.4,0.7-0.6,1.1c0,0,0,0,0,0.1
				c-0.2,0.3-0.4,0.7-0.6,1c0,0,0,0.1-0.1,0.1c-0.2,0.3-0.4,0.6-0.5,0.8c-0.3,0.4-0.5,0.8-0.8,1.1c-0.1,0.1-0.2,0.3-0.3,0.4
				c-0.1,0.2-0.3,0.3-0.4,0.5c-0.1,0.1-0.1,0.2-0.2,0.3c-0.2,0.2-0.3,0.4-0.5,0.6c-0.1,0.1-0.2,0.2-0.3,0.3
				c-0.2,0.3-0.5,0.6-0.7,0.9c-0.3,0.3-0.5,0.6-0.8,0.9c0,0-0.1,0.1-0.1,0.1c-0.3,0.3-0.5,0.6-0.8,0.9c-6.9,6.9-16.5,11.2-27,11.2
				H153.7c-0.3,0-0.6,0-0.8,0c-0.3,0-0.6,0-0.8,0c-0.2,0-0.4,0-0.6,0c-0.1,0-0.2,0-0.4,0c-0.2,0-0.3,0-0.5,0c-0.4,0-0.9-0.1-1.3-0.1
				c-0.2,0-0.3,0-0.5-0.1c-0.4,0-0.8-0.1-1.2-0.2c-0.2,0-0.4-0.1-0.6-0.1c0,0-0.1,0-0.1,0c-0.2,0-0.5-0.1-0.7-0.1
				c-0.2,0-0.4-0.1-0.6-0.1c-0.2,0-0.5-0.1-0.7-0.2c-0.3-0.1-0.5-0.1-0.8-0.2c-0.8-0.2-1.6-0.4-2.3-0.7c-0.2-0.1-0.5-0.2-0.7-0.2
				c-0.2-0.1-0.4-0.1-0.6-0.2c-0.8-0.3-1.6-0.6-2.4-1c-0.4-0.2-0.9-0.4-1.3-0.6c-0.5-0.3-1.1-0.6-1.6-0.8c-0.4-0.2-0.8-0.4-1.1-0.7
				c-0.4-0.3-0.9-0.6-1.3-0.8c-0.2-0.1-0.4-0.3-0.6-0.4c-0.2-0.1-0.4-0.3-0.6-0.5c-0.2-0.1-0.4-0.3-0.6-0.5
				c-0.2-0.2-0.4-0.3-0.6-0.5c-0.4-0.3-0.7-0.6-1.1-0.9c-0.3-0.3-0.7-0.6-1-0.9c-0.2-0.2-0.4-0.4-0.6-0.6c-0.2-0.2-0.4-0.4-0.6-0.6
				c-0.2-0.2-0.5-0.5-0.7-0.7c-0.2-0.2-0.4-0.4-0.6-0.7c-1.2-1.3-2.3-2.7-3.3-4.1c-0.1-0.2-0.3-0.4-0.4-0.6
				c-0.1-0.2-0.2-0.3-0.3-0.5c-0.1-0.2-0.2-0.3-0.3-0.5c-0.4-0.6-0.8-1.3-1.1-1.9c-0.1-0.2-0.2-0.4-0.3-0.7
				c-0.1-0.2-0.2-0.4-0.3-0.6c-0.1-0.2-0.2-0.4-0.3-0.6c-0.1-0.1-0.1-0.2-0.2-0.3c1.9-3.9,4.4-7.4,7.4-10.4
				c6.9-6.9,16.5-11.2,27-11.2h405.3C574.1,148.3,587.4,157.5,593.5,170.7z"/>
			<path id="XMLID_2046_" class="st13" d="M313.8,163.4"/>
			<path id="XMLID_2044_" class="st12" d="M520.1,167.5c0,1.8,2.5,3.3,5.5,3.3c3,0,5.5-1.5,5.5-3.3s-2.5-3.3-5.5-3.3
				C522.6,164.2,520.1,165.7,520.1,167.5z"/>
			<path id="XMLID_2041_" class="st14" d="M455.1,123.8c1.1,0.7,1.1,2.3,0,3l-62.4,40.5l2.6,4l64.8-42.1c1-0.7,2.3-0.7,3.3,0
				l57.1,37.2c0,0-1.2,1.7,0.9,3.1c2.2,1.4,4,1.4,5.4,1.2c0.4,0,1.3-0.3,1.7-0.4c0.2,0,0.3-0.2,0.3-0.4V81.3H524v0.8l-60.6,39.3
				c-1,0.7-2.3,0.7-3.3,0l-67.3-43.8l-2.6,4L455.1,123.8z M468.4,126.8c-1.1-0.7-1.1-2.3,0-3L524,87.7v75.3L468.4,126.8z"/>
			<ellipse id="XMLID_2039_" class="st12" cx="525.6" cy="204.1" rx="5.5" ry="3.3"/>
			<path id="XMLID_2038_" class="st8" d="M524,118v0.8l-33.2,21.5l-27.4,17.8c-1,0.6-2.3,0.6-3.3,0l-27.3-17.8l-39.9-26l-2.6,4
				l33.8,22l31,20.2c1.1,0.7,1.1,2.3,0,3L392.7,204l2.6,4l64.8-42.1c1-0.7,2.3-0.6,3.3,0l57.1,37.2c0,0-1.2,1.7,0.9,3.1
				c2.2,1.4,4,1.4,5.4,1.2c0.4,0,1.3-0.3,1.7-0.4c0.2,0,0.3-0.2,0.3-0.4V118H524z M524,199.8l-55.6-36.2c-1.1-0.7-1.1-2.3,0-3
				l31.2-20.2l24.5-15.9V199.8z"/>
			<path id="XMLID_2034_" class="st10" d="M520.4,203.1c0,0-1.2,1.3,0.9,2.6c2.2,1.4,4,1.4,5.4,1.2c0.4,0,1.3-0.3,1.7-0.4
				c0.2,0,0.3-0.2,0.3-0.4v-2.9c0,0.2-0.1,0.3-0.3,0.4c-0.5,0.1-1.3,0.4-1.7,0.4c-1.4,0.2-3.4,0.4-5.5-1c-2.1-1.4-1.3-0.5-1.3-0.5
				L520.4,203.1z"/>
			<path id="XMLID_2030_" class="st10" d="M460.3,161.9c0,0.8,0.6,1.4,1.4,1.4c0.8,0,1.4-0.6,1.4-1.4c0-0.8-0.6-1.4-1.4-1.4
				C460.9,160.5,460.3,161.1,460.3,161.9z"/>
			<path id="XMLID_2029_" class="st13" d="M186.9,103.3"/>
			<path id="XMLID_2024_" class="st11" d="M258.2,24.3L258.2,24.3c0-3.6,2.9-6.6,6.6-6.6h84.4V42c0,4.2-3.9,7.3-8,6.4l-77.8-17.7
				C260.3,30.1,258.2,27.4,258.2,24.3z"/>
			<path id="XMLID_2022_" class="st11" d="M451.9,24.3L451.9,24.3c0-3.6-2.9-6.6-6.6-6.6h-84.4V42c0,4.2,3.9,7.3,8,6.4l77.8-17.7
				C449.8,30.1,451.9,27.4,451.9,24.3z"/>
			<path id="XMLID_2016_" class="st14" d="M319.4,81l-2.6-4l-67.3,43.8c-1,0.7-2.3,0.7-3.3,0l-60.6-39.3v-0.8H181v88.5
				c0,0.2,0.1,0.3,0.3,0.4c0.5,0.1,1.3,0.4,1.7,0.4c1.4,0.2,3.2,0.2,5.4-1.2c2.1-1.4,0.9-3.1,0.9-3.1l57.1-37.2c1-0.7,2.3-0.7,3.3,0
				l64.8,42.1l2.6-4l-62.4-40.5c-1.1-0.7-1.1-2.3,0-3L319.4,81z M185.7,162.5V87.2l55.6,36.1c1.1,0.7,1.1,2.3,0,3L185.7,162.5z"/>
			<ellipse id="XMLID_2014_" class="st12" cx="184" cy="203.6" rx="5.5" ry="3.3"/>
			<path id="XMLID_2013_" class="st8" d="M254.6,160l30.2-19.6l34.7-22.6l-2.6-4l-40.8,26.5l-26.5,17.3c-1,0.6-2.3,0.6-3.3,0
				l-26.6-17.3l-34-22.1v-0.8H181V206c0,0.2,0.1,0.3,0.3,0.4c0.5,0.1,1.3,0.4,1.7,0.4c1.4,0.2,3.2,0.2,5.4-1.2
				c2.1-1.4,0.9-3.1,0.9-3.1l57.1-37.2c1-0.6,2.3-0.6,3.3,0l64.8,42.1l2.6-4L254.6,163C253.5,162.3,253.5,160.7,254.6,160z
				 M241.3,163l-55.6,36.2v-75.3l25.3,16.4l30.3,19.6C242.4,160.7,242.4,162.3,241.3,163z"/>
			<path id="XMLID_2012_" class="st10" d="M189.3,202.5c0,0,1.2,1.3-0.9,2.6c-2.2,1.4-4,1.4-5.4,1.2c-0.4,0-1.3-0.3-1.7-0.4
				c-0.2,0-0.3-0.2-0.3-0.4v-2.9c0,0.2,0.1,0.3,0.3,0.4c0.5,0.1,1.3,0.4,1.7,0.4c1.4,0.2,3.4,0.4,5.5-1c2.1-1.4,1.3-0.5,1.3-0.5
				L189.3,202.5z"/>
			<path id="XMLID_2011_" class="st8" d="M396.6,263.2h-82.7c1.3-15.9,19.3-28.6,41.3-28.6C377.3,234.6,395.3,247.3,396.6,263.2z"/>
			<path class="st8" d="M396.6,161.1v102.3l-82.8-3.7v-97.1c0-3.4,0-6.8,0.1-10.2c0.8-35,5.5-69.7,14.2-103.5c2-8,4.3-16,6.8-23.9
				C341.3,4.9,369.8,5,376,25.2l0.4,1.2c2.3,7.5,4.4,15,6.3,22.6c8.5,33.8,13.2,68.5,13.9,103.4
				C396.6,155.2,396.6,158.2,396.6,161.1z"/>
			<path class="st15" d="M326.8,159.9c0-2,0-0.7,0.1-4"/>
			<line class="st15" x1="326.8" y1="238" x2="326.8" y2="168"/>
			<path class="st6" d="M396.5,152.3c-10.4-8-25-12.9-41.2-12.9c-16.3,0-31,5-41.4,13c0.8-35,5.5-69.7,14.2-103.5h54.6
				C391.2,82.7,395.9,117.4,396.5,152.3z"/>
			<path id="XMLID_2003_" class="st11" d="M396.8,266.4c0,23.1-18.7,41.8-41.8,41.8c-23.1,0-41.8-18.7-41.8-41.8
				c0-2.5,0.2-5,0.6-7.3v4.2h0.1c1.3-15.9,19.3-28.6,41.3-28.6c22,0,40.1,12.6,41.3,28.6h0.1v-0.5
				C396.7,263.9,396.8,265.2,396.8,266.4z"/>
			<path id="XMLID_2002_" class="st10" d="M397,266.3c0,23.1-18.7,41.8-41.8,41.8c-23.1,0-41.8-18.7-41.8-41.8c0-2,0.1-3.9,0.4-5.8
				c0.1,0.5,0.1,1,0.2,1.5v1.1h0.1c0-0.2,0-0.3,0-0.5c3.7,19.3,20.7,33.8,41,33.8c20.9,0,38.2-15.3,41.3-35.4c0.1,0.7,0.2,1.3,0.3,2
				h0.1v-0.5C397,263.8,397,265.1,397,266.3z"/>
			<path id="XMLID_2001_" class="st16" d="M351.7,268.7"/>
			<path id="XMLID_2000_" class="st17" d="M334.6,307.6c-5.4-4.1-8.7-9.9-8.7-16.2c0-7.2,4.3-13.6,10.9-17.8"/>
			<path id="XMLID_1996_" class="st17" d="M351.7,268.7c1.1-0.1,2.2-0.1,3.3-0.1c16.1,0,29.1,10.2,29.1,22.8c0,12.1-12,22-27.3,22.7
				"/>
			<path id="XMLID_1995_" class="st17" d="M319.6,319.6c-9.3-7.2-15-17.1-15-28.2c0-12.5,7.4-23.7,19-30.9"/>
			<path id="XMLID_1994_" class="st17" d="M393.5,265.9c7.4,6.9,11.9,15.8,11.9,25.5c0,21-20.9,38.2-47.3,39.4"/>
			<path id="XMLID_1993_" class="st18" d="M349.2,252.1c1.9-0.2,3.8-0.3,5.8-0.3c15.4,0,29.2,5.4,38.5,14"/>
			<path id="XMLID_1992_" class="st17" d="M388.1,273.6c4.4,5.1,7,11.2,7,17.8c0,4.8-1.3,9.3-3.8,13.3"/>
			<path id="XMLID_1991_" class="st18" d="M330.5,266.2c6.8-4,15.2-6.4,24.3-6.4c3.7,0,7.2,0.4,10.6,1.1"/>
			<path id="XMLID_1988_" class="st17" d="M314.6,291.4c0-10.3,6.3-19.4,15.9-25.2"/>
			<ellipse id="XMLID_1987_" class="st7" cx="355" cy="285.8" rx="28.7" ry="22.5"/>
			<path id="XMLID_1986_" class="st17" d="M377.7,317.4c-6.5,3.5-14.4,5.6-22.9,5.6c-13,0-24.6-4.9-32-12.4"/>
			<path id="XMLID_1984_" class="st19" d="M360.3,292.2l-8,10.4l-2.7-1.1c-18.3-7.3-34.4-19.3-46.6-34.8l-3.2-4.1
				c-4.4-5.6,1.4-13.4,8.1-10.8l2.2,0.9C330.3,260.8,347.7,274.5,360.3,292.2L360.3,292.2z"/>
			<path id="XMLID_1982_" class="st19" d="M359.7,300.1l-5.6-11.9l2.2-1.9c14.9-12.9,33-21.6,52.3-25.4l5.1-1
				c7-1.4,11.3,7.4,5.9,12.1l-1.8,1.5C401.5,287.9,381.3,297,359.7,300.1L359.7,300.1z"/>
			<path id="XMLID_1980_" class="st19" d="M351.1,293.4l10.2,0.4l0.5,1.8c3.7,12.4,3.4,25.2-0.9,37.4l-1.1,3.2
				c-1.5,4.4-9.1,4.2-10.5-0.3l-0.4-1.5C344.8,320.8,345.6,306.6,351.1,293.4L351.1,293.4z"/>
			<ellipse id="XMLID_1979_" class="st20" cx="355.9" cy="295.4" rx="17.2" ry="13.5"/>
			<ellipse id="XMLID_1978_" class="st20" cx="356" cy="300.9" rx="9.6" ry="7.5"/>
			<path id="XMLID_1948_" class="st11" d="M355,43.1L355,43.1c-3.3,0-5.9-2.6-5.9-5.9V-42c0-3.3,2.6-5.9,5.9-5.9l0,0
				c3.3,0,5.9,2.6,5.9,5.9v79.1C360.9,40.4,358.3,43.1,355,43.1z"/>
			<polygon class="st21" points="219.7,140.3 211,140.3 185.7,123.9 185.7,140.3 181,140.3 181,117.5 185.7,117.5 185.7,118.3 			
				"/>
			<polygon class="st21" points="316.9,113.8 319.4,117.8 284.8,140.3 276.1,140.3 			"/>
			<polygon class="st21" points="392.8,114.4 432.7,140.3 424,140.3 390.2,118.3 			"/>
			<polygon class="st21" points="528.7,118 528.7,140.3 524,140.3 524,124.5 499.5,140.3 490.8,140.3 524,118.8 524,118 			"/>
			<path id="XMLID_2459_" class="st22" d="M332.4,186.5"/>
			<path id="XMLID_2458_" class="st23" d="M359.1,107.8"/>
			<path id="XMLID_2457_" class="st23" d="M352.4,107.8"/>
			<path id="XMLID_1942_" class="st11" d="M570,119.6H141.7c-14.8,0-26.8-12-26.8-26.8V69.9c0-14.8,12-26.8,26.8-26.8H570
				c14.8,0,26.8,12,26.8,26.8v22.9C596.7,107.6,584.7,119.6,570,119.6z"/>
			<line id="XMLID_1936_" class="st24" x1="353.4" y1="-22.1" x2="353.4" y2="-29.2"/>
			<line id="XMLID_1919_" class="st24" x1="353.4" y1="26.8" x2="353.4" y2="-15.2"/>
			<rect id="XMLID_1914_" x="318.1" y="43.2" class="st25" width="1.7" height="76.3"/>
			<rect id="XMLID_1913_" x="390" y="43.2" class="st25" width="1.7" height="76.3"/>
			<circle id="XMLID_1912_" class="st10" cx="248" cy="161.3" r="1.4"/>
			<g id="XMLID_1906_" class="st26">
				<line id="XMLID_1911_" class="st27" x1="356.4" y1="234.6" x2="356.4" y2="197.8"/>
				<rect id="XMLID_1910_" x="355.2" y="197.8" class="st27" width="2.4" height="36.8"/>
			</g>
			<circle id="XMLID_1905_" class="st10" cx="361.1" cy="204.9" r="1.6"/>
			<circle id="XMLID_1904_" class="st10" cx="361.1" cy="212.6" r="1.6"/>
			<path id="XMLID_1903_" class="st10" d="M362.7,219.8c0,0.9-0.7,1.6-1.6,1.6s-1.6-0.7-1.6-1.6c0-0.9,0.7-1.6,1.6-1.6
				S362.7,218.9,362.7,219.8z"/>
			<circle id="XMLID_1902_" class="st10" cx="361.1" cy="227.6" r="1.6"/>
			<circle id="XMLID_1901_" class="st10" cx="182.4" cy="52.4" r="1.6"/>
			<circle id="XMLID_1900_" class="st10" cx="174.7" cy="52.4" r="1.6"/>
			<circle id="XMLID_1899_" class="st10" cx="167.5" cy="52.4" r="1.6"/>
			<circle id="XMLID_1898_" class="st10" cx="159.8" cy="52.4" r="1.6"/>
			<path id="XMLID_1897_" class="st10" d="M562,113.8c-0.9,0-1.6-0.7-1.6-1.6c0-0.9,0.7-1.6,1.6-1.6s1.6,0.7,1.6,1.6
				C563.5,113.1,562.8,113.8,562,113.8z"/>
			<circle id="XMLID_1896_" class="st10" cx="554.2" cy="112.2" r="1.6"/>
			<circle id="XMLID_1895_" class="st10" cx="547" cy="112.2" r="1.6"/>
			<circle id="XMLID_1894_" class="st10" cx="539.3" cy="112.2" r="1.6"/>
			<line id="XMLID_1893_" class="st9" x1="275.4" y1="263.5" x2="275.4" y2="283.6"/>
			<line id="XMLID_1892_" class="st9" x1="434.2" y1="267.7" x2="434.2" y2="285.8"/>
			<line id="XMLID_1891_" class="st28" x1="198.2" y1="23" x2="198.2" y2="3.5"/>
			<line id="XMLID_1812_" class="st28" x1="198.2" y1="-104.8" x2="198.2" y2="-114.6"/>
			<line id="XMLID_1466_" class="st28" x1="515.3" y1="-90.7" x2="515.3" y2="-100.5"/>
			<line id="XMLID_1799_" class="st28" x1="198.2" y1="-19.4" x2="198.2" y2="-75.3"/>
			<line id="XMLID_1798_" class="st28" x1="248" y1="15.5" x2="248" y2="-50.2"/>
			<line id="XMLID_1797_" class="st28" x1="248" y1="-60.8" x2="248" y2="-71.2"/>
			<line id="XMLID_1796_" class="st28" x1="144.5" y1="32.7" x2="144.5" y2="13.3"/>
			<line id="XMLID_1795_" class="st28" x1="144.5" y1="-12.3" x2="144.5" y2="-24"/>
			<path id="XMLID_1794_" class="st28" d="M297.9-38.2"/>
			<path id="XMLID_1793_" class="st28" d="M290.3,15.2"/>
			<line id="XMLID_1792_" class="st28" x1="297.8" y1="-7.7" x2="297.8" y2="-89.4"/>
			<line id="XMLID_1791_" class="st28" x1="478.2" y1="12.9" x2="478.2" y2="-45.3"/>
			<line id="XMLID_1790_" class="st28" x1="515.3" y1="28.6" x2="515.3" y2="-9.5"/>
			<line id="XMLID_1789_" class="st28" x1="515.3" y1="-26.8" x2="515.3" y2="-35.7"/>
			<line id="XMLID_1788_" class="st28" x1="563.5" y1="32.7" x2="563.5" y2="23.3"/>
			<line id="XMLID_1787_" class="st28" x1="563.5" y1="7.4" x2="563.5" y2="-44"/>
			<line id="XMLID_1786_" class="st28" x1="433.4" y1="6" x2="433.4" y2="-2.5"/>
			<line id="XMLID_1785_" class="st28" x1="433.4" y1="-11.7" x2="433.4" y2="-77"/>
			<line id="XMLID_1783_" class="st28" x1="383.6" y1="3.5" x2="383.6" y2="-29.8"/>
			<line id="XMLID_1782_" class="st28" x1="383.6" y1="-42.4" x2="383.6" y2="-48.8"/>
			<line id="XMLID_1781_" class="st28" x1="353.6" y1="-66" x2="353.6" y2="-113.7"/>
			<line id="XMLID_1465_" class="st28" x1="353.6" y1="-138.4" x2="353.6" y2="-150.9"/>
			<g id="XMLID_1634_">
				<path id="XMLID_1780_" class="st7" d="M388.9,189.4c0,4.6-1.8,8.7-4.8,11.7c-1.9,1.9-4.3,3.4-7,4.2c-1.5,0.4-3,0.7-4.7,0.7
					h-31.9c-1.4,0-2.8-0.2-4.1-0.5c-7.1-1.8-12.3-8.3-12.3-16c0-4.6,1.8-8.7,4.8-11.7c3-3,7.1-4.8,11.7-4.8h31.9
					C381.5,172.9,388.9,180.3,388.9,189.4z"/>
				<path id="XMLID_2491_" class="st29" d="M367.2,148.2c0-2,1.6-3.6,3.6-3.6s3.6,1.6,3.6,3.6c0,2-1.6,3.6-3.6,3.6
					c-0.6,0-1.3-0.2-1.8-0.5"/>
				<path id="XMLID_1778_" class="st30" d="M377.1,174.5v30c-1.5,0.9-3,1.4-4.7,1.4h-31.9c-1.4,0-2.8-0.4-4.1-1.1v-30.3
					c0-4.3,3.5-7.8,7.8-7.8h25.1C373.6,166.7,377.1,170.2,377.1,174.5z"/>
				<path id="XMLID_2488_" class="st31" d="M370.8,146.8c0.8,0,1.5,0.7,1.5,1.5"/>
				<path id="XMLID_2487_" class="st29" d="M345.9,148.2c0-2-1.6-3.6-3.6-3.6c-2,0-3.6,1.6-3.6,3.6c0,2,1.6,3.6,3.6,3.6
					c0.6,0,1.3-0.2,1.8-0.5"/>
				<path id="XMLID_2486_" class="st31" d="M342.3,146.8c-0.8,0-1.5,0.7-1.5,1.5"/>
				<path id="XMLID_2485_" class="st32" d="M356.6,173.5L356.6,173.5c-3.7,0-6.8-3-6.8-6.8v-4.3h13.5v4.3
					C363.3,170.5,360.3,173.5,356.6,173.5z"/>
				<path id="XMLID_2484_" class="st33" d="M349.8,166.7h-2.7V166c0-0.7,0.6-1.3,1.3-1.3h1.4V166.7z"/>
				<path id="XMLID_2483_" class="st34" d="M363.3,162.4v4c-1.7,0.8-3.6,1.2-5.6,1.2h-2.4c-2,0-3.9-0.4-5.6-1.2v-4H363.3z"/>
				<path id="XMLID_2482_" class="st22" d="M356.6,173.5L356.6,173.5c-3.7,0-6.8-3-6.8-6.8v-4.3h13.5v4.3
					C363.3,170.5,360.3,173.5,356.6,173.5z"/>
				<path id="XMLID_2481_" class="st32" d="M356.6,164.7L356.6,164.7c-7.9,0-14.3-6.4-14.3-14.3v-10.6c0-7.9,6.4-14.3,14.3-14.3l0,0
					c7.9,0,14.3,6.4,14.3,14.3v10.6C370.8,158.3,364.4,164.7,356.6,164.7z"/>
				<path id="XMLID_2480_" class="st34" d="M370.7,147.5v2.9c0,7.9-6.4,14.3-14.3,14.3c-7.9,0-14.3-6.4-14.3-14.3v-2.9
					c0,7.9,6.4,14.3,14.3,14.3C364.3,161.8,370.7,155.4,370.7,147.5z"/>
				<path id="XMLID_2479_" class="st22" d="M356.6,164.7L356.6,164.7c-7.9,0-14.3-6.4-14.3-14.3v-10.6c0-7.9,6.4-14.3,14.3-14.3l0,0
					c7.9,0,14.3,6.4,14.3,14.3v10.6C370.8,158.3,364.4,164.7,356.6,164.7z"/>
				<path id="XMLID_2478_" class="st34" d="M365,145.3h-2.9c-1.3,0-2.4-1.1-2.4-2.4v-1h7.5v1.1C367.3,144.2,366.3,145.3,365,145.3z"
					/>
				<path id="XMLID_2477_" class="st22" d="M358.2,152.7c-1.2,0-2.2-1-2.2-2.2v-4.9"/>
				<path id="XMLID_2476_" class="st35" d="M366.4,142.2h-5.6c-0.5,0-0.9-0.4-0.9-0.9l0,0c0-0.5,0.4-0.9,0.9-0.9h5.6
					c0.5,0,0.9,0.4,0.9,0.9l0,0C367.3,141.8,366.9,142.2,366.4,142.2z"/>
				<path id="XMLID_2475_" class="st34" d="M351.3,145.2h-2.9c-1.3,0-2.3-1-2.3-2.3v-1h7.5v1C353.6,144.2,352.5,145.2,351.3,145.2z"
					/>
				<path id="XMLID_2474_" class="st35" d="M352.6,142.2H347c-0.5,0-0.9-0.4-0.9-0.9l0,0c0-0.5,0.4-0.9,0.9-0.9h5.6
					c0.5,0,0.9,0.4,0.9,0.9l0,0C353.6,141.8,353.2,142.2,352.6,142.2z"/>
				<path id="XMLID_2473_" class="st30" d="M356.7,160.3L356.7,160.3c-2.2,0-3.9-1.7-3.9-3.9v-0.6h7.8v0.6
					C360.6,158.5,358.9,160.3,356.7,160.3z"/>
				<polygon id="XMLID_2472_" class="st36" points="347.1,167.4 349.4,178.3 354.4,175.5 				"/>
				<polygon id="XMLID_2471_" class="st36" points="366,167.1 363.6,177.8 358.7,175.2 				"/>
				<path id="XMLID_2470_" class="st37" d="M357.9,179.1h-2.3c-1.1,0-1.9-0.9-1.9-1.9v-1.6c0-1.1,0.9-1.9,1.9-1.9h2.3
					c1.1,0,1.9,0.9,1.9,1.9v1.6C359.8,178.2,359,179.1,357.9,179.1z"/>
				<path id="XMLID_2469_" class="st38" d="M353.9,176.9c0.1-0.1,2.6-1.5,2.6-1.5l3,1.4l0.3-1.6l-3.3-1.5l-2.9,1.5v1.9L353.9,176.9z
					"/>
				<path id="XMLID_2468_" class="st22" d="M357.9,179.1h-2.3c-1.1,0-1.9-0.9-1.9-1.9v-1.6c0-1.1,0.9-1.9,1.9-1.9h2.3
					c1.1,0,1.9,0.9,1.9,1.9v1.6C359.8,178.2,359,179.1,357.9,179.1z"/>
				<polyline id="XMLID_2467_" class="st30" points="347.3,164.9 356.7,173.6 350.3,176.8 347.1,166.7 347.1,165.2 				"/>
				<path id="XMLID_2466_" class="st33" d="M363.3,166.7h2.7V166c0-0.7-0.6-1.3-1.3-1.3h-1.4V166.7z"/>
				<polyline id="XMLID_2465_" class="st30" points="365.8,164.9 356.4,173.6 362.6,176.3 366,166.7 366,165.2 				"/>
				<polygon id="XMLID_1749_" class="st39" points="361.1,205.9 352.1,205.9 353.9,187.1 354.7,178.9 358.7,178.9 359.5,187.1 				
					"/>
				<line id="XMLID_2463_" class="st30" x1="377.1" y1="187.9" x2="377.1" y2="192.5"/>
				<line id="XMLID_18_" class="st30" x1="336.8" y1="187.9" x2="336.8" y2="192.5"/>
				<path id="XMLID_2215_" class="st30" d="M365.2,147.3h-3.4c-0.7,0-1.4-0.6-1.4-1.4l0,0c0-0.7,0.6-1.4,1.4-1.4h3.4
					c0.7,0,1.4,0.6,1.4,1.4l0,0C366.6,146.7,366,147.3,365.2,147.3z"/>
				<path id="XMLID_2214_" class="st40" d="M364.7,145.6c0,0.6-0.5,1-1,1c-0.6,0-1-0.5-1-1c0-0.6,0.5-1,1-1
					C364.2,144.6,364.7,145,364.7,145.6z"/>
				<path id="XMLID_2213_" class="st30" d="M351.5,147.3h-3.4c-0.7,0-1.4-0.6-1.4-1.4l0,0c0-0.7,0.6-1.4,1.4-1.4h3.4
					c0.7,0,1.4,0.6,1.4,1.4l0,0C352.9,146.7,352.3,147.3,351.5,147.3z"/>
				<path id="XMLID_2212_" class="st40" d="M351,145.6c0,0.6-0.5,1-1,1c-0.6,0-1-0.5-1-1c0-0.6,0.5-1,1-1
					C350.5,144.6,351,145,351,145.6z"/>
				<path id="XMLID_1730_" class="st35" d="M342.1,153.2L342.1,153.2c-2.9,0-5.2-2.3-5.2-5.2v-3.5c0-2.9,2.3-5.2,5.2-5.2l0,0V153.2z
					"/>
				<path id="XMLID_1729_" class="st41" d="M342.1,151.8v11.3c0,0.8-0.6,1.4-1.4,1.4l0,0c-0.8,0-1.4-0.6-1.4-1.4v-11.3"/>
				<path id="XMLID_1728_" class="st35" d="M370.8,153.2L370.8,153.2c2.9,0,5.2-2.3,5.2-5.2v-3.5c0-2.9-2.3-5.2-5.2-5.2l0,0V153.2z"
					/>
				<path id="XMLID_1727_" class="st41" d="M370.8,151.8v11.3c0,0.8,0.6,1.4,1.4,1.4l0,0c0.8,0,1.4-0.6,1.4-1.4v-11.3"/>
				<path id="XMLID_1724_" class="st41" d="M339.3,141.3v-2.8c0-9.5,7.7-17.1,17.1-17.1l0,0c9.5,0,17.1,7.7,17.1,17.1v2.8"/>
				<path id="XMLID_1723_" class="st42" d="M366.4,150.6h-2.8c-2.4,0-4.7-1.1-6.3-2.9l-0.8-1l-1.8,1.9c-1.2,1.3-2.8,2-4.5,2h-3.8
					c-2.8,0-5-2.2-5-5l0,0c0-2.8,2.2-5,5-5h20c2.8,0,5,2.2,5,5l0,0C371.4,148.4,369.2,150.6,366.4,150.6z"/>
				<path id="XMLID_1721_" class="st43" d="M366.4,150.6h-2.8c-2.4,0-4.7-1.1-6.3-2.9l-0.8-1l-1.8,1.9c-1.2,1.3-2.8,2-4.5,2h-3.8
					c-2.8,0-5-2.2-5-5l0,0c0-2.8,2.2-5,5-5h20c2.8,0,5,2.2,5,5l0,0C371.4,148.4,369.2,150.6,366.4,150.6z"/>
				<path id="XMLID_1720_" class="st35" d="M342.1,140.6"/>
				<path id="XMLID_1719_" class="st35" d="M370.7,140.6"/>
				<path id="XMLID_1715_" class="st41" d="M356.4,124.1c0,0.4,0,12.8,0,12.8"/>
				<path id="XMLID_1714_" class="st30" d="M368.5,166.7h1.6c5.5,0,9.9,4.4,9.9,9.9v19c0,0.9-0.7,1.6-1.6,1.6h-6.8
					c-1.4,0-2.6-1.2-2.6-2.6v-14.1"/>
				<path id="XMLID_16_" class="st32" d="M369,191l7.8,3.9l0.4,0.2c1.4,0.6,2.9-0.5,2.9-2V191c0-2-2.5-4.2-5.6-4.2l0,0
					C371.5,186.8,369,187.9,369,191z"/>
				<path id="XMLID_15_" class="st29" d="M371.7,192.1v-4.3c0-0.7-0.6-1.3-1.4-1.3c-0.8,0-1.4,0.6-1.4,1.3v5.1v2.7v0.1
					c0,3.2,2.6,5.7,5.7,5.7l0,0l-0.4-10L371.7,192.1z"/>
				<line id="XMLID_1709_" class="st44" x1="373.6" y1="196.4" x2="356.7" y2="204.3"/>
				<path id="XMLID_14_" class="st32" d="M374.5,192.7c-1.1,0-2-0.9-2-2c0-1.1,0.9-2,2-2c1.1,0,2,0.9,2,2
					C376.5,191.8,375.6,192.7,374.5,192.7z"/>
				<path id="XMLID_2_" class="st41" d="M374.7,201.8L374.7,201.8c-1.5,0-2.7-1.2-2.7-2.7v-15.2c0-1.5,1.2-2.7,2.7-2.7l0,0
					c1.5,0,2.7,1.2,2.7,2.7l0,15.2C377.4,200.6,376.2,201.8,374.7,201.8z"/>
				<path id="XMLID_1704_" class="st30" d="M345.4,166.7h-1.6c-5.5,0-9.9,4.4-9.9,9.9v19c0,0.9,0.7,1.6,1.6,1.6h6.8
					c1.4,0,2.6-1.2,2.6-2.6v-14.1"/>
				<path id="XMLID_1569_" class="st29" d="M342.1,192.1v-4.3c0-0.7,0.6-1.3,1.4-1.3c0.8,0,1.4,0.6,1.4,1.3v5.1l0,2.7v0.1
					c0,3.2-2.6,5.7-5.7,5.7l0,0l0.4-10L342.1,192.1z"/>
				<line id="XMLID_1684_" class="st44" x1="340.3" y1="196.4" x2="357.2" y2="204.5"/>
				<path id="XMLID_1464_" class="st32" d="M339.4,192.7c1.1,0,2-0.9,2-2c0-1.1-0.9-2-2-2c-1.1,0-2,0.9-2,2
					C337.4,191.8,338.3,192.7,339.4,192.7z"/>
				<path id="XMLID_292_" class="st41" d="M338.4,201.8h1.6c1,0,1.9-0.8,1.9-1.9v-16.8c0-1-0.8-1.9-1.9-1.9h-1.6
					c-1,0-1.9,0.8-1.9,1.9v16.8C336.5,201,337.4,201.8,338.4,201.8z"/>
				<path id="XMLID_1679_" class="st32" d="M378.4,190.1h-6.6c-0.8,0-1.5-0.7-1.5-1.5l0,0c0-0.8,0.7-1.5,1.5-1.5h6.6"/>
				<path id="XMLID_1670_" class="st32" d="M378.4,193.1h-6.6c-0.8,0-1.5-0.7-1.5-1.5l0,0c0-0.8,0.7-1.5,1.5-1.5h6.6"/>
				<path id="XMLID_1669_" class="st32" d="M378.4,196.2h-6.6c-0.8,0-1.5-0.7-1.5-1.5l0,0c0-0.8,0.7-1.5,1.5-1.5h6.6"/>
				<path id="XMLID_1668_" class="st32" d="M341.3,190.1h-6.6c-0.8,0-1.5-0.7-1.5-1.5l0,0c0-0.8,0.7-1.5,1.5-1.5h6.6
					c0.8,0,1.5,0.7,1.5,1.5l0,0C342.8,189.4,342.1,190.1,341.3,190.1z"/>
				<path id="XMLID_1667_" class="st32" d="M341.3,193.1h-6.6c-0.8,0-1.5-0.7-1.5-1.5l0,0c0-0.8,0.7-1.5,1.5-1.5h6.6
					c0.8,0,1.5,0.7,1.5,1.5l0,0C342.8,192.5,342.1,193.1,341.3,193.1z"/>
				<path id="XMLID_1661_" class="st32" d="M341.8,196.3h-7.5c-0.6,0-1.1-0.5-1.1-1.1v-0.9c0-0.6,0.5-1.1,1.1-1.1h7.5
					c0.6,0,1.1,0.5,1.1,1.1v0.9C342.8,195.8,342.4,196.3,341.8,196.3z"/>
				<path id="XMLID_1660_" class="st32" d="M377.8,187"/>
				<path id="XMLID_1654_" class="st32" d="M375.8,187h2.6c1,0,1.8,0.8,1.8,1.8v5.6c0,1-0.8,1.8-1.8,1.8h-2.6"/>
				<line id="XMLID_1638_" class="st32" x1="375.3" y1="190.1" x2="377.2" y2="190.1"/>
				<line id="XMLID_1636_" class="st32" x1="375.3" y1="193.1" x2="377.2" y2="193.1"/>
			</g>
			<path id="XMLID_1925_" class="st15" d="M138,108.7c4.3,2.4,9.2,3.7,14.5,3.7h151.1"/>
			<path id="XMLID_1922_" class="st15" d="M122.4,82.3L122.4,82.3c0,7.5,2.7,14.3,7.3,19.6"/>
		</g>
	</g>
	<line id="XMLID_295_" class="st45" x1="326.8" y1="153.8" x2="339.7" y2="153.8"/>
</g>
</svg>
