<?xml version="1.0" encoding="utf-8"?>
<!-- Generator: Adobe Illustrator 22.1.0, SVG Export Plug-In . SVG Version: 6.00 Build 0)  -->
<svg version="1.1" xmlns="http://www.w3.org/2000/svg" xmlns:xlink="http://www.w3.org/1999/xlink" x="0px" y="0px"
	 viewBox="0 0 100 100" style="enable-background:new 0 0 100 100;" xml:space="preserve">
<style type="text/css">
	.st0{fill:#FFFFFF;}
</style>
<g id="Capa_2">
</g>
<g id="Capa_1">
	<g>
		<path class="st0" d="M22.9,62.9l-20,20C-1,86.8-1,93.2,2.9,97.1C4.9,99,7.4,100,10,100s5.1-1,7.1-2.9l20-20
			c3.9-3.9,3.9-10.2,0-14.1S26.8,59,22.9,62.9z"/>
		<path class="st0" d="M64.1,50l32.9-32.9c3.9-3.9,3.9-10.2,0-14.1S86.8-1,82.9,2.9L50,35.9L17.1,2.9C13.2-1,6.8-1,2.9,2.9
			s-3.9,10.2,0,14.1l80,80c2,1.9,4.5,2.9,7.1,2.9s5.1-1,7.1-2.9c3.9-3.9,3.9-10.2,0-14.1L64.1,50z"/>
	</g>
</g>
</svg>
