<?xml version="1.0" encoding="utf-8"?>
<!-- Generator: Adobe Illustrator 22.1.0, SVG Export Plug-In . SVG Version: 6.00 Build 0)  -->
<svg version="1.1" id="Capa_1" xmlns="http://www.w3.org/2000/svg" xmlns:xlink="http://www.w3.org/1999/xlink" x="0px" y="0px"
	 viewBox="0 0 250 250" style="enable-background:new 0 0 250 250;" xml:space="preserve">
<style type="text/css">
	.st0{opacity:0.2;}
	.st1{opacity:0.3;fill:#56111D;stroke:#56111D;stroke-width:1.8651;stroke-linecap:round;stroke-miterlimit:10;}
	.st2{fill:#E79D41;stroke:#56111D;stroke-width:2.6955;stroke-linecap:round;stroke-miterlimit:10;}
	.st3{fill:#B2C7C5;stroke:#56111D;stroke-width:2.6955;stroke-miterlimit:10;}
	.st4{fill:#D0DEDD;}
	.st5{fill:none;stroke:#56111D;stroke-width:2.6955;stroke-miterlimit:10;}
	.st6{fill:#D68832;}
	.st7{fill:#D0DEDD;stroke:#56111D;stroke-width:2.6955;stroke-miterlimit:10;}
	.st8{fill:#FFFFFF;}
	.st9{fill:#E8F3F2;stroke:#56111D;stroke-width:2.6955;stroke-miterlimit:10;}
	.st10{fill:#F4EFEC;stroke:#55131E;stroke-width:2.6955;stroke-miterlimit:10;}
	.st11{fill:#FFFFFF;stroke:#56111D;stroke-width:2.6955;stroke-linecap:round;stroke-miterlimit:10;}
	.st12{fill:#E3F3F1;}
	.st13{fill:#C7DBD8;}
	.st14{fill:#C55959;stroke:#56111D;stroke-width:2.6955;stroke-linecap:round;stroke-miterlimit:10;}
	.st15{fill:#571920;}
	.st16{fill:#C55959;}
	.st17{fill:#561920;}
	.st18{opacity:0.32;fill:#561920;}
	.st19{fill:#F0D1B5;stroke:#56111D;stroke-width:2.6955;stroke-linecap:round;stroke-miterlimit:10;}
	.st20{opacity:0.13;fill:#56111D;}
	.st21{fill:#F3D477;stroke:#56111D;stroke-width:2.6955;stroke-miterlimit:10;}
	.st22{fill:#F0D1B5;stroke:#56111D;stroke-width:2.6393;stroke-linecap:round;stroke-miterlimit:10;}
	.st23{fill:#49171F;}
	.st24{fill:#F0D1B5;stroke:#56111D;stroke-width:2.5848;stroke-linecap:round;stroke-miterlimit:10;}
	.st25{fill:#F3D477;stroke:#56111D;stroke-width:2.606;stroke-miterlimit:10;}
	.st26{fill:#F3D477;}
	.st27{fill:#CA9F7A;stroke:#56111D;stroke-width:2.6955;stroke-linecap:round;stroke-miterlimit:10;}
	.st28{fill:#F6F6F6;stroke:#589CE2;stroke-width:4.0432;stroke-linecap:round;stroke-miterlimit:10;}
	.st29{opacity:0.13;}
	.st30{fill:#56111D;}
	.st31{fill:#F0D1B5;}
	.st32{opacity:0.22;fill:#56111D;stroke:#56111D;stroke-width:2.6955;stroke-linecap:round;stroke-miterlimit:10;}
	.st33{fill:#F9ECE2;}
	.st34{fill:none;stroke:#56111D;stroke-width:2.6955;stroke-linecap:round;stroke-miterlimit:10;}
	.st35{fill:#CA9F7A;}
	.st36{fill:#D0DEDD;stroke:#56111D;stroke-width:2.6955;stroke-linecap:round;stroke-miterlimit:10;}
	.st37{fill:#F0D1B5;stroke:#56111D;stroke-width:2.61;stroke-linecap:round;stroke-miterlimit:10;}
	.st38{fill:#F0D1B5;stroke:#56111D;stroke-width:2.5962;stroke-linecap:round;stroke-miterlimit:10;}
	.st39{fill:#F3D477;stroke:#56111D;stroke-width:2.6344;stroke-miterlimit:10;}
</style>
<g id="XMLID_92_" class="st0">
	<g id="XMLID_439_">
		<path id="XMLID_1044_" class="st1" d="M223.3,131.8c-0.3,16.3-4.7,32.7-13.6,47.7c-3.4,5.7-7.3,10.9-11.6,15.7
			c-11.3,12.3-25.3,21.2-40.6,26.4c-5.1,1.7-10.4,3-15.7,3.9c-2.1,0.3-4.2,0.6-6.4,0.8c-5.8,0.6-11.6,0.6-17.3,0.1
			c-1.6-0.1-3.2-0.3-4.7-0.5c-5.3-0.7-10.6-1.9-15.8-3.5c-7-2.2-13.8-5.2-20.4-9.1c-9.2-5.5-17.2-12.3-23.9-20.1
			c-14.3-16.6-22.4-37.4-23.4-58.9c-0.8-18,3.4-36.4,13.2-53.1c0.1-0.2,0.2-0.3,0.3-0.5C56.4,58.5,77,43.6,99.8,37
			c17.1-4.9,35.6-5.1,53.2-0.1c7.8,2.2,15.5,5.5,22.9,9.9c13,7.7,23.5,18,31.3,29.9C218.1,93,223.6,112.3,223.3,131.8z"/>
		<path id="XMLID_1043_" class="st2" d="M223.5,119.3c-0.3,16.3-4.7,32.7-13.6,47.7c-3.4,5.7-7.3,10.9-11.6,15.7
			C187,195,172.9,203.9,157.6,209c-5.1,1.7-10.4,3-15.7,3.9c-2.1,0.3-4.2,0.6-6.4,0.8c-5.8,0.6-11.6,0.6-17.3,0.1
			c-1.6-0.1-3.2-0.3-4.7-0.5c-5.3-0.7-10.6-1.9-15.8-3.5c-7-2.2-13.8-5.2-20.4-9.1c-9.2-5.5-17.2-12.3-23.9-20.1
			C39.1,164.1,31,143.2,30,121.8c-0.8-18,3.4-36.4,13.2-53.1c0.1-0.2,0.2-0.3,0.3-0.5c13.1-22.1,33.6-37,56.5-43.6
			c17.1-4.9,35.6-5.1,53.2-0.1c7.8,2.2,15.5,5.5,22.9,9.9c13,7.7,23.5,18,31.3,29.9C218.2,80.6,223.8,99.8,223.5,119.3z"/>
		<g id="XMLID_1038_">
			<path id="XMLID_1042_" class="st3" d="M134.3,185.1l-3.3,5.5c-0.8,1.3-2.5,1.8-3.9,1l-1.3-0.8c-1.3-0.8-1.8-2.5-1-3.9l3.3-5.5
				c1-1.7,3.2-2.3,4.9-1.2c0.8,0.5,1.4,1.3,1.6,2.2C134.9,183.3,134.8,184.3,134.3,185.1z"/>
			<path id="XMLID_1041_" class="st4" d="M134.3,185.1l-3.3,5.5c-0.8,1.3-2.5,1.8-3.9,1l-0.6-0.4l6.5-11c0.8,0.5,1.4,1.3,1.6,2.2
				C134.9,183.3,134.8,184.3,134.3,185.1z"/>
			<path id="XMLID_1040_" class="st5" d="M134.3,185.1l-3.3,5.5c-0.8,1.3-2.5,1.8-3.9,1l-1.3-0.8c-1.3-0.8-1.8-2.5-1-3.9l3.3-5.5
				c1-1.7,3.2-2.3,4.9-1.2c0.8,0.5,1.4,1.3,1.6,2.2C134.9,183.3,134.8,184.3,134.3,185.1z"/>
			<path id="XMLID_1039_" class="st4" d="M130.3,184.9L130.3,184.9c-0.3-0.2-0.4-0.5-0.2-0.8l1.3-2.2c0.2-0.3,0.5-0.4,0.8-0.2l0,0
				c0.3,0.2,0.4,0.5,0.2,0.8l-1.3,2.2C130.9,185,130.5,185.1,130.3,184.9z"/>
		</g>
		
			<rect id="XMLID_1037_" x="113.6" y="159.7" transform="matrix(0.8597 0.5108 -0.5108 0.8597 108.1259 -36.4244)" class="st6" width="13.4" height="37.8"/>
		<path id="XMLID_1036_" class="st6" d="M145.4,172.7l-19.5-11.6l1.5-2.5l19.5,11.6c0.7,0.4,0.9,1.3,0.5,1.9l0,0
			C147,172.9,146.1,173.1,145.4,172.7z"/>
		<g id="XMLID_1030_">
			<path id="XMLID_1035_" class="st7" d="M109.3,194l-39.6-23.5c-2-1.2-2.6-3.7-1.4-5.6l17.2-29l46.7,27.7l-17.2,29
				C113.8,194.6,111.3,195.2,109.3,194z"/>
			<path id="XMLID_1034_" class="st3" d="M112.5,180.5l-32.2-19.1c-2.1-1.3-2.9-4.1-1.6-6.2l5.1-8.5c1.3-2.1,4.1-2.9,6.2-1.6
				l32.2,19.1c2.1,1.3,2.9,4.1,1.6,6.2l-5.1,8.5C117.5,181.1,114.7,181.8,112.5,180.5z"/>
			<path id="XMLID_1033_" class="st8" d="M93,183.1l-7.6-4.5c-2.3-1.4-3.1-4.3-1.7-6.6l0.8-1.4c1.4-2.3,4.3-3.1,6.6-1.7l7.6,4.5
				c2.3,1.4,3.1,4.3,1.7,6.6l-0.8,1.4C98.3,183.7,95.3,184.5,93,183.1z"/>
			<path id="XMLID_1032_" class="st9" d="M132.1,164.8l-47.7-28.4c-0.6-0.3-0.7-1.1-0.4-1.6l0.3-0.5c0.3-0.6,1.1-0.7,1.6-0.4
				l47.7,28.4c0.6,0.3,0.7,1.1,0.4,1.6l-0.3,0.5C133.4,165,132.7,165.2,132.1,164.8z"/>
			<path id="XMLID_1031_" class="st10" d="M91.2,180.7l-2.5-1.5c-0.2-0.1-0.2-0.3-0.1-0.5l0,0c0.1-0.2,0.3-0.2,0.5-0.1l2.5,1.5
				c0.2,0.1,0.2,0.3,0.1,0.5l0,0C91.6,180.8,91.4,180.8,91.2,180.7z"/>
		</g>
		<g id="XMLID_525_">
			<path id="XMLID_1028_" class="st8" d="M90,148.1l-1.6-1c-0.3-0.2-0.4-0.6-0.2-0.9l0,0c0.2-0.3,0.6-0.4,0.9-0.2l1.6,1
				c0.3,0.2,0.4,0.6,0.2,0.9l0,0C90.7,148.2,90.3,148.3,90,148.1z"/>
			<path id="XMLID_1026_" class="st8" d="M93.4,150.1l-1.6-1c-0.3-0.2-0.4-0.6-0.2-0.9l0,0c0.2-0.3,0.6-0.4,0.9-0.2l1.6,1
				c0.3,0.2,0.4,0.6,0.2,0.9l0,0C94.2,150.2,93.7,150.3,93.4,150.1z"/>
			<path id="XMLID_1009_" class="st8" d="M96.9,152.2l-1.6-1c-0.3-0.2-0.4-0.6-0.2-0.9l0,0c0.2-0.3,0.6-0.4,0.9-0.2l1.6,1
				c0.3,0.2,0.4,0.6,0.2,0.9l0,0C97.6,152.2,97.2,152.4,96.9,152.2z"/>
			<path id="XMLID_1005_" class="st8" d="M100.3,154.2l-1.6-1c-0.3-0.2-0.4-0.6-0.2-0.9l0,0c0.2-0.3,0.6-0.4,0.9-0.2l1.6,1
				c0.3,0.2,0.4,0.6,0.2,0.9l0,0C101,154.3,100.6,154.4,100.3,154.2z"/>
			<path id="XMLID_1001_" class="st8" d="M103.7,156.2l-1.6-1c-0.3-0.2-0.4-0.6-0.2-0.9l0,0c0.2-0.3,0.6-0.4,0.9-0.2l1.6,1
				c0.3,0.2,0.4,0.6,0.2,0.9l0,0C104.5,156.3,104,156.4,103.7,156.2z"/>
			<path id="XMLID_997_" class="st8" d="M107.2,158.3l-1.6-1c-0.3-0.2-0.4-0.6-0.2-0.9l0,0c0.2-0.3,0.6-0.4,0.9-0.2l1.6,1
				c0.3,0.2,0.4,0.6,0.2,0.9l0,0C107.9,158.4,107.5,158.5,107.2,158.3z"/>
			<path id="XMLID_993_" class="st8" d="M110.6,160.3l-1.6-1c-0.3-0.2-0.4-0.6-0.2-0.9l0,0c0.2-0.3,0.6-0.4,0.9-0.2l1.6,1
				c0.3,0.2,0.4,0.6,0.2,0.9l0,0C111.3,160.4,110.9,160.5,110.6,160.3z"/>
			<path id="XMLID_935_" class="st8" d="M114,162.4l-1.6-1c-0.3-0.2-0.4-0.6-0.2-0.9l0,0c0.2-0.3,0.6-0.4,0.9-0.2l1.6,1
				c0.3,0.2,0.4,0.6,0.2,0.9l0,0C114.7,162.4,114.3,162.5,114,162.4z"/>
			<path id="XMLID_931_" class="st8" d="M117.4,164.4l-1.6-1c-0.3-0.2-0.4-0.6-0.2-0.9l0,0c0.2-0.3,0.6-0.4,0.9-0.2l1.6,1
				c0.3,0.2,0.4,0.6,0.2,0.9l0,0C118.2,164.5,117.8,164.6,117.4,164.4z"/>
			<path id="XMLID_927_" class="st8" d="M120.9,166.4l-1.6-1c-0.3-0.2-0.4-0.6-0.2-0.9l0,0c0.2-0.3,0.6-0.4,0.9-0.2l1.6,1
				c0.3,0.2,0.4,0.6,0.2,0.9l0,0C121.6,166.5,121.2,166.6,120.9,166.4z"/>
			<path id="XMLID_922_" class="st8" d="M86.8,150.5l-0.5-0.3c-0.6-0.3-0.8-1.1-0.4-1.7l0.3-0.5c0.3-0.6,1.1-0.8,1.7-0.4l0.5,0.3
				c0.6,0.3,0.8,1.1,0.4,1.7l-0.3,0.5C88.1,150.6,87.4,150.8,86.8,150.5z"/>
			<path id="XMLID_921_" class="st8" d="M90,152.4l-0.5-0.3c-0.6-0.3-0.8-1.1-0.4-1.7l0.3-0.5c0.3-0.6,1.1-0.8,1.7-0.4l0.5,0.3
				c0.6,0.3,0.8,1.1,0.4,1.7l-0.3,0.5C91.4,152.6,90.6,152.8,90,152.4z"/>
			<path id="XMLID_920_" class="st8" d="M93.3,154.3l-0.5-0.3c-0.6-0.3-0.8-1.1-0.4-1.7l0.3-0.5c0.3-0.6,1.1-0.8,1.7-0.4l0.5,0.3
				c0.6,0.3,0.8,1.1,0.4,1.7l-0.3,0.5C94.6,154.5,93.9,154.7,93.3,154.3z"/>
			<path id="XMLID_919_" class="st8" d="M96.5,156.3L96,156c-0.6-0.3-0.8-1.1-0.4-1.7l0.3-0.5c0.3-0.6,1.1-0.8,1.7-0.4l0.5,0.3
				c0.6,0.3,0.8,1.1,0.4,1.7l-0.3,0.5C97.8,156.4,97.1,156.6,96.5,156.3z"/>
			<path id="XMLID_901_" class="st8" d="M99.8,158.2l-0.5-0.3c-0.6-0.3-0.8-1.1-0.4-1.7l0.3-0.5c0.3-0.6,1.1-0.8,1.7-0.4l0.5,0.3
				c0.6,0.3,0.8,1.1,0.4,1.7l-0.3,0.5C101.1,158.3,100.3,158.5,99.8,158.2z"/>
			<path id="XMLID_899_" class="st8" d="M103,160.1l-0.5-0.3c-0.6-0.3-0.8-1.1-0.4-1.7l0.3-0.5c0.3-0.6,1.1-0.8,1.7-0.4l0.5,0.3
				c0.6,0.3,0.8,1.1,0.4,1.7l-0.3,0.5C104.3,160.3,103.6,160.5,103,160.1z"/>
			<path id="XMLID_897_" class="st8" d="M106.3,162.1l-0.5-0.3c-0.6-0.3-0.8-1.1-0.4-1.7l0.3-0.5c0.3-0.6,1.1-0.8,1.7-0.4l0.5,0.3
				c0.6,0.3,0.8,1.1,0.4,1.7l-0.3,0.5C107.6,162.2,106.8,162.4,106.3,162.1z"/>
			<path id="XMLID_895_" class="st8" d="M109.5,164l-0.5-0.3c-0.6-0.3-0.8-1.1-0.4-1.7l0.3-0.5c0.3-0.6,1.1-0.8,1.7-0.4l0.5,0.3
				c0.6,0.3,0.8,1.1,0.4,1.7l-0.3,0.5C110.8,164.1,110.1,164.3,109.5,164z"/>
			<path id="XMLID_886_" class="st8" d="M112.7,165.9l-0.5-0.3c-0.6-0.3-0.8-1.1-0.4-1.7l0.3-0.5c0.3-0.6,1.1-0.8,1.7-0.4l0.5,0.3
				c0.6,0.3,0.8,1.1,0.4,1.7l-0.3,0.5C114.1,166.1,113.3,166.2,112.7,165.9z"/>
			<path id="XMLID_884_" class="st8" d="M115.8,167.7L115.8,167.7c-0.8-0.5-1-1.4-0.6-2.1l0-0.1c0.4-0.7,1.3-0.9,2-0.5l0.1,0
				c0.7,0.4,0.9,1.3,0.5,2l0,0.1C117.4,167.9,116.5,168.1,115.8,167.7z"/>
			<path id="XMLID_805_" class="st8" d="M119,169.6L119,169.6c-0.8-0.5-1-1.4-0.6-2.1l0-0.1c0.4-0.7,1.3-0.9,2-0.5l0.1,0
				c0.7,0.4,0.9,1.3,0.5,2l0,0.1C120.6,169.8,119.7,170.1,119,169.6z"/>
			<path id="XMLID_764_" class="st8" d="M89.4,156.5l-0.5-0.3c-0.6-0.3-0.8-1.1-0.4-1.7l0.3-0.5c0.3-0.6,1.1-0.8,1.7-0.4l0.5,0.3
				c0.6,0.3,0.8,1.1,0.4,1.7L91,156C90.7,156.6,90,156.8,89.4,156.5z"/>
			<path id="XMLID_761_" class="st8" d="M92.6,158.4l-0.5-0.3c-0.6-0.3-0.8-1.1-0.4-1.7l0.3-0.5c0.3-0.6,1.1-0.8,1.7-0.4l0.5,0.3
				c0.6,0.3,0.8,1.1,0.4,1.7l-0.3,0.5C93.9,158.5,93.2,158.7,92.6,158.4z"/>
			<path id="XMLID_657_" class="st8" d="M95.9,160.3l-0.5-0.3c-0.6-0.3-0.8-1.1-0.4-1.7l0.3-0.5c0.3-0.6,1.1-0.8,1.7-0.4l0.5,0.3
				c0.6,0.3,0.8,1.1,0.4,1.7l-0.3,0.5C97.2,160.5,96.4,160.6,95.9,160.3z"/>
			<path id="XMLID_620_" class="st8" d="M99.1,162.2l-0.5-0.3c-0.6-0.3-0.8-1.1-0.4-1.7l0.3-0.5c0.3-0.6,1.1-0.8,1.7-0.4l0.5,0.3
				c0.6,0.3,0.8,1.1,0.4,1.7l-0.3,0.5C100.4,162.4,99.7,162.6,99.1,162.2z"/>
			<path id="XMLID_602_" class="st8" d="M102.1,164L102.1,164c-0.8-0.5-1-1.4-0.6-2.1l0-0.1c0.4-0.7,1.3-0.9,2-0.5l0.1,0
				c0.7,0.4,0.9,1.3,0.5,2l0,0.1C103.7,164.2,102.8,164.5,102.1,164z"/>
			<path id="XMLID_547_" class="st8" d="M105.4,166L105.4,166c-0.8-0.5-1-1.4-0.6-2.1l0-0.1c0.4-0.7,1.3-0.9,2-0.5l0.1,0
				c0.7,0.4,0.9,1.3,0.5,2l0,0.1C107,166.2,106.1,166.4,105.4,166z"/>
			<path id="XMLID_546_" class="st8" d="M108.6,167.9L108.6,167.9c-0.8-0.5-1-1.4-0.6-2.1l0-0.1c0.4-0.7,1.3-0.9,2-0.5l0.1,0
				c0.7,0.4,0.9,1.3,0.5,2l0,0.1C110.2,168.1,109.3,168.3,108.6,167.9z"/>
			<path id="XMLID_545_" class="st8" d="M111.9,169.8L111.9,169.8c-0.8-0.5-1-1.4-0.6-2.1l0-0.1c0.4-0.7,1.3-0.9,2-0.5l0.1,0
				c0.7,0.4,0.9,1.3,0.5,2l0,0.1C113.5,170,112.6,170.2,111.9,169.8z"/>
			<path id="XMLID_544_" class="st8" d="M117,172.9l-2-1.2c-0.7-0.4-0.9-1.3-0.5-2l0-0.1c0.4-0.7,1.3-0.9,2-0.5l2,1.2
				c0.7,0.4,0.9,1.3,0.5,2l0,0.1C118.7,173.1,117.8,173.3,117,172.9z"/>
			<path id="XMLID_543_" class="st8" d="M89.1,160.8L89.1,160.8c-0.8-0.5-1-1.4-0.6-2.1l0-0.1c0.4-0.7,1.3-0.9,2-0.5l0.1,0
				c0.7,0.4,0.9,1.3,0.5,2l0,0.1C90.8,161,89.8,161.2,89.1,160.8z"/>
			<path id="XMLID_542_" class="st8" d="M92.4,162.7L92.4,162.7c-0.8-0.5-1-1.4-0.6-2.1l0-0.1c0.4-0.7,1.3-0.9,2-0.5l0.1,0
				c0.7,0.4,0.9,1.3,0.5,2l0,0.1C94,162.9,93.1,163.1,92.4,162.7z"/>
			<path id="XMLID_541_" class="st8" d="M95.6,164.6L95.6,164.6c-0.8-0.5-1-1.4-0.6-2.1l0-0.1c0.4-0.7,1.3-0.9,2-0.5l0.1,0
				c0.7,0.4,0.9,1.3,0.5,2l0,0.1C97.2,164.8,96.3,165,95.6,164.6z"/>
			<path id="XMLID_540_" class="st8" d="M98.9,166.5L98.9,166.5c-0.8-0.5-1-1.4-0.6-2.1l0-0.1c0.4-0.7,1.3-0.9,2-0.5l0.1,0
				c0.7,0.4,0.9,1.3,0.5,2l0,0.1C100.5,166.7,99.6,166.9,98.9,166.5z"/>
			<path id="XMLID_539_" class="st8" d="M102.1,168.4L102.1,168.4c-0.8-0.5-1-1.4-0.6-2.1l0-0.1c0.4-0.7,1.3-0.9,2-0.5l0.1,0
				c0.7,0.4,0.9,1.3,0.5,2l0,0.1C103.7,168.6,102.8,168.9,102.1,168.4z"/>
			<path id="XMLID_538_" class="st8" d="M105.4,170.4L105.4,170.4c-0.8-0.5-1-1.4-0.6-2.1l0-0.1c0.4-0.7,1.3-0.9,2-0.5l0.1,0
				c0.7,0.4,0.9,1.3,0.5,2l0,0.1C107,170.6,106.1,170.8,105.4,170.4z"/>
			<path id="XMLID_537_" class="st8" d="M108.6,172.3L108.6,172.3c-0.8-0.5-1-1.4-0.6-2.1l0-0.1c0.4-0.7,1.3-0.9,2-0.5l0.1,0
				c0.7,0.4,0.9,1.3,0.5,2l0,0.1C110.2,172.5,109.3,172.7,108.6,172.3z"/>
			<path id="XMLID_536_" class="st8" d="M111.8,174.2L111.8,174.2c-0.8-0.5-1-1.4-0.6-2.1l0-0.1c0.4-0.7,1.3-0.9,2-0.5l0.1,0
				c0.7,0.4,0.9,1.3,0.5,2l0,0.1C113.5,174.4,112.5,174.6,111.8,174.2z"/>
			<path id="XMLID_535_" class="st8" d="M115.1,176.2L115.1,176.2c-0.8-0.5-1-1.4-0.6-2.1l0-0.1c0.4-0.7,1.3-0.9,2-0.5l0.1,0
				c0.7,0.4,0.9,1.3,0.5,2l0,0.1C116.7,176.3,115.8,176.6,115.1,176.2z"/>
			<path id="XMLID_534_" class="st8" d="M84,162.1L84,162.1c-0.8-0.5-1-1.4-0.6-2.1l0-0.1c0.4-0.7,1.3-0.9,2-0.5l0.1,0
				c0.7,0.4,0.9,1.3,0.5,2l0,0.1C85.6,162.3,84.7,162.5,84,162.1z"/>
			<path id="XMLID_533_" class="st8" d="M87.2,164L87.2,164c-0.8-0.5-1-1.4-0.6-2.1l0-0.1c0.4-0.7,1.3-0.9,2-0.5l0.1,0
				c0.7,0.4,0.9,1.3,0.5,2l0,0.1C88.8,164.2,87.9,164.4,87.2,164z"/>
			<path id="XMLID_532_" class="st8" d="M100.5,171.9l-10.5-6.2c-0.5-0.3-0.7-1-0.4-1.5l0.4-0.7c0.3-0.5,1-0.7,1.5-0.4l10.5,6.2
				c0.5,0.3,0.7,1,0.4,1.5l-0.4,0.7C101.7,172.1,101,172.2,100.5,171.9z"/>
			<path id="XMLID_531_" class="st8" d="M103.8,173.9l-0.7-0.4c-0.5-0.3-0.7-1-0.4-1.5l0.4-0.7c0.3-0.5,1-0.7,1.5-0.4l0.7,0.4
				c0.5,0.3,0.7,1,0.4,1.5l-0.4,0.7C104.9,174,104.3,174.2,103.8,173.9z"/>
			<path id="XMLID_530_" class="st8" d="M107,175.8l-0.7-0.4c-0.5-0.3-0.7-1-0.4-1.5l0.4-0.7c0.3-0.5,1-0.7,1.5-0.4l0.7,0.4
				c0.5,0.3,0.7,1,0.4,1.5l-0.4,0.7C108.2,175.9,107.5,176.1,107,175.8z"/>
			<path id="XMLID_529_" class="st8" d="M113.5,179.6l-4-2.4c-0.5-0.3-0.7-1-0.4-1.5l0.4-0.7c0.3-0.5,1-0.7,1.5-0.4l4,2.4
				c0.5,0.3,0.7,1,0.4,1.5l-0.4,0.7C114.7,179.8,114,179.9,113.5,179.6z"/>
			<path id="XMLID_528_" class="st8" d="M86,154.4l-1.6-1c-0.6-0.3-0.8-1.1-0.4-1.7l0.3-0.5c0.3-0.6,1.1-0.8,1.7-0.4l1.6,1
				c0.6,0.3,0.8,1.1,0.4,1.7l-0.3,0.5C87.3,154.6,86.5,154.8,86,154.4z"/>
			<path id="XMLID_527_" class="st8" d="M85.9,158.8l-3.3-2c-0.7-0.4-0.9-1.3-0.5-2l0-0.1c0.4-0.7,1.3-0.9,2-0.5l3.3,2
				c0.7,0.4,0.9,1.3,0.5,2l0,0.1C87.5,159,86.6,159.3,85.9,158.8z"/>
			<path id="XMLID_526_" class="st8" d="M80.7,160.2L80.7,160.2c-0.8-0.5-1-1.4-0.6-2.1l0-0.1c0.4-0.7,1.3-0.9,2-0.5l0.1,0
				c0.7,0.4,0.9,1.3,0.5,2l0,0.1C82.3,160.4,81.4,160.6,80.7,160.2z"/>
		</g>
		<g id="XMLID_523_">
			<path id="XMLID_524_" class="st11" d="M77.9,109.1l-5.5-3.2c-4.1-2.4-5.4-7.7-3-11.8l9.2-15.4c2.4-4.1,7.7-5.4,11.8-3l5.5,3.2
				c4.1,2.4,5.4,7.7,3,11.8L89.7,106C87.3,110.1,82,111.5,77.9,109.1z"/>
		</g>
		<path id="XMLID_522_" class="st12" d="M78.6,104.4l-2.4-1.4c-3.7-2.2-4.9-7-2.7-10.7l6.6-11.1c2.2-3.7,7-4.9,10.7-2.7l2.4,1.4
			c3.7,2.2,4.9,7,2.7,10.7l-6.6,11.1C87.1,105.3,82.3,106.5,78.6,104.4z"/>
		
			<rect id="XMLID_521_" x="78.6" y="74.3" transform="matrix(0.8597 0.5108 -0.5108 0.8597 55.825 -28.0022)" class="st13" width="0.6" height="26.7"/>
		<path id="XMLID_520_" class="st14" d="M86.1,78.7l5,8.1c0.1,0.2-0.1,0.5-0.3,0.4l-5.4-1.5c-0.2-0.1-0.4,0.2-0.3,0.4l2.7,5.2
			c0.1,0.1,0,0.2-0.1,0.3l-2.5,2.4c0,0-0.1,0.1-0.2,0.1l-5.6,0.1c-0.1,0-0.1,0-0.2,0.1l-5.7,4.9"/>
		<path id="XMLID_519_" class="st13" d="M84.9,104.6L84.9,104.6c-0.2-0.1-0.3-0.4-0.2-0.6l4.1-7c0.1-0.2,0.4-0.3,0.6-0.1l0,0
			c0.2,0.1,0.3,0.4,0.1,0.6l-4.1,7C85.4,104.7,85.1,104.7,84.9,104.6z"/>
		<path id="XMLID_518_" class="st13" d="M83.4,103.7L83.4,103.7c-0.2-0.1-0.3-0.4-0.2-0.6l4.1-7c0.1-0.2,0.4-0.3,0.6-0.1l0,0
			c0.2,0.1,0.3,0.4,0.1,0.6l-4.1,7C83.9,103.8,83.6,103.8,83.4,103.7z"/>
		<path id="XMLID_517_" class="st13" d="M81.9,102.8L81.9,102.8c-0.2-0.1-0.3-0.4-0.2-0.6l4.1-7c0.1-0.2,0.4-0.3,0.6-0.1l0,0
			c0.2,0.1,0.3,0.4,0.1,0.6l-4.1,7C82.3,102.8,82.1,102.9,81.9,102.8z"/>
		<g id="XMLID_515_">
			<path id="XMLID_516_" class="st11" d="M181.1,149.5l-3.2,5.5c-2.4,4.1-7.7,5.4-11.8,3l-15.4-9.2c-4.1-2.4-5.4-7.7-3-11.8l3.2-5.5
				c2.4-4.1,7.7-5.4,11.8-3l15.4,9.2C182.2,140.1,183.5,145.4,181.1,149.5z"/>
		</g>
		<path id="XMLID_514_" class="st15" d="M178,150c0.6,0.3,0.8,1.1,0.4,1.6c-0.3,0.6-1.1,0.8-1.6,0.4c-0.6-0.3-0.8-1.1-0.4-1.6
			C176.7,149.8,177.5,149.6,178,150z"/>
		<path id="XMLID_513_" class="st4" d="M176.4,148.7l-1.4,2.4c-2.2,3.7-7,4.9-10.7,2.7l-11.1-6.6c-3.7-2.2-4.9-7-2.7-10.7l1.4-2.4
			c2.2-3.7,7-4.9,10.7-2.7l11.1,6.6C177.3,140.3,178.6,145,176.4,148.7z"/>
		<path id="XMLID_512_" class="st16" d="M154.7,141.8L154.7,141.8c-0.2-0.1-0.3-0.4-0.2-0.6l4.1-7c0.1-0.2,0.4-0.3,0.6-0.1l0,0
			c0.2,0.1,0.3,0.4,0.1,0.6l-4.1,7C155.1,141.9,154.9,142,154.7,141.8z"/>
		<path id="XMLID_511_" class="st16" d="M153.2,141L153.2,141c-0.2-0.1-0.3-0.4-0.2-0.6l4.1-7c0.1-0.2,0.4-0.3,0.6-0.1l0,0
			c0.2,0.1,0.3,0.4,0.1,0.6l-4.1,7C153.6,141,153.4,141.1,153.2,141z"/>
		<path id="XMLID_510_" class="st16" d="M151.6,140L151.6,140c-0.2-0.1-0.3-0.4-0.2-0.6l4.1-7c0.1-0.2,0.4-0.3,0.6-0.1l0,0
			c0.2,0.1,0.3,0.4,0.1,0.6l-4.1,7C152.1,140.1,151.8,140.2,151.6,140z"/>
		<path id="XMLID_508_" class="st8" d="M158,148.7L158,148.7c-0.2-0.1-0.3-0.4-0.2-0.6l7.7-13c0.1-0.2,0.4-0.3,0.6-0.1l0,0
			c0.2,0.1,0.3,0.4,0.1,0.6l-7.7,13C158.4,148.8,158.2,148.8,158,148.7z"/>
		<path id="XMLID_506_" class="st8" d="M156.5,147.8L156.5,147.8c-0.2-0.1-0.3-0.4-0.2-0.6l7.7-13c0.1-0.2,0.4-0.3,0.6-0.1l0,0
			c0.2,0.1,0.3,0.4,0.1,0.6l-7.7,13C157,147.9,156.7,147.9,156.5,147.8z"/>
		<path id="XMLID_504_" class="st8" d="M155,146.9L155,146.9c-0.2-0.1-0.3-0.4-0.2-0.6l7.7-13c0.1-0.2,0.4-0.3,0.6-0.1l0,0
			c0.2,0.1,0.3,0.4,0.1,0.6l-7.7,13C155.4,146.9,155.2,147,155,146.9z"/>
		<path id="XMLID_502_" class="st8" d="M162.4,151.3L162.4,151.3c-0.2-0.1-0.3-0.4-0.2-0.6l7.7-13c0.1-0.2,0.4-0.3,0.6-0.1l0,0
			c0.2,0.1,0.3,0.4,0.1,0.6l-7.7,13C162.9,151.4,162.6,151.5,162.4,151.3z"/>
		<path id="XMLID_500_" class="st8" d="M161,150.5L161,150.5c-0.2-0.1-0.3-0.4-0.2-0.6l7.7-13c0.1-0.2,0.4-0.3,0.6-0.1l0,0
			c0.2,0.1,0.3,0.4,0.1,0.6l-7.7,13C161.4,150.5,161.2,150.6,161,150.5z"/>
		<path id="XMLID_498_" class="st8" d="M159.4,149.5L159.4,149.5c-0.2-0.1-0.3-0.4-0.2-0.6l7.7-13c0.1-0.2,0.4-0.3,0.6-0.1l0,0
			c0.2,0.1,0.3,0.4,0.1,0.6l-7.7,13C159.9,149.6,159.6,149.7,159.4,149.5z"/>
		<path id="XMLID_496_" class="st8" d="M166.9,154L166.9,154c-0.2-0.1-0.3-0.4-0.2-0.6l7.7-13c0.1-0.2,0.4-0.3,0.6-0.1l0,0
			c0.2,0.1,0.3,0.4,0.1,0.6l-7.7,13C167.4,154.1,167.1,154.1,166.9,154z"/>
		<path id="XMLID_494_" class="st8" d="M165.5,153.1L165.5,153.1c-0.2-0.1-0.3-0.4-0.2-0.6l7.7-13c0.1-0.2,0.4-0.3,0.6-0.1l0,0
			c0.2,0.1,0.3,0.4,0.1,0.6l-7.7,13C165.9,153.2,165.7,153.3,165.5,153.1z"/>
		<path id="XMLID_492_" class="st8" d="M170,155.8L170,155.8c-0.2-0.1-0.3-0.4-0.2-0.6l7.7-13c0.1-0.2,0.4-0.3,0.6-0.1l0,0
			c0.2,0.1,0.3,0.4,0.1,0.6l-7.7,13C170.5,155.9,170.2,156,170,155.8z"/>
		<path id="XMLID_490_" class="st8" d="M168.5,155L168.5,155c-0.2-0.1-0.3-0.4-0.2-0.6l7.7-13c0.1-0.2,0.4-0.3,0.6-0.1l0,0
			c0.2,0.1,0.3,0.4,0.1,0.6l-7.7,13C169,155,168.7,155.1,168.5,155z"/>
		<path id="XMLID_488_" class="st8" d="M163.9,152.2L163.9,152.2c-0.2-0.1-0.3-0.4-0.2-0.6l7.7-13c0.1-0.2,0.4-0.3,0.6-0.1l0,0
			c0.2,0.1,0.3,0.4,0.1,0.6l-7.7,13C164.4,152.3,164.1,152.3,163.9,152.2z"/>
		<g id="XMLID_483_">
			<g id="XMLID_486_">
				<path id="XMLID_487_" class="st11" d="M96.2,66.6l0.8-1.4c1.1-1.9,3.6-2.5,5.5-1.4l9.1,5.4c1.9,1.1,2.5,3.6,1.4,5.5l-0.8,1.4
					c-1.1,1.9-3.6,2.5-5.5,1.4l-9.1-5.4C95.7,70.9,95,68.5,96.2,66.6z"/>
			</g>
			<path id="XMLID_485_" class="st4" d="M99.3,67.7l0.2-0.4c1-1.7,3.1-2.2,4.8-1.2l6.2,3.7c1.7,1,2.2,3.1,1.2,4.8l-0.2,0.4
				c-1,1.7-3.1,2.2-4.8,1.2l-6.2-3.7C98.8,71.6,98.3,69.4,99.3,67.7z"/>
			<path id="XMLID_484_" class="st4" d="M98.1,67.3c-0.2-0.1-0.3-0.5-0.2-0.7c0.1-0.2,0.5-0.3,0.7-0.2c0.2,0.1,0.3,0.5,0.2,0.7
				C98.6,67.3,98.3,67.4,98.1,67.3z"/>
		</g>
		<g id="XMLID_474_">
			<path id="XMLID_482_" class="st14" d="M142.6,58.3l5.5,3.2c4.1,2.4,5.4,7.7,3,11.8l-9.2,15.4c-2.4,4.1-7.7,5.4-11.8,3l-5.5-3.2
				c-4.1-2.4-5.4-7.7-3-11.8l9.2-15.4C133.2,57.3,138.5,55.9,142.6,58.3z"/>
			<path id="XMLID_481_" class="st14" d="M162.9,70.4l5.5,3.2c4.1,2.4,5.4,7.7,3,11.8l-9.2,15.4c-2.4,4.1-7.7,5.4-11.8,3l-5.5-3.2
				c-4.1-2.4-5.4-7.7-3-11.8l9.2-15.4C153.5,69.3,158.8,68,162.9,70.4z"/>
			
				<rect id="XMLID_479_" x="127.2" y="59.6" transform="matrix(-0.8597 -0.5108 0.5108 -0.8597 215.8403 208.3631)" class="st8" width="18.6" height="29.9"/>
			
				<rect id="XMLID_477_" x="141.1" y="70.1" transform="matrix(-0.8597 -0.5108 0.5108 -0.8597 243.2211 236.7909)" class="st8" width="26" height="29.9"/>
			<path id="XMLID_476_" class="st17" d="M133.3,52.8L133.3,52.8c0.5,0.3,0.7,1,0.4,1.5l-9.6,16.1c-0.3,0.5-0.9,0.7-1.5,0.4l0,0
				c-0.5-0.3-0.7-0.9-0.4-1.5l9.6-16.1C132.1,52.7,132.8,52.5,133.3,52.8z"/>
			<path id="XMLID_475_" class="st17" d="M121.8,71.1l0.3-1.5l1.8,1.1l-1.2,1C122.4,72,121.7,71.6,121.8,71.1z"/>
		</g>
		<path id="XMLID_473_" class="st4" d="M156.7,101.5l-14-8.3c-0.3-0.2-0.4-0.6-0.2-0.9l0,0c0.2-0.3,0.6-0.4,0.9-0.2l14,8.3
			c0.3,0.2,0.4,0.6,0.2,0.9l0,0C157.4,101.6,157,101.7,156.7,101.5z"/>
		<path id="XMLID_472_" class="st4" d="M158.2,98.9l-14-8.3c-0.3-0.2-0.4-0.6-0.2-0.9l0,0c0.2-0.3,0.6-0.4,0.9-0.2l14,8.3
			c0.3,0.2,0.4,0.6,0.2,0.9l0,0C158.9,99,158.5,99.1,158.2,98.9z"/>
		<path id="XMLID_471_" class="st4" d="M159.6,96.5l-14-8.3c-0.3-0.2-0.4-0.6-0.2-0.9l0,0c0.2-0.3,0.6-0.4,0.9-0.2l14,8.3
			c0.3,0.2,0.4,0.6,0.2,0.9l0,0C160.3,96.6,159.9,96.7,159.6,96.5z"/>
		<path id="XMLID_470_" class="st4" d="M160.7,93.6l-14-8.3c-0.3-0.2-0.4-0.6-0.2-0.9l0,0c0.2-0.3,0.6-0.4,0.9-0.2l14,8.3
			c0.3,0.2,0.4,0.6,0.2,0.9l0,0C161.4,93.7,161,93.8,160.7,93.6z"/>
		<path id="XMLID_469_" class="st4" d="M161.2,93.9l-14-8.3c-0.3-0.2-0.4-0.6-0.2-0.9l0,0c0.2-0.3,0.6-0.4,0.9-0.2l14,8.3
			c0.3,0.2,0.4,0.6,0.2,0.9l0,0C161.9,94,161.5,94.1,161.2,93.9z"/>
		<path id="XMLID_468_" class="st4" d="M162.7,91.3l-14-8.3c-0.3-0.2-0.4-0.6-0.2-0.9l0,0c0.2-0.3,0.6-0.4,0.9-0.2l14,8.3
			c0.3,0.2,0.4,0.6,0.2,0.9l0,0C163.4,91.4,163,91.5,162.7,91.3z"/>
		<path id="XMLID_467_" class="st4" d="M164.1,88.9l-14-8.3c-0.3-0.2-0.4-0.6-0.2-0.9l0,0c0.2-0.3,0.6-0.4,0.9-0.2l14,8.3
			c0.3,0.2,0.4,0.6,0.2,0.9l0,0C164.8,89,164.4,89.1,164.1,88.9z"/>
		<path id="XMLID_466_" class="st4" d="M165.7,86.3l-14-8.3c-0.3-0.2-0.4-0.6-0.2-0.9l0,0c0.2-0.3,0.6-0.4,0.9-0.2l14,8.3
			c0.3,0.2,0.4,0.6,0.2,0.9l0,0C166.4,86.4,166,86.5,165.7,86.3z"/>
		<path id="XMLID_465_" class="st4" d="M137.4,90l-14-8.3c-0.3-0.2-0.4-0.6-0.2-0.9l0,0c0.2-0.3,0.6-0.4,0.9-0.2l14,8.3
			c0.3,0.2,0.4,0.6,0.2,0.9l0,0C138.1,90.1,137.7,90.2,137.4,90z"/>
		<path id="XMLID_464_" class="st4" d="M138.9,87.5l-14-8.3c-0.3-0.2-0.4-0.6-0.2-0.9l0,0c0.2-0.3,0.6-0.4,0.9-0.2l14,8.3
			c0.3,0.2,0.4,0.6,0.2,0.9l0,0C139.6,87.5,139.2,87.6,138.9,87.5z"/>
		<path id="XMLID_463_" class="st4" d="M140.4,85l-14-8.3c-0.3-0.2-0.4-0.6-0.2-0.9l0,0c0.2-0.3,0.6-0.4,0.9-0.2l14,8.3
			c0.3,0.2,0.4,0.6,0.2,0.9l0,0C141.1,85.1,140.7,85.2,140.4,85z"/>
		<path id="XMLID_462_" class="st4" d="M141.9,82.5l-14-8.3c-0.3-0.2-0.4-0.6-0.2-0.9l0,0c0.2-0.3,0.6-0.4,0.9-0.2l14,8.3
			c0.3,0.2,0.4,0.6,0.2,0.9l0,0C142.6,82.5,142.2,82.6,141.9,82.5z"/>
		<path id="XMLID_461_" class="st4" d="M143.4,79.9l-14-8.3c-0.3-0.2-0.4-0.6-0.2-0.9l0,0c0.2-0.3,0.6-0.4,0.9-0.2l14,8.3
			c0.3,0.2,0.4,0.6,0.2,0.9l0,0C144.1,80,143.7,80.1,143.4,79.9z"/>
		<path id="XMLID_460_" class="st4" d="M144.9,77.5l-14-8.3c-0.3-0.2-0.4-0.6-0.2-0.9l0,0c0.2-0.3,0.6-0.4,0.9-0.2l14,8.3
			c0.3,0.2,0.4,0.6,0.2,0.9l0,0C145.6,77.5,145.2,77.6,144.9,77.5z"/>
		<path id="XMLID_459_" class="st4" d="M146.4,74.9l-14-8.3c-0.3-0.2-0.4-0.6-0.2-0.9l0,0c0.2-0.3,0.6-0.4,0.9-0.2l14,8.3
			c0.3,0.2,0.4,0.6,0.2,0.9l0,0C147.1,75,146.7,75.1,146.4,74.9z"/>
		<g id="XMLID_455_">
			<path id="XMLID_458_" class="st6" d="M62,141.1l-2.5-1.5c-0.7-0.4-0.9-1.3-0.5-2l0,0c0.4-0.7,1.3-0.9,2-0.5l2.5,1.5L62,141.1z"/>
			
				<ellipse id="XMLID_457_" transform="matrix(0.8494 -0.5278 0.5278 0.8494 -65.0827 57.7256)" class="st6" cx="68.6" cy="142.9" rx="7.1" ry="7.1"/>
			<circle id="XMLID_456_" class="st6" cx="68.6" cy="142.9" r="5.1"/>
		</g>
		<g id="XMLID_451_">
			<path id="XMLID_454_" class="st6" d="M109.2,51.4l-2.5-1.5c-0.7-0.4-0.9-1.3-0.5-2l0,0c0.4-0.7,1.3-0.9,2-0.5l2.5,1.5L109.2,51.4
				z"/>
			
				<ellipse id="XMLID_453_" transform="matrix(0.5877 -0.8091 0.8091 0.5877 4.7362 115.5988)" class="st6" cx="115.8" cy="53.2" rx="7.1" ry="7.1"/>
			<path id="XMLID_452_" class="st6" d="M120.2,55.8c-1.4,2.4-4.6,3.2-7,1.8c-2.4-1.4-3.2-4.6-1.8-7c1.4-2.4,4.6-3.2,7-1.8
				C120.8,50.2,121.6,53.3,120.2,55.8z"/>
		</g>
		<g id="XMLID_447_">
			<path id="XMLID_450_" class="st9" d="M59.5,139.6l-2.5-1.5c-0.7-0.4-0.9-1.3-0.5-2l0,0c0.4-0.7,1.3-0.9,2-0.5L61,137L59.5,139.6z
				"/>
			
				<ellipse id="XMLID_449_" transform="matrix(0.38 -0.925 0.925 0.38 -89.8195 148.7836)" class="st9" cx="66.1" cy="141.4" rx="7.1" ry="7.1"/>
			<path id="XMLID_448_" class="st17" d="M70.5,144c-1.4,2.4-4.6,3.2-7,1.8c-2.4-1.4-3.2-4.6-1.8-7c1.4-2.4,4.6-3.2,7-1.8
				S71.9,141.6,70.5,144z"/>
		</g>
		<g id="XMLID_443_">
			<path id="XMLID_446_" class="st9" d="M182.7,114.2l1.5-2.5c0.4-0.7,1.3-0.9,2-0.5l0,0c0.7,0.4,0.9,1.3,0.5,2l-1.5,2.5
				L182.7,114.2z"/>
			<circle id="XMLID_445_" class="st9" cx="180.9" cy="120.8" r="7.1"/>
			<circle id="XMLID_444_" class="st17" cx="180.9" cy="120.8" r="5.1"/>
		</g>
		<g id="XMLID_440_">
			<path id="XMLID_442_" class="st7" d="M108.9,57.4c-3.4-2-4.5-6.4-2.5-9.8c2-3.4,6.4-4.5,9.8-2.5c3.4,2,4.5,6.4,2.5,9.8
				C116.6,58.3,112.3,59.4,108.9,57.4z"/>
			
				<ellipse id="XMLID_441_" transform="matrix(0.1864 -0.9825 0.9825 0.1864 41.2325 152.2115)" class="st8" cx="112.5" cy="51.2" rx="5.1" ry="5.1"/>
		</g>
	</g>
	<path id="XMLID_428_" class="st18" d="M131.3,213.3h-1.5c-0.2-1.2-1.2-2.1-2.4-2.1c-1.2,0-2.2,0.9-2.4,2.1h-2.3
		c-1.6,0-3.2,0.2-4.7,0.6c5.8,0.5,11.6,0.4,17.3-0.1C134.2,213.4,132.8,213.3,131.3,213.3z M131.3,213.3h-1.5
		c-0.2-1.2-1.2-2.1-2.4-2.1c-1.2,0-2.2,0.9-2.4,2.1h-2.3c-1.6,0-3.2,0.2-4.7,0.6c5.8,0.5,11.6,0.4,17.3-0.1
		C134.2,213.4,132.8,213.3,131.3,213.3z M219,120.8l-69.9-2.2c-0.1-0.1-0.3-0.2-0.4-0.3c0.1-0.4,0.2-0.9,0.3-1.4l0.4-0.4l0.4-0.3
		l0,0l0.5-0.5l1,1l1.7-1.6l1.4,1.4l53.2-52.2c-7.8-11.8-18.3-22.1-31.3-29.9c-7.3-4.4-15-7.6-22.9-9.9l-26,75.4l1.9,0.6l-0.8,2.2
		l1.4,0.5l-0.6,1.7c-0.3,0.2-0.5,0.4-0.8,0.6c-0.7-1.6-1.3-2.4-2.5-3.2l-0.6-1.8l1.3-0.4l-22.8-65.6c-0.1-3-1-5.9-2.6-8.4
		c-0.3-0.5-0.7-1-1.1-1.5c-22.9,6.6-43.4,21.5-56.5,43.6c-0.1,0.2-0.2,0.3-0.3,0.5c1,0.9,2.2,1.6,3.4,2.2l57.1,47.1l1-1.3l0.8,0.7
		c0.1,0.2,0.1,0.5,0.2,0.7c-0.3,0.3-0.7,0.5-1,0.8l-1.8,0.2l-0.1-1.4l-2.3,0.2l-0.2-2l-70.3,6c1,21.5,9.1,42.3,23.4,58.9l57.2-35
		l-1-1.7l2-1.2l-0.8-1.2l1.5-0.9c0.5,0.1,1,0.1,1.5,0.1c0.7,0,1.3-0.1,2-0.2c-0.1,1.8,0.2,3.7,1.1,5.7l-0.4,1.7l-1.4-0.3l-0.6,2.3
		l-1.9-0.5l-15,60.4c5.2,1.6,10.5,2.8,15.8,3.5l14.5-59.5l0.1-0.5l-0.6-0.1l0.1-0.3l0,0l0.4-1.6l0.1-0.2l0-0.2h0l0.3-1.2l0.3-0.2
		l0.2,0.9l0,0l0,0.2l0.1,0.3l0.4,1.6h0l0.1,0.3l-0.6,0.1l13.2,60.1c5.3-0.9,10.6-2.2,15.7-3.9l-13.3-59.7l-1.9,0.4l-0.5-2.3
		l-1.4,0.3l-0.4-1.7c0.5-1.1,0.9-2.2,1-3.3c0.3,0,0.6,0,0.9,0l0.7,0.5l3.5,2.4l50.4,33.7c0.4,1.2,0.9,2.3,1.6,3.3
		c4.3-4.7,8.2-10,11.6-15.7c8.9-15,13.3-31.4,13.6-47.7C221.9,119.5,220.4,120,219,120.8z M104.6,131.4l-0.2,0.1l-0.2,0.1l-1.4,0.8
		l0,0l-0.2,0.1l-0.3-0.5l-56.4,34.2c1.4-3.9,1.4-8.2,0-12.2l-0.6-1.8c0.5-0.2,0.8-0.6,1.1-1.1c0.3-0.6,0.3-1.2,0.1-1.8
		c-0.2-0.6-0.6-1.1-1.2-1.4c-0.5-0.2-1-0.3-1.5-0.2l-0.6-1.8c-1.2-3.5-3.3-6.4-6-8.6l64.5-5.8l-0.1-0.6l0.3,0v0l1.6-0.1l0.3,0l0.2,0
		v0l1.2-0.1l0.3,0.2L104.6,131.4z M114.4,108.1C114.4,108.1,114.4,108.1,114.4,108.1l-0.2,0.5l-2,0l-0.9-0.8l0.7-1L66.7,69.7
		c0.9,0.1,1.9,0.2,2.8,0.2c3.4,0,6.9-0.9,10-2.9l1.6-1c0.5,0.6,1.2,0.9,1.8,0.9c0.4,0,0.9-0.1,1.3-0.4c0.5-0.3,0.9-0.9,1.1-1.5
		c0.1-0.5,0.1-1-0.2-1.5l1.6-1c4.3-2.7,7.1-6.9,8.2-11.5l18.2,53.1l1.5-0.4l0.7,2L114.4,108.1z M143.5,105.4l-0.2,0.2l0,0l-1.2,1.1
		L142,107l-0.1,0.1l-0.8,0.9l-0.4,0l0.3-0.9l0,0l0.1-0.2l0.1-0.2l0.5-1.5h0l0.1-0.3l0.6,0.2l21.7-62.2c1.5,3.9,4.1,7.2,7.8,9.4
		l1.6,1c-0.5,1.1-0.1,2.4,0.9,3c0.4,0.2,0.8,0.4,1.3,0.4c0.2,0,0.4,0,0.6-0.1c0.5-0.1,1-0.4,1.3-0.8l1.6,1c3,1.9,6.4,2.8,9.8,2.8
		c0.1,0,0.2,0,0.3,0l-46,45.5L143.5,105.4z M198.7,142.5l-0.5,1.2c-0.1,0.1-0.3,0.1-0.4,0.2c-0.9,0.4-1.5,1.1-1.9,2
		c-0.3,0.9-0.3,1.9,0.1,2.7c0.1,0.1,0.1,0.3,0.2,0.4l-0.8,2c-1.8,4.8-1.6,9.9,0.1,14.3l-47.2-31.6l-0.6-1.8c0-0.1,0-0.1-0.1-0.2l0,0
		l-0.1-0.3l-0.2-0.5c0,0,0,0,0,0l1.5-1.2l59.6,1.9C204.2,133.7,200.5,137.5,198.7,142.5z M129.9,213.3c-0.2-1.2-1.2-2.1-2.4-2.1
		c-1.2,0-2.2,0.9-2.4,2.1h-2.3c-1.6,0-3.2,0.2-4.7,0.6c5.8,0.5,11.6,0.4,17.3-0.1c-1.4-0.3-2.8-0.5-4.2-0.5H129.9z M131.3,213.3
		h-1.5c-0.2-1.2-1.2-2.1-2.4-2.1c-1.2,0-2.2,0.9-2.4,2.1h-2.3c-1.6,0-3.2,0.2-4.7,0.6c5.8,0.5,11.6,0.4,17.3-0.1
		C134.2,213.4,132.8,213.3,131.3,213.3z"/>
	<g id="XMLID_390_">
		<g id="XMLID_414_">
			<g id="XMLID_426_">
				<path id="XMLID_427_" class="st19" d="M144.7,127c0.5-0.2,1.6-1,1.7-1.5l0.2-1.4c0.2-1.1,2.3-1.1,1.9-2.1l-0.5-1.4
					c-0.7-2.1-2-3.9-3.9-5.1c-0.1,0-0.1-0.1-0.2-0.1l-4.2-2.8c-0.7-0.5-1.7-0.3-2.2,0.4c-0.5,0.7-0.3,1.7,0.4,2.2l4.7,3.1l1.4,3.2
					l-0.8,3.8c-0.2,0.9,0.4,1.7,1.2,1.9C144.9,127.1,144.5,127.1,144.7,127z"/>
			</g>
			<path id="XMLID_425_" class="st19" d="M148.4,121.5l0.8,2.6l69.3,46.4l-5.6,8.3l-69.5-46.5l0,0c-1.9,0.2-3.1-0.4-5.6-2.1
				l-7.6-5.1l7.1-10.6l5.4,3.6"/>
			<path id="XMLID_424_" class="st19" d="M139,115.7l-11.2-7.6c-0.7-0.5-1.7-0.3-2.2,0.4l0,0c-0.5,0.7-0.3,1.7,0.4,2.2l10.8,7.3"/>
			<path id="XMLID_423_" class="st19" d="M136.1,117.6l-11.2-7.6c-0.7-0.5-1.7-0.3-2.2,0.4l0,0c-0.5,0.7-0.3,1.7,0.4,2.2l11.2,7.6"
				/>
			<path id="XMLID_422_" class="st19" d="M135.1,120.7l-11.2-7.6c-0.7-0.5-1.7-0.3-2.2,0.4l0,0c-0.5,0.7-0.3,1.7,0.4,2.2l11.2,7.6"
				/>
			<path id="XMLID_421_" class="st19" d="M133.3,123.3l-9.2-6.2c-0.7-0.5-1.7-0.3-2.2,0.4l0,0c-0.5,0.7-0.3,1.7,0.4,2.2l11.2,7.6"/>
			<path id="XMLID_420_" class="st20" d="M137.4,113.2l0,1.3l6.4,4.3l0,0c0.3-0.5,0.2-1.2-0.3-1.6L137.4,113.2z"/>
			<path id="XMLID_419_" class="st16" d="M127.8,110L127.8,110c0.3-0.5,0.2-1.1-0.2-1.4l-0.7-0.5c-0.4-0.3-1-0.2-1.3,0.3l0,0
				c-0.3,0.4-0.2,1,0.3,1.3l0.7,0.5C127,110.6,127.6,110.5,127.8,110z"/>
			<path id="XMLID_418_" class="st16" d="M125,112L125,112c0.3-0.5,0.2-1.1-0.2-1.4l-0.7-0.5c-0.4-0.3-1-0.2-1.3,0.3l0,0
				c-0.3,0.4-0.2,1,0.3,1.3l0.7,0.5C124.1,112.5,124.7,112.4,125,112z"/>
			<path id="XMLID_417_" class="st16" d="M123.9,115.1L123.9,115.1c0.3-0.5,0.2-1.1-0.2-1.4l-0.7-0.5c-0.4-0.3-1-0.2-1.3,0.3l0,0
				c-0.3,0.4-0.2,1,0.3,1.3l0.7,0.5C123,115.7,123.6,115.6,123.9,115.1z"/>
			<path id="XMLID_416_" class="st16" d="M124.2,119.2L124.2,119.2c0.3-0.5,0.2-1.1-0.2-1.4l-0.7-0.5c-0.4-0.3-1-0.2-1.3,0.3l0,0
				c-0.3,0.4-0.2,1,0.3,1.3l0.7,0.5C123.3,119.7,123.9,119.6,124.2,119.2z"/>
			<path id="XMLID_415_" class="st16" d="M140.8,114l0.4-0.6l-2.2-1.5l0,0c-0.2,0.3-0.1,0.8,0.2,1.1L140.8,114z"/>
		</g>
		<g id="XMLID_400_">
			<g id="XMLID_412_">
				<path id="XMLID_413_" class="st19" d="M148.1,114.2c0.3,0.4,0.7,1.7,0.5,2.2l-0.7,1.3c-0.4,1,1.2,2.3,0.3,2.8l-1.2,0.9
					c-1.8,1.3-3.9,2-6.1,1.9c-0.1,0-0.2,0-0.2,0l-5-0.2c-0.9,0-1.6-0.7-1.6-1.6c0-0.9,0.8-1.6,1.6-1.6l5.6,0.2l3-1.8l1.6-3.5
					c0.4-0.8,1.3-1.2,2.1-0.8C148.4,114.1,148,113.9,148.1,114.2z"/>
			</g>
			<path id="XMLID_411_" class="st19" d="M147.9,120.8l2.2-1.6l83.3,2.7l0.3-10l-83.5-2.7l0,0c-1.5-1.3-2.7-1.5-5.8-1.6l-9.1-0.3
				l-0.4,12.7l6.5,0.2"/>
			<path id="XMLID_410_" class="st19" d="M136.9,120l-13.5-0.4c-0.9,0-1.6-0.8-1.5-1.6l0,0c0-0.9,0.8-1.6,1.6-1.5l13,0.4"/>
			<path id="XMLID_409_" class="st19" d="M135.7,116.8l-13.5-0.4c-0.9,0-1.6-0.8-1.5-1.6l0,0c0-0.9,0.8-1.6,1.6-1.5l13.5,0.4"/>
			<path id="XMLID_408_" class="st19" d="M136.6,113.6l-13.5-0.4c-0.9,0-1.6-0.8-1.5-1.6l0,0c0-0.9,0.8-1.6,1.6-1.5l13.5,0.4"/>
			<path id="XMLID_407_" class="st19" d="M136.7,110.5l-11.1-0.3c-0.9,0-1.6-0.8-1.5-1.6l0,0c0-0.9,0.8-1.6,1.6-1.5l13.5,0.4"/>
			<path id="XMLID_406_" class="st20" d="M134.1,121.1l0.8-1.1l7.7,0.2l0,0c0,0.6-0.5,1.1-1.2,1.1L134.1,121.1z"/>
			<path id="XMLID_405_" class="st16" d="M124.6,118.1L124.6,118.1c0,0.6-0.5,1-1,1l-0.8,0c-0.5,0-0.9-0.5-0.9-1l0,0
				c0-0.5,0.5-0.9,1-0.9l0.8,0C124.2,117.1,124.6,117.6,124.6,118.1z"/>
			<path id="XMLID_404_" class="st16" d="M123.3,114.8L123.3,114.8c0,0.6-0.5,1-1,1l-0.8,0c-0.5,0-0.9-0.5-0.9-1l0,0
				c0-0.5,0.5-0.9,1-0.9l0.8,0C122.9,113.9,123.4,114.3,123.3,114.8z"/>
			<path id="XMLID_403_" class="st16" d="M124.3,111.7L124.3,111.7c0,0.6-0.5,1-1,1l-0.8,0c-0.5,0-0.9-0.5-0.9-1l0,0
				c0-0.5,0.5-0.9,1-0.9l0.8,0C123.9,110.7,124.3,111.1,124.3,111.7z"/>
			<path id="XMLID_402_" class="st16" d="M126.9,108.6L126.9,108.6c0,0.6-0.5,1-1,1l-0.8,0c-0.5,0-0.9-0.5-0.9-1l0,0
				c0-0.5,0.5-0.9,1-0.9l0.8,0C126.5,107.6,126.9,108,126.9,108.6z"/>
			<path id="XMLID_401_" class="st16" d="M137.4,122.4l0,0.8l-2.7-0.1l0,0c0-0.4,0.4-0.7,0.8-0.7L137.4,122.4z"/>
		</g>
		<polygon id="XMLID_398_" class="st21" points="144.7,133.2 150.5,125 153.1,126.7 147.4,134.9 		"/>
		<path id="XMLID_397_" class="st11" d="M151,130.7c-0.4,1.1-1.6,1.6-2.7,1.2c-1.1-0.4-1.6-1.6-1.2-2.7c0.4-1.1,1.6-1.6,2.7-1.2
			C150.9,128.4,151.4,129.6,151,130.7z"/>
		<path id="XMLID_396_" class="st11" d="M209.1,178.5L209.1,178.5c-8.3-3.1-12.5-12.4-9.4-20.7l13.8-36.8
			c3.1-8.3,12.4-12.5,20.7-9.4h0c8.3,3.1,12.5,12.4,9.4,20.7l-13.8,36.8C226.6,177.4,217.4,181.6,209.1,178.5z"/>
		<path id="XMLID_395_" class="st22" d="M238.7,150.8L238.7,150.8c4.5-12-1.6-25.3-13.6-29.8l-1.9-0.7c-12-4.5-25.3,1.6-29.8,13.6v0
			c-4.5,12,1.6,25.3,13.6,29.8l1.9,0.7C220.9,168.8,234.2,162.7,238.7,150.8z"/>
		<path id="XMLID_394_" class="st17" d="M232.3,122.6l-6.9-2.6c-8.8-3.3-18.6,1.2-21.9,10l-5.3,14.1c-3.1,8.4,1.1,17.8,9.5,20.9
			l7.6,2.8c12.5,4.7,26.4-1.7,31.1-14.2v0C251.1,141.2,244.8,127.3,232.3,122.6z"/>
		<path class="st23" d="M248,145.2c0,2.8-0.5,5.7-1.5,8.5c-4.7,12.5-18.6,18.8-31.1,14.2l-7.6-2.8c-7.1-2.6-11.2-9.7-10.5-16.8
			c1.3,4.9,4.9,9.2,10,11.1l7.6,2.8c12.5,4.7,26.4-1.7,31.1-14.1c1-2.5,1.4-5.1,1.5-7.7C247.8,141.9,248,143.5,248,145.2z"/>
		<path id="XMLID_393_" class="st19" d="M195.1,137.3l-1-0.4c-1.6-0.6-2.4-2.4-1.8-3.9v0c0.6-1.6,2.4-2.4,3.9-1.8l1,0.4"/>
		<path id="XMLID_392_" class="st17" d="M228.7,121.2l-12.6-4.7c-6.9-2.6-14.5,1.9-15.5,9.2l-3.2,22.1l9.1,3.4l15.3-15.4
			L228.7,121.2"/>
	</g>
	<g id="XMLID_333_">
		<g id="XMLID_359_">
			<g id="XMLID_387_">
				<path id="XMLID_388_" class="st19" d="M122.4,96.1c-0.5-0.1-1.9-0.2-2.3,0.2l-1,1c-0.8,0.7-2.5-0.5-2.8,0.6l-0.5,1.4
					c-0.7,2.1-0.7,4.4,0,6.4c0,0.1,0.1,0.2,0.1,0.2l1.6,4.7c0.3,0.8,1.2,1.3,2,1c0.8-0.3,1.3-1.2,1-2l-1.9-5.3l0.8-3.4l2.9-2.6
					c0.7-0.6,0.7-1.6,0.2-2.3C122.4,95.8,122.7,96.2,122.4,96.1z"/>
			</g>
			<path id="XMLID_386_" class="st19" d="M116.2,98.3l0.9-2.6L89.9,16.9l9.5-3.3l27.3,79l0,0c1.6,1,2.2,2.1,3.2,5.1l3,8.6l-12.1,4.1
				l-2.1-6.1"/>
			<path id="XMLID_385_" class="st19" d="M120.1,108.5l4.4,12.8c0.3,0.8,1.2,1.3,2,1l0,0c0.8-0.3,1.3-1.2,1-2l-4.2-12.3"/>
			<path id="XMLID_384_" class="st19" d="M123.6,108.8l4.4,12.8c0.3,0.8,1.2,1.3,2,1l0,0c0.8-0.3,1.3-1.2,1-2l-4.4-12.8"/>
			<path id="XMLID_367_" class="st19" d="M126.3,106.9l4.4,12.8c0.3,0.8,1.2,1.3,2,1l0,0c0.8-0.3,1.3-1.2,1-2l-4.4-12.8"/>
			<path id="XMLID_366_" class="st19" d="M129.3,105.9l3.6,10.5c0.3,0.8,1.2,1.3,2,1l0,0c0.8-0.3,1.3-1.2,1-2l-4.4-12.8"/>
			<path id="XMLID_365_" class="st20" d="M120,111.5l0.8-1.1l-2.5-7.3l0,0c-0.6,0.2-0.9,0.8-0.7,1.4L120,111.5z"/>
			<path id="XMLID_364_" class="st16" d="M125.6,119.8L125.6,119.8c-0.5,0.2-0.8,0.7-0.6,1.2l0.3,0.8c0.2,0.5,0.7,0.8,1.2,0.6l0,0
				c0.5-0.2,0.8-0.7,0.6-1.2l-0.3-0.8C126.7,119.9,126.2,119.6,125.6,119.8z"/>
			<path id="XMLID_363_" class="st16" d="M129.1,120L129.1,120c-0.5,0.2-0.8,0.7-0.6,1.2l0.3,0.8c0.2,0.5,0.7,0.8,1.2,0.6l0,0
				c0.5-0.2,0.8-0.7,0.6-1.2l-0.3-0.8C130.2,120.1,129.6,119.8,129.1,120z"/>
			<path id="XMLID_362_" class="st16" d="M131.9,118.1L131.9,118.1c-0.5,0.2-0.8,0.7-0.6,1.2l0.3,0.8c0.2,0.5,0.7,0.8,1.2,0.6l0,0
				c0.5-0.2,0.8-0.7,0.6-1.2l-0.3-0.8C132.9,118.2,132.4,117.9,131.9,118.1z"/>
			<path id="XMLID_361_" class="st16" d="M134.1,114.7L134.1,114.7c-0.5,0.2-0.8,0.7-0.6,1.2l0.3,0.8c0.2,0.5,0.7,0.8,1.2,0.6l0,0
				c0.5-0.2,0.8-0.7,0.6-1.2l-0.3-0.8C135.1,114.8,134.6,114.6,134.1,114.7z"/>
			<path id="XMLID_360_" class="st16" d="M117.7,108.8l-0.7,0.3l0.9,2.5l0,0c0.4-0.1,0.6-0.6,0.5-1L117.7,108.8z"/>
		</g>
		<g id="XMLID_345_">
			<g id="XMLID_357_">
				<path id="XMLID_358_" class="st19" d="M112,104.2c0.1-0.5,0.5-1.8,0.9-2.1l1.3-0.6c0.9-0.5,0.4-2.5,1.5-2.4l1.5,0
					c2.2,0,4.3,0.8,6.1,2.2c0.1,0.1,0.1,0.1,0.2,0.1l3.9,3.2c0.7,0.6,0.8,1.6,0.3,2.2c-0.6,0.7-1.6,0.8-2.3,0.3l-4.4-3.6l-3.5-0.4
					l-3.4,1.9c-0.8,0.4-1.7,0.2-2.2-0.6C111.7,104.1,111.9,104.5,112,104.2z"/>
			</g>
			<path id="XMLID_356_" class="st19" d="M116.1,99.1l-2.7,0L48.6,46.6l-6.3,7.8l65,52.6v0c0.4,1.9,1.3,2.8,3.7,4.8l7.1,5.7l8-9.9
				l-5-4.1"/>
			<path id="XMLID_355_" class="st19" d="M124.4,106.3l10.5,8.5c0.7,0.6,0.8,1.6,0.2,2.2l0,0c-0.6,0.7-1.6,0.8-2.2,0.2l-10.2-8.2"/>
			<path id="XMLID_354_" class="st19" d="M123.5,109.7l10.5,8.5c0.7,0.6,0.8,1.6,0.2,2.2l0,0c-0.6,0.7-1.6,0.8-2.2,0.2l-10.5-8.5"/>
			<path id="XMLID_353_" class="st19" d="M120.8,111.6l10.5,8.5c0.7,0.6,0.8,1.6,0.2,2.2l0,0c-0.6,0.7-1.6,0.8-2.2,0.2l-10.5-8.5"/>
			<path id="XMLID_352_" class="st19" d="M118.8,114.1l8.6,6.9c0.7,0.6,0.8,1.6,0.2,2.2l0,0c-0.6,0.7-1.6,0.8-2.2,0.2l-10.5-8.5"/>
			<path id="XMLID_351_" class="st20" d="M127.3,107.2l-1.3,0.4l-6-4.8l0,0c0.4-0.5,1.1-0.6,1.6-0.2L127.3,107.2z"/>
			<path id="XMLID_350_" class="st16" d="M133.1,115.4L133.1,115.4c0.4-0.4,1-0.5,1.4-0.2l0.6,0.5c0.4,0.3,0.5,0.9,0.1,1.4l0,0
				c-0.3,0.4-0.9,0.5-1.4,0.1l-0.6-0.5C132.9,116.4,132.8,115.8,133.1,115.4z"/>
			<path id="XMLID_349_" class="st16" d="M132.1,118.7L132.1,118.7c0.4-0.4,1-0.5,1.4-0.2l0.6,0.5c0.4,0.3,0.5,0.9,0.1,1.4l0,0
				c-0.3,0.4-0.9,0.5-1.4,0.1l-0.6-0.5C131.9,119.7,131.8,119.1,132.1,118.7z"/>
			<path id="XMLID_348_" class="st16" d="M129.4,120.6L129.4,120.6c0.4-0.4,1-0.5,1.4-0.2l0.6,0.5c0.4,0.3,0.5,0.9,0.1,1.4l0,0
				c-0.3,0.4-0.9,0.5-1.4,0.1l-0.6-0.5C129.2,121.6,129.1,121,129.4,120.6z"/>
			<path id="XMLID_347_" class="st16" d="M125.5,121.5L125.5,121.5c0.4-0.4,1-0.5,1.4-0.2l0.6,0.5c0.4,0.3,0.5,0.9,0.1,1.4l0,0
				c-0.3,0.4-0.9,0.5-1.4,0.1l-0.6-0.5C125.2,122.6,125.2,122,125.5,121.5z"/>
			<path id="XMLID_346_" class="st16" d="M125.5,104.1l0.5-0.6l2.1,1.7l0,0c-0.3,0.3-0.7,0.4-1.1,0.1L125.5,104.1z"/>
		</g>
		<path id="XMLID_344_" class="st21" d="M98.6,12.3L39.3,49.8l0,0c-7.4-11.7-3.9-27.2,7.8-34.6L64,4.5C75.7-2.9,91.2,0.6,98.6,12.3
			L98.6,12.3z"/>
		<polyline id="XMLID_343_" class="st11" points="48.1,60.4 104.9,107.3 112.7,96.9 52.5,47.6 48.1,60.4 		"/>
		<polyline id="XMLID_342_" class="st11" points="103,20.3 127.1,89.8 114.7,93.5 92.8,29.4 103,20.3 		"/>
		<path id="XMLID_341_" class="st11" d="M48.1,60.4c-2.6-1.3-4.9-3.2-6.6-5.9v0c-4.7-7.5-2.5-17.4,5-22.2l33.3-21
			c7.5-4.7,17.4-2.5,22.2,5l0,0c1.6,2.6,2.4,5.4,2.5,8.2"/>
		<polyline id="XMLID_339_" class="st21" points="83,9.3 87.4,13.5 91.9,15.1 		"/>
		<path id="XMLID_338_" class="st24" d="M60,16.2L60,16.2c-9.7,6.1-12.6,18.9-6.4,28.6l2,3.1c6.1,9.7,18.9,12.6,28.6,6.4l0,0
			c9.7-6.1,12.6-18.9,6.4-28.6l-2-3.1C82.5,13,69.7,10.1,60,16.2z"/>
		<path id="XMLID_336_" class="st25" d="M43.2,33.8c0.5,3.2,1.7,6.3,3.5,9.2l0.8,1.3c7,11,21.6,14.3,32.7,7.3l3.2-2
			c11.1-7,14.4-21.6,7.5-32.7L90,15.6c-2-3.1-4.5-5.7-7.4-7.5"/>
		<path id="XMLID_335_" class="st19" d="M85.2,52.5l0.6,1c0.6,0.9,0.3,2.1-0.6,2.6l0,0c-0.9,0.6-2.1,0.3-2.6-0.6L82,54.6"/>
		<path id="XMLID_334_" class="st26" d="M43.3,30.4l11.6,3.2l16.6-11l7.1-6.8l1.1-5.7c0,0-0.9-3-1.6-2.6c-0.7,0.4-8.3,0.7-8.9,1.1
			c-0.6,0.4-10.1,3.4-10.5,3.7c-0.4,0.3-9.1,4.6-9.4,5.9c-0.3,1.4-5.5,8.1-5.5,8.1L43.3,30.4z"/>
	</g>
	<g id="XMLID_252_">
		<g id="XMLID_293_">
			<path id="XMLID_331_" class="st27" d="M131,107.3c-0.1-0.3,8.1-6.3,8.1-6.3l1.1-2.3l3.4-0.4l3.9,4.9l2.8,2.9l-2.5,2.3L131,107.3z
				"/>
			<path id="XMLID_330_" class="st28" d="M135.7,118.8"/>
			<path id="XMLID_329_" class="st28" d="M136.9,111.8"/>
			<path id="XMLID_328_" class="st28" d="M148,112.7"/>
			<path id="XMLID_327_" class="st28" d="M136.7,114.8"/>
			<g id="XMLID_325_">
				<path id="XMLID_326_" class="st19" d="M139.4,106.5c-2.6,1.1-5.7-1.1-7.2-2.3c-0.7-0.6-1.8-0.6-2.6,0c0,0,0,0,0,0l-3.7,3
					c-0.8,0.6-2,0.5-2.6-0.3c-0.6-0.8-0.4-1.9,0.3-2.5l3.7-3c1-0.8,2.2-1.3,3.4-1.5l11.8-1.3"/>
			</g>
			<g id="XMLID_323_" class="st29">
				<path id="XMLID_324_" class="st30" d="M123.3,106.8c0.6,0.8,1.8,1,2.6,0.3l3.7-3c0,0,0,0,0,0c0.7-0.6,1.8-0.6,2.6,0
					c1.5,1.2,4.7,3.4,7.2,2.3l-0.1-1c-2.6,1.1-5.7-1.1-7.2-2.3c-0.7-0.6-1.8-0.6-2.6,0c0,0,0,0,0,0l-3.7,3c-0.8,0.6-2,0.5-2.6-0.3
					c-0.1-0.1-0.2-0.3-0.2-0.4C122.9,105.9,123,106.4,123.3,106.8z"/>
			</g>
			<path id="XMLID_322_" class="st28" d="M140.5,113.3"/>
			<path id="XMLID_321_" class="st27" d="M149.8,106.6c-0.5,3.8-2.2,6.2-5.4,9l-8.4,7.6l-15.5-5.3l11-10.5"/>
			<path id="XMLID_320_" class="st31" d="M132.3,105.3c0.1-0.1,2.8-2.7,2.8-2.7s5.3,3.1,5.4,3c0.1,0,0.9,1.6,0,2.1
				c-0.9,0.6-5.5,2.9-5.9,2.9C134.4,110.7,132.3,105.3,132.3,105.3z"/>
			<polyline id="XMLID_319_" class="st27" points="149.8,106.6 153,103.5 144.7,96.3 143.8,97.1 142.5,98.5 			"/>
			<path id="XMLID_318_" class="st20" d="M130.6,120.4l-0.4-0.4c-0.9-0.6-1.8,0.1-1.1-0.8l1.7-2.4c0.6-0.9,1.9-1.1,2.8-0.5l0,0
				c0.9,0.6,1.1,1.9,0.5,2.8l-1.7,2.4C131.7,122.4,131.5,121,130.6,120.4z"/>
			<path id="XMLID_317_" class="st20" d="M146.6,109c0,0,0.1,0,0.1,0l-0.6,0L146.6,109z"/>
			<path id="XMLID_316_" class="st19" d="M127.5,115.2l-6.4,6c-0.8,0.8-2,0.8-2.8,0l0,0c-0.8-0.8-0.8-2,0-2.8l15.1-14.2"/>
			<path id="XMLID_315_" class="st19" d="M136.6,117.4l-9.5,8.9c-0.8,0.8-2,0.8-2.8,0l0,0c-0.8-0.8-0.8-2,0-2.8l8.8-8"/>
			<path id="XMLID_314_" class="st27" d="M142.1,117.7l-9.6,8.9c-0.8,0.8-2,0.8-2.8,0l0,0c-0.8-0.8-0.8-2,0-2.8l6.9-6.5"/>
			<path id="XMLID_313_" class="st19" d="M133.2,115.4l-9.9,9.2c-0.8,0.8-2,0.8-2.8,0l0,0c-0.8-0.8-0.8-2,0-2.8l9.5-8.8"/>
			
				<rect id="XMLID_312_" x="147.8" y="94.3" transform="matrix(0.7142 -0.7 0.7 0.7142 -27.6399 133.2191)" class="st11" width="3.1" height="12.4"/>
			
				<rect id="XMLID_311_" x="148.7" y="93.3" transform="matrix(0.7142 -0.7 0.7 0.7142 -26.7304 133.612)" class="st20" width="3.1" height="12.4"/>
			<path id="XMLID_310_" class="st7" d="M207.6,54.7l-52,51L145.1,95l63.3-62.5l0,0C214.1,38.9,213.7,48.7,207.6,54.7z"/>
			<path id="XMLID_309_" class="st32" d="M156.4,100c0.4,0.4,0.4,1.1,0,1.5c-0.4,0.4-1.1,0.4-1.5,0c-0.4-0.4-0.4-1.1,0-1.5
				C155.3,99.6,155.9,99.6,156.4,100z"/>
			<g id="XMLID_307_">
				<path id="XMLID_308_" class="st33" d="M131.7,126.2c0.1-0.1,0.2-0.1,0.3-0.2l0.7-0.6c0.5-0.5,0.6-1.2,0.1-1.8
					c-0.5-0.5-1.2-0.6-1.8-0.1l-0.7,0.6c-0.5,0.5-0.6,1.2-0.1,1.8C130.6,126.3,131.2,126.4,131.7,126.2z"/>
			</g>
			<path id="XMLID_306_" class="st20" d="M129.1,125.4c0,0,0.8,1,2.2,0.2c1.1-0.6,10.5-9.8,14.3-13.6c1-1,1.7-2.4,1.8-3.9l0,0
				c0.1-1.3-0.2-2.6-0.9-3.6l-3.9-6l1.3-1.3l7.7,7.8l-1.7,1.7c0,0-0.3,1.6-1,3.7c-0.2,0.5-1,2-2.6,3.7c-4.7,4.3-13.6,12.6-13.6,12.6
				S129.9,128.4,129.1,125.4z"/>
			<g id="XMLID_304_">
				<path id="XMLID_305_" class="st33" d="M120.5,120.7c0.1,0,0.2-0.1,0.3-0.2l0.7-0.6c0.5-0.5,0.6-1.2,0.1-1.8
					c-0.5-0.5-1.2-0.6-1.8-0.1l-0.7,0.6c-0.5,0.5-0.6,1.2-0.1,1.8C119.5,120.8,120,120.9,120.5,120.7z"/>
			</g>
			<g id="XMLID_302_">
				<path id="XMLID_303_" class="st33" d="M123.1,105.1c0.4,0.3,0.8,0.3,1.2,0.2c0.1,0,0.2-0.1,0.3-0.2l0.7-0.6
					c0.5-0.4,0.6-1.2,0.2-1.7c0,0,0-0.1-0.1-0.1l-1.8,1.5C123.4,104.5,123.2,104.8,123.1,105.1z"/>
			</g>
			<g id="XMLID_300_">
				<path id="XMLID_301_" class="st33" d="M122.4,124.2c0.1,0,0.2-0.1,0.3-0.2l0.7-0.6c0.5-0.5,0.6-1.2,0.1-1.8
					c-0.5-0.5-1.2-0.6-1.8-0.1l-0.7,0.6c-0.5,0.5-0.6,1.2-0.1,1.8C121.4,124.3,122,124.4,122.4,124.2z"/>
			</g>
			<g id="XMLID_298_">
				<path id="XMLID_299_" class="st33" d="M126.4,125.9c0.1,0,0.2-0.1,0.3-0.2l0.7-0.6c0.5-0.5,0.6-1.2,0.1-1.8s-1.2-0.6-1.8-0.1
					l-0.7,0.6c-0.5,0.5-0.6,1.2-0.1,1.8C125.3,126,125.9,126.1,126.4,125.9z"/>
			</g>
			<g id="XMLID_294_">
				<line id="XMLID_297_" class="st34" x1="130.7" y1="99.8" x2="142.5" y2="98.5"/>
				<path id="XMLID_296_" class="st34" d="M129.6,104.1C129.6,104.1,129.6,104.1,129.6,104.1l-3.7,3c-0.8,0.6-2,0.5-2.6-0.3
					c-0.6-0.8-0.4-1.9,0.3-2.5l3.7-3c1-0.8,2.2-1.3,3.4-1.5"/>
			</g>
		</g>
		<g id="XMLID_257_">
			<path id="XMLID_291_" class="st35" d="M138.3,112.5c0.3-0.1,2.2-10,2.2-10l1.6-1.9l-1.1-3.3l-6.1-1.4l-3.8-1.3l-1,3.3
				L138.3,112.5z"/>
			<path id="XMLID_290_" class="st28" d="M125.9,113.2"/>
			<path id="XMLID_289_" class="st28" d="M131.7,109.1"/>
			<path id="XMLID_288_" class="st28" d="M126.1,99.5"/>
			<path id="XMLID_287_" class="st28" d="M129.1,110.6"/>
			<g id="XMLID_285_">
				<path id="XMLID_286_" class="st27" d="M135.5,104.6c0.2,2.8,3.4,4.7,5.2,5.5c0.9,0.4,1.3,1.4,1.1,2.3c0,0,0,0,0,0l-1.1,4.6
					c-0.2,1,0.4,2,1.4,2.2c1,0.2,1.9-0.4,2.1-1.4l1.1-4.6c0.3-1.2,0.3-2.5-0.1-3.7l-3.9-11.3"/>
			</g>
			<g id="XMLID_283_" class="st29">
				<path id="XMLID_284_" class="st30" d="M142.1,119.3c-1-0.2-1.6-1.2-1.4-2.2l1.1-4.6c0,0,0,0,0,0c0.2-0.9-0.3-1.9-1.1-2.3
					c-1.7-0.8-5-2.8-5.2-5.5l0.9-0.3c0.2,2.8,3.4,4.7,5.2,5.5c0.9,0.4,1.3,1.4,1.1,2.3c0,0,0,0,0,0l-1.1,4.6c-0.2,1,0.4,2,1.4,2.2
					c0.2,0,0.3,0,0.5,0C143.1,119.2,142.6,119.4,142.1,119.3z"/>
			</g>
			<path id="XMLID_282_" class="st28" d="M128.8,106.5"/>
			<path id="XMLID_281_" class="st27" d="M130.8,95.2c-3.2,2.1-4.7,4.6-5.9,8.7l-3.2,10.8l11.4,11.7l4.5-13.1"/>
			<path id="XMLID_280_" class="st35" d="M139.5,110.5c0-0.1,1.2-3.7,1.2-3.7s-5.1-3.5-5.1-3.6c0-0.1-1.8-0.2-1.9,0.9
				c-0.1,1.1-0.2,6.2-0.1,6.5C133.8,110.9,139.5,110.5,139.5,110.5z"/>
			<polyline id="XMLID_279_" class="st27" points="130.8,95.2 132.3,91 142.4,95.4 142,96.5 141.3,98.3 			"/>
			<path id="XMLID_278_" class="st20" d="M126.7,118.4l0.5,0.2c1,0.5,0.6,1.6,1.2,0.7l1.4-2.6c0.5-1,0.2-2.2-0.8-2.7l0,0
				c-1-0.5-2.2-0.2-2.7,0.8l-1.4,2.6C124.3,118.4,125.7,117.9,126.7,118.4z"/>
			<path id="XMLID_277_" class="st20" d="M130,99.1c0,0,0-0.1-0.1-0.1l0.3,0.5L130,99.1z"/>
			<path id="XMLID_276_" class="st27" d="M132.6,119l-2.7,8.3c-0.4,1,0.2,2.2,1.2,2.5l0,0c1,0.4,2.2-0.2,2.5-1.2l6.3-19.7"/>
			<path id="XMLID_275_" class="st27" d="M126.8,111.8l-4,12.4c-0.4,1,0.2,2.2,1.2,2.5h0c1,0.4,2.2-0.2,2.5-1.2l3.5-11.4"/>
			<path id="XMLID_274_" class="st27" d="M124.1,106.9l-3.9,12.5c-0.4,1,0.2,2.2,1.2,2.5l0,0c1,0.4,2.2-0.2,2.5-1.2l2.9-9"/>
			<path id="XMLID_273_" class="st27" d="M130.1,114l-4,12.8c-0.4,1,0.2,2.2,1.2,2.5h0c1,0.4,2.2-0.2,2.5-1.2l3.9-12.4"/>
			
				<rect id="XMLID_272_" x="135.1" y="86.8" transform="matrix(0.3252 -0.9457 0.9457 0.3252 4.2343 191.9766)" class="st11" width="3.1" height="12.4"/>
			
				<rect id="XMLID_271_" x="135.5" y="85.6" transform="matrix(0.3252 -0.9457 0.9457 0.3252 5.6939 191.5438)" class="st20" width="3.1" height="12.4"/>
			<path id="XMLID_270_" class="st7" d="M152.9,20.7l-23.7,68.9l14.1,4.9l29.3-84v0C164.4,8.1,155.7,12.6,152.9,20.7z"/>
			<path id="XMLID_269_" class="st32" d="M134,86.8c-0.6-0.2-1.2,0.1-1.4,0.7c-0.2,0.6,0.1,1.2,0.7,1.4c0.6,0.2,1.2-0.1,1.4-0.7
				C134.9,87.6,134.6,87,134,86.8z"/>
			<g id="XMLID_267_">
				<path id="XMLID_268_" class="st33" d="M120.9,120c0-0.1,0-0.3,0-0.4l0.2-0.9c0.2-0.7,0.9-1.1,1.5-0.9c0.7,0.2,1.1,0.9,0.9,1.5
					l-0.2,0.9c-0.2,0.7-0.9,1.1-1.5,0.9C121.3,121,121,120.5,120.9,120z"/>
			</g>
			<path id="XMLID_266_" class="st20" d="M122.9,121.8c0,0-1.3-0.3-1.2-1.9c0.1-1.3,4.4-13.7,6.1-18.7c0.5-1.4,1.5-2.5,2.7-3.2l0,0
				c1.1-0.6,2.4-0.9,3.7-0.7l7.1,0.9l0.6-1.7l-10.4-3.6l-0.8,2.3c0,0-1.3,0.9-2.9,2.5c-0.4,0.4-1.4,1.8-2.2,4
				c-1.9,6.1-5.5,17.7-5.5,17.7S119.8,122.4,122.9,121.8z"/>
			<g id="XMLID_264_">
				<path id="XMLID_265_" class="st33" d="M130.7,127.7c0-0.1,0-0.3,0-0.4l0.2-0.9c0.2-0.7,0.9-1.1,1.5-0.9c0.7,0.2,1.1,0.9,0.9,1.5
					l-0.2,0.9c-0.2,0.7-0.9,1.1-1.5,0.9C131.1,128.7,130.7,128.2,130.7,127.7z"/>
			</g>
			<g id="XMLID_262_">
				<path id="XMLID_263_" class="st33" d="M126.7,127.5c0-0.1,0-0.3,0-0.4l0.2-0.9c0.2-0.7,0.9-1.1,1.5-0.9c0.7,0.2,1.1,0.9,0.9,1.5
					l-0.2,0.9c-0.2,0.7-0.9,1.1-1.5,0.9C127.1,128.5,126.7,128,126.7,127.5z"/>
			</g>
			<g id="XMLID_260_">
				<path id="XMLID_261_" class="st33" d="M123.5,124.7c0-0.1,0-0.3,0-0.4l0.2-0.9c0.2-0.7,0.9-1.1,1.5-0.9c0.7,0.2,1.1,0.9,0.9,1.5
					L126,125c-0.2,0.7-0.9,1.1-1.5,0.9C123.9,125.7,123.5,125.2,123.5,124.7z"/>
			</g>
			<g id="XMLID_258_">
				<line id="XMLID_259_" class="st34" x1="145.2" y1="109.5" x2="141.3" y2="98.3"/>
			</g>
		</g>
		<path id="XMLID_256_" class="st36" d="M150.5,27.6l1.1-3.6c5.8-18.8,27.9-26.9,44.5-16.3l5.6,3.6c15.5,10,17.7,31.9,4.5,44.8
			l-5.4,5.2"/>
		<path id="XMLID_255_" class="st27" d="M191.8,19.6L191.8,19.6c-10.6-6.5-24.5-3.2-31,7.4l0,0c-6.5,10.6-3.2,24.5,7.4,31h0
			c10.6,6.5,24.5,3.2,31-7.4l0,0C205.7,40,202.4,26.1,191.8,19.6z"/>
		<path id="XMLID_254_" class="st27" d="M170.3,58.2l-0.6,1c-0.6,0.9-1.7,1.2-2.6,0.6l0,0c-0.9-0.6-1.2-1.7-0.6-2.6l0.6-0.9"/>
		<path id="XMLID_253_" class="st17" d="M162.3,21L162.3,21c7.2-11.7,22.6-15.4,34.3-8.2l0,0c11.7,7.2,15.4,22.6,8.2,34.3l0,0
			c-7.2,11.7-22.6,15.4-34.3,8.2l0,0C158.7,48.1,155.1,32.7,162.3,21z"/>
	</g>
	<g id="XMLID_171_">
		<g id="XMLID_213_">
			<path id="XMLID_251_" class="st31" d="M132.7,130.4c0.2,0.2-3.6,9.6-3.6,9.6l0.3,2.5l-2.7,2.1l-5.9-2.1l-3.9-1l0.9-3.3
				L132.7,130.4z"/>
			<path id="XMLID_250_" class="st28" d="M122.7,123.2"/>
			<path id="XMLID_249_" class="st28" d="M125.3,129.8"/>
			<path id="XMLID_248_" class="st28" d="M115.4,134.8"/>
			<path id="XMLID_247_" class="st28" d="M124,127"/>
			<g id="XMLID_245_">
				<path id="XMLID_246_" class="st19" d="M126.1,135.6c1.6-2.2,5.4-2.1,7.4-1.9c0.9,0.1,1.9-0.4,2.2-1.3c0,0,0,0,0,0l1.6-4.5
					c0.3-1,1.4-1.5,2.4-1.1c0.9,0.4,1.4,1.4,1,2.3l-1.6,4.5c-0.4,1.2-1.2,2.3-2.1,3.1l-9.4,7.4"/>
			</g>
			<g id="XMLID_243_" class="st29">
				<path id="XMLID_244_" class="st30" d="M139.6,126.8c-1-0.4-2,0.1-2.4,1.1l-1.6,4.5c0,0,0,0,0,0c-0.3,0.9-1.2,1.4-2.2,1.3
					c-1.9-0.2-5.7-0.4-7.4,1.8l0.6,0.8c1.6-2.2,5.4-2.1,7.4-1.9c0.9,0.1,1.9-0.4,2.2-1.3c0,0,0,0,0,0l1.6-4.5c0.3-1,1.4-1.5,2.4-1.1
					c0.1,0.1,0.3,0.1,0.4,0.2C140.4,127.4,140,127,139.6,126.8z"/>
			</g>
			<path id="XMLID_242_" class="st28" d="M121.5,130.4"/>
			<path id="XMLID_241_" class="st19" d="M117.1,140.9c-1.6-3.5-1.4-6.4-0.2-10.5l3.1-10.8l16-3.7l-3.8,14.7"/>
			<path id="XMLID_240_" class="st31" d="M132.6,132.8c0,0.1-1,3.8-1,3.8s-6.1,0.2-6.2,0.3c-0.1,0.1-1.6-0.9-1.1-1.8
				c0.5-1,3.2-5.3,3.5-5.5C128.1,129.4,132.6,132.8,132.6,132.8z"/>
			<polyline id="XMLID_239_" class="st19" points="117.1,140.9 116,145.3 126.9,147 127.2,145.9 127.6,144.1 			"/>
			<path id="XMLID_238_" class="st20" d="M126.1,119.2l0.5,0.1c1.1,0.1,1.4-1,1.3,0.1l-0.2,2.9c-0.1,1.1-1,1.9-2.1,1.8l0,0
				c-1.1-0.1-1.9-1-1.8-2.1l0.2-2.9C124.1,118,125,119.1,126.1,119.2z"/>
			<path id="XMLID_237_" class="st20" d="M118.5,137.2c0,0-0.1,0-0.1,0.1l0.5-0.3L118.5,137.2z"/>
			<path id="XMLID_236_" class="st19" d="M131.5,121.9l2.2-8.4c0.3-1.1,1.3-1.7,2.4-1.5l0,0c1.1,0.3,1.7,1.3,1.5,2.4l-5.4,20"/>
			<path id="XMLID_235_" class="st19" d="M122.7,124.8l3.3-12.6c0.3-1.1,1.3-1.7,2.4-1.5l0,0c1.1,0.3,1.7,1.3,1.5,2.4l-3.2,11.5"/>
			<path id="XMLID_234_" class="st19" d="M117.8,127.5l3.5-12.7c0.3-1.1,1.3-1.7,2.4-1.5l0,0c1.1,0.3,1.7,1.3,1.5,2.4l-2.4,9.1"/>
			<path id="XMLID_233_" class="st19" d="M126.6,124.7l3.6-13c0.3-1.1,1.3-1.7,2.4-1.5l0,0c1.1,0.3,1.7,1.3,1.5,2.4l-3.4,12.5"/>
			
				<rect id="XMLID_232_" x="119.2" y="139.7" transform="matrix(-0.238 0.9713 -0.9713 -0.238 291.2541 63.3551)" class="st11" width="3.1" height="12.4"/>
			
				<rect id="XMLID_231_" x="118.9" y="141" transform="matrix(-0.238 0.9713 -0.9713 -0.238 292.1042 65.2335)" class="st20" width="3.1" height="12.4"/>
			<path id="XMLID_229_" class="st21" d="M95.4,215.5l17.3-70.8l14.5,3.6l-20.8,86.5l0,0C98.2,232.4,93.3,223.9,95.4,215.5z"/>
			<path id="XMLID_228_" class="st32" d="M115,150.5c-0.6-0.1-0.9-0.7-0.8-1.3c0.1-0.6,0.7-0.9,1.3-0.8c0.6,0.1,0.9,0.7,0.8,1.3
				C116.2,150.2,115.6,150.6,115,150.5z"/>
			<g id="XMLID_226_">
				<path id="XMLID_227_" class="st33" d="M122.2,114.8c-0.1,0.1-0.1,0.2-0.2,0.4l-0.3,0.9c-0.2,0.7,0.2,1.4,0.8,1.6
					c0.7,0.2,1.4-0.2,1.6-0.8l0.3-0.9c0.2-0.7-0.2-1.4-0.8-1.6C123,114.1,122.5,114.3,122.2,114.8z"/>
			</g>
			<path id="XMLID_225_" class="st20" d="M124.6,114c0,0-1.2-0.5-2,1c-0.6,1.1-3.7,13.9-5,19.1c-0.3,1.4-0.1,2.9,0.5,4.2l0,0
				c0.6,1.1,1.6,2,2.7,2.6l6.5,3.1l-0.4,1.8l-10.7-2.6l0.6-2.3c0,0-0.6-1.5-1.1-3.7c-0.1-0.6-0.2-2.3,0.3-4.6
				c1.7-6.1,4.9-17.9,4.9-17.9S122.3,111.8,124.6,114z"/>
			<g id="XMLID_223_">
				<path id="XMLID_224_" class="st33" d="M134.6,113.5c-0.1,0.1-0.1,0.2-0.2,0.4l-0.3,0.9c-0.2,0.7,0.2,1.4,0.8,1.6
					c0.7,0.2,1.4-0.2,1.6-0.8l0.3-0.9c0.2-0.7-0.2-1.4-0.8-1.6C135.4,112.9,134.9,113.1,134.6,113.5z"/>
			</g>
			<g id="XMLID_221_">
				<path id="XMLID_222_" class="st33" d="M140.6,128.1c-0.4,0-0.9,0.2-1.1,0.5c-0.1,0.1-0.1,0.2-0.2,0.4l-0.3,0.9
					c-0.2,0.6,0.1,1.3,0.7,1.6c0,0,0.1,0,0.1,0l0.8-2.2C140.7,128.9,140.7,128.5,140.6,128.1z"/>
			</g>
			<g id="XMLID_219_">
				<path id="XMLID_220_" class="st33" d="M131.1,111.6c-0.1,0.1-0.1,0.2-0.2,0.4l-0.3,0.9c-0.2,0.7,0.2,1.4,0.8,1.6
					c0.7,0.2,1.4-0.2,1.6-0.8l0.3-0.9c0.2-0.7-0.2-1.4-0.8-1.6C131.9,110.9,131.4,111.1,131.1,111.6z"/>
			</g>
			<g id="XMLID_217_">
				<path id="XMLID_218_" class="st33" d="M126.9,112.2c-0.1,0.1-0.1,0.2-0.2,0.4l-0.3,0.9c-0.2,0.7,0.2,1.4,0.8,1.6
					c0.7,0.2,1.4-0.2,1.6-0.8l0.3-0.9c0.2-0.7-0.2-1.4-0.8-1.6C127.7,111.6,127.2,111.8,126.9,112.2z"/>
			</g>
			<g id="XMLID_214_">
				<line id="XMLID_216_" class="st34" x1="136.9" y1="136.7" x2="127.6" y2="144.1"/>
				<path id="XMLID_215_" class="st34" d="M135.6,132.4C135.6,132.4,135.6,132.4,135.6,132.4l1.6-4.5c0.3-1,1.4-1.5,2.4-1.1
					c0.9,0.4,1.4,1.4,1,2.3l-1.6,4.5c-0.4,1.2-1.2,2.3-2.1,3.1"/>
			</g>
		</g>
		<g id="XMLID_176_">
			<path id="XMLID_212_" class="st19" d="M123.8,129.9c-0.2,0.2,3.4,9.7,3.4,9.7l-0.3,2.5l2.7,2.2l5.9-2l3.9-1l-0.9-3.3L123.8,129.9
				z"/>
			<path id="XMLID_211_" class="st28" d="M133.9,122.8"/>
			<path id="XMLID_210_" class="st28" d="M131.2,129.3"/>
			<path id="XMLID_209_" class="st28" d="M141,134.5"/>
			<path id="XMLID_208_" class="st28" d="M132.6,126.6"/>
			<g id="XMLID_206_">
				<path id="XMLID_207_" class="st19" d="M130.4,135.1c-1.6-2.3-5.4-2.2-7.3-2c-1,0.1-1.9-0.4-2.2-1.4c0,0,0,0,0,0l-1.5-4.5
					c-0.3-1-1.4-1.5-2.4-1.1c-0.9,0.3-1.4,1.4-1.1,2.3l1.5,4.5c0.4,1.2,1.1,2.3,2.1,3.1l9.2,7.5"/>
			</g>
			<path id="XMLID_205_" class="st28" d="M135,130"/>
			<path id="XMLID_204_" class="st19" d="M139.2,140.6c1.6-3.4,1.5-6.4,0.4-10.5l-2.9-10.9l-15.9-3.9l3.1,13.5"/>
			<path id="XMLID_203_" class="st31" d="M123.8,132.3c0,0.1,0.9,3.8,0.9,3.8s6.1,0.3,6.2,0.4c0.1,0.1,1.6-0.8,1.1-1.8
				c-0.5-1-7-7.7-7.3-7.9C124.5,126.6,123.8,132.3,123.8,132.3z"/>
			<polyline id="XMLID_202_" class="st19" points="139.2,140.6 140.2,145 129.3,146.5 129.1,145.4 128.7,143.6 			"/>
			<path id="XMLID_201_" class="st20" d="M130.5,118.7l-0.5,0.1c-1.1,0.1-1.4-1.1-1.4,0l0.2,2.9c0.1,1.1,1,1.9,2.1,1.9l0,0
				c1.1-0.1,1.9-1,1.9-2.1l-0.2-2.9C132.6,117.6,131.6,118.7,130.5,118.7z"/>
			<path id="XMLID_200_" class="st20" d="M137.9,136.9c0,0,0.1,0,0.1,0.1l-0.5-0.3L137.9,136.9z"/>
			<path id="XMLID_199_" class="st19" d="M125.1,121.4l-2.1-8.5c-0.2-1.1-1.3-1.7-2.4-1.5h0c-1.1,0.2-1.7,1.3-1.5,2.4l5,20.1"/>
			<path id="XMLID_198_" class="st19" d="M133.9,124.5l-3.1-12.6c-0.2-1.1-1.3-1.7-2.4-1.5l0,0c-1.1,0.2-1.7,1.3-1.5,2.4l3,11.5"/>
			<path id="XMLID_197_" class="st19" d="M138.8,127.1l-3.3-12.7c-0.2-1.1-1.3-1.7-2.4-1.5l0,0c-1.1,0.2-1.7,1.3-1.5,2.4l2.3,9.2"/>
			<path id="XMLID_196_" class="st19" d="M130,124.2l-3.3-13c-0.2-1.1-1.3-1.7-2.4-1.5l0,0c-1.1,0.2-1.7,1.3-1.5,2.4l3.2,12.6"/>
			
				<rect id="XMLID_195_" x="133.9" y="139.4" transform="matrix(0.2221 0.975 -0.975 0.2221 247.3066 -18.8449)" class="st11" width="3.1" height="12.4"/>
			
				<rect id="XMLID_194_" x="134.2" y="140.6" transform="matrix(0.2221 0.975 -0.975 0.2221 248.7787 -18.1348)" class="st20" width="3.1" height="12.4"/>
			<path id="XMLID_192_" class="st21" d="M159.7,215.6l-16.1-71l-14.6,3.3l19.4,86.8h0C156.7,232.3,161.6,223.9,159.7,215.6z"/>
			<path id="XMLID_191_" class="st32" d="M141.5,149.8c0.6-0.1,1-0.7,0.8-1.3c-0.1-0.6-0.7-1-1.3-0.8c-0.6,0.1-1,0.7-0.8,1.3
				C140.3,149.6,140.9,150,141.5,149.8z"/>
			<g id="XMLID_189_">
				<path id="XMLID_190_" class="st33" d="M134.6,114.4c0.1,0.1,0.1,0.2,0.2,0.4l0.3,0.9c0.2,0.7-0.2,1.4-0.8,1.6
					c-0.7,0.2-1.4-0.2-1.6-0.8l-0.3-0.9c-0.2-0.7,0.2-1.4,0.8-1.6C133.7,113.7,134.3,114,134.6,114.4z"/>
			</g>
			<path id="XMLID_188_" class="st20" d="M132,113.8c0,0,1.2-0.4,2,1c0.6,1.1,3.5,13.9,4.7,19.2c0.3,1.4,0.1,2.9-0.6,4.2v0
				c-0.6,1.1-1.6,2-2.8,2.5l-6.5,3l0.4,1.8l10.7-2.4l-0.6-2.3c0,0,0.6-1.5,1.1-3.7c0.1-0.6,0.3-2.3-0.2-4.6c-1.6-6.2-4.6-18-4.6-18
				S134.3,111.7,132,113.8z"/>
			<g id="XMLID_186_">
				<path id="XMLID_187_" class="st33" d="M122.2,113c0.1,0.1,0.1,0.2,0.2,0.4l0.3,0.9c0.2,0.7-0.2,1.4-0.8,1.6
					c-0.7,0.2-1.4-0.2-1.6-0.8L120,114c-0.2-0.7,0.2-1.4,0.8-1.6C121.4,112.3,121.9,112.5,122.2,113z"/>
			</g>
			<g id="XMLID_184_">
				<path id="XMLID_185_" class="st33" d="M115.9,127.4c0.4,0,0.9,0.2,1.1,0.5c0.1,0.1,0.1,0.2,0.2,0.4l0.3,0.9
					c0.2,0.6-0.1,1.3-0.7,1.5c0,0-0.1,0-0.1,0l-0.7-2.2C115.8,128.2,115.8,127.8,115.9,127.4z"/>
			</g>
			<g id="XMLID_182_">
				<path id="XMLID_183_" class="st33" d="M125.7,111c0.1,0.1,0.1,0.2,0.2,0.4l0.3,0.9c0.2,0.7-0.2,1.4-0.8,1.6
					c-0.7,0.2-1.4-0.2-1.6-0.8l-0.3-0.9c-0.2-0.7,0.2-1.4,0.8-1.6C124.9,110.4,125.4,110.6,125.7,111z"/>
			</g>
			<g id="XMLID_180_">
				<path id="XMLID_181_" class="st33" d="M129.9,111.7c0.1,0.1,0.1,0.2,0.2,0.4l0.3,0.9c0.2,0.7-0.2,1.4-0.8,1.6
					c-0.7,0.2-1.4-0.2-1.6-0.8l-0.3-0.9c-0.2-0.7,0.2-1.4,0.8-1.6C129.1,111.1,129.6,111.3,129.9,111.7z"/>
			</g>
			<g id="XMLID_177_">
				<line id="XMLID_179_" class="st34" x1="119.5" y1="136.1" x2="128.7" y2="143.6"/>
				<path id="XMLID_178_" class="st34" d="M120.9,131.8C120.9,131.8,120.9,131.8,120.9,131.8l-1.5-4.6c-0.3-1-1.4-1.5-2.4-1.1
					c-0.9,0.3-1.4,1.4-1.1,2.3l1.5,4.5c0.4,1.2,1.1,2.3,2.1,3.1"/>
			</g>
		</g>
		<path id="XMLID_174_" class="st21" d="M158.1,208.5l0.9,3.6c5,19-9.5,37.6-29.2,37.3l-6.7-0.1c-18.5-0.3-31.9-17.8-27.4-35.7
			l1.8-7.3"/>
		<path id="XMLID_173_" class="st37" d="M127.7,241.7L127.7,241.7c11.7,0,21.1-9.5,21.1-21.2l0-2.8c0-11.7-9.5-21.1-21.2-21.1h0
			c-11.7,0-21.1,9.5-21.1,21.2l0,2.8C106.5,232.3,116,241.7,127.7,241.7z"/>
		<path id="XMLID_172_" class="st19" d="M125.6,197.6l0-1.1c0-1.1,0.8-1.9,1.9-1.9h0c1.1,0,1.9,0.8,1.9,1.9l0,1.1"/>
	</g>
	<path id="XMLID_170_" class="st17" d="M142.3,210.4l-4,0c-0.9,0-1.7-0.8-1.7-1.7l0,0c0-4.4-3.6-8-8-8l0,0c-4.4,0-8,3.6-8,8l0,0.3
		c0,0.9-0.8,1.7-1.7,1.7h-6.1c-4.6,0-8.4,3.8-8.4,8.4v4.1c0,12.8,10.4,23.2,23.2,23.2h0c12.8,0,23.2-10.4,23.2-23.2v-4.4
		C150.7,214.2,146.9,210.4,142.3,210.4z"/>
	<g id="XMLID_94_">
		<g id="XMLID_132_">
			<path id="XMLID_169_" class="st31" d="M120.3,123.2c-0.1,0.3-10.3-0.4-10.3-0.4l-2.3,1.1l-2.9-1.9l0.2-6.3l-0.2-4l3.5-0.1
				L120.3,123.2z"/>
			<path id="XMLID_168_" class="st28" d="M124.1,111.4"/>
			<path id="XMLID_167_" class="st28" d="M118.6,116"/>
			<path id="XMLID_166_" class="st28" d="M110.8,108.1"/>
			<path id="XMLID_165_" class="st28" d="M120.8,113.8"/>
			<g id="XMLID_163_">
				<path id="XMLID_164_" class="st19" d="M113.3,118.4c2.6,0.9,3.7,4.5,4,6.4c0.2,0.9,1,1.7,1.9,1.7c0,0,0,0,0,0l4.8,0.1
					c1,0,1.8,0.9,1.8,1.9c-0.1,1-0.9,1.7-1.9,1.7l-4.7-0.1c-1.3,0-2.5-0.4-3.6-1.1l-9.9-6.6"/>
			</g>
			<g id="XMLID_161_" class="st29">
				<path id="XMLID_162_" class="st30" d="M125.8,128.6c0.1-1-0.7-1.9-1.8-1.9l-4.8-0.1c0,0,0,0,0,0c-1,0-1.8-0.7-1.9-1.7
					c-0.4-1.9-1.4-5.6-4-6.4l-0.6,0.8c2.6,0.9,3.7,4.5,4,6.4c0.2,0.9,1,1.7,1.9,1.7c0,0,0,0,0,0l4.8,0.1c1,0,1.8,0.9,1.8,1.9
					c0,0.2,0,0.3-0.1,0.4C125.5,129.6,125.8,129.1,125.8,128.6z"/>
			</g>
			<path id="XMLID_160_" class="st28" d="M116.9,112.5"/>
			<path id="XMLID_159_" class="st19" d="M105.5,111.6c2.8-2.5,5.7-3.3,9.9-3.4l11.3-0.4l8.4,14.1l-15.2,1"/>
			<path id="XMLID_158_" class="st31" d="M118,123.9c-0.1,0-3.9,0.2-3.9,0.2s-2.1-5.8-2.2-5.8c-0.1,0,0.3-1.8,1.4-1.6
				c1.1,0.2,6.1,1.4,6.3,1.6C119.8,118.5,118,123.9,118,123.9z"/>
			<polyline id="XMLID_157_" class="st19" points="105.5,111.6 101,111.9 102.7,122.8 103.9,122.7 105.7,122.5 			"/>
			<path id="XMLID_156_" class="st20" d="M129,113.5l0,0.5c0.3,1.1,1.4,1,0.4,1.3l-2.8,0.7c-1.1,0.3-2.1-0.4-2.4-1.4l0,0
				c-0.3-1.1,0.4-2.1,1.4-2.4l2.8-0.7C129.5,111.2,128.7,112.4,129,113.5z"/>
			<path id="XMLID_155_" class="st20" d="M109.4,111.8C109.4,111.8,109.4,111.7,109.4,111.8l0.4,0.3L109.4,111.8z"/>
			<path id="XMLID_154_" class="st19" d="M128,119.4l8.7-0.5c1.1-0.1,2,0.7,2.1,1.8l0,0c0.1,1.1-0.7,2-1.8,2.1l-20.7,1"/>
			<path id="XMLID_153_" class="st19" d="M122.5,111.9l13-0.7c1.1-0.1,2,0.7,2.1,1.8l0,0c0.1,1.1-0.7,2-1.8,2.1l-11.9,0.5"/>
			<path id="XMLID_152_" class="st19" d="M118.5,108.1l13.1-0.6c1.1-0.1,2,0.7,2.1,1.8l0,0c0.1,1.1-0.7,2-1.8,2.1l-9.4,0.5"/>
			<path id="XMLID_151_" class="st19" d="M123.8,115.6l13.4-0.6c1.1-0.1,2,0.7,2.1,1.8v0c0.1,1.1-0.7,2-1.8,2.1l-13,0.6"/>
			
				<rect id="XMLID_150_" x="100.3" y="110.4" transform="matrix(-0.9974 7.205238e-02 -7.205238e-02 -0.9974 211.8108 225.5647)" class="st11" width="3.1" height="12.4"/>
			
				<rect id="XMLID_149_" x="99" y="110.5" transform="matrix(-0.9974 7.206437e-02 -7.206437e-02 -0.9974 209.2084 225.8461)" class="st20" width="3.1" height="12.4"/>
			<path id="XMLID_148_" class="st14" d="M27.8,113.8l72.6-5.3l1.1,14.9l-88.7,6.8v0C12.7,121.7,19.2,114.4,27.8,113.8z"/>
			<path id="XMLID_147_" class="st32" d="M95.7,112.5c0-0.6,0.4-1.1,1-1.2c0.6,0,1.1,0.4,1.2,1c0,0.6-0.4,1.1-1,1.2
				C96.3,113.5,95.8,113.1,95.7,112.5z"/>
			<g id="XMLID_145_">
				<path id="XMLID_146_" class="st33" d="M131.9,108.3c-0.1,0-0.3-0.1-0.4-0.1l-0.9,0c-0.7,0-1.3,0.6-1.2,1.3
					c0,0.7,0.6,1.3,1.3,1.2l0.9,0c0.7,0,1.3-0.6,1.2-1.3C132.8,109,132.4,108.5,131.9,108.3z"/>
			</g>
			<path id="XMLID_144_" class="st20" d="M133.4,110.4c0,0,0.1-1.3-1.5-1.6c-1.3-0.3-14.3,0.7-19.7,1.1c-1.5,0.1-2.8,0.8-3.8,1.8
				l0,0c-0.9,0.9-1.5,2.1-1.6,3.4l-0.9,7.1l-1.8,0.2l-0.8-11l2.4-0.1c0,0,1.2-1,3.2-2.1c0.5-0.3,2.1-0.9,4.4-1.1
				c6.3-0.3,18.6-0.8,18.6-0.8S134.8,107.6,133.4,110.4z"/>
			<g id="XMLID_142_">
				<path id="XMLID_143_" class="st33" d="M136.9,119.8c-0.1,0-0.3-0.1-0.4-0.1l-0.9,0c-0.7,0-1.3,0.6-1.2,1.3
					c0,0.7,0.6,1.3,1.3,1.2l0.9,0c0.7,0,1.3-0.6,1.2-1.3C137.8,120.4,137.4,119.9,136.9,119.8z"/>
			</g>
			<g id="XMLID_140_">
				<path id="XMLID_141_" class="st33" d="M124.9,130c-0.1-0.4-0.4-0.8-0.8-0.9c-0.1,0-0.3-0.1-0.4-0.1l-0.9,0
					c-0.6,0-1.2,0.5-1.3,1.1c0,0,0,0.1,0,0.1l2.4,0.1C124.2,130.3,124.6,130.2,124.9,130z"/>
			</g>
			<g id="XMLID_138_">
				<path id="XMLID_139_" class="st33" d="M137.7,115.8c-0.1,0-0.3-0.1-0.4-0.1l-0.9,0c-0.7,0-1.3,0.6-1.2,1.3
					c0,0.7,0.6,1.3,1.3,1.2l0.9,0c0.7,0,1.3-0.6,1.2-1.3C138.6,116.5,138.2,116,137.7,115.8z"/>
			</g>
			<g id="XMLID_136_">
				<path id="XMLID_137_" class="st33" d="M135.8,112c-0.1,0-0.3-0.1-0.4-0.1l-0.9,0c-0.7,0-1.3,0.6-1.2,1.3c0,0.7,0.6,1.3,1.3,1.2
					l0.9,0c0.7,0,1.3-0.6,1.2-1.3C136.7,112.6,136.3,112.2,135.8,112z"/>
			</g>
			<g id="XMLID_133_">
				<line id="XMLID_135_" class="st34" x1="115.6" y1="129.1" x2="105.7" y2="122.5"/>
				<path id="XMLID_134_" class="st34" d="M119.2,126.6C119.3,126.6,119.3,126.6,119.2,126.6l4.8,0.1c1,0,1.8,0.9,1.8,1.9
					c-0.1,1-0.9,1.7-1.9,1.7l-4.7-0.1c-1.3,0-2.5-0.4-3.6-1.1"/>
			</g>
		</g>
		<g id="XMLID_98_">
			<path id="XMLID_131_" class="st19" d="M118.1,114.5c-0.3-0.1-8.2,6.2-8.2,6.2l-2.5,0.4l-1.3,3.2l3.7,5l2.1,3.5l2.9-1.9
				L118.1,114.5z"/>
			<path id="XMLID_130_" class="st28" d="M127.9,122"/>
			<path id="XMLID_129_" class="st28" d="M120.8,121.4"/>
			<path id="XMLID_128_" class="st28" d="M118.9,132.3"/>
			<path id="XMLID_127_" class="st28" d="M123.8,121.9"/>
			<g id="XMLID_125_">
				<path id="XMLID_126_" class="st19" d="M115,122.4c1.7-2.2,0.4-5.8-0.4-7.6c-0.4-0.9-0.1-1.9,0.6-2.5c0,0,0,0,0,0l3.9-2.8
					c0.8-0.6,1-1.8,0.4-2.6c-0.6-0.8-1.7-0.9-2.5-0.3l-3.8,2.8c-1,0.8-1.8,1.8-2.3,2.9l-4.3,11.1"/>
			</g>
			<path id="XMLID_124_" class="st28" d="M121.4,125.2"/>
			<path id="XMLID_123_" class="st19" d="M112.6,132.5c3.8,0.5,6.6-0.5,10.1-2.9l9.4-6.1l-1.1-16.4l-11.9,7.1"/>
			<path id="XMLID_122_" class="st31" d="M115.8,115.3c-0.1,0-3.3,2.1-3.3,2.1s1.6,5.9,1.5,6c-0.1,0.1,1.3,1.3,2.1,0.5
				c0.8-0.8,5.2-9.1,5.3-9.4C121.4,114.2,115.8,115.3,115.8,115.3z"/>
			<polyline id="XMLID_121_" class="st19" points="112.6,132.5 108.7,134.8 103.9,124.9 104.9,124.3 106.5,123.4 			"/>
			<path id="XMLID_120_" class="st20" d="M130.7,117.5l-0.3-0.5c-0.4-1,0.6-1.7-0.4-1.3l-2.7,1c-1,0.4-1.5,1.5-1.1,2.6l0,0
				c0.4,1,1.5,1.5,2.6,1.1l2.7-1C132.5,119.1,131.1,118.6,130.7,117.5z"/>
			<path id="XMLID_119_" class="st20" d="M115.7,130.1c0,0,0,0.1,0,0.1l0.1-0.6L115.7,130.1z"/>
			<path id="XMLID_118_" class="st19" d="M126.5,113.2l7.4-4.6c0.9-0.6,1.3-1.8,0.7-2.7v0c-0.6-0.9-1.8-1.3-2.7-0.7l-17.6,11"/>
			<path id="XMLID_117_" class="st19" d="M126.3,122.5l11-6.9c0.9-0.6,1.3-1.8,0.7-2.7l0,0c-0.6-0.9-1.8-1.3-2.7-0.7l-10,6.4"/>
			<path id="XMLID_116_" class="st19" d="M125.3,128l11.1-7c0.9-0.6,1.3-1.8,0.7-2.7l0,0c-0.6-0.9-1.8-1.3-2.7-0.7l-8,5"/>
			<path id="XMLID_115_" class="st19" d="M125.3,118.7l11.4-7.2c0.9-0.6,1.3-1.8,0.7-2.7l0,0c-0.6-0.9-1.8-1.3-2.7-0.7l-11,6.9"/>
			
				<rect id="XMLID_114_" x="105.2" y="124.3" transform="matrix(-0.8596 0.511 -0.511 -0.8596 265.0856 188.0913)" class="st11" width="3.1" height="12.4"/>
			
				<rect id="XMLID_113_" x="104" y="124.9" transform="matrix(-0.8596 0.511 -0.511 -0.8596 263.3334 189.9119)" class="st20" width="3.1" height="12.4"/>
			<path id="XMLID_112_" class="st14" d="M47.5,175.1l62.6-37.2l-7.6-12.9l-76.7,45.1h0C30.6,177.3,40.2,179.5,47.5,175.1z"/>
			<path id="XMLID_111_" class="st32" d="M103.9,137.5c0.3,0.5,1,0.7,1.5,0.4c0.5-0.3,0.7-1,0.4-1.5c-0.3-0.5-1-0.7-1.5-0.4
				C103.8,136.4,103.6,137,103.9,137.5z"/>
			<g id="XMLID_109_">
				<path id="XMLID_110_" class="st33" d="M136.1,120c-0.1,0.1-0.2,0.2-0.3,0.3l-0.8,0.5c-0.6,0.4-1.4,0.2-1.7-0.3
					c-0.4-0.6-0.2-1.4,0.3-1.7l0.8-0.5c0.6-0.4,1.4-0.2,1.7,0.3C136.5,119,136.4,119.6,136.1,120z"/>
			</g>
			<path id="XMLID_108_" class="st20" d="M135.8,117.4c0,0,0.8,1-0.3,2.2c-0.9,0.9-12.2,7.6-16.8,10.3c-1.3,0.7-2.7,1-4.2,0.7l0,0
				c-1.3-0.2-2.4-0.9-3.3-1.8l-4.8-5.3l-1.6,0.9l5.6,9.4l2-1.2c0,0,1.6,0.2,3.8-0.1c0.6-0.1,2.2-0.5,4.3-1.6
				c5.4-3.4,15.7-9.9,15.7-9.9S138.5,118.9,135.8,117.4z"/>
			<g id="XMLID_106_">
				<path id="XMLID_107_" class="st33" d="M133.7,107.8c-0.1,0.1-0.2,0.2-0.3,0.3l-0.8,0.5c-0.6,0.4-1.4,0.2-1.7-0.3
					c-0.4-0.6-0.2-1.4,0.3-1.7l0.8-0.5c0.6-0.4,1.4-0.2,1.7,0.3C134,106.8,134,107.4,133.7,107.8z"/>
			</g>
			<g id="XMLID_104_">
				<path id="XMLID_105_" class="st33" d="M136.6,110.6c-0.1,0.1-0.2,0.2-0.3,0.3l-0.8,0.5c-0.6,0.4-1.4,0.2-1.7-0.3
					c-0.4-0.6-0.2-1.4,0.3-1.7l0.8-0.5c0.6-0.4,1.4-0.2,1.7,0.3C136.9,109.6,136.9,110.2,136.6,110.6z"/>
			</g>
			<g id="XMLID_102_">
				<path id="XMLID_103_" class="st33" d="M137.2,114.8c-0.1,0.1-0.2,0.2-0.3,0.3l-0.8,0.5c-0.6,0.4-1.4,0.2-1.7-0.3
					c-0.4-0.6-0.2-1.4,0.3-1.7l0.8-0.5c0.6-0.4,1.4-0.2,1.7,0.3C137.6,113.8,137.5,114.4,137.2,114.8z"/>
			</g>
			<g id="XMLID_99_">
				<line id="XMLID_101_" class="st34" x1="110.8" y1="112.3" x2="106.5" y2="123.4"/>
				<path id="XMLID_100_" class="st34" d="M115.3,112.3C115.3,112.3,115.3,112.3,115.3,112.3l3.9-2.8c0.8-0.6,1-1.8,0.4-2.6
					c-0.6-0.8-1.7-0.9-2.5-0.3l-3.8,2.8c-1,0.8-1.8,1.8-2.3,2.9"/>
			</g>
		</g>
		<path id="XMLID_97_" class="st14" d="M53.8,171.4l-3.1,2C34.1,184,11.9,175.9,6.2,157l-1.9-6.4c-5.4-17.7,7.1-35.8,25.5-37
			l7.5-0.5"/>
		<path id="XMLID_96_" class="st38" d="M12.8,152.6L12.8,152.6c3.6,10.9,15.3,16.8,26.1,13.3l3.9-1.3c10.9-3.6,16.8-15.3,13.3-26.1
			l0,0c-3.6-10.9-15.3-16.8-26.1-13.3l-3.9,1.3C15.2,130,9.3,141.7,12.8,152.6z"/>
		<path id="XMLID_95_" class="st19" d="M54.2,137.1l1.1-0.4c1-0.3,2.1,0.2,2.4,1.2l0,0c0.3,1-0.2,2.1-1.2,2.4l-1,0.3"/>
	</g>
	<path id="XMLID_93_" class="st39" d="M39.2,168.5l-0.8,0.3c-11.4,3.9-23.8-2.2-27.7-13.6l-0.9-2.6c-3.9-11.4,2.2-23.8,13.6-27.7
		l0.8-0.3c11.4-3.9,23.8,2.2,27.7,13.6l0.9,2.6C56.7,152.2,50.6,164.6,39.2,168.5z"/>
</g>
</svg>
