<?xml version="1.0" encoding="utf-8"?>
<!-- Generator: Adobe Illustrator 22.1.0, SVG Export Plug-In . SVG Version: 6.00 Build 0)  -->
<svg version="1.1" id="Capa_1" xmlns="http://www.w3.org/2000/svg" xmlns:xlink="http://www.w3.org/1999/xlink" x="0px" y="0px"
	 viewBox="0 0 558.6 183.3" style="enable-background:new 0 0 558.6 183.3;" xml:space="preserve">
<style type="text/css">
	.st0{fill-rule:evenodd;clip-rule:evenodd;fill:#9A999E;}
	.st1{fill-rule:evenodd;clip-rule:evenodd;fill:#3665A8;}
	.st2{clip-path:url(#SVGID_2_);}
</style>
<g>
	<rect x="245.6" y="69.1" class="st0" width="13.7" height="80.4"/>
	<path class="st0" d="M436.5,69h83.8c12.9,0,23.5,10.6,23.5,23.5v51c3.5,2.1,5.8,5.9,5.8,10.3c0,6.6-5.4,12-12,12
		c-6.6,0-12-5.4-12-12c0-3.5,1.5-6.7,4-8.9v-18.7H427.1v23.8H413V92.5C413,79.6,423.5,69,436.5,69L436.5,69z M427.1,111.4h102.5
		V89.3c0-3.9-3.2-7.1-7.1-7.1h-88.3c-3.9,0-7.1,3.2-7.1,7.1V111.4z"/>
	<path class="st0" d="M292.9,68.5h109v13.9H293.3c-4.6,0-8.4,3.8-8.4,8.4v37.4c0,4.6,3.8,8.4,8.4,8.4h86.3c4.6,0,8.4-3.8,8.4-8.4
		v-13.6h-4.4v-13.9h4.4v0h13.7v28.2c0,11.9-9.7,21.6-21.6,21.6h-87.2c-11.9,0-21.6-9.7-21.6-21.6V90.1
		C271.3,78.2,281,68.5,292.9,68.5z"/>
	<path class="st1" d="M72.9,97.3c-20.5,0-37.4-16.8-37.4-37.4l0,0c0-20.5,16.8-37.4,37.4-37.4h160.3c3.5-5.1,9.3-8.5,16-8.5
		c10.7,0,19.3,8.6,19.3,19.3c0,10.7-8.6,19.3-19.3,19.3c-6.7,0-12.6-3.4-16.1-8.6H73.3c-8.8,0-16,7.2-16,16l0,0c0,8.8,7.2,16,16,16
		c43.5,0,86.9,0.2,130.1,0.2c20.5,0,37.4,16.8,37.4,37.4l0,0c0,20.5-16.8,37.4-37.4,37.4H43.1c-3.5,5.1-9.3,8.5-16,8.5
		c-10.7,0-19.3-8.6-19.3-19.3c0-10.7,8.6-19.3,19.3-19.3c6.7,0,12.6,3.4,16.1,8.6h159.9c8.8,0,16-7.2,16-16l0,0c0-8.8-7.2-16-16-16
		C159.5,97.5,116.3,97.3,72.9,97.3z"/>
	<g>
		<defs>
			<path id="SVGID_1_" d="M72.9,97.3c-20.5,0-37.4-16.8-37.4-37.4l0,0c0-20.5,16.8-37.4,37.4-37.4h160.3c3.5-5.1,9.3-8.5,16-8.5
				c10.7,0,19.3,8.6,19.3,19.3c0,10.7-8.6,19.3-19.3,19.3c-6.7,0-12.6-3.4-16.1-8.6H73.3c-8.8,0-16,7.2-16,16l0,0
				c0,8.8,7.2,16,16,16c43.5,0,86.9,0.2,130.1,0.2c20.5,0,37.4,16.8,37.4,37.4l0,0c0,20.5-16.8,37.4-37.4,37.4H43.1
				c-3.5,5.1-9.3,8.5-16,8.5c-10.7,0-19.3-8.6-19.3-19.3c0-10.7,8.6-19.3,19.3-19.3c6.7,0,12.6,3.4,16.1,8.6h159.9
				c8.8,0,16-7.2,16-16l0,0c0-8.8-7.2-16-16-16C159.5,97.5,116.3,97.3,72.9,97.3z"/>
		</defs>
		<clipPath id="SVGID_2_">
			<use xlink:href="#SVGID_1_"  style="overflow:visible;"/>
		</clipPath>
		<g class="st2">
			<path class="st0" d="M232.5,70l-45.3,41H-9c0,0,0.5,77.9,11.6,76.8c11.1-1.1,240.5,14.2,252.6,7.9c12.1-6.3,27.9-61,26.8-64.2
				C281,128.5,232.5,70,232.5,70z"/>
		</g>
	</g>
</g>
</svg>
