<?xml version="1.0" encoding="utf-8"?>
<!-- Generator: Adobe Illustrator 22.1.0, SVG Export Plug-In . SVG Version: 6.00 Build 0)  -->
<svg version="1.1" id="Capa_1" xmlns="http://www.w3.org/2000/svg" xmlns:xlink="http://www.w3.org/1999/xlink" x="0px" y="0px"
	 viewBox="0 0 72.9 72.9" style="enable-background:new 0 0 72.9 72.9;" xml:space="preserve">
<style type="text/css">
	.st0{fill:#E82042;}
</style>
<path class="st0" d="M55.4,35.5L28.6,17.2c-0.4-0.3-0.9-0.3-1.3-0.1c-0.4,0.2-0.6,0.6-0.6,1.1v36.5c0,0.5,0.2,0.9,0.6,1.1
	c0.2,0.1,0.4,0.1,0.6,0.1s0.5-0.1,0.7-0.2l26.7-18.2c0.3-0.2,0.5-0.6,0.5-1C55.9,36.1,55.7,35.7,55.4,35.5L55.4,35.5z"/>
<polygon class="st0" points="29.2,52.4 29.2,20.5 52.5,36.5 "/>
<path class="st0" d="M29.2,52.4"/>
<path class="st0" d="M36.5,0C16.4,0,0,16.4,0,36.5S16.4,73,36.5,73S73,56.6,73,36.5S56.6,0,36.5,0z M36.5,70.5
	c-18.8,0-34-15.3-34-34s15.3-34,34-34c18.8,0,34,15.3,34,34S55.2,70.5,36.5,70.5z"/>
<path class="st0" d="M36.5,70.5"/>
</svg>
