<?xml version="1.0" encoding="utf-8"?>
<!-- Generator: Adobe Illustrator 22.1.0, SVG Export Plug-In . SVG Version: 6.00 Build 0)  -->
<svg version="1.1" id="Capa_1" xmlns="http://www.w3.org/2000/svg" xmlns:xlink="http://www.w3.org/1999/xlink" x="0px" y="0px"
	 viewBox="0 0 448.4 282.4" style="enable-background:new 0 0 448.4 282.4;" xml:space="preserve">
<style type="text/css">
	.st0{opacity:0.5;}
	.st1{fill:#FFD671;stroke:#640917;stroke-width:1.5614;stroke-linecap:round;stroke-miterlimit:10;}
	.st2{fill:#E25959;}
	.st3{fill:#C94545;}
	.st4{fill:#CDE0DF;stroke:#640917;stroke-width:1.5614;stroke-miterlimit:10;}
	.st5{fill:#B2CCCA;}
	.st6{fill:none;stroke:#640917;stroke-width:1.5614;stroke-linecap:round;stroke-miterlimit:10;}
	.st7{fill:#F9BD67;}
	.st8{fill:none;stroke:#640917;stroke-width:1.5614;stroke-miterlimit:10;}
	.st9{fill:#CDE0DF;}
	.st10{opacity:0.15;fill:#FFFFFF;}
	.st11{fill:#F9BD67;stroke:#640917;stroke-width:1.5614;stroke-linecap:round;stroke-miterlimit:10;}
	.st12{fill:none;stroke:#CDE0DF;stroke-width:8;stroke-linecap:round;stroke-miterlimit:10;}
	.st13{fill:#F7F0ED;stroke:#640917;stroke-width:1.5614;stroke-linecap:round;stroke-miterlimit:10;}
	.st14{fill:#FFFFFF;}
	.st15{fill:#FFEDD9;stroke:#640917;stroke-width:1.5614;stroke-linecap:round;stroke-miterlimit:10;}
	.st16{fill:#FCD3B6;stroke:#640917;stroke-width:1.5614;stroke-linecap:round;stroke-miterlimit:10;}
	.st17{fill:#F7F0ED;}
	.st18{fill:#CC937D;}
	.st19{fill:#DBAA94;}
	.st20{fill:#DBAA94;stroke:#640917;stroke-width:1.5614;stroke-miterlimit:10;}
	.st21{fill:#FFFFFF;stroke:#640917;stroke-width:1.5614;stroke-linecap:round;stroke-miterlimit:10;}
	.st22{fill:#C94545;stroke:#640917;stroke-width:1.5614;stroke-linecap:round;stroke-miterlimit:10;}
	.st23{fill:#E25959;stroke:#640917;stroke-width:1.5614;stroke-linecap:round;stroke-miterlimit:10;}
	.st24{fill:#FCD3B6;}
	.st25{fill:none;stroke:#2E2F73;stroke-width:1.5614;stroke-linecap:round;stroke-miterlimit:10;}
	.st26{fill:#FFF3E4;stroke:#640917;stroke-width:1.5614;stroke-linecap:round;stroke-miterlimit:10;}
	.st27{fill:#630B18;stroke:#640917;stroke-width:1.5614;stroke-linecap:round;stroke-miterlimit:10;}
	.st28{fill:#510312;}
	.st29{fill:none;stroke:#640917;stroke-width:3.1228;stroke-linecap:round;stroke-miterlimit:10;}
	.st30{fill:none;stroke:#E25959;stroke-width:7.8069;stroke-linecap:round;stroke-miterlimit:10;}
	.st31{fill:#D34242;}
	.st32{fill:#640917;stroke:#640917;stroke-width:1.5614;stroke-miterlimit:10;}
	.st33{fill:#DBAA94;stroke:#640917;stroke-width:1.5614;stroke-linecap:round;stroke-miterlimit:10;}
	.st34{fill:none;stroke:#FFFFFF;stroke-width:6.2455;stroke-linecap:round;stroke-miterlimit:10;}
</style>
<g id="XMLID_1522_" class="st0">
	<path id="XMLID_2430_" class="st1" d="M206.6,210c0,0-9.8-31.6-67.6-26.8c-4,0.3-6.4,4.5-4.8,8.2c15.4,33.2,28.1,26.1,28.1,26.1
		L206.6,210z"/>
	<path id="XMLID_2429_" class="st2" d="M387.3,187.2c2.6,15.2-20.8,31.7-45.8,35.9c-0.4,0.1-0.8,0.1-1.3,0.2
		c-42.1,6.8-148.5,7.9-174.3,8.1c-3.3,0-6.1-2.3-6.6-5.6c-0.3-1.6,0.1-3.2,0.9-4.6c0.8-1.3,2.1-2.4,3.6-2.9
		C189.2,210,296.1,175,331,168.7c0.4-0.1,0.8-0.1,1.2-0.2C352.3,165.1,383.8,166.4,387.3,187.2z"/>
	<path id="XMLID_2428_" class="st3" d="M340.2,223.6c-42.1,6.8-148.5,7.9-174.3,8.1c-3.3,0-6.1-2.3-6.6-5.6
		c-0.3-1.6,0.1-3.2,0.9-4.6c0-0.1,0.1-0.1,0.1-0.2c0.9,0.4,1.9,0.7,3,0.7c25.1-0.2,126.6-1.3,170.8-7.6
		C335.8,217.7,337.9,220.8,340.2,223.6z"/>
	<path id="XMLID_2427_" class="st4" d="M340.2,223.3c-6-7.2-10.3-16.1-12-26c-1.7-10-0.6-19.8,2.8-28.6c0.4-0.1,0.8-0.1,1.2-0.2
		c20-3.4,51.6-2.1,55.1,18.8c2.6,15.2-20.8,31.7-45.8,35.9C341.1,223.2,340.7,223.3,340.2,223.3"/>
	<path id="XMLID_2426_" class="st5" d="M341.5,223.1c-0.4,0.1-0.8,0.1-1.3,0.2c-2.3-2.8-4.4-5.9-6.2-9.2c1.2-0.2,2.4-0.3,3.5-0.5
		c0.4-0.1,0.8-0.1,1.3-0.2c23.4-4,45.5-18.6,46-33c1.2,2,2.1,4.3,2.5,6.8C389.9,202.5,366.5,218.9,341.5,223.1z"/>
	<path id="XMLID_2425_" class="st6" d="M387.3,187.2c2.6,15.2-20.8,31.7-45.8,35.9c-0.4,0.1-0.8,0.1-1.3,0.2
		c-42.1,6.8-148.5,7.9-174.3,8.1c-3.3,0-6.1-2.3-6.6-5.6c-0.3-1.6,0.1-3.2,0.9-4.6c0.8-1.3,2.1-2.4,3.6-2.9
		C189.2,210,296.1,175,331,168.7c0.4-0.1,0.8-0.1,1.2-0.2C352.3,165.1,383.8,166.4,387.3,187.2z"/>
	<path id="XMLID_2424_" class="st1" d="M208.8,223.1c0,0,1.1,33.1-54.9,47.6c-3.9,1-7.6-2.1-7.2-6.1c3.6-36.4,17.9-33.9,17.9-33.9
		L208.8,223.1z"/>
	<path id="XMLID_2423_" class="st7" d="M205.8,235.3c-9.8,8.3-27.1,16.6-56.1,12.6c5.5-18.9,15-17.3,15-17.3l44.2-7.6
		C208.8,223.1,209,228.2,205.8,235.3z"/>
	<path id="XMLID_2422_" class="st5" d="M386.2,182.3l62-7.1l-60.9,13.7c-1.9,0.4-3.7-0.8-4-2.7l0,0
		C383,184.3,384.3,182.5,386.2,182.3z"/>
	<path id="XMLID_2421_" class="st8" d="M208.8,223.1c0,0,1.1,33.1-54.9,47.6c-3.9,1-7.6-2.1-7.2-6.1c3.6-36.4,17.9-33.9,17.9-33.9
		L208.8,223.1z"/>
	<path id="XMLID_2420_" class="st9" d="M446.4,175.2L383.3,186c0,0,0-0.1,0-0.1c0-0.2,0-0.4,0-0.6c0-1.7,1.3-3.1,3-3.3L446.4,175.2z
		"/>
	<path id="XMLID_2419_" class="st10" d="M243.4,209.8c-4.7,0.4-6-6.2-1.5-7.6c31-9.7,73.2-22.8,84.3-24.9
		c18.1-3.5,38.2-2.7,39.3,5.3c0.7,5.3-16.1,16.4-40.7,19.2C310.4,203.5,272.3,207.1,243.4,209.8z"/>
	<path id="XMLID_2418_" class="st11" d="M208.3,217.2c0,0-2.1-23.6-68.8-13.9c-3.5,0.5-5,4.7-2.7,7.3c11.6,13,27.3,14,27.3,14
		L208.3,217.2z"/>
	<path id="XMLID_2417_" class="st8" d="M386.2,182.3l62-7.1l-60.9,13.7c-1.9,0.4-3.7-0.8-4-2.7l0,0
		C383,184.3,384.3,182.5,386.2,182.3z"/>
	<line id="XMLID_2416_" class="st12" x1="26.7" y1="207.6" x2="4" y2="211.6"/>
	<line id="XMLID_2415_" class="st12" x1="105.5" y1="193.2" x2="47.6" y2="203.9"/>
	<line id="XMLID_2414_" class="st12" x1="52.8" y1="234.7" x2="37.8" y2="237.2"/>
	<line id="XMLID_2413_" class="st12" x1="122.2" y1="222.9" x2="77.1" y2="230.8"/>
	<line id="XMLID_2412_" class="st12" x1="132" y1="267.7" x2="74" y2="278.4"/>
	<line id="XMLID_1416_" class="st12" x1="66.1" y1="63.5" x2="51.5" y2="65.8"/>
	<line id="XMLID_1414_" class="st12" x1="189.3" y1="83.9" x2="131.3" y2="94.6"/>
	<line id="XMLID_1417_" class="st12" x1="103.5" y1="26.3" x2="94.5" y2="27.9"/>
	<line id="XMLID_1422_" class="st12" x1="152.4" y1="17.2" x2="123.1" y2="22.8"/>
	<line id="XMLID_1420_" class="st12" x1="146" y1="50.9" x2="89.5" y2="60.8"/>
	<path id="XMLID_2411_" class="st8" d="M332,209.8c0,0,4.3,9.6,8.3,13.5"/>
	<path id="XMLID_2410_" class="st3" d="M307.1,180.7l0.5,8.6l-87.9,23.1c-2.1,0.6-4.2-0.7-4.8-2.8l0,0c-0.5-2.1,0.7-4.2,2.8-4.7
		L307.1,180.7z"/>
	<path id="XMLID_2409_" class="st6" d="M261.7,78.5L261.7,78.5c-3.1,0-5.7-2.5-5.7-5.7v-3.6h11.4v3.6
		C267.4,76,264.9,78.5,261.7,78.5z"/>
	<g id="XMLID_2407_">
		<path id="XMLID_2408_" class="st13" d="M248.4,82.1c-0.1,0-0.2,0-0.3,0l-4.3-0.2c-11.9-0.6-22.9-5.7-31.1-14.4l-7.4-7.9
			c-2-2.1-1.9-5.3,0.2-7.3c2.1-1.9,5.3-1.9,7.3,0.2l7.4,7.9c6.4,6.7,14.9,10.7,24.2,11.2l4.3,0.2c2.8,0.1,5,2.6,4.9,5.4
			C253.3,80,251.1,82.1,248.4,82.1z"/>
	</g>
	<g id="XMLID_2405_">
		<path id="XMLID_2406_" class="st14" d="M253.5,77.3c0,0.3,0,0.5-0.1,0.8c-0.5,0.1-1,0.2-1.5,0.2c-0.1,0-0.2,0-0.3,0l-4.3-0.2
			c-11.9-0.6-22.9-5.7-31.1-14.4l-7.4-7.9c-1.2-1.3-1.6-3-1.3-4.6c1.8-0.5,3.8-0.1,5.2,1.4l7.4,7.9c6.4,6.7,14.9,10.7,24.2,11.2
			l4.3,0.2C251.4,72,253.6,74.4,253.5,77.3z"/>
	</g>
	<g id="XMLID_2403_">
		<path id="XMLID_2404_" class="st6" d="M248.4,82.1c-0.1,0-0.2,0-0.3,0l-4.3-0.2c-11.9-0.6-22.9-5.7-31.1-14.4l-7.4-7.9
			c-2-2.1-1.9-5.3,0.2-7.3c2.1-1.9,5.3-1.9,7.3,0.2l7.4,7.9c6.4,6.7,14.9,10.7,24.2,11.2l9.4,0.2c2.8,0.1-0.1,2.6-0.3,5.4
			C253.3,80,251.1,82.1,248.4,82.1z"/>
	</g>
	<g id="XMLID_2401_">
		<path id="XMLID_2402_" class="st14" d="M313.9,105C313.8,105,313.8,105,313.9,105c-15.6-0.3-30.2-6.5-41.2-17.5l-4.7-4.8
			c-1.9-1.9-1.9-5,0-6.9c1.9-1.9,5-1.9,6.9,0l4.7,4.8c9.1,9.2,21.3,14.4,34.3,14.6c2.7,0.1,4.9,2.3,4.8,5
			C318.7,102.8,316.5,105,313.9,105z"/>
	</g>
	<g id="XMLID_2399_">
		<path id="XMLID_2400_" class="st15" d="M208.7,60.8c-1.3,0-2.6-0.5-3.6-1.6l-2.6-2.7c-1.9-2-1.8-5.2,0.2-7.1
			c2-1.9,5.2-1.8,7.1,0.2l2.6,2.7c1.9,2,1.8,5.2-0.2,7.1C211.2,60.4,210,60.8,208.7,60.8z"/>
	</g>
	<g id="XMLID_2397_">
		<path id="XMLID_2398_" class="st16" d="M326.3,102.3h-10.7c-1,0-1.8-0.8-1.8-1.8c0-1,0.8-1.8,1.8-1.8h10.7c1,0,1.8,0.8,1.8,1.8
			C328.1,101.5,327.3,102.3,326.3,102.3z"/>
	</g>
	<g id="XMLID_2395_">
		<path id="XMLID_2396_" class="st17" d="M315.2,104.8c-0.4,0.1-0.8,0.2-1.3,0.2c0,0-0.1,0-0.1,0c-14.1-0.3-27.4-5.4-37.9-14.6v-6.2
			c9.8,9.3,22.2,14.9,35.6,16.2C311.6,102.5,313.1,104.3,315.2,104.8z"/>
	</g>
	<g id="XMLID_2393_">
		<path id="XMLID_2394_" class="st16" d="M327.4,101.1h-10.7c-1,0-1.8-0.8-1.8-1.8c0-1,0.8-1.8,1.8-1.8h10.7c1,0,1.8,0.8,1.8,1.8
			C329.2,100.3,328.4,101.1,327.4,101.1z"/>
	</g>
	<g id="XMLID_2391_">
		<path id="XMLID_2392_" class="st18" d="M252.8,199.3c-2.6,0-5-1.5-6.1-4L235.9,171c-3-6.9-2.7-14.8,0.9-21.4l10.8-24.4
			c1.5-3.4,5.5-4.9,8.8-3.4c3.4,1.5,5.8,3.5,4.3,6.9l-11.9,27l-0.2,0.3c-1.7,2.9-1.9,6.5-0.5,9.6l10.8,24.3c1.5,3.4,0,7.3-3.4,8.8
			C254.6,199.1,253.7,199.3,252.8,199.3z"/>
	</g>
	<g id="XMLID_2389_">
		<path id="XMLID_2390_" class="st19" d="M248.4,156c-1.7,2.9-1.9,6.5-0.5,9.6l10.8,24.3c1.4,3.1,0.2,6.7-2.6,8.4
			c-1.1-0.7-2-1.7-2.6-3L242.8,171c-3-6.9-2.7-14.8,0.9-21.4l10.8-24.4c0.6-1.3,1.5-2.3,2.6-3c2.9,1.5,4.8,3.4,3.4,6.5l-11.9,27
			L248.4,156z"/>
	</g>
	<g id="XMLID_2387_">
		<path id="XMLID_2388_" class="st18" d="M300.5,188.9c-1.8,0-3.6-0.7-5-2.2l-21.4-23.6c-3.8-4.2-6.5-9.4-7.8-14.9l-4.9-20.8
			c-0.8-3.6,2.1-4,5.7-4.9c3.6-0.8,7.2,1.4,8.1,5l4.1,17.6c0.8,3.3,2.4,6.4,4.7,9l21.4,23.6c2.5,2.7,2.3,7-0.5,9.5
			C303.7,188.4,302.1,188.9,300.5,188.9z"/>
	</g>
	<g id="XMLID_2385_">
		<path id="XMLID_2386_" class="st19" d="M306.6,186.7c-0.2,0-0.3,0-0.5,0c-1.8,0-3.6-0.7-5-2.2l-21.4-23.6
			c-3.8-4.2-6.5-9.4-7.8-14.9l-5.3-22.5c0.4-0.1,0.8-0.2,1.2-0.3c3.6-0.8,7.2,1.4,8.1,5l4.1,17.6c0.8,3.3,2.4,6.4,4.7,9l21.4,23.6
			C308.3,180.7,308.4,184.2,306.6,186.7z"/>
	</g>
	<g id="XMLID_2383_">
		<path id="XMLID_2384_" class="st8" d="M252.8,199.3c-2.6,0-5-1.5-6.1-4L235.9,171c-3-6.9-2.7-14.8,0.9-21.4l10.8-24.4
			c1.5-3.4,5.5-4.9,8.8-3.4c3.4,1.5,5.8,3.5,4.3,6.9l-11.9,27l-0.2,0.3c-1.7,2.9-1.9,6.5-0.5,9.6l10.8,24.3c1.5,3.4,0,7.3-3.4,8.8
			C254.6,199.1,253.7,199.3,252.8,199.3z"/>
	</g>
	<g id="XMLID_2381_">
		<path id="XMLID_2382_" class="st8" d="M300.5,188.9c-1.8,0-3.6-0.7-5-2.2l-21.4-23.6c-3.8-4.2-6.5-9.4-7.8-14.9l-4.9-20.8
			c-0.8-3.6,2.1-4,5.7-4.9c3.6-0.8,7.7,3.1,8.6,6.7l3.6,15.9c0.8,3.3,2.4,6.4,4.7,9l21.4,23.6c2.5,2.7,2.3,7-0.5,9.5
			C303.7,188.4,302.1,188.9,300.5,188.9z"/>
	</g>
	<polyline id="XMLID_2380_" class="st20" points="246.2,128.6 246.2,118.7 275.9,118.7 275.9,129.2 	"/>
	<g id="XMLID_2378_">
		<path id="XMLID_2379_" class="st6" d="M313.9,105C313.8,105,313.8,105,313.9,105c-15.6-0.3-30.2-6.5-41.2-17.5l-4.7-4.8
			c-1.9-1.9-1.9-5,0-6.9c1.9-1.9,5-1.9,6.9,0l4.7,4.8c9.1,9.2,21.3,14.4,34.3,14.6c2.7,0.1,4.9,2.3,4.8,5
			C318.7,102.8,316.5,105,313.9,105z"/>
	</g>
	<path id="XMLID_57_" class="st21" d="M252.1,72.6c0.5-0.1,1.1-0.2,1.7-0.2h14.4c2.2,0,4.2,0.9,5.6,2.4"/>
	<polyline id="XMLID_2376_" class="st21" points="275.9,83.8 275.9,120.2 246.2,120.2 246.2,81.4 	"/>
	<path id="XMLID_2375_" class="st22" d="M171.7,54.2l-7.7-9.5c-4.5-5.5-3.6-13.6,1.9-18.1l24.1-19.5c5.5-4.5,13.6-3.6,18.1,1.9
		l7.7,9.5c4.5,5.5,3.6,13.6-1.9,18.1l-24.1,19.5C184.2,60.6,176.1,59.7,171.7,54.2z"/>
	<path id="XMLID_2374_" class="st23" d="M168.7,50.8l-7.7-9.5c-4.5-5.5-3.6-13.6,1.9-18.1l24.1-19.5c5.5-4.5,13.6-3.6,18.1,1.9
		l7.7,9.5c4.5,5.5,3.6,13.6-1.9,18.1l-24.1,19.5C181.3,57.2,173.2,56.3,168.7,50.8z"/>
	<g id="XMLID_2372_">
		<path id="XMLID_2373_" class="st15" d="M319,105.1c-0.1,0-0.2,0-0.3,0l-2.7-0.2c-2.7-0.2-4.8-2.5-4.6-5.2c0.2-2.7,2.5-4.7,5.2-4.6
			l2.7,0.2c2.7,0.2,4.8,2.5,4.6,5.2C323.8,103.1,321.6,105.1,319,105.1z"/>
	</g>
	<path id="XMLID_2371_" class="st14" d="M254.6,72.2l17.6,2.1l1.8,1.3l1.5,19l-28.9-8.4c0,0,0.2-6.2-0.1-6.2c-0.2,0-1.2-7.9-1.2-7.9
		L254.6,72.2z"/>
	<path id="XMLID_2370_" class="st15" d="M256,67.4v4.7c0,0.1,0,0.3,0,0.4c0.2,2.7,2.5,5.6,5.2,5.6h2.9c1.8,0,3.3-2.3,3.3-4.1v-4.9
		L256,67.4z"/>
	<path id="XMLID_2367_" class="st24" d="M256,67.8v4.3c0,0.1,0,0.3,0,0.4c1.7,0.9,3.7,1.4,5.7,1.4h2c1.3,0,2.5-0.2,3.7-0.7
		c0,0,0,0,0,0v-3.7l0,0L256,67.8z"/>
	<path id="XMLID_2366_" class="st6" d="M256,67.4v4.7c0,0.1,0,0.3,0,0.4c0.2,2.7,2.5,4.8,5.2,4.8h2.9c1.8,0,3.3-1.5,3.3-3.3v-4.9
		L256,67.4z"/>
	<g id="XMLID_2364_">
		<path id="XMLID_2365_" class="st15" d="M317.7,98.9h5.3c1,0,1.8,0.8,1.8,1.8c0,1-0.8,1.8-1.8,1.8h-5.3"/>
	</g>
	<path id="XMLID_2363_" class="st15" d="M252,50.7l0,8.4l0,0c0,6.7,5.4,12.1,12.1,12.1h2c5.6,0,10.1-4.5,10.1-10.1V50.3v-1.5
		c0-3.4-2.8-6.2-6.2-6.2l-11.8,0c-3.4,0-6.2,2.8-6.2,6.2v3"/>
	
		<rect id="XMLID_2362_" x="271.6" y="52.1" transform="matrix(-1 -1.224647e-16 1.224647e-16 -1 547.8152 107.8778)" class="st24" width="4.6" height="3.6"/>
	<path id="XMLID_2361_" class="st24" d="M264.5,55.7L264.5,55.7c1.8,0,3.3-1.5,3.3-3.3v-0.3h-6.3v0.5
		C261.5,54.4,262.8,55.7,264.5,55.7z"/>
	<path id="XMLID_2358_" class="st24" d="M252,50.7l0,8.4c0,0,0,0,0,0c0,6.7,5.4,12.1,12.1,12.1h2c0.1,0,0.3,0,0.4,0
		c-6.5-0.2-11.7-5.6-11.7-12.1c0,0,0,0,0,0l0-8.4l0,1v-3c0-3.4,2.8-6.2,6.2-6.2h-2.8c-3.4,0-6.2,2.8-6.2,6.2v3L252,50.7z"/>
	<path id="XMLID_2357_" class="st6" d="M252,50.7l0,8.4l0,0c0,6.7,5.4,12.1,12.1,12.1h2c5.6,0,10.1-4.5,10.1-10.1V50.2v-1.5
		c0-3.4-2.8-6.2-6.2-6.2l-11.8,0c-3.4,0-6.2,2.8-6.2,6.2v3"/>
	<path id="XMLID_2356_" class="st25" d="M278.6,51.8"/>
	<path id="XMLID_2355_" class="st6" d="M269.8,60.9c1,0,1.8-0.8,1.8-1.8V55"/>
	<path id="XMLID_2354_" class="st6" d="M265.9,55.8c0-0.7-0.6-1.3-1.3-1.3c-0.7,0-1.3,0.6-1.3,1.3"/>
	<path id="XMLID_2353_" class="st6" d="M276.2,55.8c0-0.7-0.6-1.3-1.3-1.3s-1.3,0.6-1.3,1.3"/>
	<path id="XMLID_2352_" class="st26" d="M250.5,57.5"/>
	<g id="XMLID_2350_">
		<path id="XMLID_2351_" class="st16" d="M209.1,52.1l-0.1-4.3c0-1,0.8-1.9,1.8-1.9c1,0,1.9,0.8,1.9,1.8l0.1,5.5"/>
	</g>
	<path id="XMLID_2349_" class="st27" d="M262.2,52.4h4.7c0.4,0,0.8-0.4,0.8-0.8l0,0c0-0.4-0.4-0.8-0.8-0.8h-4.7
		c-0.4,0-0.8,0.4-0.8,0.8l0,0C261.5,52,261.8,52.4,262.2,52.4z"/>
	<g id="XMLID_2347_">
		<path id="XMLID_2348_" class="st27" d="M249.9,41.9c0-1,0.8-1.9,1.9-1.9c0,0,0,0,0.1,0c0-0.2-0.1-0.4-0.1-0.6c0-1.7,1.3-3,3-3l0,0
			c0.8,0,1.6,0.3,2.1,0.9c1.3-0.6,2.8-0.9,4.3-0.9H274c3.4,0,6.2,2.8,6.2,6.2v0c0,3.4-2.8,6.2-6.2,6.2h-13.2c-1.9,0-3.6,1.3-4,3.2
			l-0.9,4.3c-0.3,1.4-2.2,1.7-2.9,0.4l-2.6-2.1v-7.3c0-1.2,0.2-2.3,0.6-3.4C250.4,43.4,249.9,42.7,249.9,41.9z"/>
	</g>
	<g id="XMLID_2345_">
		<path id="XMLID_2346_" class="st6" d="M249.9,41.9c0-1,0.8-1.9,1.9-1.9c0,0,0,0,0.1,0c0-0.2-0.1-0.4-0.1-0.6c0-1.7,1.3-3,3-3l0,0
			c0.8,0,1.6,0.3,2.1,0.9c1.3-0.6,2.8-0.9,4.3-0.9H274c3.4,0,6.2,2.8,6.2,6.2l0,0c0,3.4-2.8,6.2-6.2,6.2h-13.2c-1.9,0-3.6,1.3-4,3.2
			l-0.9,4.3c-0.3,1.4-2.2,1.7-2.9,0.4l-2.6-2.1v-7.3c0-1.2,0.2-2.3,0.6-3.4C250.4,43.4,249.9,42.7,249.9,41.9z"/>
	</g>
	<g id="XMLID_2340_">
		<path id="XMLID_2344_" class="st28" d="M251.1,43.7c-0.4,1.1-0.6,2.2-0.6,3.4v7.3l2.6,2.1c0.4,0.7,1.2,1,1.8,0.8V47.1
			c0-1.2-0.2-7.5,2.2-9.9c-0.1,0-0.2,0.1-0.2,0.1c-0.3-0.3-0.6-0.5-1-0.7c-0.4-0.2-0.8-0.2-1.2-0.2c-1.7,0-3,1.3-3,3
			c0,0.2,0,0.4,0.1,0.6c0,0,0,0-0.1,0c-1,0-1.9,0.8-1.9,1.9C249.9,42.7,250.4,43.4,251.1,43.7z"/>
		<path id="XMLID_2341_" class="st28" d="M254.4,57.8c-0.7,0-1.4-0.4-1.7-1l-2.7-2.2V47c0-1.1,0.2-2.1,0.5-3.2
			c-0.7-0.4-1.1-1.2-1.1-2c0-1.1,0.8-2.1,1.9-2.3c0-0.1,0-0.1,0-0.2c0-1.9,1.5-3.4,3.4-3.4c0.5,0,0.9,0.1,1.4,0.3
			c0.3,0.1,0.6,0.3,0.9,0.5c0,0,0.5-0.3,1.9-0.6l-1.4,1.3c-1,1-2.1,3.4-2.1,9.4l0,0.2v8.7l-0.4,1.2C254.7,57,254.6,57.8,254.4,57.8z
			 M251,54.2l2.5,2.1l0,0.1c0.2,0.4,0.6,0.6,1,0.6l0-10.1c0-4.5,0.6-7.7,1.9-9.5c-0.2-0.1-0.4-0.3-0.6-0.4c-0.3-0.1-0.7-0.2-1-0.2
			c-1.4,0-2.6,1.1-2.6,2.6c0,0.2,0,0.3,0.1,0.5l0.1,0.5l-0.6,0h0c-0.8,0-1.4,0.6-1.4,1.4c0,0.6,0.4,1.1,0.9,1.3l0.4,0.2l-0.1,0.4
			c-0.4,1.1-0.5,2.2-0.5,3.3V54.2z"/>
	</g>
	<path id="XMLID_2339_" class="st27" d="M272.4,52.4h3c0.4,0,0.8-0.4,0.8-0.8l0,0c0-0.4-0.4-0.8-0.8-0.8h-3c-0.4,0-0.8,0.4-0.8,0.8
		l0,0C271.6,52,272,52.4,272.4,52.4z"/>
	<path id="XMLID_2338_" class="st16" d="M254.8,57.5c0-1.7-1.4-3-3-3c-1.7,0-3,1.4-3,3c0,1.7,1.4,3,3,3c0.5,0,1.1-0.1,1.5-0.4"/>
	<path id="XMLID_2337_" class="st26" d="M251.7,56.2c-0.7,0-1.2,0.6-1.2,1.2"/>
	<path id="XMLID_2336_" class="st21" d="M269.8,66.9L269.8,66.9c1.6,0,2.8-1.3,2.8-2.8v-0.5H267v0.5C267,65.7,268.2,66.9,269.8,66.9
		z"/>
	<g id="XMLID_54_">
		<path id="XMLID_2335_" class="st15" d="M319.3,95.3h9.5c1,0,1.8,0.8,1.8,1.8c0,1-0.8,1.8-1.8,1.8h-7.6"/>
	</g>
	<polyline id="XMLID_2333_" class="st29" points="195.2,49 199.9,55 210.4,46.3 205.5,40.7 	"/>
	<line id="XMLID_2332_" class="st30" x1="199.9" y1="55" x2="210.1" y2="46.6"/>
	<g id="XMLID_2330_">
		<path id="XMLID_2331_" class="st16" d="M208.8,51.6c-0.5,0-0.9-0.3-1.3-0.7l-2.7-3.3c-0.7-0.8-0.5-2,0.3-2.6
			c0.8-0.7,2-0.5,2.6,0.3l2.7,3.3c0.7,0.8,0.5,2-0.3,2.6C209.8,51.6,209.3,51.7,208.8,51.6z"/>
	</g>
	<g id="XMLID_2328_">
		<path id="XMLID_2329_" class="st16" d="M205.8,54.1c-0.5-0.1-0.9-0.3-1.2-0.7l-2.7-3.3c-0.6-0.8-0.5-2,0.3-2.6
			c0.8-0.6,2-0.5,2.6,0.3l2.7,3.3c0.6,0.8,0.5,2-0.3,2.6C206.7,54,206.2,54.1,205.8,54.1z"/>
	</g>
	<g id="XMLID_53_">
		<path id="XMLID_2327_" class="st16" d="M203.2,56.6c-0.6,0-1.1-0.2-1.5-0.7l-2.6-3.3c-0.6-0.8-0.5-2,0.3-2.6
			c0.8-0.6,2-0.5,2.6,0.3l2.6,3.3c0.6,0.8,0.5,2-0.3,2.6C204.1,56.5,203.6,56.6,203.2,56.6z"/>
	</g>
	<path id="XMLID_52_" class="st13" d="M256,72.8h-2.3v0c0-1,0.8-1.7,1.7-1.7h0.5V72.8z"/>
	<polygon id="XMLID_51_" class="st17" points="253.8,73.4 255.7,82.5 259.9,80.2 	"/>
	<polygon id="XMLID_50_" class="st17" points="269.7,73.1 267.6,82.1 263.6,79.9 	"/>
	<path id="XMLID_49_" class="st2" d="M262.2,83.2h-0.6c-1.3,0-2.3-1-2.3-2.3l0,0c0-1.3,1-2.3,2.3-2.3h0.6c1.3,0,2.3,1,2.3,2.3l0,0
		C264.5,82.1,263.4,83.2,262.2,83.2z"/>
	<path id="XMLID_48_" class="st31" d="M259.5,81.3c0.1-0.1,2.2-1.3,2.2-1.3l2.6,1.2l0.2-1.4l-2.8-1.3l-2.4,1.3v1.6L259.5,81.3z"/>
	<path id="XMLID_47_" class="st6" d="M262.2,83.2h-0.6c-1.3,0-2.3-1-2.3-2.3l0,0c0-1.3,1-2.3,2.3-2.3h0.6c1.3,0,2.3,1,2.3,2.3l0,0
		C264.5,82.1,263.4,83.2,262.2,83.2z"/>
	<polyline id="XMLID_46_" class="st21" points="254.2,71.4 261.9,78.6 256.4,81.2 253.8,72.8 253.8,71.9 	"/>
	<path id="XMLID_44_" class="st13" d="M267.4,72.9h1.5c0.4,0,0.8-0.4,0.8-0.8l0,0c0-0.5-0.4-0.9-0.9-0.9h-1.3V72.9z"/>
	<path id="XMLID_42_" class="st17" d="M263.6,82.9c0,0,0.6-0.2,0.5,0c-0.7,2.4-5,16.7-17.9,25.5V97.8c11.5-7.7,14.7-14.8,14.7-14.8
		l1.7-0.2L263.6,82.9z"/>
	<polyline id="XMLID_41_" class="st21" points="269.5,71.2 261.6,78.6 266.8,80.9 269.7,72.8 269.7,71.5 	"/>
	<path id="XMLID_2_" class="st23" d="M263.6,83.1h-3.4c0,0-6,10.2-30.2,16.6c-1.8,2.7-4.7,5.2-5.8,6.2c-0.4,0.4-0.4,1,0.1,1.2
		c5.6,2,9.6,2,9.6,2C255.3,104.1,263.6,83.1,263.6,83.1z"/>
	<path id="XMLID_38_" class="st32" d="M296.5,189.8l0.1,0.2c0.5,1,1.7,1.5,2.7,1.1l7.9-2.5c1.2-0.4,1.9-1.7,1.5-2.9l0,0
		c-0.4-1.2-1.6-1.8-2.8-1.5l-8,2.3C296.5,187,295.8,188.5,296.5,189.8z"/>
	<line id="XMLID_37_" class="st33" x1="254.6" y1="129.2" x2="262.3" y2="129.2"/>
	<path id="XMLID_19_" class="st32" d="M259.3,191l1.2,3.1c0.6,1.6-0.2,3.5-1.8,4.1l-18.6,7.5c-1.2,0.5-2.5-0.1-3-1.3l0,0
		c-0.4-1-0.1-2.2,0.8-2.8l8.8-6.3L259.3,191z"/>
	<path id="XMLID_1_" class="st32" d="M295.1,186l12-5.4l2.2,2.9c1.5,2,0.6,4.8-1.7,5.6l-7.3,2.4c-2.1,0.7-4.4-0.6-4.7-2.8L295.1,186
		z"/>
	<path id="XMLID_1408_" class="st34" d="M373.4,179.5c1.1,0.8,2.2,1.6,3.2,2.5"/>
	<path id="XMLID_1407_" class="st34" d="M345.8,174.3c0,0,11.5-2.1,22.3,2.3"/>
</g>
</svg>
