<?xml version="1.0" encoding="utf-8"?>
<!-- Generator: Adobe Illustrator 22.1.0, SVG Export Plug-In . SVG Version: 6.00 Build 0)  -->
<svg version="1.1" id="Capa_1" xmlns="http://www.w3.org/2000/svg" xmlns:xlink="http://www.w3.org/1999/xlink" x="0px" y="0px"
	 viewBox="0 0 403.5 441.5" style="enable-background:new 0 0 403.5 441.5;" xml:space="preserve">
<style type="text/css">
	.st0{opacity:0.5;}
	.st1{clip-path:url(#SVGID_2_);}
	.st2{fill:#79AA61;stroke:#640917;stroke-width:1.7993;stroke-miterlimit:10;}
	.st3{fill:#FFFFFF;}
	.st4{fill:#E1EFEF;}
	.st5{fill:none;stroke:#789B9B;stroke-width:2.5;stroke-linecap:round;stroke-miterlimit:10;}
	.st6{fill:none;stroke:#789B9B;stroke-width:2.5;stroke-linecap:round;stroke-linejoin:round;stroke-miterlimit:10;}
	.st7{fill:#789B9B;}
	.st8{fill:#B9D67B;stroke:#640917;stroke-width:1.7993;stroke-miterlimit:10;}
	.st9{opacity:0.83;fill:#9BC0C9;}
	.st10{fill:#EFE7DF;stroke:#640917;stroke-width:2.2676;stroke-linecap:round;stroke-miterlimit:10;}
	.st11{fill:#DBAA94;stroke:#640917;stroke-width:2.2676;stroke-linecap:round;stroke-miterlimit:10;}
	.st12{fill:none;stroke:#2E2F73;stroke-width:2.2676;stroke-linecap:round;stroke-miterlimit:10;}
	.st13{fill:#E25959;stroke:#640917;stroke-width:2.2676;stroke-linecap:round;stroke-miterlimit:10;}
	.st14{fill:#640917;stroke:#640917;stroke-width:2.2676;stroke-linecap:round;stroke-miterlimit:10;}
	.st15{fill:none;stroke:#640917;stroke-width:2.2676;stroke-linecap:round;stroke-miterlimit:10;}
	.st16{fill:#FFEDD9;stroke:#640917;stroke-width:2.2676;stroke-linecap:round;stroke-miterlimit:10;}
	.st17{fill:#FCD3B6;}
	.st18{fill:#DBAA94;}
	.st19{fill:#C68671;stroke:#640917;stroke-width:2.2676;stroke-linecap:round;stroke-miterlimit:10;}
	.st20{fill:#AF6C5A;stroke:#640917;stroke-width:2.2676;stroke-linecap:round;stroke-miterlimit:10;}
	.st21{fill:#FFFFFF;stroke:#640917;stroke-width:2.2676;stroke-linecap:round;stroke-miterlimit:10;}
	.st22{fill:#FF9F36;stroke:#640917;stroke-width:2.2676;stroke-linecap:round;stroke-miterlimit:10;}
	.st23{fill:#FFF3E4;stroke:#640917;stroke-width:2.2676;stroke-linecap:round;stroke-miterlimit:10;}
	.st24{fill:#F48D25;}
	.st25{fill:#FCD3B6;stroke:#640917;stroke-width:2.2676;stroke-linecap:round;stroke-miterlimit:10;}
	.st26{opacity:0.52;fill:#FFFFFF;}
	.st27{fill:none;stroke:#E25959;stroke-width:2.2676;stroke-linecap:round;stroke-miterlimit:10;}
	.st28{fill:#C94747;stroke:#640917;stroke-width:2.2676;stroke-linecap:round;stroke-miterlimit:10;}
	.st29{fill:#D9F4F2;}
	.st30{opacity:0.67;fill:#CDE0DF;}
</style>
<g class="st0">
	<defs>
		<rect id="SVGID_1_" class="st0" width="403.5" height="441.5"/>
	</defs>
	<clipPath id="SVGID_2_">
		<use xlink:href="#SVGID_1_"  style="overflow:visible;"/>
	</clipPath>
	<g class="st1">
		<polygon class="st2" points="352.5,478.8 242.9,478.8 297.1,390.7 		"/>
		<g>
			<path id="XMLID_17801_" class="st3" d="M272.6,269.8c-3.3-4.5-8.6-7.4-14.5-7.4c-1.2,0-2.3,0.1-3.4,0.3c0-0.5,0-0.9,0-1.4
				c0-13.4-7.2-25.1-17.9-31.6l0,0c-5.5-3.3-12-5.2-18.9-5.2c-17.5,0-32.1,12.2-35.9,28.5l0,0c0,0,0,0,0,0.1
				c-0.9-0.1-1.8-0.2-2.7-0.2c-12.6,0-22.7,10.2-22.7,22.7c0,4,1.1,7.8,2.9,11.1l0,0c3.7,6.5,10.5,11.1,18.4,11.6v0.1h80.3
				c9.9,0,18-8.1,18-18C276.1,276.4,274.8,272.8,272.6,269.8z"/>
			<g id="XMLID_17790_">
				<g id="XMLID_17799_">
					<path id="XMLID_17800_" class="st4" d="M159.5,286.8c3.7,6.5,10.5,11.1,18.4,11.6v0.1h80.3c9.9,0,18-8.1,18-18
						c0-4-1.3-7.7-3.5-10.6c-3.3-4.5-8.6-7.4-14.5-7.4c-1.2,0-2.3,0.1-3.4,0.3c0-0.5,0-0.9,0-1.4c0-13.4-7.2-25.1-17.9-31.6
						c6,9.7,12.6,25,5.9,39.1c-5.8,12.2-28.8,22.9-39,4.2c-10.2-18.7-21.7-20-21.7-20c4.8,3.7,7.9,9.5,7.9,16.1
						c0,11.2-9.1,20.3-20.4,20.3C165.9,289.5,162.4,288.5,159.5,286.8z"/>
				</g>
			</g>
			<path id="XMLID_17789_" class="st5" d="M272.6,269.8c-3.3-4.5-8.6-7.4-14.5-7.4c-1.2,0-2.3,0.1-3.4,0.3c0-0.5,0-0.9,0-1.4
				c0-13.4-7.2-25.1-17.9-31.6l0,0c-5.5-3.3-12-5.2-18.9-5.2c-17.5,0-32.1,12.2-35.9,28.5l0,0c0,0,0,0,0,0.1
				c-0.9-0.1-1.8-0.2-2.7-0.2c-12.6,0-22.7,10.2-22.7,22.7c0,4,1.1,7.8,2.9,11.1l0,0c3.7,6.5,10.5,11.1,18.4,11.6v0.1h80.3
				c9.9,0,18-8.1,18-18C276.1,276.4,274.8,272.8,272.6,269.8z"/>
		</g>
		<g>
			<g>
				<path id="XMLID_17788_" class="st3" d="M80.7,311.3c-2.1-2.9-5.5-4.7-9.3-4.7c-0.8,0-1.5,0.1-2.2,0.2c0-0.3,0-0.6,0-0.9
					c0-8.6-4.6-16.2-11.5-20.3l0,0c-3.6-2.1-7.7-3.4-12.2-3.4c-11.2,0-20.6,7.8-23.1,18.3l0,0c0,0,0,0,0,0c-0.6-0.1-1.1-0.1-1.7-0.1
					C12.6,300.5,6,307,6,315.1c0,2.6,0.7,5,1.9,7.1l0,0c2.4,4.2,6.7,7.1,11.8,7.5v0l51.6,0c6.4,0,11.6-5.2,11.6-11.6
					C82.9,315.6,82.1,313.2,80.7,311.3z"/>
				<g id="XMLID_17777_">
					<g id="XMLID_17778_">
						<path id="XMLID_17787_" class="st4" d="M7.9,322.3c2.4,4.2,6.7,7.1,11.8,7.5v0l51.6,0c6.4,0,11.6-5.2,11.6-11.6
							c0-2.6-0.8-4.9-2.2-6.8c-2.1-2.9-5.5-4.7-9.3-4.7c-0.8,0-1.5,0.1-2.2,0.2c0-0.3,0-0.6,0-0.9c0-8.6-4.6-16.2-11.5-20.3
							c3.9,6.2,8.1,16.1,3.8,25.1c-3.7,7.8-18.5,14.7-25.1,2.7c-6.5-12-14-12.9-14-12.9c3.1,2.4,5.1,6.1,5.1,10.3
							c0,7.2-5.9,13.1-13.1,13.1C12,324,9.8,323.4,7.9,322.3z"/>
					</g>
				</g>
				<path id="XMLID_17754_" class="st6" d="M80.7,311.3c-2.1-2.9-5.5-4.7-9.3-4.7c-0.8,0-1.5,0.1-2.2,0.2c0-0.3,0-0.6,0-0.9
					c0-8.6-4.6-16.2-11.5-20.3l0,0c-3.6-2.1-7.7-3.4-12.2-3.4c-11.2,0-20.6,7.8-23.1,18.3l0,0c0,0,0,0,0,0c-0.6-0.1-1.1-0.1-1.7-0.1
					C12.6,300.5,6,307,6,315.1c0,2.6,0.7,5,1.9,7.1l0,0c2.4,4.2,6.7,7.1,11.8,7.5v0l51.6,0c6.4,0,11.6-5.2,11.6-11.6
					C82.9,315.6,82.1,313.2,80.7,311.3z"/>
			</g>
			<g>
				<g>
					<g>
						<g>
							<path class="st7" d="M-15.5,309.2c5.7,0,10.3,4.6,10.3,10.3c0,0.2,0,0.4,0,0.6c0,0.2,0,0.4-0.1,0.6c-0.6,5-4.8,8.9-9.9,9.1v0
								h-13.6c-3.5,0-6.3-2.5-6.8-5.8c-0.1-1-0.1-1.9,0.1-2.8c0.1-0.6,0.4-1.1,0.6-1.6c1.2-2.1,3.5-3.6,6.1-3.6
								c1.2,0,2.3,0.3,3.3,0.8v0c0.7-2.5,2.3-4.7,4.5-6.1C-19.4,309.8-17.5,309.2-15.5,309.2 M-15.5,308c-2.1,0-4.3,0.6-6.1,1.7
								c-2.1,1.3-3.7,3.2-4.6,5.5c-0.8-0.3-1.7-0.4-2.5-0.4c-3,0-5.7,1.6-7.1,4.2c-0.3,0.6-0.6,1.2-0.7,1.9
								c-0.3,1.1-0.3,2.2-0.2,3.3c0.6,4,4,6.9,8,6.9h13.6h1.2V331c5.1-0.7,9.3-4.8,9.9-10.1c0-0.2,0-0.5,0.1-0.7c0-0.3,0-0.5,0-0.7
								C-4,313.2-9.1,308-15.5,308L-15.5,308z"/>
						</g>
					</g>
				</g>
				<g id="XMLID_17753_">
					<path class="st4" d="M-5.2,319.5c0,0.2,0,0.4,0,0.6c0,0.2,0,0.4-0.1,0.6c-0.6,5-4.8,8.9-9.9,9.1v0h-13.8c-2.6,0-5.1-1.5-6.1-4
						c-0.3-0.6-0.4-1.2-0.5-1.9c0,0,0,0,0,0c1.2,1,2.7,1.5,4.3,1.5c3.8,0,6.8-3,6.8-6.8c0-1-0.2-2-0.6-2.9c0.1-0.4,0.3-0.8,0.5-1.2
						c0,0.2,0,0.3,0,0.5c0,4.6,3.7,8.3,8.3,8.3c4.6,0,8.3-3.7,8.3-8.3c0-1.2-0.3-2.3-0.7-3.4C-6.5,313.7-5.2,316.5-5.2,319.5z"/>
				</g>
			</g>
		</g>
		<path class="st8" d="M304.9,478.8H-51.5h0.2h0l88.2-134.4l33-50.7c0.6-1.3,1.9-2.2,3.3-2.4c1.4-0.2,2.9,0.4,3.7,1.6l17,2.7l0.7-1
			l40.7-58c0.3-0.7,0.9-1.3,1.5-1.7c0.7-0.4,1.4-0.7,2.3-0.7c0,0,0,0,0,0c0.7,0,34.3,48.9,69.6,101.4c6.3,9.5,12.7,19,19,28.4
			C266.9,422.9,304.9,478.8,304.9,478.8z"/>
		<path class="st9" d="M304.9,478.8H274l-22.6-37.5h-69.6c-9.1,0-16.9-5.3-20.6-13c-1.4-3-2.2-6.3-2.2-9.8c0-11.6,8.7-21.2,20-22.6
			c0-0.1,0.1-0.2,0.1-0.3c5.1-11.1,16.3-18.9,29.4-18.9c0.5,0,0.9,0,1.4,0c4.6-5.7,10.8-10.2,17.9-12.6
			C266.9,422.9,304.9,478.8,304.9,478.8z"/>
		<g>
			<path class="st3" d="M85.8,323.3L75.7,334l-10.3-11.3l-21.2,29.4l-5.5-7.7l32.5-50l0-0.1c0.4-0.9,1.2-1.5,2.2-1.6
				c0.1,0,0.2,0,0.3,0c0.8,0,1.7,0.4,2.2,1.1l0.3,0.4l18.5,2.9l42-59.8l0.1-0.1c0.2-0.5,0.6-0.8,1-1.1c0.3-0.2,0.6-0.3,0.9-0.4
				c3.9,4.9,33.2,47.6,65.6,95.8l-11.6-6.6l-10.2,14.7l-8-6.4l-9.1,10.9L140,326.8l-23.6,29L85.8,323.3z"/>
		</g>
		<g>
			<g id="XMLID_17587_">
				<path id="XMLID_17588_" class="st10" d="M93.4,154.6l9.1,8.5c1.4,1.3,3.1,1.9,4.9,1.9c1,0,1.9-0.2,2.9-0.6
					c2.6-1.1,4.3-3.7,4.3-6.6v-28.3c0-2.7-2.2-4.8-4.8-4.8c-2.7,0-4.8,2.2-4.8,4.8v22.6l-7.6-7.1"/>
			</g>
			<g id="XMLID_17583_">
				<g>
					<path id="XMLID_9_" class="st11" d="M129.4,236c3.4,0,5.9,3.1,6.1-0.3l2.1-37.9c0.2-3.2-1.1-6.2-3.4-8.3
						c-2.4-2.1-5.5-3.1-8.6-2.6l-22.8,4.5c-3.5,0.6-16.2,4.6-15.6,8.1c0.6,3.5-2.3,7.6,1.2,7l3.2,0c1.9,0,3.9-0.2,5.8-0.6l27.3-5.9
						l-1.9,34.9c-0.2,3.5,2,3.5,5.5,3.7C128.3,238.7,129.4,231.2,129.4,236z"/>
				</g>
			</g>
			<path id="XMLID_17582_" class="st12" d="M78,126.5"/>
			<path id="XMLID_17577_" class="st13" d="M71.6,148.4v45.1l31.1-2v-43.2c0-4.5-3.6-8.1-8.1-8.1H79.8
				C75.3,140.1,71.6,143.8,71.6,148.4z"/>
			<path id="XMLID_17576_" class="st14" d="M126,240.2l19.8-5.1c1.2-0.3,2-1.6,1.7-2.8l0,0c-0.3-1-1.2-1.7-2.2-1.7l-10.8-0.2
				l-11.7,3l1.5,5.7C124.4,240,125.2,240.5,126,240.2z"/>
			<path id="XMLID_17575_" class="st15" d="M102.7,178.5v-30.2c0-4.5-3.6-8.1-8.1-8.1H79.8c-4.5,0-8.2,3.7-8.2,8.2v46.4l31.1-3.3
				l0-3.1"/>
			<path id="XMLID_17574_" class="st16" d="M82.5,133.5v5.1c0,0.2,0,0.3,0,0.5c0.2,2.9,2.7,5.2,5.7,5.2h4.1c1.4,0,2.6-1.2,2.6-2.6
				v-6.3L82.5,133.5z"/>
			<path id="XMLID_17572_" class="st17" d="M82.5,133.9v4.6c0,0.2,0,0.3,0,0.5c1.9,1,4,1.6,6.2,1.6h2.1c1.4,0,2.8-0.3,4-0.8
				c0,0,0,0,0,0v-4l0,0L82.5,133.9z"/>
			<path id="XMLID_17571_" class="st15" d="M82.5,133.5v5.1c0,0.2,0,0.3,0,0.5c0.2,2.9,2.7,5.2,5.7,5.2h5c1,0,1.7-0.8,1.7-1.7v-7.2
				L82.5,133.5z"/>
			<polygon id="XMLID_17565_" class="st18" points="72.8,200.1 75.5,204.2 85.9,208 88.3,206.2 109.1,190.7 100.6,192.1 			"/>
			<path id="XMLID_17563_" class="st11" d="M73.8,201.7c-1.4-1.7-2.2-3.9-2.2-6.2v-0.8l31.2-3.4l0,0"/>
			<path id="XMLID_17562_" class="st19" d="M82.2,194.7L82.2,194.7c0,1.9-0.7,3.7-2.1,5l-0.9,0.9"/>
			<path id="XMLID_17561_" class="st14" d="M76.6,296H97c1.3,0,2.3-1,2.3-2.3l0,0c0-1-0.7-1.9-1.7-2.2l-10.4-2.9H75.1v5.9
				C75.1,295.4,75.7,296,76.6,296z"/>
			<polyline id="XMLID_17559_" class="st11" points="73.9,202 73.9,288.7 88.3,288.7 88.3,206.6 			"/>
			<polygon id="XMLID_17558_" class="st20" points="102.8,191.3 71.6,194.7 71.6,192.5 102.8,191.3 			"/>
			<path id="XMLID_17546_" class="st21" d="M81.7,140.1v-2c0-0.4,0.4-0.8,0.8-0.8l0,0l9.2,5.3v7c0,0.2-0.2,0.2-0.3,0.1L81.7,140.1z"
				/>
			<path id="XMLID_17539_" class="st22" d="M93.6,146.9h-0.3c-0.9,0-1.6-0.7-1.6-1.6v-1c0-0.9,0.7-1.6,1.6-1.6h0.3
				c0.9,0,1.6,0.7,1.6,1.6v1C95.2,146.2,94.5,146.9,93.6,146.9z"/>
			<path id="XMLID_17538_" class="st21" d="M94.9,139.7l0.7,9.8l1.4-6.9l-0.7-4.7c0-0.2-0.2-0.3-0.4-0.3h-1L94.9,139.7z"/>
			<path id="XMLID_17537_" class="st21" d="M107,141.4"/>
			<path id="XMLID_17528_" class="st21" d="M105.5,137.2"/>
			<path id="XMLID_17527_" class="st16" d="M79.3,115.1l0,9.2l0,0c0,7.3,5.9,13.2,13.2,13.2h2.1c6.1,0,11-4.9,11-11v-11.8v-1.6
				c0-3.7-3-6.7-6.7-6.7l-12.8,0c-3.7,0-6.7,3-6.7,6.7v3.2"/>
			
				<rect id="XMLID_17525_" x="100.6" y="116.6" transform="matrix(-1 -1.224647e-16 1.224647e-16 -1 206.177 237.1151)" class="st17" width="5" height="3.9"/>
			<path id="XMLID_17502_" class="st17" d="M92.2,120.5h1.5c1.5,0,2.8-1.3,2.8-2.8v-1.1h-6.9v1.3C89.6,119.3,90.7,120.5,92.2,120.5z
				"/>
			<path id="XMLID_17496_" class="st17" d="M79.3,115.1l0,9.2c0,0,0,0,0,0c0,7.3,5.9,13.1,13.2,13.1h2.1c0.1,0,0.3,0,0.4,0
				c-7-0.2-12.7-6-12.7-13.1c0,0,0,0,0,0l0-9.2l0,1.1v-3.2c0-3.7,3-6.7,6.7-6.7h-3c-3.7,0-6.7,3-6.7,6.7v3.2L79.3,115.1z"/>
			<path id="XMLID_17404_" class="st15" d="M79.3,115l0,9.2l0,0c0,7.3,5.9,13.2,13.2,13.2h2.1c6.1,0,11-4.9,11-11v-11.8v-1.6
				c0-3.7-3-6.7-6.7-6.7l-12.8,0c-3.7,0-6.7,3-6.7,6.7v3.2"/>
			<path id="XMLID_17398_" class="st15" d="M98.6,126.5c1.1,0,2-0.9,2-2v-4.5"/>
			<path id="XMLID_17384_" class="st23" d="M77.7,122.4"/>
			<path id="XMLID_17379_" class="st14" d="M90.4,116.9h5.1c0.5,0,0.9-0.4,0.9-0.9l0,0c0-0.5-0.4-0.9-0.9-0.9h-5.1
				c-0.5,0-0.9,0.4-0.9,0.9l0,0C89.6,116.5,89.9,116.9,90.4,116.9z"/>
			<g id="XMLID_17377_">
				<path id="XMLID_17378_" class="st24" d="M81.5,119l0.1,1l0.8,2.1c-0.3,1.5-1.1,0.6-1.8-0.8l-2.8-2.3v-8
					c0-6.4,5.2-11.5,11.5-11.5H93c-6.4,0-11.5,5.2-11.5,11.5V119z"/>
			</g>
			<g id="XMLID_17375_">
				<path id="XMLID_17376_" class="st14" d="M77.7,111c0-6.4,5.2-11.5,11.5-11.5h0h14c3.7,0,6.7,3,6.7,6.7l0,0c0,3.7-3,6.7-6.7,6.7
					H88.9c-2.1,0-3.9,1.4-4.3,3.5l-1,4.6c-0.3,1.5-2.4,1.8-3.1,0.4l-2.8-2.3V111L77.7,111z"/>
			</g>
			<path id="XMLID_17374_" class="st14" d="M101.5,116.9h3.3c0.5,0,0.9-0.4,0.9-0.9l0,0c0-0.5-0.4-0.9-0.9-0.9h-3.3
				c-0.5,0-0.9,0.4-0.9,0.9l0,0C100.6,116.5,101,116.9,101.5,116.9z"/>
			<path id="XMLID_17373_" class="st25" d="M82.3,122.4c0-1.8-1.5-3.3-3.3-3.3c-1.8,0-3.3,1.5-3.3,3.3c0,1.8,1.5,3.3,3.3,3.3
				c0.6,0,1.1-0.2,1.6-0.4"/>
			<path id="XMLID_17372_" class="st15" d="M94.3,129.5L94.3,129.5c0.8,0.5,1.8,0.8,2.7,0.8h4.6"/>
			<path id="XMLID_17341_" class="st21" d="M95.7,120.5c0,0.9-0.7,1.6-1.6,1.6s-1.6-0.7-1.6-1.6c0-0.9,0.7-1.6,1.6-1.6
				S95.7,119.6,95.7,120.5z"/>
			<path id="XMLID_17340_" class="st21" d="M105.2,120.5c0,0.9-0.7,1.6-1.6,1.6s-1.6-0.7-1.6-1.6c0-0.9,0.7-1.6,1.6-1.6
				S105.2,119.6,105.2,120.5z"/>
			<path id="XMLID_17339_" class="st14" d="M95.5,121c0,0.4-0.3,0.7-0.7,0.7c-0.4,0-0.7-0.3-0.7-0.7c0-0.4,0.3-0.7,0.7-0.7
				C95.2,120.4,95.5,120.7,95.5,121z"/>
			<circle id="XMLID_17338_" class="st14" cx="104.2" cy="121.1" r="0.7"/>
			<circle id="XMLID_17337_" class="st26" cx="103.5" cy="121.7" r="3.4"/>
			<circle id="XMLID_15118_" class="st27" cx="103.6" cy="121.7" r="3.4"/>
			<circle id="XMLID_15117_" class="st27" cx="94.3" cy="121.7" r="3.4"/>
			<path id="XMLID_15116_" class="st28" d="M93.8,121.8c0-2.2,1.7-4,3.8-4.2l9.7-2c0.6-0.1,1.1,0.4,1.1,1l-0.7,10.6
				c0,0.6-0.6,1-1.1,0.8l-9-2C95.5,125.8,93.8,124,93.8,121.8z"/>
			<g id="XMLID_15114_">
				<path id="XMLID_15115_" class="st21" d="M75.6,147.3c-1.1,1.9-0.8,4.4,0.8,5.9l10.4,9.9c1.4,1.3,3.1,1.9,4.9,1.9
					c1.2,0,2.5-0.3,3.6-1c2.3-1.3,3.6-3.8,3.6-6.5v-27.9c0-2.6-2-4.9-4.7-5c-2.7-0.1-5,2.1-5,4.8v22.6l-6.2-5.9
					C80.8,144.1,77.1,144.6,75.6,147.3L75.6,147.3z"/>
			</g>
			<path id="XMLID_15113_" class="st16" d="M100.6,117.3c0.4-0.5,0-1.1-0.6-1.1l-4.4,0.5c-3.6,0.5-6.3,3.7-6.3,7.3v4.8H99l0,0
				c0-1.8-0.2-6.5,0.1-8.3C99.4,119.2,100,118.1,100.6,117.3z"/>
			<path id="XMLID_15112_" class="st25" d="M115.1,118.2c0.1-2-1.6-3.6-3.5-3.3l-0.8,0.1c-3.6,0.5-5.9,6-5.9,9.7v4.8h9.7l0,0
				c0-1.8,0.1-4.8,0.1-4.8L115.1,118.2z"/>
			<path id="XMLID_3793_" class="st28" d="M108.5,121.8c0-2.2,1.7-4,3.8-4.2l9.7-2c0.6-0.1,1.1,0.4,1.1,1l-0.7,10.6
				c0,0.6-0.6,1-1.1,0.8l-9-2C110.2,125.8,108.5,124,108.5,121.8z"/>
			<circle id="XMLID_3670_" class="st29" cx="108.5" cy="121.8" r="6.4"/>
			<circle id="XMLID_3668_" class="st29" cx="123.8" cy="121.8" r="6.4"/>
			<g id="XMLID_3664_">
				<line id="XMLID_3667_" class="st3" x1="128.5" y1="126.1" x2="123.8" y2="115.4"/>
				<path id="XMLID_3666_" class="st3" d="M128.5,126.9c0.1,0,0.2,0,0.3-0.1c0.4-0.2,0.6-0.7,0.4-1.1l-4.7-10.7
					c-0.2-0.4-0.7-0.6-1.1-0.4c-0.4,0.2-0.6,0.7-0.4,1.1l4.7,10.7C127.9,126.7,128.2,126.9,128.5,126.9z"/>
			</g>
			<g id="XMLID_3658_">
				<line id="XMLID_3663_" class="st3" x1="125.4" y1="127.5" x2="120.6" y2="116.7"/>
				<path id="XMLID_3662_" class="st3" d="M125,128.3c0-0.7,0.7-0.3,0.9-0.4c0.6-0.3,0.9-0.3,0.6-0.9l-4.7-10.7
					c-0.3-0.6-0.5-0.3-1.1-0.1c-0.6,0.3-1.4,0.4-1.1,1l4.7,10.7C124.5,128.4,124.5,128.3,125,128.3z"/>
				<path id="XMLID_3660_" class="st3" d="M112.6,127c0.1,0,0.2,0,0.3-0.1c0.4-0.2,0.6-0.7,0.4-1.1l-4.7-10.7
					c-0.2-0.4-0.7-0.6-1.1-0.4c-0.4,0.2-0.6,0.7-0.4,1.1l4.7,10.7C112,126.8,112.3,127,112.6,127z"/>
				<path id="XMLID_3659_" class="st3" d="M109.5,128.2c0.2,0,0.4,0.1,0.5,0.1c0.6-0.3,0.8-0.6,0.6-1.2l-4.7-10.7
					c-0.3-0.6-0.3-0.2-0.9,0c-0.6,0.3-1.4,0.6-1.2,1.2l4.6,10.5C108.6,128.5,109,128.2,109.5,128.2z"/>
			</g>
			<circle id="XMLID_3656_" class="st15" cx="108.5" cy="121.8" r="6.4"/>
			<circle id="XMLID_3655_" class="st15" cx="123.8" cy="121.8" r="6.4"/>
		</g>
		<path class="st30" d="M140.1,236.4l75.5,109.9l-25.4-2.1l-53.8-87.7L98.2,296H97l-2.3-1.5l40.7-58c0.3-0.7,0.9-1.3,1.5-1.7l0,0
			C138.2,234.5,139.5,235.1,140.1,236.4z"/>
		<g>
			<g id="XMLID_3646_">
				<path id="XMLID_3654_" class="st4" d="M143.8,388.1c0,4,0.9,7.7,2.5,11.1c4.1,8.7,13.1,14.8,23.4,14.8h149.1
					c15.8,0,28.6-12.8,28.6-28.6c0-3-0.5-6-1.4-8.7c-3.7-11.5-14.5-19.8-27.2-19.8c-3.8,0-7.5,0.8-10.8,2.1
					c-6.2-7.7-15.7-12.6-26.4-12.6c-2,0-3.9,0.2-5.8,0.5c-2-3.5-4.5-6.8-7.3-9.7c-8.2-8.2-19.4-13.3-31.9-13.3
					c-14.2,0-26.8,6.6-35.1,16.8c-0.5,0-1,0-1.6,0c-14.8,0-27.6,8.8-33.3,21.4c-0.1,0.1-0.1,0.2-0.2,0.3
					C153.7,364,143.8,374.9,143.8,388.1z"/>
				<path id="XMLID_3652_" class="st3" d="M143.8,388.1c0,4,0.9,7.7,2.5,11.1c2.1,0.7,4.3,1,6.5,1c11.9,0,21.5-9.6,21.5-21.5
					c0-6.7-3-12.6-7.8-16.6c-0.1,0.1-0.1,0.2-0.2,0.3C153.7,364,143.8,374.9,143.8,388.1z"/>
				<path id="XMLID_3651_" class="st3" d="M166.4,362.4c0,0,16.1-0.3,22.3,19.7c2,6.5,10.4,8.5,15.1,3.5c8.1-8.7,10.6-26.4-2.3-44.9
					c-0.5,0-1,0-1.6,0c-14.8,0-27.6,8.8-33.3,21.4C166.5,362.2,166.5,362.3,166.4,362.4z"/>
				<path id="XMLID_3650_" class="st3" d="M201.5,340.7c0,0,25.7,7.4,33.8,39c2.7,10.5,14.9,15.3,23.8,9.2
					c10.3-7.1,19.7-25.7,9.5-51.5c0-0.1-0.1-0.1-0.1-0.2c-8.2-8.2-19.4-13.3-31.9-13.3C222.4,323.9,209.7,330.5,201.5,340.7z"/>
				<path id="XMLID_3648_" class="st3" d="M285.2,385.5c-1.9,11.7,15.9,14.2,21.9,0.3c5.7-13.4,0.8-26.8,0.8-26.8
					c-6.2-7.7-15.7-12.6-26.4-12.6c-2,0-3.9,0.2-5.8,0.5C275.8,346.8,288.5,365.9,285.2,385.5z"/>
				<path id="XMLID_3647_" class="st3" d="M307.9,359c0,0,12.6,9.6,12.6,27c0,17.5,25.4,16.6,25.4-9.3
					c-3.7-11.5-14.5-19.8-27.2-19.8C314.9,356.8,311.3,357.6,307.9,359z"/>
			</g>
			<path id="XMLID_3644_" class="st5" d="M166.4,362.4c0.1-0.1,0.1-0.2,0.2-0.3c5.8-12.6,18.5-21.4,33.3-21.4c0.5,0,1,0,1.6,0
				c8.3-10.2,20.9-16.8,35.1-16.8c12.5,0,23.8,5.1,31.9,13.3c2.9,2.9,5.3,6.1,7.3,9.7c1.9-0.3,3.8-0.5,5.8-0.5
				c10.7,0,20.2,4.9,26.4,12.6c3.3-1.4,7-2.1,10.8-2.1c12.7,0,23.5,8.3,27.2,19.8c0.9,2.7,1.4,5.7,1.4,8.7
				c0,15.8-12.8,28.6-28.6,28.6H169.7c-10.3,0-19.2-6-23.4-14.8c-1.6-3.4-2.5-7.1-2.5-11.1C143.8,374.9,153.7,364,166.4,362.4z"/>
		</g>
	</g>
</g>
</svg>
