<?xml version="1.0" encoding="utf-8"?>
<!-- Generator: Adobe Illustrator 22.1.0, SVG Export Plug-In . SVG Version: 6.00 Build 0)  -->
<svg version="1.1" id="Capa_1" xmlns="http://www.w3.org/2000/svg" xmlns:xlink="http://www.w3.org/1999/xlink" x="0px" y="0px"
	 viewBox="0 0 406.2 426.4" style="enable-background:new 0 0 406.2 426.4;" xml:space="preserve">
<style type="text/css">
	.st0{fill:none;stroke:#2770B5;stroke-width:10;stroke-linecap:round;stroke-linejoin:round;stroke-miterlimit:22.9256;}
</style>
<path class="st0" d="M32.3,398.1h336.8c0,0,23.4-2.5,25.6-13.8c2.3-11.3,6.5-74.3-17.8-95.2c-17.5-15-82-44.9-116.9-60.7
	c-2.9,5-5.8,9.7-8.6,13.5c-17.6,24.4-58.9,31.4-83.3,12.8c-9.5-7.2-17.5-17.5-24.4-28.4C110.9,242.9,38.5,280,30.6,287.8
	c-10.3,10-19.3,22.6-19.8,39.9s-1,54.7-1,54.7S11.5,396.8,32.3,398.1z"/>
<path class="st0" d="M123.7,189.4c0,0-15.8-11.3-19.6-21.1c-3.8-9.8-7.3-25.9,0.5-31.4s12.1-3,12.1-3s-6.8-44.7-1.5-64.3
	s30.9-27.4,37.9-29.6c7-2.3,34.7-16.6,75.1-9.8s70.1,61.8,71.6,65.3c1.5,3.5-14.8,0.8-17.3,1.3s1.8,9,3.3,19.1s0.8,15.8,0.8,15.8
	s11.8,3,15.6,11.1c3.8,8-3,27.6-5.3,32.9S280.3,189,280.3,189s-16.5,36-28.8,53.1c-17.6,24.4-58.9,31.4-83.3,12.8
	C147.5,239.2,134,209.2,123.7,189.4z"/>
<path class="st0" d="M257.1,100.5c0,0-40.7-1.3-56.5-4.3c-21.7-4.1-33-27.8-47-8.5c-3.5,4.8-4.1,13.2-5.3,16.1"/>
<path class="st0" d="M166.7,319.2c0,0,4.6-2,7.3-3.1c7.4-3.1,19.6-7.8,29.2-7.9c13-0.3,34.9,11.8,42.7,11.8s5.8-39.2,2.3-40.9
	c-3.5-1.8-38.4,13.6-47.2,11.8s-36.4-12.6-41.7-9.8c-5.3,2.8-3.8,6.3-4,15.3C154.9,305.4,155.4,322,166.7,319.2z"/>
<line class="st0" x1="201.8" y1="329" x2="201.8" y2="373.7"/>
<line class="st0" x1="168.7" y1="355.1" x2="168.7" y2="373.2"/>
<line class="st0" x1="136.5" y1="355.1" x2="136.5" y2="373.2"/>
<line class="st0" x1="104.4" y1="355.1" x2="104.4" y2="373.2"/>
<line class="st0" x1="72.2" y1="355.1" x2="72.2" y2="373.2"/>
<line class="st0" x1="40.1" y1="355.1" x2="40.1" y2="373.2"/>
<line class="st0" x1="298.8" y1="355.1" x2="298.8" y2="373.2"/>
<line class="st0" x1="266.6" y1="355.1" x2="266.6" y2="373.2"/>
<line class="st0" x1="234.5" y1="355.1" x2="234.5" y2="373.2"/>
</svg>
