<?xml version="1.0" encoding="utf-8"?>
<!-- Generator: Adobe Illustrator 22.1.0, SVG Export Plug-In . SVG Version: 6.00 Build 0)  -->
<svg version="1.1" id="Capa_1" xmlns="http://www.w3.org/2000/svg" xmlns:xlink="http://www.w3.org/1999/xlink" x="0px" y="0px"
	 viewBox="0 0 406.2 426.4" style="enable-background:new 0 0 406.2 426.4;" xml:space="preserve">
<style type="text/css">
	.st0{fill:none;stroke:#2770B5;stroke-width:10;stroke-miterlimit:22.9256;}
	.st1{fill:none;stroke:#2770B5;stroke-width:10;stroke-linecap:round;stroke-linejoin:round;stroke-miterlimit:22.9256;}
	.st2{clip-path:url(#SVGID_3_);}
	.st3{fill:none;stroke:#9A9A9A;stroke-miterlimit:10;}
	.st4{fill:#2770B5;stroke:#2770B5;stroke-width:0.216;stroke-miterlimit:22.9256;}
	.st5{fill:none;stroke:#2770B5;stroke-width:7.0866;stroke-linecap:round;stroke-linejoin:round;stroke-miterlimit:22.9256;}
</style>
<path class="st0" d="M385.5,150.7c0,0-14.6-79.1-83-105.7c-48.4-18.8-103.7-8.2-137.7,4.8c12.4,18.9,17.9,41.4,14.5,56.8
	c-5.8,27.2-33.7,60.9-37.9,66.8c-5.2,7.2-0.7,26.4-3.2,37.1c-3.7,16-17.3,33.9-42.9,32.7c-8.4-0.4-15.1-2.5-20.3-5.5
	c0.1,4.1,0.5,8.3,1.1,12.3c4.6,25.6,28.6,33.4,28.6,33.4s44.8,133.2,128.4,130c83.7-3.2,124.8-124.8,124.8-124.8s23.3-10,32.8-39.9
	c9.4-29.8-5.8-47.7-11.7-47.7s-12,3.2-12,3.2s0.7-21.4-2.3-32.1c-3-10.7-7.7-14.9-7.7-21.7s12.6-8.4,18.1-5.2
	C380.7,148.4,385.5,150.7,385.5,150.7z"/>
<path class="st1" d="M329.7,152.4c0,0-13.3,0.8-31.4,0.9 M278.7,153c-21.2-0.7-44.6-2.7-60.6-7.7c-17.5-5.6-33.6-13.4-45.6-19.9"/>
<g>
	<g>
		<g>
			<g>
				<defs>
					<path id="SVGID_2_" d="M141.3,173.5c4.2-5.8,32.1-39.5,37.9-66.8c5.8-27.2-15.6-76.5-54.8-89.5S32.7,21.4,17.1,67.4
						s12.3,77.8,23.7,92.7s10.7,23.3,13.3,39.3c2.6,15.9,8.4,42.1,41.2,43.7c25.6,1.2,39.1-16.7,42.9-32.7
						C140.6,199.7,136.1,180.6,141.3,173.5z"/>
				</defs>
				<clipPath id="SVGID_3_">
					<use xlink:href="#SVGID_2_"  style="overflow:visible;"/>
				</clipPath>
				<g class="st2">
					<line class="st0" x1="33.9" y1="188.7" x2="190.3" y2="188.7"/>
				</g>
			</g>
			<g>
				<path id="SVGID_1_" class="st3" d="M141.3,173.5c4.2-5.8,32.1-39.5,37.9-66.8c5.8-27.2-15.6-76.5-54.8-89.5S32.7,21.4,17.1,67.4
					s12.3,77.8,23.7,92.7s10.7,23.3,13.3,39.3c2.6,15.9,8.4,42.1,41.2,43.7c25.6,1.2,39.1-16.7,42.9-32.7
					C140.6,199.7,136.1,180.6,141.3,173.5z"/>
			</g>
		</g>
	</g>
</g>
<path class="st0" d="M141.3,173.5c4.2-5.8,32.1-39.5,37.9-66.8c5.8-27.2-15.6-76.5-54.8-89.5S32.7,21.4,17.1,67.4
	s12.3,77.8,23.7,92.7s10.7,23.3,13.3,39.3c2.6,15.9,8.4,42.1,41.2,43.7c25.6,1.2,39.1-16.7,42.9-32.7
	C140.6,199.7,136.1,180.6,141.3,173.5z"/>
<polyline class="st1" points="97,165.8 97,127.6 125.4,99.3 "/>
<line class="st1" x1="68.3" y1="96.6" x2="86" y2="114.2"/>
<line class="st1" x1="228.2" y1="55.4" x2="230.1" y2="76.8"/>
<line class="st1" x1="267.1" y1="59.6" x2="264.2" y2="77.5"/>
<line class="st1" x1="302.1" y1="71" x2="295" y2="85.9"/>
<line class="st1" x1="331.7" y1="91.4" x2="321.2" y2="103.7"/>
<path class="st4" d="M174.3,234.2c6.2,0,11.3-5.1,11.3-11.3s-5.1-11.3-11.3-11.3s-11.3,5.1-11.3,11.3
	C163,229.1,168,234.2,174.3,234.2z"/>
<path class="st4" d="M298,234.2c6.2,0,11.3-5.1,11.3-11.3s-5.1-11.3-11.3-11.3s-11.3,5.1-11.3,11.3S291.8,234.2,298,234.2z"/>
<path class="st5" d="M362.8,220.2c0,0,2.4-6.6,4.3-21.4"/>
</svg>
