<?xml version="1.0" encoding="utf-8"?>
<!-- Generator: Adobe Illustrator 22.1.0, SVG Export Plug-In . SVG Version: 6.00 Build 0)  -->
<svg version="1.1" id="Capa_1" xmlns="http://www.w3.org/2000/svg" xmlns:xlink="http://www.w3.org/1999/xlink" x="0px" y="0px"
	 viewBox="0 0 406.2 426.4" style="enable-background:new 0 0 406.2 426.4;" xml:space="preserve">
<style type="text/css">
	.st0{fill:none;stroke:#2770B5;stroke-width:10;stroke-linecap:round;stroke-linejoin:round;stroke-miterlimit:22.9256;}
</style>
<path class="st0" d="M64.4,7.3h276.5c18.6,0,33.8,15.2,33.8,33.8v378.8h-344V41C30.6,22.5,45.8,7.3,64.4,7.3z"/>
<path class="st0" d="M234.6,419.9h-64v-95c0-1.9,1.5-3.4,3.4-3.4h57.1c1.9,0,3.4,1.5,3.4,3.4v95H234.6z"/>
<g>
	<path class="st0" d="M69.2,49.5h58.1c1.6,0,2.9,1.3,2.9,2.9v49c0,1.6-1.3,2.9-2.9,2.9H69.2c-1.6,0-2.9-1.3-2.9-2.9v-49
		C66.3,50.9,67.6,49.5,69.2,49.5z"/>
	<path class="st0" d="M173.6,49.5h58.1c1.6,0,2.9,1.3,2.9,2.9v49c0,1.6-1.3,2.9-2.9,2.9h-58.1c-1.6,0-2.9-1.3-2.9-2.9v-49
		C170.6,50.9,171.9,49.5,173.6,49.5z"/>
	<path class="st0" d="M277.9,49.5H336c1.6,0,2.9,1.3,2.9,2.9v49c0,1.6-1.3,2.9-2.9,2.9h-58.1c-1.6,0-2.9-1.3-2.9-2.9v-49
		C274.9,50.9,276.3,49.5,277.9,49.5z"/>
</g>
<g>
	<path class="st0" d="M69.2,140.2h58.1c1.6,0,2.9,1.3,2.9,2.9v49c0,1.6-1.3,2.9-2.9,2.9H69.2c-1.6,0-2.9-1.3-2.9-2.9v-49
		C66.3,141.5,67.6,140.2,69.2,140.2z"/>
	<path class="st0" d="M173.6,140.2h58.1c1.6,0,2.9,1.3,2.9,2.9v49c0,1.6-1.3,2.9-2.9,2.9h-58.1c-1.6,0-2.9-1.3-2.9-2.9v-49
		C170.6,141.5,171.9,140.2,173.6,140.2z"/>
	<path class="st0" d="M277.9,140.2H336c1.6,0,2.9,1.3,2.9,2.9v49c0,1.6-1.3,2.9-2.9,2.9h-58.1c-1.6,0-2.9-1.3-2.9-2.9v-49
		C274.9,141.5,276.3,140.2,277.9,140.2z"/>
</g>
<g>
	<path class="st0" d="M69.2,230.8h58.1c1.6,0,2.9,1.3,2.9,2.9v49c0,1.6-1.3,2.9-2.9,2.9H69.2c-1.6,0-2.9-1.3-2.9-2.9v-49
		C66.3,232.1,67.6,230.8,69.2,230.8z"/>
	<path class="st0" d="M173.6,230.8h58.1c1.6,0,2.9,1.3,2.9,2.9v49c0,1.6-1.3,2.9-2.9,2.9h-58.1c-1.6,0-2.9-1.3-2.9-2.9v-49
		C170.6,232.1,171.9,230.8,173.6,230.8z"/>
	<path class="st0" d="M277.9,230.8H336c1.6,0,2.9,1.3,2.9,2.9v49c0,1.6-1.3,2.9-2.9,2.9h-58.1c-1.6,0-2.9-1.3-2.9-2.9v-49
		C274.9,232.1,276.3,230.8,277.9,230.8z"/>
</g>
<path class="st0" d="M69.2,321.5h58.1c1.6,0,2.9,1.3,2.9,2.9v49c0,1.6-1.3,2.9-2.9,2.9H69.2c-1.6,0-2.9-1.3-2.9-2.9v-49
	C66.3,322.8,67.6,321.5,69.2,321.5z"/>
<path class="st0" d="M277.9,321.5H336c1.6,0,2.9,1.3,2.9,2.9v49c0,1.6-1.3,2.9-2.9,2.9h-58.1c-1.6,0-2.9-1.3-2.9-2.9v-49
	C274.9,322.8,276.3,321.5,277.9,321.5z"/>
</svg>
