<?xml version="1.0" encoding="utf-8"?>
<!-- Generator: Adobe Illustrator 22.1.0, SVG Export Plug-In . SVG Version: 6.00 Build 0)  -->
<svg version="1.1" id="Capa_1" xmlns="http://www.w3.org/2000/svg" xmlns:xlink="http://www.w3.org/1999/xlink" x="0px" y="0px"
	 viewBox="0 0 500 500" style="enable-background:new 0 0 500 500;" xml:space="preserve">
<style type="text/css">
	.st0{fill:#C32740;}
	.st1{fill:url(#SVGID_1_);}
	.st2{fill:url(#SVGID_2_);}
	.st3{fill:url(#SVGID_3_);}
	.st4{fill:url(#SVGID_4_);}
	.st5{fill:url(#SVGID_5_);}
	.st6{fill:url(#SVGID_6_);}
</style>
<g>
	<g>
		<path class="st0" d="M11,199"/>
		<linearGradient id="SVGID_1_" gradientUnits="userSpaceOnUse" x1="287.3086" y1="137.9702" x2="423.6328" y2="322.6273">
			<stop  offset="0" style="stop-color:#77D180"/>
			<stop  offset="0.1455" style="stop-color:#77D286;stop-opacity:0.9956"/>
			<stop  offset="0.3459" style="stop-color:#79D398;stop-opacity:0.9896"/>
			<stop  offset="0.5783" style="stop-color:#7BD5B5;stop-opacity:0.9826"/>
			<stop  offset="0.8328" style="stop-color:#7ED9DD;stop-opacity:0.975"/>
			<stop  offset="1" style="stop-color:#80DBFC;stop-opacity:0.97"/>
		</linearGradient>
		<path class="st1" d="M430.1,343.4L430.1,343.4c-55.4,0-100.3-44.9-100.3-100.3v-59.5l0,0c55.4,0,100.3,44.9,100.3,100.3V343.4z"/>
		<linearGradient id="SVGID_2_" gradientUnits="userSpaceOnUse" x1="253.7079" y1="319.498" x2="467.7741" y2="39.9017">
			<stop  offset="0" style="stop-color:#69B980"/>
			<stop  offset="0.187" style="stop-color:#69B980;stop-opacity:0.9998"/>
			<stop  offset="0.2178" style="stop-color:#69B980;stop-opacity:0.9998"/>
			<stop  offset="0.3956" style="stop-color:#6ABA83;stop-opacity:0.993"/>
			<stop  offset="0.5327" style="stop-color:#6BBD8D;stop-opacity:0.9878"/>
			<stop  offset="0.6563" style="stop-color:#6EC19D;stop-opacity:0.9831"/>
			<stop  offset="0.7719" style="stop-color:#73C7B4;stop-opacity:0.9787"/>
			<stop  offset="0.8819" style="stop-color:#78D0D2;stop-opacity:0.9745"/>
			<stop  offset="0.9864" style="stop-color:#7FDAF7;stop-opacity:0.9705"/>
			<stop  offset="1" style="stop-color:#80DBFC;stop-opacity:0.97"/>
		</linearGradient>
		<path class="st2" d="M489.7,65.5L489.7,65.5c0,55.4-44.9,100.3-100.3,100.3h-59.5l0,0c0-55.4,44.9-100.3,100.3-100.3H489.7z"/>
		<linearGradient id="SVGID_3_" gradientUnits="userSpaceOnUse" x1="332.793" y1="220.8162" x2="151.3195" y2="-124.5688">
			<stop  offset="5.000000e-03" style="stop-color:#69B980"/>
			<stop  offset="0.147" style="stop-color:#6ABB87;stop-opacity:0.9957"/>
			<stop  offset="0.3606" style="stop-color:#6EC19C;stop-opacity:0.9893"/>
			<stop  offset="0.6195" style="stop-color:#74CABE;stop-opacity:0.9815"/>
			<stop  offset="0.9113" style="stop-color:#7DD7EC;stop-opacity:0.9727"/>
			<stop  offset="1" style="stop-color:#80DBFC;stop-opacity:0.97"/>
		</linearGradient>
		<path class="st3" d="M211.8,6L211.8,6c55.4,0,100.3,44.9,100.3,100.3v59.5l0,0c-55.4,0-100.3-44.9-100.3-100.3V6z"/>
		<linearGradient id="SVGID_4_" gradientUnits="userSpaceOnUse" x1="103.6652" y1="34.1493" x2="285.7133" y2="514.3331">
			<stop  offset="0" style="stop-color:#7B1B59"/>
			<stop  offset="0.1571" style="stop-color:#7C336E;stop-opacity:0.9953"/>
			<stop  offset="0.4899" style="stop-color:#7D71A2;stop-opacity:0.9853"/>
			<stop  offset="0.9682" style="stop-color:#80D4F6;stop-opacity:0.971"/>
			<stop  offset="1" style="stop-color:#80DBFC;stop-opacity:0.97"/>
		</linearGradient>
		<path class="st4" d="M110.6,342.8c-38.7,20.4-13.4,151,79.4,150.4c67.1-0.4,121.5-54.4,121.5-121.5V183.6l0,0
			c-55.4,0-100.3,44.9-100.3,100.3V343c0,27.7-22.5,50.2-50.2,50.2l0,0c-27.7,0-50.2-22.5-50.2-50.2"/>
		<linearGradient id="SVGID_5_" gradientUnits="userSpaceOnUse" x1="116.4429" y1="56.7921" x2="256.6009" y2="326.5305">
			<stop  offset="0" style="stop-color:#7B1B59"/>
			<stop  offset="0.1571" style="stop-color:#7C336E;stop-opacity:0.9953"/>
			<stop  offset="0.4899" style="stop-color:#7D71A2;stop-opacity:0.9853"/>
			<stop  offset="0.9682" style="stop-color:#80D4F6;stop-opacity:0.971"/>
			<stop  offset="1" style="stop-color:#80DBFC;stop-opacity:0.97"/>
		</linearGradient>
		<path class="st5" d="M161.5,393.2c29.8-0.6,49.7-25.9,49.6-49.6l0-61.1c0-55.4,45.5-98.9,100.9-98.9h0v58.1
			C312.1,388.5,161.5,393.2,161.5,393.2z"/>
		<linearGradient id="SVGID_6_" gradientUnits="userSpaceOnUse" x1="-21.7905" y1="44.443" x2="246.0639" y2="727.2077">
			<stop  offset="0" style="stop-color:#7B1B59"/>
			<stop  offset="0.1571" style="stop-color:#7C336E;stop-opacity:0.9953"/>
			<stop  offset="0.4899" style="stop-color:#7D71A2;stop-opacity:0.9853"/>
			<stop  offset="0.9682" style="stop-color:#80D4F6;stop-opacity:0.971"/>
			<stop  offset="1" style="stop-color:#80DBFC;stop-opacity:0.97"/>
		</linearGradient>
		<path class="st6" d="M187.2,492c-81.4-12.1-75.9-149-75.9-149V136.3C111.3,80.9,66.4,36,11,36l0,0v336.1l0,0
			c0.2,66.9,55.5,121.3,121.5,121.1c6,0,36.4,0.1,54.4,0c0,0,6.4,0,8.5-0.1C195.3,493,193.3,492.9,187.2,492z"/>
	</g>
</g>
</svg>
