<?xml version="1.0" encoding="utf-8"?>
<!-- Generator: Adobe Illustrator 22.1.0, SVG Export Plug-In . SVG Version: 6.00 Build 0)  -->
<svg version="1.1" id="Capa_1" xmlns="http://www.w3.org/2000/svg" xmlns:xlink="http://www.w3.org/1999/xlink" x="0px" y="0px"
	 viewBox="0 0 229.4 229.4" style="enable-background:new 0 0 229.4 229.4;" xml:space="preserve">
<style type="text/css">
	.st0{fill:#FAA954;}
</style>
<g transform="translate(0,-952.36218)">
	<path class="st0" d="M30.4,988c-15.9,0-29,13.1-29,29v100.1c0,15.9,13.1,29,29,29H199c15.9,0,29-13.1,29-29V1017
		c0-15.9-13.1-29-29-29H30.4z M30.4,1003.8H199c1.3,0,2.5,0.2,3.7,0.5l-85.5,80.3c-0.9,0.9-4,0.9-4.9,0l-85.5-80.3
		C27.9,1004,29.1,1003.8,30.4,1003.8z M17.2,1017.2l56.2,52.8l-56,49.8c-0.2-0.8-0.2-1.7-0.2-2.6V1017.2L17.2,1017.2z M212.2,1017.2
		v99.9c0,0.9-0.1,1.8-0.2,2.6l-56-49.8L212.2,1017.2L212.2,1017.2z M85.1,1080.8l16.3,15.3c7.6,7.1,19.1,7.1,26.7,0l16.3-15.3
		l55.6,49.4c-0.3,0-0.6,0.1-0.9,0.1H30.4c-0.3,0-0.6-0.1-0.9-0.1L85.1,1080.8L85.1,1080.8z"/>
</g>
</svg>
