<?xml version="1.0" encoding="utf-8"?>
<!-- Generator: Adobe Illustrator 22.1.0, SVG Export Plug-In . SVG Version: 6.00 Build 0)  -->
<svg version="1.1" id="Capa_1" xmlns="http://www.w3.org/2000/svg" xmlns:xlink="http://www.w3.org/1999/xlink" x="0px" y="0px"
	 viewBox="0 0 451 451" style="enable-background:new 0 0 451 451;" xml:space="preserve">
<style type="text/css">
	.st0{fill:none;}
	.st1{fill:#2770B5;}
	.st2{fill:#FFFFFF;}
</style>
<g>
	<path class="st0" d="M142.3,187.5c14.7-31.8,46.6-53.9,83.8-53.9c37.1,0,69.1,22.1,83.8,53.9h72.9V98.6c0-17.3-14-31.4-31.2-31.4
		h-171v45.6c0,6-4.8,10.8-10.8,10.8s-10.8-4.8-10.8-10.8V67.3h-7.7v45.6c0,6-4.8,10.8-10.8,10.8s-10.8-4.8-10.8-10.8V67.3h-9.3v45.6
		c0,6-4.8,10.8-10.8,10.8s-10.8-4.8-10.8-10.8V67.4c-16.1,1.3-28.7,14.8-28.7,31.2v88.8L142.3,187.5L142.3,187.5z M297.7,110.5
		c0-7.4,6-13.4,13.4-13.4h28.1c7.4,0,13.4,6,13.4,13.4v28.2c0,7.4-6,13.4-13.4,13.4h-28.1c-7.4,0-13.4-6-13.4-13.4V110.5z"/>
	<path class="st0" d="M178.8,226.2c0,26.2,21.2,47.6,47.5,47.6c26.1,0,47.5-21.4,47.5-47.6s-21.2-47.6-47.5-47.6
		C200.1,178.6,178.8,200,178.8,226.2z"/>
	<path class="st0" d="M318.3,219.8c0.1,2.1,0.3,4.1,0.3,6.3c0,51-41.3,92.7-92.2,92.7s-92.2-41.5-92.2-92.7c0-2.1,0.1-4.3,0.3-6.3
		h-64v129.7c0,17.3,14,31.4,31.2,31.4h250.1c17.3,0,31.2-14.1,31.2-31.4V219.8H318.3z"/>
	<path class="st1" d="M351.6,25.8h-250C61.5,25.8,29,58.4,29,98.6v250.9c0,40.2,32.5,72.9,72.6,72.9h250.1
		c40.1,0,72.6-32.6,72.6-72.9V98.6C424.2,58.4,391.7,25.8,351.6,25.8z M99,67.4v45.3c0,6,4.8,10.8,10.8,10.8s10.8-4.8,10.8-10.8
		V67.1h9.3v45.6c0,6,4.8,10.8,10.8,10.8s10.8-4.8,10.8-10.8V67.1h7.7v45.6c0,6,4.8,10.8,10.8,10.8s10.8-4.8,10.8-10.8V67.1h171.1
		c17.3,0,31.2,14.1,31.2,31.4v88.8h-72.9c-14.7-31.8-46.8-53.9-83.8-53.9s-69.1,22.1-83.8,53.9h-72V98.5
		C70.2,82.2,82.9,68.7,99,67.4z M273.6,226.2c0,26.2-21.2,47.6-47.5,47.6c-26.1,0-47.5-21.4-47.5-47.6s21.2-47.6,47.5-47.6
		C252.4,178.6,273.6,200,273.6,226.2z M351.6,380.9h-250c-17.3,0-31.2-14.1-31.2-31.4V219.8h63.9c-0.1,2.1-0.3,4.1-0.3,6.3
		c0,51,41.3,92.7,92.2,92.7s92.2-41.5,92.2-92.7c0-2.1-0.1-4.3-0.3-6.3h64.6v129.7C382.9,366.8,368.9,380.9,351.6,380.9z"/>
	<path class="st2" d="M311.1,152.1h28.1c7.4,0,13.4-6,13.4-13.4v-28.2c0-7.4-6-13.4-13.4-13.4h-28.1c-7.4,0-13.4,6-13.4,13.4v28.2
		C297.7,146.1,303.7,152.1,311.1,152.1z"/>
</g>
</svg>
