<?xml version="1.0" encoding="utf-8"?>
<!-- Generator: Adobe Illustrator 22.1.0, SVG Export Plug-In . SVG Version: 6.00 Build 0)  -->
<svg version="1.1" id="Capa_1" xmlns="http://www.w3.org/2000/svg" xmlns:xlink="http://www.w3.org/1999/xlink" x="0px" y="0px"
	 viewBox="0 0 500 500" style="enable-background:new 0 0 500 500;" xml:space="preserve">
<style type="text/css">
	.st0{fill:none;stroke:#B20D30;stroke-width:10;stroke-miterlimit:10;}
</style>
<g>
	<path class="st0" d="M485.3,51.5h-40.6V37.7c0-10.5-8.1-18.7-18.7-18.7h-11.4c-10.5,0-18.7,8.1-18.7,18.7v13.8h-40.6
		c-4.9,0-8.1,3.2-8.1,8.1s3.2,8.1,8.1,8.1H396v13.8c0,9.7,7.3,17,16.2,18.7v26c-9.7,3.2-16.2,12.2-16.2,22.7v28.4l-48.7,36.5v-7.3
		c0-9.7-7.3-17-17-17h-56v-40.6c0-4.9-3.2-8.1-8.1-8.1c-4.9,0-8.1,3.2-8.1,8.1v40.6h-16.2V165c0-4.9-3.2-8.1-8.1-8.1
		c-4.9,0-8.1,3.2-8.1,8.1v24.3h-56c-9.7,0-17,7.3-17,17v7.3l-48.7-36.5v-28.4c0-10.5-6.5-19.5-16.2-22.7v-26
		c8.9-0.8,16.2-8.9,16.2-18.7V67.7h40.6c4.9,0,8.1-3.2,8.1-8.1s-3.2-8.1-8.1-8.1h-40.6V37.7c0-10.5-8.1-18.7-18.7-18.7H73.9
		c-10.5,0-18.7,8.1-18.7,18.7v13.8H14.7c-4.9,0-8.1,3.2-8.1,8.1s3.2,8.1,8.1,8.1h40.6v13.8c0,9.7,7.3,17,16.2,18.7v26
		c-9.7,3.2-16.2,12.2-16.2,22.7v129.8c0,13.8,10.5,24.3,24.3,24.3s24.3-10.5,24.3-24.3v-30.8l41.4,35.7c-30,19.5-62.5,86-65.7,141.2
		h48.7c4.1-60,52.7-105.5,73-105.5h16.2v16.2h-17.8c-8.1,0-14.6,6.5-14.6,14.6v101.4c0,8.1,6.5,14.6,14.6,14.6h101.4
		c8.1,0,14.6-6.5,14.6-14.6V350c0-8.1-6.5-14.6-14.6-14.6h-18.7v-16.2h16.2c20.3,0,68.1,45.4,73,105.5h48.7
		c-3.2-55.2-34.9-121.7-64.9-141.2l41.4-35.7v30.8c0,13.8,10.5,24.3,24.3,24.3c13.8,0,24.3-10.5,24.3-24.3V148.8
		c0-10.5-6.5-19.5-16.2-22.7v-26c8.9-0.8,16.2-8.9,16.2-18.7V67.7h40.6c4.9,0,8.1-3.2,8.1-8.1C493.4,54.7,490.1,51.5,485.3,51.5z"/>
	<path class="st0" d="M371.7,462.8c0,10.5,8.1,18.7,18.7,18.7h11.4c10.5,0,18.7-8.1,18.7-18.7v-21.9h-48.7V462.8z"/>
	<path class="st0" d="M79.6,462.8c0,10.5,8.1,18.7,18.7,18.7h11.4c10.5,0,18.7-8.1,18.7-18.7v-21.9H79.6V462.8z"/>
</g>
</svg>
