<?xml version="1.0" encoding="utf-8"?>
<!-- Generator: Adobe Illustrator 22.1.0, SVG Export Plug-In . SVG Version: 6.00 Build 0)  -->
<svg version="1.1" id="Capa_1" xmlns="http://www.w3.org/2000/svg" xmlns:xlink="http://www.w3.org/1999/xlink" x="0px" y="0px"
	 viewBox="0 0 500 500" style="enable-background:new 0 0 500 500;" xml:space="preserve">
<style type="text/css">
	.st0{fill:#B20D30;}
	.st1{fill:#B20D30;stroke:#FFFFFF;stroke-miterlimit:10;}
	.st2{fill:#B20D30;stroke:#FFFFFF;stroke-width:0.5;stroke-miterlimit:10;}
</style>
<g>
	<circle class="st0" cx="18.6" cy="479.7" r="9.5"/>
	<circle class="st0" cx="260.4" cy="239.5" r="9.5"/>
	<path class="st1" d="M355.7,107.9c-10.7,0-20.8,4.2-28.4,11.8c-15.7,15.7-15.7,41.2,0,56.9c7.8,7.8,18.1,11.8,28.4,11.8
		c10.3,0,20.6-3.9,28.4-11.8l0,0c15.7-15.7,15.7-41.2,0-56.9C376.6,112.1,366.5,107.9,355.7,107.9z M370.8,163.2
		c-8.3,8.3-21.8,8.3-30.2,0c-8.3-8.3-8.3-21.8,0-30.2c4-4,9.4-6.2,15.1-6.2c5.7,0,11.1,2.2,15.1,6.2
		C379.1,141.4,379.1,154.9,370.8,163.2z"/>
	<path class="st2" d="M127.1,395.9c-4.7-2.3-10.3-0.4-12.7,4.2l-11.3,22.6c-4.9,9.8-14.7,16.4-25.7,17.1l-13.1,0.9
		c-2.2,0.1-3.7-1-4.3-1.6s-1.8-2.1-1.6-4.3l0.9-13.1c0.8-11,7.3-20.8,17.1-25.7l22.6-11.3c4.7-2.3,6.6-8,4.2-12.7
		c-2.3-4.7-8-6.6-12.7-4.2l-22.6,11.3c-15.8,7.9-26.4,23.7-27.6,41.3l-0.9,13.1c-0.5,7.1,2.1,14,7.1,19c4.6,4.6,10.8,7.2,17.3,7.2
		c0.6,0,1.1,0,1.7-0.1l13.1-0.9c17.6-1.2,33.5-11.8,41.3-27.6l11.3-22.6C133.7,403.9,131.8,398.2,127.1,395.9z"/>
	<path class="st2" d="M484.5,16.3c-4.4-4.4-10.5-6.7-16.7-6.2l-8.8,0.6c-78.9,5-152.7,43.1-202.6,104.5l-20.7,25.5l-54.2-1.6
		c-0.1,0-0.2,0-0.3,0c-43,0-83.4,16.7-113.8,47.1l-55.5,55.5c-2.6,2.6-3.5,6.6-2.1,10.1s4.6,5.9,8.3,6l117.5,6l-4.8,5.9
		c-2.4,3-2.8,7.1-1,10.5c1.8,3.4,3.8,6.7,5.8,10l-27.9,33.1c-2.4,2.8-2.9,6.8-1.3,10.1c6.1,12.9,14.2,24.4,24,34.4
		c10.1,10.2,21.9,18.5,35.1,24.7c1.3,0.6,2.7,0.9,4,0.9c2.1,0,4.2-0.7,6-2.1c6-4.9,12.9-10.6,19.6-16.2c4.8-4,9.7-8.1,14.2-11.8
		c2.7,1.6,5.5,3.2,8.3,4.7c1.4,0.8,3,1.1,4.5,1.1c2.1,0,4.1-0.7,5.8-2l6.4-5l6.1,118c0.2,3.7,2.6,7,6,8.3c1.1,0.4,2.3,0.6,3.4,0.6
		c2.5,0,4.9-1,6.7-2.8l55.5-55.5c30.4-30.4,47.1-70.8,47.1-113.8v-51.8l21.9-17c65.6-50.9,105.6-127.7,109.7-210.7L491,33
		C491.3,26.7,489,20.7,484.5,16.3z M40.3,240l40.5-40.5c26.8-26.8,62.4-41.6,100.3-41.6l39.6,1.2l-70.3,86.6L40.3,240z M183,360.5
		c-4.9,4.1-10,8.3-14.7,12.2c-9.1-4.9-17.3-11.1-24.5-18.3c-7-7-12.9-15-17.6-23.8l20.4-24.2c6.2,8.3,12.9,16.1,20.2,23.5
		c0,0,0,0,0,0c0,0,0,0,0,0c0,0,0,0,0,0c8.1,8.1,16.8,15.6,26,22.4C189.6,355,186.3,357.8,183,360.5z M340.3,317
		c0,37.9-14.8,73.6-41.6,100.4L258.2,458L252.6,348l87.7-68.1V317z M471.9,36.6c-3.8,77.5-41.1,149.2-102.4,196.7l-148.2,115
		c-12.3-7.2-23.7-15.7-34.2-25.3l50-50c3.7-3.7,3.7-9.7,0-13.4c-3.7-3.7-9.7-3.7-13.4,0l-49.9,49.9c-9.2-10.2-17.3-21.2-24.2-33
		L271.1,127c46.5-57.3,115.5-92.8,189.1-97.5l8.8-0.6c1.2-0.1,1.9,0.5,2.3,0.9c0.4,0.3,0.9,1.1,0.9,2.3L471.9,36.6z"/>
</g>
</svg>
