<?xml version="1.0" encoding="utf-8"?>
<!-- Generator: Adobe Illustrator 22.1.0, SVG Export Plug-In . SVG Version: 6.00 Build 0)  -->
<svg version="1.1"
	 id="Capa_1" xmlns:cc="http://creativecommons.org/ns#" xmlns:dc="http://purl.org/dc/elements/1.1/" xmlns:inkscape="http://www.inkscape.org/namespaces/inkscape" xmlns:rdf="http://www.w3.org/1999/02/22-rdf-syntax-ns#" xmlns:sodipodi="http://sodipodi.sourceforge.net/DTD/sodipodi-0.dtd" xmlns:svg="http://www.w3.org/2000/svg"
	 xmlns="http://www.w3.org/2000/svg" xmlns:xlink="http://www.w3.org/1999/xlink" x="0px" y="0px" viewBox="0 0 451 451"
	 style="enable-background:new 0 0 451 451;" xml:space="preserve">
<style type="text/css">
	.st0{fill:#FFFFFF;}
</style>
<g transform="translate(0,-952.36218)">
	<path class="st0" d="M22.5,984.5C14.5,984.5,8,991,8,999c0,8,6.5,14.5,14.5,14.5h46.2l49.9,235.3c2,8.9,7.8,16.2,15.1,16.2h241.8
		c7.7,0.1,14.7-6.8,14.7-14.5s-7-14.6-14.7-14.5h-230l-6.2-29h255.5c6.5,0,12.6-5,14.1-11.3l33.8-145.1c1.9-8.4-5.4-17.6-14.1-17.7
		H102.6l-7.9-36.9c-1.4-6.4-7.6-11.5-14.2-11.5H22.5z M108.6,1061.8h301.7l-27,116H133.3L108.6,1061.8z M182.1,1274.6
		c-26.5,0-48.4,21.8-48.4,48.4c0,26.5,21.8,48.4,48.4,48.4s48.4-21.8,48.4-48.4C230.4,1296.4,208.6,1274.6,182.1,1274.6z
		 M327.1,1274.6c-26.5,0-48.4,21.8-48.4,48.4c0,26.5,21.8,48.4,48.4,48.4c26.5,0,48.4-21.8,48.4-48.4
		C375.5,1296.4,353.6,1274.6,327.1,1274.6z M182.1,1303.6c10.9,0,19.3,8.5,19.3,19.3c0,10.9-8.5,19.3-19.3,19.3
		c-10.9,0-19.3-8.5-19.3-19.3C162.7,1312.1,171.2,1303.6,182.1,1303.6z M327.1,1303.6c10.9,0,19.3,8.5,19.3,19.3
		c0,10.9-8.5,19.3-19.3,19.3c-10.9,0-19.3-8.5-19.3-19.3C307.8,1312.1,316.3,1303.6,327.1,1303.6z"/>
</g>
</svg>
