<?xml version="1.0" encoding="utf-8"?>
<!-- Generator: Adobe Illustrator 22.1.0, SVG Export Plug-In . SVG Version: 6.00 Build 0)  -->
<svg version="1.1" id="Capa_1" xmlns="http://www.w3.org/2000/svg" xmlns:xlink="http://www.w3.org/1999/xlink" x="0px" y="0px"
	 viewBox="0 0 500 500" style="enable-background:new 0 0 500 500;" xml:space="preserve">
<style type="text/css">
	.st0{fill:none;stroke:#556EAB;stroke-width:15;stroke-miterlimit:22.9256;}
	.st1{fill:none;stroke:#556EAB;stroke-width:8.5039;stroke-miterlimit:22.9256;}
	.st2{fill:#556EAB;stroke:#556EAB;stroke-width:0.216;stroke-miterlimit:22.9256;}
	.st3{fill:#FFFFFF;}
	.st4{fill:#556EAB;stroke:#556EAB;stroke-width:3;stroke-miterlimit:22.9256;}
	.st5{fill:#556EAB;}
	.st6{fill:#556EAB;stroke:#556EAB;stroke-width:0.5669;stroke-miterlimit:22.9256;}
</style>
<g>
	<path class="st0" d="M92.7,100c10.2-73.1,100.5-48.8,101.2-45.5c2,9,42.7,1.2,41.5,53.9c-0.3,12.2-1.6,32.2-4.5,52.3
		c-0.4,2.6,6.8,11.1,2.6,22.8c-6.8,19.3-13.3,19.6-13.3,19.6s-6.5,21-16.5,40.8c-5.9,11.7,2.6,34.7,2.6,34.7s0.6,6.3,12.3,13.9
		s18.4,0,60.5,26.9s36.8,53.2,36.8,53.2H10.2c0,0,0.6-18.7,7.6-29.2s25.8-22.9,26.6-23.4c0.8-0.5,13.5-7.7,26-12
		c14.9-5.1,33.6-14.6,33.1-14c-0.6,0.6,16.6-9.7,19.6-16.7c5.3-12.8,3.6-18.7,1.8-32.2c-3.5-26.2-7.7-1.3-21-41.5
		c-0.4-1.1-9.8-9.2-12.9-19.6c-2.9-9.8,0.3-22.1,7.5-22.1C106.5,162,91,138.3,92.7,100z"/>
	<path class="st1" d="M126.5,263.8c28.5,20.1,29.3,28.1,37.1,28.6c8.4,0.5,18.1-13.4,38.8-29"/>
	<polyline class="st1" points="100.2,291.5 132.3,323.6 163.5,295.1 196.3,325.1 225.3,295.6 	"/>
	<path class="st1" d="M149.2,306.7c13.3,14.6,12.9,14.1,12.9,14.1l-20.2,51.8h43.3l-16.7-51.7l11.3-12.4"/>
	<g>
		<path class="st2" d="M161.6,317.7c5.1,2.8,2.8,1,6.8,5.5c-6.4,2.1-3.3,1.6-9.4,1.7c-2.1-0.5-3.2-2.5-2.4-4.5
			C157.2,318.4,159.5,317.2,161.6,317.7z"/>
	</g>
	<g>
		<path class="st2" d="M101.2,291c1.1,2.4,0.8,1.1,0.8,3.8c-2.6,0-1.5,0.3-3.5-0.5c-0.9-0.7-1.1-2-0.3-3S100.3,290.3,101.2,291z"/>
	</g>
	<g>
		<path class="st3" d="M165.9,329.6c0.7,2.6,1.3,5,1.8,7.4c1.6,0.9,3.1,3.8,4,9.3l0.4,1.8c0.5,1.5,0.8,3.1,1,4.7
			c0.3,1.4,0.6,2.8,0.8,4.2c0.5,2.5,0.9,4.6,0.9,5c0.1,1-0.5,1.6-1.5,2.1c0,0.1-0.1,0.2-0.1,0.3c-0.3,0.6-0.8,1.1-1.5,1.5
			c-0.4,0.8-1,1.1-1.6,0.6c-2.3,0.6-5.5,0.6-8.6,0.4c-1.7,3.1-3.4,3.9-4.9-0.3c-0.7,0-1.3-0.1-1.8-0.1c-1.3,0.3-2.6,0.6-3.7,1
			c-4.1,1.5,1.2-8.1,5.9-15.8c1.5-5.8,4.1-11.3,6.8-13.7c-0.5-2.7-1-4.9-1.3-6c-0.6-1-0.3-2.3,0.6-2.9
			C164,328.4,165.3,328.6,165.9,329.6L165.9,329.6z M166.3,352.2c-0.8,3.4-1.9,7.2-3.1,10.5c1.8-0.2,3.6-0.3,5-0.4
			C167.7,359.8,167,356.2,166.3,352.2L166.3,352.2z M162,365.6l-0.1,0.2c2.7-0.2,5.4-0.4,7.1-0.6c0-0.1-0.1-0.1-0.1-0.2
			c0,0,0,0,0-0.1C166.8,365.3,164.4,365.4,162,365.6L162,365.6z M156.3,366.2L156.3,366.2c-0.3,0-0.5,0-0.8,0.1L156.3,366.2
			L156.3,366.2z M155.7,363.6c-0.2-1.6-0.2-3.4-0.1-5.4c-1.2,2.2-2.3,4.3-3.1,6.1C153.5,364,154.6,363.8,155.7,363.6L155.7,363.6z
			 M167.3,336.8L167.3,336.8L167.3,336.8L167.3,336.8L167.3,336.8z M164.5,342.5c-1.1,2-2.2,4.1-3.4,6.1c-1.5,5-2.4,11-2.2,14.5
			l0.5-0.1c5.2-15.4-1.3,4.8,4.5-18c0.2-0.8,0.4-1.5,0.7-2.1L164.5,342.5L164.5,342.5z M150.2,365.1c-0.1,0-0.2,0.1-0.3,0.1
			C150,365.2,150.1,365.2,150.2,365.1L150.2,365.1z M159.9,365.9C160,365.9,160,365.9,159.9,365.9C160,365.9,160,365.9,159.9,365.9z
			"/>
	</g>
	<g>
		<path class="st4" d="M164.8,341.4c-0.1,0.6-0.3,1.1-0.5,1.7c-0.1,1.9,0.1,4,0.3,6.1c0.2,0.2,0.4,0.4,0.6,0.7l0,0l0,0
			c1,1.4,1.5,3.6,1.6,5.9l0,0c0.1-0.4,0.4-0.4,0.7-0.3c0,0,0.1,0.2,0.2,0.5l0,0v0.1c0.3,0.8,1,2.6,1.8,4.5c0.2-0.7,0.2-1.5,0.3-2.1
			C168,352.8,166.1,346,164.8,341.4L164.8,341.4z M157.7,357.2c-0.1,0-0.2,0-0.4,0c-0.2,0.3-0.4,0.7-0.6,1c0.7,0.4,1.3,1.2,1.6,2.6
			c0.1-0.2,0.2-0.4,0.2-0.6C158.1,359.2,157.7,358.2,157.7,357.2L157.7,357.2z M155.5,348.6c0.6-7.8,3.4-18.7,6.7-18.4
			c-1.4-12,8.4-6.5,6.4,4.1c-0.2,1.1-0.4,2.1-0.6,2.9c1.3,4.8,2.9,10.5,4.4,15.4c0.4-0.2,1,0,1.9,0.5c0.3,0.2,2.3,4.4,3.6,8.6
			c1.7,2.1,2,3.5,1.1,4.6c0.2,2.1-0.2,3.6-1.6,3.7c-3.4,0.2-7.5-0.6-9.6-1.7c-3.4,1.6-8.4,1.2-14,0.9c-4.8-0.3-5.6-1.9-4.4-4.8
			c0.2-1.1,0.9-2.3,1.7-3.4c0.9-1.5,2-3.2,3.1-5.1C153.6,354.4,153.8,351.9,155.5,348.6L155.5,348.6z M171.8,365
			c0.2,0,0.5,0,0.8-0.1c-0.2-0.4-0.4-0.9-0.6-1.3c-0.1,0.3-0.2,0.6-0.4,0.9C171.6,364.7,171.7,364.8,171.8,365L171.8,365z
			 M166.9,358.7c0.3-0.5,0.5-1,0.6-1.4c0.4,1,1,2.5,1.8,4.2c-0.7,2-2.2,3.8-6,3.8c-1.2,0-3.8,0.3-6.3,0.4c0.1-0.2,0.3-0.3,0.4-0.5
			c0.3-0.3,0.6-0.6,0.8-1s0.5-0.8,0.7-1.2c0.4,1.9,1.8,1.1,2.2-0.2c0.1-0.2,0.1-0.3,0.2-0.5c0.6,0.2,1.3,0.1,2-0.1
			c0.7,1.4,1.4,1.8,1.9,1.6c0.7,1.3,1.3,1.4,1.7-0.6c0.1-0.5,0-1.7-0.2-3.1C166.9,359.7,166.9,359.2,166.9,358.7L166.9,358.7z
			 M162.8,361c-0.2-0.4-0.4-0.9-0.6-1.5c-0.2,0.6-0.3,1.1-0.5,1.7C162.1,361.3,162.4,361.2,162.8,361L162.8,361z M153.1,365.6
			c-0.3-0.1-0.5-0.2-0.7-0.4l-0.2,0.4c0.2,0,0.3,0.1,0.5,0.1C152.8,365.7,153,365.7,153.1,365.6L153.1,365.6z M154.2,362.5
			c0.5-0.8,1-1.6,1.4-2.4c0.9,0.3,1.6,0.9,1.9,1.6c-0.5,0.2-1.2,0.4-2.2,0.6C155,362.3,154.6,362.4,154.2,362.5L154.2,362.5z
			 M157.2,362.8c-1,0.4-2.2,0.8-3.6,1.1c0.5,0.3,1.1,0.7,1.7,0.8C156.1,364.2,156.7,363.5,157.2,362.8z"/>
	</g>
	<g>
		<path class="st5" d="M170.1,335.5c0.6,2.1,1.8,7.8,2.9,12.2c2.1,0,4.5,2.6,2.2,7.6c-0.5,1.1-1,1.6-1.6,1.7
			c-0.8,1.1-1.9,1.9-2.9,2.6c0.1,1.8-0.4,3.2-1.3,3.8c0,0.3,0,0.4,0,0.4c-1,1.8-1.8,1.6-2.3,0.5c-0.3,0.2-0.7,0.3-1,0.2
			c-0.3,0.3-0.7,0.5-1,0.6c-1.6,1.1-3.7,0.3-3.7-1.9l0,0c-0.7-2.5,2-3.6,3.2-2.5c0.3-0.4,0-0.3,0.5-0.5c0-0.1,0.1-0.2,0.1-0.2
			c0-1.1-0.3-1.9,0.3-3c-0.4-2.2-0.8-4.8-1.3-7.1c-2.4,3-5.7,6.7-8.7,9.4c0.1,0.2,0.2,0.7,0.2,1.2l0,0h0.6c0,0.2,0,0.3,0,0.5
			c0.8,1,0.1,2.5-0.7,2.9c-0.1,0.3-0.1,0.5-0.2,0.6v0.1l-0.9,0.4c-0.1-0.1-0.2-0.4-0.3-0.6c-1.4,0.5-2.9,0.3-1.9-0.7
			c0.4-0.4,0.7-0.7,1-0.9c-0.1-0.4-0.2-0.9-0.2-1.4c-2.2,1.7-3.8,2.6-4.2,1.5c-0.5-1.3,3-6.4,4.1-8.6h0.2c0.2-0.7,0.5-1.2,0.9-1.2
			c0.8,0,1.1,0.4,1.1,1.1h0.1c0,0.5,0,1.1,0,1.6c2.9-2.9,6.4-6.3,8.3-9.5c-0.3-1.6-0.5-2.8-0.6-3c0.5,0.6,0.8,0.7,1.6,0.6
			c-4,0-0.4-5.8,1.9-5.7c-0.3-1.7-0.5-2.8-0.5-2.8c0-1.2,0.9-2.1,2.1-2.2C169.1,333.4,170.1,334.3,170.1,335.5L170.1,335.5z
			 M167.7,344.1c0,0.3-0.1,0.6-0.1,1c0,0.3-0.3,0.7-0.6,1.3c0.8,2.9,1.4,6.7,1.8,10c1.1-0.9,1.7-1.7,2-2.4
			C169.6,351.3,168.5,347.5,167.7,344.1z"/>
	</g>
</g>
<path class="st6" d="M389.5,251.7c55.1,0,99.7,44.7,99.7,99.7c0,55.1-44.7,99.7-99.7,99.7c-55.1,0-99.7-44.7-99.7-99.7
	C289.7,296.4,334.4,251.7,389.5,251.7L389.5,251.7z M399.9,404c10.5-2.1,15.7-8.8,15.7-20v-13.3c0-4.1-1.1-7.8-3.3-11.1
	c-2.2-3.3-8.4-10.1-18.8-20.4c-5.1-5.3-7.7-9.9-7.7-13.7l-0.4-6.8c0-4.1,1.3-6.1,3.9-6.1c2.2,0,3.3,1,3.3,3.1V335h20.9v-18.1
	c0-9.4-4.5-15.2-13.6-17.5v-7.2H379v7.2c-10.4,2.2-15.6,8.6-15.6,19.3v11.8c0,4.8,2.5,10.1,7.5,15.8c10.5,10.4,16.7,16.9,18.7,19.5
	s2.9,5.3,2.9,7.9V386c0,2.4-1.3,3.6-4,3.6c-2.8,0-4.2-1.2-4.2-3.6v-24h-20.9v23.9c0,9.2,5.2,15.2,15.6,17.8v7.2h20.9V404z"/>
</svg>
