<?xml version="1.0" encoding="utf-8"?>
<!-- Generator: Adobe Illustrator 22.1.0, SVG Export Plug-In . SVG Version: 6.00 Build 0)  -->
<svg version="1.1" id="Capa_1" xmlns="http://www.w3.org/2000/svg" xmlns:xlink="http://www.w3.org/1999/xlink" x="0px" y="0px"
	 viewBox="0 0 500 500" style="enable-background:new 0 0 500 500;" xml:space="preserve">
<style type="text/css">
	.st0{fill:none;stroke:#556EAB;stroke-width:19.8425;stroke-miterlimit:22.9256;}
	.st1{fill:none;stroke:#556EAB;stroke-width:11.3386;stroke-miterlimit:22.9256;}
</style>
<g>
	<path class="st0" d="M287,116.7h182c8.3,0,15,6.8,15,15v236.5c0,8.3-6.8,15-15,15H287c-8.3,0-15-6.8-15-15v-40V257V131.8
		C271.9,123.5,278.7,116.7,287,116.7z"/>
	<g>
		<path class="st1" d="M310.3,178.1c10.1,10.1,9.6,9.6,9.6,9.6"/>
		<path class="st1" d="M347.7,166c-29.7,29.7-29.4,29.4-29.4,29.4"/>
	</g>
	<g>
		<path class="st1" d="M310.2,242.9c10.1,10.1,9.6,9.6,9.6,9.6"/>
		<path class="st1" d="M347.6,230.8c-29.7,29.7-29.4,29.4-29.4,29.4"/>
	</g>
	<g>
		<path class="st1" d="M310.2,307.6c10.1,10.1,9.6,9.6,9.6,9.6"/>
		<path class="st1" d="M347.6,295.5c-29.7,29.7-29.4,29.4-29.4,29.4"/>
	</g>
	<path class="st1" d="M365.8,184.5c85.2,0,85.2,0,85.2,0"/>
	<path class="st1" d="M365.5,251.2c85.2,0,85.2,0,85.2,0"/>
	<path class="st1" d="M366.1,315.5c85.2,0,85.2,0,85.2,0"/>
	<rect x="102.6" y="179.9" class="st0" width="112.4" height="71.3"/>
	<rect x="16" y="257" class="st0" width="112.4" height="71.3"/>
	<rect x="191.2" y="257" class="st0" width="71.1" height="71.3"/>
</g>
</svg>
