<?xml version="1.0" encoding="utf-8"?>
<!-- Generator: Adobe Illustrator 22.1.0, SVG Export Plug-In . SVG Version: 6.00 Build 0)  -->
<svg version="1.1" id="Capa_1" xmlns="http://www.w3.org/2000/svg" xmlns:xlink="http://www.w3.org/1999/xlink" x="0px" y="0px"
	 viewBox="0 0 451 451" style="enable-background:new 0 0 451 451;" xml:space="preserve">
<style type="text/css">
	.st0{fill:#FFFFFF;}
</style>
<title>se1</title>
<path class="st0" d="M175.1,336.4C86.7,336.9,14.6,265.6,14,177.1S84.8,16.5,173.3,16s160.6,70.8,161.1,159.3c0,0.3,0,0.6,0,0.9
	C334.6,264.3,263.3,336,175.1,336.4z M175.1,58.5c-65-0.6-118.1,51.7-118.7,116.7s51.7,118.1,116.7,118.7
	c65,0.6,118.1-51.7,118.7-116.7c0-0.3,0-0.7,0-1C292,111.5,239.8,58.9,175.1,58.5L175.1,58.5z"/>
<rect x="325.3" y="243.3" transform="matrix(0.7056 -0.7086 0.7086 0.7056 -143.7732 347.709)" class="st0" width="42.5" height="207.1"/>
</svg>
